<?xml version="1.0" encoding="utf-8"?>
<!-- Generator: Adobe Illustrator 21.1.0, SVG Export Plug-In . SVG Version: 6.00 Build 0)  -->
<svg width="8" height="5" version="1.1" id="Capa_1" xmlns="http://www.w3.org/2000/svg" xmlns:xlink="http://www.w3.org/1999/xlink" x="0px" y="0px"
	 viewBox="0 0 444.5 444.5" style="enable-background:new 0 0 444.5 444.5;" xml:space="preserve">
<style type="text/css">
	.st0{fill:#585858;}
</style>
<g>
	<path class="st0" d="M222.5,231.4L83.8,92.7c-7-7-15.7-10.6-25.8-10.6c-10.3,0-18.9,3.5-25.9,10.6l-21.4,21.4
		c-7,7-10.6,15.7-10.6,25.8c0,10.1,3.5,18.8,10.6,25.8l185.9,186.1c7,7,15.7,10.6,25.8,10.6s18.8-3.5,25.8-10.6L434,165.6
		c7-7,10.6-15.7,10.6-25.8S441.1,121,434,114l-21.4-21.4c-7-7-15.6-10.6-25.7-10.6s-18.7,3.5-26,10.6L222.5,231.4z"/>
</g>
</svg>
