<?xml version="1.0" encoding="utf-8"?>
<!-- Generator: Adobe Illustrator 21.1.0, SVG Export Plug-In . SVG Version: 6.00 Build 0)  -->
<svg version="1.1" id="Layer_1" xmlns="http://www.w3.org/2000/svg" xmlns:xlink="http://www.w3.org/1999/xlink" x="0px" y="0px"
	 viewBox="0 0 147 147" style="enable-background:new 0 0 147 147;" xml:space="preserve">
<style type="text/css">
	.st0{fill:#6EB844;}
	.st1{fill:#457F2D;}
	.st2{fill:#FFFFFF;}
	.st3{fill:none;stroke:#000000;stroke-width:0.25;stroke-miterlimit:10;}
	.st4{fill:#265717;}
	.st5{fill:#F8CEB3;}
	.st6{fill:#DFA13C;}
	.st7{fill:#F1B391;}
	.st8{fill:#DA8E6E;}
	.st9{fill:#F19375;}
	.st10{fill:#F8A389;}
	.st11{fill:#1F110E;}
	.st12{fill:#F9F9FA;}
	.st13{fill:#D6734C;}
	.st14{fill:#F9BB1B;}
	.st15{fill:#FFD571;}
	.st16{fill:#EEA388;}
</style>
<g>
	
		<ellipse transform="matrix(1 -1.682620e-03 1.682620e-03 1 -0.1236 0.1238)" class="st0" cx="73.5" cy="73.5" rx="73.5" ry="73.5"/>
	<path class="st1" d="M73.4,7c3,0,6.7,3.9,9.8,4.4c3.1,0.5,7.9-2.1,10.7-1.2c2.8,0.9,5.2,5.8,8,7.2c2.8,1.4,8.1,0.4,10.6,2.2
		c2.4,1.7,3.1,7.1,5.4,9.4c2.2,2.2,7.6,2.9,9.4,5.3c1.8,2.4,0.8,7.8,2.2,10.6c1.4,2.8,6.3,5.1,7.3,8c0.9,2.8-1.7,7.6-1.2,10.7
		c0.5,3.1,4.4,6.8,4.4,9.8c0,3-3.9,6.7-4.4,9.8c-0.5,3.1,2.1,7.9,1.2,10.7c-0.9,2.8-5.8,5.2-7.2,8c-1.4,2.8-0.4,8.1-2.2,10.6
		c-1.7,2.4-7.1,3.1-9.4,5.4c-2.2,2.2-2.9,7.6-5.3,9.4c-2.4,1.8-7.8,0.8-10.6,2.2c-2.8,1.4-5.1,6.3-8,7.3c-2.8,0.9-7.6-1.7-10.7-1.2
		c-3.1,0.5-6.8,4.4-9.8,4.4c-3,0-6.7-3.9-9.8-4.4c-3.1-0.5-7.9,2.1-10.7,1.2c-2.8-0.9-5.2-5.8-8-7.2c-2.8-1.4-8.1-0.4-10.6-2.2
		c-2.4-1.7-3.1-7.1-5.4-9.4c-2.2-2.2-7.6-2.9-9.4-5.3c-1.8-2.4-0.8-7.8-2.2-10.6c-1.4-2.8-6.3-5.1-7.3-8c-0.9-2.8,1.7-7.6,1.2-10.7
		C11,80.4,7,76.6,7,73.6c0-3,3.9-6.7,4.4-9.8c0.5-3.1-2.1-7.9-1.2-10.7c0.9-2.8,5.8-5.2,7.2-8c1.4-2.8,0.4-8.1,2.2-10.6
		c1.7-2.4,7.1-3.1,9.4-5.4c2.2-2.2,2.9-7.6,5.3-9.4c2.4-1.8,7.8-0.8,10.6-2.2c2.8-1.4,5.1-6.3,8-7.3c2.8-0.9,7.6,1.7,10.7,1.2
		C66.7,11,70.4,7,73.4,7z"/>
	<g>
		<path class="st2" d="M73.8,134.7l-0.1,0c-0.4,0-0.8,0-1.1,0l0-0.8c0.4,0,0.7,0,1.1,0l0.1,0L73.8,134.7z M74.9,134.7l0-0.8
			c0.4,0,0.7,0,1.1,0l0,0.8C75.7,134.6,75.3,134.6,74.9,134.7z M71.3,134.6c-0.4,0-0.8,0-1.1-0.1l0-0.8c0.4,0,0.7,0,1.1,0
			L71.3,134.6z M77.2,134.6l0-0.8c0.4,0,0.7,0,1.1-0.1l0.1,0.8C77.9,134.5,77.5,134.5,77.2,134.6z M69.1,134.5
			c-0.4,0-0.8-0.1-1.1-0.1l0.1-0.8c0.4,0,0.7,0.1,1.1,0.1L69.1,134.5z M79.4,134.4l-0.1-0.8c0.4,0,0.7-0.1,1.1-0.1l0.1,0.8
			C80.2,134.3,79.8,134.4,79.4,134.4z M66.8,134.3c-0.4,0-0.8-0.1-1.1-0.1l0.1-0.8c0.4,0,0.7,0.1,1.1,0.1L66.8,134.3z M81.7,134.1
			l-0.1-0.8c0.4,0,0.7-0.1,1.1-0.2l0.1,0.8C82.4,134,82.1,134.1,81.7,134.1z M64.6,134c-0.4-0.1-0.8-0.1-1.1-0.2l0.1-0.8
			c0.4,0.1,0.7,0.1,1.1,0.2L64.6,134z M83.9,133.8l-0.1-0.8c0.4-0.1,0.7-0.1,1.1-0.2l0.2,0.8C84.7,133.7,84.3,133.7,83.9,133.8z
			 M62.3,133.6c-0.4-0.1-0.7-0.1-1.1-0.2l0.2-0.8c0.4,0.1,0.7,0.1,1.1,0.2L62.3,133.6z M86.2,133.4l-0.2-0.8
			c0.4-0.1,0.7-0.2,1.1-0.2l0.2,0.8C86.9,133.2,86.5,133.3,86.2,133.4z M60.1,133.2c-0.4-0.1-0.7-0.2-1.1-0.3l0.2-0.8
			c0.4,0.1,0.7,0.2,1.1,0.3L60.1,133.2z M88.4,132.8l-0.2-0.8c0.4-0.1,0.7-0.2,1.1-0.3l0.2,0.8C89.1,132.7,88.8,132.8,88.4,132.8z
			 M57.9,132.6c-0.4-0.1-0.7-0.2-1.1-0.3l0.2-0.8c0.4,0.1,0.7,0.2,1.1,0.3L57.9,132.6z M90.6,132.3l-0.2-0.8
			c0.4-0.1,0.7-0.2,1.1-0.3l0.3,0.8C91.3,132,90.9,132.1,90.6,132.3z M55.7,132c-0.4-0.1-0.7-0.2-1.1-0.3l0.3-0.8
			c0.4,0.1,0.7,0.2,1.1,0.3L55.7,132z M92.7,131.6l-0.3-0.8c0.4-0.1,0.7-0.2,1.1-0.4l0.3,0.8C93.5,131.3,93.1,131.5,92.7,131.6z
			 M53.5,131.3c-0.4-0.1-0.7-0.3-1.1-0.4l0.3-0.8c0.4,0.1,0.7,0.3,1.1,0.4L53.5,131.3z M94.9,130.8l-0.3-0.8c0.4-0.1,0.7-0.3,1-0.4
			l0.3,0.8C95.6,130.6,95.2,130.7,94.9,130.8z M51.4,130.5c-0.4-0.1-0.7-0.3-1.1-0.4l0.3-0.8c0.3,0.1,0.7,0.3,1,0.4L51.4,130.5z
			 M97,130l-0.3-0.8c0.3-0.1,0.7-0.3,1-0.4l0.3,0.8C97.7,129.7,97.3,129.8,97,130z M49.3,129.7c-0.3-0.2-0.7-0.3-1-0.5l0.3-0.8
			c0.3,0.2,0.7,0.3,1,0.5L49.3,129.7z M99.1,129.1l-0.4-0.8c0.3-0.2,0.7-0.3,1-0.5l0.4,0.8C99.8,128.8,99.4,128.9,99.1,129.1z
			 M47.2,128.7c-0.3-0.2-0.7-0.3-1-0.5l0.4-0.8c0.3,0.2,0.7,0.3,1,0.5L47.2,128.7z M101.1,128.1l-0.4-0.8c0.3-0.2,0.7-0.3,1-0.5
			l0.4,0.7C101.8,127.7,101.4,127.9,101.1,128.1z M45.2,127.7c-0.3-0.2-0.7-0.4-1-0.5l0.4-0.7c0.3,0.2,0.7,0.4,1,0.5L45.2,127.7z
			 M103.1,127l-0.4-0.7c0.3-0.2,0.6-0.4,1-0.6l0.4,0.7C103.8,126.7,103.4,126.8,103.1,127z M43.2,126.6c-0.3-0.2-0.7-0.4-1-0.6
			l0.4-0.7c0.3,0.2,0.6,0.4,1,0.6L43.2,126.6z M105.1,125.9l-0.4-0.7c0.3-0.2,0.6-0.4,1-0.6l0.5,0.7
			C105.7,125.5,105.4,125.7,105.1,125.9z M41.2,125.4c-0.3-0.2-0.6-0.4-1-0.6l0.5-0.7c0.3,0.2,0.6,0.4,0.9,0.6L41.2,125.4z
			 M107,124.7l-0.5-0.7c0.3-0.2,0.6-0.4,0.9-0.6l0.5,0.7C107.6,124.3,107.3,124.5,107,124.7z M39.3,124.2c-0.3-0.2-0.6-0.4-0.9-0.6
			l0.5-0.7c0.3,0.2,0.6,0.4,0.9,0.6L39.3,124.2z M108.9,123.4l-0.5-0.7c0.3-0.2,0.6-0.4,0.9-0.7l0.5,0.7
			C109.5,123,109.2,123.2,108.9,123.4z M37.5,122.9c-0.3-0.2-0.6-0.4-0.9-0.7l0.5-0.7c0.3,0.2,0.6,0.5,0.9,0.7L37.5,122.9z
			 M110.7,122.1l-0.5-0.7c0.3-0.2,0.6-0.5,0.9-0.7l0.5,0.7C111.3,121.6,111,121.8,110.7,122.1z M35.6,121.5
			c-0.3-0.2-0.6-0.5-0.9-0.7l0.5-0.7c0.3,0.2,0.6,0.5,0.9,0.7L35.6,121.5z M112.5,120.6l-0.5-0.7c0.3-0.2,0.6-0.5,0.9-0.7l0.6,0.6
			C113,120.1,112.8,120.4,112.5,120.6z M33.9,120.1c-0.3-0.2-0.6-0.5-0.9-0.7l0.6-0.6c0.3,0.2,0.6,0.5,0.8,0.7L33.9,120.1z
			 M114.2,119.2l-0.6-0.6c0.3-0.2,0.6-0.5,0.8-0.8l0.6,0.6C114.8,118.6,114.5,118.9,114.2,119.2z M32.2,118.6
			c-0.3-0.3-0.6-0.5-0.8-0.8l0.6-0.6c0.3,0.3,0.5,0.5,0.8,0.8L32.2,118.6z M115.9,117.6l-0.6-0.6c0.3-0.3,0.5-0.5,0.8-0.8l0.6,0.6
			C116.4,117.1,116.1,117.3,115.9,117.6z M30.5,117c-0.3-0.3-0.5-0.5-0.8-0.8l0.6-0.6c0.3,0.3,0.5,0.5,0.8,0.8L30.5,117z M117.5,116
			l-0.6-0.6c0.3-0.3,0.5-0.5,0.8-0.8l0.6,0.6C118,115.5,117.7,115.7,117.5,116z M29,115.4c-0.3-0.3-0.5-0.6-0.8-0.8l0.6-0.6
			c0.2,0.3,0.5,0.6,0.8,0.8L29,115.4z M119,114.3l-0.6-0.6c0.2-0.3,0.5-0.6,0.7-0.8l0.6,0.6C119.5,113.8,119.3,114.1,119,114.3z
			 M27.4,113.7c-0.2-0.3-0.5-0.6-0.7-0.9l0.6-0.5c0.2,0.3,0.5,0.6,0.7,0.8L27.4,113.7z M120.5,112.6l-0.7-0.5
			c0.2-0.3,0.5-0.6,0.7-0.9l0.7,0.5C121,112,120.7,112.3,120.5,112.6z M26,111.9c-0.2-0.3-0.5-0.6-0.7-0.9l0.7-0.5
			c0.2,0.3,0.5,0.6,0.7,0.9L26,111.9z M121.9,110.9l-0.7-0.5c0.2-0.3,0.5-0.6,0.7-0.9l0.7,0.5C122.4,110.3,122.2,110.6,121.9,110.9z
			 M24.6,110.2c-0.2-0.3-0.4-0.6-0.7-0.9l0.7-0.5c0.2,0.3,0.4,0.6,0.7,0.9L24.6,110.2z M123.3,109l-0.7-0.5c0.2-0.3,0.4-0.6,0.6-0.9
			l0.7,0.5C123.7,108.4,123.5,108.7,123.3,109z M23.2,108.3c-0.2-0.3-0.4-0.6-0.6-0.9l0.7-0.5c0.2,0.3,0.4,0.6,0.6,0.9L23.2,108.3z
			 M124.6,107.2l-0.7-0.5c0.2-0.3,0.4-0.6,0.6-0.9l0.7,0.5C125,106.5,124.8,106.8,124.6,107.2z M22,106.4c-0.2-0.3-0.4-0.6-0.6-1
			l0.7-0.4c0.2,0.3,0.4,0.6,0.6,0.9L22,106.4z M125.8,105.2l-0.7-0.4c0.2-0.3,0.4-0.6,0.6-1l0.7,0.4
			C126.2,104.6,126,104.9,125.8,105.2z M20.8,104.5c-0.2-0.3-0.4-0.7-0.6-1l0.7-0.4c0.2,0.3,0.4,0.6,0.6,1L20.8,104.5z M126.9,103.3
			l-0.7-0.4c0.2-0.3,0.4-0.7,0.5-1l0.7,0.4C127.3,102.6,127.1,102.9,126.9,103.3z M19.7,102.5c-0.2-0.3-0.4-0.7-0.5-1l0.8-0.4
			c0.2,0.3,0.3,0.7,0.5,1L19.7,102.5z M128,101.3l-0.8-0.4c0.2-0.3,0.3-0.7,0.5-1l0.8,0.4C128.4,100.6,128.2,100.9,128,101.3z
			 M18.6,100.5c-0.2-0.3-0.3-0.7-0.5-1l0.8-0.4c0.2,0.3,0.3,0.7,0.5,1L18.6,100.5z M129,99.2l-0.8-0.4c0.2-0.3,0.3-0.7,0.5-1
			l0.8,0.3C129.3,98.5,129.2,98.9,129,99.2z M17.7,98.5c-0.2-0.3-0.3-0.7-0.5-1l0.8-0.3c0.1,0.3,0.3,0.7,0.4,1L17.7,98.5z
			 M129.9,97.1l-0.8-0.3c0.1-0.3,0.3-0.7,0.4-1l0.8,0.3C130.2,96.4,130.1,96.8,129.9,97.1z M16.8,96.4c-0.1-0.4-0.3-0.7-0.4-1.1
			l0.8-0.3c0.1,0.3,0.3,0.7,0.4,1L16.8,96.4z M130.8,95l-0.8-0.3c0.1-0.4,0.3-0.7,0.4-1.1l0.8,0.3C131,94.3,130.9,94.7,130.8,95z
			 M16,94.3c-0.1-0.4-0.3-0.7-0.4-1.1l0.8-0.3c0.1,0.4,0.2,0.7,0.4,1.1L16,94.3z M131.5,92.9l-0.8-0.3c0.1-0.4,0.2-0.7,0.3-1.1
			l0.8,0.3C131.8,92.1,131.7,92.5,131.5,92.9z M15.2,92.1c-0.1-0.4-0.2-0.7-0.3-1.1l0.8-0.2c0.1,0.4,0.2,0.7,0.3,1.1L15.2,92.1z
			 M132.2,90.7l-0.8-0.2c0.1-0.4,0.2-0.7,0.3-1.1l0.8,0.2C132.4,90,132.3,90.3,132.2,90.7z M14.6,89.9c-0.1-0.4-0.2-0.7-0.3-1.1
			l0.8-0.2c0.1,0.4,0.2,0.7,0.3,1.1L14.6,89.9z M132.8,88.5l-0.8-0.2c0.1-0.4,0.2-0.7,0.3-1.1l0.8,0.2
			C133,87.8,132.9,88.1,132.8,88.5z M14,87.7c-0.1-0.4-0.2-0.7-0.3-1.1l0.8-0.2c0.1,0.4,0.2,0.7,0.3,1.1L14,87.7z M133.3,86.3
			l-0.8-0.2c0.1-0.4,0.2-0.7,0.2-1.1l0.8,0.2C133.5,85.5,133.4,85.9,133.3,86.3z M13.5,85.5c-0.1-0.4-0.1-0.7-0.2-1.1l0.8-0.1
			c0.1,0.4,0.1,0.7,0.2,1.1L13.5,85.5z M133.8,84l-0.8-0.1c0.1-0.4,0.1-0.7,0.2-1.1l0.8,0.1C133.9,83.3,133.8,83.7,133.8,84z
			 M13.1,83.3c-0.1-0.4-0.1-0.7-0.2-1.1l0.8-0.1c0.1,0.4,0.1,0.7,0.2,1.1L13.1,83.3z M134.1,81.8l-0.8-0.1c0.1-0.4,0.1-0.7,0.1-1.1
			l0.8,0.1C134.2,81.1,134.2,81.4,134.1,81.8z M12.8,81c0-0.4-0.1-0.8-0.1-1.1l0.8-0.1c0,0.4,0.1,0.7,0.1,1.1L12.8,81z M134.4,79.5
			l-0.8-0.1c0-0.4,0.1-0.7,0.1-1.1l0.8,0.1C134.5,78.8,134.4,79.2,134.4,79.5z M12.6,78.8c0-0.4-0.1-0.8-0.1-1.1l0.8-0.1
			c0,0.4,0.1,0.7,0.1,1.1L12.6,78.8z M134.6,77.3l-0.8-0.1c0-0.4,0-0.7,0.1-1.1l0.8,0C134.6,76.5,134.6,76.9,134.6,77.3z M12.4,76.5
			c0-0.4,0-0.8,0-1.1l0.8,0c0,0.4,0,0.7,0,1.1L12.4,76.5z M134.7,75l-0.8,0c0-0.4,0-0.7,0-1.1l0.8,0C134.7,74.3,134.7,74.6,134.7,75
			z M12.4,74.2l0-0.6l0-0.5l0.8,0l0,0.5l0,0.6L12.4,74.2z M133.8,72.7c0-0.4,0-0.7,0-1.1l0.8,0c0,0.4,0,0.8,0,1.1L133.8,72.7z
			 M13.2,72l-0.8,0c0-0.4,0-0.8,0-1.1l0.8,0C13.2,71.2,13.2,71.6,13.2,72z M133.8,70.5c0-0.4,0-0.7-0.1-1.1l0.8-0.1
			c0,0.4,0,0.8,0.1,1.1L133.8,70.5z M13.3,69.7l-0.8-0.1c0-0.4,0.1-0.8,0.1-1.1l0.8,0.1C13.4,69,13.3,69.4,13.3,69.7z M133.6,68.3
			c0-0.4-0.1-0.7-0.1-1.1l0.8-0.1c0,0.4,0.1,0.8,0.1,1.1L133.6,68.3z M13.5,67.5l-0.8-0.1c0-0.4,0.1-0.8,0.1-1.1l0.8,0.1
			C13.6,66.8,13.5,67.1,13.5,67.5z M133.4,66c0-0.4-0.1-0.7-0.1-1.1l0.8-0.1c0.1,0.4,0.1,0.7,0.2,1.1L133.4,66z M13.8,65.3l-0.8-0.1
			c0.1-0.4,0.1-0.8,0.2-1.1l0.8,0.1C13.9,64.5,13.8,64.9,13.8,65.3z M133.1,63.8c-0.1-0.4-0.1-0.7-0.2-1.1l0.8-0.2
			c0.1,0.4,0.1,0.7,0.2,1.1L133.1,63.8z M14.1,63.1l-0.8-0.1c0.1-0.4,0.1-0.7,0.2-1.1l0.8,0.2C14.2,62.3,14.2,62.7,14.1,63.1z
			 M132.6,61.6c-0.1-0.4-0.2-0.7-0.2-1.1l0.8-0.2c0.1,0.4,0.2,0.7,0.2,1.1L132.6,61.6z M14.5,60.9l-0.8-0.2c0.1-0.4,0.2-0.7,0.2-1.1
			l0.8,0.2C14.7,60.1,14.6,60.5,14.5,60.9z M132.2,59.4c-0.1-0.4-0.2-0.7-0.3-1.1l0.8-0.2c0.1,0.4,0.2,0.7,0.3,1.1L132.2,59.4z
			 M15.1,58.7l-0.8-0.2c0.1-0.4,0.2-0.7,0.3-1.1l0.8,0.2C15.2,58,15.1,58.3,15.1,58.7z M131.6,57.3c-0.1-0.4-0.2-0.7-0.3-1.1
			l0.8-0.2c0.1,0.4,0.2,0.7,0.3,1.1L131.6,57.3z M15.6,56.5l-0.8-0.2c0.1-0.4,0.2-0.7,0.3-1.1l0.8,0.3
			C15.9,55.8,15.7,56.2,15.6,56.5z M131,55.1c-0.1-0.4-0.2-0.7-0.4-1.1l0.8-0.3c0.1,0.4,0.2,0.7,0.4,1.1L131,55.1z M16.3,54.4
			l-0.8-0.3c0.1-0.4,0.2-0.7,0.4-1.1l0.8,0.3C16.6,53.7,16.4,54,16.3,54.4z M130.2,53c-0.1-0.4-0.3-0.7-0.4-1.1l0.8-0.3
			c0.1,0.4,0.3,0.7,0.4,1.1L130.2,53z M17.1,52.3L16.3,52c0.1-0.4,0.3-0.7,0.4-1.1l0.8,0.3C17.3,51.6,17.2,51.9,17.1,52.3z
			 M129.4,50.9c-0.1-0.3-0.3-0.7-0.4-1l0.8-0.3c0.1,0.3,0.3,0.7,0.4,1L129.4,50.9z M17.9,50.2l-0.8-0.3c0.1-0.3,0.3-0.7,0.5-1
			l0.8,0.3C18.2,49.5,18.1,49.8,17.9,50.2z M128.6,48.9c-0.2-0.3-0.3-0.7-0.5-1l0.8-0.4c0.2,0.3,0.3,0.7,0.5,1L128.6,48.9z
			 M18.8,48.1l-0.8-0.4c0.2-0.3,0.3-0.7,0.5-1l0.8,0.4C19.1,47.4,19,47.8,18.8,48.1z M127.6,46.8c-0.2-0.3-0.3-0.7-0.5-1l0.8-0.4
			c0.2,0.3,0.3,0.7,0.5,1L127.6,46.8z M19.8,46.1l-0.8-0.4c0.2-0.3,0.3-0.7,0.5-1l0.7,0.4C20.2,45.4,20,45.8,19.8,46.1z M126.6,44.9
			c-0.2-0.3-0.4-0.7-0.5-1l0.7-0.4c0.2,0.3,0.4,0.7,0.6,1L126.6,44.9z M20.9,44.1l-0.7-0.4c0.2-0.3,0.4-0.7,0.6-1l0.7,0.4
			C21.2,43.5,21.1,43.8,20.9,44.1z M125.5,42.9c-0.2-0.3-0.4-0.6-0.6-1l0.7-0.4c0.2,0.3,0.4,0.6,0.6,1L125.5,42.9z M22,42.2
			l-0.7-0.4c0.2-0.3,0.4-0.6,0.6-1l0.7,0.5C22.4,41.5,22.2,41.9,22,42.2z M124.3,41c-0.2-0.3-0.4-0.6-0.6-0.9l0.7-0.5
			c0.2,0.3,0.4,0.6,0.6,0.9L124.3,41z M23.2,40.3l-0.7-0.5c0.2-0.3,0.4-0.6,0.6-0.9l0.7,0.5C23.6,39.7,23.4,40,23.2,40.3z
			 M123.1,39.1c-0.2-0.3-0.4-0.6-0.6-0.9l0.7-0.5c0.2,0.3,0.4,0.6,0.7,0.9L123.1,39.1z M24.5,38.4l-0.7-0.5c0.2-0.3,0.4-0.6,0.7-0.9
			l0.7,0.5C24.9,37.8,24.7,38.1,24.5,38.4z M121.7,37.3c-0.2-0.3-0.5-0.6-0.7-0.9l0.7-0.5c0.2,0.3,0.5,0.6,0.7,0.9L121.7,37.3z
			 M25.8,36.6l-0.7-0.5c0.2-0.3,0.5-0.6,0.7-0.9l0.7,0.5C26.3,36.1,26.1,36.3,25.8,36.6z M120.4,35.6c-0.2-0.3-0.5-0.6-0.7-0.9
			l0.6-0.5c0.2,0.3,0.5,0.6,0.7,0.9L120.4,35.6z M27.2,34.9l-0.7-0.5c0.2-0.3,0.5-0.6,0.7-0.9L28,34C27.7,34.3,27.5,34.6,27.2,34.9z
			 M118.9,33.9c-0.2-0.3-0.5-0.6-0.7-0.8l0.6-0.6c0.3,0.3,0.5,0.6,0.8,0.8L118.9,33.9z M28.7,33.2l-0.6-0.6c0.3-0.3,0.5-0.6,0.8-0.8
			l0.6,0.6C29.2,32.6,28.9,32.9,28.7,33.2z M117.4,32.2c-0.3-0.3-0.5-0.5-0.8-0.8l0.6-0.6c0.3,0.3,0.5,0.5,0.8,0.8L117.4,32.2z
			 M30.2,31.6L29.6,31c0.3-0.3,0.5-0.5,0.8-0.8l0.6,0.6C30.7,31,30.5,31.3,30.2,31.6z M115.8,30.6c-0.3-0.3-0.5-0.5-0.8-0.8l0.6-0.6
			c0.3,0.3,0.5,0.5,0.8,0.8L115.8,30.6z M31.8,30l-0.6-0.6c0.3-0.3,0.5-0.5,0.8-0.8l0.6,0.6C32.4,29.5,32.1,29.7,31.8,30z M114.2,29
			c-0.3-0.3-0.6-0.5-0.8-0.7l0.6-0.6c0.3,0.3,0.6,0.5,0.8,0.8L114.2,29z M33.5,28.5l-0.6-0.6c0.3-0.3,0.6-0.5,0.9-0.7l0.6,0.6
			C34,28,33.7,28.2,33.5,28.5z M112.5,27.6c-0.3-0.2-0.6-0.5-0.9-0.7l0.5-0.7c0.3,0.2,0.6,0.5,0.9,0.7L112.5,27.6z M35.2,27
			l-0.5-0.7c0.3-0.2,0.6-0.5,0.9-0.7l0.5,0.7C35.7,26.5,35.4,26.8,35.2,27z M110.8,26.1c-0.3-0.2-0.6-0.5-0.9-0.7l0.5-0.7
			c0.3,0.2,0.6,0.5,0.9,0.7L110.8,26.1z M36.9,25.6l-0.5-0.7c0.3-0.2,0.6-0.5,0.9-0.7l0.5,0.7C37.5,25.2,37.2,25.4,36.9,25.6z
			 M109,24.8c-0.3-0.2-0.6-0.4-0.9-0.7l0.5-0.7c0.3,0.2,0.6,0.4,0.9,0.7L109,24.8z M38.7,24.3l-0.5-0.7c0.3-0.2,0.6-0.4,0.9-0.6
			l0.5,0.7C39.3,23.9,39,24.1,38.7,24.3z M107.2,23.5c-0.3-0.2-0.6-0.4-0.9-0.6l0.5-0.7c0.3,0.2,0.6,0.4,1,0.6L107.2,23.5z M40.6,23
			l-0.5-0.7c0.3-0.2,0.6-0.4,1-0.6l0.4,0.7C41.2,22.6,40.9,22.8,40.6,23z M105.3,22.3c-0.3-0.2-0.6-0.4-1-0.6l0.4-0.7
			c0.3,0.2,0.6,0.4,1,0.6L105.3,22.3z M42.5,21.8L42,21.1c0.3-0.2,0.6-0.4,1-0.6l0.4,0.7C43.1,21.5,42.8,21.6,42.5,21.8z
			 M103.4,21.1c-0.3-0.2-0.7-0.4-1-0.5l0.4-0.7c0.3,0.2,0.7,0.4,1,0.6L103.4,21.1z M44.4,20.7L44,20c0.3-0.2,0.7-0.4,1-0.5l0.4,0.7
			C45,20.4,44.7,20.5,44.4,20.7z M101.4,20c-0.3-0.2-0.7-0.3-1-0.5l0.4-0.8c0.3,0.2,0.7,0.3,1,0.5L101.4,20z M46.4,19.7L46,18.9
			c0.3-0.2,0.7-0.3,1-0.5l0.4,0.8C47,19.3,46.7,19.5,46.4,19.7z M99.4,19c-0.3-0.2-0.7-0.3-1-0.5l0.3-0.8c0.3,0.2,0.7,0.3,1,0.5
			L99.4,19z M48.4,18.7L48,17.9c0.3-0.2,0.7-0.3,1-0.5l0.3,0.8C49.1,18.4,48.7,18.5,48.4,18.7z M97.3,18.1c-0.3-0.1-0.7-0.3-1-0.4
			l0.3-0.8c0.4,0.1,0.7,0.3,1.1,0.4L97.3,18.1z M50.4,17.8L50.1,17c0.3-0.1,0.7-0.3,1-0.4l0.3,0.8C51.1,17.5,50.8,17.7,50.4,17.8z
			 M95.3,17.3c-0.3-0.1-0.7-0.3-1.1-0.4l0.3-0.8c0.4,0.1,0.7,0.3,1.1,0.4L95.3,17.3z M93.2,16.5c-0.4-0.1-0.7-0.2-1.1-0.3l0.3-0.8
			c0.4,0.1,0.7,0.2,1.1,0.4L93.2,16.5z M52.5,17l-0.3-0.8c0.4-0.1,0.7-0.3,1.1-0.4l0.3,0.8C53.2,16.7,52.9,16.8,52.5,17z M54.6,16.2
			l-0.3-0.8c0.4-0.1,0.7-0.2,1.1-0.3l0.2,0.8C55.3,16,55,16.1,54.6,16.2z M91,15.8c-0.4-0.1-0.7-0.2-1.1-0.3l0.2-0.8
			c0.4,0.1,0.7,0.2,1.1,0.3L91,15.8z M56.8,15.6l-0.2-0.8c0.4-0.1,0.7-0.2,1.1-0.3l0.2,0.8C57.5,15.4,57.1,15.5,56.8,15.6z
			 M88.9,15.2c-0.4-0.1-0.7-0.2-1.1-0.3l0.2-0.8c0.4,0.1,0.7,0.2,1.1,0.3L88.9,15.2z M58.9,15l-0.2-0.8c0.4-0.1,0.7-0.2,1.1-0.3
			l0.2,0.8C59.7,14.8,59.3,14.9,58.9,15z M86.7,14.7c-0.4-0.1-0.7-0.2-1.1-0.2l0.2-0.8c0.4,0.1,0.7,0.2,1.1,0.2L86.7,14.7z
			 M61.1,14.5l-0.2-0.8c0.4-0.1,0.7-0.2,1.1-0.2l0.2,0.8C61.8,14.3,61.5,14.4,61.1,14.5z M84.5,14.2c-0.4-0.1-0.7-0.1-1.1-0.2
			l0.1-0.8c0.4,0.1,0.7,0.1,1.1,0.2L84.5,14.2z M63.3,14.1l-0.1-0.8c0.4-0.1,0.7-0.1,1.1-0.2l0.1,0.8C64,13.9,63.7,14,63.3,14.1z
			 M82.3,13.8c-0.4-0.1-0.7-0.1-1.1-0.2l0.1-0.8c0.4,0,0.7,0.1,1.1,0.2L82.3,13.8z M65.5,13.7l-0.1-0.8c0.4,0,0.8-0.1,1.1-0.1
			l0.1,0.8C66.3,13.6,65.9,13.7,65.5,13.7z M80.1,13.6c-0.4,0-0.7-0.1-1.1-0.1l0.1-0.8c0.4,0,0.8,0.1,1.1,0.1L80.1,13.6z M67.8,13.5
			l-0.1-0.8c0.4,0,0.8-0.1,1.1-0.1l0.1,0.8C68.5,13.4,68.1,13.4,67.8,13.5z M77.8,13.4c-0.4,0-0.7-0.1-1.1-0.1l0-0.8
			c0.4,0,0.8,0,1.1,0.1L77.8,13.4z M70,13.3l0-0.8c0.4,0,0.8,0,1.1-0.1l0,0.8C70.7,13.3,70.4,13.3,70,13.3z M75.6,13.2
			c-0.4,0-0.7,0-1.1,0l0-0.8c0.4,0,0.8,0,1.1,0L75.6,13.2z M72.2,13.2l0-0.8c0.4,0,0.8,0,1.1,0l0,0.8C73,13.2,72.6,13.2,72.2,13.2z"
			/>
	</g>
	
		<ellipse transform="matrix(1 -1.682323e-03 1.682323e-03 1 -0.1236 0.1238)" class="st2" cx="73.5" cy="73.5" rx="57.2" ry="57.2"/>
	<path class="st1" d="M73.5,128.3c-14.6,0-28.3-5.7-38.7-16C24.5,102,18.8,88.2,18.8,73.6c-0.1-30.2,24.5-54.8,54.7-54.9
		c0,0,0.1,0,0.1,0c30.2,0,54.7,24.5,54.8,54.7c0,14.6-5.6,28.4-16,38.7C102,122.5,88.2,128.3,73.5,128.3
		C73.6,128.3,73.5,128.3,73.5,128.3z M73.5,19.5C73.5,19.5,73.5,19.5,73.5,19.5c-29.9,0.1-54.1,24.3-54,54.1
		c0,14.4,5.7,28,15.9,38.2c10.2,10.2,23.8,15.8,38.2,15.8c14.4,0,28-5.7,38.2-15.9c10.2-10.2,15.8-23.8,15.8-38.2l0,0
		C127.5,43.7,103.3,19.5,73.5,19.5z"/>
	
		<ellipse transform="matrix(1 -1.682750e-03 1.682750e-03 1 -0.1236 0.1238)" class="st3" cx="73.5" cy="73.5" rx="70.9" ry="70.9"/>
	<g>
		<path class="st1" d="M39.8,107.7c-0.4,0.4-0.8,0.6-1.3,0.8c-0.4,0.1-0.9,0.2-1.3,0c-0.4-0.1-0.8-0.4-1.1-0.7
			c-0.3-0.3-0.5-0.7-0.6-1.2c-0.1-0.4,0-0.9,0.1-1.3c0.2-0.4,0.5-0.8,0.9-1.2l0.2-0.2c0.4-0.4,0.8-0.6,1.3-0.8
			c0.5-0.1,0.9-0.1,1.3,0c0.4,0.1,0.8,0.4,1.1,0.7c0.3,0.3,0.5,0.7,0.6,1.2c0.1,0.4,0,0.9-0.1,1.3c-0.2,0.4-0.5,0.8-0.9,1.2
			L39.8,107.7z M39.2,106.6c0.4-0.4,0.7-0.8,0.8-1.2c0.1-0.4,0-0.7-0.3-1c-0.3-0.3-0.6-0.4-1-0.4c-0.4,0-0.8,0.3-1.2,0.7l-0.2,0.2
			c-0.4,0.4-0.7,0.8-0.8,1.1c-0.1,0.4,0,0.7,0.3,1c0.3,0.3,0.6,0.4,1,0.4c0.4-0.1,0.8-0.3,1.2-0.7L39.2,106.6z"/>
		<path class="st1" d="M44.7,115.2l-0.9-0.7l0.5-4.4l-2.3,3l-0.9-0.7l3.4-4.5l0.9,0.7l-0.5,4.4l2.3-3l0.9,0.7L44.7,115.2z"/>
		<path class="st1" d="M52.6,116.9l-2-1l-0.7,1.3l2.3,1.2l-0.4,0.8l-3.4-1.8l2.6-5l3.4,1.8l-0.4,0.8l-2.3-1.2l-0.6,1.2l2,1
			L52.6,116.9z"/>
		<path class="st1" d="M60.5,122.5l1.2-5.6l1.7,0.4c0.5,0.1,0.9,0.3,1.2,0.6c0.3,0.3,0.6,0.7,0.7,1.1c0.1,0.5,0.1,0.9,0,1.5
			l-0.1,0.3c-0.1,0.5-0.3,1-0.6,1.3c-0.3,0.4-0.7,0.6-1.1,0.7c-0.4,0.1-0.9,0.2-1.4,0L60.5,122.5z M62.6,118.1l-0.8,3.7l0.6,0.1
			c0.4,0.1,0.8,0,1.1-0.2c0.3-0.2,0.5-0.6,0.6-1.2l0.1-0.3c0.1-0.6,0.1-1-0.1-1.4c-0.2-0.3-0.5-0.6-0.9-0.7L62.6,118.1z"/>
		<path class="st1" d="M72.5,121.7l-2.2-0.1l-0.1,1.5l2.6,0.1l-0.1,0.9l-3.8-0.2l0.3-5.7l3.8,0.2l-0.1,0.9l-2.6-0.1l-0.1,1.4
			l2.2,0.1L72.5,121.7z"/>
		<path class="st1" d="M81,121.7c0,0.6-0.2,1.1-0.5,1.5c-0.4,0.4-0.9,0.6-1.5,0.7c-0.7,0.1-1.3-0.1-1.8-0.6
			c-0.5-0.4-0.7-1.1-0.8-1.9l0-0.3c-0.1-0.5,0-1,0.1-1.5c0.1-0.4,0.4-0.8,0.7-1c0.3-0.3,0.7-0.4,1.2-0.5c0.7-0.1,1.2,0.1,1.6,0.4
			c0.4,0.3,0.7,0.8,0.8,1.4l-1.2,0.1c-0.1-0.4-0.2-0.6-0.4-0.8c-0.2-0.1-0.5-0.2-0.8-0.2c-0.4,0-0.7,0.2-0.8,0.5
			c-0.2,0.3-0.2,0.7-0.2,1.3l0,0.4c0.1,0.6,0.2,1,0.4,1.3c0.2,0.3,0.5,0.4,0.9,0.3c0.4,0,0.6-0.1,0.8-0.3c0.2-0.2,0.2-0.4,0.2-0.8
			L81,121.7z"/>
		<path class="st1" d="M93.7,117.9c0.2,0.6,0.2,1.1-0.1,1.6c-0.2,0.5-0.7,0.8-1.3,1.1c-0.7,0.3-1.3,0.3-1.9,0
			c-0.6-0.3-1-0.9-1.3-1.6l-0.1-0.3c-0.2-0.5-0.3-1-0.3-1.4c0-0.5,0.2-0.9,0.4-1.2c0.2-0.3,0.6-0.6,1-0.8c0.6-0.2,1.2-0.3,1.7-0.1
			c0.5,0.2,0.9,0.6,1.2,1.1l-1.1,0.4c-0.2-0.3-0.4-0.5-0.6-0.6c-0.2-0.1-0.5-0.1-0.8,0.1c-0.4,0.1-0.6,0.4-0.7,0.7
			c-0.1,0.3,0,0.8,0.2,1.3l0.2,0.4c0.2,0.6,0.5,1,0.8,1.1c0.3,0.2,0.6,0.2,1,0.1c0.3-0.1,0.6-0.3,0.7-0.5c0.1-0.2,0.1-0.5,0-0.8
			L93.7,117.9z"/>
		<path class="st1" d="M100.7,113c0.3,0.5,0.5,0.9,0.5,1.4c0.1,0.5,0,0.9-0.2,1.3c-0.2,0.4-0.5,0.7-0.9,1c-0.4,0.2-0.8,0.4-1.3,0.4
			c-0.4,0-0.8-0.1-1.2-0.4c-0.4-0.3-0.7-0.6-1-1.1l-0.1-0.2c-0.3-0.5-0.5-0.9-0.5-1.4c-0.1-0.5,0-0.9,0.2-1.3c0.2-0.4,0.5-0.7,0.9-1
			c0.4-0.2,0.8-0.4,1.3-0.4c0.4,0,0.8,0.1,1.2,0.4c0.4,0.3,0.7,0.6,1,1.1L100.7,113z M99.6,113.4c-0.3-0.5-0.6-0.8-1-1
			c-0.3-0.2-0.7-0.1-1,0.1c-0.3,0.2-0.5,0.5-0.5,0.9c0,0.4,0.1,0.8,0.4,1.3l0.1,0.2c0.3,0.5,0.6,0.8,1,1c0.4,0.2,0.7,0.1,1-0.1
			c0.3-0.2,0.5-0.5,0.5-0.9c0-0.4-0.1-0.8-0.4-1.3L99.6,113.4z"/>
		<path class="st1" d="M106.4,112l-0.9,0.8l-3.6-4.4l0.9-0.8L106.4,112z"/>
		<path class="st1" d="M112.8,105.6l-0.8,0.9l-4.3-0.8l2.8,2.5l-0.8,0.9l-4.2-3.8l0.8-0.9l4.3,0.8l-2.8-2.5l0.8-0.9L112.8,105.6z"/>
	</g>
	<g>
		<path class="st1" d="M65.3,27.7c0.1,0.6,0,1.1-0.3,1.5c-0.3,0.4-0.8,0.7-1.4,0.8c-0.7,0.2-1.2,0-1.7-0.3c-0.5-0.4-0.8-0.9-1-1.7
			l-0.1-0.3c-0.1-0.5-0.1-1,0-1.4c0.1-0.4,0.3-0.8,0.6-1.1c0.3-0.3,0.6-0.5,1.1-0.6c0.6-0.1,1.1-0.1,1.6,0.2
			c0.4,0.2,0.8,0.6,0.9,1.2l-1.1,0.2c-0.1-0.3-0.3-0.6-0.4-0.7c-0.2-0.1-0.5-0.1-0.8-0.1c-0.4,0.1-0.6,0.3-0.7,0.6
			c-0.1,0.3-0.1,0.7,0,1.3l0.1,0.4c0.1,0.6,0.3,1,0.5,1.2c0.2,0.2,0.5,0.3,0.9,0.2c0.3-0.1,0.6-0.2,0.7-0.4c0.1-0.2,0.2-0.4,0.1-0.8
			L65.3,27.7z"/>
		<path class="st1" d="M71.6,27.8l-1.9,0.1L69.4,29l-1.2,0.1l1.7-5.5l1-0.1l2.3,5.2l-1.2,0.1L71.6,27.8z M69.9,27l1.3-0.1l-0.8-2
			L69.9,27z"/>
		<path class="st1" d="M78.2,27.1L77.3,27L77.1,29L76,28.9l0.5-5.3l2,0.2c0.6,0.1,1.1,0.3,1.4,0.6c0.3,0.3,0.4,0.7,0.4,1.2
			c0,0.4-0.1,0.7-0.3,0.9c-0.2,0.2-0.4,0.4-0.8,0.5l0.9,2.3l0,0.1L79,29.2L78.2,27.1z M77.4,26.2l0.9,0.1c0.3,0,0.5,0,0.7-0.1
			c0.2-0.1,0.3-0.3,0.3-0.6c0-0.2,0-0.5-0.2-0.6c-0.1-0.2-0.3-0.3-0.6-0.3l-0.9-0.1L77.4,26.2z"/>
		<path class="st1" d="M86.8,28.4l-2-0.5l-0.4,1.4l2.4,0.6l-0.2,0.9l-3.5-0.9l1.3-5.2l3.5,0.9l-0.2,0.9l-2.4-0.6l-0.3,1.2l2,0.5
			L86.8,28.4z"/>
	</g>
	<g>
		<path class="st4" d="M58.5,94.9c0,0,19.8,1.2,30.4-0.8c0,0,0.5-34.3-15.7-33C57,62.5,58.5,94.9,58.5,94.9z"/>
		<polygon class="st0" points="85.2,62.9 81.5,63.3 88,96.1 93.2,95.2 		"/>
		<path class="st0" d="M65.1,61.3c0,0-6.8,14.8-11.6,35.1l5.7,0.5l7.6-34.2L65.1,61.3z"/>
		<path class="st5" d="M63.3,69.6L60.4,65c-1.1,1.3-3.2,4.8-0.8,6.9c2.3,2.1,5.9,4.6,5.9,4.6s-0.9,1.6-0.7,2.9
			c0.2,1.2,1.9,1.5,1.9,1.5l0.1-6.5C65.7,72.4,63.3,69.6,63.3,69.6z"/>
		<path class="st5" d="M81.5,74.7l3.3-6.3l2.7-2.6c0,0,1.4,1.1,1.6,3.1c0.2,1.9-5.6,6.3-5.6,6.3s0.5,1.2,0.5,2.2
			c0,2-1.8,2.7-1.8,2.7L81.5,74.7z"/>
		<polygon class="st1" points="82.4,80.1 76,83.2 80.8,100.9 85,100.9 		"/>
		<polygon class="st1" points="66.5,80.5 66.8,100.9 70.5,100.9 74.1,83.7 		"/>
		<polygon class="st0" points="66.6,78.3 82.3,78.1 82.4,80.1 76.1,83.6 74.1,83.7 66.5,80.5 		"/>
		<path class="st1" d="M66.4,59.9c-4,0.5-7.6,6.8-7.6,6.8l5,3.2l2.6-3.1l1.8-4.7C68.3,62.1,69.4,59.5,66.4,59.9z"/>
		<path class="st1" d="M80.4,59.4c0,0,2.6-0.7,7.5,6.3l-3.8,3.1l-2.9-2.5l-3.2-5.2L80.4,59.4z"/>
		<path class="st1" d="M79.4,60.3h-12c0,0-2.6,2.2-0.5,14.3h14.6C81.6,74.6,83.1,61.5,79.4,60.3z"/>
		<path class="st6" d="M74.1,34.1c-4.9-0.2-10.1,1.3-12.6,5.2c-1.4,2.3-1.9,5.5-2,8.2c-0.3,6,4.3,9.1,4.3,9.1s18.6,0,18.6,0
			c1.1,0,3-3,3.4-3.7c1-1.7,1.4-3.7,1.4-5.7c-0.1-3.7-1.8-8.7-5.1-10.8C80,35,77.1,34.3,74.1,34.1z"/>
		<path class="st7" d="M86,50.6c-1-1.6-3.1-0.3-3.1-0.3v4.5C84.3,54,86.9,52.1,86,50.6z"/>
		<path class="st7" d="M62.6,50.6c-2.3-1.5-4.6,0-3.6,1.8c1,1.8,3.9,2.3,3.9,2.3L62.6,50.6z"/>
		<path class="st8" d="M62.8,52.2c-0.6-0.5-1.1-1.1-1.9-1.1c-0.6,0-1.2,0.2-1.2,0.8c0,0.3,0.4,0.2,0.4,0c0-0.4,0.8-0.4,1.1-0.4
			c0.6,0.1,1,0.6,1.4,1C62.7,52.7,63,52.4,62.8,52.2z"/>
		<path class="st8" d="M84.5,50.6c-0.3-0.1-0.6,0.1-0.9,0.2c-0.1,0.1-0.3,0.2-0.4,0.3c-0.1,0-0.2,0.2-0.2,0.3
			c-0.2,0.1-0.1,0.5,0.1,0.4c0.1-0.1,0.1-0.1,0.2-0.2c0.1-0.2,0.3-0.3,0.5-0.3c0.2-0.1,0.4-0.1,0.5-0.1c0.4,0,0.3,0.5,0.2,0.8
			C84.6,52.1,85,52.3,85,52C85.2,51.4,85.1,50.8,84.5,50.6z"/>
		<path class="st5" d="M62.4,51.5c0,0-0.6,6.9,4.9,8.1c4.3,0.9,6.5,1.5,11.2-0.2c2.3-0.8,5-1.7,4.6-8.6c0,0,2-9.8-10.5-9.4
			C61.8,41.8,62.3,49.3,62.4,51.5z"/>
		<path class="st6" d="M78,45.8c0.4-0.3,1.3-0.3,1.7,0.4c0.6,0.9-1,0.8-1.5,0.5C77.7,46.4,77.7,46,78,45.8z"/>
		<path class="st9" d="M72.2,50.9c0,0.7-0.8,2.9,1,3c2.4,0.2,1.4-3.1,0.8-3.9C72.9,48.5,72.2,50.1,72.2,50.9z"/>
		<path class="st10" d="M66.5,54.4c1.2,0.2,1.8,1.8,1,2.9c-0.8,1.1-2.5,0.3-3-0.7C64,55.3,65.3,54.2,66.5,54.4
			C66.5,54.3,66.5,54.3,66.5,54.4z"/>
		<path class="st10" d="M78.7,57.2c-1.2-1.1,0.9-3.4,2.2-2.5C82.6,55.8,81,59.4,78.7,57.2z"/>
		<path class="st1" d="M62.3,50.3c0.4,1.7,2.6,4,5.6,4c3,0.1,3.6-3.3,5.3-3.3c1.6-0.1,1.8,3.2,5.7,3.2c1.6,0,3.5-1.5,4.4-4.2
			c0.1-0.4-0.1-1.9-0.1-1.9c-0.4-0.2-3.7-1.2-4.8-0.9c-3.8,0.9-5.1,1-7.9,0.3c-3.1-0.8-7.1,0.4-7.9,0.9
			C62.5,48.5,62.2,49.9,62.3,50.3z"/>
		<g>
			<path class="st2" d="M66.6,52c-1-0.6-1.5-2,0-2.5c1.1-0.4,3.3-0.1,3.4,1.4c0.1,1.2-1.8,1.4-2.7,1.3C67,52.2,66.8,52.1,66.6,52z"
				/>
			<path class="st11" d="M66.6,50.6c0-0.8,0.6-1.1,1.3-1.1c1.1,0,1.5,1.3,0.9,2.1C68,52.8,66.6,51.9,66.6,50.6z"/>
		</g>
		<g>
			<path class="st2" d="M79.4,51.8c1-0.6,1.5-2,0-2.5c-1.1-0.4-3.3-0.1-3.4,1.4c-0.1,1.2,1.8,1.4,2.7,1.3
				C78.9,52,79.2,51.9,79.4,51.8z"/>
			<path class="st11" d="M79.5,50.4c0-0.8-0.7-1.1-1.5-1.1c-1.1,0-1.5,1.3-0.9,2.1C78,52.5,79.6,51.7,79.5,50.4z"/>
		</g>
		<path class="st12" d="M79.1,50.1C79.1,50,79,50,79.1,50.1c-0.2-0.2-0.5-0.2-0.6,0c-0.1,0.2-0.1,0.4,0,0.5c0,0,0.1,0.1,0.1,0.1
			c0.1,0.1,0.4,0.1,0.5,0C79.3,50.4,79.2,50.2,79.1,50.1z"/>
		<path class="st12" d="M68.7,50.1C68.6,50,68.6,50,68.7,50.1c-0.2-0.2-0.5-0.2-0.7,0c-0.2,0.2-0.1,0.4,0,0.6c0,0,0.1,0.1,0.1,0.1
			c0.2,0.2,0.5,0.1,0.6,0C68.9,50.5,68.8,50.2,68.7,50.1z"/>
		<path class="st13" d="M76.6,55.2c-0.1-0.1-0.1-0.2-0.2-0.4c-0.1-0.2-0.5-0.1-0.4,0.1c0,0,0,0,0,0.1c-1.7,1.2-3.8,1.3-5.6,0.1
			c0,0,0-0.1,0-0.1c0-0.1,0-0.2-0.2-0.2c-0.1,0-0.2,0.1-0.2,0.2c0,0.1,0,0.1,0,0.2c0,0,0,0.1,0,0.1c-0.1,0-0.2,0.2-0.1,0.4
			c0.1,0.1,0.3,0.1,0.4,0c1.9,1.2,4.1,1.2,6-0.1c0,0,0,0,0,0C76.4,55.6,76.7,55.4,76.6,55.2z"/>
		<path class="st6" d="M62.3,50.3c0,0,10.9-3.6,16.6-7.9c0,0,1.1,3.9,4.3,7.6l1.8-0.3c0,0,4.2-10.8-7.2-12.3
			C66.5,36,59.1,42.3,62.3,50.3z"/>
		<path class="st0" d="M65.6,59c0,0,8.1,2.9,15.3-0.7c0,0,0.4,4.2-7.2,4.6C68,63.1,65.8,60.7,65.6,59z"/>
		<path class="st14" d="M77.8,65.7c-2.4-0.1-3.4-1.8-3.4-1.8s-1,1.7-3.4,1.8c0,0-0.5,4.1,0.5,4.8c0.9,0.8,2.8,0.7,2.9,1.7
			c0.2-1,2-0.9,2.9-1.7C78.2,69.8,77.8,65.7,77.8,65.7z"/>
		<g>
			<path class="st11" d="M66.8,74.4l-0.2,3.8l15.7-0.1l-0.6-3.8C81.6,74.3,70.9,73.9,66.8,74.4z"/>
			<polygon class="st14" points="72.3,73.8 72.5,78.7 77.5,78.7 77.5,73.9 			"/>
			<polygon class="st11" points="73.7,75.1 73.8,77.5 76.3,77.5 76.2,75.1 			"/>
		</g>
		<polygon class="st11" points="70.5,100.9 66.8,100.9 62.4,104.8 70.9,104.8 		"/>
		<polygon class="st11" points="80.8,100.9 80.8,104.8 89,104.8 85,100.9 		"/>
		<path class="st15" d="M79.7,38.4c-2.7,2.2-5.6,4-8.7,5.6c-3,1.5-5.9,3.3-9.2,4c-0.3,0.1-0.2,0.5,0,0.4c3.2-0.7,6-2.5,8.9-3.9
			c3.3-1.6,6.3-3.5,9.1-5.8C80.2,38.5,79.9,38.2,79.7,38.4z"/>
		<path class="st15" d="M69.1,42.7c-2.4,1.2-4.7,2.5-7.2,3.5c-0.2,0.1-0.1,0.5,0.1,0.4c2.5-1,4.9-2.3,7.3-3.6
			C69.6,42.9,69.3,42.6,69.1,42.7z"/>
		<path class="st15" d="M84.1,48.5c-1.5-2.1-2.8-4.2-3.9-6.5c-0.1-0.2-0.5-0.1-0.4,0.1c1.1,2.3,2.5,4.5,4,6.6
			C83.9,48.9,84.3,48.7,84.1,48.5z"/>
		<path class="st16" d="M74.2,57.4h-1.4c-0.3,0-0.2,0.4,0,0.4h1.4C74.5,57.8,74.4,57.4,74.2,57.4z"/>
	</g>
</g>
</svg>
