<?xml version="1.0" encoding="utf-8"?>
<!-- Generator: Adobe Illustrator 21.1.0, SVG Export Plug-In . SVG Version: 6.00 Build 0)  -->
<svg version="1.1" id="Layer_1" xmlns="http://www.w3.org/2000/svg" xmlns:xlink="http://www.w3.org/1999/xlink" x="0px" y="0px"
	 viewBox="0 0 147 147" style="enable-background:new 0 0 147 147;" xml:space="preserve">
<style type="text/css">
	.st0{fill:#3297CC;}
	.st1{fill:#3E4F81;}
	.st2{fill:#FFFFFF;}
	.st3{fill:none;stroke:#000000;stroke-width:0.25;stroke-miterlimit:10;}
	.st4{fill:#FBBF9A;}
	.st5{fill:none;stroke:#F58763;stroke-width:0.25;stroke-linecap:round;stroke-linejoin:round;stroke-miterlimit:10;}
	.st6{fill:none;stroke:#F58763;stroke-width:0.25;stroke-linecap:round;stroke-miterlimit:10;}
	.st7{fill:#572A00;}
	.st8{fill:#253158;}
	.st9{fill:#834A12;}
	.st10{fill:#F68E6F;}
	.st11{fill:none;stroke:#F27856;stroke-width:0.25;stroke-linecap:round;stroke-miterlimit:10;}
	.st12{fill:#F58F82;}
	.st13{fill:#F7946C;}
	.st14{fill:none;stroke:#924224;stroke-width:0.25;stroke-linecap:round;stroke-miterlimit:10;}
	.st15{fill:none;stroke:#3E4F81;stroke-width:0.75;stroke-linecap:round;stroke-miterlimit:10;}
	.st16{fill:#1F1012;}
	.st17{fill:#FCC8A2;}
	.st18{fill:#F9BB1B;}
</style>
<g>
	
		<ellipse transform="matrix(1 -1.682620e-03 1.682620e-03 1 -0.1236 0.1238)" class="st0" cx="73.5" cy="73.5" rx="73.5" ry="73.5"/>
	<path class="st1" d="M73.4,7c3,0,6.7,3.9,9.8,4.4c3.1,0.5,7.9-2.1,10.7-1.2c2.8,0.9,5.2,5.8,8,7.2c2.8,1.4,8.1,0.4,10.6,2.2
		c2.4,1.7,3.1,7.1,5.4,9.4c2.2,2.2,7.6,2.9,9.4,5.3c1.8,2.4,0.8,7.8,2.2,10.6c1.4,2.8,6.3,5.1,7.3,8c0.9,2.8-1.7,7.6-1.2,10.7
		c0.5,3.1,4.4,6.8,4.4,9.8c0,3-3.9,6.7-4.4,9.8c-0.5,3.1,2.1,7.9,1.2,10.7c-0.9,2.8-5.8,5.2-7.2,8c-1.4,2.8-0.4,8.1-2.2,10.6
		c-1.7,2.4-7.1,3.1-9.4,5.4c-2.2,2.2-2.9,7.6-5.3,9.4c-2.4,1.8-7.8,0.8-10.6,2.2c-2.8,1.4-5.1,6.3-8,7.3c-2.8,0.9-7.6-1.7-10.7-1.2
		c-3.1,0.5-6.8,4.4-9.8,4.4c-3,0-6.7-3.9-9.8-4.4c-3.1-0.5-7.9,2.1-10.7,1.2c-2.8-0.9-5.2-5.8-8-7.2c-2.8-1.4-8.1-0.4-10.6-2.2
		c-2.4-1.7-3.1-7.1-5.4-9.4c-2.2-2.2-7.6-2.9-9.4-5.3c-1.8-2.4-0.8-7.8-2.2-10.6c-1.4-2.8-6.3-5.1-7.3-8c-0.9-2.8,1.7-7.6,1.2-10.7
		C11,80.4,7,76.6,7,73.6c0-3,3.9-6.7,4.4-9.8c0.5-3.1-2.1-7.9-1.2-10.7c0.9-2.8,5.8-5.2,7.2-8c1.4-2.8,0.4-8.1,2.2-10.6
		c1.7-2.4,7.1-3.1,9.4-5.4c2.2-2.2,2.9-7.6,5.3-9.4c2.4-1.8,7.8-0.8,10.6-2.2c2.8-1.4,5.1-6.3,8-7.3c2.8-0.9,7.6,1.7,10.7,1.2
		C66.7,11,70.4,7,73.4,7z"/>
	<g>
		<path class="st2" d="M73.8,134.7l-0.1,0c-0.4,0-0.8,0-1.1,0l0-0.8c0.4,0,0.7,0,1.1,0l0.1,0L73.8,134.7z M74.9,134.7l0-0.8
			c0.4,0,0.7,0,1.1,0l0,0.8C75.7,134.6,75.3,134.6,74.9,134.7z M71.3,134.6c-0.4,0-0.8,0-1.1-0.1l0-0.8c0.4,0,0.7,0,1.1,0
			L71.3,134.6z M77.2,134.6l0-0.8c0.4,0,0.7,0,1.1-0.1l0.1,0.8C77.9,134.5,77.5,134.5,77.2,134.6z M69.1,134.5
			c-0.4,0-0.8-0.1-1.1-0.1l0.1-0.8c0.4,0,0.7,0.1,1.1,0.1L69.1,134.5z M79.4,134.4l-0.1-0.8c0.4,0,0.7-0.1,1.1-0.1l0.1,0.8
			C80.2,134.3,79.8,134.4,79.4,134.4z M66.8,134.3c-0.4,0-0.8-0.1-1.1-0.1l0.1-0.8c0.4,0,0.7,0.1,1.1,0.1L66.8,134.3z M81.7,134.1
			l-0.1-0.8c0.4,0,0.7-0.1,1.1-0.2l0.1,0.8C82.4,134,82.1,134.1,81.7,134.1z M64.6,134c-0.4-0.1-0.8-0.1-1.1-0.2l0.1-0.8
			c0.4,0.1,0.7,0.1,1.1,0.2L64.6,134z M83.9,133.8l-0.1-0.8c0.4-0.1,0.7-0.1,1.1-0.2l0.2,0.8C84.7,133.7,84.3,133.7,83.9,133.8z
			 M62.3,133.6c-0.4-0.1-0.7-0.1-1.1-0.2l0.2-0.8c0.4,0.1,0.7,0.1,1.1,0.2L62.3,133.6z M86.2,133.4l-0.2-0.8
			c0.4-0.1,0.7-0.2,1.1-0.2l0.2,0.8C86.9,133.2,86.5,133.3,86.2,133.4z M60.1,133.2c-0.4-0.1-0.7-0.2-1.1-0.3l0.2-0.8
			c0.4,0.1,0.7,0.2,1.1,0.3L60.1,133.2z M88.4,132.8l-0.2-0.8c0.4-0.1,0.7-0.2,1.1-0.3l0.2,0.8C89.1,132.7,88.8,132.8,88.4,132.8z
			 M57.9,132.6c-0.4-0.1-0.7-0.2-1.1-0.3l0.2-0.8c0.4,0.1,0.7,0.2,1.1,0.3L57.9,132.6z M90.6,132.3l-0.2-0.8
			c0.4-0.1,0.7-0.2,1.1-0.3l0.3,0.8C91.3,132,90.9,132.1,90.6,132.3z M55.7,132c-0.4-0.1-0.7-0.2-1.1-0.3l0.3-0.8
			c0.4,0.1,0.7,0.2,1.1,0.3L55.7,132z M92.7,131.6l-0.3-0.8c0.4-0.1,0.7-0.2,1.1-0.4l0.3,0.8C93.5,131.3,93.1,131.5,92.7,131.6z
			 M53.5,131.3c-0.4-0.1-0.7-0.3-1.1-0.4l0.3-0.8c0.4,0.1,0.7,0.3,1.1,0.4L53.5,131.3z M94.9,130.8l-0.3-0.8c0.4-0.1,0.7-0.3,1-0.4
			l0.3,0.8C95.6,130.6,95.2,130.7,94.9,130.8z M51.4,130.5c-0.4-0.1-0.7-0.3-1.1-0.4l0.3-0.8c0.3,0.1,0.7,0.3,1,0.4L51.4,130.5z
			 M97,130l-0.3-0.8c0.3-0.1,0.7-0.3,1-0.4l0.3,0.8C97.7,129.7,97.3,129.8,97,130z M49.3,129.7c-0.3-0.2-0.7-0.3-1-0.5l0.3-0.8
			c0.3,0.2,0.7,0.3,1,0.5L49.3,129.7z M99.1,129.1l-0.4-0.8c0.3-0.2,0.7-0.3,1-0.5l0.4,0.8C99.8,128.8,99.4,128.9,99.1,129.1z
			 M47.2,128.7c-0.3-0.2-0.7-0.3-1-0.5l0.4-0.8c0.3,0.2,0.7,0.3,1,0.5L47.2,128.7z M101.1,128.1l-0.4-0.8c0.3-0.2,0.7-0.3,1-0.5
			l0.4,0.7C101.8,127.7,101.4,127.9,101.1,128.1z M45.2,127.7c-0.3-0.2-0.7-0.4-1-0.5l0.4-0.7c0.3,0.2,0.7,0.4,1,0.5L45.2,127.7z
			 M103.1,127l-0.4-0.7c0.3-0.2,0.6-0.4,1-0.6l0.4,0.7C103.8,126.7,103.4,126.8,103.1,127z M43.2,126.6c-0.3-0.2-0.7-0.4-1-0.6
			l0.4-0.7c0.3,0.2,0.6,0.4,1,0.6L43.2,126.6z M105.1,125.9l-0.4-0.7c0.3-0.2,0.6-0.4,1-0.6l0.5,0.7
			C105.7,125.5,105.4,125.7,105.1,125.9z M41.2,125.4c-0.3-0.2-0.6-0.4-1-0.6l0.5-0.7c0.3,0.2,0.6,0.4,0.9,0.6L41.2,125.4z
			 M107,124.7l-0.5-0.7c0.3-0.2,0.6-0.4,0.9-0.6l0.5,0.7C107.6,124.3,107.3,124.5,107,124.7z M39.3,124.2c-0.3-0.2-0.6-0.4-0.9-0.6
			l0.5-0.7c0.3,0.2,0.6,0.4,0.9,0.6L39.3,124.2z M108.9,123.4l-0.5-0.7c0.3-0.2,0.6-0.4,0.9-0.7l0.5,0.7
			C109.5,123,109.2,123.2,108.9,123.4z M37.5,122.9c-0.3-0.2-0.6-0.4-0.9-0.7l0.5-0.7c0.3,0.2,0.6,0.5,0.9,0.7L37.5,122.9z
			 M110.7,122.1l-0.5-0.7c0.3-0.2,0.6-0.5,0.9-0.7l0.5,0.7C111.3,121.6,111,121.8,110.7,122.1z M35.6,121.5
			c-0.3-0.2-0.6-0.5-0.9-0.7l0.5-0.7c0.3,0.2,0.6,0.5,0.9,0.7L35.6,121.5z M112.5,120.6l-0.5-0.7c0.3-0.2,0.6-0.5,0.9-0.7l0.6,0.6
			C113,120.1,112.8,120.4,112.5,120.6z M33.9,120.1c-0.3-0.2-0.6-0.5-0.9-0.7l0.6-0.6c0.3,0.2,0.6,0.5,0.8,0.7L33.9,120.1z
			 M114.2,119.2l-0.6-0.6c0.3-0.2,0.6-0.5,0.8-0.8l0.6,0.6C114.8,118.6,114.5,118.9,114.2,119.2z M32.2,118.6
			c-0.3-0.3-0.6-0.5-0.8-0.8l0.6-0.6c0.3,0.3,0.5,0.5,0.8,0.8L32.2,118.6z M115.9,117.6l-0.6-0.6c0.3-0.3,0.5-0.5,0.8-0.8l0.6,0.6
			C116.4,117.1,116.1,117.3,115.9,117.6z M30.5,117c-0.3-0.3-0.5-0.5-0.8-0.8l0.6-0.6c0.3,0.3,0.5,0.5,0.8,0.8L30.5,117z M117.5,116
			l-0.6-0.6c0.3-0.3,0.5-0.5,0.8-0.8l0.6,0.6C118,115.5,117.7,115.7,117.5,116z M29,115.4c-0.3-0.3-0.5-0.6-0.8-0.8l0.6-0.6
			c0.2,0.3,0.5,0.6,0.8,0.8L29,115.4z M119,114.3l-0.6-0.6c0.2-0.3,0.5-0.6,0.7-0.8l0.6,0.6C119.5,113.8,119.3,114.1,119,114.3z
			 M27.4,113.7c-0.2-0.3-0.5-0.6-0.7-0.9l0.6-0.5c0.2,0.3,0.5,0.6,0.7,0.8L27.4,113.7z M120.5,112.6l-0.7-0.5
			c0.2-0.3,0.5-0.6,0.7-0.9l0.7,0.5C121,112,120.7,112.3,120.5,112.6z M26,111.9c-0.2-0.3-0.5-0.6-0.7-0.9l0.7-0.5
			c0.2,0.3,0.5,0.6,0.7,0.9L26,111.9z M121.9,110.9l-0.7-0.5c0.2-0.3,0.5-0.6,0.7-0.9l0.7,0.5C122.4,110.3,122.2,110.6,121.9,110.9z
			 M24.6,110.2c-0.2-0.3-0.4-0.6-0.7-0.9l0.7-0.5c0.2,0.3,0.4,0.6,0.7,0.9L24.6,110.2z M123.3,109l-0.7-0.5c0.2-0.3,0.4-0.6,0.6-0.9
			l0.7,0.5C123.7,108.4,123.5,108.7,123.3,109z M23.2,108.3c-0.2-0.3-0.4-0.6-0.6-0.9l0.7-0.5c0.2,0.3,0.4,0.6,0.6,0.9L23.2,108.3z
			 M124.6,107.2l-0.7-0.5c0.2-0.3,0.4-0.6,0.6-0.9l0.7,0.5C125,106.5,124.8,106.8,124.6,107.2z M22,106.4c-0.2-0.3-0.4-0.6-0.6-1
			l0.7-0.4c0.2,0.3,0.4,0.6,0.6,0.9L22,106.4z M125.8,105.2l-0.7-0.4c0.2-0.3,0.4-0.6,0.6-1l0.7,0.4
			C126.2,104.6,126,104.9,125.8,105.2z M20.8,104.5c-0.2-0.3-0.4-0.7-0.6-1l0.7-0.4c0.2,0.3,0.4,0.6,0.6,1L20.8,104.5z M126.9,103.3
			l-0.7-0.4c0.2-0.3,0.4-0.7,0.5-1l0.7,0.4C127.3,102.6,127.1,102.9,126.9,103.3z M19.7,102.5c-0.2-0.3-0.4-0.7-0.5-1l0.8-0.4
			c0.2,0.3,0.3,0.7,0.5,1L19.7,102.5z M128,101.3l-0.8-0.4c0.2-0.3,0.3-0.7,0.5-1l0.8,0.4C128.4,100.6,128.2,100.9,128,101.3z
			 M18.6,100.5c-0.2-0.3-0.3-0.7-0.5-1l0.8-0.4c0.2,0.3,0.3,0.7,0.5,1L18.6,100.5z M129,99.2l-0.8-0.4c0.2-0.3,0.3-0.7,0.5-1
			l0.8,0.3C129.3,98.5,129.2,98.9,129,99.2z M17.7,98.5c-0.2-0.3-0.3-0.7-0.5-1l0.8-0.3c0.1,0.3,0.3,0.7,0.4,1L17.7,98.5z
			 M129.9,97.1l-0.8-0.3c0.1-0.3,0.3-0.7,0.4-1l0.8,0.3C130.2,96.4,130.1,96.8,129.9,97.1z M16.8,96.4c-0.1-0.4-0.3-0.7-0.4-1.1
			l0.8-0.3c0.1,0.3,0.3,0.7,0.4,1L16.8,96.4z M130.8,95l-0.8-0.3c0.1-0.4,0.3-0.7,0.4-1.1l0.8,0.3C131,94.3,130.9,94.7,130.8,95z
			 M16,94.3c-0.1-0.4-0.3-0.7-0.4-1.1l0.8-0.3c0.1,0.4,0.2,0.7,0.4,1.1L16,94.3z M131.5,92.9l-0.8-0.3c0.1-0.4,0.2-0.7,0.3-1.1
			l0.8,0.3C131.8,92.1,131.7,92.5,131.5,92.9z M15.2,92.1c-0.1-0.4-0.2-0.7-0.3-1.1l0.8-0.2c0.1,0.4,0.2,0.7,0.3,1.1L15.2,92.1z
			 M132.2,90.7l-0.8-0.2c0.1-0.4,0.2-0.7,0.3-1.1l0.8,0.2C132.4,90,132.3,90.3,132.2,90.7z M14.6,89.9c-0.1-0.4-0.2-0.7-0.3-1.1
			l0.8-0.2c0.1,0.4,0.2,0.7,0.3,1.1L14.6,89.9z M132.8,88.5l-0.8-0.2c0.1-0.4,0.2-0.7,0.3-1.1l0.8,0.2
			C133,87.8,132.9,88.1,132.8,88.5z M14,87.7c-0.1-0.4-0.2-0.7-0.3-1.1l0.8-0.2c0.1,0.4,0.2,0.7,0.3,1.1L14,87.7z M133.3,86.3
			l-0.8-0.2c0.1-0.4,0.2-0.7,0.2-1.1l0.8,0.2C133.5,85.5,133.4,85.9,133.3,86.3z M13.5,85.5c-0.1-0.4-0.1-0.7-0.2-1.1l0.8-0.1
			c0.1,0.4,0.1,0.7,0.2,1.1L13.5,85.5z M133.8,84l-0.8-0.1c0.1-0.4,0.1-0.7,0.2-1.1l0.8,0.1C133.9,83.3,133.8,83.7,133.8,84z
			 M13.1,83.3c-0.1-0.4-0.1-0.7-0.2-1.1l0.8-0.1c0.1,0.4,0.1,0.7,0.2,1.1L13.1,83.3z M134.1,81.8l-0.8-0.1c0.1-0.4,0.1-0.7,0.1-1.1
			l0.8,0.1C134.2,81.1,134.2,81.4,134.1,81.8z M12.8,81c0-0.4-0.1-0.8-0.1-1.1l0.8-0.1c0,0.4,0.1,0.7,0.1,1.1L12.8,81z M134.4,79.5
			l-0.8-0.1c0-0.4,0.1-0.7,0.1-1.1l0.8,0.1C134.5,78.8,134.4,79.2,134.4,79.5z M12.6,78.8c0-0.4-0.1-0.8-0.1-1.1l0.8-0.1
			c0,0.4,0.1,0.7,0.1,1.1L12.6,78.8z M134.6,77.3l-0.8-0.1c0-0.4,0-0.7,0.1-1.1l0.8,0C134.6,76.5,134.6,76.9,134.6,77.3z M12.4,76.5
			c0-0.4,0-0.8,0-1.1l0.8,0c0,0.4,0,0.7,0,1.1L12.4,76.5z M134.7,75l-0.8,0c0-0.4,0-0.7,0-1.1l0.8,0C134.7,74.3,134.7,74.6,134.7,75
			z M12.4,74.2l0-0.6l0-0.5l0.8,0l0,0.5l0,0.6L12.4,74.2z M133.8,72.7c0-0.4,0-0.7,0-1.1l0.8,0c0,0.4,0,0.8,0,1.1L133.8,72.7z
			 M13.2,72l-0.8,0c0-0.4,0-0.8,0-1.1l0.8,0C13.2,71.2,13.2,71.6,13.2,72z M133.8,70.5c0-0.4,0-0.7-0.1-1.1l0.8-0.1
			c0,0.4,0,0.8,0.1,1.1L133.8,70.5z M13.3,69.7l-0.8-0.1c0-0.4,0.1-0.8,0.1-1.1l0.8,0.1C13.4,69,13.3,69.4,13.3,69.7z M133.6,68.3
			c0-0.4-0.1-0.7-0.1-1.1l0.8-0.1c0,0.4,0.1,0.8,0.1,1.1L133.6,68.3z M13.5,67.5l-0.8-0.1c0-0.4,0.1-0.8,0.1-1.1l0.8,0.1
			C13.6,66.8,13.5,67.1,13.5,67.5z M133.4,66c0-0.4-0.1-0.7-0.1-1.1l0.8-0.1c0.1,0.4,0.1,0.7,0.2,1.1L133.4,66z M13.8,65.3l-0.8-0.1
			c0.1-0.4,0.1-0.8,0.2-1.1l0.8,0.1C13.9,64.5,13.8,64.9,13.8,65.3z M133.1,63.8c-0.1-0.4-0.1-0.7-0.2-1.1l0.8-0.2
			c0.1,0.4,0.1,0.7,0.2,1.1L133.1,63.8z M14.1,63.1l-0.8-0.1c0.1-0.4,0.1-0.7,0.2-1.1l0.8,0.2C14.2,62.3,14.2,62.7,14.1,63.1z
			 M132.6,61.6c-0.1-0.4-0.2-0.7-0.2-1.1l0.8-0.2c0.1,0.4,0.2,0.7,0.2,1.1L132.6,61.6z M14.5,60.9l-0.8-0.2c0.1-0.4,0.2-0.7,0.2-1.1
			l0.8,0.2C14.7,60.1,14.6,60.5,14.5,60.9z M132.2,59.4c-0.1-0.4-0.2-0.7-0.3-1.1l0.8-0.2c0.1,0.4,0.2,0.7,0.3,1.1L132.2,59.4z
			 M15.1,58.7l-0.8-0.2c0.1-0.4,0.2-0.7,0.3-1.1l0.8,0.2C15.2,58,15.1,58.3,15.1,58.7z M131.6,57.3c-0.1-0.4-0.2-0.7-0.3-1.1
			l0.8-0.2c0.1,0.4,0.2,0.7,0.3,1.1L131.6,57.3z M15.6,56.5l-0.8-0.2c0.1-0.4,0.2-0.7,0.3-1.1l0.8,0.3
			C15.9,55.8,15.7,56.2,15.6,56.5z M131,55.1c-0.1-0.4-0.2-0.7-0.4-1.1l0.8-0.3c0.1,0.4,0.2,0.7,0.4,1.1L131,55.1z M16.3,54.4
			l-0.8-0.3c0.1-0.4,0.2-0.7,0.4-1.1l0.8,0.3C16.6,53.7,16.4,54,16.3,54.4z M130.2,53c-0.1-0.4-0.3-0.7-0.4-1.1l0.8-0.3
			c0.1,0.4,0.3,0.7,0.4,1.1L130.2,53z M17.1,52.3L16.3,52c0.1-0.4,0.3-0.7,0.4-1.1l0.8,0.3C17.3,51.6,17.2,51.9,17.1,52.3z
			 M129.4,50.9c-0.1-0.3-0.3-0.7-0.4-1l0.8-0.3c0.1,0.3,0.3,0.7,0.4,1L129.4,50.9z M17.9,50.2l-0.8-0.3c0.1-0.3,0.3-0.7,0.5-1
			l0.8,0.3C18.2,49.5,18.1,49.8,17.9,50.2z M128.6,48.9c-0.2-0.3-0.3-0.7-0.5-1l0.8-0.4c0.2,0.3,0.3,0.7,0.5,1L128.6,48.9z
			 M18.8,48.1l-0.8-0.4c0.2-0.3,0.3-0.7,0.5-1l0.8,0.4C19.1,47.4,19,47.8,18.8,48.1z M127.6,46.8c-0.2-0.3-0.3-0.7-0.5-1l0.8-0.4
			c0.2,0.3,0.3,0.7,0.5,1L127.6,46.8z M19.8,46.1l-0.8-0.4c0.2-0.3,0.3-0.7,0.5-1l0.7,0.4C20.2,45.4,20,45.8,19.8,46.1z M126.6,44.9
			c-0.2-0.3-0.4-0.7-0.5-1l0.7-0.4c0.2,0.3,0.4,0.7,0.6,1L126.6,44.9z M20.9,44.1l-0.7-0.4c0.2-0.3,0.4-0.7,0.6-1l0.7,0.4
			C21.2,43.5,21.1,43.8,20.9,44.1z M125.5,42.9c-0.2-0.3-0.4-0.6-0.6-1l0.7-0.4c0.2,0.3,0.4,0.6,0.6,1L125.5,42.9z M22,42.2
			l-0.7-0.4c0.2-0.3,0.4-0.6,0.6-1l0.7,0.5C22.4,41.5,22.2,41.9,22,42.2z M124.3,41c-0.2-0.3-0.4-0.6-0.6-0.9l0.7-0.5
			c0.2,0.3,0.4,0.6,0.6,0.9L124.3,41z M23.2,40.3l-0.7-0.5c0.2-0.3,0.4-0.6,0.6-0.9l0.7,0.5C23.6,39.7,23.4,40,23.2,40.3z
			 M123.1,39.1c-0.2-0.3-0.4-0.6-0.6-0.9l0.7-0.5c0.2,0.3,0.4,0.6,0.7,0.9L123.1,39.1z M24.5,38.4l-0.7-0.5c0.2-0.3,0.4-0.6,0.7-0.9
			l0.7,0.5C24.9,37.8,24.7,38.1,24.5,38.4z M121.7,37.3c-0.2-0.3-0.5-0.6-0.7-0.9l0.7-0.5c0.2,0.3,0.5,0.6,0.7,0.9L121.7,37.3z
			 M25.8,36.6l-0.7-0.5c0.2-0.3,0.5-0.6,0.7-0.9l0.7,0.5C26.3,36.1,26.1,36.3,25.8,36.6z M120.4,35.6c-0.2-0.3-0.5-0.6-0.7-0.9
			l0.6-0.5c0.2,0.3,0.5,0.6,0.7,0.9L120.4,35.6z M27.2,34.9l-0.7-0.5c0.2-0.3,0.5-0.6,0.7-0.9L28,34C27.7,34.3,27.5,34.6,27.2,34.9z
			 M118.9,33.9c-0.2-0.3-0.5-0.6-0.7-0.8l0.6-0.6c0.3,0.3,0.5,0.6,0.8,0.8L118.9,33.9z M28.7,33.2l-0.6-0.6c0.3-0.3,0.5-0.6,0.8-0.8
			l0.6,0.6C29.2,32.6,28.9,32.9,28.7,33.2z M117.4,32.2c-0.3-0.3-0.5-0.5-0.8-0.8l0.6-0.6c0.3,0.3,0.5,0.5,0.8,0.8L117.4,32.2z
			 M30.2,31.6L29.6,31c0.3-0.3,0.5-0.5,0.8-0.8l0.6,0.6C30.7,31,30.5,31.3,30.2,31.6z M115.8,30.6c-0.3-0.3-0.5-0.5-0.8-0.8l0.6-0.6
			c0.3,0.3,0.5,0.5,0.8,0.8L115.8,30.6z M31.8,30l-0.6-0.6c0.3-0.3,0.5-0.5,0.8-0.8l0.6,0.6C32.4,29.5,32.1,29.7,31.8,30z
			 M114.2,29.1c-0.3-0.3-0.6-0.5-0.8-0.7l0.6-0.6c0.3,0.3,0.6,0.5,0.8,0.8L114.2,29.1z M33.5,28.5l-0.6-0.6c0.3-0.3,0.6-0.5,0.9-0.7
			l0.6,0.6C34,28,33.7,28.2,33.5,28.5z M112.5,27.6c-0.3-0.2-0.6-0.5-0.9-0.7l0.5-0.7c0.3,0.2,0.6,0.5,0.9,0.7L112.5,27.6z M35.2,27
			l-0.5-0.7c0.3-0.2,0.6-0.5,0.9-0.7l0.5,0.7C35.7,26.5,35.4,26.8,35.2,27z M110.8,26.1c-0.3-0.2-0.6-0.5-0.9-0.7l0.5-0.7
			c0.3,0.2,0.6,0.5,0.9,0.7L110.8,26.1z M36.9,25.6l-0.5-0.7c0.3-0.2,0.6-0.5,0.9-0.7l0.5,0.7C37.5,25.2,37.2,25.4,36.9,25.6z
			 M109,24.8c-0.3-0.2-0.6-0.4-0.9-0.7l0.5-0.7c0.3,0.2,0.6,0.4,0.9,0.7L109,24.8z M38.7,24.3l-0.5-0.7c0.3-0.2,0.6-0.4,0.9-0.6
			l0.5,0.7C39.3,23.9,39,24.1,38.7,24.3z M107.2,23.5c-0.3-0.2-0.6-0.4-0.9-0.6l0.5-0.7c0.3,0.2,0.6,0.4,1,0.6L107.2,23.5z M40.6,23
			l-0.5-0.7c0.3-0.2,0.6-0.4,1-0.6l0.4,0.7C41.2,22.6,40.9,22.8,40.6,23z M105.3,22.3c-0.3-0.2-0.6-0.4-1-0.6l0.4-0.7
			c0.3,0.2,0.6,0.4,1,0.6L105.3,22.3z M42.5,21.8L42,21.1c0.3-0.2,0.6-0.4,1-0.6l0.4,0.7C43.1,21.5,42.8,21.6,42.5,21.8z
			 M103.4,21.1c-0.3-0.2-0.7-0.4-1-0.5l0.4-0.7c0.3,0.2,0.7,0.4,1,0.6L103.4,21.1z M44.4,20.7L44,20c0.3-0.2,0.7-0.4,1-0.5l0.4,0.7
			C45,20.4,44.7,20.5,44.4,20.7z M101.4,20c-0.3-0.2-0.7-0.3-1-0.5l0.4-0.8c0.3,0.2,0.7,0.3,1,0.5L101.4,20z M46.4,19.7L46,18.9
			c0.3-0.2,0.7-0.3,1-0.5l0.4,0.8C47,19.3,46.7,19.5,46.4,19.7z M99.4,19c-0.3-0.2-0.7-0.3-1-0.5l0.3-0.8c0.3,0.2,0.7,0.3,1,0.5
			L99.4,19z M48.4,18.7L48,17.9c0.3-0.2,0.7-0.3,1-0.5l0.3,0.8C49.1,18.4,48.7,18.5,48.4,18.7z M97.3,18.1c-0.3-0.1-0.7-0.3-1-0.4
			l0.3-0.8c0.4,0.1,0.7,0.3,1.1,0.4L97.3,18.1z M50.4,17.8L50.1,17c0.3-0.1,0.7-0.3,1-0.4l0.3,0.8C51.1,17.5,50.8,17.7,50.4,17.8z
			 M95.3,17.3c-0.3-0.1-0.7-0.3-1.1-0.4l0.3-0.8c0.4,0.1,0.7,0.3,1.1,0.4L95.3,17.3z M93.2,16.5c-0.4-0.1-0.7-0.2-1.1-0.3l0.3-0.8
			c0.4,0.1,0.7,0.2,1.1,0.4L93.2,16.5z M52.5,17l-0.3-0.8c0.4-0.1,0.7-0.3,1.1-0.4l0.3,0.8C53.2,16.7,52.9,16.8,52.5,17z M54.6,16.2
			l-0.3-0.8c0.4-0.1,0.7-0.2,1.1-0.3l0.2,0.8C55.3,16,55,16.1,54.6,16.2z M91,15.8c-0.4-0.1-0.7-0.2-1.1-0.3l0.2-0.8
			c0.4,0.1,0.7,0.2,1.1,0.3L91,15.8z M56.8,15.6l-0.2-0.8c0.4-0.1,0.7-0.2,1.1-0.3l0.2,0.8C57.5,15.4,57.1,15.5,56.8,15.6z
			 M88.9,15.2c-0.4-0.1-0.7-0.2-1.1-0.3l0.2-0.8c0.4,0.1,0.7,0.2,1.1,0.3L88.9,15.2z M58.9,15l-0.2-0.8c0.4-0.1,0.7-0.2,1.1-0.3
			l0.2,0.8C59.7,14.8,59.3,14.9,58.9,15z M86.7,14.7c-0.4-0.1-0.7-0.2-1.1-0.2l0.2-0.8c0.4,0.1,0.7,0.2,1.1,0.2L86.7,14.7z
			 M61.1,14.5l-0.2-0.8c0.4-0.1,0.7-0.2,1.1-0.2l0.2,0.8C61.8,14.3,61.5,14.4,61.1,14.5z M84.5,14.2c-0.4-0.1-0.7-0.1-1.1-0.2
			l0.1-0.8c0.4,0.1,0.7,0.1,1.1,0.2L84.5,14.2z M63.3,14.1l-0.1-0.8c0.4-0.1,0.7-0.1,1.1-0.2l0.1,0.8C64,13.9,63.7,14,63.3,14.1z
			 M82.3,13.8c-0.4-0.1-0.7-0.1-1.1-0.2l0.1-0.8c0.4,0,0.7,0.1,1.1,0.2L82.3,13.8z M65.5,13.7l-0.1-0.8c0.4,0,0.8-0.1,1.1-0.1
			l0.1,0.8C66.3,13.6,65.9,13.7,65.5,13.7z M80.1,13.6c-0.4,0-0.7-0.1-1.1-0.1l0.1-0.8c0.4,0,0.8,0.1,1.1,0.1L80.1,13.6z M67.8,13.5
			l-0.1-0.8c0.4,0,0.8-0.1,1.1-0.1l0.1,0.8C68.5,13.4,68.1,13.4,67.8,13.5z M77.8,13.4c-0.4,0-0.7-0.1-1.1-0.1l0-0.8
			c0.4,0,0.8,0,1.1,0.1L77.8,13.4z M70,13.3l0-0.8c0.4,0,0.8,0,1.1-0.1l0,0.8C70.7,13.3,70.4,13.3,70,13.3z M75.6,13.2
			c-0.4,0-0.7,0-1.1,0l0-0.8c0.4,0,0.8,0,1.1,0L75.6,13.2z M72.2,13.2l0-0.8c0.4,0,0.8,0,1.1,0l0,0.8C73,13.2,72.6,13.2,72.2,13.2z"
			/>
	</g>
	
		<ellipse transform="matrix(1 -1.683197e-03 1.683197e-03 1 -0.1236 0.1238)" class="st2" cx="73.5" cy="73.5" rx="57.2" ry="57.2"/>
	<path class="st1" d="M73.5,128.3c-14.6,0-28.3-5.7-38.7-16C24.5,102,18.8,88.2,18.8,73.6c0-14.6,5.6-28.4,16-38.7
		c10.3-10.4,24.1-16.1,38.7-16.1c0,0,0.1,0,0.1,0c30.2,0,54.7,24.5,54.8,54.7C128.3,103.6,103.8,128.2,73.5,128.3
		C73.6,128.3,73.5,128.3,73.5,128.3z M73.5,19.5C73.5,19.5,73.5,19.5,73.5,19.5c-14.5,0-28.1,5.7-38.3,15.9
		C25.1,45.6,19.5,59.2,19.5,73.6c0,14.4,5.7,28,15.9,38.2c10.2,10.2,23.7,15.8,38.1,15.8c0,0,0.1,0,0.1,0
		c29.8-0.1,54-24.3,53.9-54.1l0,0C127.5,43.7,103.3,19.5,73.5,19.5z"/>
	
		<ellipse transform="matrix(1 -1.682750e-03 1.682750e-03 1 -0.1236 0.1238)" class="st3" cx="73.5" cy="73.5" rx="70.9" ry="70.9"/>
	<g>
		<path class="st1" d="M39.1,106.9c-0.4,0.4-0.9,0.6-1.3,0.7c-0.4,0.1-0.9,0.1-1.3,0c-0.4-0.1-0.8-0.4-1.1-0.7
			c-0.3-0.4-0.5-0.7-0.6-1.2c-0.1-0.4,0-0.9,0.2-1.3c0.2-0.4,0.5-0.8,0.9-1.2l0.2-0.2c0.4-0.4,0.9-0.6,1.3-0.7
			c0.5-0.1,0.9-0.1,1.3,0c0.4,0.1,0.8,0.4,1.1,0.7c0.3,0.4,0.5,0.7,0.6,1.2c0.1,0.4,0,0.9-0.2,1.3c-0.2,0.4-0.5,0.8-0.9,1.2
			L39.1,106.9z M38.5,105.9c0.4-0.4,0.7-0.8,0.8-1.1c0.1-0.4,0-0.7-0.3-1c-0.3-0.3-0.6-0.4-0.9-0.4c-0.4,0-0.8,0.3-1.2,0.6l-0.2,0.2
			c-0.4,0.4-0.7,0.8-0.8,1.1c-0.1,0.4,0,0.7,0.2,1c0.3,0.3,0.6,0.4,0.9,0.4c0.4,0,0.8-0.3,1.2-0.6L38.5,105.9z"/>
		<path class="st1" d="M43.8,114.6l-0.9-0.7l0.5-4.3l-2.3,2.9l-0.9-0.7l3.5-4.4l0.9,0.7l-0.6,4.4l2.3-2.9l0.9,0.7L43.8,114.6z"/>
		<path class="st1" d="M51.7,116.5l-2-1.1l-0.7,1.3l2.3,1.3l-0.5,0.8l-3.3-1.8l2.8-5l3.3,1.8l-0.5,0.8l-2.3-1.3l-0.7,1.2l2,1.1
			L51.7,116.5z"/>
		<path class="st1" d="M59.4,122.2l1.3-5.5l1.7,0.4c0.5,0.1,0.9,0.3,1.2,0.6c0.3,0.3,0.6,0.7,0.7,1.2c0.1,0.5,0.1,0.9,0,1.5
			l-0.1,0.3c-0.1,0.5-0.3,0.9-0.7,1.3c-0.3,0.3-0.7,0.6-1.1,0.7c-0.4,0.1-0.9,0.1-1.4,0L59.4,122.2z M61.7,117.9l-0.9,3.7l0.6,0.1
			c0.4,0.1,0.8,0,1.1-0.2c0.3-0.2,0.5-0.6,0.7-1.2l0.1-0.3c0.1-0.6,0.1-1,0-1.4c-0.2-0.3-0.5-0.6-0.9-0.7L61.7,117.9z"/>
		<path class="st1" d="M71.4,121.7l-2.2-0.2l-0.1,1.5l2.6,0.2l-0.1,0.9l-3.8-0.3l0.4-5.7l3.8,0.3l-0.1,0.9l-2.6-0.2l-0.1,1.4
			l2.2,0.2L71.4,121.7z"/>
		<path class="st1" d="M80,121.9c0,0.6-0.2,1.1-0.6,1.5c-0.4,0.4-0.9,0.6-1.6,0.7c-0.7,0.1-1.3-0.1-1.8-0.6c-0.5-0.5-0.7-1.1-0.8-2
			l0-0.3c0-0.5,0-1,0.2-1.5c0.2-0.4,0.4-0.8,0.7-1c0.3-0.3,0.7-0.4,1.2-0.4c0.7-0.1,1.2,0.1,1.6,0.4c0.4,0.3,0.7,0.8,0.8,1.4
			l-1.2,0.1c-0.1-0.4-0.2-0.6-0.4-0.8c-0.2-0.2-0.5-0.2-0.8-0.2c-0.4,0-0.7,0.2-0.8,0.5c-0.2,0.3-0.2,0.7-0.2,1.3l0,0.4
			c0.1,0.6,0.2,1.1,0.4,1.3c0.2,0.3,0.5,0.4,0.9,0.4c0.4,0,0.6-0.1,0.8-0.3c0.2-0.2,0.2-0.4,0.2-0.8L80,121.9z"/>
		<path class="st1" d="M92.8,118.4c0.2,0.6,0.1,1.1-0.1,1.6c-0.3,0.5-0.7,0.8-1.3,1.1c-0.7,0.3-1.3,0.2-1.9-0.1
			c-0.6-0.3-1-0.9-1.3-1.7l-0.1-0.3c-0.2-0.5-0.3-1-0.2-1.5c0-0.5,0.2-0.9,0.4-1.2c0.3-0.3,0.6-0.6,1.1-0.7c0.6-0.2,1.2-0.2,1.7-0.1
			c0.5,0.2,0.9,0.6,1.2,1.1L91,117c-0.2-0.3-0.3-0.5-0.6-0.6c-0.2-0.1-0.5-0.1-0.8,0c-0.4,0.1-0.6,0.4-0.7,0.7
			c-0.1,0.3,0,0.8,0.2,1.3l0.2,0.4c0.2,0.6,0.5,1,0.7,1.2c0.3,0.2,0.6,0.2,1,0.1c0.3-0.1,0.6-0.3,0.7-0.5c0.1-0.2,0.1-0.5,0-0.8
			L92.8,118.4z"/>
		<path class="st1" d="M99.9,113.6c0.3,0.5,0.4,1,0.5,1.4c0,0.5,0,0.9-0.2,1.3c-0.2,0.4-0.5,0.7-0.9,0.9c-0.4,0.2-0.8,0.4-1.3,0.3
			c-0.4,0-0.8-0.1-1.2-0.4c-0.4-0.3-0.7-0.6-1-1.1l-0.1-0.2c-0.3-0.5-0.4-1-0.5-1.4c0-0.5,0-0.9,0.2-1.3c0.2-0.4,0.5-0.7,0.9-0.9
			c0.4-0.2,0.8-0.4,1.3-0.3c0.4,0,0.8,0.1,1.2,0.4c0.4,0.3,0.7,0.6,1,1.1L99.9,113.6z M98.7,114c-0.3-0.5-0.6-0.9-1-1
			c-0.3-0.2-0.7-0.1-1,0.1c-0.3,0.2-0.5,0.5-0.6,0.9c0,0.4,0.1,0.8,0.4,1.3l0.1,0.2c0.3,0.5,0.6,0.8,1,1c0.3,0.2,0.7,0.1,1-0.1
			c0.3-0.2,0.5-0.5,0.5-0.9c0-0.4-0.1-0.8-0.4-1.3L98.7,114z"/>
		<path class="st1" d="M105.6,112.7l-0.9,0.7l-3.6-4.4l0.9-0.7L105.6,112.7z"/>
		<path class="st1" d="M112.1,106.4l-0.8,0.9l-4.3-0.9l2.7,2.6l-0.8,0.9l-4.2-3.9l0.8-0.9l4.3,0.9l-2.7-2.6l0.8-0.9L112.1,106.4z"/>
	</g>
	<g>
		<path class="st4" d="M89.5,52.5c0,0,0.1-1.8,0.3-2.6c0.2-0.7,0.2-1.4,0.5-1.5c0.3-0.1,0.5,0,0.5,0.3c0.1,0.3-0.1,1.5,0.2,1.6
			c0.2,0.1,0.3-0.5,0.5-0.9c0.2-0.6,0.9-2.2,1.1-2.7c0.3-0.6,1-0.7,0.9,0c-0.1,0.8-0.6,2.1-0.5,2.2c0.1,0.1,0.3-0.2,0.7,0
			c0.1,0.1,0.2,0.2,0.4,0.4c0.1,0.1,0.4,0,0.6,0.2c0.1,0.1,0.2,0.3,0.3,0.4c0.1,0.1,0.3,0.1,0.4,0.2c0.2,0.3,0.1,0.8-0.1,1.4
			c-0.3,1-1.1,1.6-1.7,2c-0.9,0.6-1.3,1.1-1.3,1.1L89.5,52.5z"/>
		<path class="st5" d="M92.7,49.7c0,0-0.6,0.7-0.3,1c0.2,0.2,0.7,0,0.9-0.3c0.2-0.3-0.4,0.7-0.1,0.8c0.3,0.1,0.8-0.3,0.8-0.3
			s-0.2,0.4,0,0.6c0.2,0.3,0.7-0.2,0.7-0.2"/>
		<path class="st6" d="M91,50.7c0,0,0.3,0.4,0.4,0.8c0.1,0.6,0,1.1,0,1.1"/>
		<path class="st7" d="M70.3,38.7c2.2-1.3,8.4-3.4,11.9-4.2c1.4-0.3,1.5,0.5,1,1.2c-1.1,1.4-4.4,3.1-3.9,3.6
			c0.4,0.4,3.7-2.7,5.6-3.7c1.5-0.8,1.6,0.4,0.8,1.5c-0.4,0.5-2.5,2.7-3.5,3.9c-0.3,0.3-0.1,0.5,0.3,0.3c0.9-0.5,2.3-2.4,2.7-2.6
			C86,38,86.4,39,85.7,40c-0.5,0.7-1,1.9-1,2.8c0,1.2,0.7,3.8,1,4.6C87.3,52.1,66.4,40.9,70.3,38.7z"/>
		<path class="st8" d="M47.9,103.5c0,0,7.8,2.4,20.2,2.4c10,0,17.4-2.2,17.4-2.2l-5.3-38.8c0,0-12.5-1.2-14.7,0
			c-2.1,1.2-6.1,10.4-7.3,17.5C57.1,89.4,47.9,103.5,47.9,103.5z"/>
		<path class="st1" d="M67.2,62.2c0,0-1.5,0.8-2.4,1.4c-1.2,0.9-2.8,2.2-4.7,4.2c-1.4,1.5-3.1,4.6-3,6.8c0.2,2.2,2.7,5.6,4,7.2
			c1.4,1.6,2,2,2,2l2.5-2.8c0,0-2.2-2.5-2.8-3.9c-0.4-0.9-0.7-2.4,1-4.2c1.7-1.8,2.4-1.5,2.4-1.5s-0.2,4.3-0.3,7.7
			c-0.3,8.8,3.4,19.2,3.4,19.2l1.8,7.3h3.7l-0.6-15.7l3.4,0.2l4,15.5h4.3c0,0-2.2-17.8-2.1-20.6c0-2.1-0.2-4.5-0.8-8.7
			C82.6,72.9,82,69,82,69s3.2-3.8,4.4-5.4c1.9-2.5,3.3-4.5,4.1-5.9c0.8-1.4,1.9-3.4,1.9-3.4l-3-2c0,0-1.3,2.5-2.6,3.5
			c-1.4,1.1-5.7,4.5-5.7,4.5s-3.6,1.6-6.8,1.7C71,62.2,67.2,62.2,67.2,62.2z"/>
		<path class="st9" d="M70.1,38.3c2.2-1.3,8.2-3,11.7-3.9c1.4-0.3,1.7,0.2,1.2,0.8c-1.1,1.4-4.6,3-4.2,3.7c0.2,0.3,3.8-2.4,5.7-3.4
			c1.5-0.8,1.8,0,0.9,1.1c-0.4,0.5-2.7,2.7-3.7,3.8c-0.3,0.3-0.1,0.5,0.3,0.3c0.9-0.5,2.2-1.7,2.6-2c1-0.7,1.4-0.1,0.8,0.8
			c-0.5,0.7-1.1,1.9-1.1,2.8c0,1.2,1.1,3.8,1.3,4.6c1.6,4.6,0.2,10.7-1.5,12.3c-1.4,1.3-5.5,3.1-11.5,2.9c-6.1-0.2-8.5-1.6-10.6-4
			c-2.6-3-2.4-9.5,0.3-13.4C64.2,42.3,66.3,40.5,70.1,38.3z"/>
		<path class="st10" d="M63.6,53.9c0,0-1.6-0.9-2.5-0.6c-0.8,0.3-1.1,1-1,2c0.1,0.9,0.8,1.8,2.1,2.2c1.3,0.5,1.7,0.7,1.7,0.7
			L63.6,53.9z"/>
		<path class="st11" d="M63.2,55c-0.4-0.8-1.6-1.4-2.3-0.5"/>
		<path class="st10" d="M83.8,53.9c0,0,1.6-0.9,2.5-0.6c0.8,0.3,1.1,1,1,2c-0.1,0.9-0.8,1.8-2.1,2.2c-1.3,0.5-1.7,0.7-1.7,0.7
			L83.8,53.9z"/>
		<path class="st11" d="M84.2,55c0.4-0.8,1.6-1.4,2.3-0.5"/>
		<path class="st4" d="M73.7,44.7c4.4,0.3,8.8,1.2,10,5.3c1.2,4.1,0.1,9.6-1,10.7c-1.2,1.3-3.6,2.8-9.1,2.6c-4.7-0.2-7.9-0.9-9-2.4
			c-1.1-1.5-2.8-10.3,0-13C67.3,45.4,70.3,44.5,73.7,44.7z"/>
		<path class="st12" d="M68.6,59.4c-0.3,0.5-1.1,0.9-1.9,0.6c-0.8-0.3-1.6-1.1-1.1-2c0.5-1,1.5-1,2.2-0.6
			C68.6,57.9,68.9,58.8,68.6,59.4z"/>
		<path class="st13" d="M73.7,58c-0.9,0-1.2-0.9-1.1-2c0.2-1.3,0.4-2.3,1.1-2.3c0.9,0,0.9,1.1,1.1,2.4C75,57.3,74.8,58.1,73.7,58z"
			/>
		<path class="st12" d="M78.6,59.4c0.3,0.5,1.1,0.9,1.9,0.6c0.8-0.3,1.6-1.1,1.1-2c-0.5-1-1.5-1-2.2-0.6
			C78.6,57.9,78.3,58.8,78.6,59.4z"/>
		<ellipse transform="matrix(0.9792 -0.2028 0.2028 0.9792 -8.5514 14.8559)" class="st9" cx="68.2" cy="49.2" rx="1.2" ry="0.6"/>
		<ellipse transform="matrix(0.2028 -0.9792 0.9792 0.2028 14.8867 116.6122)" class="st9" cx="79.1" cy="49.2" rx="0.6" ry="1.2"/>
		<path class="st0" d="M84.7,52.1c-0.5-0.8-2.6-1.7-5.5-1.6c-2.6,0.1-4.1,1.1-5.5,1.3c-1.4-0.2-2.8-1.3-5.5-1.3
			c-2.9-0.1-5,0.8-5.5,1.6c-0.8,1.4,1.4,3.9,2.7,4.6c1.5,0.8,3.6,1.1,4.7,0.6c1.3-0.6,2.3-2.4,2.7-2.8c0.2-0.2,0.5-0.3,0.8-0.3
			c0.2,0,0.5,0.1,0.8,0.3c0.4,0.4,1.4,2.2,2.7,2.8c1.1,0.5,3.2,0.2,4.7-0.6C83.3,56,85.5,53.5,84.7,52.1z"/>
		<g>
			<path class="st2" d="M70.7,54.1c-0.1,0.8-1.3,1.6-2.5,1.4c-1.2-0.2-2-1.4-1.9-2.2c0.1-0.8,1.2-1.2,2.4-1
				C69.9,52.6,70.8,53.3,70.7,54.1z"/>
			<circle cx="68.6" cy="53.9" r="1.3"/>
			<circle class="st2" cx="69" cy="53.4" r="0.5"/>
		</g>
		<g>
			<path class="st2" d="M76.7,54.1c0.1,0.8,1.3,1.6,2.5,1.4c1.2-0.2,2-1.4,1.9-2.2c-0.1-0.8-1.2-1.2-2.4-1
				C77.4,52.6,76.6,53.3,76.7,54.1z"/>
			<circle cx="78.9" cy="53.9" r="1.3"/>
			<circle class="st2" cx="79.3" cy="53.4" r="0.5"/>
		</g>
		<path class="st14" d="M70,59.1c1.7,1.8,5.8,2.1,7.4-0.1"/>
		<path class="st14" d="M69.6,59.4c0.4-0.1,0.6-0.5,0.4-0.9"/>
		<path class="st14" d="M77.7,59.2c-0.2-0.1-0.3-0.3-0.3-0.6"/>
		<path class="st0" d="M83.2,60.1c-0.1,0-0.1,0.6-1.6,1.5c-1.4,0.9-3.4,1.6-7.1,1.6c-5.5,0-8-1.1-8-1.1s-0.8-0.1-0.9,0.4
			c0,0.2,0,0.5-0.2,0.6c-0.2,0.1-2.1,0.3-3.8,2.1c-0.9,0.9-4.8,5.2-8.7,15.7c-3.6,9.7-7,12.4-9.9,14.5c-2.3,1.7-5,2.7-5,2.7
			s3.1,4.1,9.3,6.5c5.3,2.1,10.6,1.9,10.6,1.9s1.3-20.9,2.8-26.8c1.6-6.5,2.8-13.2,4.1-13.8c1.2-0.7,3.6,1.4,8,1.5
			c4.9,0.2,7-0.9,8.9-2.1c1.5-1,1.4-1.8,1.3-2.8c0-0.3,0.3-0.3,0.4-1C83.5,60.8,83.2,60.1,83.2,60.1z"/>
		<path class="st15" d="M65.4,63.2c0.7,1,1.8,1.6,3.5,2.1"/>
		<path class="st15" d="M77.2,65.7c2.6-0.2,4.3-1.2,5.9-3.2"/>
		<path class="st16" d="M70.4,103h4.5l0.2,6.8h-7.6c0,0,0-0.2,0.1-0.3c0.6-0.4,1.5-1,2.2-1.4c1.2-0.7,1.3-1.2,1.3-1.2
			C71.2,106.4,70.4,103,70.4,103z"/>
		<path class="st16" d="M86.1,102.9h-5l1.5,6.8h7.6c0,0,0-0.2-0.2-0.3c-0.7-0.4-1.3-0.9-2-1.4c-1.3-0.8-1.6-1.2-1.6-1.2
			C86.2,106.3,86.1,102.9,86.1,102.9z"/>
		<path class="st17" d="M65.7,81l0.2,0.2c0,0,0.1,2,0.2,2.5c0.1,0.6,0.3,2,0.3,2s-1,0.5-1.7,0c-0.7-0.4-1.5-1.9-1.5-1.9L65.7,81z"/>
		<path class="st0" d="M74.3,89.8l-8.1-5.5c0,0-0.3-1.3-0.3-2.2c0-0.6,6,1.9,9.6,1.5c3.6-0.4,8.2-1.5,8.2-1.5s0.1,0.8,0.1,2
			c0,1.2-6.2,5.8-6.2,5.8L74.3,89.8z"/>
		<path d="M66,80.1c0,0,4.3,1.8,8.8,1.7c4.4-0.1,8.8-2,8.8-2l0.3,2.9c0,0-3.9,1.8-8.8,1.9c-4.8,0.1-9.1-1.6-9.1-1.6
			s-0.1-0.4-0.1-1.4C65.9,80.9,66,80.1,66,80.1z"/>
		<polygon class="st18" points="73.1,81.3 77.8,80.9 78.1,84.7 73.4,85 		"/>
		<polygon points="74.2,82.1 76.8,81.9 77,84 74.3,84.2 		"/>
		<path class="st0" d="M65.7,81c0,0-0.2-0.5-0.4-0.7c-0.2-0.3-0.4-0.7-0.4-0.7l-3.1,3.2c0,0,0.3,0.3,0.8,0.6
			c0.5,0.3,0.7,0.4,0.7,0.4L65.7,81z"/>
		<path class="st0" d="M89.4,52.3c0,0-0.3,0.3-0.5,0.6c-0.2,0.2-0.5,0.6-0.5,0.6l3.5,2.3c0,0,0.2-0.4,0.4-0.9
			c0.2-0.5,0.2-0.6,0.2-0.6L89.4,52.3z"/>
		<polygon class="st18" points="75.1,69.3 76.5,72.1 80.2,72 77.9,75 79.2,78.5 75.4,76.4 72,78.9 72.8,75.3 69.6,73 73.8,72.4 		
			"/>
	</g>
	<g>
		<path class="st1" d="M47.2,34.4l-1.8,1.3l0.9,1.2l2.1-1.6l0.6,0.8l-3.1,2.2l-3.3-4.6l3.1-2.2l0.6,0.8L44,33.9l0.8,1.1l1.8-1.3
			L47.2,34.4z"/>
		<path class="st1" d="M51.8,30.3l0.1-2.2l1.2-0.6l-0.2,3.3l2.8,1.8l-1.2,0.6l-1.9-1.3l-0.1,2.3l-1.2,0.6l0.2-3.3l-2.7-1.8l1.2-0.6
			L51.8,30.3z"/>
		<path class="st1" d="M62,28.3c0.1,0.6,0.1,1.1-0.2,1.6c-0.3,0.5-0.7,0.8-1.4,1c-0.7,0.2-1.3,0.1-1.9-0.2c-0.5-0.3-0.9-0.9-1.2-1.7
			l-0.1-0.3c-0.2-0.5-0.2-1-0.1-1.5c0.1-0.5,0.2-0.8,0.5-1.2c0.3-0.3,0.6-0.5,1.1-0.7c0.6-0.2,1.2-0.2,1.7,0
			c0.5,0.2,0.9,0.6,1.1,1.2l-1.1,0.3c-0.1-0.3-0.3-0.6-0.5-0.7c-0.2-0.1-0.5-0.1-0.8,0c-0.4,0.1-0.6,0.3-0.7,0.7
			c-0.1,0.3-0.1,0.8,0.1,1.3l0.1,0.4c0.2,0.6,0.4,1,0.7,1.2c0.3,0.2,0.6,0.3,1,0.1c0.3-0.1,0.6-0.3,0.7-0.5c0.1-0.2,0.1-0.5,0.1-0.8
			L62,28.3z"/>
		<path class="st1" d="M68.8,26.6l-2.2,0.3l0.2,1.5l2.6-0.4l0.1,0.9l-3.8,0.5L65,23.9l3.8-0.5l0.1,0.9l-2.6,0.4l0.2,1.3l2.2-0.3
			L68.8,26.6z"/>
		<path class="st1" d="M73.9,27.9l2.5,0l0,0.9l-3.7-0.1l0.1-5.7l1.2,0L73.9,27.9z"/>
		<path class="st1" d="M80.8,28.5l2.5,0.4l-0.2,0.9l-3.6-0.6l1-5.6l1.2,0.2L80.8,28.5z"/>
		<path class="st1" d="M90.2,29.4L88,28.7l-0.5,1.4l2.5,0.8l-0.3,0.9l-3.6-1.2l1.8-5.4l3.6,1.2l-0.3,0.9l-2.5-0.8l-0.4,1.3l2.1,0.7
			L90.2,29.4z"/>
		<path class="st1" d="M96.7,35.3l-1-0.6l-0.2-4.4l-1.8,3.3l-1-0.6l2.7-5l1,0.6l0.2,4.4l1.8-3.3l1,0.6L96.7,35.3z"/>
		<path class="st1" d="M105.8,36.1l-1.4-1.1l-2.9,3.7l-0.9-0.7l2.9-3.7l-1.4-1.1l0.6-0.7l3.6,2.9L105.8,36.1z"/>
	</g>
</g>
</svg>
