<?xml version="1.0" encoding="utf-8"?>
<!-- Generator: Adobe Illustrator 21.1.0, SVG Export Plug-In . SVG Version: 6.00 Build 0)  -->
<svg version="1.1" id="Layer_1" xmlns="http://www.w3.org/2000/svg" xmlns:xlink="http://www.w3.org/1999/xlink" x="0px" y="0px"
	 viewBox="0 0 147 147" style="enable-background:new 0 0 147 147;" xml:space="preserve">
<style type="text/css">
	.st0{fill:#F393BD;}
	.st1{fill:#E05996;}
	.st2{fill:#FFFFFF;}
	.st3{fill:none;stroke:#000000;stroke-width:0.25;stroke-miterlimit:10;}
	.st4{fill:#A3216E;}
	.st5{fill:#CD941E;}
	.st6{fill:#F5A7C9;}
	.st7{fill:#1F110E;}
	.st8{fill:#F2A182;}
	.st9{fill:#DD8566;}
	.st10{fill:#EEBE9A;}
	.st11{fill:#F19375;}
	.st12{fill:#E4B420;}
	.st13{fill:#AA5252;}
	.st14{fill:#F7A195;}
	.st15{clip-path:url(#SVGID_2_);fill:#F393BD;}
	.st16{clip-path:url(#SVGID_2_);fill:#E05996;}
	.st17{fill:#F9BB1B;}
	.st18{clip-path:url(#SVGID_4_);fill:#EEBE9A;}
</style>
<g>
	
		<ellipse transform="matrix(1 -1.682620e-03 1.682620e-03 1 -0.1236 0.1238)" class="st0" cx="73.5" cy="73.5" rx="73.5" ry="73.5"/>
	<path class="st1" d="M73.4,7c3,0,6.7,3.9,9.8,4.4c3.1,0.5,7.9-2.1,10.7-1.2c2.8,0.9,5.2,5.8,8,7.2c2.8,1.4,8.1,0.4,10.6,2.2
		c2.4,1.7,3.1,7.1,5.4,9.4c2.2,2.2,7.6,2.9,9.4,5.3c1.8,2.4,0.8,7.8,2.2,10.6c1.4,2.8,6.3,5.1,7.3,8c0.9,2.8-1.7,7.6-1.2,10.7
		c0.5,3.1,4.4,6.8,4.4,9.8c0,3-3.9,6.7-4.4,9.8c-0.5,3.1,2.1,7.9,1.2,10.7c-0.9,2.8-5.8,5.2-7.2,8c-1.4,2.8-0.4,8.1-2.2,10.6
		c-1.7,2.4-7.1,3.1-9.4,5.4c-2.2,2.2-2.9,7.6-5.3,9.4c-2.4,1.8-7.8,0.8-10.6,2.2c-2.8,1.4-5.1,6.3-8,7.3c-2.8,0.9-7.6-1.7-10.7-1.2
		c-3.1,0.5-6.8,4.4-9.8,4.4c-3,0-6.7-3.9-9.8-4.4c-3.1-0.5-7.9,2.1-10.7,1.2c-2.8-0.9-5.2-5.8-8-7.2c-2.8-1.4-8.1-0.4-10.6-2.2
		c-2.4-1.7-3.1-7.1-5.4-9.4c-2.2-2.2-7.6-2.9-9.4-5.3c-1.8-2.4-0.8-7.8-2.2-10.6c-1.4-2.8-6.3-5.1-7.3-8c-0.9-2.8,1.7-7.6,1.2-10.7
		C11,80.4,7,76.6,7,73.6c0-3,3.9-6.7,4.4-9.8c0.5-3.1-2.1-7.9-1.2-10.7c0.9-2.8,5.8-5.2,7.2-8c1.4-2.8,0.4-8.1,2.2-10.6
		c1.7-2.4,7.1-3.1,9.4-5.4c2.2-2.2,2.9-7.6,5.3-9.4c2.4-1.8,7.8-0.8,10.6-2.2c2.8-1.4,5.1-6.3,8-7.3c2.8-0.9,7.6,1.7,10.7,1.2
		C66.7,11,70.4,7,73.4,7z"/>
	<g>
		<path class="st2" d="M73.8,134.7l-0.1,0c-0.4,0-0.8,0-1.1,0l0-0.8c0.4,0,0.7,0,1.1,0l0.1,0L73.8,134.7z M74.9,134.7l0-0.8
			c0.4,0,0.7,0,1.1,0l0,0.8C75.7,134.6,75.3,134.6,74.9,134.7z M71.3,134.6c-0.4,0-0.8,0-1.1-0.1l0-0.8c0.4,0,0.7,0,1.1,0
			L71.3,134.6z M77.2,134.6l0-0.8c0.4,0,0.7,0,1.1-0.1l0.1,0.8C77.9,134.5,77.5,134.5,77.2,134.6z M69.1,134.5
			c-0.4,0-0.8-0.1-1.1-0.1l0.1-0.8c0.4,0,0.7,0.1,1.1,0.1L69.1,134.5z M79.4,134.4l-0.1-0.8c0.4,0,0.7-0.1,1.1-0.1l0.1,0.8
			C80.2,134.3,79.8,134.4,79.4,134.4z M66.8,134.3c-0.4,0-0.8-0.1-1.1-0.1l0.1-0.8c0.4,0,0.7,0.1,1.1,0.1L66.8,134.3z M81.7,134.1
			l-0.1-0.8c0.4,0,0.7-0.1,1.1-0.2l0.1,0.8C82.4,134,82.1,134.1,81.7,134.1z M64.6,134c-0.4-0.1-0.8-0.1-1.1-0.2l0.1-0.8
			c0.4,0.1,0.7,0.1,1.1,0.2L64.6,134z M83.9,133.8l-0.1-0.8c0.4-0.1,0.7-0.1,1.1-0.2l0.2,0.8C84.7,133.7,84.3,133.7,83.9,133.8z
			 M62.3,133.6c-0.4-0.1-0.7-0.1-1.1-0.2l0.2-0.8c0.4,0.1,0.7,0.1,1.1,0.2L62.3,133.6z M86.2,133.4l-0.2-0.8
			c0.4-0.1,0.7-0.2,1.1-0.2l0.2,0.8C86.9,133.2,86.5,133.3,86.2,133.4z M60.1,133.2c-0.4-0.1-0.7-0.2-1.1-0.3l0.2-0.8
			c0.4,0.1,0.7,0.2,1.1,0.3L60.1,133.2z M88.4,132.8l-0.2-0.8c0.4-0.1,0.7-0.2,1.1-0.3l0.2,0.8C89.1,132.7,88.8,132.8,88.4,132.8z
			 M57.9,132.6c-0.4-0.1-0.7-0.2-1.1-0.3l0.2-0.8c0.4,0.1,0.7,0.2,1.1,0.3L57.9,132.6z M90.6,132.3l-0.2-0.8
			c0.4-0.1,0.7-0.2,1.1-0.3l0.3,0.8C91.3,132,90.9,132.1,90.6,132.3z M55.7,132c-0.4-0.1-0.7-0.2-1.1-0.3l0.3-0.8
			c0.4,0.1,0.7,0.2,1.1,0.3L55.7,132z M92.7,131.6l-0.3-0.8c0.4-0.1,0.7-0.2,1.1-0.4l0.3,0.8C93.5,131.3,93.1,131.5,92.7,131.6z
			 M53.5,131.3c-0.4-0.1-0.7-0.3-1.1-0.4l0.3-0.8c0.4,0.1,0.7,0.3,1.1,0.4L53.5,131.3z M94.9,130.8l-0.3-0.8c0.4-0.1,0.7-0.3,1-0.4
			l0.3,0.8C95.6,130.6,95.2,130.7,94.9,130.8z M51.4,130.5c-0.4-0.1-0.7-0.3-1.1-0.4l0.3-0.8c0.3,0.1,0.7,0.3,1,0.4L51.4,130.5z
			 M97,130l-0.3-0.8c0.3-0.1,0.7-0.3,1-0.4l0.3,0.8C97.7,129.7,97.3,129.8,97,130z M49.3,129.7c-0.3-0.2-0.7-0.3-1-0.5l0.3-0.8
			c0.3,0.2,0.7,0.3,1,0.5L49.3,129.7z M99.1,129.1l-0.4-0.8c0.3-0.2,0.7-0.3,1-0.5l0.4,0.8C99.8,128.8,99.4,128.9,99.1,129.1z
			 M47.2,128.7c-0.3-0.2-0.7-0.3-1-0.5l0.4-0.8c0.3,0.2,0.7,0.3,1,0.5L47.2,128.7z M101.1,128.1l-0.4-0.8c0.3-0.2,0.7-0.3,1-0.5
			l0.4,0.7C101.8,127.7,101.4,127.9,101.1,128.1z M45.2,127.7c-0.3-0.2-0.7-0.4-1-0.5l0.4-0.7c0.3,0.2,0.7,0.4,1,0.5L45.2,127.7z
			 M103.1,127l-0.4-0.7c0.3-0.2,0.6-0.4,1-0.6l0.4,0.7C103.8,126.7,103.4,126.8,103.1,127z M43.2,126.6c-0.3-0.2-0.7-0.4-1-0.6
			l0.4-0.7c0.3,0.2,0.6,0.4,1,0.6L43.2,126.6z M105.1,125.9l-0.4-0.7c0.3-0.2,0.6-0.4,1-0.6l0.5,0.7
			C105.7,125.5,105.4,125.7,105.1,125.9z M41.2,125.4c-0.3-0.2-0.6-0.4-1-0.6l0.5-0.7c0.3,0.2,0.6,0.4,0.9,0.6L41.2,125.4z
			 M107,124.7l-0.5-0.7c0.3-0.2,0.6-0.4,0.9-0.6l0.5,0.7C107.6,124.3,107.3,124.5,107,124.7z M39.3,124.2c-0.3-0.2-0.6-0.4-0.9-0.6
			l0.5-0.7c0.3,0.2,0.6,0.4,0.9,0.6L39.3,124.2z M108.9,123.4l-0.5-0.7c0.3-0.2,0.6-0.4,0.9-0.7l0.5,0.7
			C109.5,123,109.2,123.2,108.9,123.4z M37.5,122.9c-0.3-0.2-0.6-0.4-0.9-0.7l0.5-0.7c0.3,0.2,0.6,0.5,0.9,0.7L37.5,122.9z
			 M110.7,122.1l-0.5-0.7c0.3-0.2,0.6-0.5,0.9-0.7l0.5,0.7C111.3,121.6,111,121.8,110.7,122.1z M35.6,121.5
			c-0.3-0.2-0.6-0.5-0.9-0.7l0.5-0.7c0.3,0.2,0.6,0.5,0.9,0.7L35.6,121.5z M112.5,120.6l-0.5-0.7c0.3-0.2,0.6-0.5,0.9-0.7l0.6,0.6
			C113,120.1,112.8,120.4,112.5,120.6z M33.9,120.1c-0.3-0.2-0.6-0.5-0.9-0.7l0.6-0.6c0.3,0.2,0.6,0.5,0.8,0.7L33.9,120.1z
			 M114.2,119.2l-0.6-0.6c0.3-0.2,0.6-0.5,0.8-0.8l0.6,0.6C114.8,118.6,114.5,118.9,114.2,119.2z M32.2,118.6
			c-0.3-0.3-0.6-0.5-0.8-0.8l0.6-0.6c0.3,0.3,0.5,0.5,0.8,0.8L32.2,118.6z M115.9,117.6l-0.6-0.6c0.3-0.3,0.5-0.5,0.8-0.8l0.6,0.6
			C116.4,117.1,116.1,117.3,115.9,117.6z M30.5,117c-0.3-0.3-0.5-0.5-0.8-0.8l0.6-0.6c0.3,0.3,0.5,0.5,0.8,0.8L30.5,117z M117.5,116
			l-0.6-0.6c0.3-0.3,0.5-0.5,0.8-0.8l0.6,0.6C118,115.5,117.7,115.7,117.5,116z M29,115.4c-0.3-0.3-0.5-0.6-0.8-0.8l0.6-0.6
			c0.2,0.3,0.5,0.6,0.8,0.8L29,115.4z M119,114.3l-0.6-0.6c0.2-0.3,0.5-0.6,0.7-0.8l0.6,0.6C119.5,113.8,119.3,114.1,119,114.3z
			 M27.4,113.7c-0.2-0.3-0.5-0.6-0.7-0.9l0.6-0.5c0.2,0.3,0.5,0.6,0.7,0.8L27.4,113.7z M120.5,112.6l-0.7-0.5
			c0.2-0.3,0.5-0.6,0.7-0.9l0.7,0.5C121,112,120.7,112.3,120.5,112.6z M26,111.9c-0.2-0.3-0.5-0.6-0.7-0.9l0.7-0.5
			c0.2,0.3,0.5,0.6,0.7,0.9L26,111.9z M121.9,110.9l-0.7-0.5c0.2-0.3,0.5-0.6,0.7-0.9l0.7,0.5C122.4,110.3,122.2,110.6,121.9,110.9z
			 M24.6,110.2c-0.2-0.3-0.4-0.6-0.7-0.9l0.7-0.5c0.2,0.3,0.4,0.6,0.7,0.9L24.6,110.2z M123.3,109l-0.7-0.5c0.2-0.3,0.4-0.6,0.6-0.9
			l0.7,0.5C123.7,108.4,123.5,108.7,123.3,109z M23.2,108.3c-0.2-0.3-0.4-0.6-0.6-0.9l0.7-0.5c0.2,0.3,0.4,0.6,0.6,0.9L23.2,108.3z
			 M124.6,107.2l-0.7-0.5c0.2-0.3,0.4-0.6,0.6-0.9l0.7,0.5C125,106.5,124.8,106.8,124.6,107.2z M22,106.4c-0.2-0.3-0.4-0.6-0.6-1
			l0.7-0.4c0.2,0.3,0.4,0.6,0.6,0.9L22,106.4z M125.8,105.2l-0.7-0.4c0.2-0.3,0.4-0.6,0.6-1l0.7,0.4
			C126.2,104.6,126,104.9,125.8,105.2z M20.8,104.5c-0.2-0.3-0.4-0.7-0.6-1l0.7-0.4c0.2,0.3,0.4,0.6,0.6,1L20.8,104.5z M126.9,103.3
			l-0.7-0.4c0.2-0.3,0.4-0.7,0.5-1l0.7,0.4C127.3,102.6,127.1,102.9,126.9,103.3z M19.7,102.5c-0.2-0.3-0.4-0.7-0.5-1l0.8-0.4
			c0.2,0.3,0.3,0.7,0.5,1L19.7,102.5z M128,101.3l-0.8-0.4c0.2-0.3,0.3-0.7,0.5-1l0.8,0.4C128.4,100.6,128.2,100.9,128,101.3z
			 M18.6,100.5c-0.2-0.3-0.3-0.7-0.5-1l0.8-0.4c0.2,0.3,0.3,0.7,0.5,1L18.6,100.5z M129,99.2l-0.8-0.4c0.2-0.3,0.3-0.7,0.5-1
			l0.8,0.3C129.3,98.5,129.2,98.9,129,99.2z M17.7,98.5c-0.2-0.3-0.3-0.7-0.5-1l0.8-0.3c0.1,0.3,0.3,0.7,0.4,1L17.7,98.5z
			 M129.9,97.1l-0.8-0.3c0.1-0.3,0.3-0.7,0.4-1l0.8,0.3C130.2,96.4,130.1,96.8,129.9,97.1z M16.8,96.4c-0.1-0.4-0.3-0.7-0.4-1.1
			l0.8-0.3c0.1,0.3,0.3,0.7,0.4,1L16.8,96.4z M130.8,95l-0.8-0.3c0.1-0.4,0.3-0.7,0.4-1.1l0.8,0.3C131,94.3,130.9,94.7,130.8,95z
			 M16,94.3c-0.1-0.4-0.3-0.7-0.4-1.1l0.8-0.3c0.1,0.4,0.2,0.7,0.4,1.1L16,94.3z M131.5,92.9l-0.8-0.3c0.1-0.4,0.2-0.7,0.3-1.1
			l0.8,0.3C131.8,92.1,131.7,92.5,131.5,92.9z M15.2,92.1c-0.1-0.4-0.2-0.7-0.3-1.1l0.8-0.2c0.1,0.4,0.2,0.7,0.3,1.1L15.2,92.1z
			 M132.2,90.7l-0.8-0.2c0.1-0.4,0.2-0.7,0.3-1.1l0.8,0.2C132.4,90,132.3,90.3,132.2,90.7z M14.6,89.9c-0.1-0.4-0.2-0.7-0.3-1.1
			l0.8-0.2c0.1,0.4,0.2,0.7,0.3,1.1L14.6,89.9z M132.8,88.5l-0.8-0.2c0.1-0.4,0.2-0.7,0.3-1.1l0.8,0.2
			C133,87.8,132.9,88.1,132.8,88.5z M14,87.7c-0.1-0.4-0.2-0.7-0.3-1.1l0.8-0.2c0.1,0.4,0.2,0.7,0.3,1.1L14,87.7z M133.3,86.3
			l-0.8-0.2c0.1-0.4,0.2-0.7,0.2-1.1l0.8,0.2C133.5,85.5,133.4,85.9,133.3,86.3z M13.5,85.5c-0.1-0.4-0.1-0.7-0.2-1.1l0.8-0.1
			c0.1,0.4,0.1,0.7,0.2,1.1L13.5,85.5z M133.8,84l-0.8-0.1c0.1-0.4,0.1-0.7,0.2-1.1l0.8,0.1C133.9,83.3,133.8,83.7,133.8,84z
			 M13.1,83.3c-0.1-0.4-0.1-0.7-0.2-1.1l0.8-0.1c0.1,0.4,0.1,0.7,0.2,1.1L13.1,83.3z M134.1,81.8l-0.8-0.1c0.1-0.4,0.1-0.7,0.1-1.1
			l0.8,0.1C134.2,81.1,134.2,81.4,134.1,81.8z M12.8,81c0-0.4-0.1-0.8-0.1-1.1l0.8-0.1c0,0.4,0.1,0.7,0.1,1.1L12.8,81z M134.4,79.5
			l-0.8-0.1c0-0.4,0.1-0.7,0.1-1.1l0.8,0.1C134.5,78.8,134.4,79.2,134.4,79.5z M12.6,78.8c0-0.4-0.1-0.8-0.1-1.1l0.8-0.1
			c0,0.4,0.1,0.7,0.1,1.1L12.6,78.8z M134.6,77.3l-0.8-0.1c0-0.4,0-0.7,0.1-1.1l0.8,0C134.6,76.5,134.6,76.9,134.6,77.3z M12.4,76.5
			c0-0.4,0-0.8,0-1.1l0.8,0c0,0.4,0,0.7,0,1.1L12.4,76.5z M134.7,75l-0.8,0c0-0.4,0-0.7,0-1.1l0.8,0C134.7,74.3,134.7,74.6,134.7,75
			z M12.4,74.2l0-0.6l0-0.5l0.8,0l0,0.5l0,0.6L12.4,74.2z M133.8,72.7c0-0.4,0-0.7,0-1.1l0.8,0c0,0.4,0,0.8,0,1.1L133.8,72.7z
			 M13.2,72l-0.8,0c0-0.4,0-0.8,0-1.1l0.8,0C13.2,71.2,13.2,71.6,13.2,72z M133.8,70.5c0-0.4,0-0.7-0.1-1.1l0.8-0.1
			c0,0.4,0,0.8,0.1,1.1L133.8,70.5z M13.3,69.7l-0.8-0.1c0-0.4,0.1-0.8,0.1-1.1l0.8,0.1C13.4,69,13.3,69.4,13.3,69.7z M133.6,68.3
			c0-0.4-0.1-0.7-0.1-1.1l0.8-0.1c0,0.4,0.1,0.8,0.1,1.1L133.6,68.3z M13.5,67.5l-0.8-0.1c0-0.4,0.1-0.8,0.1-1.1l0.8,0.1
			C13.6,66.8,13.5,67.1,13.5,67.5z M133.4,66c0-0.4-0.1-0.7-0.1-1.1l0.8-0.1c0.1,0.4,0.1,0.7,0.2,1.1L133.4,66z M13.8,65.3l-0.8-0.1
			c0.1-0.4,0.1-0.8,0.2-1.1l0.8,0.1C13.9,64.5,13.8,64.9,13.8,65.3z M133.1,63.8c-0.1-0.4-0.1-0.7-0.2-1.1l0.8-0.2
			c0.1,0.4,0.1,0.7,0.2,1.1L133.1,63.8z M14.1,63.1l-0.8-0.1c0.1-0.4,0.1-0.7,0.2-1.1l0.8,0.2C14.2,62.3,14.2,62.7,14.1,63.1z
			 M132.6,61.6c-0.1-0.4-0.2-0.7-0.2-1.1l0.8-0.2c0.1,0.4,0.2,0.7,0.2,1.1L132.6,61.6z M14.5,60.9l-0.8-0.2c0.1-0.4,0.2-0.7,0.2-1.1
			l0.8,0.2C14.7,60.1,14.6,60.5,14.5,60.9z M132.2,59.4c-0.1-0.4-0.2-0.7-0.3-1.1l0.8-0.2c0.1,0.4,0.2,0.7,0.3,1.1L132.2,59.4z
			 M15.1,58.7l-0.8-0.2c0.1-0.4,0.2-0.7,0.3-1.1l0.8,0.2C15.2,58,15.1,58.3,15.1,58.7z M131.6,57.3c-0.1-0.4-0.2-0.7-0.3-1.1
			l0.8-0.2c0.1,0.4,0.2,0.7,0.3,1.1L131.6,57.3z M15.6,56.5l-0.8-0.2c0.1-0.4,0.2-0.7,0.3-1.1l0.8,0.3
			C15.9,55.8,15.7,56.2,15.6,56.5z M131,55.1c-0.1-0.4-0.2-0.7-0.4-1.1l0.8-0.3c0.1,0.4,0.2,0.7,0.4,1.1L131,55.1z M16.3,54.4
			l-0.8-0.3c0.1-0.4,0.2-0.7,0.4-1.1l0.8,0.3C16.6,53.7,16.4,54,16.3,54.4z M130.2,53c-0.1-0.4-0.3-0.7-0.4-1.1l0.8-0.3
			c0.1,0.4,0.3,0.7,0.4,1.1L130.2,53z M17.1,52.3L16.3,52c0.1-0.4,0.3-0.7,0.4-1.1l0.8,0.3C17.3,51.6,17.2,51.9,17.1,52.3z
			 M129.4,50.9c-0.1-0.3-0.3-0.7-0.4-1l0.8-0.3c0.1,0.3,0.3,0.7,0.4,1L129.4,50.9z M17.9,50.2l-0.8-0.3c0.1-0.3,0.3-0.7,0.5-1
			l0.8,0.3C18.2,49.5,18.1,49.8,17.9,50.2z M128.6,48.9c-0.2-0.3-0.3-0.7-0.5-1l0.8-0.4c0.2,0.3,0.3,0.7,0.5,1L128.6,48.9z
			 M18.8,48.1l-0.8-0.4c0.2-0.3,0.3-0.7,0.5-1l0.8,0.4C19.1,47.4,19,47.8,18.8,48.1z M127.6,46.8c-0.2-0.3-0.3-0.7-0.5-1l0.8-0.4
			c0.2,0.3,0.3,0.7,0.5,1L127.6,46.8z M19.8,46.1l-0.8-0.4c0.2-0.3,0.3-0.7,0.5-1l0.7,0.4C20.2,45.4,20,45.8,19.8,46.1z M126.6,44.9
			c-0.2-0.3-0.4-0.7-0.5-1l0.7-0.4c0.2,0.3,0.4,0.7,0.6,1L126.6,44.9z M20.9,44.1l-0.7-0.4c0.2-0.3,0.4-0.7,0.6-1l0.7,0.4
			C21.2,43.5,21.1,43.8,20.9,44.1z M125.5,42.9c-0.2-0.3-0.4-0.6-0.6-1l0.7-0.4c0.2,0.3,0.4,0.6,0.6,1L125.5,42.9z M22,42.2
			l-0.7-0.4c0.2-0.3,0.4-0.6,0.6-1l0.7,0.5C22.4,41.5,22.2,41.9,22,42.2z M124.3,41c-0.2-0.3-0.4-0.6-0.6-0.9l0.7-0.5
			c0.2,0.3,0.4,0.6,0.6,0.9L124.3,41z M23.2,40.3l-0.7-0.5c0.2-0.3,0.4-0.6,0.6-0.9l0.7,0.5C23.6,39.7,23.4,40,23.2,40.3z
			 M123.1,39.1c-0.2-0.3-0.4-0.6-0.6-0.9l0.7-0.5c0.2,0.3,0.4,0.6,0.7,0.9L123.1,39.1z M24.5,38.4l-0.7-0.5c0.2-0.3,0.4-0.6,0.7-0.9
			l0.7,0.5C24.9,37.8,24.7,38.1,24.5,38.4z M121.7,37.3c-0.2-0.3-0.5-0.6-0.7-0.9l0.7-0.5c0.2,0.3,0.5,0.6,0.7,0.9L121.7,37.3z
			 M25.8,36.6l-0.7-0.5c0.2-0.3,0.5-0.6,0.7-0.9l0.7,0.5C26.3,36.1,26.1,36.3,25.8,36.6z M120.4,35.6c-0.2-0.3-0.5-0.6-0.7-0.9
			l0.6-0.5c0.2,0.3,0.5,0.6,0.7,0.9L120.4,35.6z M27.2,34.9l-0.7-0.5c0.2-0.3,0.5-0.6,0.7-0.9L28,34C27.7,34.3,27.5,34.6,27.2,34.9z
			 M118.9,33.9c-0.2-0.3-0.5-0.6-0.7-0.8l0.6-0.6c0.3,0.3,0.5,0.6,0.8,0.8L118.9,33.9z M28.7,33.2l-0.6-0.6c0.3-0.3,0.5-0.6,0.8-0.8
			l0.6,0.6C29.2,32.6,28.9,32.9,28.7,33.2z M117.4,32.2c-0.3-0.3-0.5-0.5-0.8-0.8l0.6-0.6c0.3,0.3,0.5,0.5,0.8,0.8L117.4,32.2z
			 M30.2,31.6L29.6,31c0.3-0.3,0.5-0.5,0.8-0.8l0.6,0.6C30.7,31,30.5,31.3,30.2,31.6z M115.8,30.6c-0.3-0.3-0.5-0.5-0.8-0.8l0.6-0.6
			c0.3,0.3,0.5,0.5,0.8,0.8L115.8,30.6z M31.8,30l-0.6-0.6c0.3-0.3,0.5-0.5,0.8-0.8l0.6,0.6C32.4,29.5,32.1,29.7,31.8,30z M114.2,29
			c-0.3-0.3-0.6-0.5-0.8-0.7l0.6-0.6c0.3,0.3,0.6,0.5,0.8,0.8L114.2,29z M33.5,28.5l-0.6-0.6c0.3-0.3,0.6-0.5,0.9-0.7l0.6,0.6
			C34,28,33.7,28.2,33.5,28.5z M112.5,27.6c-0.3-0.2-0.6-0.5-0.9-0.7l0.5-0.7c0.3,0.2,0.6,0.5,0.9,0.7L112.5,27.6z M35.2,27
			l-0.5-0.7c0.3-0.2,0.6-0.5,0.9-0.7l0.5,0.7C35.7,26.5,35.4,26.8,35.2,27z M110.8,26.1c-0.3-0.2-0.6-0.5-0.9-0.7l0.5-0.7
			c0.3,0.2,0.6,0.5,0.9,0.7L110.8,26.1z M36.9,25.6l-0.5-0.7c0.3-0.2,0.6-0.5,0.9-0.7l0.5,0.7C37.5,25.2,37.2,25.4,36.9,25.6z
			 M109,24.8c-0.3-0.2-0.6-0.4-0.9-0.7l0.5-0.7c0.3,0.2,0.6,0.4,0.9,0.7L109,24.8z M38.7,24.3l-0.5-0.7c0.3-0.2,0.6-0.4,0.9-0.6
			l0.5,0.7C39.3,23.9,39,24.1,38.7,24.3z M107.2,23.5c-0.3-0.2-0.6-0.4-0.9-0.6l0.5-0.7c0.3,0.2,0.6,0.4,1,0.6L107.2,23.5z M40.6,23
			l-0.5-0.7c0.3-0.2,0.6-0.4,1-0.6l0.4,0.7C41.2,22.6,40.9,22.8,40.6,23z M105.3,22.3c-0.3-0.2-0.6-0.4-1-0.6l0.4-0.7
			c0.3,0.2,0.6,0.4,1,0.6L105.3,22.3z M42.5,21.8L42,21.1c0.3-0.2,0.6-0.4,1-0.6l0.4,0.7C43.1,21.5,42.8,21.6,42.5,21.8z
			 M103.4,21.1c-0.3-0.2-0.7-0.4-1-0.5l0.4-0.7c0.3,0.2,0.7,0.4,1,0.6L103.4,21.1z M44.4,20.7L44,20c0.3-0.2,0.7-0.4,1-0.5l0.4,0.7
			C45,20.4,44.7,20.5,44.4,20.7z M101.4,20c-0.3-0.2-0.7-0.3-1-0.5l0.4-0.8c0.3,0.2,0.7,0.3,1,0.5L101.4,20z M46.4,19.7L46,18.9
			c0.3-0.2,0.7-0.3,1-0.5l0.4,0.8C47,19.3,46.7,19.5,46.4,19.7z M99.4,19c-0.3-0.2-0.7-0.3-1-0.5l0.3-0.8c0.3,0.2,0.7,0.3,1,0.5
			L99.4,19z M48.4,18.7L48,17.9c0.3-0.2,0.7-0.3,1-0.5l0.3,0.8C49.1,18.4,48.7,18.5,48.4,18.7z M97.3,18.1c-0.3-0.1-0.7-0.3-1-0.4
			l0.3-0.8c0.4,0.1,0.7,0.3,1.1,0.4L97.3,18.1z M50.4,17.8L50.1,17c0.3-0.1,0.7-0.3,1-0.4l0.3,0.8C51.1,17.5,50.8,17.7,50.4,17.8z
			 M95.3,17.3c-0.3-0.1-0.7-0.3-1.1-0.4l0.3-0.8c0.4,0.1,0.7,0.3,1.1,0.4L95.3,17.3z M93.2,16.5c-0.4-0.1-0.7-0.2-1.1-0.3l0.3-0.8
			c0.4,0.1,0.7,0.2,1.1,0.4L93.2,16.5z M52.5,17l-0.3-0.8c0.4-0.1,0.7-0.3,1.1-0.4l0.3,0.8C53.2,16.7,52.9,16.8,52.5,17z M54.6,16.2
			l-0.3-0.8c0.4-0.1,0.7-0.2,1.1-0.3l0.2,0.8C55.3,16,55,16.1,54.6,16.2z M91,15.8c-0.4-0.1-0.7-0.2-1.1-0.3l0.2-0.8
			c0.4,0.1,0.7,0.2,1.1,0.3L91,15.8z M56.8,15.6l-0.2-0.8c0.4-0.1,0.7-0.2,1.1-0.3l0.2,0.8C57.5,15.4,57.1,15.5,56.8,15.6z
			 M88.9,15.2c-0.4-0.1-0.7-0.2-1.1-0.3l0.2-0.8c0.4,0.1,0.7,0.2,1.1,0.3L88.9,15.2z M58.9,15l-0.2-0.8c0.4-0.1,0.7-0.2,1.1-0.3
			l0.2,0.8C59.7,14.8,59.3,14.9,58.9,15z M86.7,14.7c-0.4-0.1-0.7-0.2-1.1-0.2l0.2-0.8c0.4,0.1,0.7,0.2,1.1,0.2L86.7,14.7z
			 M61.1,14.5l-0.2-0.8c0.4-0.1,0.7-0.2,1.1-0.2l0.2,0.8C61.8,14.3,61.5,14.4,61.1,14.5z M84.5,14.2c-0.4-0.1-0.7-0.1-1.1-0.2
			l0.1-0.8c0.4,0.1,0.7,0.1,1.1,0.2L84.5,14.2z M63.3,14.1l-0.1-0.8c0.4-0.1,0.7-0.1,1.1-0.2l0.1,0.8C64,13.9,63.7,14,63.3,14.1z
			 M82.3,13.8c-0.4-0.1-0.7-0.1-1.1-0.2l0.1-0.8c0.4,0,0.7,0.1,1.1,0.2L82.3,13.8z M65.5,13.7l-0.1-0.8c0.4,0,0.8-0.1,1.1-0.1
			l0.1,0.8C66.3,13.6,65.9,13.7,65.5,13.7z M80.1,13.6c-0.4,0-0.7-0.1-1.1-0.1l0.1-0.8c0.4,0,0.8,0.1,1.1,0.1L80.1,13.6z M67.8,13.5
			l-0.1-0.8c0.4,0,0.8-0.1,1.1-0.1l0.1,0.8C68.5,13.4,68.1,13.4,67.8,13.5z M77.8,13.4c-0.4,0-0.7-0.1-1.1-0.1l0-0.8
			c0.4,0,0.8,0,1.1,0.1L77.8,13.4z M70,13.3l0-0.8c0.4,0,0.8,0,1.1-0.1l0,0.8C70.7,13.3,70.4,13.3,70,13.3z M75.6,13.2
			c-0.4,0-0.7,0-1.1,0l0-0.8c0.4,0,0.8,0,1.1,0L75.6,13.2z M72.2,13.2l0-0.8c0.4,0,0.8,0,1.1,0l0,0.8C73,13.2,72.6,13.2,72.2,13.2z"
			/>
	</g>
	
		<ellipse transform="matrix(1 -1.682323e-03 1.682323e-03 1 -0.1236 0.1238)" class="st2" cx="73.5" cy="73.5" rx="57.2" ry="57.2"/>
	<path class="st1" d="M73.5,128.3c-14.6,0-28.3-5.7-38.7-16C24.5,102,18.8,88.2,18.8,73.6c0-14.6,5.6-28.4,16-38.7
		c10.3-10.4,24.1-16.1,38.7-16.1c0,0,0.1,0,0.1,0c30.2,0,54.7,24.5,54.8,54.7C128.3,103.6,103.8,128.2,73.5,128.3
		C73.6,128.3,73.5,128.3,73.5,128.3z M73.5,19.5C73.5,19.5,73.5,19.5,73.5,19.5c-14.5,0-28.1,5.7-38.3,15.9
		C25.1,45.6,19.5,59.2,19.5,73.6c0,14.4,5.7,28,15.9,38.2c10.2,10.2,23.7,15.8,38.1,15.8c0,0,0.1,0,0.1,0
		c29.8-0.1,54-24.3,53.9-54.1C127.5,43.7,103.3,19.5,73.5,19.5z"/>
	
		<ellipse transform="matrix(1 -1.682750e-03 1.682750e-03 1 -0.1236 0.1238)" class="st3" cx="73.5" cy="73.5" rx="70.9" ry="70.9"/>
	<g>
		<path class="st4" d="M39.6,107.4c-0.4,0.4-0.8,0.6-1.3,0.8c-0.4,0.1-0.9,0.1-1.3,0c-0.4-0.1-0.8-0.4-1.1-0.7
			c-0.3-0.3-0.5-0.7-0.6-1.2c-0.1-0.4,0-0.9,0.1-1.3c0.2-0.4,0.5-0.8,0.9-1.2l0.2-0.2c0.4-0.4,0.8-0.6,1.3-0.8
			c0.5-0.1,0.9-0.1,1.3,0c0.4,0.1,0.8,0.4,1.1,0.7c0.3,0.4,0.5,0.7,0.6,1.2c0.1,0.4,0,0.9-0.2,1.3c-0.2,0.4-0.5,0.8-0.9,1.2
			L39.6,107.4z M39,106.4c0.4-0.4,0.7-0.8,0.8-1.1c0.1-0.4,0-0.7-0.3-1c-0.3-0.3-0.6-0.4-1-0.4c-0.4,0-0.8,0.3-1.2,0.7l-0.2,0.2
			c-0.4,0.4-0.7,0.8-0.8,1.1c-0.1,0.4,0,0.7,0.3,1c0.3,0.3,0.6,0.4,1,0.4c0.4-0.1,0.8-0.3,1.2-0.7L39,106.4z"/>
		<path class="st4" d="M44.4,115l-0.9-0.7l0.5-4.4l-2.3,3l-0.9-0.7l3.5-4.5l0.9,0.7l-0.5,4.4l2.3-3l0.9,0.7L44.4,115z"/>
		<path class="st4" d="M52.3,116.8l-2-1.1l-0.7,1.3l2.3,1.2l-0.4,0.8l-3.4-1.8l2.7-5l3.4,1.8l-0.4,0.8l-2.3-1.2l-0.6,1.2l2,1.1
			L52.3,116.8z"/>
		<path class="st4" d="M60.2,122.4l1.3-5.5l1.7,0.4c0.5,0.1,0.9,0.3,1.2,0.6c0.3,0.3,0.6,0.7,0.7,1.1c0.1,0.5,0.1,0.9,0,1.5
			l-0.1,0.3c-0.1,0.5-0.3,0.9-0.6,1.3c-0.3,0.4-0.7,0.6-1.1,0.7c-0.4,0.1-0.9,0.1-1.4,0L60.2,122.4z M62.4,118l-0.8,3.7l0.6,0.1
			c0.4,0.1,0.8,0,1.1-0.2c0.3-0.2,0.5-0.6,0.6-1.2l0.1-0.3c0.1-0.6,0.1-1-0.1-1.4c-0.2-0.3-0.5-0.6-0.9-0.7L62.4,118z"/>
		<path class="st4" d="M72.2,121.7l-2.2-0.1l-0.1,1.5l2.6,0.2l-0.1,0.9l-3.8-0.2l0.4-5.7l3.8,0.2l-0.1,0.9l-2.6-0.2l-0.1,1.4
			l2.2,0.1L72.2,121.7z"/>
		<path class="st4" d="M80.7,121.8c0,0.6-0.2,1.1-0.5,1.5c-0.4,0.4-0.9,0.6-1.6,0.7c-0.7,0.1-1.3-0.1-1.8-0.6
			c-0.5-0.4-0.7-1.1-0.8-2l0-0.3c-0.1-0.5,0-1,0.1-1.5c0.2-0.4,0.4-0.8,0.7-1c0.3-0.3,0.7-0.4,1.2-0.5c0.7-0.1,1.2,0.1,1.6,0.4
			c0.4,0.3,0.7,0.8,0.8,1.4l-1.2,0.1c-0.1-0.4-0.2-0.6-0.4-0.8c-0.2-0.1-0.5-0.2-0.8-0.2c-0.4,0-0.7,0.2-0.8,0.5
			c-0.2,0.3-0.2,0.7-0.2,1.3l0,0.4c0.1,0.6,0.2,1,0.4,1.3c0.2,0.3,0.5,0.4,0.9,0.3c0.4,0,0.6-0.1,0.8-0.3c0.2-0.2,0.2-0.4,0.2-0.8
			L80.7,121.8z"/>
		<path class="st4" d="M93.4,118.1c0.2,0.6,0.1,1.1-0.1,1.6c-0.3,0.5-0.7,0.8-1.3,1.1c-0.7,0.3-1.3,0.2-1.9-0.1
			c-0.6-0.3-1-0.9-1.3-1.7l-0.1-0.3c-0.2-0.5-0.3-1-0.3-1.5c0-0.5,0.2-0.9,0.4-1.2c0.3-0.3,0.6-0.6,1-0.8c0.6-0.2,1.2-0.3,1.7-0.1
			c0.5,0.2,0.9,0.6,1.2,1.1l-1.1,0.4c-0.2-0.3-0.4-0.5-0.6-0.6c-0.2-0.1-0.5-0.1-0.8,0.1c-0.4,0.1-0.6,0.4-0.7,0.7
			c-0.1,0.3,0,0.8,0.2,1.3l0.2,0.4c0.2,0.6,0.5,1,0.8,1.2c0.3,0.2,0.6,0.2,1,0.1c0.3-0.1,0.6-0.3,0.7-0.5c0.1-0.2,0.1-0.5,0-0.8
			L93.4,118.1z"/>
		<path class="st4" d="M100.5,113.2c0.3,0.5,0.5,0.9,0.5,1.4c0.1,0.5,0,0.9-0.2,1.3c-0.2,0.4-0.5,0.7-0.9,1
			c-0.4,0.2-0.8,0.4-1.3,0.4c-0.4,0-0.8-0.1-1.2-0.4c-0.4-0.3-0.7-0.6-1-1.1l-0.1-0.2c-0.3-0.5-0.5-1-0.5-1.4c0-0.5,0-0.9,0.2-1.3
			c0.2-0.4,0.5-0.7,0.9-0.9c0.4-0.2,0.8-0.4,1.3-0.4c0.4,0,0.8,0.1,1.2,0.4c0.4,0.3,0.7,0.6,1,1.1L100.5,113.2z M99.3,113.6
			c-0.3-0.5-0.6-0.8-1-1c-0.3-0.2-0.7-0.1-1,0.1c-0.3,0.2-0.5,0.5-0.5,0.9c0,0.4,0.1,0.8,0.4,1.3l0.1,0.2c0.3,0.5,0.6,0.8,1,1
			c0.3,0.2,0.7,0.1,1-0.1c0.3-0.2,0.5-0.5,0.5-0.9c0-0.4-0.1-0.8-0.4-1.3L99.3,113.6z"/>
		<path class="st4" d="M106.1,112.2l-0.9,0.7l-3.6-4.4l0.9-0.7L106.1,112.2z"/>
		<path class="st4" d="M112.5,105.8l-0.8,0.9l-4.3-0.8l2.8,2.5l-0.8,0.9l-4.2-3.8l0.8-0.9l4.3,0.8l-2.8-2.5l0.8-0.9L112.5,105.8z"/>
	</g>
	<g>
		<g>
			<path class="st4" d="M63.4,29l2.4-0.5l0.2,0.9l-3.6,0.8l-1.2-5.6l1.1-0.2L63.4,29z"/>
			<path class="st4" d="M73.5,26.1c0,0.6,0,1.1-0.2,1.5c-0.2,0.4-0.4,0.8-0.8,1c-0.4,0.3-0.8,0.4-1.2,0.4c-0.5,0-0.9-0.1-1.3-0.3
				c-0.4-0.2-0.7-0.5-0.9-0.9c-0.2-0.4-0.4-0.9-0.4-1.4l0-0.3c0-0.6,0-1.1,0.2-1.5c0.2-0.4,0.4-0.8,0.8-1c0.4-0.2,0.8-0.4,1.2-0.4
				c0.5,0,0.9,0.1,1.3,0.3c0.4,0.2,0.7,0.5,0.9,0.9c0.2,0.4,0.4,0.9,0.4,1.5L73.5,26.1z M72.3,25.9c0-0.6-0.2-1-0.4-1.3
				c-0.2-0.3-0.5-0.4-0.9-0.4c-0.4,0-0.7,0.2-0.9,0.5c-0.2,0.3-0.3,0.8-0.2,1.4l0,0.3c0,0.6,0.2,1,0.4,1.3c0.2,0.3,0.5,0.4,0.9,0.4
				c0.4,0,0.7-0.2,0.9-0.5c0.2-0.3,0.3-0.8,0.2-1.4L72.3,25.9z"/>
			<path class="st4" d="M79.3,27.8l1.8-4.1l1.3,0.2l-2.7,5.4l-1.2-0.2l-1.2-5.9l1.3,0.2L79.3,27.8z"/>
			<path class="st4" d="M88.7,28.9l-2.2-0.6l-0.4,1.5l2.5,0.8l-0.3,0.9l-3.6-1.1l1.6-5.4l3.6,1.1l-0.3,0.9L87.2,26l-0.4,1.3L89,28
				L88.7,28.9z"/>
		</g>
	</g>
	<g>
		<path class="st5" d="M87.3,38.5c0.9-0.2,1.8-0.1,2.7,0.2c4.8,1.7,4.4,9.2-0.9,9.8c-3.2,0.4-5.8-2.6-5.9-5.2
			C83.3,41,85,39,87.3,38.5z"/>
		<path class="st5" d="M63.1,37.6c-0.9-0.2-1.8-0.1-2.7,0.2c-4.8,1.7-4.4,9.2,0.9,9.8c3.2,0.4,5.8-2.6,5.9-5.2
			C67.2,40.1,65.4,38.1,63.1,37.6z"/>
		<path class="st4" d="M74.4,65.8c-13.5,1.4-13.9,25.6-15.1,32.9l-0.1,2.1c0,0,22.5,0.9,31.5-0.8C90.6,99.9,87.9,64.4,74.4,65.8z"/>
		<path class="st1" d="M84.6,66.9l-3.5,0.5c0.1,0.5,5.3,20.2,7.4,33.5l5.5-0.1C94.1,100.9,89.5,74.2,84.6,66.9z"/>
		<path class="st1" d="M60.3,101.1c0,0,3-24.6,8.9-34.4l-1.8-1.6c0,0-9.1,11.9-13.7,34.6L60.3,101.1z"/>
		<g>
			<g>
				<polygon class="st6" points="68.1,87.8 66.5,102.8 70.3,102.8 73.2,88 				"/>
				<polygon class="st7" points="70.3,102.8 66.5,102.8 65.7,104.8 62.9,108 70.3,107.8 				"/>
				<polygon class="st1" points="72.7,90.4 73.2,88 68.1,87.8 67.9,90.4 				"/>
				<polygon class="st1" points="72,94 72.4,92 67.7,92 67.5,94 				"/>
				<polygon class="st1" points="71.4,97 71.7,95.6 67.3,95.6 67.2,97 				"/>
				<polygon class="st1" points="66.7,101.4 66.5,102.8 70.3,102.8 70.6,101.4 				"/>
				<polygon class="st1" points="70.9,99.8 71.1,98.5 67,98.5 66.8,99.8 				"/>
			</g>
		</g>
		<g>
			<g>
				<polygon class="st6" points="82.3,87.8 83.9,102.8 80.1,102.8 77.3,88 				"/>
				<polygon class="st7" points="80.1,102.8 83.9,102.8 84.7,104.8 87.6,108 80.1,107.8 				"/>
				<polygon class="st1" points="77.7,90.4 77.3,88 82.3,87.8 82.6,90.4 				"/>
				<polygon class="st1" points="78.4,94 78,92 82.7,92 83,94 				"/>
				<polygon class="st1" points="79,97 78.7,95.6 83.1,95.6 83.3,97 				"/>
				<polygon class="st1" points="83.7,101.4 83.9,102.8 80.1,102.8 79.8,101.4 				"/>
				<polygon class="st1" points="79.5,99.8 79.3,98.5 83.4,98.5 83.6,99.8 				"/>
			</g>
		</g>
		<path class="st0" d="M67.9,67.9c0,0,0,5,1.8,7.3l11.1,0.2c0,0,1.6-5.3,1.4-7.6c0,0,5,3.9-0.8,7.4l-0.1,2l1.3,1.8
			c0,0,4.9-2.9,5.9-6.2c0.9-3.2-1.3-8.4-7.7-10.1h-12c0,0-5.3,2.5-6.4,7.8c-1.8,9.5,8.3,3.1,9.7,2.8l-0.8-2.9c0,0-5.1,2.4-5.4,1.6
			C65.2,70.7,66.7,69.3,67.9,67.9z"/>
		<path class="st1" d="M67.7,61.1c0,0-1.1,4.2,6.6,4.5c8.2,0.3,6.5-4.7,6.5-4.7L67.7,61.1z"/>
		<path class="st8" d="M65.2,58.2c0,0-5.2-0.9-5.5-3.3c-0.3-2.4,2.1-2.6,3.9-1.4L65.2,58.2z"/>
		<path class="st8" d="M82.4,57.8c0,0,5.2-0.9,5.5-3.3c0.3-2.4-2.1-2.6-3.9-1.4L82.4,57.8z"/>
		<path class="st9" d="M64.6,55.7c-0.6-1.4-2.7-2.5-3.8-1c-0.2,0.2,0.2,0.5,0.3,0.3c0.9-1.2,2.6-0.3,3.1,0.9
			C64.3,56.1,64.7,55.9,64.6,55.7z"/>
		<path class="st9" d="M87.3,54.6c-0.7-1.8-2.4-0.4-3.5,0.3c-0.2,0.1,0,0.5,0.2,0.3c0.8-0.5,2.3-1.9,2.8-0.5
			C87,55,87.4,54.8,87.3,54.6z"/>
		<path class="st10" d="M63.4,50.9c0,0-1.7,12.1,11.6,11.6c0,0,9.7,1.3,9.9-11.3l-11-7.4L63.4,50.9z"/>
		<path class="st11" d="M73.9,56.4c0.9,0.9,2.8,0.4,2.3-1.7c-0.4-1.7-2.5-1.2-2.7,0.4C73.4,55.7,73.6,56.1,73.9,56.4z"/>
		<path class="st12" d="M87.5,47.9c-0.3-3.6-1.8-9.4-13.2-10.1C63,37,59.1,46.9,61.4,52.6l2.2,0.8l-0.2-2.5c0,0,6.3-1.6,10.4-6.5
			c0,0,4,3.4,11.1,6.8l-0.2,1.6C84.7,52.8,87.8,51.4,87.5,47.9z"/>
		<path class="st1" d="M63.4,51.5v1.9c0,0,2.4,2.9,5.5,2.8c3-0.1,4.5-2.1,6.3-1.8c1.8,0.3,2.1,1.6,4.8,1.8c2.6,0.2,4.9-2.9,4.9-2.9
			l0.1-2.1c0,0-2.8-1.3-4.8-1.3c-1.9,0-3.7,1.1-5.2,1.4c-1.5,0.3-2.7-1.6-5.9-1.3C65.9,50.3,63.4,51.5,63.4,51.5"/>
		<g>
			<path class="st2" d="M68.8,54.9c-1.1-0.2-2.2-1-2.2-2c0-1.7,3-1.9,4.1-1.2C73,52.9,71.5,55.4,68.8,54.9z"/>
			<path class="st7" d="M69.4,52.1c0.9,0,1.9,0.8,1.2,2c-0.7,1.1-2.4,0.6-2.5-0.6C68,52.4,68.7,52.1,69.4,52.1z"/>
		</g>
		<g>
			<path class="st2" d="M79.9,54.9c1.1-0.2,2.2-1,2.2-2c0-1.7-3-1.9-4.1-1.2C75.7,52.9,77.3,55.4,79.9,54.9z"/>
			<path class="st7" d="M79.4,52c-0.9,0-1.8,1-1.2,2c0.7,1.1,2.6,0.6,2.4-0.8C80.5,52.3,80,52,79.4,52z"/>
		</g>
		<path class="st5" d="M67.6,49.3C67.6,49.3,67.6,49.2,67.6,49.3c-0.6-1.1,1.8-1.2,2.3-0.8C70.4,48.7,68.1,49.8,67.6,49.3z"/>
		<path class="st5" d="M81.6,49.1C81.7,49.1,81.7,49,81.6,49.1c0.4-1.2-2-0.9-2.4-0.4C78.9,49,81.3,49.7,81.6,49.1z"/>
		<path class="st13" d="M78,58c0,0-0.1-0.1-0.1-0.1c0-0.1,0-0.2-0.1-0.2c0-0.2-0.3-0.3-0.4-0.1c0,0.1,0,0.2,0,0.3
			c-1.5,1-3.6,1.1-5-0.1c0,0,0,0-0.1,0c0,0,0.1-0.1,0.1-0.1c0.1-0.1,0.1-0.2,0-0.3c-0.1-0.1-0.2,0-0.3,0c0,0,0,0,0,0c0,0,0,0,0,0
			c0,0,0,0,0,0c0,0,0,0-0.1,0c0,0-0.1,0.1-0.1,0.1c0,0-0.1,0.1-0.1,0.1c0,0,0,0,0,0c-0.1,0-0.2,0.1-0.2,0.2c0,0.1,0.1,0.2,0.2,0.2
			c0.1,0,0.2-0.1,0.2-0.1c0,0,0,0,0,0c0,0.1,0,0.1,0.1,0.2c1.6,1.3,3.9,1.2,5.5,0.1c0.1,0.1,0.1,0.1,0.2,0.2c0.1,0.1,0.2,0.1,0.3,0
			C78.1,58.2,78.1,58.1,78,58z"/>
		<path class="st14" d="M67.2,57.2c0.2-0.1,0.4-0.1,0.6-0.2c1.5-0.4,2.3,1.4,1.2,2.5C67.6,60.8,64.8,58.3,67.2,57.2z"/>
		<g>
			<defs>
				<path id="SVGID_1_" d="M81.4,77.8l-12.1,0.1c0,0-4.4,1.9-6.6,11.7h24.6C87.4,89.6,86.6,80.9,81.4,77.8z"/>
			</defs>
			<clipPath id="SVGID_2_">
				<use xlink:href="#SVGID_1_"  style="overflow:visible;"/>
			</clipPath>
			<path class="st15" d="M81.4,77.8l-12.1,0.1c0,0-4.4,1.9-6.6,11.7h24.6C87.4,89.6,86.6,80.9,81.4,77.8z"/>
			<path class="st16" d="M69.1,79.9c-2.1,3.6-2.6,7.8-3,11.9c0,0.3,0.4,0.3,0.4,0.1c0.3-4.1,0.8-8.2,2.9-11.8
				C69.6,79.9,69.2,79.7,69.1,79.9z"/>
			<path class="st16" d="M70.5,84.2c-0.2,2.2-0.3,4.5-0.4,6.7c0,0.3,0.4,0.3,0.4,0.1c0.1-2.2,0.2-4.5,0.4-6.7
				C70.9,84,70.5,84,70.5,84.2z"/>
			<path class="st16" d="M75.4,87.8c-0.1-2.5-0.5-5-0.6-7.6c0-0.3-0.4-0.2-0.4,0c0,2.3,0.4,4.5,0.5,6.8c0.1,2.6,0.2,5.2-0.1,7.8
				c0,0.3,0.4,0.3,0.4,0.1C75.5,92.5,75.5,90.1,75.4,87.8z"/>
			<path class="st16" d="M78,81.3c-0.1-0.3-0.5-0.1-0.4,0.1c1.3,4.2,1.9,8.6,2,13c0,0.3,0.4,0.2,0.4,0C79.9,89.9,79.3,85.5,78,81.3z
				"/>
			<path class="st16" d="M83.9,85.9c-0.8-2.8-2.4-5.5-4-7.9c-0.1-0.2-0.5,0-0.3,0.2c1.6,2.3,3,4.8,3.9,7.5c0.9,2.8,1,5.8,1.1,8.8
				c0,0.3,0.4,0.2,0.4,0C84.9,91.5,84.7,88.6,83.9,85.9z"/>
			<path class="st16" d="M86.3,89.5c-0.3-1.1-0.5-2.2-0.8-3.3c-0.1-0.3-0.4-0.1-0.4,0.1c0.3,1.1,0.5,2.2,0.8,3.3
				C86,89.9,86.4,89.7,86.3,89.5z"/>
		</g>
		<path class="st14" d="M80.7,56.8c0.8-0.2,1.6,0.1,1.7,1c0.3,1.6-1.9,2.5-2.9,1.3C78.7,58,79.7,57.1,80.7,56.8z"/>
		<g>
			<path class="st7" d="M69,74.9v3.2L81.7,78l-0.4-3.3C70.6,74.4,72.5,74.5,69,74.9z"/>
			<polygon class="st17" points="73.3,74.1 73.5,78.5 78.2,78.5 78.2,74 			"/>
			<polygon class="st7" points="74.6,75.4 74.7,77.6 77.1,77.6 76.9,75.4 			"/>
		</g>
		<path class="st5" d="M71.7,42.7c-1,1.5-2.4,2.7-3.9,3.8c-1.6,1.1-3.5,2.3-5.4,3c-0.2,0.1-0.1,0.5,0.1,0.4c1.9-0.6,3.6-1.8,5.2-2.8
			c1.6-1.1,3.1-2.4,4.2-4C72.2,42.7,71.9,42.4,71.7,42.7z"/>
		<path class="st5" d="M66.3,45.7c-1.4,1-2.9,1.8-4.5,2.6c-0.2,0.1,0,0.5,0.2,0.3c1.5-0.8,3-1.6,4.5-2.6
			C66.8,45.8,66.5,45.5,66.3,45.7z"/>
		<path class="st5" d="M84.9,48c-3.2-1-6.2-2.6-9-4.5c-0.2-0.1-0.5,0.2-0.3,0.3c2.8,2,5.8,3.6,9.1,4.6C84.9,48.4,85.1,48.1,84.9,48z
			"/>
		<path class="st9" d="M69.8,56.4c-0.4,0-0.3,0.6,0.1,0.6C70.3,57,70.2,56.4,69.8,56.4z"/>
		<path class="st9" d="M72.8,55.5c-0.1-0.1-0.3-0.1-0.4,0c0,0-0.1,0.1-0.1,0.1c-0.1,0.1-0.1,0.3,0,0.4c0.1,0.1,0.3,0.1,0.4,0
			c0,0,0.1-0.1,0.1-0.1C73,55.8,72.9,55.6,72.8,55.5z"/>
		<path class="st9" d="M77,55.3h-0.1c-0.2,0-0.3,0.2-0.3,0.3c0,0.2,0.2,0.3,0.3,0.3h0.1c0.2,0,0.3-0.2,0.3-0.3
			C77.4,55.4,77.2,55.3,77,55.3z"/>
		<path class="st9" d="M71.6,56.5c-0.3,0-0.2,0.4,0,0.4C71.9,56.9,71.8,56.5,71.6,56.5z"/>
		<path class="st9" d="M78.2,56.1c-0.1-0.1-0.2-0.1-0.3,0c0,0-0.1,0.1-0.1,0.1c-0.1,0.1-0.1,0.2,0,0.3c0.1,0.1,0.2,0.1,0.3,0
			c0,0,0.1-0.1,0.1-0.1C78.3,56.3,78.3,56.2,78.2,56.1z"/>
		<path class="st9" d="M79.4,56.4c-0.3,0-0.2,0.4,0,0.4C79.7,56.8,79.6,56.4,79.4,56.4z"/>
		<path class="st9" d="M75.5,60.1c-0.5,0.1-0.9,0.1-1.4,0c-0.3,0-0.3,0.4-0.1,0.4c0.5,0.1,1,0.1,1.5,0
			C75.8,60.5,75.8,60.1,75.5,60.1z"/>
		<path class="st2" d="M70.9,52.3c0,0-0.1-0.1-0.1-0.1c-0.2-0.2-0.5-0.1-0.7,0.1c-0.2,0.2-0.1,0.5,0.1,0.7c0,0,0.1,0.1,0.1,0.1
			c0.2,0.2,0.5,0.1,0.7-0.1C71.2,52.8,71.1,52.5,70.9,52.3z"/>
		<path class="st2" d="M80.6,52.3l-0.1-0.1c-0.2-0.2-0.5-0.1-0.7,0.1c-0.2,0.2-0.1,0.5,0.1,0.7l0.1,0.1c0.2,0.2,0.5,0.1,0.7-0.1
			C80.9,52.8,80.8,52.5,80.6,52.3z"/>
		<path class="st4" d="M75.2,68.2c0,0,1.6-1.9,2.8-1.2c1.3,0.9,0.9,2.2,0.5,3c-0.4,0.8-3.5,3.5-3.5,3.5s-2.4-2.1-3-3.3
			c-0.5-1.1-0.9-2.2-0.2-2.9C73.4,65.7,75.2,68.2,75.2,68.2z"/>
		<g>
			<defs>
				<path id="SVGID_3_" d="M70.1,71.4l0.7,1.5c0-0.1,0.3-0.2,0.4-0.2c0.2,0,0.3,0,0.5,0.1c0.3,0.1,1.8-0.4,2.3-0.6
					c0.5-0.2,1-0.4,1.4-0.8c0.8-0.7,0.2-0.8,0.1-0.8c0.5-0.4,0.3-0.7-0.1-0.6c0.6-0.4,0.4-0.9-0.4-0.5c0.4-0.2,0.2-0.7-0.2-0.5
					c-0.9,0.4-1.4,0.7-2,1c-0.6-0.1,0.4-1.3-0.1-1.5c-0.4-0.1-0.9,1.1-1.7,2.4C70.7,71.2,70.5,71.3,70.1,71.4z"/>
			</defs>
			<clipPath id="SVGID_4_">
				<use xlink:href="#SVGID_3_"  style="overflow:visible;"/>
			</clipPath>
			<path class="st18" d="M70.1,71.4l0.7,1.5c0-0.1,0.3-0.2,0.4-0.2c0.2,0,0.3,0,0.5,0.1c0.3,0.1,0.6,0.1,0.9,0.1
				c0.5-0.1,0.9-0.5,1.3-0.7c0.5-0.2,1.1-0.5,1.5-0.9c0.6-0.6,0-0.6-0.1-0.6c0.6-0.2,0.7-0.6,0.2-0.7c0.6-0.4,0.4-0.9-0.5-0.5
				c0.4-0.2,0.2-0.7-0.2-0.5c-0.9,0.4-1.4,0.7-2,1c0.1-0.5,0.5-1.6,0-1.6c-0.5-0.1-1.6,2.2-1.8,2.5C70.8,71.2,70.5,71.3,70.1,71.4z"
				/>
		</g>
		<polygon class="st1" points="69.3,71 71,70.3 72.2,73.2 70.4,74 		"/>
	</g>
</g>
</svg>
