<?xml version="1.0" encoding="utf-8"?>
<!-- Generator: Adobe Illustrator 21.1.0, SVG Export Plug-In . SVG Version: 6.00 Build 0)  -->
<svg version="1.1" id="Layer_1" xmlns="http://www.w3.org/2000/svg" xmlns:xlink="http://www.w3.org/1999/xlink" x="0px" y="0px"
	 viewBox="0 0 147 147" style="enable-background:new 0 0 147 147;" xml:space="preserve">
<style type="text/css">
	.st0{fill:#AA7CB6;}
	.st1{fill:#7D50A0;}
	.st2{fill:#FFFFFF;}
	.st3{fill:none;stroke:#000000;stroke-width:0.2505;stroke-miterlimit:10;}
	.st4{fill:#512A7C;}
	.st5{fill:#D4722B;}
	.st6{fill:#1F110E;}
	.st7{clip-path:url(#SVGID_2_);fill:#7D50A0;}
	.st8{clip-path:url(#SVGID_2_);fill:#70479C;}
	.st9{clip-path:url(#SVGID_4_);fill:#EEBE9A;}
	.st10{clip-path:url(#SVGID_4_);}
	.st11{fill:#AE622D;}
	.st12{clip-path:url(#SVGID_6_);fill:#EEBE9A;}
	.st13{clip-path:url(#SVGID_6_);}
	.st14{fill:#CBABD1;}
	.st15{fill:#F2A182;}
	.st16{fill:#8F4C21;}
	.st17{fill:#EEBE9A;}
	.st18{fill:#F9F9FA;}
	.st19{fill:#EC817B;}
	.st20{fill:#C45F28;}
	.st21{fill:#F9BB1B;}
</style>
<g>
	
		<ellipse transform="matrix(1 -1.682313e-03 1.682313e-03 1 -0.1235 0.1238)" class="st0" cx="73.5" cy="73.5" rx="73.5" ry="73.5"/>
	<path class="st1" d="M73.4,7.2c3,0,6.7,3.9,9.8,4.4c3.1,0.5,7.9-2.1,10.7-1.2c2.8,0.9,5.2,5.8,8,7.2c2.8,1.4,8.1,0.4,10.6,2.2
		c2.4,1.7,3.1,7.1,5.4,9.4c2.2,2.2,7.6,2.9,9.4,5.3c1.8,2.4,0.8,7.8,2.2,10.6c1.4,2.8,6.3,5.1,7.3,8c0.9,2.8-1.7,7.6-1.2,10.7
		c0.5,3.1,4.4,6.8,4.4,9.8c0,3-3.9,6.7-4.4,9.8c-0.5,3.1,2.1,7.9,1.2,10.7c-0.9,2.8-5.8,5.2-7.2,8c-1.4,2.8-0.4,8.1-2.2,10.6
		c-1.7,2.4-7.1,3.1-9.4,5.4c-2.2,2.2-2.9,7.6-5.3,9.4c-2.4,1.8-7.8,0.8-10.6,2.2c-2.8,1.4-5.1,6.3-8,7.3c-2.8,0.9-7.6-1.7-10.7-1.2
		c-3.1,0.5-6.8,4.4-9.8,4.4c-3,0-6.7-3.9-9.8-4.4c-3.1-0.5-7.9,2.1-10.7,1.2c-2.8-0.9-5.2-5.8-8-7.2c-2.8-1.4-8.1-0.4-10.6-2.2
		c-2.4-1.7-3.1-7.1-5.4-9.4c-2.2-2.2-7.6-2.9-9.4-5.3c-1.8-2.4-0.8-7.8-2.2-10.6c-1.4-2.8-6.3-5.1-7.3-8c-0.9-2.8,1.7-7.6,1.2-10.7
		C11,80.5,7,76.7,7,73.7c0-3,3.9-6.7,4.4-9.8c0.5-3.1-2.1-7.9-1.2-10.7c0.9-2.8,5.8-5.2,7.2-8c1.4-2.8,0.4-8.1,2.2-10.6
		c1.7-2.4,7.1-3.1,9.4-5.4c2.2-2.2,2.9-7.6,5.3-9.4c2.4-1.8,7.8-0.8,10.6-2.2c2.8-1.4,5.1-6.3,8-7.3c2.8-0.9,7.6,1.7,10.7,1.2
		C66.7,11.1,70.4,7.2,73.4,7.2z"/>
	<g>
		<path class="st2" d="M74,135h-0.4c-0.4-0.2-0.8-0.2-0.6-0.2v-0.8c-0.1,0,0.3,0,0.6,0.1H74V135z M74.9,134.8l0-0.8
			c0.4,0,0.7,0,1.1,0l0,0.8C75.7,134.7,75.3,134.8,74.9,134.8z M71.4,134.7c-0.4,0-0.8,0-1.1-0.1l0-0.8c0.4,0,0.7,0,1.1,0
			L71.4,134.7z M77.2,134.7l0-0.8c0.4,0,0.7,0,1.1-0.1l0.1,0.8C77.9,134.6,77.6,134.7,77.2,134.7z M69.1,134.6
			c-0.4,0-0.8-0.1-1.1-0.1l0.1-0.8c0.4,0,0.7,0.1,1.1,0.1L69.1,134.6z M79.4,134.5l-0.1-0.8c0.4,0,0.7-0.1,1.1-0.1l0.1,0.8
			C80.2,134.4,79.8,134.5,79.4,134.5z M66.8,134.4c-0.4,0-0.8-0.1-1.1-0.1l0.1-0.8c0.4,0,0.7,0.1,1.1,0.1L66.8,134.4z M81.7,134.2
			l-0.1-0.8c0.4,0,0.7-0.1,1.1-0.2l0.1,0.8C82.4,134.1,82.1,134.2,81.7,134.2z M64.6,134.1c-0.4-0.1-0.8-0.1-1.1-0.2l0.1-0.8
			c0.4,0.1,0.7,0.1,1.1,0.2L64.6,134.1z M83.9,133.9l-0.1-0.8c0.4-0.1,0.7-0.1,1.1-0.2l0.2,0.8C84.7,133.8,84.3,133.8,83.9,133.9z
			 M62.3,133.8c-0.4-0.1-0.7-0.1-1.1-0.2l0.2-0.8c0.4,0.1,0.7,0.1,1.1,0.2L62.3,133.8z M86.2,133.5l-0.2-0.8
			c0.4-0.1,0.7-0.2,1.1-0.2l0.2,0.8C86.9,133.3,86.5,133.4,86.2,133.5z M60.1,133.3c-0.4-0.1-0.7-0.2-1.1-0.3l0.2-0.8
			c0.4,0.1,0.7,0.2,1.1,0.3L60.1,133.3z M88.4,133l-0.2-0.8c0.4-0.1,0.7-0.2,1.1-0.3l0.2,0.8C89.1,132.8,88.8,132.9,88.4,133z
			 M57.9,132.8c-0.4-0.1-0.7-0.2-1.1-0.3l0.2-0.8c0.4,0.1,0.7,0.2,1.1,0.3L57.9,132.8z M90.6,132.4l-0.2-0.8
			c0.4-0.1,0.7-0.2,1.1-0.3l0.3,0.8C91.3,132.2,90.9,132.3,90.6,132.4z M55.7,132.1c-0.4-0.1-0.7-0.2-1.1-0.3l0.3-0.8
			c0.4,0.1,0.7,0.2,1.1,0.3L55.7,132.1z M92.8,131.7l-0.3-0.8c0.4-0.1,0.7-0.2,1.1-0.4l0.3,0.8C93.5,131.4,93.1,131.6,92.8,131.7z
			 M53.5,131.4c-0.4-0.1-0.7-0.3-1.1-0.4l0.3-0.8c0.4,0.1,0.7,0.3,1.1,0.4L53.5,131.4z M94.9,130.9l-0.3-0.8c0.4-0.1,0.7-0.3,1-0.4
			l0.3,0.8C95.6,130.7,95.2,130.8,94.9,130.9z M51.4,130.6c-0.4-0.1-0.7-0.3-1.1-0.4l0.3-0.8c0.3,0.1,0.7,0.3,1,0.4L51.4,130.6z
			 M97,130.1l-0.3-0.8c0.3-0.1,0.7-0.3,1-0.4l0.3,0.8C97.7,129.8,97.4,130,97,130.1z M49.3,129.8c-0.3-0.2-0.7-0.3-1-0.5l0.3-0.8
			c0.3,0.2,0.7,0.3,1,0.5L49.3,129.8z M99.1,129.2l-0.4-0.8c0.3-0.2,0.7-0.3,1-0.5l0.4,0.8C99.8,128.9,99.4,129,99.1,129.2z
			 M47.2,128.8c-0.3-0.2-0.7-0.3-1-0.5l0.4-0.8c0.3,0.2,0.7,0.3,1,0.5L47.2,128.8z M101.1,128.2l-0.4-0.8c0.3-0.2,0.7-0.3,1-0.5
			l0.4,0.7C101.8,127.9,101.5,128,101.1,128.2z M45.2,127.8c-0.3-0.2-0.7-0.4-1-0.5l0.4-0.7c0.3,0.2,0.7,0.4,1,0.5L45.2,127.8z
			 M103.1,127.1l-0.4-0.7c0.3-0.2,0.6-0.4,1-0.6l0.4,0.7C103.8,126.8,103.5,127,103.1,127.1z M43.2,126.7c-0.3-0.2-0.7-0.4-1-0.6
			l0.4-0.7c0.3,0.2,0.6,0.4,1,0.6L43.2,126.7z M105.1,126l-0.4-0.7c0.3-0.2,0.6-0.4,1-0.6l0.5,0.7
			C105.7,125.6,105.4,125.8,105.1,126z M41.2,125.5c-0.3-0.2-0.6-0.4-1-0.6l0.5-0.7c0.3,0.2,0.6,0.4,0.9,0.6L41.2,125.5z M107,124.8
			l-0.5-0.7c0.3-0.2,0.6-0.4,0.9-0.6l0.5,0.7C107.6,124.4,107.3,124.6,107,124.8z M39.3,124.3c-0.3-0.2-0.6-0.4-0.9-0.6l0.5-0.7
			c0.3,0.2,0.6,0.4,0.9,0.6L39.3,124.3z M108.9,123.5l-0.5-0.7c0.3-0.2,0.6-0.4,0.9-0.7l0.5,0.7
			C109.5,123.1,109.2,123.3,108.9,123.5z M37.5,123c-0.3-0.2-0.6-0.4-0.9-0.7l0.5-0.7c0.3,0.2,0.6,0.5,0.9,0.7L37.5,123z
			 M110.7,122.2l-0.5-0.7c0.3-0.2,0.6-0.5,0.9-0.7l0.5,0.7C111.3,121.7,111,121.9,110.7,122.2z M35.7,121.6
			c-0.3-0.2-0.6-0.5-0.9-0.7l0.5-0.7c0.3,0.2,0.6,0.5,0.9,0.7L35.7,121.6z M112.5,120.7l-0.5-0.7c0.3-0.2,0.6-0.5,0.9-0.7l0.6,0.6
			C113.1,120.3,112.8,120.5,112.5,120.7z M33.9,120.2c-0.3-0.2-0.6-0.5-0.9-0.7l0.6-0.6c0.3,0.2,0.6,0.5,0.8,0.7L33.9,120.2z
			 M114.2,119.3l-0.6-0.6c0.3-0.2,0.6-0.5,0.8-0.8l0.6,0.6C114.8,118.8,114.5,119,114.2,119.3z M32.2,118.7
			c-0.3-0.3-0.6-0.5-0.8-0.8l0.6-0.6c0.3,0.3,0.5,0.5,0.8,0.8L32.2,118.7z M115.9,117.7l-0.6-0.6c0.3-0.3,0.5-0.5,0.8-0.8l0.6,0.6
			C116.4,117.2,116.1,117.5,115.9,117.7z M30.6,117.1c-0.3-0.3-0.5-0.5-0.8-0.8l0.6-0.6c0.3,0.3,0.5,0.5,0.8,0.8L30.6,117.1z
			 M117.5,116.1l-0.6-0.6c0.3-0.3,0.5-0.5,0.8-0.8l0.6,0.6C118,115.6,117.7,115.8,117.5,116.1z M29,115.5c-0.3-0.3-0.5-0.6-0.8-0.8
			l0.6-0.6c0.2,0.3,0.5,0.6,0.8,0.8L29,115.5z M119,114.5l-0.6-0.6c0.2-0.3,0.5-0.6,0.7-0.8l0.6,0.6
			C119.5,113.9,119.3,114.2,119,114.5z M27.4,113.8c-0.2-0.3-0.5-0.6-0.7-0.9l0.6-0.5c0.2,0.3,0.5,0.6,0.7,0.8L27.4,113.8z
			 M120.5,112.7l-0.7-0.5c0.2-0.3,0.5-0.6,0.7-0.9l0.7,0.5C121,112.2,120.8,112.4,120.5,112.7z M26,112.1c-0.2-0.3-0.5-0.6-0.7-0.9
			l0.7-0.5c0.2,0.3,0.5,0.6,0.7,0.9L26,112.1z M121.9,111l-0.7-0.5c0.2-0.3,0.5-0.6,0.7-0.9l0.7,0.5
			C122.4,110.4,122.2,110.7,121.9,111z M24.6,110.3c-0.2-0.3-0.4-0.6-0.7-0.9l0.7-0.5c0.2,0.3,0.4,0.6,0.7,0.9L24.6,110.3z
			 M123.3,109.1l-0.7-0.5c0.2-0.3,0.4-0.6,0.6-0.9l0.7,0.5C123.7,108.5,123.5,108.8,123.3,109.1z M23.3,108.4
			c-0.2-0.3-0.4-0.6-0.6-0.9l0.7-0.5c0.2,0.3,0.4,0.6,0.6,0.9L23.3,108.4z M124.6,107.3l-0.7-0.5c0.2-0.3,0.4-0.6,0.6-0.9l0.7,0.5
			C125,106.6,124.8,106.9,124.6,107.3z M22,106.5c-0.2-0.3-0.4-0.6-0.6-1l0.7-0.4c0.2,0.3,0.4,0.6,0.6,0.9L22,106.5z M125.8,105.3
			l-0.7-0.4c0.2-0.3,0.4-0.6,0.6-1l0.7,0.4C126.2,104.7,126,105,125.8,105.3z M20.8,104.6c-0.2-0.3-0.4-0.7-0.6-1l0.7-0.4
			c0.2,0.3,0.4,0.6,0.6,1L20.8,104.6z M126.9,103.4l-0.7-0.4c0.2-0.3,0.4-0.7,0.5-1l0.7,0.4C127.3,102.7,127.1,103,126.9,103.4z
			 M19.7,102.6c-0.2-0.3-0.4-0.7-0.5-1l0.8-0.4c0.2,0.3,0.3,0.7,0.5,1L19.7,102.6z M128,101.4l-0.8-0.4c0.2-0.3,0.3-0.7,0.5-1
			l0.8,0.4C128.4,100.7,128.2,101,128,101.4z M18.6,100.6c-0.2-0.3-0.3-0.7-0.5-1l0.8-0.4c0.2,0.3,0.3,0.7,0.5,1L18.6,100.6z
			 M129,99.3l-0.8-0.4c0.2-0.3,0.3-0.7,0.5-1l0.8,0.3C129.3,98.6,129.2,99,129,99.3z M17.7,98.6c-0.2-0.3-0.3-0.7-0.5-1l0.8-0.3
			c0.1,0.3,0.3,0.7,0.4,1L17.7,98.6z M129.9,97.2l-0.8-0.3c0.1-0.3,0.3-0.7,0.4-1l0.8,0.3C130.2,96.5,130.1,96.9,129.9,97.2z
			 M16.8,96.5c-0.1-0.4-0.3-0.7-0.4-1.1l0.8-0.3c0.1,0.3,0.3,0.7,0.4,1L16.8,96.5z M130.8,95.1l-0.8-0.3c0.1-0.4,0.3-0.7,0.4-1.1
			l0.8,0.3C131,94.4,130.9,94.8,130.8,95.1z M16,94.4c-0.1-0.4-0.3-0.7-0.4-1.1l0.8-0.3c0.1,0.4,0.2,0.7,0.4,1.1L16,94.4z M131.5,93
			l-0.8-0.3c0.1-0.4,0.2-0.7,0.3-1.1l0.8,0.3C131.8,92.3,131.7,92.6,131.5,93z M15.3,92.2c-0.1-0.4-0.2-0.7-0.3-1.1l0.8-0.2
			c0.1,0.4,0.2,0.7,0.3,1.1L15.3,92.2z M132.2,90.8l-0.8-0.2c0.1-0.4,0.2-0.7,0.3-1.1l0.8,0.2C132.4,90.1,132.3,90.4,132.2,90.8z
			 M14.6,90c-0.1-0.4-0.2-0.7-0.3-1.1l0.8-0.2c0.1,0.4,0.2,0.7,0.3,1.1L14.6,90z M132.8,88.6l-0.8-0.2c0.1-0.4,0.2-0.7,0.3-1.1
			l0.8,0.2C133,87.9,132.9,88.2,132.8,88.6z M14,87.8c-0.1-0.4-0.2-0.7-0.3-1.1l0.8-0.2c0.1,0.4,0.2,0.7,0.2,1.1L14,87.8z
			 M133.3,86.4l-0.8-0.2c0.1-0.4,0.2-0.7,0.2-1.1l0.8,0.2C133.5,85.6,133.4,86,133.3,86.4z M13.5,85.6c-0.1-0.4-0.1-0.7-0.2-1.1
			l0.8-0.1c0.1,0.4,0.1,0.7,0.2,1.1L13.5,85.6z M133.8,84.2l-0.8-0.1c0.1-0.4,0.1-0.7,0.2-1.1L134,83
			C133.9,83.4,133.8,83.8,133.8,84.2z M13.1,83.4C13.1,83,13,82.6,13,82.3l0.8-0.1c0.1,0.4,0.1,0.7,0.2,1.1L13.1,83.4z M134.1,81.9
			l-0.8-0.1c0.1-0.4,0.1-0.7,0.1-1.1l0.8,0.1C134.2,81.2,134.2,81.5,134.1,81.9z M12.8,81.1c0-0.4-0.1-0.8-0.1-1.1l0.8-0.1
			c0,0.4,0.1,0.7,0.1,1.1L12.8,81.1z M134.4,79.7l-0.8-0.1c0-0.4,0.1-0.7,0.1-1.1l0.8,0.1C134.5,78.9,134.4,79.3,134.4,79.7z
			 M12.6,78.9c0-0.4-0.1-0.8-0.1-1.1l0.8-0.1c0,0.4,0.1,0.7,0.1,1.1L12.6,78.9z M134.6,77.4l-0.8-0.1c0-0.4,0-0.7,0.1-1.1l0.8,0
			C134.6,76.6,134.6,77,134.6,77.4z M12.4,76.6c0-0.4,0-0.8,0-1.1l0.8,0c0,0.4,0,0.7,0,1.1L12.4,76.6z M134.7,75.1l-0.8,0
			c0-0.4,0-0.7,0-1.1l0.8,0C134.7,74.4,134.7,74.8,134.7,75.1z M12,74l1-0.3V73l0,0l1,0.7V74H12z M133.8,73c0-0.4,0-0.7,0-1.1l0.8,0
			c0,0.4,0,0.8,0,1.1L133.8,73z M13.2,72.1l-0.8,0c0-0.4,0-0.8,0-1.1l0.8,0C13.3,71.3,13.2,71.7,13.2,72.1z M133.8,70.6
			c0-0.4,0-0.7-0.1-1.1l0.8-0.1c0,0.4,0,0.8,0.1,1.1L133.8,70.6z M13.3,69.8l-0.8-0.1c0-0.4,0.1-0.8,0.1-1.1l0.8,0.1
			C13.4,69.1,13.4,69.5,13.3,69.8z M133.6,68.4c0-0.4-0.1-0.7-0.1-1.1l0.8-0.1c0,0.4,0.1,0.8,0.1,1.1L133.6,68.4z M13.5,67.6
			l-0.8-0.1c0-0.4,0.1-0.8,0.1-1.1l0.8,0.1C13.6,66.9,13.5,67.2,13.5,67.6z M133.4,66.2c0-0.4-0.1-0.7-0.1-1.1l0.8-0.1
			c0.1,0.4,0.1,0.7,0.2,1.1L133.4,66.2z M13.8,65.4l-0.8-0.1c0.1-0.4,0.1-0.8,0.2-1.1l0.8,0.1C13.9,64.6,13.8,65,13.8,65.4z
			 M133.1,63.9c-0.1-0.4-0.1-0.7-0.2-1.1l0.8-0.2c0.1,0.4,0.1,0.7,0.2,1.1L133.1,63.9z M14.1,63.2L13.3,63c0.1-0.4,0.1-0.7,0.2-1.1
			l0.8,0.2C14.3,62.4,14.2,62.8,14.1,63.2z M132.7,61.7c-0.1-0.4-0.2-0.7-0.2-1.1l0.8-0.2c0.1,0.4,0.2,0.7,0.2,1.1L132.7,61.7z
			 M14.5,61l-0.8-0.2c0.1-0.4,0.2-0.7,0.2-1.1l0.8,0.2C14.7,60.2,14.6,60.6,14.5,61z M132.2,59.5c-0.1-0.4-0.2-0.7-0.3-1.1l0.8-0.2
			c0.1,0.4,0.2,0.7,0.3,1.1L132.2,59.5z M15.1,58.8l-0.8-0.2c0.1-0.4,0.2-0.7,0.3-1.1l0.8,0.2C15.2,58.1,15.2,58.4,15.1,58.8z
			 M131.6,57.4c-0.1-0.4-0.2-0.7-0.3-1.1l0.8-0.2c0.1,0.4,0.2,0.7,0.3,1.1L131.6,57.4z M15.7,56.6l-0.8-0.2c0.1-0.4,0.2-0.7,0.3-1.1
			l0.8,0.3C15.9,55.9,15.8,56.3,15.7,56.6z M131,55.2c-0.1-0.4-0.2-0.7-0.4-1.1l0.8-0.3c0.1,0.4,0.2,0.7,0.4,1.1L131,55.2z
			 M16.3,54.5l-0.8-0.3c0.1-0.4,0.2-0.7,0.4-1.1l0.8,0.3C16.6,53.8,16.4,54.1,16.3,54.5z M130.2,53.1c-0.1-0.4-0.3-0.7-0.4-1.1
			l0.8-0.3c0.1,0.4,0.3,0.7,0.4,1.1L130.2,53.1z M17.1,52.4l-0.8-0.3c0.1-0.4,0.3-0.7,0.4-1.1l0.8,0.3C17.3,51.7,17.2,52,17.1,52.4z
			 M129.4,51c-0.1-0.3-0.3-0.7-0.4-1l0.8-0.3c0.1,0.3,0.3,0.7,0.4,1L129.4,51z M17.9,50.3L17.1,50c0.1-0.3,0.3-0.7,0.5-1l0.8,0.3
			C18.2,49.6,18.1,49.9,17.9,50.3z M128.6,49c-0.2-0.3-0.3-0.7-0.5-1l0.8-0.4c0.2,0.3,0.3,0.7,0.5,1L128.6,49z M18.8,48.2l-0.8-0.4
			c0.2-0.3,0.3-0.7,0.5-1l0.8,0.4C19.1,47.5,19,47.9,18.8,48.2z M127.6,46.9c-0.2-0.3-0.3-0.7-0.5-1l0.8-0.4c0.2,0.3,0.3,0.7,0.5,1
			L127.6,46.9z M19.8,46.2l-0.8-0.4c0.2-0.3,0.3-0.7,0.5-1l0.7,0.4C20.2,45.5,20,45.9,19.8,46.2z M126.6,45c-0.2-0.3-0.4-0.7-0.5-1
			l0.7-0.4c0.2,0.3,0.4,0.7,0.6,1L126.6,45z M20.9,44.2l-0.7-0.4c0.2-0.3,0.4-0.7,0.6-1l0.7,0.4C21.2,43.6,21.1,43.9,20.9,44.2z
			 M125.5,43c-0.2-0.3-0.4-0.6-0.6-1l0.7-0.4c0.2,0.3,0.4,0.6,0.6,1L125.5,43z M22,42.3l-0.7-0.4c0.2-0.3,0.4-0.6,0.6-1l0.7,0.5
			C22.4,41.7,22.2,42,22,42.3z M124.3,41.1c-0.2-0.3-0.4-0.6-0.6-0.9l0.7-0.5c0.2,0.3,0.4,0.6,0.6,0.9L124.3,41.1z M23.2,40.4
			l-0.7-0.5c0.2-0.3,0.4-0.6,0.6-0.9l0.7,0.5C23.6,39.8,23.4,40.1,23.2,40.4z M123.1,39.3c-0.2-0.3-0.4-0.6-0.6-0.9l0.7-0.5
			c0.2,0.3,0.4,0.6,0.7,0.9L123.1,39.3z M24.5,38.6l-0.7-0.5c0.2-0.3,0.4-0.6,0.7-0.9l0.7,0.5C24.9,37.9,24.7,38.2,24.5,38.6z
			 M121.7,37.4c-0.2-0.3-0.5-0.6-0.7-0.9l0.7-0.5c0.2,0.3,0.5,0.6,0.7,0.9L121.7,37.4z M25.8,36.8l-0.7-0.5c0.2-0.3,0.5-0.6,0.7-0.9
			l0.7,0.5C26.3,36.2,26.1,36.5,25.8,36.8z M120.4,35.7c-0.2-0.3-0.5-0.6-0.7-0.9l0.6-0.5c0.2,0.3,0.5,0.6,0.7,0.9L120.4,35.7z
			 M27.2,35l-0.7-0.5c0.2-0.3,0.5-0.6,0.7-0.9l0.6,0.6C27.7,34.4,27.5,34.7,27.2,35z M118.9,34c-0.2-0.3-0.5-0.6-0.7-0.8l0.6-0.6
			c0.3,0.3,0.5,0.6,0.8,0.8L118.9,34z M28.7,33.3l-0.6-0.6c0.3-0.3,0.5-0.6,0.8-0.8l0.6,0.6C29.2,32.8,29,33,28.7,33.3z M117.4,32.3
			c-0.3-0.3-0.5-0.5-0.8-0.8l0.6-0.6c0.3,0.3,0.5,0.5,0.8,0.8L117.4,32.3z M30.2,31.7l-0.6-0.6c0.3-0.3,0.5-0.5,0.8-0.8l0.6,0.6
			C30.8,31.1,30.5,31.4,30.2,31.7z M115.9,30.7c-0.3-0.3-0.5-0.5-0.8-0.8l0.6-0.6c0.3,0.3,0.5,0.5,0.8,0.8L115.9,30.7z M31.8,30.1
			l-0.6-0.6c0.3-0.3,0.5-0.5,0.8-0.8l0.6,0.6C32.4,29.6,32.1,29.8,31.8,30.1z M114.2,29.2c-0.3-0.3-0.6-0.5-0.8-0.7l0.6-0.6
			c0.3,0.3,0.6,0.5,0.8,0.8L114.2,29.2z M33.5,28.6l-0.6-0.6c0.3-0.3,0.6-0.5,0.9-0.7l0.6,0.6C34,28.1,33.7,28.3,33.5,28.6z
			 M112.5,27.7c-0.3-0.2-0.6-0.5-0.9-0.7l0.5-0.7c0.3,0.2,0.6,0.5,0.9,0.7L112.5,27.7z M35.2,27.1l-0.5-0.7c0.3-0.2,0.6-0.5,0.9-0.7
			l0.5,0.7C35.7,26.6,35.5,26.9,35.2,27.1z M110.8,26.3c-0.3-0.2-0.6-0.5-0.9-0.7l0.5-0.7c0.3,0.2,0.6,0.5,0.9,0.7L110.8,26.3z
			 M36.9,25.7l-0.5-0.7c0.3-0.2,0.6-0.5,0.9-0.7l0.5,0.7C37.5,25.3,37.2,25.5,36.9,25.7z M109,24.9c-0.3-0.2-0.6-0.4-0.9-0.7
			l0.5-0.7c0.3,0.2,0.6,0.4,0.9,0.7L109,24.9z M38.7,24.4l-0.5-0.7c0.3-0.2,0.6-0.4,0.9-0.6l0.5,0.7C39.3,24,39,24.2,38.7,24.4z
			 M107.2,23.6c-0.3-0.2-0.6-0.4-0.9-0.6l0.5-0.7c0.3,0.2,0.6,0.4,1,0.6L107.2,23.6z M40.6,23.1l-0.5-0.7c0.3-0.2,0.6-0.4,1-0.6
			l0.4,0.7C41.2,22.7,40.9,22.9,40.6,23.1z M105.3,22.4c-0.3-0.2-0.6-0.4-1-0.6l0.4-0.7c0.3,0.2,0.6,0.4,1,0.6L105.3,22.4z
			 M42.5,21.9L42,21.2c0.3-0.2,0.6-0.4,1-0.6l0.4,0.7C43.1,21.6,42.8,21.8,42.5,21.9z M103.4,21.2c-0.3-0.2-0.7-0.4-1-0.5l0.4-0.7
			c0.3,0.2,0.7,0.4,1,0.6L103.4,21.2z M44.4,20.8L44,20.1c0.3-0.2,0.7-0.4,1-0.5l0.4,0.7C45.1,20.5,44.7,20.6,44.4,20.8z
			 M101.4,20.2c-0.3-0.2-0.7-0.3-1-0.5l0.4-0.8c0.3,0.2,0.7,0.3,1,0.5L101.4,20.2z M46.4,19.8L46,19c0.3-0.2,0.7-0.3,1-0.5l0.4,0.8
			C47,19.4,46.7,19.6,46.4,19.8z M99.4,19.2c-0.3-0.2-0.7-0.3-1-0.5l0.3-0.8c0.3,0.2,0.7,0.3,1,0.5L99.4,19.2z M48.4,18.8L48,18
			c0.3-0.2,0.7-0.3,1-0.5l0.3,0.8C49.1,18.5,48.7,18.7,48.4,18.8z M97.4,18.2c-0.3-0.1-0.7-0.3-1-0.4l0.3-0.8
			c0.4,0.1,0.7,0.3,1.1,0.4L97.4,18.2z M50.4,17.9l-0.3-0.8c0.3-0.1,0.7-0.3,1-0.4l0.3,0.8C51.1,17.6,50.8,17.8,50.4,17.9z
			 M95.3,17.4c-0.3-0.1-0.7-0.3-1.1-0.4l0.3-0.8c0.4,0.1,0.7,0.3,1.1,0.4L95.3,17.4z M93.2,16.6c-0.4-0.1-0.7-0.2-1.1-0.3l0.3-0.8
			c0.4,0.1,0.7,0.2,1.1,0.4L93.2,16.6z M52.5,17.1l-0.3-0.8c0.4-0.1,0.7-0.3,1.1-0.4l0.3,0.8C53.2,16.8,52.9,17,52.5,17.1z
			 M54.6,16.3l-0.3-0.8c0.4-0.1,0.7-0.2,1.1-0.3l0.2,0.8C55.3,16.1,55,16.2,54.6,16.3z M91,15.9c-0.4-0.1-0.7-0.2-1.1-0.3l0.2-0.8
			c0.4,0.1,0.7,0.2,1.1,0.3L91,15.9z M56.8,15.7l-0.2-0.8c0.4-0.1,0.7-0.2,1.1-0.3l0.2,0.8C57.5,15.5,57.1,15.6,56.8,15.7z
			 M88.9,15.3c-0.4-0.1-0.7-0.2-1.1-0.3l0.2-0.8c0.4,0.1,0.7,0.2,1.1,0.3L88.9,15.3z M58.9,15.1l-0.2-0.8c0.4-0.1,0.7-0.2,1.1-0.3
			l0.2,0.8C59.7,14.9,59.3,15,58.9,15.1z M86.7,14.8c-0.4-0.1-0.7-0.2-1.1-0.2l0.2-0.8c0.4,0.1,0.7,0.2,1.1,0.2L86.7,14.8z
			 M61.1,14.6l-0.2-0.8c0.4-0.1,0.7-0.2,1.1-0.2l0.2,0.8C61.8,14.5,61.5,14.5,61.1,14.6z M84.5,14.3c-0.4-0.1-0.7-0.1-1.1-0.2
			l0.1-0.8c0.4,0.1,0.7,0.1,1.1,0.2L84.5,14.3z M63.3,14.2l-0.1-0.8c0.4-0.1,0.7-0.1,1.1-0.2l0.1,0.8C64.1,14.1,63.7,14.1,63.3,14.2
			z M82.3,14c-0.4-0.1-0.7-0.1-1.1-0.2l0.1-0.8c0.4,0,0.7,0.1,1.1,0.2L82.3,14z M65.5,13.8L65.4,13c0.4,0,0.8-0.1,1.1-0.1l0.1,0.8
			C66.3,13.7,65.9,13.8,65.5,13.8z M80.1,13.7c-0.4,0-0.7-0.1-1.1-0.1l0.1-0.8c0.4,0,0.8,0.1,1.1,0.1L80.1,13.7z M67.8,13.6
			l-0.1-0.8c0.4,0,0.8-0.1,1.1-0.1l0.1,0.8C68.5,13.5,68.1,13.6,67.8,13.6z M77.8,13.5c-0.4,0-0.7-0.1-1.1-0.1l0-0.8
			c0.4,0,0.8,0,1.1,0.1L77.8,13.5z M70,13.4l0-0.8c0.4,0,0.8,0,1.1-0.1l0,0.8C70.7,13.4,70.4,13.4,70,13.4z M75.6,13.4
			c-0.4,0-0.7,0-1.1,0l0-0.8c0.4,0,0.8,0,1.1,0L75.6,13.4z M71.9,13.3l0-0.8c0.4,0,0.8,0,1.1,0l0,0.8C72.6,13.3,72.3,13.3,71.9,13.3
			z"/>
	</g>
	<ellipse transform="matrix(1 -1.683334e-03 1.683334e-03 1 -0.1245 0.1247)" class="st2" cx="74" cy="74" rx="57" ry="57"/>
	<path class="st1" d="M74,128.9c-30.2,0-54.8-24.6-54.9-54.8c-0.1-30.3,24.5-54.9,54.8-55c0,0,0.1,0,0.1,0c14.6,0,28.4,5.7,38.7,16
		c10.4,10.3,16.1,24.1,16.1,38.8c0,14.7-5.7,28.4-16,38.8C102.5,123.1,88.8,128.9,74,128.9C74.1,128.9,74,128.9,74,128.9z M74,19.9
		C74,19.9,73.9,19.9,74,19.9c-29.9,0.1-54.2,24.4-54.1,54.2c0.1,29.8,24.3,54,54.1,54c0,0,0.1,0,0.1,0c14.5,0,28-5.7,38.2-15.9
		c10.2-10.2,15.8-23.8,15.8-38.3c0-14.5-5.7-28-15.9-38.2C102,25.5,88.4,19.9,74,19.9z"/>
	<ellipse transform="matrix(1 -1.682394e-03 1.682394e-03 1 -0.1244 0.1246)" class="st3" cx="74" cy="74" rx="71" ry="71"/>
	<g>
		<path class="st4" d="M40.4,108.4c-0.4,0.4-0.8,0.7-1.3,0.8c-0.4,0.1-0.9,0.2-1.3,0.1c-0.4-0.1-0.8-0.3-1.1-0.7
			c-0.3-0.3-0.5-0.7-0.6-1.1c-0.1-0.4-0.1-0.9,0.1-1.3c0.2-0.4,0.4-0.8,0.8-1.2l0.2-0.2c0.4-0.4,0.8-0.7,1.3-0.8
			c0.4-0.1,0.9-0.2,1.3-0.1c0.4,0.1,0.8,0.3,1.1,0.7c0.3,0.3,0.5,0.7,0.6,1.2c0.1,0.4,0,0.9-0.1,1.3c-0.2,0.4-0.5,0.9-0.9,1.2
			L40.4,108.4z M39.8,107.3c0.4-0.4,0.7-0.8,0.8-1.2c0.1-0.4,0-0.7-0.3-1c-0.3-0.3-0.6-0.4-1-0.3c-0.4,0.1-0.8,0.3-1.2,0.7l-0.2,0.2
			c-0.4,0.4-0.7,0.8-0.8,1.2c-0.1,0.4,0,0.7,0.3,1c0.3,0.3,0.6,0.4,1,0.3c0.4-0.1,0.8-0.3,1.2-0.7L39.8,107.3z"/>
		<path class="st4" d="M45.3,115.8l-0.9-0.7l0.4-4.4l-2.2,3l-0.9-0.7l3.4-4.6l0.9,0.7l-0.4,4.4l2.2-3l0.9,0.7L45.3,115.8z"/>
		<path class="st4" d="M53.2,117.4l-2-1l-0.7,1.4l2.4,1.2l-0.4,0.8l-3.4-1.7l2.6-5.1l3.4,1.7l-0.4,0.8l-2.3-1.2l-0.6,1.2l2,1
			L53.2,117.4z"/>
		<path class="st4" d="M61,122.7l1.2-5.6l1.7,0.4c0.5,0.1,0.9,0.3,1.2,0.6c0.3,0.3,0.6,0.7,0.7,1.1c0.1,0.5,0.1,0.9,0,1.5l-0.1,0.3
			c-0.1,0.5-0.3,1-0.6,1.3c-0.3,0.4-0.7,0.6-1.1,0.7c-0.4,0.1-0.9,0.2-1.4,0.1L61,122.7z M63.2,118.4l-0.8,3.7l0.6,0.1
			c0.4,0.1,0.8,0,1.1-0.2c0.3-0.2,0.5-0.6,0.6-1.2l0.1-0.3c0.1-0.6,0.1-1-0.1-1.4c-0.2-0.3-0.5-0.6-0.9-0.7L63.2,118.4z"/>
		<path class="st4" d="M73,121.8l-2.2-0.1l-0.1,1.5l2.6,0.1l0,0.9l-3.8-0.2l0.3-5.7l3.8,0.2l0,0.9l-2.6-0.1l-0.1,1.4l2.2,0.1
			L73,121.8z"/>
		<path class="st4" d="M81.4,121.8c0,0.6-0.1,1.1-0.5,1.5c-0.4,0.4-0.9,0.6-1.5,0.7c-0.7,0.1-1.3-0.1-1.8-0.5
			c-0.5-0.4-0.8-1.1-0.9-1.9l0-0.3c-0.1-0.5,0-1,0.1-1.5c0.1-0.4,0.4-0.8,0.7-1c0.3-0.3,0.7-0.4,1.2-0.5c0.7-0.1,1.2,0,1.6,0.3
			c0.4,0.3,0.7,0.8,0.9,1.4l-1.2,0.1c-0.1-0.4-0.2-0.6-0.4-0.8c-0.2-0.1-0.5-0.2-0.8-0.2c-0.4,0-0.7,0.2-0.8,0.5
			c-0.2,0.3-0.2,0.7-0.1,1.3l0,0.4c0.1,0.6,0.2,1,0.4,1.3c0.2,0.3,0.5,0.4,0.9,0.3c0.4,0,0.6-0.2,0.8-0.3c0.2-0.2,0.2-0.5,0.2-0.8
			L81.4,121.8z"/>
		<path class="st4" d="M94,117.9c0.2,0.6,0.2,1.1-0.1,1.6c-0.2,0.5-0.7,0.8-1.3,1.1c-0.7,0.3-1.3,0.3-1.9,0c-0.6-0.3-1-0.8-1.3-1.6
			l-0.1-0.3c-0.2-0.5-0.3-1-0.3-1.4c0-0.5,0.2-0.9,0.4-1.2c0.2-0.3,0.6-0.6,1-0.8c0.6-0.2,1.2-0.3,1.7-0.1c0.5,0.2,0.9,0.5,1.2,1.1
			l-1.1,0.4c-0.2-0.3-0.4-0.5-0.6-0.6c-0.2-0.1-0.5-0.1-0.8,0.1c-0.4,0.1-0.6,0.4-0.7,0.7c-0.1,0.3,0,0.8,0.2,1.3l0.2,0.4
			c0.2,0.6,0.5,1,0.8,1.1c0.3,0.2,0.6,0.2,1,0.1c0.3-0.1,0.6-0.3,0.7-0.5c0.1-0.2,0.1-0.5,0-0.8L94,117.9z"/>
		<path class="st4" d="M100.9,113c0.3,0.5,0.5,0.9,0.5,1.4c0.1,0.5,0,0.9-0.2,1.3c-0.2,0.4-0.5,0.7-0.9,1c-0.4,0.2-0.8,0.4-1.3,0.4
			c-0.4,0-0.8-0.1-1.2-0.4c-0.4-0.2-0.7-0.6-1-1.1l-0.1-0.2c-0.3-0.5-0.5-0.9-0.5-1.4c-0.1-0.5,0-0.9,0.2-1.3c0.2-0.4,0.5-0.7,0.9-1
			c0.4-0.3,0.8-0.4,1.3-0.4c0.4,0,0.8,0.1,1.2,0.4c0.4,0.3,0.7,0.6,1,1.1L100.9,113z M99.7,113.4c-0.3-0.5-0.6-0.8-1-1
			c-0.3-0.1-0.7-0.1-1,0.1c-0.3,0.2-0.5,0.5-0.5,0.9c0,0.4,0.1,0.8,0.4,1.3l0.1,0.2c0.3,0.5,0.6,0.8,1,1c0.4,0.2,0.7,0.1,1-0.1
			c0.3-0.2,0.5-0.5,0.5-0.9c0-0.4-0.1-0.8-0.4-1.3L99.7,113.4z"/>
		<path class="st4" d="M106.5,112l-0.9,0.8l-3.7-4.4l0.9-0.8L106.5,112z"/>
		<path class="st4" d="M112.8,105.7l-0.8,0.9l-4.3-0.8l2.8,2.5l-0.8,0.9l-4.2-3.8l0.8-0.9l4.3,0.8l-2.8-2.5l0.8-0.9L112.8,105.7z"/>
	</g>
	<g>
		<g>
			<path class="st4" d="M68.6,26.9l-2.2,0.3l0.3,2.3l-1.2,0.2L64.7,24l3.7-0.5l0.1,0.9L66,24.8l0.2,1.5l2.2-0.3L68.6,26.9z"/>
			<path class="st4" d="M76.9,23.3l-0.1,3.7c0,0.6-0.2,1.1-0.6,1.5c-0.4,0.4-0.9,0.5-1.6,0.5c-0.7,0-1.2-0.2-1.6-0.6
				c-0.4-0.4-0.6-0.8-0.6-1.5l0.1-3.8l1.2,0L73.6,27c0,0.4,0.1,0.6,0.2,0.8c0.2,0.2,0.4,0.3,0.7,0.3c0.7,0,1-0.3,1-1l0.1-3.8
				L76.9,23.3z"/>
			<path class="st4" d="M84.8,30.4l-1.1-0.2L82.2,26l-0.8,3.7l-1.1-0.2l1.1-5.6l1.1,0.2l1.5,4.1l0.8-3.7l1.1,0.2L84.8,30.4z"/>
		</g>
	</g>
	<path class="st5" d="M94,53.4c-0.5-0.4-0.4-1.1,0-1.5c0.6-0.6,1.1-1.4,0.7-2.4c-0.3-0.7-0.8-1-1.3-1.1c-0.6-0.1-1-0.8-0.7-1.3
		c0.3-0.6,0.2-1.1-0.4-1.5c-1-0.6-1.8-0.8-2.5-0.7c-0.6,0-1.1-0.5-1.1-1.1c0.1-0.7-0.1-1.4-0.8-2c-0.5-0.4-1-0.5-1.5-0.5
		c-0.6,0.1-1.2-0.4-1.1-1c0-0.8-0.2-1.6-1-2.2c-0.8-0.6-1.8-0.7-2.6-0.4c-0.5,0.2-1.1,0-1.3-0.5c-0.5-0.9-1.6-1.4-2.6-0.6
		c-0.1,0.1-0.3,0.3-0.4,0.4c-0.4,0.5-1.3,0.5-1.6-0.1c-0.2-0.3-0.4-0.5-0.7-0.7c-1-0.6-2.4-0.4-3.2,0.3c-0.3,0.3-0.9,0.3-1.2,0
		c-0.6-0.5-1.6-0.7-2.2,0c-0.1,0.1-0.2,0.3-0.3,0.5c-0.3,0.6-1.2,0.7-1.6,0.2c-0.5-0.6-1.1-1-1.7-0.8c-0.8,0.3-1.1,1.3-1,2.4
		c0,0.7-0.7,1.1-1.3,0.9c-2.2-0.7-4.7,2.5-2.9,5.4c-0.5-0.7-1.5-3.1-2.9-1.4c-0.8,1.1-0.8,2.4-0.6,3.4c0.1,0.6-0.3,1.2-1,1.2
		c-0.5,0-1.1,0.2-1.4,0.9c-0.3,0.7,0.1,1.3,0.8,1.8c0.6,0.4,0.4,1.3-0.2,1.6c-0.4,0.2-0.7,0.5-0.8,0.9c-0.2,0.8,0.6,1.5,1.5,2
		c0.6,0.4,0.6,1.2,0,1.6c-0.3,0.2-0.5,0.5-0.5,0.9c-0.1,0.8,1.5,1.5,2.8,2.1c0.6,0.3,0.8,1.1,0.3,1.6c-0.5,0.5-0.9,1.1-0.5,1.7
		c0.4,0.7,1.7,0.8,2.8,0.8c0.6,0,1.1,0.5,1,1.2c-0.1,0.4,0,0.7,0.3,0.8c0.2,0,0.3,0,0.5,0c0.5-0.1,1.1,0.3,1.1,0.9
		c0,0.4,0.2,0.8,0.6,1c0.8,0.5,2.4-0.3,3-0.7c0.2-0.1,0.4-0.2,0.6-0.1l13.4,1.2c0.1,0,0.3,0.1,0.4,0.1c0.8,0.5,4,2.2,5.5,0.8
		c0.6-0.6,0.5-1.7,0.2-2.8c-0.2-0.8,0.5-1.5,1.3-1.2c0.7,0.2,1.3,0.2,1.8-0.3c0.6-0.7,0.6-1.5,0.3-2.2c-0.3-0.7,0.3-1.4,1-1.3
		c0.8,0.1,1.7-0.1,2-0.9c0.4-0.9-0.1-1.8-0.8-2.6c-0.5-0.5-0.2-1.4,0.5-1.6c0.8-0.1,1.5-0.6,1.7-1.6C94.6,54.2,94.4,53.7,94,53.4z"
		/>
	<path class="st4" d="M61.4,99.1c3.9,0.4,18.2,1.7,29-0.5c0.5-0.1,0.9-0.7,0.7-1.2l-8.5-31.8c-0.1-0.3-0.2-0.5-0.5-0.6
		c-1.6-0.9-8.2-4.6-8.1-4.3c0.1,0.3-6.4,2.9-8.3,3.7c-0.3,0.1-0.5,0.4-0.6,0.8L60.5,98C60.4,98.6,60.8,99.1,61.4,99.1z"/>
	<path class="st6" d="M68.1,89.7l-0.9,14c0,0.5,0.4,1,0.9,1l1.7,0.1c0.5,0,0.9-0.3,1-0.8l2.5-13.9c0.1-0.6-0.3-1.1-0.9-1.1l-3.3-0.2
		C68.5,88.7,68.1,89.2,68.1,89.7z"/>
	<path class="st6" d="M82.8,89.7l0.9,14.1c0,0.5-0.4,1-0.9,1l-1.7,0.1c-0.5,0-0.9-0.3-1-0.8l-2.5-14c-0.1-0.6,0.3-1.1,0.9-1.1
		l3.3-0.2C82.4,88.7,82.8,89.2,82.8,89.7z"/>
	<g>
		<defs>
			<path id="SVGID_1_" d="M81,77H68c-0.4,0-0.8,0.2-0.9,0.6c-0.7,1.8-2.6,7.1-3.7,10.6c-0.2,0.6,0.2,1.2,0.8,1.2
				c3.5,0.4,14.4,1.4,21.7-0.2c0.6-0.1,0.9-0.8,0.7-1.3c-0.9-2.1-3.1-6.8-4.7-10.3C81.7,77.2,81.4,77,81,77z"/>
		</defs>
		<clipPath id="SVGID_2_">
			<use xlink:href="#SVGID_1_"  style="overflow:visible;"/>
		</clipPath>
		<path class="st7" d="M81.6,77H67.3c0,0-3,8.2-4.3,12.3c0,0,15.3,2.1,24-0.4C87,88.9,83.7,81.7,81.6,77z"/>
		<path class="st8" d="M69.6,76c-0.2,2.3-0.9,4.5-1.3,6.7c-0.4,2.4-0.7,4.9-0.9,7.4c0,0.2,0.4,0.3,0.4,0.1c0.2-2.4,0.5-4.7,0.9-7
			c0.4-2.4,1.1-4.7,1.3-7.1C70,75.8,69.6,75.8,69.6,76z"/>
		<path class="st8" d="M71.8,76.4c-0.4,3-0.3,6-0.5,9c0,0.2,0.4,0.3,0.4,0.1c0.2-3,0.2-6,0.5-9C72.2,76.2,71.9,76.2,71.8,76.4z"/>
		<path class="st8" d="M75.4,76.2c0-0.3-0.4-0.2-0.4,0c0,4.2,0.4,8.4,0.4,12.5c0,0.3,0.4,0.2,0.4,0C75.7,84.5,75.4,80.4,75.4,76.2z"
			/>
		<path class="st8" d="M78.4,75.6c0-0.2-0.4-0.2-0.4,0c0.7,3.2,1.6,6.4,1.8,9.7c0,0.3,0.4,0.2,0.4,0C79.9,82,79,78.9,78.4,75.6z"/>
		<path class="st8" d="M85.1,90.4c-1.1-5-3.2-9.8-5-14.5c-0.1-0.2-0.5-0.1-0.4,0.1c1.8,4.8,3.9,9.5,5,14.4
			C84.8,90.7,85.2,90.7,85.1,90.4z"/>
		<path class="st8" d="M64.5,87.3c-0.3,1.7-0.6,3.4-0.9,5.1c0,0.2,0.3,0.3,0.4,0.1c0.3-1.7,0.6-3.4,0.9-5.1
			C64.9,87.1,64.6,87,64.5,87.3z"/>
	</g>
	<path class="st0" d="M82.8,65.2L82.3,66c-0.1,0.2-0.2,0.5-0.1,0.7l8.5,32.3c0.2,0.6,0.8,0.9,1.3,0.6l2.8-1.2
		c0.5-0.2,0.7-0.7,0.5-1.2c-1.5-4.4-8.5-25.4-10.8-31.9C84.3,64.6,83.2,64.5,82.8,65.2z"/>
	<g>
		<defs>
			<path id="SVGID_3_" d="M60.3,48.5c0.1-2.2,0.6-4,0-4.2c-0.7-0.2-0.7,2-1.4,1.6c-0.5-0.8-0.8-1.6-1.5-2.9
				c-0.3-0.5-0.9-0.1-0.7,0.4c-0.7-1.2-1.4-0.8-1,0.1c-0.6-0.4-0.7,0.6-0.4,1.1c-0.2-0.1-1-0.1-0.5,0.7c0.3,0.7,0.6,1.4,1,2.1
				c0.4,0.7,1.6,2.5,2.1,2.6c0.3,0.1,0.5,0,0.7,0.3c0.1,0.1,0.4,0.6,0.3,0.6l1.2-0.7c0.4-0.2,0.6-0.7,0.4-1.1
				C60.3,49,60.3,48.8,60.3,48.5z"/>
		</defs>
		<clipPath id="SVGID_4_">
			<use xlink:href="#SVGID_3_"  style="overflow:visible;"/>
		</clipPath>
		<path class="st9" d="M60.3,48.5c0.1-0.6,0.7-4.1,0-4.5c-0.7-0.4-1.1,1.2-1.4,1.9c-0.5-0.8-0.8-1.6-1.5-2.9
			c-0.3-0.5-0.9-0.1-0.7,0.4c-0.7-1.2-1.4-0.8-1,0.1c-0.6-0.4-0.7,0.6-0.4,1.1c-0.2-0.1-1-0.1-0.5,0.7c0.3,0.7,0.6,1.4,1,2.1
			c0.4,0.7,0.4,1.4,1,1.9c0.3,0.4,0.6,0.6,1.1,0.7c0.3,0.1,0.5,0,0.7,0.3c0.1,0.1,0.4,0.6,0.3,0.6l2.1-1.2
			C60.5,49.4,60.2,49.1,60.3,48.5z"/>
		<g class="st10">
			<path class="st11" d="M56.6,46.7c-0.3-0.5-0.8-1.6-1.2-2c-0.1-0.1-0.2,0-0.1,0.1c0.4,0.4,0.9,1.5,1.2,2
				C56.5,46.9,56.6,46.8,56.6,46.7z"/>
			<path class="st11" d="M57.2,45.9c-0.3-0.4-0.5-0.8-0.8-1.3c-0.2-0.4-0.4-0.6-0.6-1c0-0.1-0.2,0-0.1,0.1c0.2,0.5,0.4,0.7,0.7,1.1
				c0.2,0.4,0.5,0.8,0.7,1.2C57.2,46.1,57.3,46,57.2,45.9z"/>
			<path class="st11" d="M57.9,45.5c-0.1-0.4-0.3-0.7-0.5-1c-0.2-0.3-0.4-0.6-0.5-1c0-0.1-0.1,0-0.1,0c0.1,0.3,0.3,0.6,0.5,0.9
				c0.2,0.4,0.4,0.7,0.6,1.1C57.8,45.6,57.9,45.6,57.9,45.5z"/>
		</g>
	</g>
	<g>
		<defs>
			<path id="SVGID_5_" d="M89.3,48c-0.2,0.4,0,0.9,0.4,1.1l1.2,0.7c-0.1-0.1,0.2-0.5,0.3-0.6c0.2-0.2,0.4-0.2,0.7-0.3
				c0.5-0.1,1.7-2,2.1-2.6c0.4-0.7,0.7-1.4,1-2.1c0.4-0.9-0.4-0.8-0.5-0.7c0.3-0.5,0.2-1.4-0.4-1.1c0.4-0.9-0.3-1.4-1-0.1
				c0.2-0.6-0.4-0.9-0.7-0.4c-0.7,1.2-1,2-1.5,2.9c-0.7,0.4-0.6-1.9-1.4-1.6c-0.6,0.2-0.1,2,0,4.2C89.4,47.6,89.4,47.8,89.3,48z"/>
		</defs>
		<clipPath id="SVGID_6_">
			<use xlink:href="#SVGID_5_"  style="overflow:visible;"/>
		</clipPath>
		<path class="st12" d="M88.8,48.6l2.1,1.2c-0.1-0.1,0.2-0.5,0.3-0.6c0.2-0.2,0.4-0.2,0.7-0.3c0.5-0.1,0.8-0.3,1.1-0.7
			c0.5-0.6,0.6-1.3,1-1.9c0.4-0.7,0.7-1.4,1-2.1c0.4-0.9-0.4-0.8-0.5-0.7c0.3-0.5,0.2-1.4-0.4-1.1c0.4-0.9-0.3-1.4-1-0.1
			c0.2-0.6-0.4-0.9-0.7-0.4c-0.7,1.2-1,2-1.5,2.9c-0.3-0.7-0.7-2.3-1.4-1.9c-0.7,0.4-0.1,3.9,0,4.5C89.5,47.9,89.2,48.2,88.8,48.6z"
			/>
		<g class="st13">
			<path class="st11" d="M93.1,45.6c0.3-0.5,0.8-1.6,1.2-2c0.1-0.1,0.2,0,0.1,0.1c-0.4,0.4-1,1.5-1.2,2C93.2,45.7,93,45.7,93.1,45.6
				z"/>
			<path class="st11" d="M92.6,44.7c0.2-0.4,0.4-0.8,0.7-1.2c0.2-0.3,0.4-0.7,0.5-1c0-0.1,0.2,0,0.1,0.1c-0.2,0.4-0.4,0.8-0.6,1.1
				c-0.2,0.4-0.4,0.7-0.6,1.1C92.7,44.9,92.6,44.8,92.6,44.7z"/>
			<path class="st11" d="M91.8,44.4c0.2-0.4,0.3-0.7,0.5-1c0.2-0.3,0.4-0.6,0.5-1c0-0.1,0.1-0.1,0.1,0c-0.1,0.3-0.3,0.6-0.5,0.9
				c-0.2,0.4-0.4,0.7-0.6,1.1C91.9,44.5,91.7,44.5,91.8,44.4z"/>
		</g>
	</g>
	<path class="st0" d="M63.4,63.7l-9,34.7c-0.1,0.5,0.2,1.1,0.7,1.2c0.9,0.2,2.4,0.5,4.2,0.9c0.5,0.1,1.1-0.3,1.1-0.8l4.9-35.4
		c0-0.2,0-0.5-0.1-0.6l-0.1-0.2C64.7,62.7,63.6,62.8,63.4,63.7z"/>
	<path class="st1" d="M79.5,62l-8.7-0.1c-0.3,0-0.6,0.1-0.8,0.4c-0.8,1.1-2.9,4.6-2.6,10.6c0,0.5,0.5,0.9,1,0.9
		c2.5-0.1,9.4,0,11.9,0.1c0.5,0,0.9-0.4,1-0.9c0.1-1.8,0.2-5.9-0.9-10.2C80.3,62.3,79.9,62,79.5,62z"/>
	<path class="st1" d="M79.7,61.8l8.8-13.7c0.3-0.4,0.8-0.6,1.3-0.3l1.4,0.8c0.5,0.3,0.6,0.8,0.4,1.3L82.2,67
		c-0.4,0.8-1.6,0.6-1.8-0.3l-0.8-4.2C79.5,62.2,79.5,62,79.7,61.8z"/>
	<path class="st1" d="M58.5,50l1.6-0.8c0.4-0.2,0.9-0.1,1.2,0.3l9.2,12.3c0.2,0.3,0.3,0.7,0.1,1.1c-0.5,0.8-1.4,2.5-2,4.3
		c-0.3,0.8-1.4,0.9-1.8,0.2l-8.8-16C57.8,50.8,58,50.2,58.5,50z"/>
	<path class="st14" d="M69.7,61.9c-0.8,0-1.3,0.9-0.8,1.5c0.8,1.1,2.4,2.3,6.3,2.2c3.7-0.1,5.2-1.2,5.8-2.2c0.4-0.6-0.1-1.4-0.8-1.4
		L69.7,61.9z"/>
	<path class="st15" d="M84.7,53.6l-0.1,2.3c0,0.8,0.8,1.3,1.5,0.9c1-0.6,2.1-1.4,2.2-2.6c0.2-2-1.8-2.6-3.3-1.1
		C84.8,53.2,84.7,53.4,84.7,53.6z"/>
	<path class="st15" d="M65.8,53.7c0-0.3-0.1-0.6-0.4-0.7c-1.8-1.3-4-1.2-3.5,1.7c0.3,1.7,1.6,2.6,2.6,3c0.6,0.3,1.3-0.2,1.3-0.9
		L65.8,53.7z"/>
	<path class="st16" d="M65.7,55.6c-0.4-1-1.9-2.6-2.8-1.3c-0.1,0.2,0.2,0.4,0.4,0.2c0.6-1,1.8,0.6,2.1,1.2
		C65.5,56,65.8,55.9,65.7,55.6z"/>
	<path class="st16" d="M87.4,54.2c-0.6-1.3-2.5-0.4-2.8,0.7c-0.1,0.2,0.3,0.3,0.4,0.1c0.2-0.7,1.6-1.5,2-0.6
		C87.2,54.5,87.5,54.4,87.4,54.2z"/>
	<path class="st17" d="M65.5,50.8c0,0-1.3,7.4,1.6,10.1c2.6,2.4,11.1,2.7,15.2,1c3.5-1.5,3.3-7.7,2.9-9.4c0,0-1-7-9.8-7.2
		C66.5,44.9,65.5,50.8,65.5,50.8z"/>
	<path class="st15" d="M74.9,54.4c-0.4,0.4-0.7,1-0.7,1.5c0,1.2,1.8,1.6,2.5,0.7c0.5-0.7,0.1-1.9-0.6-2.3
		C75.6,54,75.2,54.1,74.9,54.4z"/>
	<path class="st18" d="M72.7,58.5c0,0-0.2,1.4,1.6,1.4c1.8,0,3.5,0,3.8-0.3c0.3-0.3,0.7-1.5,0.7-1.5S74.1,58.9,72.7,58.5z"/>
	<path class="st1" d="M65.2,52.6c0,0.2,0,0.4,0.1,0.6c0.5,0.9,2.2,3.6,5.1,3.5c3.4-0.1,3.5-2,5.1-1.9c1.6,0,2.8,2,5.6,1.9
		c2.3-0.1,3.6-2.4,4-3.2c0.1-0.2,0.1-0.4,0.1-0.7l-0.1-0.5c-0.1-0.3-0.3-0.5-0.5-0.6c-0.7-0.3-2.2-0.8-4.3-0.8
		c-2.8,0.1-3.8,1.6-5,1.6c-1.2,0-2.6-1.5-5.2-1.7c-1.9-0.2-3.2,0.3-4.2,0.7c-0.3,0.1-0.6,0.4-0.6,0.8L65.2,52.6z"/>
	<path class="st19" d="M67.7,59.6c-0.3-0.4-0.4-1.1-0.3-1.5c0.3-0.7,1-1.1,1.8-1c0.3,0,0.8,0.3,1,0.6C71.5,59.3,68.9,61.3,67.7,59.6
		z"/>
	<path class="st19" d="M80.7,58.5c0.4-1.3,2.4-2.2,3.6,0.9c0.2,0.6-0.2,1.3-0.9,1.3C80.9,60.8,80.4,59.5,80.7,58.5z"/>
	<path class="st19" d="M78.9,57.7c-0.9,0.6-2.1,0.6-3.2,0.7c-1.2,0.1-2.4,0.1-3.5-0.4C72.1,57.9,72,58,72,58.1c0,0.1,0,0.1,0.1,0.2
		c0.5,0.4,0.5,1.3,1.1,1.6c1.1,0.5,2.4,0.5,3.5,0.3c0.5-0.1,1.1-0.1,1.5-0.5c0.4-0.4,0.5-1.1,0.8-1.5c0,0,0-0.1,0-0.1
		c0.1,0,0.1-0.1,0.2-0.1C79.3,57.8,79.1,57.5,78.9,57.7z M77.8,59.5c-0.7,0.6-4.2,0.6-4.7-0.1c-0.2-0.3-0.3-0.5-0.4-0.8
		c1,0.3,2,0.2,3.1,0.2c0.8,0,1.8-0.1,2.6-0.4C78.2,58.7,78.2,59.1,77.8,59.5z"/>
	<path class="st5" d="M66.1,51.8c0.4-0.4,0.8-1.1,1.1-1.8c0.2-0.5,0.8-0.8,1.3-0.5c0.2,0.1,0.6,0.2,1,0.1c1.6-0.3,1.8-2.8,1.8-2.8
		s0.5,1.1,1.2,1.1c0.2,0,0.4-0.1,0.5-0.3c0.4-0.5,1.2-0.4,1.6,0.2c0.9,1.5,2.2,3.4,3.5,3.1c2.2-0.5,0.9-2.9,0.9-2.9s1.9,4.7,3.7,4.2
		c0,0,0.2,0,0.4-0.1c0.4-0.2,0.9-0.1,1.2,0.2c0.4,0.4,0.9,0.8,1.6,0.8c3.2-0.1,3.1-9.1-8.7-10.1c-11-1-15.2,3.2-12.7,8.6
		C64.8,52.3,65.7,52.4,66.1,51.8z"/>
	<path class="st6" d="M68.3,74h12.3c0.5,0,0.9,0.4,1,0.8l0.1,1.1c0.1,0.6-0.4,1.1-1,1.1H68.2c-0.6,0-1-0.5-1-1l0.1-1.1
		C67.3,74.4,67.8,74,68.3,74z"/>
	<path class="st20" d="M70.1,50c-0.3-0.1-0.6,0-0.9,0.1c-0.3,0.1-0.6,0.2-0.7,0.5c-0.1,0.3,0.2,0.6,0.5,0.7c0.4,0,0.8,0,1.1-0.1
		c0.3-0.1,0.5-0.4,0.5-0.7C70.7,50.2,70.4,50,70.1,50z"/>
	<g>
		<path class="st21" d="M73,73.5l0.1,2.6c0,0.5,0.4,0.9,1,0.9h3c0.5,0,1-0.4,1-1v-2.6c0-0.5-0.4-1-1-1l-3,0.1
			C73.5,72.5,73,73,73,73.5z"/>
		<path class="st6" d="M74.4,75.2l0,0.4c0,0.5,0.5,0.9,1,0.5h0.5c0.6,0.5,1,0,1-0.6l0-0.4c0-0.5-0.5-0.9-1-1.1h-0.5
			C74.8,74.2,74.4,74.6,74.4,75.2z"/>
	</g>
	<g>
		<ellipse class="st14" cx="75" cy="69.5" rx="3" ry="2.5"/>
		<path class="st1" d="M75,70.6c-0.9,0-1.6-0.4-2.1-0.7c0,0,0.5,1.3,2.1,1.3c1.6,0,2.1-1.3,2.1-1.3C76.6,70.2,75.9,70.6,75,70.6z"/>
		<g>
			<circle class="st1" cx="73.5" cy="68.5" r="0.5"/>
			<circle class="st1" cx="76.5" cy="68.5" r="0.5"/>
		</g>
	</g>
	<path class="st2" d="M68.8,55.9c-1-0.6-1.5-2,0-2.5c1.1-0.4,3.3-0.1,3.4,1.4c0.1,1.2-1.8,1.4-2.7,1.3C69.3,56,69.1,56,68.8,55.9z"
		/>
	<path class="st6" d="M68.4,54.5c0-0.7,0.6-1,1.3-1c1.1,0,1.5,1.2,0.9,1.9C69.8,56.4,68.4,55.6,68.4,54.5z"/>
	<path class="st2" d="M81.7,55.6c1-0.6,1.5-2,0-2.5c-1.1-0.4-3.3-0.1-3.4,1.4c-0.1,1.2,1.8,1.4,2.7,1.3
		C81.2,55.8,81.5,55.8,81.7,55.6z"/>
	<path class="st18" d="M70.9,53.9C70.9,53.9,70.8,53.9,70.9,53.9c-0.2-0.2-0.5-0.2-0.7,0c-0.2,0.2-0.1,0.4,0,0.6
		c0,0,0.1,0.1,0.1,0.1c0.2,0.2,0.5,0.1,0.6,0C71.1,54.3,71,54.1,70.9,53.9z"/>
	<path class="st6" d="M78.9,54.4c0-0.7,0.6-1,1.3-1c1.1,0,1.5,1.2,0.9,1.9C80.2,56.3,78.9,55.5,78.9,54.4z"/>
	<path class="st18" d="M81.4,53.9C81.4,53.9,81.4,53.9,81.4,53.9c-0.2-0.2-0.5-0.2-0.7,0c-0.2,0.2-0.1,0.4,0,0.6
		c0,0,0.1,0.1,0.1,0.1c0.2,0.2,0.5,0.1,0.6,0C81.6,54.3,81.6,54.1,81.4,53.9z"/>
	<path class="st0" d="M67,102.4h4.5l-1,6.8h-7.8c0,0,0-0.2,0.1-0.3c0.6-0.4,1.5-0.8,2.2-1.2c1.2-0.7,1.6-1.4,1.6-1.4
		C66.5,105.8,67,102.4,67,102.4z"/>
	<path class="st0" d="M84.2,101.9h-5l1.5,6.8h7.6c0,0,0-0.2-0.2-0.3c-0.7-0.4-1.3-0.9-2-1.4c-1.3-0.8-1.6-1.2-1.6-1.2
		C84.3,105.3,84.2,101.9,84.2,101.9z"/>
</g>
</svg>
