<?xml version="1.0" encoding="utf-8"?>
<!-- Generator: Adobe Illustrator 21.1.0, SVG Export Plug-In . SVG Version: 6.00 Build 0)  -->
<svg version="1.1" id="Layer_2" xmlns="http://www.w3.org/2000/svg" xmlns:xlink="http://www.w3.org/1999/xlink" x="0px" y="0px"
	 viewBox="0 0 243 253" style="enable-background:new 0 0 243 253;" xml:space="preserve">
<style type="text/css">
	.st0{fill-rule:evenodd;clip-rule:evenodd;fill:#47C5D9;}
	.st1{fill-rule:evenodd;clip-rule:evenodd;fill:#FFFFFF;stroke:#47C5D9;stroke-width:5.1628;}
	.st2{fill:#E55A2F;}
</style>
<g>
	<g id="i3Po6A_3_">
		<g>
			<path class="st0" d="M229.8,133.2c0.2-2,0.4-4.8,0.6-7.6c0.8-0.1,1.4-0.1,2-0.2c5.7-0.9,10.5-6.2,10.6-11.7
				c0.1-5.3-4.6-10.9-9.9-11.8c-1.5-0.3-3.6,0-4.5-0.9c-1-1-0.9-3.1-1.3-4.7c-0.1-0.2,0-0.5-0.1-0.7c-0.8-1.7-0.1-2.5,1.5-3.3
				c4.8-2.3,7.6-7.4,6.9-12.1c-0.8-5-4.9-9.5-10.2-10.1c-2.5-0.3-5.1,0.4-7.9,0.7c-1.3-2.1-2.7-4.5-4-6.9c6.5-7.1,7.6-11.9,3.3-17.1
				c-1.7-2.1-4.4-3.8-6.9-4.8c-4.3-1.7-7.9,0.7-11.4,3.2c-2.2-2.1-4.3-4-6.4-5.9c5.4-7.6,2.9-13.8-1.3-17c-2.1-1.6-4.8-2.7-7.4-2.9
				c-4.8-0.4-8.2,2.7-10.9,6.5c-2.8-1.4-5.3-2.7-7.8-3.9c2.1-7.7-0.4-13.8-6.9-16.1c-2.2-0.8-5.1-0.8-7.4-0.2
				c-4.6,1.2-7.1,4.8-8.5,9.2c-2.9-0.5-5.7-0.9-8.4-1.3C132.5,5,128.4,0.4,122.1,0c-2.9-0.2-5.4,0.7-7.6,2.4
				c-3.6,2.8-5.1,6.5-5.1,11c-2.1,0.4-4.1,0.6-6,1c-1.7,0.3-2.6,0.1-3.3-1.8c-1.8-4.9-7-8.3-11.5-7.9c-5.1,0.3-9.9,4.1-11,9.3
				c-0.5,2.5-0.1,5.1-0.1,8.1c-1.3,0.6-3.2,1.4-4.9,2.5c-1.7,1.1-2.5,0.7-3.8-0.8c-3.1-3.8-7-5.8-12-4.3c-5.1,1.5-8.1,4.9-9,10.1
				c-0.6,3.6,1,6.6,3,9.5c-2.2,2-4.4,4-6.5,5.9c-6.8-5-12.6-5-17.2,0.2c-1.7,1.9-2.9,4.7-3.3,7.2c-0.8,4.8,2.2,8.2,5.7,11.1
				c-1.6,2.6-3,5.1-4.4,7.5c-7.7-2.7-14-0.4-16.8,6c-2.7,6.3,0,12,8.1,16.2c-0.5,2.1-1.2,4.1-1.4,6.1c-0.2,1.9-1,2.3-2.9,2.3
				c-7.7-0.1-13.8,7.7-11.6,14.8c1.6,5,5.1,7.9,10.3,8.9c0.7,0.1,1.8,0.8,1.8,1.3c0.3,2.4,0.4,4.9,0.5,7.4c-0.3,0.2-0.5,0.3-0.7,0.4
				c-6.1,1.1-11,7.5-9.8,13.7c1.3,6.7,7.1,10.4,14.7,9.6c0.5-0.1,1.5,0.4,1.7,0.8c1,2.3,1.9,4.7,2.8,7c-8.4,5.3-8.4,12.1-5.9,16.4
				c3.6,6.4,9,7.8,18,4.3c1.7,2.2,3.5,4.4,5.3,6.6c-5.4,7.1-5.6,12.7-0.7,17.6c5.1,5.2,10.2,4.9,18.3-1.3c2.3,1.6,4.7,3.2,7,4.9
				c-3.1,7.8-1.6,13.5,4.5,17.1c5.9,3.4,11,1.5,17.1-6.6c2.7,0.8,5.4,1.7,8.2,2.6c-1,4.1-0.2,7.7,2.5,10.5c1.7,1.8,2.3,3.4,1.5,5.7
				c-0.2,0.6-0.4,1.3-0.4,1.9c0,1.7-0.9,2.2-2.5,2.2c-5.5-0.1-11.1,0-16.6,0c-1.9,0-3.3,0.6-3.4,2.7c-0.1,2.1,1.3,2.9,3.2,2.9
				c6.9,0,13.9,0,20.8,0c2.4,0,3.4-1.3,3.7-3.5c0.3-2.3,0.7-4.7,1.1-7.1c6.1,0,10.8-2.5,12.6-8.1c1.1-3.4,2.6-4.2,5.7-3.6
				c0.2,0,0.3,0,0.5,0c2.4-0.4,4-0.1,4.4,3c0.2,1.7,1.6,3.4,2.9,4.8c2.6,3,6.1,4.1,10.2,4c0.5,2.5,1,4.9,1.3,7.3
				c0.3,2.3,1.5,3.3,3.8,3.3c6.8,0,13.5,0,20.3,0c2,0,3.5-0.7,3.5-2.9c-0.1-2.1-1.5-2.7-3.4-2.7c-4.8,0-9.6,0-14.4,0
				c-5.5,0-4.1,0.4-5.1-4.4c-0.3-1.2-0.6-3,0-3.7c3.3-3.5,4.9-7.4,3.8-12.3c2.9-0.9,5.6-1.7,8.3-2.6c5.1,7.6,10.4,9.8,16.2,7
				c6.5-3.2,8.2-8.6,5.4-17.5c2.3-1.6,4.7-3.2,7-4.8c6.6,5.8,12.1,6.5,17.3,2.2c2.3-1.9,3.9-4.3,4.4-7.3c0.7-4.4-1.2-8-4.2-11.1
				c1.9-2.4,3.7-4.6,5.5-6.8c0.8,0.4,1.3,0.8,1.9,1.1c5.3,2.7,11.3,1.2,15-3.7c3.5-4.7,3.5-11.1-1.2-14.7c-3.8-3-3.5-5.5-1.6-8.9
				c0.1-0.1,0.2-0.3,0.2-0.4c0.3-1.6,1.1-2,2.8-1.7c4.7,1.1,9.6-1.3,12.4-5.8c2.5-4.1,2.5-9-0.8-12.6
				C235.8,137,232.9,135.5,229.8,133.2z M231.6,107.3c3.5,0.3,5.7,2.7,5.7,6.3c0,3.3-2.1,5.8-5,6.1c-1.2,0.1-1.9-0.2-1.9-1.5
				c-0.2-3-0.4-6.1-0.7-9.1C229.5,107.5,230.3,107.2,231.6,107.3z M209.7,47.4c2.4,0.7,3.5,2.6,3.8,5c0.2,2.6-0.4,4.8-3.1,6.3
				c-2.6-3.2-5.1-6.3-7.7-9.7C204.9,46.7,207.3,46.7,209.7,47.4z M187.3,25.9c2.2,1.6,3.5,6.7,0.4,9.3c-3.3-2.3-6.7-4.5-10.1-6.9
				C179,24.3,184.7,24,187.3,25.9z M151.6,10.8c2.6-0.9,5.5-0.3,7,1.6c1.7,2.1,1.8,4.4,0.8,7c-4-1.2-7.8-2.4-11.6-3.6
				C147.9,13.1,149.3,11.6,151.6,10.8z M120.7,5.6c3.5-0.4,6.5,1.7,7,5.1c0.2,1.1,0.2,2.2-1.4,2.2c-3.5,0-7.1,0-10.7,0
				C115,8.7,116.9,6.1,120.7,5.6z M84.2,12.4c1.5-1.9,4.5-2.5,7-1.6c2.4,0.8,3.5,2.2,3.7,5.1c-3.8,1.2-7.6,2.4-11.7,3.6
				C82.6,16.9,82.5,14.6,84.2,12.4z M53.8,28.4c0.9-2.5,2.8-3.5,5.3-3.6c2.7-0.1,4.8,0.7,6.1,3.5c-3.5,2.4-6.8,4.7-10.2,7
				C53,33.2,52.9,30.8,53.8,28.4z M29.4,52.5c0.1-2.5,1.3-4.3,3.6-5c2.5-0.8,5-0.8,7.1,1.6c-2.7,3.3-5.2,6.4-7.7,9.6
				C29.8,57.3,29.3,55.1,29.4,52.5z M12.3,119.6c-2.8,0.3-4.8-0.6-5.9-3c-1.2-2.5-1.1-5,0.6-7.2c1.6-2,3.7-2.5,6.3-1.9
				C12.9,111.6,12.6,115.5,12.3,119.6z M8.5,148.7c-1.2-3.2,0-6.8,2.7-8.1c2.1-1,2.7-0.7,3.1,1.6c0.7,3.3,1.4,6.5,2.1,9.7
				C12.5,152.9,9.6,151.7,8.5,148.7z M15.8,87c-2.4-1.1-3.3-3.8-2.7-7c0.5-2.7,2.5-4.4,5.4-4.5c1.2-0.1,2.4,0.3,3.9,0.5
				c-1.5,4-2.8,7.4-4.2,10.8C18,87,16.5,87.2,15.8,87z M22.9,182c-2.4-1.3-3-3.6-2.8-6.1c0.2-2.4,1.3-4.2,3.9-5.1
				c2.1,3.5,4.1,7,6.2,10.7C27.7,183.4,25.3,183.3,22.9,182z M45.4,208.3c-2.3-0.3-3.9-1.6-4.6-3.9c-0.8-2.7-0.4-5,1.9-7.1
				c3.2,2.9,6.1,5.7,9.1,8.4C50.3,208.4,47.9,208.6,45.4,208.3z M75.1,226.8c-2.5,0.5-4.8,0-6.4-2.2c-1.6-2.2-1.5-4.7-0.3-7.5
				c3.9,1.9,7.5,3.6,11.2,5.4C79.1,225.1,77.5,226.4,75.1,226.8z M104.7,236.3c0.2-1.7,0.4-3.5,0.8-5.2c0.1-0.5,0.9-1.1,1.4-1.1
				c1.4,0,2.9,0.3,4.2,0.5C110.9,234.8,108.7,236.8,104.7,236.3z M108.3,224.1c-0.5-0.1-1.4-1.2-1.3-1.7c0.5-3.4,1.2-6.8,1.8-10.1
				h25.5c0.6,3.2,1.3,6.9,1.8,10.6c0,0.3-0.9,1.1-1.4,1.2C125.9,225.3,117.1,225.4,108.3,224.1z M121.3,141.3h0.6
				c3.8,21.5,7.6,43,11.4,64.8c-7.9,1.1-15.4,1-23.4,0.1C113.7,184.3,117.5,162.8,121.3,141.3z M116.2,123.3c0-3.3,2-5.2,5.2-5.3
				c3.3,0,5.4,2,5.4,5.3c0,3.3-2.1,5.3-5.5,5.2C118.1,128.5,116.2,126.6,116.2,123.3z M131.7,230.7c6.8-1.7,5.8-1.7,6.7,5.6
				C134.6,237,132.1,235,131.7,230.7z M138.8,204.9c-0.9-4.9-1.8-9.8-2.7-14.8c-3.2-18.3-6.4-36.7-9.7-55c-0.3-1.6,0.1-2.3,1.3-3.2
				c3.5-2.7,5.4-6.3,4.3-10.8c-1.1-4.4-4-7.3-8.5-8.5c-4.7-1.2-9.7,1.5-12,6.1c-2.1,4.3-1.3,9.3,2.8,12.4c2.1,1.6,2.4,3.2,2,5.6
				c-4,22.5-8,45-11.9,67.4c0,0.2-0.2,0.4-0.3,0.7c-30-4.3-67.2-34.2-67.9-82c-0.7-45.8,34.5-83.7,80.2-86.2
				c48.7-2.7,87.8,34,90.1,80.4C209,167.2,171.8,199.6,138.8,204.9z M172.9,225.9c-2.8,1.9-7.3,1.2-9-1.5c-0.5-0.9-1.1-1.8,0.3-2.4
				c0.3-0.1,0.6-0.3,0.9-0.4c3-1.4,6-2.8,9-4.3C176.1,220.2,175.5,224.1,172.9,225.9z M202.3,203.2c-0.3,2.8-1.9,4.5-4.3,5.1
				c-3,0.7-5.2-0.1-7-2.6c3-2.8,5.9-5.5,8.9-8.3C202.2,198.8,202.6,200.9,202.3,203.2z M222.8,175.7c0.5,2.6-0.8,5.2-2.8,6.4
				c-2.4,1.3-4.9,1.2-7.2-0.7c2-3.4,4-6.9,6-10.4C221.5,171.5,222.4,173.4,222.8,175.7z M217.5,159.7c-6.5,16.3-16.5,30.1-30,41.5
				c-11.5,9.7-24.7,16-38.9,20.3c-6.5,1.9-6.5,1.9-7.7-4.8c-0.3-1.9-0.7-3.7-1-5.7c47.6-9.5,79.1-57.2,71.4-103.5
				c-7.3-44-46.5-78.4-93.4-76.5c-43.4,1.7-79.4,34.5-86.1,76.6c-7.8,49,25.6,93.8,71.5,103.4c-0.7,3.7-1.2,7.4-2,11
				c-0.1,0.3-1.5,0.6-2.3,0.4c-9.3-1.6-17.7-5.4-26.1-9.6c-13.1-6.6-23.8-16.1-32.8-27.4c-11-14-18-30-20.6-47.8
				c-3.1-20.7-0.3-40.5,8.4-59.6c6.3-13.7,15.2-25.3,26.6-35c12.6-10.7,27-18.1,43.3-21.8c20.5-4.6,40.5-3.3,60.3,3.9
				c9.1,3.3,17.2,8.2,25,13.8c13,9.3,22.8,21.3,30.1,35.3c7.3,14.1,11.1,29.3,11.4,45.4C224.8,133.5,222.6,146.9,217.5,159.7z
				 M224.1,85c-1-2.3-1.8-4.7-2.9-7c-0.9-1.8-0.1-2.4,1.5-2.6c4.2-0.6,7.3,2,7.6,6.4c-0.5,1.3-0.8,2.8-1.7,3.9
				c-0.7,0.9-2,1.4-3.1,1.6C225.2,87.4,224.5,85.9,224.1,85z M234.8,146.5c-0.1,3-1.8,5.3-4.5,5.7c-1.2,0.2-2.5,0-4,0
				c0.9-4,1.6-7.6,2.5-11.1c0.1-0.4,1.4-0.9,2.1-0.7C233.4,140.9,234.9,143.4,234.8,146.5z"/>
		</g>
	</g>
	<circle class="st1" cx="121.8" cy="123.5" r="55.5"/>
	<g>
		<path class="st2" d="M105.3,130.2c0,5.9-3.9,11-10.4,10.7c-5.8-0.2-11.4-5.6-10-17.7c1.2-11.1,7.2-15,12.1-15
			c4.3,0,6.7,2.8,7.3,3.4l-3.4,3.2c-0.5-0.6-2.2-1.4-4.2-1.3c-3.3,0.1-5.6,3.9-6.2,9.8c0.8-0.7,3-2.6,6.2-2.6
			C101.2,120.6,105.3,124,105.3,130.2z M99.5,130.3c0-2.5-1.3-4.6-4.3-4.5c-2.5,0.1-4.1,1.6-4.7,2.6c-0.1,2.7,1.1,6.6,4.2,6.8
			C98,135.5,99.5,133,99.5,130.3z"/>
		<path class="st2" d="M128.4,130.2c0,5.9-3.9,11-10.4,10.7c-5.8-0.2-11.4-5.6-10-17.7c1.2-11.1,7.2-15,12.1-15
			c4.3,0,6.7,2.8,7.3,3.4l-3.4,3.2c-0.5-0.6-2.2-1.4-4.2-1.3c-3.3,0.1-5.6,3.9-6.2,9.8c0.8-0.7,3-2.6,6.2-2.6
			C124.3,120.6,128.4,124,128.4,130.2z M122.6,130.3c0-2.5-1.3-4.6-4.3-4.5c-2.5,0.1-4.1,1.6-4.7,2.6c-0.1,2.7,1.1,6.6,4.2,6.8
			C121.1,135.5,122.6,133,122.6,130.3z"/>
		<path class="st2" d="M138.6,121.4c-3.6,0-6.9-3-6.9-6.7c0-3.6,3.3-6.6,6.9-6.6c3.7,0,6.9,3,6.9,6.6
			C145.5,118.4,142.3,121.4,138.6,121.4z M160.1,108.4L140,140.5h-5.9l20.1-32.1H160.1z M138.6,117.1c1.5,0,2.4-1,2.4-2.4
			s-0.9-2.4-2.4-2.4c-1.5,0-2.4,1-2.4,2.4S137.1,117.1,138.6,117.1z M162.3,134.2c0,3.7-3.3,6.6-6.9,6.6c-3.6,0-6.9-2.9-6.9-6.6
			c0-3.7,3.3-6.7,6.9-6.7C159,127.6,162.3,130.6,162.3,134.2z M157.8,134.2c0-1.4-0.9-2.4-2.4-2.4c-1.5,0-2.4,1-2.4,2.4
			s0.9,2.4,2.4,2.4C156.9,136.6,157.8,135.6,157.8,134.2z"/>
	</g>
</g>
</svg>
