<?xml version="1.0" encoding="utf-8"?>
<!-- Generator: Adobe Illustrator 21.1.0, SVG Export Plug-In . SVG Version: 6.00 Build 0)  -->
<svg version="1.1" id="Layer_2" xmlns="http://www.w3.org/2000/svg" xmlns:xlink="http://www.w3.org/1999/xlink" x="0px" y="0px"
	 viewBox="0 0 202.6 270.6" style="enable-background:new 0 0 202.6 270.6;" xml:space="preserve">
<style type="text/css">
	.st0{fill-rule:evenodd;clip-rule:evenodd;fill:#47C5D9;}
	.st1{fill:#E55A2F;}
	.st2{fill:#47C5D9;}
</style>
<g>
	<path class="st0" d="M11.6,267.6L11.6,267.6c0-1.6,1.3-3,3-3h185c1.6,0,3,1.4,3,3l0,0c0,1.6-1.4,3-3,3h-185
		C13,270.6,11.6,269.2,11.6,267.6z"/>
	<g id="N30SOg_1_">
		<g>
			<path class="st0" d="M178.6,211.2h-2c-6.7,0-13.4,0-20,0c-0.8,0-1.8-0.4-2.4-0.9c-3.3-3.2-6.5-6.4-9.7-9.6
				c-0.4-0.4-0.8-0.9-0.9-1.4c-0.1-4.3,0-8.5,0-13h34.9v-57.6c-7.4,0-14.6,0-21.9,0c-1.2,0-2-0.3-2.8-1.2c-2-2.1-3.9-4.4-6.2-6.1
				c-3.3-2.6-4.6-5.8-4.1-9.9c0.3-2.5,0.1-5,0.1-7.6h2.1c5.4,0,10.8,0,16.3,0c2.2,0,3.5-1.1,3.5-2.9c0-1.8-1.3-2.9-3.4-3
				c-0.4,0-0.8,0-1.2,0c-10.7,0-21.4,0-32.2,0c-34.3,0-68.7,0-103,0c-6.1,0-10.6,4.4-10.6,10.6c0,32.9,0,95.8,0,128.7
				c0,6.1,4.4,10.4,10.4,10.5c2.4,0,4.8,0,7.1,0c1.9,10.4,7.5,16.3,16.1,16.9c3.5,0.2,6.8-0.8,9.7-2.7c5-3.4,7.6-8.1,8-14.1h66.3
				c0.7,10.5,9,16.5,16.2,16.8c8.7,0.4,15.1-5.7,17.6-17c0.5,0,1.1,0,1.6,0c6.1,0,10.4-4.4,10.5-10.5c0-8,0-16,0-24
				C178.6,212.6,178.6,212,178.6,211.2z M146.8,211H113v-24.7h24.7v2.5c0,3.8,0,7.6,0,11.5c0,1.2,0.3,2.1,1.2,3
				C141.4,205.7,143.9,208.2,146.8,211z M113,103.8h24.6c0,0.6,0.1,1.2,0.1,1.8c0,4.2-0.1,8.3,0.1,12.5c0,0.9,0.5,1.9,1,2.5
				c2.4,2.6,5,5.1,7.8,7.9H113V103.8z M82.3,103.8H107v24.6H82.3V103.8z M172.8,134.5v45.8H20.9v-45.8H172.8z M82.2,186.4h24.8v24.7
				h-6.8c-5.5,0-10.9,0-16.4,0c-0.7,0-1.6,0.2-1.6-1C82.2,202.3,82.2,194.4,82.2,186.4z M76.2,186.4V211H51.7v-24.6H76.2z
				 M45.7,186.4V211H21v-24.6H45.7z M51.7,103.8h24.6v24.7H51.7V103.8z M20.9,126.8c0-6.2,0-12.4,0-18.6c0-3.3,1.1-4.5,4.4-4.5
				c6.3,0,12.6,0,19,0c0.4,0,0.9,0.1,1.5,0.1v24.6H20.9V126.8z M49.5,258.8c-6.3,0-10.8-4.5-10.8-10.9c0-6.4,4.5-10.9,10.9-10.9
				c6.4,0,10.9,4.5,10.9,10.8C60.5,254.2,55.9,258.8,49.5,258.8z M149.5,258.8c-6.3,0-10.9-4.6-10.9-10.9c0-6.5,4.6-11,11-10.9
				c6.3,0,10.8,4.6,10.8,11C160.4,254.2,155.8,258.8,149.5,258.8z M172.7,238.3c-0.1,2.3-1.3,3.4-3.6,3.5c-0.1,0-0.2,0-0.3,0
				c-2.4,0.4-3.9-0.4-5.4-2.7c-7-11.1-22.3-10.3-28.6,1.2c-0.6,1.2-1.4,1.5-2.6,1.5c-21.8,0-43.7,0-65.5,0c-1.2,0-1.8-0.3-2.4-1.4
				c-3.2-5.7-8.1-9.2-14.7-9.2c-6.7,0-11.5,3.5-14.8,9.2c-0.6,1.1-1.3,1.5-2.5,1.5c-2.5-0.1-5,0-7.5,0c-2.6,0-3.8-1.2-3.9-3.8
				c0-1.1,0-2.2,0-3.5c1.8,0,3.4,0,5.1,0c2.3,0,3.7-1.2,3.7-2.9c0-1.8-1.4-2.9-3.7-2.9c-1.5,0-3.1,0-4.6,0c-0.1,0-0.2-0.1-0.4-0.2
				v-11.4h151.7v7.2c-1.8,0-3.5,0-5.2,0c-2.1,0-3.5,1.2-3.5,2.9c0,1.7,1.4,2.9,3.5,2.9c1.7,0,3.4,0,5.3,0
				C172.7,233,172.8,235.6,172.7,238.3z"/>
			<rect x="120.3" y="222.9" class="st0" width="5.6" height="8.6"/>
		</g>
	</g>
	<g>
		<path class="st1" d="M67.1,141v32.1h-5.7V151c-1,1.1-3.6,2.2-5.5,2.3v-3.8c3.3-1.5,5.1-5.1,5.5-8.5H67.1z"/>
		<path class="st1" d="M90.4,173.1H71.9c0-6.2,3.8-10.9,5.6-13.1c3.6-4.5,4.8-5.6,5.8-7.8c1.5-3.2,0.3-5.8-2-5.9
			c-2.1-0.1-3.8,1.8-4.3,4.3l-5.1-1.1c0.8-4.8,4.2-8.7,9.4-8.7c7.4,0,10,6.9,7.6,12.7c-1.2,3-3.2,5.1-6.2,8.8
			c-1.7,2.1-2.8,3.6-3.5,5.1h11.3V173.1z"/>
		<path class="st1" d="M113.8,157.1c0,10.1-3.9,16.3-10.3,16.3c-6.4,0-10.3-6.3-10.3-16.3c0-10.1,3.9-16.3,10.3-16.3
			C109.9,140.8,113.8,147,113.8,157.1z M108.1,157.1c0-1.8-0.3-10.8-4.6-10.8c-4.3,0-4.6,9-4.6,10.8s0.3,10.7,4.6,10.7
			C107.8,167.9,108.1,158.9,108.1,157.1z"/>
		<path class="st1" d="M137.2,157.1c0,10.1-3.9,16.3-10.3,16.3c-6.4,0-10.3-6.3-10.3-16.3c0-10.1,3.9-16.3,10.3-16.3
			C133.3,140.8,137.2,147,137.2,157.1z M131.5,157.1c0-1.8-0.3-10.8-4.6-10.8c-4.3,0-4.6,9-4.6,10.8s0.3,10.7,4.6,10.7
			C131.2,167.9,131.5,158.9,131.5,157.1z"/>
	</g>
	<g>
		<g>
			<g>
				<path class="st2" d="M54.6,26c-3.6-3.6-8.7-6-14.3-6S29.6,22.3,26,26c-3.6,3.6-6,8.7-6,14.3s2.3,10.7,6,14.3
					c3.6,3.6,8.7,6,14.3,6s10.7-2.2,14.3-6c3.6-3.6,6-8.7,6-14.3S58.3,29.6,54.6,26z M50.7,50.7c-2.7,2.7-6.4,4.3-10.4,4.3
					s-7.8-1.6-10.4-4.3s-4.3-6.4-4.3-10.4s1.6-7.8,4.3-10.4s6.4-4.3,10.4-4.3s7.8,1.6,10.4,4.3S55,36.2,55,40.3S53.4,48.1,50.7,50.7
					z"/>
			</g>
		</g>
		<g>
			<g>
				<path class="st2" d="M77.8,37.5h-8.2c-1.5,0-2.8,1.3-2.8,2.8c0,1.5,1.3,2.8,2.8,2.8h8.2c1.5,0,2.8-1.3,2.8-2.8
					S79.3,37.5,77.8,37.5z"/>
			</g>
		</g>
		<g>
			<g>
				<path class="st2" d="M40.3,66.8c-1.5,0-2.8,1.3-2.8,2.8v8.2c0,1.5,1.3,2.8,2.8,2.8c1.5,0,2.8-1.3,2.8-2.8v-8.2
					C43.1,68.1,41.8,66.8,40.3,66.8z"/>
			</g>
		</g>
		<g>
			<g>
				<path class="st2" d="M68.8,64.9l-5.9-5.9c-1-1.1-2.8-1.1-3.8,0c-1.1,1.1-1.1,2.8,0,3.8l5.9,5.9c1.1,1.1,2.8,1.1,3.8,0
					C69.8,67.7,69.8,66,68.8,64.9z"/>
			</g>
		</g>
		<g>
			<g>
				<path class="st2" d="M40.3,0c-1.5,0-2.8,1.3-2.8,2.8V11c0,1.5,1.3,2.8,2.8,2.8c1.5,0,2.8-1.3,2.8-2.8V2.8
					C43.1,1.3,41.8,0,40.3,0z"/>
			</g>
		</g>
		<g>
			<g>
				<path class="st2" d="M68.9,11.8c-1.1-1.1-2.8-1.1-3.8,0l-5.9,5.9c-1.1,1.1-1.1,2.8,0,3.8c1,1.1,2.8,1.1,3.8,0l5.9-5.9
					C69.9,14.6,69.9,12.9,68.9,11.8z"/>
			</g>
		</g>
		<g>
			<g>
				<path class="st2" d="M11,37.5H2.8c-1.5,0-2.8,1.3-2.8,2.8s1.2,2.8,2.8,2.8H11c1.5,0,2.8-1.3,2.8-2.8S12.5,37.5,11,37.5z"/>
			</g>
		</g>
		<g>
			<g>
				<path class="st2" d="M21.4,59.1c-1-1.1-2.8-1.1-3.8,0l-5.9,5.9c-1.1,1.1-1.1,2.8,0,3.8c1.1,1.1,2.8,1.1,3.8,0l5.9-5.9
					C22.5,61.8,22.5,60.1,21.4,59.1z"/>
			</g>
		</g>
		<g>
			<g>
				<path class="st2" d="M21.4,17.7l-5.9-5.9c-1.1-1.1-2.8-1.1-3.8,0s-1.1,2.8,0,3.8l5.9,5.9c1.1,1.1,2.8,1.1,3.8,0
					S22.5,18.8,21.4,17.7z"/>
			</g>
		</g>
	</g>
</g>
</svg>
