<?xml version="1.0" encoding="utf-8"?>
<!-- Generator: Adobe Illustrator 21.1.0, SVG Export Plug-In . SVG Version: 6.00 Build 0)  -->
<svg version="1.1" id="Layer_1" xmlns="http://www.w3.org/2000/svg" xmlns:xlink="http://www.w3.org/1999/xlink" x="0px" y="0px"
	 viewBox="0 0 107.8 254.2" style="enable-background:new 0 0 107.8 254.2;" xml:space="preserve">
<style type="text/css">
	.st0{fill:#47C5D9;}
	.st1{enable-background:new    ;}
	.st2{fill:#E55A2F;}
</style>
<g id="Layer_1_1_">
</g>
<g id="Layer_2">
	<g>
		<g id="WXjFSb_1_">
			<g>
				<path class="st0" d="M100,197.9c1.8,0,3.7-0.1,5.5,0c1.9,0.1,2.4-0.6,2.4-2.4c0-29.1,0-58.1,0-87.2c0-1.8-0.6-2.4-2.4-2.4
					c-3.5,0.1-3.5,0-3.5,3.4c0,0.6,0,1.2,0,1.8c0,5,0,4.9-5,5c-1.9,0-2.5-0.5-2.5-2.5c0.1-10.7,0-21.4,0.1-32.1
					c0-1.9-0.6-2.7-2.5-2.4c-1.6,0.2-3.7-0.7-3.5,2.4s0.1,6.1,0,9.2c0,0.5-0.3,1.1-0.7,1.4c-0.2,0.1-1-0.2-1.3-0.5
					C81.7,86.4,78.2,80.4,78,73c-0.2-6.3,0-12.6,0-18.9c0-9.1,0-18.2,0-27.2c0-1.8-0.6-2.6-2.4-2.4c-1.1,0.1-2.1,0-3.6,0V33
					c-0.3,0.1-0.5,0.1-0.8,0.2C60.9,24.7,57.3,12.5,53.9,0c-1.2,3.9-2.2,7.6-3.4,11.2c-2.4,7.2-5.7,13.9-11.1,19.5
					c-1,1-2.1,1.8-3.7,3.1c0-2.9,0-5,0-7.1c0-0.6-0.2-1.7-0.4-1.8c-1.5-0.2-3.1-0.4-4.5-0.1c-0.4,0.1-0.8,1.7-0.8,2.6
					c-0.1,14.9,0,29.9-0.1,44.8c0,7.7-3.6,13.9-8.7,19.3c-0.3,0.4-1,0.5-1.5,0.7c-0.2-0.5-0.6-1-0.6-1.5c-0.1-3.1-0.2-6.2,0-9.2
					c0.1-2.2-0.9-2.4-2.6-2.3c-1.6,0.1-3.3-0.5-3.3,2.4c0.2,9.7,0.1,19.5,0.1,29.2c0,5.9,0,5.9-5.9,5.3c-0.6-0.1-1.4-1-1.5-1.5
					c-0.2-1.9-0.2-3.8,0-5.7c0.1-1.9-0.2-3-2.6-2.9C0,106.2,0,106,0,108.7c0,10,0,20.1,0,30.1c0,18.8,0,37.6,0,56.4
					c0,2.1,0.6,2.8,2.7,2.7c2.5-0.2,5.1,0,8,0 M19.3,197.8c22.9,0.1,45.8,0,68.7,0h3 M53.9,17.4c2.7,5,5.6,10.4,8.6,15.9H45.3
					C48.3,27.9,51.2,22.5,53.9,17.4z M37.7,39.3c5.4,0,10.8,0,16.2,0l0,0c5.3,0,10.5,0.1,15.8,0c1.8,0,2.4,0.6,2.4,2.4
					c-0.1,6.7-0.1,13.3,0,20c0,1.9-0.6,2.8-2.5,2.5c-0.6-0.1-1.2-0.1-1.8,0c-1.7,0.1-2.3-0.7-2.2-2.4c0.1-3.6,0-7.2,0-10.8
					c0-1.5-0.3-3-2.1-3c-1.8,0-2.1,1.5-2.1,3c0,3.6-0.1,7.2,0,10.7c0.1,2.2-1.1,2.3-2.7,2.3c-1.7,0-3,0-2.9-2.4
					c0.2-3.5,0-7,0.1-10.5c0-1.6-0.1-3.2-2.1-3.2s-2.1,1.7-2.1,3.2c0,3.5-0.1,7,0,10.5c0.1,2.4-1.3,2.3-3,2.3
					c-1.8,0.1-2.7-0.3-2.6-2.4c0.1-3.7,0-7.3,0.1-11c0-1.6-0.6-2.7-2.2-2.7c-1.5,0-2,1.2-2,2.6c0,3.6-0.1,7.2,0,10.8
					c0.1,2.1-0.8,2.9-2.8,2.7c-0.7-0.1-1.4,0.2-1.9-0.1c-0.6-0.3-1.5-1-1.5-1.5c-0.1-7.2,0-14.5-0.1-21.7
					C35.7,39.4,36.6,39.3,37.7,39.3z M29.8,90.3c3.6-5.6,6.2-11.6,5.9-18.5c-0.1-1.3,0.5-1.8,1.8-1.8c11,0,22,0,32.9,0
					c1.2,0,1.8,0.3,1.7,1.6c-0.3,7.1,2.3,13.3,6.2,19c0.3,0.4,0.4,0.9,0.6,1.5H28.8C29.2,91.4,29.5,90.8,29.8,90.3z M21.7,98.2
					c10.8,0.1,21.5,0,32.3,0l0,0c10.8,0,21.5,0,32.3,0c1.9,0,2.6,0.6,2.5,2.5c-0.1,4.4-0.1,8.8,0,13.2c0,1.7-0.5,2.4-2.3,2.3
					c-2.6-0.1-5.1-0.1-7.7,0c-2,0.1-2.6-0.7-2.5-2.6c0.1-1.5,0-2.9,0-4.4s-0.7-2.5-2.2-2.8c-1.7-0.3-3,0.4-3.3,2.1
					c-0.3,1.9-0.3,3.8-0.3,5.7c0,1.3-0.3,2-1.8,2c-3.3-0.1-6.6-0.1-9.9,0c-1.4,0-2-0.5-1.9-1.9c0.1-1.6,0.1-3.2,0-4.8
					c-0.1-2-1.2-3.1-3-3c-1.9,0.1-2.8,1.1-2.8,3c0,1.6-0.1,3.2,0,4.8c0,1.4-0.4,2-1.9,2c-3.4-0.1-6.7-0.1-10.1,0
					c-1.3,0-1.8-0.6-1.8-1.8c0-1.7,0-3.4,0-5c0-1.7-0.8-2.8-2.6-2.9c-1.9-0.2-2.9,1-3.1,2.7c-0.2,1.6-0.2,3.2-0.1,4.8
					c0.1,1.6-0.3,2.4-2.2,2.3c-2.7-0.1-5.4-0.1-8.1,0c-1.4,0-2-0.5-2-1.9c0-4.5,0.1-9.1,0-13.6C19,98.6,19.8,98.1,21.7,98.2z
					 M99.4,191.9c-7-0.1-14,0-21,0c-7.9,0-15.8-0.1-23.7-0.1c-6.7,0-13.3,0.1-19.9,0.1c-8,0-15.9,0-23.9-0.1c-1.6,0-3.2,0-5,0v-2.7
					c0-21.4,0-42.9,0-64.3c0-2.2,0.6-2.9,2.8-2.9c30.2,0.1,60.4,0.1,90.7,0c2.1,0,2.7,0.6,2.7,2.7c-0.1,21.6-0.1,43.2,0,64.8
					C102.1,191.5,101.3,191.9,99.4,191.9z"/>
				<path class="st0" d="M82.4,155.4c-0.5-14.4-13.7-27.3-28.7-26.9c-16.6,0.3-28.8,14.1-28.2,29.9c0.5,14.7,13.4,27.1,28.6,26.9
					C69,185.6,83,172.5,82.4,155.4z M53.9,179.4c-11.2,0.5-22.5-9-22.5-22.4c-0.1-12.4,10.1-22.7,22.5-22.8
					c12.3,0,22.7,10.3,22.7,22.6C76.5,169.5,66.5,179.4,53.9,179.4z"/>
			</g>
		</g>
		<g class="st1">
			<path class="st2" d="M64.1,158c-1.3,11.1-6.7,15-11.6,15c-4.3,0-7.1-2.8-7.7-3.4l3.3-3.3c0.4,0.4,1.6,1.7,4.2,1.6
				c3.4-0.1,5.7-4,6.2-10c-0.8,0.8-3,2.6-6.2,2.6c-4.4,0-8.5-3.4-8.5-9.6c0-5.8,3.8-10.9,10.3-10.7C60,140.6,65.6,145.9,64.1,158z
				 M58.6,152.9c0-3-1-6.7-4-7c-3.3-0.3-5,2.2-5,5c0,2.5,1.3,4.6,4.4,4.5C56.4,155.3,57.9,153.9,58.6,152.9z"/>
		</g>
		<path class="st0" d="M93.8,254.2L93.8,254.2c-1.7,0-3-1.4-3-3v-55c0-1.6,1.3-3,3-3l0,0c1.6,0,3,1.3,3,3v55
			C96.8,252.8,95.5,254.2,93.8,254.2z"/>
		<path class="st0" d="M13.8,254.2L13.8,254.2c-1.7,0-3-1.4-3-3v-55c0-1.6,1.3-3,3-3l0,0c1.6,0,3,1.3,3,3v55
			C16.8,252.8,15.5,254.2,13.8,254.2z"/>
		<path class="st0" d="M34.8,245.2L34.8,245.2c-1.7,0-3-1.4-3-3v-29c0-1.6,1.4-3,3-3l0,0c1.7,0,3,1.3,3,3v29
			C37.8,243.8,36.5,245.2,34.8,245.2z"/>
		<path class="st0" d="M54.3,245.2L54.3,245.2c-1.7,0-3-1.4-3-3v-29c0-1.6,1.3-3,3-3l0,0c1.7,0,3,1.3,3,3v29
			C57.3,243.8,56,245.2,54.3,245.2z"/>
		<path class="st0" d="M73.8,245.2L73.8,245.2c-1.7,0-3-1.4-3-3v-29c0-1.6,1.3-3,3-3l0,0c1.6,0,3,1.3,3,3v29
			C76.8,243.8,75.5,245.2,73.8,245.2z"/>
	</g>
</g>
</svg>
