<?xml version="1.0" encoding="utf-8"?>
<!-- Generator: Adobe Illustrator 21.1.0, SVG Export Plug-In . SVG Version: 6.00 Build 0)  -->
<svg version="1.1" id="lineart" xmlns="http://www.w3.org/2000/svg" xmlns:xlink="http://www.w3.org/1999/xlink" x="0px" y="0px"
	 viewBox="0 0 94 101.6" style="enable-background:new 0 0 94 101.6;" xml:space="preserve">
<style type="text/css">
	.st0{fill:#E55A2F;}
</style>
<g>
	<g>
		<path class="st0" d="M38.3,92.8c-1.7-0.5-2.8,0.4-4,1.4c-0.2,0.2-0.9,0.3-1.4,0.5c-0.8,0.2-1.5,0.3-1.8,1.1
			c-0.8,2.1,1.9,3.8,3.7,3.8c2.4,0,5.7-1.4,5.5-4.2C40.2,94.2,39.5,93.2,38.3,92.8z"/>
		<path class="st0" d="M92,42.6c-2.3,2.4-4.1,5.3-5.8,8.2c-0.2,0-0.4,0-0.5,0.1c-4.2,0.8-7.6,6-10.7,8.7c-3.8,3.3-7.8,6.3-11.8,9.4
			c-8,6.1-17.4,12.2-23,20.7c-0.7,1,0.2,2.5,1.3,2.5c-1.2,1.3-2.4,2.6-3.3,4c-2.1,3.1,2,6.7,5,5c3.3-1.9,5.9-4.8,8.7-7.4
			c2.4-2.2,4.9-4.4,7.3-6.6c5.4-4.7,11-8.9,16.8-13c9.8-7.1,18.1-18.1,18.1-30.8C93.9,42.4,92.7,41.9,92,42.6z"/>
		<path class="st0" d="M24.9,81.4c-3.6,0.1-7.1,0.9-10.6,0.9c-3.3,0.1-6.6-0.1-9.9,0.2c-1.6,0.2-3.1,1.9-2,3.5
			c1.9,3,6.5,3.3,9.8,3.6c4.4,0.4,9.5,0.3,13.7-1.1C29.7,87.4,29.2,81.2,24.9,81.4z"/>
		<path class="st0" d="M80.5,70.7c-1.4-2-4.1-2.1-5.5,0c-1.5,2.3-1.2,4.6-1.2,7.3c0,1.3-0.4,3-0.1,4.2c-0.1,0.3-0.1,0.5-0.1,0.7
			c-0.3,0.1-0.6,0.1-0.9,0.2c-6,1-12.6,0.4-18.4,2.2c-1.5,0.5-2,2.7-0.5,3.5c3.5,1.9,7.7,2.3,11.6,2.4c3.7,0.1,8.5,0.3,12-1.2
			c3.1-1.3,3.9-4,4.2-7.1C81.8,79.2,82.8,73.9,80.5,70.7z"/>
		<path class="st0" d="M80.1,24.1c-0.4-3.9-0.2-9.5-3.3-12.3c-0.4-0.4-1.1-0.5-1.6,0c-2.8,3-2.3,8.4-2.5,12.3
			c-0.2,5.4-0.2,10.7-0.1,16.1c0.1,5.2,7.9,5.2,8,0C80.8,34.8,80.6,29.4,80.1,24.1z"/>
		<path class="st0" d="M16.2,6.8c-0.9-0.2-2-0.1-2.8,0.4c-1.2,0.7-1.6,1.8-1.8,3.1c0-0.3,0.1-0.8,0-0.2c0,0.1-0.1,0.3-0.1,0.4
			c-0.1,0.3-0.2,0.6-0.3,0.9c-0.1,0.1-0.1,0.3-0.2,0.4c-0.3,0.5-0.4,1.1-0.4,1.7c-0.1,0.9,0.7,1.7,1.5,2c1.2,0.4,2.5-0.2,3.5-0.8
			c1.2-0.7,1.9-1.6,2.7-2.6C19.7,10.2,18.2,7.4,16.2,6.8z"/>
		<path class="st0" d="M29.5,9.2c-1.4-0.7-2.9-0.5-4.1,0.5c-0.4,0.4-0.6,0.8-0.9,1.3c-0.1,0.3-0.2,0.6-0.2,0.9l0-0.2
			c0,0.1,0,0.3-0.1,0.4c-0.1,0.6-0.1,1.1,0,1.7c0,0.2,0.1,0.4,0.1,0.5c0.2,1,1.3,1.7,2.2,1.7c0.8,0,1.6-0.1,2.2-0.6
			c1-0.6,1.9-1.4,2.2-2.6C31.3,11.6,30.8,9.9,29.5,9.2z"/>
		<path class="st0" d="M43.9,11c-0.5-0.8-1.4-1.6-2.4-1.8c-1-0.2-2.2-0.2-3.1,0.4c-0.3,0.2-0.5,0.4-0.8,0.6c-0.5,0.5-0.8,1.1-1,1.8
			c-0.1,0.3-0.2,0.6-0.3,0.9c-0.2,0.4-0.4,0.8-0.5,1.2c-0.2,1.1-0.1,2.1,0.6,3c0.6,0.8,1.6,1.4,2.7,1.3c0.8-0.1,1.5-0.2,2.2-0.6
			c0.4-0.3,0.8-0.6,1.2-1c0.8-0.7,1.5-1.7,1.8-2.7C44.6,13.1,44.4,11.9,43.9,11z"/>
		<path class="st0" d="M55.9,10.6c-1.2-0.7-2.7-0.6-3.8,0.3c-1.2,0.9-1.7,2.6-1.1,4c0,0.2,0.1,0.5,0.1,0.7c0.2,0.7,0.7,1.3,1.4,1.5
			c0.7,0.3,1.4,0.2,2.1-0.1c0.2-0.1,0.3-0.2,0.5-0.2c0.4-0.1,0.7-0.3,1.1-0.6c0.6-0.5,1-1.1,1.2-1.8C57.9,13,57.3,11.3,55.9,10.6z"
			/>
		<path class="st0" d="M67.1,11.7c-2.3-1.4-4.8,0.6-6.1,2.5c-0.5,0.8-0.4,1.8,0,2.6c0.5,0.8,1.3,1.2,2.2,1.3
			c0.8,0.1,1.6-0.1,2.4-0.3c0.4-0.1,1-0.3,1.4-0.6c0.5-0.3,0.8-0.7,1.1-1.1c0.3-0.5,0.4-1.1,0.4-1.7C68.7,13.2,67.9,12.2,67.1,11.7z
			"/>
		<path class="st0" d="M57.2,27.7c-3.8-1.3-8.3-0.8-12.2-0.6c-3.6,0.1-7.3,0-10.5,1.5c-0.5,0.2-0.5,1.1,0,1.4
			c3.2,1.6,7,1.5,10.5,1.9c4,0.4,8.3,1.4,12.2,0.6C59.7,32,59.3,28.4,57.2,27.7z"/>
		<path class="st0" d="M57.7,37.9c-3.9-1.2-8.8-0.2-12.8,0.2c-3.6,0.3-7.7,0.4-11,2c-0.5,0.2-0.5,1.1,0,1.4c3.4,1.4,7.4,1.3,11,1.5
			c4,0.2,8.9,1,12.8-0.4C59.9,41.8,60.1,38.6,57.7,37.9z"/>
		<path class="st0" d="M56.6,49.1c-3-1.7-6.7-1-10.1-0.8c-3.6,0.2-7.2,0.6-10.8,1.2c-1.3,0.2-1.3,2.3,0,2.6
			c3.6,0.7,7.2,1.1,10.8,1.4c3.4,0.3,7,1,10.1-0.6C58.1,52.1,58,49.9,56.6,49.1z"/>
		<path class="st0" d="M52.8,59.2c-1.7-2.1-4.4-1.5-6.8-1.3c-2.9,0.2-5.7,1-8.6,1.3c-1.8,0.2-1.9,3,0,2.9c2.9-0.2,5.8,0.3,8.6,0.7
			c2.6,0.3,4.7,1.1,6.8-0.7C53.7,61.2,53.5,60,52.8,59.2z"/>
		<path class="st0" d="M43.2,69.5c-1.8-2.9-5.7-0.9-8.4-0.7c-2.2,0.2-2.2,3.3,0,3.5c2.7,0.2,6.5,2.1,8.4-0.7
			C43.6,71,43.6,70.1,43.2,69.5z"/>
		<path class="st0" d="M90.7,43.4C90.6,43.4,90.6,43.3,90.7,43.4c0.1,0.1,0.2,0.3,0.3,0.4c-0.4-0.6-0.9-1-1.6-1.2
			c-0.3-0.1-0.6-0.1-0.8-0.1c-0.1,0-0.1-0.1-0.2-0.1c-0.2-0.1-0.2-0.2,0.1,0.1c-0.7-0.6-1.9-0.8-2.6,0c-0.6,0.7-0.9,1.5-0.7,2.5
			c0.1,0.6,0.4,1,0.7,1.5c0.5,0.6,1.1,1.1,1.9,1.3c0.9,0.2,2,0.1,2.7-0.7c0.4-0.4,0.6-0.8,0.7-1.3C91.6,44.9,91.2,44,90.7,43.4z"/>
	</g>
	<g>
		<g>
			<path d="M24.4,84.6C24.4,84.6,24.3,84.6,24.4,84.6c-5.9-0.5-10.1-0.6-16.1-0.6c-1.5,0-3,0-4.5,0l-1.5,0c-0.6,0-1.1-0.5-1.1-1
				C1,77.5,0.8,72,0.6,66.7C0.3,58.7,0,50.5,0,42.3c0-4.6,0.1-6.8,0.1-9.1c0.1-2.4,0.2-4.9,0.2-10.5l0-3.9c0-3.8,0-7.1,0.2-10.3
				c0-0.6,0.5-1,1-1c2.1,0,4.3-0.1,6.9-0.2c0.6,0,1.1,0.4,1.1,1c0,0.6-0.4,1.1-1,1.1c-2.2,0.1-4.2,0.1-6,0.2
				c-0.1,2.9-0.1,5.8-0.1,9.2l0,3.9c0,5.7-0.1,8.2-0.2,10.6c-0.1,2.3-0.1,4.4-0.1,9c0,8.1,0.3,16.3,0.6,24.3
				c0.2,5,0.4,10.1,0.5,15.2l0.5,0c1.5,0,3,0,4.6,0c6.2,0,10.4,0.1,16.2,0.6c0.6,0.1,1,0.6,1,1.2C25.4,84.2,24.9,84.6,24.4,84.6z"/>
		</g>
		<g>
			<path d="M12.5,9.3c-0.6,0-1-0.4-1.1-1c0-0.6,0.4-1.1,1-1.1c1.6-0.1,2.9-0.1,4.1-0.2c1.5-0.1,2.9-0.1,4.8-0.2c0.6,0,1.1,0.4,1.1,1
				c0,0.6-0.4,1.1-1,1.1c-1.9,0.1-3.3,0.1-4.7,0.2C15.5,9.2,14.2,9.3,12.5,9.3C12.6,9.3,12.6,9.3,12.5,9.3z"/>
		</g>
		<g>
			<path d="M24.9,8.8c-0.6,0-1-0.5-1.1-1c0-0.6,0.4-1.1,1-1.1c3.6-0.1,6.8-0.2,9.8-0.2l0.5,0c0.6,0,1.1,0.5,1.1,1.1
				c0,0.6-0.5,1.1-1.1,1.1c0,0-0.5,0-0.5,0C31.7,8.7,28.5,8.7,24.9,8.8z"/>
		</g>
		<g>
			<path d="M48.8,9.1C48.8,9.1,48.8,9.1,48.8,9.1c-3.6-0.2-6.8-0.3-9.6-0.4c-0.6,0-1-0.5-1-1.1c0-0.6,0.5-1,1.1-1
				c2.8,0.1,6,0.2,9.6,0.4c0.6,0,1,0.5,1,1.1C49.9,8.7,49.4,9.1,48.8,9.1z"/>
		</g>
		<g>
			<path d="M60.9,9.8C60.9,9.8,60.8,9.8,60.9,9.8c-2.6-0.2-5.3-0.3-7.9-0.5c-0.6,0-1-0.5-1-1.1c0-0.6,0.5-1,1.1-1
				c2.6,0.1,5.3,0.3,7.8,0.5c0.6,0,1,0.5,1,1.1C61.9,9.4,61.4,9.8,60.9,9.8z"/>
		</g>
		<g>
			<path d="M73.2,44.6C73.2,44.6,73.2,44.6,73.2,44.6c-0.7,0-1.1-0.6-1.1-1.1c0.3-3.6,0.4-7.5,0.4-11.9c0-4.1-0.1-8.4-0.2-12.4
				c-0.1-2.8-0.2-5.7-0.2-8.6c-2.2-0.2-4.8-0.4-7.6-0.6c-0.6,0-1-0.5-1-1.1c0-0.6,0.6-1,1.1-1c3.2,0.2,6.2,0.5,8.6,0.7
				c0.5,0,1,0.5,1,1c0,3.2,0.1,6.4,0.2,9.5c0.1,4.1,0.2,8.3,0.2,12.5c0,4.5-0.1,8.4-0.4,12C74.2,44.2,73.8,44.6,73.2,44.6z"/>
		</g>
		<g>
			<path d="M8.6,14.7c-0.5,0-1-0.4-1.1-1c-0.1-1.4-0.1-2.8-0.1-4c0-0.4,0-0.9,0-1.3c0-0.4,0-0.9,0-1.3c0-1.6,0-3.4-0.3-5.2
				C7.1,1.4,7.5,0.8,8.1,0.8c0.6-0.1,1.1,0.3,1.2,0.9c0.3,1.9,0.3,3.8,0.3,5.5c0,0.4,0,0.9,0,1.3c0,0.4,0,0.9,0,1.3
				c0,1.1,0,2.5,0.1,3.8C9.7,14.2,9.3,14.7,8.6,14.7C8.7,14.7,8.6,14.7,8.6,14.7z"/>
		</g>
		<g>
			<path d="M12.7,14.5c-0.5,0-1-0.4-1.1-1c-0.1-1.1-0.1-2.3-0.1-3.7c0-1.1,0-2.2,0.1-3.3c0-1.1,0.1-2.2,0.1-3.3c0-0.5,0-1,0-1.5
				c0-0.6,0.4-1.1,1-1.1c0.6,0,1.1,0.4,1.1,1c0,0.5,0,1,0,1.5c0,1.1,0,2.2-0.1,3.3c0,1.1-0.1,2.2-0.1,3.3c0,1.3,0,2.4,0.1,3.5
				C13.8,13.9,13.3,14.4,12.7,14.5C12.7,14.5,12.7,14.5,12.7,14.5z"/>
		</g>
		<g>
			<path d="M21.5,14.8c-0.6,0-1.1-0.5-1.1-1.1c0-4.1-0.1-8.2-0.3-12.2c0-0.6,0.4-1.1,1-1.1c0.6,0,1.1,0.4,1.1,1
				c0.2,4.1,0.3,8.2,0.3,12.3C22.6,14.4,22.1,14.8,21.5,14.8z"/>
		</g>
		<g>
			<path d="M24.8,14.6c-0.6,0-1.1-0.5-1.1-1.1l0-0.2c0.1-4,0.2-7.7,0.2-11.7c0-0.6,0.5-1.1,1.1-1.1s1.1,0.5,1.1,1.1
				c0,3.9-0.1,7.7-0.2,11.7l0,0.2C25.8,14.2,25.4,14.6,24.8,14.6z"/>
		</g>
		<g>
			<path d="M35.2,14.8c-0.6,0-1.1-0.5-1.1-1.1c0-1.7,0-3.4-0.1-5c0-1.6-0.1-3.3-0.1-5c0-0.8,0-1.7,0-2.5c0-0.6,0.5-1.1,1.1-1
				c0.6,0,1,0.5,1,1.1c0,0.8,0,1.7,0,2.5c0,1.7,0,3.3,0.1,5c0,1.6,0.1,3.3,0.1,5C36.3,14.4,35.8,14.8,35.2,14.8z"/>
		</g>
		<g>
			<path d="M39.2,13.9c-0.6,0-1-0.5-1.1-1c0-0.3,0-0.7,0-1c0-1.5,0.1-3,0.2-4.5c0.1-1.5,0.2-3,0.2-4.4c0-0.6,0-1.2,0-1.8
				c0-0.6,0.4-1.1,1-1.1c0.6,0,1.1,0.4,1.1,1c0,0.6,0,1.2,0,1.9c0,1.5-0.1,3.1-0.2,4.5c-0.1,1.5-0.2,3-0.2,4.4c0,0.3,0,0.6,0,1
				C40.2,13.4,39.8,13.9,39.2,13.9z"/>
		</g>
		<g>
			<path d="M49,14.9c-0.6,0-1-0.4-1.1-1c-0.2-4-0.2-8.1-0.2-12.1c0-0.6,0.5-1.1,1.1-1.1c0.6,0,1.1,0.5,1.1,1.1c0,4,0,8.1,0.2,12
				C50.1,14.4,49.7,14.9,49,14.9C49.1,14.9,49,14.9,49,14.9z"/>
		</g>
		<g>
			<path d="M53.2,15.1c-0.5,0-1-0.4-1.1-1C52,12.2,52,10.3,52,8.5l0-2.7c0-2.4-0.1-3-0.1-3.1c0-0.1,0-0.1,0-0.2
				c0-0.4,0.1-0.9,0.4-1.2c0.4-0.5,1-0.6,1.5-0.2c0.4,0.3,0.6,1,0.3,1.4c0,0.4,0.1,1.3,0.1,3.3l0,2.7c0,1.7,0,3.6,0.2,5.4
				C54.3,14.5,53.9,15,53.2,15.1C53.3,15.1,53.3,15.1,53.2,15.1z"/>
		</g>
		<g>
			<path d="M61,15.2c-0.6,0-1-0.4-1.1-1c-0.1-1.8-0.1-3.5-0.1-5.2c0-2.1,0-4.2-0.2-6.3c0-0.6,0.4-1.1,1-1.1c0.6,0,1.1,0.4,1.1,1
				c0.2,2.2,0.2,4.4,0.2,6.5c0,1.7,0,3.4,0.1,5.1C62.1,14.6,61.6,15.1,61,15.2C61,15.2,61,15.2,61,15.2z"/>
		</g>
		<g>
			<path d="M64.8,14.9c-0.6,0-1-0.4-1.1-1c-0.1-1.6-0.1-3.3-0.1-5.6c0-0.9,0-1.8,0-2.8c0-0.9,0-1.8,0-2.7c0-0.6,0.5-1.1,1.1-1.1
				c0.6,0,1.1,0.5,1.1,1.1c0,0.9,0,1.8,0,2.8c0,0.9,0,1.8,0,2.7c0,2.2,0,3.9,0.1,5.4C65.9,14.4,65.4,14.9,64.8,14.9
				C64.8,14.9,64.8,14.9,64.8,14.9z"/>
		</g>
		<g>
			<path d="M45.9,28.5c-4.3,0-8.2,0-11.9-0.1c-0.6,0-1-0.5-1-1.1c0-0.6,0.5-1.1,1.1-1c3.7,0.1,7.5,0.1,11.8,0.1c3.4,0,7,0,11.7-0.1
				c0.6,0,1.1,0.5,1.1,1c0,0.6-0.5,1.1-1,1.1C52.9,28.4,49.3,28.5,45.9,28.5z"/>
		</g>
		<g>
			<path d="M57.7,39c-2.5,0-5.1-0.1-7.5-0.2c-3-0.1-6.1-0.2-9.2-0.2c-2.3,0-4.3,0.1-6.3,0.2c-0.6,0.1-1.1-0.4-1.1-1
				c0-0.6,0.4-1.1,1-1.1c2-0.1,4.1-0.2,6.4-0.2c3.1,0,6.3,0.1,9.3,0.2c2.4,0.1,5,0.2,7.5,0.2c0.6,0,1.1,0.5,1,1.1
				C58.7,38.5,58.3,39,57.7,39z"/>
		</g>
		<g>
			<path d="M54.8,49.6c-3.7,0-7.4-0.2-11.1-0.5c-2.6-0.2-5.3-0.3-8-0.4c-0.6,0-1-0.5-1-1.1c0-0.6,0.5-1.1,1.1-1
				c2.7,0.1,5.4,0.3,8,0.4c4.3,0.3,8.8,0.6,13.2,0.4c0.6,0,1.1,0.4,1.1,1c0,0.6-0.4,1.1-1,1.1C56.4,49.6,55.6,49.6,54.8,49.6z"/>
		</g>
		<g>
			<path d="M53.7,59.9c0,0-0.1,0-0.1,0c-3.2-0.3-6.4-0.4-9.6-0.4c-2.9,0-5.9-0.1-8.8-0.3c-0.6-0.1-1-0.6-1-1.1c0.1-0.6,0.6-1,1.1-1
				c2.9,0.3,5.8,0.3,8.7,0.3c3.2,0,6.5,0.1,9.8,0.4c0.6,0.1,1,0.6,0.9,1.2C54.7,59.5,54.2,59.9,53.7,59.9z"/>
		</g>
		<g>
			<path d="M40.1,70c-1.3,0-3.1,0-4.9-0.2c-0.6-0.1-1-0.6-0.9-1.2c0.1-0.6,0.6-1,1.2-0.9c1.7,0.2,3.4,0.2,4.6,0.2c0.7,0,1.5,0,2.2,0
				c1.3,0,2.7,0,4,0c0.6,0,1,0.5,1,1.1c0,0.6-0.5,1.1-1.1,1c-1.3,0-2.6,0-4,0C41.6,70,40.9,70,40.1,70z"/>
		</g>
		<g>
			<path d="M17.1,29.3c-1.5,0-2.6-1.1-2.6-2.5c0-1.3,0.7-1.8,1.1-2c0.1-0.1,0.2-0.1,0.2-0.2c0.3-0.3,0.7-0.4,1.1-0.3
				c0.7,0.2,2.7,0.9,2.7,2.7C19.5,27.9,19.2,29.3,17.1,29.3z M16.6,26.7c0,0,0,0.1,0,0.1c0,0.3,0.3,0.3,0.5,0.3c0.2,0,0.3,0,0.4,0
				c0-0.1,0-0.3-0.7-0.5C16.6,26.6,16.6,26.7,16.6,26.7z"/>
		</g>
		<g>
			<path d="M20.5,39.6c-1,0-2.2-0.9-4.4-2.6c-1.2-0.9-2.4-1.8-3.2-2.2c-0.5-0.3-0.8-0.9-0.5-1.4c0.3-0.5,0.9-0.8,1.4-0.5
				c1,0.5,2.2,1.4,3.5,2.4c1.1,0.8,2.7,2,3.2,2.1c0.6,0,1,0.5,1,1.1C21.6,39.2,21.1,39.6,20.5,39.6z"/>
		</g>
		<g>
			<path d="M14,40.3c-0.3,0-0.6-0.1-0.8-0.4c-0.4-0.4-0.3-1.1,0.1-1.5c1.5-1.2,2.9-2.6,4.3-4c0.6-0.6,1.3-1.2,1.9-1.8
				c0.4-0.4,1.1-0.4,1.5,0c0.4,0.4,0.4,1.1,0,1.5c-0.6,0.6-1.3,1.2-1.9,1.8c-1.4,1.4-2.9,2.8-4.4,4.1C14.5,40.2,14.3,40.3,14,40.3z"
				/>
		</g>
		<g>
			<path d="M13.6,54.5c-0.3,0-0.6-0.1-0.8-0.3c-0.4-0.4-0.4-1.1,0-1.5c0.7-0.7,1.5-1.4,2.2-2.1c1.4-1.3,2.8-2.6,4.1-3.9
				c0.4-0.4,1.1-0.4,1.5,0c0.4,0.4,0.4,1.1,0,1.5c-1.4,1.4-2.8,2.7-4.2,4c-0.7,0.7-1.5,1.4-2.2,2.1C14.1,54.4,13.9,54.5,13.6,54.5z"
				/>
		</g>
		<g>
			<path d="M20.6,53.5c-0.1,0-0.3,0-0.4-0.1c-2.6-1-4.1-2.3-5.5-3.4c-1-0.8-1.8-1.5-2.9-2c-0.5-0.2-0.8-0.9-0.6-1.4
				c0.2-0.5,0.9-0.8,1.4-0.6c1.4,0.6,2.3,1.4,3.4,2.3c1.3,1.1,2.6,2.2,4.9,3.1c0.5,0.2,0.8,0.8,0.6,1.4C21.4,53.3,21,53.5,20.6,53.5
				z"/>
		</g>
		<g>
			<path d="M17.5,62.5c-1.3,0-2.4-1.1-2.4-2.3c0-1.3,1.1-2.4,2.2-2.8c0.5-0.2,1.2,0,1.4,0.6c0.1,0.2,0.1,0.4,0.1,0.5
				c0.6,0.2,1.2,0.8,1.2,2C19.9,61.8,18.7,62.5,17.5,62.5z"/>
		</g>
		<g>
			<path d="M14.5,74.2c-0.3,0-0.6-0.1-0.8-0.4c-0.4-0.4-0.3-1.1,0.1-1.5c1.4-1.2,2.8-2.5,4.3-3.8c0.7-0.6,1.4-1.3,2.1-1.9
				c0.4-0.4,1.1-0.4,1.5,0.1c0.4,0.4,0.4,1.1-0.1,1.5c-0.7,0.6-1.4,1.3-2.1,1.9c-1.4,1.3-2.9,2.6-4.3,3.9
				C14.9,74.1,14.7,74.2,14.5,74.2z"/>
		</g>
		<g>
			<path d="M20.8,74.3c-0.2,0-0.3,0-0.5-0.1c-1.9-0.9-3.4-2.3-4.8-3.6c-0.9-0.8-1.7-1.5-2.6-2.2c-0.5-0.3-0.6-1-0.2-1.5
				c0.3-0.5,1-0.6,1.5-0.2c1,0.7,1.9,1.5,2.7,2.3c1.4,1.3,2.7,2.5,4.3,3.3c0.5,0.3,0.7,0.9,0.5,1.4C21.6,74.1,21.2,74.3,20.8,74.3z"
				/>
		</g>
		<g>
			<path d="M34.4,100.6c-2.7,0-5.3-1.1-7.2-3c-1.7-1.7-2.7-3.9-2.7-5.8c0-1.3,2-6.4,4.6-8.8c3.4-3.1,4.6-4.1,8.3-7.2
				C42,72,50.5,65,71.8,46.9c0.1-0.1,0.2-0.1,0.3-0.2c6.3-2.7,10.7-4.6,14-6.1c2.8-1.2,4.8-2.2,6.5-2.8c0.4-0.1,0.8-0.1,1.1,0.2
				c0.3,0.3,0.4,0.7,0.3,1.1c-0.9,2.4-2.5,5.8-4.5,9.8c-1.6,3.3-3.4,7.1-5.1,10.8c-0.1,0.2-0.2,0.3-0.3,0.4
				C70.1,70.6,57,82.6,44.3,94.1c-1.8,1.7-3.7,3.4-5.5,5C37.7,100.1,36.3,100.6,34.4,100.6z M73.1,48.6
				c-21.2,18.1-29.7,25-34.2,28.8c-3.7,3.1-4.9,4-8.3,7.1c-2.1,1.9-3.8,6.4-3.9,7.2c0,2.7,3.1,6.7,7.7,6.7c1.3,0,2.2-0.3,2.9-0.9
				c1.8-1.7,3.7-3.4,5.5-5C55.5,81,68.6,69.1,82.5,58.8c1.7-3.7,3.4-7.4,5-10.7c1.3-2.8,2.6-5.3,3.5-7.3c-1.2,0.5-2.5,1.1-4.1,1.8
				C83.7,44,79.4,46,73.1,48.6z"/>
		</g>
		<g>
			<path d="M40.1,96.8c-0.2,0-0.5-0.1-0.7-0.3c-2.8-2.5-5.1-5.4-6.9-7.8c-1.3-1.7-2.3-3.1-3.2-3.8c-0.5-0.4-0.5-1-0.2-1.5
				c0.4-0.5,1-0.5,1.5-0.2c1.1,0.9,2.2,2.3,3.6,4.2c1.7,2.3,3.9,5.2,6.6,7.5c0.4,0.4,0.5,1.1,0.1,1.5C40.7,96.6,40.4,96.8,40.1,96.8
				z"/>
		</g>
		<g>
			<path d="M42.9,94.7c-0.3,0-0.5-0.1-0.8-0.3c-3.8-3.8-5.9-6.9-7.5-9.1c-0.9-1.3-1.6-2.3-2.4-3.1c-0.4-0.4-0.4-1.1,0-1.5
				c0.4-0.4,1.1-0.4,1.5,0c0.9,0.9,1.7,2.1,2.6,3.4c1.6,2.3,3.6,5.2,7.3,8.9c0.4,0.4,0.4,1.1,0,1.5C43.5,94.6,43.2,94.7,42.9,94.7z"
				/>
		</g>
		<g>
			<path d="M80.3,61.7c-1.4,0-2-0.6-2-2.1c0-1.1,0.3-2,0.5-2.6c0,0,0,0,0,0c-0.2,0-0.5,0-0.9,0c-0.3,0-0.6,0-0.9,0c-0.3,0-0.6,0-1,0
				c-1,0-2-0.1-2.5-0.8c-0.4-0.7-0.1-1.4,0.1-1.9c0.5-0.9,1-2.1-2.9-4.1c-0.5-0.3-0.7-0.9-0.5-1.4c0.3-0.5,0.9-0.7,1.4-0.5
				c4.8,2.4,4.8,4.7,4,6.6c0.3,0,0.8,0,1.2,0c0.3,0,0.6,0,1,0c1.5,0,2.4,0.1,2.9,0.8c0.5,0.7,0.2,1.4,0,2.1
				c-0.2,0.5-0.4,1.1-0.4,1.8c0.1,0,0.1,0,0.2,0c0.1,0,0.2,0,0.4,0c0.6,0,1.1,0.5,1.1,1.1c0,0.6-0.5,1.1-1.1,1.1c-0.1,0-0.2,0-0.3,0
				C80.6,61.7,80.5,61.7,80.3,61.7z"/>
		</g>
		<g>
			<path d="M88,49.4c-0.1,0-0.2,0-0.3,0c-2.2-0.6-4-2.5-5.2-5.6c-0.2-0.5,0-1.2,0.6-1.4c0.5-0.2,1.2,0,1.4,0.6
				c1,2.4,2.3,3.9,3.8,4.3c0.6,0.2,0.9,0.7,0.7,1.3C88.9,49.1,88.5,49.4,88,49.4z"/>
		</g>
		<g>
			<path d="M38,87.7c-0.3,0-0.6-0.1-0.8-0.4c-0.4-0.4-0.3-1.1,0.1-1.5c3-2.6,6-5.1,9-7.7c3.1-2.7,6.3-5.4,9.5-8.1
				c1.4-1.1,3-2.5,4.7-3.9c4.2-3.4,8.9-7.3,12.9-11c0.4-0.4,1.1-0.4,1.5,0c0.4,0.4,0.4,1.1,0,1.5c-4,3.8-8.8,7.7-13,11.1
				c-1.7,1.4-3.4,2.7-4.7,3.9c-3.3,2.7-6.4,5.5-9.5,8.1c-3,2.6-6,5.1-9,7.7C38.5,87.6,38.3,87.7,38,87.7z"/>
		</g>
		<g>
			<path d="M58.9,84.8c-0.5,0-1-0.4-1.1-0.9c-0.1-0.6,0.4-1.1,0.9-1.2c2.5-0.3,5.1-0.3,7.1-0.3c0.9,0,1.9,0,2.8,0c1.2,0,2.5,0,3.7,0
				c0-1.7,0-3.3,0.1-5c0-3.1,0-6.4,0.3-9.6c0-0.6,0.6-1,1.1-1c0.6,0,1,0.6,1,1.1c-0.3,3.1-0.3,6.4-0.3,9.5c0,2,0,4-0.1,6
				c0,0.6-0.5,1-1,1c-1.6,0-3.2,0-4.8,0c-0.9,0-1.9,0-2.8,0c-1.9,0-4.4,0-6.8,0.3C59,84.8,59,84.8,58.9,84.8z"/>
		</g>
	</g>
</g>
</svg>
