<?xml version="1.0" encoding="utf-8"?>
<!-- Generator: Adobe Illustrator 21.1.0, SVG Export Plug-In . SVG Version: 6.00 Build 0)  -->
<svg version="1.1" id="lineart" xmlns="http://www.w3.org/2000/svg" xmlns:xlink="http://www.w3.org/1999/xlink" x="0px" y="0px"
	 viewBox="0 0 91.5 96.5" style="enable-background:new 0 0 91.5 96.5;" xml:space="preserve">
<style type="text/css">
	.st0{fill:#E55A2F;}
</style>
<g>
	<g>
		<path class="st0" d="M22.7,84.7c-1.4,0.1-2.8,0.6-4.2,0.6c-1.4,0-2.8-0.5-4.1-1c-1.1-0.4-1.9,1.2-1.1,2c1.2,1.1,2.6,1.8,4.3,2.1
			c1.8,0.3,3.4-0.1,5.2-0.3C24.9,87.9,25,84.6,22.7,84.7z"/>
	</g>
	<g>
		<path class="st0" d="M90.2,42.2C83.8,47.6,78.3,54.3,73,60.9c-0.2-6.3-0.8-12.6-1.2-18.8c-0.3-4.4-0.5-9-0.9-13.5
			c0-0.1,0.1-0.3,0.1-0.5c0-5.5,0-11.9-1.8-17.1c-0.3-0.8-1.4-0.6-1.4,0.2c-0.3,3.9,0,7.9,0.3,11.9c-0.5,6.5,0.2,13.2,0.5,19.7
			c0.3,7.3,0.6,14.6,1.3,21.9C69.3,64.9,69,65.4,69,66c0,0,0,0.1,0,0.1c-0.6,0.9-0.4,1.9,0.2,2.4c0.3,2.5,0.6,5.4-0.4,7.3
			c-0.3,0.5-0.6,1.1-1,1.6c0-1.3-1.7-2.1-2.7-1.1c-0.7,0.7-1.7,1.4-2.2,2.3c0,0.1-0.1,0.3-0.2,0.5c-0.1-0.7-1.1-1.1-1.7-0.5
			c-1.4,1.4-1.5,3,0.2,4.1c0.4,0.3,1,0.2,1.4,0c0.2-0.1,0.4-0.2,0.5-0.3c-0.1,0.5-0.2,1-0.3,1.4c0,0.1,0,0.1,0,0.2
			c-0.7,0.8-1.4,1.5-2.1,1.9c-0.6,0.3-1.4,0.3-2.2,0.2c0.5,0,1-0.1,1.5-0.1c2-0.2,2.1-3.4,0-3.2c-4.6,0.3-8.9-0.1-13.3-0.6
			c5-6.7,9.4-15.1,9.2-23.1c0-0.4-0.5-0.6-0.8-0.4c-0.1-0.7-1.3-1-1.6-0.3c-0.2,0.5-0.5,1-0.7,1.5c-0.2,0.5-0.1,1.1,0.4,1.3
			C53.6,61,53.8,61,54,61c-0.3,0.6-0.5,1.1-0.8,1.7c0.3-1.8-2.2-3.2-3.1-1.3c-0.4,0.9-0.9,1.8-1.3,2.7c-2.3,4.2-5.4,7.9-8.5,11.5
			c-3.7,4.4-7.2,8.9-11,13.1c-0.6,0.6,0,1.6,0.8,1.4c1.2-0.3,2.3-0.9,3.2-1.7c0.5,0.1,1,0,1.4-0.4c7.2-6.2,13-14.1,17.3-22.6
			c0.2-0.3,0.3-0.6,0.5-1c-1,2.5-2,5-3.3,7.3c-2.2,4-4.8,7.8-7.8,11.3c-0.4,0.1-0.8,0.3-1.1,0.9c-0.1,0.3-0.2,0.5-0.4,0.8
			c-0.2,0.5-0.2,1-0.1,1.4c-0.2,0.1-0.5,0.1-0.7,0.2c-1,0.4-0.9,1.9,0.3,1.9c0.8,0,1.6,0,2.4,0c-0.1,0.1-0.2,0.3-0.1,0.6
			c0.5,1.4,1.7,2.6,3.2,2.9c-0.2,0.2-0.4,0.4-0.6,0.5c-0.9,0.5-1.7-0.5-2.6-1.2c-1.6-1.1-3.1-2.1-4.9-2.8c-0.7-0.3-1.3,0.5-0.9,1.1
			c1.4,1.8,3.1,3.3,4.8,4.8c0.9,0.8,2.3,2.4,3.7,2.2c1.1-0.1,1.7-1.1,2.3-1.9c1.5-1.9,3.2-3.4,5.3-4.8c0.4-0.3,0.7-0.7,0.8-1.2
			c2.1,0.3,4.2,0.7,6.3,1c4.3,0.6,6.8-3.9,9.2-6.9c0.3-0.3,0.4-0.7,0.4-1c1.3-1.6,2.6-3.2,3.3-4.9c1-2.4,0.4-6,0.1-8.9
			c6.3-8.2,13.3-16.1,19.1-24.7C91.9,42.3,90.8,41.6,90.2,42.2z M47.6,84.9c-1.1,0-2.1,0.1-3.1,0.3c0.3-0.3,0.6-0.7,0.9-1.1
			C46,84.4,46.8,84.7,47.6,84.9z M47.3,89.2c-0.3,0.3-0.7,0.8-1.1,1.3c-0.2-0.4-0.5-0.6-0.9-0.6c-0.9,0-1.8-0.4-2.1-1.2
			c0-0.1-0.1-0.2-0.2-0.2c1.8-0.1,3.6-0.1,5.4-0.1C48.1,88.6,47.7,88.9,47.3,89.2z"/>
	</g>
	<g>
		<path class="st0" d="M36.6,40.4c-0.2-1.6-0.7-3.1-1.6-4.4c-0.6-1.3-1.2-2.5-1.9-3.7c-0.5-0.8-1.6-1.1-2.4-0.6
			c-1.6,0.9-3.2,1.5-4.9,1.9c-1.7,0.4-1.6,2.8,0,3.4c2.3,0.7,3.5,2.3,4.5,4.4c0.6,1.4,2.5,0.9,3.1-0.2c0,0,0,0,0,0.1
			c0.6,1.6,3.4,1.6,3.2-0.4C36.7,40.7,36.7,40.6,36.6,40.4z M30.5,35.7c0.1-0.1,0.3-0.1,0.4-0.2c0.2,0.3,0.3,0.7,0.5,1
			C31.1,36.2,30.8,36,30.5,35.7z"/>
	</g>
	<g>
		<path class="st0" d="M40.6,36.9c-0.1-3.6-0.4-7.2-1-10.7c-0.4-2.1-3.5-1.2-3.2,0.9c0.4,2.6,0.7,5.2,0.8,7.9c0.1,2,1,6.2-1.2,7.3
			c-1.7,0.9-5.5,0.5-7.5,0.6c-2.8,0.1-5.7,0.3-8.5,0.4c-1,0.1-1,1.5,0,1.6c4,0.4,8,0.7,12,0.6c2.2,0,5.5,0.3,7.3-1.4
			C41.1,42.3,40.6,39.1,40.6,36.9z"/>
	</g>
	<g>
		<path d="M61.1,86.6c-3.1,0-6.3-0.2-9.3-0.4c-3.1-0.2-6.3-0.4-9.3-0.4c-0.6,0-1.1-0.5-1.1-1.1c0-0.6,0.5-1.1,1.1-1.1
			c3.1,0,6.3,0.2,9.5,0.4c2.9,0.2,5.8,0.3,8.7,0.4c2.6-3.2,5.4-5.9,7.8-8.1c-0.2-5.9-0.4-11.9-0.6-17.7c-0.5-12-0.9-24.4-0.9-36.6
			c0-3.6,0-7.1,0.1-10.5c-4,0-8.2,0-13.1,0c-4.7,0-9.4,0-14.1,0c-4.7,0-9.4,0-14.2,0c-4.5,0-8.6,0-12.4,0c-0.2,4.7-0.3,9.6-0.3,15
			c0,11.6,0.4,23.3,0.8,34.7c0.3,7,0.5,14.1,0.7,21.2c2,0,4.1,0.1,6.2,0.4c0.6,0.1,1,0.6,0.9,1.2c-0.1,0.6-0.6,1-1.2,0.9
			c-2.4-0.3-4.6-0.4-6.9-0.4c-0.2,0-0.6-0.1-0.8-0.3c-0.2-0.2-0.3-0.5-0.3-0.7c-0.2-7.4-0.4-15-0.7-22.3
			c-0.4-11.4-0.8-23.2-0.8-34.8c0-5.8,0.1-11,0.3-16.1c0-0.6,0.5-1,1.1-1c4.1,0,8.4,0,13.4,0c4.7,0,9.4,0,14.1,0c4.7,0,9.4,0,14.2,0
			c5.4,0,9.9,0,14.2,0.1c0.3,0,0.6,0.1,0.8,0.3c0.2,0.2,0.3,0.5,0.3,0.8c-0.1,3.7-0.2,7.5-0.2,11.5c0,12.2,0.5,24.5,0.9,36.5
			c0.2,6,0.5,12.2,0.6,18.2c0,0.3-0.1,0.6-0.3,0.8c-2.4,2.2-5.5,5.2-8.2,8.6C61.7,86.4,61.4,86.6,61.1,86.6z"/>
	</g>
	<g>
		<path d="M60.5,85.7c-0.6,0-1-0.4-1.1-1c-0.1-1.9-0.2-4-0.2-6.1c0-0.9,0-1.7,0.1-2.4c0-0.5,0.4-1,1-1c1.2-0.1,2.5-0.1,3.9-0.1
			c2,0,3.9,0.1,5.7,0.2c0.6,0,1,0.5,1,1.1c0,0.6-0.5,1-1.1,1c-2.6-0.1-5.9-0.2-8.4-0.1c0,0.5,0,0.9,0,1.4c0,2.1,0.1,4.2,0.2,6
			C61.6,85.2,61.2,85.7,60.5,85.7C60.6,85.7,60.6,85.7,60.5,85.7z"/>
	</g>
	<g>
		<path d="M18,44c-0.3,0-0.5-0.1-0.7-0.3c-0.2-0.2-0.3-0.5-0.3-0.8c-0.1-7.6-0.1-15.2-0.1-23.7c0-0.3,0.1-0.6,0.3-0.8
			c0.2-0.2,0.5-0.3,0.8-0.3c2.2,0.1,4.4,0.2,6.6,0.4c3.2,0.2,6.4,0.5,9.6,0.5c1.4,0,2.7,0,3.9-0.1c0.3,0,0.6,0.1,0.8,0.3
			c0.2,0.2,0.3,0.5,0.3,0.8c-0.1,2.4-0.1,4.8-0.1,7.5c0,5,0.2,10.2,0.4,15c0,0.6-0.4,1.1-1,1.1c-2.3,0.1-4.5,0.1-6.2,0.1
			c-0.9,0-1.9,0-2.8,0c-0.9,0-1.9,0-2.8,0C24.1,43.7,21.1,43.8,18,44C18.1,44,18,44,18,44z M18.9,20.4c0,7.6,0,14.5,0.1,21.4
			c2.7-0.2,5.3-0.2,7.6-0.2c0.9,0,1.9,0,2.8,0c0.9,0,1.9,0,2.8,0c1.4,0,3.2,0,5.1-0.1c-0.2-4.5-0.3-9.3-0.3-14c0-2.3,0-4.4,0.1-6.4
			c-0.9,0-1.9,0.1-2.9,0.1c-3.3,0-6.6-0.2-9.8-0.5C22.6,20.6,20.8,20.4,18.9,20.4z"/>
	</g>
	<g>
		<path d="M28,34.7c-0.1,0-0.1,0-0.2,0c-2.6-0.1-4.5-1.8-4.8-4.2c-0.2-1.6,0.3-3.3,1.4-4.5c0.9-1.1,2.2-1.7,3.6-1.7
			c0.1,0,0.2,0,0.3,0c2,0.1,3.8,1.1,4.6,2.7c0.3,0.5,0.4,1.2,0.5,1.8c0.1,1.5-0.5,3.1-1.6,4.3C30.8,34.1,29.4,34.7,28,34.7z
			 M28.1,26.3C28.1,26.3,28,26.3,28.1,26.3c-1.1,0-1.7,0.6-2.1,1c-0.7,0.8-1,1.8-0.9,2.9c0.2,1.4,1.2,2.3,2.8,2.4
			c0.9,0,1.7-0.3,2.4-1c0.7-0.7,1.1-1.8,1-2.6c0-0.4-0.1-0.8-0.3-1.1C30.5,26.9,29.4,26.3,28.1,26.3C28.1,26.3,28.1,26.3,28.1,26.3z
			"/>
	</g>
	<g>
		<path d="M21.3,43.4c-0.6,0-1-0.4-1.1-1c0-0.2,0-0.4,0-0.6c0-3.9,1.7-7.4,4.6-9.3c0.5-0.3,1.1-0.2,1.5,0.3c0.3,0.5,0.2,1.1-0.3,1.5
			c-2.3,1.5-3.7,4.3-3.7,7.5c0,0.2,0,0.3,0,0.5C22.4,42.9,22,43.4,21.3,43.4C21.4,43.4,21.4,43.4,21.3,43.4z"/>
	</g>
	<g>
		<path d="M32.7,42.7c-0.6,0-1.1-0.5-1.1-1.1c0-2.6-0.9-5.1-2.7-7.7c-0.3-0.5-0.2-1.1,0.2-1.5c0.5-0.3,1.1-0.2,1.5,0.2
			c2.1,2.9,3.1,5.9,3.1,8.9C33.8,42.2,33.3,42.7,32.7,42.7z"/>
	</g>
	<g>
		<path d="M48.3,42c-1.1,0-2.6-0.1-3.8-1.3c-1.4-1.4-2-3.9-2-8c0-5.5,2.7-8.6,7.3-8.4c0.6,0,1,0.5,1,1.1c0,0.6-0.5,1-1.1,1
			c-4.2-0.2-5.1,3.3-5.1,6.3c0,3.4,0.5,5.5,1.4,6.5c0.6,0.6,1.3,0.6,2.5,0.6l0.2,0c0.3,0,0.7,0,1,0c0.3,0,0.6,0,0.9,0
			c0.6,0,1.1,0.5,1.1,1.1c0,0.6-0.5,1.1-1.1,1.1c-0.3,0-0.6,0-0.9,0c-0.3,0-0.7,0-1,0l-0.2,0C48.4,42,48.3,42,48.3,42z"/>
	</g>
	<g>
		<path d="M57.5,40.4c-0.5,0-0.9-0.3-1-0.8c-0.8-3-1.8-5.9-2.8-8.8c-0.6-1.8-1.2-3.6-1.8-5.4c-0.2-0.6,0.1-1.2,0.7-1.3
			c0.6-0.2,1.2,0.1,1.3,0.7c0.5,1.8,1.2,3.6,1.8,5.3c0.6,1.8,1.2,3.5,1.8,5.3c0.7-2.8,1.4-5.6,2.1-8.3l0.5-2.2
			c0.1-0.6,0.7-0.9,1.3-0.8c0.6,0.1,0.9,0.7,0.8,1.3l-0.5,2.2c-1,3.9-1.9,8-3.1,12C58.4,40.1,58,40.4,57.5,40.4z"/>
	</g>
	<g>
		<path d="M28.8,51.4c-0.9,0-1.5-0.4-2-0.7c-0.4-0.3-0.7-0.4-1.2-0.4c-0.6,0-1.3,0.2-2,0.4c-0.8,0.2-1.6,0.4-2.5,0.4
			c-1.1,0-2.1-0.4-2.9-1.3c-0.4-0.4-0.4-1.1,0.1-1.5c0.4-0.4,1.1-0.4,1.5,0.1c0.4,0.4,0.8,0.6,1.3,0.6c0.6,0,1.2-0.2,1.9-0.4
			c0.8-0.2,1.7-0.5,2.5-0.5c1.1,0,1.8,0.4,2.3,0.8c0.4,0.2,0.5,0.3,0.8,0.3c0.4,0,0.9-0.3,1.4-0.6c0.6-0.4,1.4-0.8,2.2-0.8
			c1.1,0,1.8,0.4,2.4,0.8c0.5,0.3,0.9,0.5,1.3,0.5c0.6,0,1.3-0.4,2-0.7c0.8-0.4,1.6-0.8,2.5-0.8c0.8,0,1.3,0.3,1.7,0.6
			c0.4,0.3,0.7,0.5,1.5,0.5c0.7,0,1.3-0.2,2.1-0.4c0.8-0.2,1.6-0.5,2.4-0.5c0.4,0,0.7,0.1,1.1,0.2c0.5,0.1,1,0.3,1.7,0.3
			c0.5,0,0.9-0.1,1.4-0.1c0.5-0.1,1.1-0.1,1.7-0.1c1,0,1.7,0.2,2.2,0.3c0.4,0.1,0.7,0.2,1,0.2c0.1,0,0.3,0,0.4-0.1
			c0.6-0.2,1.2,0.1,1.3,0.7c0.2,0.6-0.1,1.2-0.7,1.3c-0.3,0.1-0.7,0.2-1.1,0.2c-0.7,0-1.2-0.1-1.6-0.3c-0.5-0.1-0.9-0.3-1.6-0.3
			c-0.5,0-0.9,0.1-1.4,0.1c-0.5,0.1-1.1,0.1-1.7,0.1c-0.9,0-1.7-0.2-2.2-0.3c-0.2-0.1-0.5-0.1-0.6-0.1c-0.5,0-1.1,0.2-1.8,0.4
			c-0.8,0.2-1.7,0.5-2.7,0.5c-1.4,0-2.1-0.5-2.6-0.8c-0.3-0.2-0.4-0.3-0.6-0.3c-0.4,0-1,0.3-1.6,0.6c-0.9,0.4-1.8,0.9-3,0.9
			c-1.1,0-1.8-0.5-2.4-0.8c-0.5-0.3-0.8-0.5-1.3-0.5c-0.3,0-0.8,0.3-1.2,0.5C30.6,50.9,29.8,51.4,28.8,51.4z"/>
	</g>
	<g>
		<path d="M26.3,57.4c-0.8,0-1.4-0.3-2-0.5c-0.5-0.2-0.9-0.4-1.2-0.4c-0.4,0-0.9,0.2-1.4,0.5c-0.5,0.3-1.2,0.1-1.5-0.4
			c-0.3-0.5-0.1-1.2,0.4-1.5c0.9-0.5,1.7-0.8,2.5-0.8c0.8,0,1.5,0.3,2.1,0.5c0.4,0.2,0.9,0.4,1.2,0.4c0.2,0,0.7-0.3,1-0.4
			c0.9-0.4,1.9-1,3.1-1c0.9,0,1.8,0.4,2.4,1.1c0.4,0.4,0.3,1.1-0.1,1.5c-0.4,0.4-1.1,0.3-1.5-0.1C31,56.1,30.8,56,30.5,56
			c-0.7,0-1.5,0.4-2.2,0.7C27.6,57.1,27,57.4,26.3,57.4z"/>
	</g>
	<g>
		<path d="M37.2,56.7c-0.6,0-1.1-0.5-1.1-1.1c0-0.7,0.4-1.6,2.1-1.6c0.7,0,1.4,0.1,2,0.2c0.6,0.1,1.1,0.1,1.6,0.1
			c0.4,0,0.9-0.1,1.5-0.2c1-0.2,2.2-0.5,3.9-0.5c0.4,0,0.9,0,1.3,0.1c0.6,0.1,1,0.6,1,1.2c-0.1,0.6-0.6,1-1.2,1
			c-0.4,0-0.8-0.1-1.2-0.1c-1.5,0-2.5,0.2-3.4,0.4c-0.7,0.1-1.3,0.3-2,0.3c-0.6,0-1.3-0.1-1.9-0.2c-0.6-0.1-1.2-0.2-1.7-0.2
			c0,0-0.1,0-0.1,0C38,56.5,37.6,56.7,37.2,56.7z"/>
	</g>
	<g>
		<path d="M20.3,63.6c-0.2,0-0.3,0-0.5-0.1c-0.5-0.3-0.7-0.9-0.4-1.4c0.7-1.3,1.8-1.9,3.4-1.9c0.7,0,1.5,0.1,2.2,0.3
			c0.7,0.1,1.3,0.2,1.8,0.2c0.4,0,0.7-0.1,1.1-0.2c0.6-0.2,1.3-0.4,2.7-0.4c0.7,0,1.4,0.1,2.1,0.1c1.3,0.1,2.5,0.2,3.5,0
			c0.6-0.1,1.1,0.2,1.3,0.8c0.1,0.6-0.2,1.1-0.8,1.3c-0.6,0.1-1.3,0.2-2,0.2c-0.7,0-1.4-0.1-2.1-0.1c-0.7-0.1-1.3-0.1-1.9-0.1
			c-1,0-1.5,0.1-2.1,0.3c-0.5,0.1-1,0.3-1.7,0.3c-0.7,0-1.5-0.1-2.2-0.3c-0.7-0.1-1.3-0.2-1.9-0.2c-0.8,0-1.2,0.2-1.5,0.8
			C21,63.4,20.7,63.6,20.3,63.6z"/>
	</g>
	<g>
		<path d="M21.7,73.1c-0.6,0-1.1-0.5-1.1-1.1c0-0.3,0.1-1.9,2.5-1.9c0.5,0,1,0.1,1.4,0.2c0.3,0.1,0.7,0.1,0.9,0.1
			c0.6,0,1.1,0.5,1.1,1.1c0,0.6-0.5,1.1-1.1,1.1c-0.5,0-0.9-0.1-1.3-0.2c-0.4-0.1-0.7-0.1-1-0.1c-0.2,0-0.3,0-0.4,0
			C22.6,72.8,22.2,73.1,21.7,73.1z"/>
	</g>
	<g>
		<path d="M21.5,68.1c-0.2,0-0.5-0.1-0.7-0.2c-0.5-0.4-0.5-1-0.2-1.5c0.8-1,1.9-1.5,3.5-1.5c1,0,2,0.2,2.8,0.4l0.1,0
			c0.6,0.1,0.9,0.7,0.8,1.2c-0.1,0.6-0.7,1-1.2,0.8l-0.1,0c-0.8-0.2-1.6-0.3-2.4-0.3c-1.1,0-1.6,0.4-1.8,0.6
			C22.1,68,21.8,68.1,21.5,68.1z"/>
	</g>
	<g>
		<path d="M31.4,92.7c-1.6,0-6.2-2.1-6.2-6.1c0-4,15.8-27.9,30.1-31.4c0.4-0.1,0.7,0,1,0.3c0.3,0.3,0.4,0.6,0.3,1
			C52.9,72.6,36,92.7,31.4,92.7z M54.1,57.9c-13,4.7-26.7,25.8-26.7,28.8c0,2.6,3.4,3.9,4.1,3.9C33.8,90.6,49.5,73.7,54.1,57.9z"/>
	</g>
	<g>
		<path d="M53.1,62.9c-0.2,0-0.5-0.1-0.7-0.2c-0.4-0.3-0.7-0.6-1.1-0.9c-0.7-0.5-1.3-1-1.9-1.6c-0.4-0.4-0.4-1.1,0-1.5
			c0.4-0.4,1.1-0.4,1.5,0c0.5,0.5,1.1,1,1.7,1.4c0.4,0.3,0.8,0.6,1.1,0.9c0.4,0.4,0.5,1,0.1,1.5C53.7,62.8,53.4,62.9,53.1,62.9z"/>
	</g>
	<g>
		<path d="M55.2,57.6c-0.2,0-0.4-0.1-0.6-0.2c-0.5-0.3-0.6-1-0.3-1.5c0.8-1.2,1.9-2.1,3-3c0.5-0.4,1.1-0.3,1.5,0.1
			c0.4,0.5,0.3,1.1-0.1,1.5c-1,0.8-2,1.6-2.6,2.5C55.9,57.4,55.5,57.6,55.2,57.6z"/>
	</g>
	<g>
		<path d="M25.3,87.1c-1.9,0-3-1.6-3-4.2c0-4,3.2-5.8,6-7.3c1.7-0.9,3-1.7,3.7-2.6c-0.4,0.2-0.9,0.3-1.3,0.3C29,73.3,28,72,28,70.8
			c0-1.8,2.1-3,3.6-3c2.8,0,3.2,1.9,3.2,3.3c0,3.4-2.9,5-5.5,6.4c-2.6,1.4-4.9,2.7-4.9,5.5c0,0.6,0.1,2.1,0.9,2.1c0.1,0,0.1,0,0.2,0
			c0.6-0.1,1.1,0.3,1.2,0.9c0.1,0.6-0.3,1.1-0.9,1.2C25.6,87.1,25.5,87.1,25.3,87.1z M31.6,69.9c-0.7,0-1.5,0.5-1.5,0.8
			c0,0.1,0.1,0.4,0.5,0.4c0.3,0,0.7-0.1,1-0.3c0.3-0.2,0.7-0.2,1-0.1C32.6,70,32.5,69.9,31.6,69.9z"/>
	</g>
	<g>
		<path d="M25.6,95.8c-1.3,0-3.1-1.1-3.1-2.9c0-1.1,0.6-2.2,1.2-3.1c0.3-0.4,0.5-0.9,0.7-1.2c0.2-0.5,0.8-0.8,1.4-0.6
			c0.5,0.2,0.8,0.8,0.6,1.4c-0.2,0.5-0.5,1-0.8,1.5c-0.4,0.7-0.9,1.5-0.9,2c0,0.4,0.7,0.7,1,0.7c0.5,0,0.8-0.5,1.3-1.3
			c0.4-0.6,0.8-1.2,1.4-1.6c0.5-0.3,1.1-0.2,1.5,0.2c0.3,0.5,0.2,1.1-0.2,1.5c-0.3,0.2-0.6,0.7-0.9,1.1
			C28.1,94.5,27.2,95.8,25.6,95.8z"/>
	</g>
	<g>
		<path d="M12.9,68.2c-0.3,0-0.6-0.1-0.8-0.4L10,65.4c-3.1-3.6-6.4-7.3-9.7-10.9c-0.4-0.4-0.4-1-0.1-1.4c2.4-3,5.1-5.8,7.7-8.6
			c1-1,2-2.1,3-3.2c0.4-0.4,1.1-0.5,1.5-0.1c0.4,0.4,0.5,1.1,0.1,1.5c-1,1.1-2,2.1-3,3.2c-2.3,2.5-4.8,5-7,7.7
			c3.1,3.4,6.2,6.9,9.1,10.2l2.1,2.4c0.4,0.4,0.3,1.1-0.1,1.5C13.4,68.1,13.2,68.2,12.9,68.2z"/>
	</g>
	<g>
		<path d="M44.5,94.1c-0.3,0-0.5-0.1-0.7-0.3c-0.6-0.6-1.2-1.1-1.8-1.7c-1.5-1.4-3-2.9-4.6-4.2c-0.5-0.4-0.5-1-0.2-1.5
			c0.4-0.5,1-0.5,1.5-0.2c1.7,1.3,3.2,2.8,4.7,4.3c0.3,0.3,0.6,0.6,0.9,0.9c0.5-0.6,1-1.3,1.5-2c1.2-1.7,2.5-3.4,4.3-4.8
			c0.5-0.4,1.1-0.3,1.5,0.2c0.4,0.5,0.3,1.1-0.2,1.5c-1.5,1.2-2.7,2.7-3.9,4.4c-0.7,1-1.5,2-2.4,3C45.1,93.9,44.8,94.1,44.5,94.1
			C44.5,94.1,44.5,94.1,44.5,94.1z"/>
	</g>
	<g>
		<path d="M41.5,11.6c-0.3,0-0.5-0.1-0.7-0.3c-0.4-0.4-0.4-1.1,0-1.5c2.8-3,6.1-6.3,9.4-9.5c0.4-0.4,1.1-0.4,1.5,0
			c3.6,3.6,6.8,6.8,9.4,9.4c0.4,0.4,0.4,1.1,0,1.5c-0.4,0.4-1.1,0.4-1.5,0c-2.4-2.5-5.3-5.4-8.6-8.7c-3,2.9-6,6-8.6,8.7
			C42.1,11.5,41.8,11.6,41.5,11.6z"/>
	</g>
	<g>
		<path d="M69,64.6c-0.2,0-0.5-0.1-0.7-0.3c-0.4-0.4-0.5-1.1-0.1-1.5c5.9-6.8,12.2-13.4,18.3-19.7l2-2.1C75,27.9,73.4,26.1,71,23.4
			c-0.9-1-2-2.2-3.9-4.2c-0.4-0.4-0.4-1.1,0-1.5c0.4-0.4,1.1-0.4,1.5,0c1.9,2,3,3.2,3.9,4.3c2.4,2.7,4,4.5,18.2,18.3
			c0.4,0.4,0.4,1.1,0,1.5L88,44.6c-6.1,6.3-12.4,12.9-18.3,19.6C69.6,64.5,69.3,64.6,69,64.6z"/>
	</g>
</g>
</svg>
