<?xml version="1.0" encoding="utf-8"?>
<!-- Generator: Adobe Illustrator 21.1.0, SVG Export Plug-In . SVG Version: 6.00 Build 0)  -->
<svg version="1.1" id="lineart" xmlns="http://www.w3.org/2000/svg" xmlns:xlink="http://www.w3.org/1999/xlink" x="0px" y="0px"
	 viewBox="0 0 96.5 88.6" style="enable-background:new 0 0 96.5 88.6;" xml:space="preserve">
<style type="text/css">
	.st0{fill:#E55A2F;}
	.st1{fill:none;}
</style>
<g>
	<g>
		<g>
			<path class="st0" d="M70.3,51.2c0.1-5.7-1.2-11.1-1.9-16.7c-0.6-5.1-0.8-10.5-0.9-15.6c0-5,2.4-12.2-5.1-12.1c-3,0.1-6,1-9,1.4
				C48.8,8.9,43.7,8.5,39,8.3c-4.8-0.1-9.5-0.1-14.3,0.2C20.8,8.8,16,9.4,12.5,7.2c-2.4-1.6-4.9,1.4-3.7,3.7C8.9,11,8.9,11.1,9,11.2
				C8,17.1,8.3,23.1,8.4,29c0.1,3.9,0.1,7.8,0,11.7c-0.3,3-0.9,5.8-0.2,8.9c0.8,3.7,6,2.6,6.2-0.8c0.5-6.6,0.4-13.2,0.2-19.7
				c0-0.1,0-0.1,0-0.2c0-1.8-0.1-3.5-0.1-5.3c0-3.1,0.7-6.5,0.5-9.8c5.1,1,10.5,0.3,15.8,0.3c8.7,0,17.5,1.2,26.1-0.3
				c1.4-0.2,2.7-0.5,4.1-0.6c0,0,0.2,0,0.3,0c-0.1,1.1,0,2.5-0.1,3.2c-0.2,1.3-0.3,2.6-0.3,4c0,5.2-0.1,10.3,0.5,15.5
				c0.6,4.4,1.5,8.8,1.6,13.3c-0.4,0.8-0.5,1.7,0,2.7c-5.5-0.6-11.3,2.6-16.1,4.6c-3,1.2-6.4,1.6-9.6,2.1c-3.9,0.6-8.1,0.5-11.7-1.3
				c-0.3-0.2-0.8,0.2-0.5,0.5c4.3,5.6,11.6,5.3,18,4.5c3.5-0.4,6.4-1.5,9.6-2.9c2-0.9,4-1.6,6.2-2.1c2.2-0.4,4.5-0.3,6.6-0.9
				c0.9-0.3,1.4-1,1.5-1.8C68.7,54.4,70.3,53.1,70.3,51.2z"/>
		</g>
		<g>
			<g>
				<path class="st1" d="M74.6,69.4c0.1,0,0.2,0,0.3,0c0-0.6,0-1.4-0.1-2.1C74.7,68,74.6,68.7,74.6,69.4z"/>
			</g>
			<g>
				<path class="st0" d="M82,68.7c0-3.2-0.1-6.4,0-9.7c0.1-6.7,0.1-13.4-0.4-20c-0.4-6.5-1.2-13.1-1.8-19.6
					c-0.6-5.7-1.3-11.2-3.6-16.5c-0.7-1.7-3.6-0.5-3,1.3c2.6,7.7,2.2,16,1.6,24.2c0-3.4-0.1-6.8-0.2-10.3
					c-0.1-4.8-0.2-10.1-2.5-14.4c-0.5-1-2.2-0.4-2,0.7c-0.3,5,0.1,10.1,0.1,15.1C70,25.1,70,30.8,70,36.5c0,5.5,0,11,0.1,16.4
					c0,5.4-0.4,11.2,0.2,16.6c-11.3,0-22.5,0.5-33.8,0.6c-5.9,0.1-11.8,0.2-17.6,0.4C13.6,70.8,8,70.9,3.3,73.3
					c-0.5,0.3-0.2,1,0.3,1c0.3,0,0.5,0.1,0.8,0.1c-0.1,0.1-0.2,0.2-0.3,0.3c-0.2,0.3-0.4,0.6-0.6,0.8c-0.6,0.9,0,2.3,1,2.5
					c4.4,1.1,9,1.2,13.5,1.8c4.8,0.6,9.5,1.5,14.3,1.9c8.9,0.9,19.2,1.1,27.8-2c1.7-0.6,2.5-2,2.5-3.4c0.1,0,0.3,0,0.4,0
					c3.2,0.1,6.4,0.2,9.5,0.2c2.6,0,5.4,0.4,7.5-1.4C82,73.5,82,71.1,82,68.7z M74.8,69.3c-0.1,0-0.2,0-0.3,0
					c0.1-0.7,0.1-1.4,0.2-2.1C74.8,68,74.9,68.7,74.8,69.3z"/>
			</g>
		</g>
		<g>
			<path class="st0" d="M96.2,67.9c-0.2-0.9-1-1.6-1.9-1.9c-0.1,0-0.3-0.1-0.4-0.1c-2.4-0.7-4,2.2-2.8,4c0,1.4-0.7,3.1-0.8,4.4
				c-0.2,1.4-0.2,3-0.6,4.4c-1.2,3.8-6,4.7-9.4,4.8c-6.8,0.2-13.1-0.7-19.5-2.9c-0.3-0.1-0.4,0.2-0.3,0.4c1.9,3.6,5.9,4.9,9.7,5.8
				c4.7,1.2,9.7,2.2,14.6,1.6c4.1-0.5,8.5-2.4,10.3-6.3c0.9-2,1.1-4.2,1.2-6.4C96.3,73.3,96.8,70.2,96.2,67.9z"/>
		</g>
	</g>
	<g>
		<g>
			<g>
				<path d="M5.5,75.8c-2.2,0-4-1.7-4.1-3.9C0.7,58.1,0,39.1,0,27c0-6.8,0.1-14.2,0.3-22.5c0.1-2.4,2-4.3,4.4-4.4
					C10.2,0,16.6,0,19.3,0h0.3c12.5,0,25.3,0.3,37.6,0.7c4.6,0.1,9.1,0.2,13.6,0.4c2.3,0.1,4.2,1.9,4.2,4.3
					c0.2,13.2,0.5,26.6,0.9,39.5c0.2,8.6,0.5,17.4,0.7,26.2c0,1.1-0.4,2.1-1.2,2.9c-0.8,0.8-1.8,1.2-2.9,1.2
					C64.5,75,57.2,75,50.2,75C34,75,19.4,75.2,5.7,75.8C5.7,75.8,5.6,75.8,5.5,75.8z M18.8,2.1c-2.9,0-8.9,0-14.1,0.2
					c-1.3,0-2.3,1.1-2.3,2.3C2.2,12.9,2.1,20.2,2.1,27c0,12,0.7,31,1.4,44.7c0.1,1.1,1,2,2.1,1.9c13.7-0.6,28.3-0.8,44.5-0.8
					c7.1,0,14.4,0.1,22.4,0.2c0.5,0,1-0.2,1.4-0.6c0.4-0.4,0.6-0.9,0.6-1.4c-0.2-8.7-0.4-17.6-0.7-26.1c-0.4-13-0.7-26.4-0.9-39.6
					c0-1.2-1-2.2-2.2-2.2C66.3,3,61.7,2.9,57.2,2.8C44.8,2.5,32.1,2.1,19.6,2.1h-0.3C19.1,2.1,19,2.1,18.8,2.1z"/>
			</g>
		</g>
		<g>
			<g>
				<path d="M38.6,64.9c-12.8,0-15.1-3.8-17.1-7.2c-1.4-2.4-2.5-4.3-8.3-4.3c-1.5,0-3.1,0.2-4.7,0.3c-0.5,0-0.9,0.1-1.4,0.1
					c-0.3,0-0.6-0.1-0.8-0.3c-0.2-0.2-0.3-0.5-0.4-0.8C5.7,48.6,5.6,44,5.6,38.7c0-5.1,0.1-10.2,0.2-15.2c0.1-5,0.2-10.1,0.2-15.1
					c0-0.9,0-1.8,0-2.7C5.9,5.4,6,5.2,6.2,5C6.4,4.8,6.7,4.6,7,4.7l61.9,0.5c0.6,0,1,0.5,1,1c0.3,14.7,0.5,30.5,0.5,48.2
					c0,0.6-0.4,1-1,1.1c-13.2,1.2-15.7,3.5-17.9,5.7C49.5,63.2,47.6,64.9,38.6,64.9z M13.1,51.3c7,0,8.6,2.7,10.2,5.4
					c1.8,3,3.6,6.2,15.3,6.2c8.2,0,9.7-1.4,11.6-3.2c2.3-2.2,5.1-4.9,18.2-6.2c0-16.9-0.2-32-0.5-46.1L8.1,6.8c0,0.5,0,1.1,0,1.6
					c0,5-0.1,10.2-0.2,15.2c-0.1,5-0.2,10.1-0.2,15.1c0,4.8,0.1,9,0.2,13c0.1,0,0.2,0,0.3,0C9.8,51.5,11.5,51.3,13.1,51.3z"/>
			</g>
		</g>
		<g>
			<g>
				<path d="M61.5,20.1c-0.6,0-1.1-0.5-1.1-1.1v-4c-3.6,0-7.1,0-10.6,0c-11,0-22.7,0.1-35.9,0.4c-0.6,0-1.1-0.5-1.1-1
					c0-0.6,0.5-1.1,1-1.1c13.2-0.3,25-0.4,36-0.4c3.9,0,7.8,0,11.7,0.1c0.6,0,1,0.5,1,1.1v5C62.6,19.6,62.1,20.1,61.5,20.1z"/>
			</g>
		</g>
		<g>
			<g>
				<path d="M63,27.2c0,0-47.8-0.5-47.8-0.5c-0.6,0-1-0.5-1-1.1l0-2.4c0-1.4,0-2.9-0.2-4.4c0-0.4,0.2-0.8,0.5-1
					c0.4-0.2,0.8-0.2,1.1,0c3.3,2.2,7.2,4.8,11.6,6.7c0.1,0.1,0.2,0.1,0.3,0.2L63,25c0.6,0,1.1,0.5,1,1.1
					C64.1,26.7,63.6,27.2,63,27.2z M16.3,24.5l6.5,0.1c-2.3-1.2-4.5-2.6-6.5-3.9c0,0.8,0,1.7,0,2.5L16.3,24.5z"/>
			</g>
		</g>
		<g>
			<g>
				<path d="M15.7,36.2c-0.6,0-1.1-0.5-1.1-1c0-0.6,0.5-1.1,1-1.1c10.5-0.1,21.4-0.3,32.3-0.3c4.8,0,9.1,0,13.4,0.1
					c0.6,0,1.1,0.5,1,1.1c0,0.6-0.4,1-1.1,1c-4.2-0.1-8.6-0.1-13.3-0.1C37.1,35.9,26.2,36,15.7,36.2z"/>
			</g>
		</g>
		<g>
			<g>
				<path d="M15.9,47.7c-0.6,0-1.1-0.5-1.1-1.1s0.4-1.1,1-1.1c14.3,0,30.4,0,45-0.3l-0.7-6.1C60,38.6,60.5,38.1,61,38
					c0.6-0.1,1.1,0.4,1.2,0.9l0.8,7.2c0,0.3-0.1,0.6-0.3,0.8c-0.2,0.2-0.5,0.4-0.8,0.4C47.1,47.7,30.5,47.7,15.9,47.7z"/>
			</g>
		</g>
		<g>
			<g>
				<path d="M51.7,47.4c-0.4,0-0.7-0.2-0.9-0.5c-0.3-0.5-0.1-1.2,0.4-1.5c3.2-2,6-4.7,8.7-7.4c0.4-0.4,1.1-0.4,1.5,0
					c0.4,0.4,0.4,1.1,0,1.5c-2.8,2.8-5.6,5.6-9.1,7.7C52.1,47.3,51.9,47.4,51.7,47.4z"/>
			</g>
		</g>
		<g>
			<g>
				<path d="M72.6,84.6c-5.9,0-11.6-1.7-16.4-5c-0.2-0.2-0.4-0.4-0.4-0.7c0-0.3,0-0.6,0.2-0.8c1.2-1.5,2.4-3.1,3.5-4.7
					c0.3-0.5,1-0.6,1.5-0.2c0.5,0.3,0.6,1,0.2,1.5c-0.9,1.3-1.9,2.6-2.9,3.9c4.2,2.6,9.1,4,14.2,4c6.8,0,11.8-1.5,14.8-4.6
					c4.1-4.1,4.1-10.4,4.1-15.4l0-0.6c0-1.5,0-3.1,0-4.6c-4.9,2.2-10.4,3.4-15.2,3.4c-0.3,0-0.7,0-1,0c-0.6,0-1-0.5-1-1.1
					c0-0.6,0.5-1.1,1.1-1c0.3,0,0.6,0,0.9,0c5.1,0,10.8-1.4,15.8-3.9c0.3-0.2,0.7-0.1,1,0c0.3,0.2,0.5,0.5,0.5,0.9l0,1
					c0,1.8,0,3.6,0,5.4l0,0.6c0,5.1,0,12.1-4.7,16.9C85.4,82.9,80.1,84.6,72.6,84.6z"/>
			</g>
		</g>
		<g>
			<g>
				<path d="M81.4,83.5c-0.1,0-0.2,0-0.3-0.1c-0.6-0.2-0.9-0.8-0.7-1.3c0.8-2.5,1.4-5.1,2.1-8c0.1-0.4,0.3-0.6,0.7-0.8
					c1.4-0.5,2.8-1,4.2-1.6c0.5-0.2,1.2,0,1.4,0.6c0.2,0.5,0,1.2-0.6,1.4c-1.2,0.5-2.5,1-3.7,1.4c-0.6,2.7-1.2,5.1-2,7.6
					C82.3,83.2,81.9,83.5,81.4,83.5z"/>
			</g>
		</g>
	</g>
</g>
</svg>
