<?xml version="1.0" encoding="utf-8"?>
<!-- Generator: Adobe Illustrator 21.1.0, SVG Export Plug-In . SVG Version: 6.00 Build 0)  -->
<svg version="1.1" id="lineart" xmlns="http://www.w3.org/2000/svg" xmlns:xlink="http://www.w3.org/1999/xlink" x="0px" y="0px"
	 viewBox="0 0 109.3 101.3" style="enable-background:new 0 0 109.3 101.3;" xml:space="preserve">
<style type="text/css">
	.st0{fill:#E55A2F;}
</style>
<g>
	<g>
		<path class="st0" d="M86.6,86.5c-3-2.9-6.5-5.7-9.8-8.2c-1-0.8-2.1-1.4-3.3-1.7c1.1-2,0.2-5.3-2.9-5.4c-8.5-0.3-17-0.8-25.5-1.2
			c-1.5-0.1-2.9-0.1-4.4-0.2c-0.6-0.3-1.4-0.3-2.1-0.1c-1.5-0.1-3-0.1-4.5-0.3c-1.6-0.1-3.6-0.4-4.9-1.6c-0.7-0.7-1.2-1.7-1.5-2.7
			c1.9-0.5,3.6-1.3,5.2-2.6c0.9-0.7,1.8-1.9,2.7-3c-0.2,1.2,0.2,2.4,1.1,3.3c2.3,2.4,7.2,2,10.2,2.2c9.9,0.5,19.8,0.3,29.8,0.1
			c3.4-0.1,3.3-5.6,0-5.2c-0.1,0-0.2,0-0.4,0c0.4-0.3,0.7-0.8,0.7-1.6c-0.1-1.1-0.1-2.1-0.2-3.2c-0.1-1-0.9-2-2-2
			c-5.3,0.1-12-0.6-17,1.3c-0.6,0.2-0.6,1.1,0,1.3c0,0,0.1,0,0.1,0c-0.3,1.2-0.7,2.5-1,3.7c-0.1,0.3-0.1,0.6-0.1,0.9
			c-3.1,0-6.2-0.1-9.3-0.2c-1.7-0.1-10.1,0.9-9.8-2.3c0-0.1,0-0.2,0-0.2c0.1-0.1,0.3-0.1,0.4-0.2c2-0.6,3.8-0.3,5.6-1.6
			c1.4-1.1,2.2-2.5,2.2-4.3c0-2.9-4.7-3.7-5.2-0.7c-0.3,1.5-2.8,1.2-4,1.4c-1.5,0.4-2.7,1.1-3.7,2.3c-2.2,2.6-4,5.4-6.2,7.9
			c-0.4-0.5-1.3-0.2-1.5,0.4c-1,3.3-0.5,7,2.1,9.5c1.3,1.3,3,2.1,4.8,2.5c-2.2,1.8-4.3,3.7-6.5,5.5c-3.5,2.9-8.3,5.8-10.7,9.7
			c-0.4,0.7,0.1,1.7,0.9,1.6c4.8-0.4,9.5-3.9,13.4-6.6c4-2.8,8-5.9,11.5-9.3c9.4,0.6,18.8,1.2,28.2,1.9c5.3,3.5,9.6,8.6,14.8,12.4
			C85.9,91.9,88.6,88.4,86.6,86.5z M72,59.4c0.3,0.6,1.1,0.9,1.7,0.6c0.1,0.1,0.2,0.1,0.3,0.2c-1.1,0.1-2.3,0.1-3.4,0.2
			C71.1,60.1,71.6,59.8,72,59.4z M64.6,59.2c0.3,0.4,0.7,0.7,1.1,0.9c0.9,0.4,1.8,0.3,2.5-0.1c0.3,0.2,0.6,0.3,0.9,0.4
			c-1.6,0.1-3.2,0.1-4.8,0.1C64.5,60.1,64.6,59.6,64.6,59.2z M63.9,57c0,0.3,0,0.5,0,0.8c0,0-0.1-0.1-0.1-0.1
			c-0.1-0.2-0.2-0.5-0.2-0.7C63.7,57,63.8,57,63.9,57z"/>
	</g>
	<g>
		<path class="st0" d="M85.2,24.1c-0.1,0-0.2,0-0.3,0c0.5-1,0.9-2.1,1.2-3.1c0.1-0.6,0-1.1-0.2-1.5c1.2-4.3,1.1-8.9-0.6-12.7
			c-0.5-1.1-2-0.4-2.1,0.6c-0.4,4.3-0.9,8.4-2.9,12.4c-2,3.9-4.9,6.2-8,9.2c-0.5,0.5-0.7,1.2-0.7,1.9c-0.3,0.1-0.6,0.4-0.5,0.8
			c0.6,2.1,1.5,5.5,3.9,6.3c2.4,0.8,5.6-0.9,7.6-2c2.3-1.4,5.2-3.8,6.2-6.4C89.6,26.8,87.9,24.2,85.2,24.1z M78.6,32.7
			c-0.5,0.4-2.3,1.9-3,1.8c-0.5,0-0.9-0.3-1.3-0.7c0.3,0.1,0.6,0.1,0.8-0.1c2.4-1.6,5.1-3.6,7.2-6c0.1,0.4,0.2,0.8,0.4,1.1
			C81.7,30.3,79.9,31.8,78.6,32.7z"/>
	</g>
	<g>
		<path class="st0" d="M76.8,10.4c-0.7-0.7-2.1-0.8-2.8,0c-1.4,1.8-2.1,3.9-1.6,6.2c0.4,1.7,3.2,1.4,3.1-0.4
			c-0.1-1.2,0.4-2.2,1.3-2.9C77.6,12.5,77.5,11.1,76.8,10.4z"/>
	</g>
	<g>
		<path class="st0" d="M109.2,76.5c-0.4-4.9-1.2-10.4-2.8-15.1c0-0.1,0-0.2,0-0.2c0.5-8,0.1-16.1-0.1-24.1c-0.2-7.6,0-15.5-1.8-22.9
			c-0.2-0.7-1.2-0.7-1.3,0c-1.5,7.4-1.2,15.3-1.2,22.9c0,8-0.2,16.1,0.5,24.1c0.1,1.1,0.8,1.7,1.6,1.8c-0.1,1.1-0.1,2.3,0,3.4
			c-0.5,0.1-0.9,0.4-1,0.9c-1,3.9-1.6,8.1-2.3,12c-0.1,0.6,0,1.2,0.3,1.7c-0.3,1.7-0.6,3.4-2.3,4.4c-2.7,1.6-6.3,1.6-9.2,2.4
			c-0.9,0.3-0.9,1.6,0,1.9c3.6,1.1,9.5,1.3,12.9-0.6c0.1-0.1,0.3-0.2,0.4-0.3c-0.4,1.9,2.3,3.2,3.5,1.3
			C109,86.1,109.6,81.2,109.2,76.5z"/>
	</g>
	<g>
		<path class="st0" d="M62.1,12.9c-4.6,0.6-9.2,1.3-13.9,1.2c-3.1,0-6.8-1.1-9.7,0.3c-2.4,1.1-3.1,3.2-3.3,5.6
			c-0.5,4.5-0.5,9.1-0.5,13.6c0,0.6,1,0.8,1.1,0.2c0.6-3.4,1.2-6.9,1.9-10.3c0.2-1.1,0.4-2.4,0.7-3.5c0.8-2.3,2.6-2.5,4.8-2.3
			c6.5,0.5,13,0.7,19.5,0.4C66.6,17.9,66,12.4,62.1,12.9z"/>
	</g>
	<g>
		<path class="st0" d="M64.8,45.4c-0.4-1.8-0.3-3.8-0.8-5.6c-0.4-1.3-1.8-2.1-3.1-1.7c-2,0.6-4,0.2-6,0.6c-0.6,0.1-1.3,0.8-1.4,1.4
			c-0.3,1.9-1.2,4.2-0.9,6.2c-0.1,0-0.2,0-0.3,0c-1.7,0.1-2.4,2.9-0.4,3.2c3.1,0.5,6.6,0.7,9.6-0.1c0.4-0.1,0.7-0.3,0.9-0.5
			c0.1,0,0.2,0,0.3,0C64.4,48.5,65.1,46.9,64.8,45.4z"/>
	</g>
	<g>
		<path class="st0" d="M97.4,23.2c0-0.3,0-0.5-0.1-0.7c0.3-1.9-0.4-3.9-1.9-5.3c-2-1.9-5.5-1.9-7.3,0.2c-0.4,0.5-0.2,1.4,0.6,1.4
			c1.3,0,2.6,0.7,3.4,1.8c0.1,0.2,0.3,0.4,0.3,0.7c-0.5,0.5-0.8,1.1-0.7,2c0.5,5,1.2,10,2.5,14.9c-0.1,0-0.2,0-0.3-0.1
			c-2.7-0.3-6.1,0.1-8.7,0.9c-1.8,0.6-1.5,3,0.2,3.4c-0.1,0.9-0.2,1.7-0.4,2.5c-0.3,1,0.4,2,1.3,2.3c2.1,0.7,4.8,0.6,6.9,0.3
			c1.2-0.2,2.3-0.9,2.3-2.3c0-0.7-0.4-1.5-1-1.9c0-0.1,0-0.3,0-0.5c1.4-0.3,1.9-1.5,1.7-2.7c0.1-0.1,0.1-0.2,0.2-0.3
			C97.2,34.3,97.5,28.8,97.4,23.2z"/>
	</g>
	<g>
		<g>
			<g>
				<path d="M74.3,72C74.2,72,74.2,72,74.3,72c-12.9-0.7-29.3-1.6-42.8-2.5c-2.8-0.2-5.1-2.5-5.2-5.3l-0.1-1.5c0-0.6,0.4-1.1,1-1.1
					c0.6,0,1.1,0.4,1.1,1l0.1,1.5c0.1,1.8,1.5,3.2,3.2,3.3c13.6,0.8,29.9,1.8,42.8,2.5c0.6,0,1,0.5,1,1.1C75.3,71.6,74.8,72,74.3,72
					z"/>
			</g>
		</g>
		<g>
			<g>
				<path d="M102.1,63.1c-0.6,0-1.1-0.5-1.1-1c-0.1-9.1-0.2-17.3-0.2-25.1c0-8,0.1-15.4,0.2-22.7c0-1.9-1.4-3.4-3.2-3.5
					c-3.2-0.2-7-0.4-11.1-0.6c-0.6,0-1-0.5-1-1.1c0-0.6,0.5-1,1.1-1c4.1,0.2,7.9,0.4,11.1,0.6c3,0.2,5.3,2.7,5.2,5.7
					C103,21.6,103,29,103,36.9c0,7.8,0.1,16,0.2,25.1C103.2,62.6,102.7,63.1,102.1,63.1z"/>
			</g>
		</g>
		<g>
			<g>
				<path d="M26.5,45.9c-0.6,0-1-0.5-1.1-1c-0.1-5.4-0.2-10.4-0.2-15.2c0-5.2,0.4-10.3,0.8-15.3c0.1-1.1,0.2-2.2,0.3-3.3
					C26.5,8.2,29,5.9,31.9,6C39.7,6,51,6.4,65.4,7c0.6,0,1,0.5,1,1.1c0,0.6-0.5,1-1.1,1c-14.4-0.6-25.6-1-33.4-1.1
					c-1.8,0-3.3,1.4-3.5,3.2c-0.1,1.1-0.2,2.2-0.3,3.3c-0.4,5-0.8,10.1-0.8,15.2c0,4.8,0.1,9.7,0.2,15.1
					C27.6,45.4,27.2,45.9,26.5,45.9z"/>
			</g>
		</g>
		<g>
			<g>
				<path d="M1.1,74.2c-0.3,0-0.7-0.2-0.9-0.5c-0.3-0.5-0.2-1.1,0.3-1.5c16.1-11,17.6-18,18.4-22.1c1-4.9,2.1-6.7,15.2-6.7
					c1.6,0,3.2,0.1,4.7,0.2c1.3,0.1,2.5,0.1,3.8,0.1c0,0,0,0,0.1,0c0.1,0,0.3-0.1,0.6-0.1c1.4,0,3.8,1.3,3.8,3.9
					c0,2.5-2.5,6.3-9.3,6.3c-1.4,0-2.8-0.1-4.2-0.2c-1.3-0.1-2.5-0.2-3.7-0.2c-0.6,0-1.1-0.5-1.1-1.1c0-0.6,0.5-1.1,1.1-1.1
					c1.2,0,2.5,0.1,3.8,0.2c1.3,0.1,2.7,0.2,4,0.2c5.3,0,7.2-2.5,7.2-4.1c0-1.4-1.5-1.8-1.7-1.8c0,0,0,0,0,0c-0.1,0-0.3,0.1-0.6,0.1
					c-1.3,0-2.6-0.1-3.9-0.1c-1.5-0.1-3.1-0.2-4.6-0.2c-12.1,0-12.3,1.2-13.1,5C20,55.1,18.5,62.6,1.7,74
					C1.5,74.2,1.3,74.2,1.1,74.2z"/>
			</g>
		</g>
		<g>
			<g>
				<path d="M77.4,66.5C77.4,66.5,77.3,66.5,77.4,66.5c-1.1-0.1-2.2-0.1-3.3-0.2c-2.8-0.2-5.6-0.4-8.5-0.4c-1.8,0-3.4,0.1-5.2,0.2
					c-1.8,0.1-3.7,0.2-5.8,0.2c-14.2,0-17.9-1-19.6-2.8c-1.2-1.2-1.1-2.7-1.1-4.1c0-0.3,0-0.5,0-0.8c0-0.6,0-1.1,0-1.7
					c0-0.6,0-1.1,0-1.7c0-0.6,0.5-1.1,1.1-1.1c0.6,0,1.1,0.5,1.1,1.1c0,0.6,0,1.2,0,1.7c0,0.5,0,1.1,0,1.6c0,0.3,0,0.6,0,0.9
					c0,1.3,0,2.1,0.5,2.6c1.4,1.5,6.9,2.1,18.1,2.1c2.1,0,3.9-0.1,5.7-0.2c1.8-0.1,3.4-0.2,5.3-0.2c2.9,0,5.8,0.2,8.6,0.4
					c1.1,0.1,2.1,0.2,3.2,0.2c0.6,0,1,0.5,1,1.1C78.4,66.1,77.9,66.5,77.4,66.5z"/>
			</g>
		</g>
		<g>
			<g>
				<path d="M14.1,89.1c-0.3,0-0.6-0.1-0.8-0.3c-0.4-0.4-0.4-1.1,0-1.5c4.8-4.6,9.4-7.3,13.1-9.5c4.8-2.9,8.3-5,9.5-9.3
					c0.2-0.6,0.7-0.9,1.3-0.7c0.6,0.2,0.9,0.7,0.7,1.3c-1.5,5.1-5.4,7.5-10.5,10.5c-3.8,2.3-8.1,4.9-12.8,9.3
					C14.6,89.1,14.4,89.1,14.1,89.1z"/>
			</g>
		</g>
		<g>
			<g>
				<path d="M27.5,79.5c-0.2,0-0.4,0-0.6-0.2c-4.5-2.7-10.8-7.3-14.6-15.9c-0.2-0.5,0-1.2,0.5-1.4c0.5-0.2,1.2,0,1.4,0.5
					c3.5,7.9,9.2,12.2,13.8,14.9c0.5,0.3,0.7,1,0.4,1.5C28.2,79.3,27.8,79.5,27.5,79.5z"/>
			</g>
		</g>
		<g>
			<g>
				<path d="M25.7,62.8c-0.3,0-0.7-0.2-0.9-0.5c-0.3-0.5-0.2-1.1,0.2-1.4c0.2-0.1,0.5-0.3,1-0.5c2-0.9,7.1-3.4,7.1-6.8
					c0,0,0-0.1,0-0.1c-0.1-0.6,0.3-1.1,0.8-1.2c0.6-0.1,1.1,0.3,1.2,0.8c0,0.2,0.1,0.4,0.1,0.6c0,4.7-5.8,7.5-8.3,8.7
					c-0.3,0.1-0.6,0.3-0.7,0.4C26.1,62.7,25.9,62.8,25.7,62.8z"/>
			</g>
		</g>
		<g>
			<g>
				<path d="M75.7,36.2c-0.3,0-0.6-0.1-0.8-0.3c-6.4-6.5-11.6-17.4-11.6-24.2C63.3,5.3,71,0,75.9,0c6.3,0,13,5.9,13,14.8
					c0,5.3-4.1,12.2-12.5,21.1C76.3,36,76,36.2,75.7,36.2z M75.9,2.1c-3.9,0-10.4,4.6-10.4,9.5c0,6,4.6,15.8,10.2,22
					c7.4-8,11.1-14.3,11.1-18.8C86.8,8.8,82.3,2.1,75.9,2.1z"/>
			</g>
		</g>
		<g>
			<g>
				<path d="M76.1,19.2c-3.2,0-5.6-2.2-5.7-5.4c-0.1-3.1,2.1-5.7,5-5.9c0.1,0,0.2,0,0.3,0c1.5,0,3,0.6,4.2,1.7
					c1.1,1.1,1.7,2.4,1.8,3.9c0,3-2.5,5.7-5.4,5.8C76.2,19.2,76.1,19.2,76.1,19.2z M75.9,9.9C75.9,9.9,75.8,9.9,75.9,9.9
					c-0.2,0-0.2,0-0.3,0c-2,0.2-3.1,2-3.1,3.8c0.1,2,1.5,3.3,3.6,3.3c0,0,0.1,0,0.1,0c1.7,0,3.4-1.8,3.3-3.7c0-0.9-0.4-1.7-1.1-2.4
					C77.7,10.3,76.8,9.9,75.9,9.9z"/>
			</g>
		</g>
		<g>
			<g>
				<path d="M34,45.6c-0.6,0-1-0.4-1.1-1c-0.2-2.3-0.2-4.6-0.2-7.2c0-5.2,0.3-10.5,0.6-15.6c0.1-1.6,0.2-3.2,0.3-4.7
					c0.1-2.7,2.4-4.8,5.1-4.8c0,0,0.5,0,0.5,0c5,0,10-0.1,14.8-0.1c3.5,0,7-0.1,10.5-0.1c0.6,0,1.1,0.5,1.1,1.1
					c0,0.6-0.5,1.1-1.1,1.1c-3.5,0-7,0.1-10.5,0.1c-4.9,0.1-9.9,0.1-14.9,0.1l-0.5,0c-1.6,0-2.9,1.2-3,2.8c-0.1,1.6-0.2,3.2-0.3,4.8
					c-0.3,5.1-0.6,10.3-0.6,15.4c0,2.5,0.1,4.9,0.2,7.1C35.1,45.1,34.7,45.6,34,45.6C34,45.6,34,45.6,34,45.6z"/>
			</g>
		</g>
		<g>
			<g>
				<path d="M96.1,59.6c-0.6,0-1.1-0.5-1.1-1.1c0.3-10.4,0.6-21.1,0.6-31.6c0-2.6,0-5.1,0-7.4c0-1.4-1.1-2.5-2.4-2.6
					c-1.5-0.1-3-0.2-4.4-0.4l-0.9-0.1c-0.6-0.1-1-0.6-1-1.1c0.1-0.6,0.6-1,1.1-1l0.9,0.1c1.5,0.1,2.9,0.3,4.4,0.4
					c2.5,0.2,4.4,2.2,4.4,4.7c0,2.4,0,4.9,0,7.5c0,10.6-0.3,21.3-0.6,31.6C97.1,59.1,96.6,59.6,96.1,59.6z"/>
			</g>
		</g>
		<g>
			<g>
				<path d="M84.3,101.3c-0.6,0-1.1-0.5-1.1-1.1c0-1.7,0.2-3.4,0.4-5.1c0.2-1.6,0.4-3.2,0.4-4.8c0-3.9-2.6-5.6-5.5-7.6
					c-2.9-2-6.2-4.2-6.2-8.9c0-2.8,1.4-4,2.5-4.9c0.7-0.6,1.2-1,1.3-1.7c0.4-2.1,0.6-5.1,0.9-8.2c0.6-7.9,1.1-15.3,5.3-15.3
					c3.8,0,3.9,10.7,3.9,10.8c0,1.7-0.1,3.3-0.2,5c-0.1,1.6-0.2,3.2-0.2,4.8c0,0.6,0,1.2,0,1.7c0,0.6-0.4,1.1-1,1.1
					c-0.6,0-1.1-0.4-1.1-1c0-0.6,0-1.2,0-1.9c0-1.6,0.1-3.3,0.2-4.9c0.1-1.6,0.2-3.3,0.2-4.8c0-3.6-1-8.3-1.8-8.7
					c-2.2,0-2.8,8-3.2,13.4c-0.2,3.2-0.4,6.2-0.9,8.5c-0.3,1.4-1.2,2.2-2,2.9c-1,0.8-1.7,1.5-1.7,3.3c0,3.6,2.5,5.2,5.3,7.2
					c3,2,6.4,4.3,6.4,9.4c0,1.7-0.2,3.4-0.4,5c-0.2,1.6-0.4,3.2-0.4,4.8C85.4,100.9,84.9,101.3,84.3,101.3z"/>
			</g>
		</g>
		<g>
			<g>
				<path d="M102.8,91.8c-0.2,0-0.4-0.1-0.6-0.2c-0.5-0.3-0.6-1-0.3-1.5c2.4-3.4,2.4-6.9,2.4-10.6v-0.4c0-9.1-0.7-14.4-2.1-15.8
					c-0.4-0.4-0.8-0.4-1.6-0.4l-0.1,0c-2,0-2.7,1.2-3,2c-0.4,0.9-1,0.9-1.3,0.8c-0.9-0.2-0.9-1-0.9-1.5v-0.2c0-0.1,0-0.3,0-0.4
					c0-0.1,0-0.2,0-0.3c0-0.4-1-1.6-2-1.6c-0.8,0-1.4,0.8-1.9,1.5c-0.2,0.4-0.7,1.1-1.5,0.9c-0.9-0.3-0.9-1.1-0.9-2.4
					c0-0.9-0.2-0.9-0.3-0.9c-1.6,0-2.7,1.8-2.7,3.5c0,0.6-0.5,1.1-1.1,1.1S84,65,84,64.4c0-2.7,2-5.6,4.9-5.6c0.5,0,1.8,0.2,2.3,1.8
					c0.6-0.5,1.3-0.9,2.3-0.9c1.5,0,2.9,1,3.6,2.2c1.1-0.9,2.4-1.1,3.4-1.1l0.1,0c0.9,0,2.1,0,3.1,1c1.3,1.3,2.7,4.4,2.7,17.3v0.4
					c0,3.9,0,7.9-2.8,11.8C103.5,91.6,103.2,91.8,102.8,91.8z"/>
			</g>
		</g>
		<g>
			<g>
				<path d="M106.3,100.2c-0.6,0-1-0.4-1.1-1c0-0.2,0-0.5,0-0.8c0-0.5,0-1.1,0.1-1.6c0-0.6,0.1-1.1,0.1-1.7c0-3.4,0-3.6-11.2-3.6
					c-3,0-6,0.1-8.9,0.4c-0.6,0-1.1-0.4-1.2-1c-0.1-0.6,0.4-1.1,1-1.2c3-0.3,6-0.4,9.1-0.4c10.8,0,13.4,0,13.4,5.7
					c0,0.6,0,1.2-0.1,1.8c0,0.5-0.1,1.1-0.1,1.5c0,0.2,0,0.4,0,0.6C107.4,99.6,106.9,100.1,106.3,100.2
					C106.3,100.2,106.3,100.2,106.3,100.2z"/>
			</g>
		</g>
		<g>
			<g>
				<path d="M47.8,24.7c-1.2,0-2.3,0-3.4-0.1c-1.1,0-2.3-0.1-3.4-0.1c-0.6,0-1.1-0.5-1.1-1.1c0-0.6,0.5-1.1,1.1-1.1
					c1.2,0,2.3,0,3.4,0.1c1.9,0.1,3.9,0.1,5.5,0c0.6,0,1.1,0.4,1.1,1c0,0.6-0.4,1.1-1,1.1C49.4,24.7,48.7,24.7,47.8,24.7z"/>
			</g>
		</g>
		<g>
			<g>
				<path d="M48.6,30.6c-1.1,0-2.2-0.1-3.2-0.1c-1.5-0.1-2.8-0.2-4.3-0.1c-0.6,0-1.1-0.4-1.1-1c0-0.6,0.4-1.1,1-1.1
					c1.6-0.1,3.1,0,4.6,0.1c1.5,0.1,2.8,0.2,4.3,0.1c0.6,0,1.1,0.4,1.1,1c0,0.6-0.4,1.1-1,1.1C49.5,30.6,49,30.6,48.6,30.6z"/>
			</g>
		</g>
		<g>
			<g>
				<path d="M49.7,36.3c-0.1,0-0.1,0-0.2,0c-1.3-0.3-2.7-0.4-4.1-0.4c-1.3,0-2.7,0.1-4.4,0.3c-0.6,0.1-1.1-0.3-1.2-0.9
					c-0.1-0.6,0.3-1.1,0.9-1.2c1.8-0.2,3.3-0.4,4.7-0.4c1.6,0,3.1,0.1,4.5,0.4c0.6,0.1,0.9,0.7,0.8,1.2
					C50.6,35.9,50.2,36.3,49.7,36.3z"/>
			</g>
		</g>
		<g>
			<g>
				<path d="M58.4,50.2c-0.6,0-1-0.4-1.1-1c0-0.6,0.4-1.1,1-1.1c0.9,0,1.9-0.1,2.7-0.2c0.6-0.1,1.1,0.3,1.2,0.9
					c0.1,0.6-0.3,1.1-0.9,1.2C60.4,50,59.5,50.1,58.4,50.2C58.4,50.2,58.4,50.2,58.4,50.2z M52.1,49.9c0,0-0.1,0-0.1,0
					c-0.9-0.1-1.9-0.2-2.9-0.4c-0.6-0.1-1-0.6-0.9-1.2c0.1-0.6,0.6-1,1.2-0.9c0.9,0.2,1.9,0.3,2.7,0.4c0.6,0.1,1,0.6,0.9,1.2
					C53.1,49.5,52.6,49.9,52.1,49.9z M67.3,48.2c-0.4,0-0.8-0.2-1-0.6c-0.2-0.5,0-1.2,0.5-1.4c0.8-0.4,1.6-0.8,2.3-1.3
					c0.5-0.3,1.1-0.2,1.5,0.3c0.3,0.5,0.2,1.1-0.3,1.5c-0.8,0.6-1.7,1.1-2.6,1.5C67.6,48.2,67.5,48.2,67.3,48.2z M74,42.1
					c-0.2,0-0.3,0-0.5-0.1c-0.5-0.3-0.7-0.9-0.4-1.4c0.5-1,0.8-1.9,1-2.5c0.2-0.6,0.8-0.9,1.3-0.7c0.6,0.2,0.9,0.8,0.7,1.3
					c-0.2,0.6-0.5,1.6-1.1,2.8C74.7,41.9,74.3,42.1,74,42.1z"/>
			</g>
		</g>
	</g>
</g>
</svg>
