<?xml version="1.0" encoding="utf-8"?>
<!-- Generator: Adobe Illustrator 21.1.0, SVG Export Plug-In . SVG Version: 6.00 Build 0)  -->
<svg version="1.1" id="lineart" xmlns="http://www.w3.org/2000/svg" xmlns:xlink="http://www.w3.org/1999/xlink" x="0px" y="0px"
	 viewBox="0 0 108.1 97.8" style="enable-background:new 0 0 108.1 97.8;" xml:space="preserve">
<style type="text/css">
	.st0{fill:#E55A2F;}
</style>
<g>
	<path class="st0" d="M35.3,40.1c-0.1-0.3-0.6-0.3-0.6,0.1c0,1.7,0,3.3-0.1,5c-0.1-0.1-0.1-0.2-0.2-0.3c-0.3-0.5-1.1-0.4-1.3,0.2
		c-1.2,4.6-1.4,9.2-3.5,13.5c-1,2-2.3,3.9-3.8,5.6c-1.3,1.5-3.1,2.6-2.9,4.8c0.1,0.7,0.5,1.4,1.2,1.6c-0.1,0.6,0.4,1.5,1,1.8
		c5,2.3,11.4-5.8,13-9.9C40.9,55.5,37.9,46.6,35.3,40.1z"/>
	<path class="st0" d="M27.5,74c-0.5-0.5-1.6-0.4-1.9,0.2c-1,2.1-1.1,5.5-0.1,7.6c0.8,1.7,4,1.4,4.2-0.6C30.1,79.1,29.1,75.8,27.5,74
		z"/>
	<path class="st0" d="M10.9,86.9c-0.9-0.8-2.2-0.4-2.5,0.7c-0.7,2.3-1.3,4.9-1.5,7.2c-0.3,3.6,5.3,4.2,6.2,0.8
		C14,92.6,13.2,89,10.9,86.9z"/>
	<path class="st0" d="M40.1,83.7c-0.8-3.5-2.4-7.4-5.1-9.8c-0.9-0.7-2.4-0.3-2.3,1c0,1.4,0.3,2.8,0.5,4.1c-0.5-0.2-1.1,0-1.1,0.6
		c0.2,2.5,0.5,5,0.6,7.5c0.1,2.3-0.5,4.9,0.3,7.1c0.5,1.3,2.6,1.9,3.3,0.4c0.1-0.2,0.1-0.4,0.2-0.5c0.9,0.6,2.1,0.4,2.9-0.3
		C42.2,91.5,40.9,86.8,40.1,83.7z"/>
	<path class="st0" d="M56.6,77.7c-0.2-5,0.1-11.4-2.2-16c-0.3-0.7-1.4-0.7-1.8,0C50.4,66,50.6,72.2,50.3,77
		c-0.2,2.8-0.3,5.6-0.4,8.5c-0.1,2.8-0.5,5.9,0.5,8.5c0.8,2.1,4.4,3.4,5.5,0.7C58,89.8,56.9,83,56.6,77.7z"/>
	<path class="st0" d="M70.7,10.3c-1.5-1.6-4.1-2-5.5-0.1c-0.7,1-0.6,2.1-0.7,3.2c-0.2,1.8-0.7,2.7-2.1,3.9c-2.5,2.2-5.5,2.1-8.1,3.7
		c-0.9,0.6-1.9,1.7-2.2,2.7c-0.4,1.5,0.4,2.8-0.3,4.2c-1.2,2.4-5.1,4.8-7.2,6.3c-0.7,0.5-0.3,1.7,0.6,1.4c3.6-1.2,7-0.3,10.2-2.6
		c2.3-1.7,3.3-3.7,3.6-6.2c0.8-0.2,1.9-0.4,2.3-0.5c1.3-0.5,2.7-1.1,3.9-1.9c2.5-1.6,4.9-3.7,6.1-6.5C72.4,15.6,72.7,12.4,70.7,10.3
		z"/>
	<path class="st0" d="M104.9,79.9c-1.6-2.7-5.1-5.7-8.8-7.3c0.9,0,1.8,0,2.7,0c2.3-0.1,5-0.2,6.7-2c3.8-4.1-0.2-9.8-1-14.1
		c-0.5-2.9,0.3-6.1,0.5-9c0.2-3,0.1-5.9-0.4-8.8c-0.8-4.8-3.2-8.8-7.2-11.6c-0.7-0.5-1.6,0.5-1.2,1.2c3,4.9,3.5,10.8,2.7,16.4
		c-0.8,5.1-2.6,9.9-1.6,15.1c0.2,1.1,0.6,2.1,0.9,3.2c0.2,0.5,0.3,1,0.5,1.5c-1.8,0-4.8,0-5.9,0c1.3-3.3,0.3-7.5,0-10.9
		c-0.3-3.7-0.2-7.9-1.8-11.3c-0.5-1.1-2-0.6-2.4,0.3c-1.4,3.6-0.9,7.9-0.9,11.7c0,3.4-0.8,7.9,1.1,10.9c-3,0.9-5.6,2.7-4.7,6.4
		c0.6,2.2,3.3,3.5,5.3,2.8c2,2.6,5.8,4.1,7.9,6.7c0.4,0.5,0.7,1,1.1,1.7c-1.4-1.9-3-3.6-5.2-4.6c-0.7-0.3-1.7,0.4-1.2,1.2
		c2,3.2,3.6,6.4,4.8,9.9c1.1,3,1.7,6.6,4.5,8.4c0.7,0.4,1.5,0.3,2-0.1c0.4,0.1,0.9,0,1.4-0.2C110.7,94.9,107.3,84,104.9,79.9z"/>
	<path class="st0" d="M92.8,87.8c-0.2-1.3-2.3-1.2-2.6,0c-0.4,1.3-0.8,2.6-1.1,3.9c-0.4,1.7-0.6,2.9,0.5,4.4c0.7,0.9,2.4,0.8,3.1,0
		C94.8,94.1,93.2,90.3,92.8,87.8z"/>
	<path class="st0" d="M75.2,63.1c-0.5-0.9-1.6-1.6-2.7-1.5c-0.7,0.1-1.2,0.2-1.8,0.4c0.1,0,0.1,0,0.2-0.1c-0.3,0.1-0.5,0.2-0.8,0.3
		c-0.2,0.1-0.3,0.1-0.3,0.1c0,0-0.1,0-0.1,0c0,0-0.1,0-0.2,0c0,0,0,0,0.1,0c-0.3-0.1-0.5-0.3-0.8-0.4c-0.1,0-0.1,0-0.1-0.1
		c0,0,0,0-0.1-0.1c-0.6-0.4-1.7-0.2-2,0.5c-0.9,2,0.1,3.8,1.9,4.9c2,1.3,5.5,1.4,6.7-1.1C75.6,65.1,75.8,64.1,75.2,63.1z"/>
	<path class="st0" d="M87.1,35.6c-2.8-0.8-5.1-2.6-7.4-4.3c-0.8-0.6-1.7,0.4-1.5,1.2c0.6,2.7,2.3,5,4.5,6.7c2,1.6,6.1,4,8.3,1.3
		C93.1,37.8,89,36.1,87.1,35.6z"/>
	<path class="st0" d="M31.4,34.2c-2.6-1.4-5.6-0.4-8.5-0.1c-3,0.4-6.1,0.5-9.1,1.2c-1.1,0.2-1,1.9,0,2.2c3.1,0.9,6.5,1.1,9.7,1.2
		c3,0.1,5.9,0.5,8.3-1.4C32.7,36.5,32.4,34.8,31.4,34.2z"/>
	<path class="st0" d="M90.4,78.3c-0.2-1-1.5-1.4-2.3-0.9c-2.2,1.3-2.7,4.5-5.3,5.3c-2.6,0.8-5.6-0.1-8,1.4c-0.4,0.3-0.4,0.8,0,1.1
		c2.4,1.7,7.9,2.3,10.6,0.9C88,84.8,91.1,81.4,90.4,78.3z"/>
	<g>
		<g>
			<path d="M18.9,72.1c-0.5,0-1-0.4-1.1-0.9c-0.2-1.8-1-2-3.1-2.5c-3.3-0.6-7.7-1.5-9.4-11.2c-0.7,0.3-1.4,0.4-2,0.4
				c-2.6,0-3.2-2.2-3.2-4c0-4.4,1.6-7.1,4.2-7.1c2,0,2.6,0.7,3.1,1.3c0,0.1,0.1,0.1,0.1,0.2c0.5,0.3,0.7,0.9,0.5,1.4
				c-0.3,0.5-0.9,0.7-1.4,0.5c-0.5-0.2-0.7-0.6-0.9-0.8c-0.2-0.2-0.3-0.4-1.4-0.4c-1.6,0-2,3.1-2,4.9c0,1.9,0.5,1.9,1.1,1.9
				c0.7,0,1.4-0.2,2.3-0.7c0.3-0.2,0.7-0.2,1,0c0.3,0.2,0.5,0.5,0.6,0.8c1.3,9.6,4.8,10.2,7.9,10.8c2.1,0.4,4.4,0.9,4.8,4.3
				c0.1,0.6-0.4,1.1-0.9,1.2C19,72.1,19,72.1,18.9,72.1z"/>
		</g>
		<g>
			<path d="M24.6,72.3c-0.1,0-0.2,0-0.4-0.1c-0.5-0.2-0.8-0.8-0.6-1.4c1.2-3.3,3.3-4.5,5.1-5.4c2.7-1.5,5.3-2.9,5.3-13.4
				c0-5.1-0.8-13.7-6-13.7c-0.6,0-1.1-0.5-1.1-1.1c0-0.6,0.5-1.1,1.1-1.1c5.3,0,8.2,5.6,8.2,15.8c0,11.8-3.3,13.6-6.5,15.3
				c-1.7,0.9-3.1,1.7-4.1,4.3C25.4,72,25,72.3,24.6,72.3z"/>
		</g>
		<g>
			<path d="M9,51.4c-0.1,0-0.2,0-0.2,0c-0.6-0.1-0.9-0.7-0.8-1.3c0.3-1.3,0.7-2.7,1.1-4c0.8-2.7,1.6-5.3,1.6-8.1c0-0.1,0-0.2,0-0.3
				c0-0.3,0-0.7,0.3-1.1c0.4-0.4,0.8-0.4,1.1-0.4l0.2,0c1.3,0,2.5,0.3,3.6,0.5c1,0.2,2,0.5,2.9,0.5c0.5,0,1.1,0,1.6,0.1
				c0.5,0,1,0,1.5,0c1.6,0,3.4-0.4,4.6-1c0.5-0.3,1.2,0,1.4,0.5c0.3,0.5,0,1.2-0.5,1.4c-1.7,0.9-4,1.2-5.5,1.2c-0.5,0-1.1,0-1.6-0.1
				c-0.5,0-1,0-1.5,0c-1.2,0-2.3-0.3-3.4-0.5c-0.9-0.2-1.8-0.4-2.7-0.5c-0.1,3-0.9,5.7-1.7,8.3c-0.4,1.3-0.8,2.6-1.1,3.8
				C9.9,51.1,9.5,51.4,9,51.4z"/>
		</g>
		<g>
			<path d="M2.2,48.3c-0.5,0-1-0.4-1.1-0.9c-0.1-1-0.3-1.9-0.5-2.9C0.3,43,0,41.5,0,40.1c0-3.3,2.3-7.8,6.7-7.8c0.6,0,1-0.4,1.8-1.6
				c1.3-1.9,3.4-4.7,9.2-4.7c3.5,0,4.7,1,5.9,2c0,0,0.1,0.1,0.1,0.1c1.1-1.2,2.6-1.9,4-1.9c3.2,0,7,8.5,7,12.9c0,0.8,0,1.6-0.1,2.2
				c0,0.6-0.5,1-1.1,1c-0.6,0-1-0.5-1-1.1c0-0.5,0.1-1.3,0.1-2c0-4.3-3.6-10.6-4.8-10.7c-1,0-2.3,0.7-3,1.8c-0.3,0.5-1,0.6-1.5,0.3
				c-0.4-0.3-0.7-0.5-1-0.8c-1-0.8-1.8-1.5-4.6-1.5c-4.8,0-6.2,2-7.5,3.8c-0.9,1.2-1.8,2.5-3.5,2.5c-2.9,0-4.6,3.4-4.6,5.7
				c0,1.2,0.3,2.5,0.6,3.9c0.2,1,0.5,2.1,0.6,3.2c0.1,0.6-0.4,1.1-0.9,1.2C2.3,48.3,2.3,48.3,2.2,48.3z"/>
		</g>
		<g>
			<path d="M23.7,60.1c-0.9,0-2.1-0.1-3-0.5c-0.5-0.3-0.7-0.9-0.5-1.4c0.3-0.5,0.9-0.7,1.4-0.5c0.6,0.3,1.7,0.3,2,0.3
				c0.9,0,1.6-0.7,1.6-1.6c0-0.8-0.4-1.1-1.4-1.7c-1.6-1-3.8-2.3-3.8-7.1c0-2.8,2.2-4.8,6-5.3c0.6-0.1,1.1,0.3,1.2,0.9
				c0.1,0.6-0.3,1.1-0.9,1.2c-1.5,0.2-4.1,0.9-4.1,3.2c0,3.6,1.3,4.5,2.8,5.3c1.1,0.6,2.4,1.5,2.4,3.5
				C27.4,58.4,25.7,60.1,23.7,60.1z"/>
		</g>
		<g>
			<path d="M15.5,49.9c-0.3,0-0.7-0.1-0.9-0.4c-0.2-0.2-0.4-0.6-0.4-0.9c0-0.7,0.4-1.2,0.6-1.3c0.2-0.2,0.5-0.3,0.8-0.3
				c0.3,0,0.6,0.1,0.8,0.3c0.4,0.4,0.6,0.8,0.6,1.2C16.9,49.3,16.2,49.9,15.5,49.9z M15.5,47.7c-0.5,0-0.7,0.4-0.7,0.8
				c0,0.2,0.1,0.3,0.1,0.3l0.7-0.8l0.8,0.8c0,0,0-0.1,0-0.2c0-0.2-0.1-0.4-0.3-0.6C16,47.8,15.7,47.7,15.5,47.7z"/>
		</g>
		<g>
			<path d="M26.2,49.7c-0.9,0-1.3-0.6-1.3-1.3c0-0.4,0.2-0.8,0.4-1.1c0-0.1,0.1-0.1,0.1-0.2c0.2-0.4,0.5-0.6,0.9-0.6
				c0.4,0,0.8,0.2,0.9,0.6c0.1,0.3,0.3,0.7,0.3,1.2C27.5,49.1,26.9,49.7,26.2,49.7z M26.2,47.6c-0.3,0-0.6,0.2-0.7,0.5L26.2,47.6
				l0.6,0.3C26.6,47.7,26.4,47.6,26.2,47.6z"/>
		</g>
		<g>
			<path d="M20.3,65.5c-1.6,0-3.3-1.1-4-2.7c-0.2-0.5,0-1.2,0.6-1.4c0.5-0.2,1.2,0,1.4,0.6c0.4,1,1.7,1.7,2.5,1.3
				c0.5-0.2,1.2,0.1,1.4,0.6c0.2,0.5-0.1,1.2-0.6,1.4C21.2,65.4,20.8,65.5,20.3,65.5z"/>
		</g>
		<g>
			<path d="M2.2,95.7c-0.5,0-1-0.4-1.1-1C1.1,93.9,1,93,1,92.1c0-13.5,7.9-22.2,20.1-22.2c15.4,0,15.8,13.7,16.1,23.6
				c0,0.6-0.4,1.1-1,1.1c-0.6,0-1.1-0.4-1.1-1C34.7,81.7,33.4,72,21.1,72c-8.7,0-17.9,5.3-17.9,20.1c0,0.8,0,1.7,0.1,2.5
				c0.1,0.6-0.4,1.1-1,1.2C2.3,95.7,2.3,95.7,2.2,95.7z"/>
		</g>
		<g>
			<path d="M22.9,92.8c-1.6,0-2.8-1.5-4.8-4.1c-0.9-1.1-1.8-2.3-3.1-3.7c-1.2-1.4-2.2-2.9-3.1-4.4c-1-1.6-2-3.1-3.3-4.5
				c-0.4-0.4-0.4-1.1,0.1-1.5c0.4-0.4,1.1-0.4,1.5,0.1c1.4,1.5,2.5,3.2,3.5,4.8c0.9,1.5,1.8,2.9,2.9,4.1c1.3,1.4,2.3,2.8,3.1,3.8
				c1.3,1.7,2.7,3.4,3.2,3.3c1-0.1,3.1-4.3,5.9-10.2c0.7-1.5,1.5-3.1,2.4-4.9c0.3-0.5,0.9-0.7,1.4-0.5c0.5,0.3,0.7,0.9,0.5,1.4
				c-0.9,1.8-1.7,3.4-2.4,4.9c-4.1,8.3-5.5,11.1-7.6,11.3C23.1,92.8,23,92.8,22.9,92.8z"/>
		</g>
		<g>
			<path d="M22.5,78.7c-4.4,0-4.5-2.7-4.6-4.5c0-0.7,0-1.3-0.2-1.8c-0.2-0.6,0.1-1.2,0.7-1.3c0.6-0.2,1.2,0.1,1.3,0.7
				c0.3,0.8,0.3,1.7,0.3,2.4c0.1,1.8,0.1,2.5,2.5,2.5c1.5,0,1.5-0.7,1.5-1.2c0-0.5-0.1-1.2-0.3-1.8c-0.1-0.5-0.2-0.9-0.3-1.4
				c-0.1-0.6,0.3-1.1,0.9-1.2c0.6-0.1,1.1,0.3,1.2,0.9c0,0.4,0.1,0.8,0.2,1.2c0.2,0.7,0.3,1.5,0.3,2.2
				C26.1,77.4,24.7,78.7,22.5,78.7z"/>
		</g>
		<g>
			<path d="M16.6,85.7c-0.1,0-0.2,0-0.3-0.1c-0.6-0.2-0.9-0.8-0.7-1.3c0.3-0.8,0.6-1.6,0.9-2.3c0.6-1.5,1.2-2.9,1.4-4.5
				c0.1-0.6,0.6-1,1.2-0.9c0.6,0.1,1,0.6,0.9,1.2c-0.3,1.8-0.9,3.4-1.5,4.9c-0.3,0.8-0.6,1.5-0.8,2.2C17.4,85.4,17,85.7,16.6,85.7z"
				/>
		</g>
		<g>
			<path d="M28.2,85.4c-0.3,0-0.6-0.1-0.8-0.4c-1.5-1.9-2.4-4.2-3.2-6.5L23.9,78c-0.2-0.5,0.1-1.2,0.6-1.4c0.5-0.2,1.2,0.1,1.4,0.6
				l0.2,0.5c0.8,2.1,1.6,4.3,2.9,5.9c0.4,0.5,0.3,1.1-0.2,1.5C28.6,85.3,28.4,85.4,28.2,85.4z"/>
		</g>
		<g>
			<path d="M12.1,96.1c-0.4,0-0.9-0.3-1-0.7c-0.7-2.2-1.2-4.6-1.4-7.4c0-0.6,0.4-1.1,1-1.1c0.6,0,1.1,0.4,1.1,1
				c0.2,2.7,0.6,4.9,1.3,6.9c0.2,0.6-0.1,1.2-0.7,1.3C12.3,96.1,12.2,96.1,12.1,96.1z"/>
		</g>
		<g>
			<path d="M42.3,95.7C42.3,95.7,42.3,95.7,42.3,95.7c-0.7-0.1-1.1-0.6-1.1-1.1c0.2-1.9,0.3-4.1,0.3-6.4c0-7.1-1.5-9.8-2.7-12
				c-0.8-1.4-1.6-2.8-1.6-5c0-2,0.9-2.9,2.6-2.9c1.6,0,2.8,0.9,3.7,2.2c0-1,0-2.2,0-3.5c0-3,0-5.4-0.1-7.7c0-0.3,0.1-0.7,0.4-0.9
				c0.3-0.2,0.6-0.3,0.9-0.2c3.2,0.9,5.8,2.1,7.9,3.5c0.3,0.2,0.4,0.5,0.5,0.8c0.2,2,0.4,5.4,0.4,10c0,3.6-0.2,8.3-0.5,14
				c0,0.2,0,0.4,0,0.4c0,2.2,0.3,4.6,0.6,6.6c0.1,0.6-0.3,1.1-0.9,1.2c-0.6,0.1-1.1-0.3-1.2-0.9c-0.3-2-0.6-4.5-0.6-6.9
				c0,0,0-0.2,0-0.5c0.4-5.6,0.5-10.3,0.5-13.9c0-4.1-0.2-7.3-0.3-9.3c-1.5-1-3.3-1.8-5.5-2.5c0.1,1.9,0.1,3.9,0.1,6.3
				c0,4.4,0.1,7,0.1,8.4c0,1.6,0.1,2.3-0.9,2.4c-1,0.1-1.2-0.8-1.3-1.3c-1.1-5-2.6-6-3.6-6c-0.3,0-0.4,0.1-0.4,0.1
				c0,0-0.1,0.2-0.1,0.8c0,1.6,0.5,2.6,1.3,3.9c1.2,2.2,3,5.3,3,13c0,2.3-0.2,4.6-0.3,6.5C43.3,95.3,42.9,95.7,42.3,95.7z"/>
		</g>
		<g>
			<path d="M50.3,88.1c-1.3,0-2.6-0.3-3.8-0.5c-1.2-0.3-2.3-0.5-3.5-0.5C42.5,87,42,86.6,42,86c0-0.6,0.5-1.1,1.1-1.1
				c1.4,0,2.7,0.3,3.9,0.5c1.1,0.3,2.2,0.5,3.3,0.5c0.3,0,0.6,0,0.9-0.1c0.6-0.1,1.1,0.3,1.2,0.9c0.1,0.6-0.3,1.1-0.9,1.2
				C51.2,88,50.8,88.1,50.3,88.1z"/>
		</g>
		<g>
			<path d="M47.9,71.9c-0.6,0-1.1-0.5-1.1-1.1c0-3.8,0.3-7,0.8-10.1c0.1-0.6,0.7-1,1.2-0.9c0.6,0.1,1,0.7,0.9,1.2
				c-0.5,2.9-0.8,6.1-0.8,9.7C49,71.5,48.5,71.9,47.9,71.9z"/>
		</g>
		<g>
			<path d="M42.1,35.5c-0.5,0-0.9-0.3-1-0.8c-0.1-0.5,0-0.9,0.4-1.2c1.3-0.9,2.9-2.2,2.9-4c0-0.8-0.4-1.1-1.7-1.6
				c-1.3-0.6-3.3-1.4-3.3-4.2c0-1.3,0.6-2.6,1.9-3.9c-2.5-2.1-3.8-4.6-3.9-7.5c0-2.9,1.2-5.5,3.5-7.7c3.6-3.4,9.1-4.9,12.8-4.6
				c6.1,0.4,13.1,5.1,13.4,10.7c0.2,3.1-1,6.2-3.3,8.6c-2.7,2.9-6.6,4.5-11,4.6c-0.1,0-0.1,0-0.2,0c-0.9,1.1-1,1.5-1,1.7
				c0,0.3,0.2,0.5,0.8,0.8c0.6,0.4,1.4,0.9,1.4,1.9C53.8,31,48.3,35.5,42.1,35.5z M52.8,2.1c-3.2,0-7.5,1.3-10.4,4.1
				c-1.9,1.8-2.8,3.8-2.8,6.1c0,2.6,1.3,4.7,4,6.5c0.3,0.2,0.4,0.5,0.5,0.8c0,0.3-0.1,0.7-0.4,0.9c-1.4,1.2-2.1,2.2-2.1,3.1
				c0,1.4,0.7,1.7,2,2.3c1.2,0.5,3,1.3,3,3.6c0,1.2-0.4,2.3-1.2,3.4c3.6-1,6-3.4,6.3-4.4c-0.1-0.1-0.3-0.2-0.4-0.3
				c-0.7-0.4-1.8-1.2-1.8-2.6c0-1,0.5-1.9,1.8-3.5c0.2-0.2,0.5-0.4,0.8-0.4c0.2,0,0.4,0,0.6,0c3.8-0.1,7.2-1.5,9.5-4
				c1.9-2,2.8-4.5,2.7-7.1c-0.2-4.4-6.3-8.3-11.4-8.6C53.3,2.1,53.1,2.1,52.8,2.1z"/>
		</g>
		<g>
			<path d="M46.6,14.8c-2,0-2.3-1.1-2.3-1.7c0-0.6,0.4-1,0.6-1.2c0.2-0.2,0.4-0.3,0.6-0.3c0.2-0.1,0.5-0.3,0.9-0.3
				c0.7,0,1.9,0.7,1.9,1.7C48.3,13.7,47.6,14.8,46.6,14.8z M46.2,13.1l0.2,0.2c0-0.1,0.1-0.2,0.1-0.3c0-0.1-0.1-0.2-0.1-0.3
				c-0.1,0-0.1,0.1-0.1,0.1c0,0,0,0.1,0,0.2C46.1,13.1,46.2,13.1,46.2,13.1z"/>
		</g>
		<g>
			<path d="M52.4,14.2c-1,0-1.5-0.6-1.5-1.3c0,0,0-0.1,0-0.2c0-0.1,0-0.3,0-0.4c0-1,0.7-1.5,1.3-1.6c0.1,0,0.2,0,0.3,0
				c0.8,0,1.5,0.7,1.5,1.5c0,0,0,0,0,0c0,0.1,0.1,0.3,0.1,0.5C54.1,13.6,53.4,14.2,52.4,14.2z M52,12.6c0.1,0.2,0.3,0.3,0.6,0.3
				c0.1,0,0.3-0.2,0.4-0.3c-0.1-0.3-0.4-0.4-0.5-0.4C52.3,12.1,52.1,12.3,52,12.6z M51.9,12.2C51.9,12.2,51.9,12.2,51.9,12.2
				C51.9,12.2,51.9,12.2,51.9,12.2z"/>
		</g>
		<g>
			<path d="M58.6,13.8c-0.9,0-1.5-0.7-1.5-1.7c0-0.5,0.2-0.9,0.3-1.2c0.2-0.4,0.7-0.7,1.2-0.6c0.2,0,0.3,0.1,0.4,0.2
				c0.8,0.2,1,0.8,1,1.2c0,0.1,0,0.1,0,0.2c0,0.4,0,0.9-0.4,1.3C59.5,13.6,59.1,13.8,58.6,13.8z"/>
		</g>
		<g>
			<path d="M71.2,69.1c-3.1,0-6.2-0.8-9.2-2.3c-0.3-0.1-0.4-0.4-0.5-0.6c-0.1-0.3,0-0.6,0.1-0.8c1.9-3.5,3-7.3,3-11.1
				c0-2-0.3-4.1-0.7-6.4c-0.4-2.4-0.7-4.8-0.7-7.2c0-10.6,7.6-16.5,12.9-16.5c1.6,0,3.1,0.7,4.4,1.4c2.2-2.2,5.4-3.6,8.4-3.6
				c7.6,0,12.9,10.2,12.9,19.3c0,3.3-0.6,6.5-1.8,10c0.3,0.9,0.7,1.9,1.1,2.8c1.4,3.8,2.9,7.6,3.3,11.7c0.1,0.5-0.3,1-0.8,1.2
				c-3.4,0.7-7.4,1.4-11.5,1.5c-0.3,0-0.6-0.1-0.8-0.3c-0.2-0.2-0.3-0.5-0.3-0.8c0.1-2.2,0.1-4.6,0.1-7.2c0-2.9-0.1-5.7-0.1-9.1
				c0-0.3,0.1-0.6,0.4-0.8c0.3-0.2,0.6-0.3,0.9-0.2c0.4,0.1,0.7,0.1,1,0.1c1,0,2.1-1,2.1-2.1c0-1.3-1.3-2-3.5-2c-0.2,0-0.4,0-0.6,0
				c-0.6,0-1-0.4-1.1-1c-0.1-0.6-0.1-1.2-0.2-1.8c0-0.4-0.1-0.9-0.1-1.3c-5.3,0-10.3-2.9-12.8-7.1c-2.4,2.5-5.6,4.5-9,5.5
				c-0.6,0.2-1.2-0.2-1.3-0.7c-0.2-0.6,0.2-1.2,0.7-1.3c3.5-1,6.8-3.2,9-6c0.2-0.3,0.6-0.4,1-0.4c0.4,0.1,0.7,0.3,0.8,0.7
				c1.7,4.3,6.5,7.3,11.6,7.3c0.3,0,0.5,0,0.8,0c0.6,0,1.1,0.4,1.1,1c0.1,0.8,0.1,1.5,0.2,2.3c0,0.3,0.1,0.6,0.1,0.9
				c3.9,0.1,5.2,2.2,5.2,4.1c0,2.2-2.1,4.2-4.3,4.2c0.1,2.9,0.1,5.4,0.1,7.9c0,2.2,0,4.3-0.1,6.2c3.2-0.1,6.3-0.7,9-1.2
				c-0.6-3.5-1.8-6.9-3.1-10.2c-0.4-1.1-0.8-2.2-1.2-3.2c-0.1-0.2-0.1-0.5,0-0.7c1.2-3.3,1.8-6.4,1.8-9.6c0-8.1-4.6-17.2-10.7-17.2
				c-2.7,0-5.5,1.4-7.3,3.5c-0.3,0.4-0.9,0.5-1.3,0.2c-1.5-0.8-2.8-1.5-4.1-1.5c-3.6,0-10.8,4.3-10.8,14.4c0,2.2,0.4,4.6,0.7,6.9
				c0.3,2.3,0.7,4.6,0.7,6.7c0,3.8-0.9,7.7-2.7,11.2c2.8,1.3,5.7,1.8,8.6,1.6c0.6,0,1.1,0.4,1.1,1c0.1,0.6-0.4,1.1-1,1.1
				C72.3,69.1,71.7,69.1,71.2,69.1z"/>
		</g>
		<g>
			<path d="M75.5,75.3c-0.1,0-0.1,0-0.2,0c-0.6-0.1-1-0.6-0.9-1.2c0.2-1.4,0.4-2.9,0.4-4.4c0-4.7-1.8-6.1-3.5-7.5
				c-1.1-0.9-2.2-1.8-2.8-3.4c-0.9-2.8-1.1-5.5-1.2-8.2c-0.1-2.2-0.2-4.3-0.7-6.4c-0.1-0.6,0.2-1.1,0.8-1.3c0.6-0.1,1.1,0.2,1.3,0.8
				c0.5,2.3,0.7,4.6,0.8,6.8c0.2,2.7,0.3,5.2,1.1,7.7c0.3,1,1.1,1.6,2.1,2.4c1.9,1.5,4.3,3.4,4.3,9.2c0,1.6-0.2,3.2-0.4,4.7
				C76.5,75,76,75.3,75.5,75.3z"/>
		</g>
		<g>
			<path d="M86.8,75c-0.4,0-0.7-0.2-0.9-0.5c-0.6-0.9-1.5-2.7-1.5-4.5c0-2.5,1.6-3.5,3.2-4.5c1.2-0.8,2.5-1.6,3.5-3.2
				c0.3-0.5,1-0.6,1.5-0.3c0.5,0.3,0.6,1,0.3,1.5c-1.3,2-2.9,3-4.1,3.8c-1.5,1-2.2,1.5-2.2,2.8c0,0.9,0.4,2.2,1.2,3.4
				c0.3,0.5,0.2,1.2-0.3,1.5C87.2,75,87,75,86.8,75z"/>
		</g>
		<g>
			<path d="M75.3,56.4c-1.6,0-3.2-1.1-3.2-2.8c0-0.2,0-0.5,0.1-0.7c0.4-1.3,1.3-1.6,1.9-1.8c0.9-0.3,2.3-0.8,2.8-9.7
				c-0.2-0.1-0.6-0.2-1.1-0.2c-1.2,0-2.6,0.6-4.1,1.8c-0.5,0.4-1.1,0.3-1.5-0.2c-0.4-0.5-0.3-1.1,0.2-1.5c1.9-1.5,3.7-2.2,5.4-2.2
				c2,0,3.3,0.9,3.3,2.3c0,0,0,0.1,0,0.1c-0.5,9.6-2.2,11-4.2,11.6c-0.5,0.2-0.5,0.2-0.5,0.4c0,0,0,0.1,0,0.1c0,0.3,0.5,0.7,1.1,0.7
				c0.1,0,0.2,0,0.3,0c0.6-0.2,1.2,0.2,1.3,0.7c0.2,0.6-0.2,1.2-0.7,1.3C75.9,56.3,75.6,56.4,75.3,56.4z"/>
		</g>
		<g>
			<path d="M72.5,48c-0.9,0-1.5-0.6-1.5-1.6c0-0.2,0-0.3,0-0.5c0-0.1,0-0.1,0-0.2c0-0.6,0.5-1.1,1.1-1.1h0.6c0.3,0,0.6,0.1,0.8,0.3
				c0.2,0.2,0.6,0.7,0.6,1.4C74.1,47.2,73.4,48,72.5,48z M72.1,46c-0.1,0.1-0.2,0.2-0.2,0.4c0,0.1,0,0.1,0,0.1l0.2-0.2V46z"/>
		</g>
		<g>
			<path d="M83.7,47.4c-0.8,0-1.4-0.7-1.4-1.7c0-0.4,0.2-0.7,0.5-0.9c0.2-0.4,0.7-0.6,1.2-0.5c1,0.2,1.3,0.9,1.3,1.5
				C85.2,46.6,84.6,47.4,83.7,47.4z M84.4,45.7L84.4,45.7L84.4,45.7z"/>
		</g>
		<g>
			<path d="M80.3,61.2c-0.8,0-1.5-0.2-2.1-0.6c-0.5-0.3-0.6-1-0.3-1.5c0.3-0.5,1-0.6,1.5-0.3c0.3,0.2,0.6,0.3,1,0.3
				c0.9,0,1.9-0.7,2.3-1.6c0.2-0.5,0.9-0.8,1.4-0.5c0.5,0.2,0.8,0.9,0.5,1.4C83.8,60,82,61.2,80.3,61.2z"/>
		</g>
		<g>
			<path d="M102.5,96.5c-0.5,0-1-0.4-1-0.9c-2.2-13.5-6.3-20.8-21.4-20.8c-10.2,0-16.3,6.7-16.3,17.9c0,0.8,0,1.7,0.1,2.6
				c0,0.6-0.4,1.1-1,1.1c-0.6,0-1.1-0.4-1.1-1c-0.1-0.9-0.1-1.9-0.1-2.8c0-12.4,7-20,18.4-20c16.5,0,21.2,8.6,23.5,22.5
				c0.1,0.6-0.3,1.1-0.9,1.2C102.6,96.5,102.6,96.5,102.5,96.5z"/>
		</g>
		<g>
			<path d="M78.2,82.3c-1.8,0-3.3-2.4-4.4-7.1c-0.1-0.6,0.2-1.1,0.8-1.3c0.6-0.1,1.1,0.2,1.3,0.8c0.7,3,1.7,4.9,2.2,5.4
				c1.2-0.8,5.1-3.8,6.5-5.8c0.3-0.5,1-0.6,1.5-0.2c0.5,0.3,0.6,1,0.2,1.5C84.7,77.8,79.1,82.3,78.2,82.3z"/>
		</g>
		<g>
			<path d="M75.5,84.8c-3.3,0-5.7-2.5-5.7-6c0-0.9,0.2-1.8,0.5-2.7c0.2-0.5,0.8-0.8,1.4-0.6c0.5,0.2,0.8,0.8,0.6,1.4
				c-0.2,0.6-0.4,1.2-0.4,1.9c0,2.3,1.5,3.9,3.6,3.9c0.6,0,1.3-0.6,1.6-0.8c0.2-0.2,0.5-0.4,0.9-0.4c0.2,0,0.4,0,0.5,0.1
				c1.1,0.5,2.7,1.1,4.3,1.1c3.4,0,4.9-2.9,4.9-5.7l0-0.4c0-0.6,0.5-1.1,1.1-1.1c0.6,0,1.1,0.5,1.1,1.1l0,0.4c0,4.6-2.9,7.8-7,7.8
				c-1.7,0-3.4-0.5-4.6-1.1C77.6,84.1,76.6,84.8,75.5,84.8z M77.7,83.4C77.7,83.4,77.7,83.4,77.7,83.4
				C77.7,83.4,77.7,83.4,77.7,83.4z"/>
		</g>
		<g>
			<path d="M77.6,96.3c-0.5,0-0.9-0.3-1-0.8c-0.3-1.3-0.4-2.8-0.4-4.4c0-1.6,0.1-3.1,0.2-4.7c0.1-0.8,0.1-1.6,0.2-2.4
				c0-0.6,0.5-1,1.1-1c0.6,0,1,0.5,1,1.1c0,0.8-0.1,1.6-0.2,2.4c-0.1,1.5-0.2,3-0.2,4.5c0,1.5,0.1,2.8,0.4,4
				c0.1,0.6-0.2,1.1-0.8,1.3C77.7,96.3,77.6,96.3,77.6,96.3z"/>
		</g>
		<g>
			<path d="M92.1,95.7c-0.6,0-1.1-0.5-1.1-1.1c0-0.7-0.1-1.4-0.2-2.2c-0.1-0.8-0.2-1.6-0.2-2.5c0-0.6,0.5-1.1,1.1-1.1
				c0.6,0,1.1,0.5,1.1,1.1c0,0.7,0.1,1.4,0.2,2.2c0.1,0.8,0.2,1.6,0.2,2.5C93.1,95.3,92.7,95.7,92.1,95.7z"/>
		</g>
	</g>
</g>
</svg>
