<?xml version="1.0" encoding="utf-8"?>
<!-- Generator: Adobe Illustrator 21.1.0, SVG Export Plug-In . SVG Version: 6.00 Build 0)  -->
<svg version="1.1" id="lineart" xmlns="http://www.w3.org/2000/svg" xmlns:xlink="http://www.w3.org/1999/xlink" x="0px" y="0px"
	 viewBox="0 0 78 103.8" style="enable-background:new 0 0 78 103.8;" xml:space="preserve">
<style type="text/css">
	.st0{fill:#E55A2F;}
</style>
<g>
	<g>
		<g>
			<path class="st0" d="M49.3,21.2c-5.8-7.5-17.6-4.4-22.7,2.2c-2.5,3.3-3.4,7.9-2.2,11.9c0.7,2.4,3.3,6.6,6.2,5.8
				c0.2,0,0.3-0.2,0.3-0.4c0-2.1-1.2-4-1.3-6.2c-0.1-3,1-5.9,3-8.1c4.3-4.6,10.6-3.7,16.2-4.2C49.4,22.3,49.6,21.6,49.3,21.2z"/>
		</g>
		<g>
			<path class="st0" d="M65.5,17.7c-2.4-6-6.5-11.8-13.1-13.3c-0.8-0.2-1.3,0.9-0.6,1.4c12.4,8,10.2,25.4,5.6,37.2
				c-2.5,6.2-5.3,12.4-8.5,18.3c-2.4,4.4-5.3,8.4-8.2,12.4c-3-2.7-6.4-5-9.7-7.3c-3.1-2.2-6.7-5.3-10.5-6.3
				c-0.3-0.1-0.6,0.2-0.5,0.5c1.2,3.6,4.7,6.9,7.3,9.5c3,3,6.3,6.1,9.9,8.3c-1.8,3.1,2.9,6.5,5.4,3.9c5.5-5.8,9.9-12.7,14.2-19.4
				c4.4-7,8.3-14.5,10-22.7C68.3,32.7,68.4,25,65.5,17.7z"/>
		</g>
		<g>
			<path class="st0" d="M32.2,13.5c-5.3,0.9-9.5,4.5-11.7,9.3c-1.8,4-2.1,8.3-0.7,12.4c0.3,1.7,0.9,3.3,1.7,4.8
				c2,3.9,6.9,9,11.8,7.4c1.2-0.4,2-1.7,1.4-2.9c0.5-0.6,0.5-1.5,0-2.2c-4.4-5-10.9-8.8-8.7-16.6c0.2-0.8,0.6-1.6,1-2.3
				c1.3-2,3.2-3.5,5.4-4.5c0.1,0,0.2-0.1,0.3-0.1c0.3-0.1,0.5-0.1,0.8-0.2c1.8-0.4,3.9-0.3,5.8,0c1.4,0.3,2.6,0.9,4,0.7
				c0.5-0.1,0.8-0.4,0.7-0.9C43.1,13.7,35.8,12.9,32.2,13.5z"/>
		</g>
		<g>
			<path class="st0" d="M69.5,19.3c-0.1-0.2-0.3-0.1-0.3,0c-1.3,11.8-2.4,23.3-7.1,34.4c-2.2,5.3-5.1,10.3-8.5,14.9
				c-3.5,4.7-7.9,8.5-11.7,12.9C41,80,39,79.2,37.6,78.1c-1.7-1.2-3.2-2.6-4.7-3.9c-0.6-0.5-1.6,0.1-1.2,0.9c1,2,2.3,3.6,3.8,5.2
				c1.4,1.5,3,3.3,5.2,3.4c0.1,0,0.3,0,0.4,0c0.1,1.4,1.6,2.6,3.3,1.7c10.6-5.6,18.2-18.7,22.5-29.4C71.3,44.8,73.7,31,69.5,19.3z"
				/>
		</g>
		<g>
			<path class="st0" d="M76.9,95.9c-0.6-1.6-1.2-3.3-1.7-4.9c-0.4-2-0.9-4-1.2-6.1c-0.5-3.5-0.9-6.8-2.4-10c-0.6-1.4-2.7-0.2-2,1.2
				c1.6,3.4,1.7,7.2,2.4,10.8c0.2,1,0.4,2,0.6,3c0,0.2-0.1,0.4,0,0.6c0.2,1.2,0.5,2.5,0.8,3.7c-0.3,0-0.5,0-0.8,0
				c-16.9,1.5-33.9,1.8-50.8,0.8c0-0.3-0.1-0.5-0.3-0.8c-0.5-0.7-1-1.4-1.5-2.1c-0.1-1.1-0.6-2-1.6-2.8c-0.2-0.2-0.5-0.3-0.8-0.5
				c-0.3-0.4-0.6-0.9-1-1.3c-1.5-2-5.3-0.7-5.1,1.3c-0.3,0.2-0.6,0.3-0.9,0.6c-0.9,0.8-1.7,1.8-1.6,2.9c0.1,0.9,0,1.7-0.1,2.6
				c0-0.1,0-0.3,0.1-0.4c-0.1,0.7-0.1,1.4,0.2,2c-1.4,2.3,0.2,6,4.7,6.3c19.5,1.5,39.2,1.4,58.7-0.3c3-0.3,5.4-1.7,5.5-4.1
				C78,97.5,77.6,96.6,76.9,95.9z"/>
		</g>
	</g>
	<g>
		<g>
			<path d="M38,47.6c-8.6,0-16.2-7.2-16.2-15.5c0-10.9,8.3-15.8,16-15.8c2.2,0,4.3,0.4,6.3,1.2c4,1.6,6.7,3.5,8.3,6
				c1.2,1.9,1.8,4.2,1.8,7.4C54.2,41.3,46,47.6,38,47.6z M37.8,18.4c-6.9,0-13.9,4.2-13.9,13.7c0,7,6.7,13.4,14.1,13.4
				c6.9,0,14.1-5.5,14.1-14.6c0-2.7-0.5-4.7-1.4-6.2c-1.3-2.1-3.7-3.7-7.3-5.2C41.6,18.8,39.8,18.4,37.8,18.4z"/>
		</g>
		<g>
			<path d="M40.5,86.6c-0.3,0-0.5-0.1-0.7-0.3C27,75.2,5.4,53,5.4,29.7c0-9.5,3.8-17,11.4-22.4C17.3,7,18,7.1,18.3,7.6
				C18.6,8,18.5,8.7,18,9C11.1,14,7.5,21,7.5,29.7c0,22,20.2,43.2,32.9,54.4C54.5,67.4,67,50.3,67,26.5C67,9.7,53.8,2.1,40.7,2.1
				c-6.9,0-13.5,1.6-17.8,3c-0.6,0.2-1.2-0.1-1.3-0.7c-0.2-0.6,0.1-1.2,0.7-1.3C26.7,1.7,33.5,0,40.7,0c19.6,0,28.4,13.3,28.4,26.5
				c0,27-16.1,45.9-27.8,59.8C41.1,86.5,40.9,86.6,40.5,86.6C40.5,86.6,40.5,86.6,40.5,86.6z"/>
		</g>
		<g>
			<path d="M9.2,100.5c-0.4,0-0.7-0.2-0.9-0.5c-1.3-2-2.6-4.1-3.8-6.1c-1.4-2.3-2.8-4.6-4.3-6.9C0.1,86.8,0,86.6,0,86.4
				c0.3-5.4,0.8-8.7,1.3-12.2C1.8,71,2.2,67.8,2.6,63c0-0.3,0.2-0.5,0.4-0.7C3.2,62.1,3.4,62,3.7,62c5.9,0.5,11.7,1.1,17.1,1.7
				c0.6,0.1,1,0.6,0.9,1.2c-0.1,0.6-0.6,1-1.2,0.9c-5.1-0.6-10.5-1.2-16-1.6c-0.4,4.3-0.8,7.3-1.2,10.2c-0.5,3.4-0.9,6.6-1.3,11.7
				c1.5,2.2,2.8,4.5,4.2,6.7c1.1,1.8,2.2,3.7,3.4,5.5l30.5-0.9l31.1-0.8l-4-29.3l-12.6,1.1c-0.6,0-1.1-0.4-1.1-1
				c0-0.6,0.4-1.1,1-1.1l13.6-1.1c0.6,0,1.1,0.4,1.1,0.9l4.3,31.5c0,0.3,0,0.6-0.2,0.8c-0.2,0.2-0.5,0.4-0.8,0.4l-32.2,0.8
				C40.3,99.6,9.2,100.5,9.2,100.5z"/>
		</g>
		<g>
			<path d="M9.3,99.8c-0.6,0-1.1-0.5-1.1-1.1c0-3.2,0.6-6.4,1.2-9.4c0.1-0.8,0.3-1.5,0.4-2.3c-1.2,0-2.6,0-4,0c-1.4,0-2.9-0.1-4.3,0
				c-0.6,0-1.1-0.4-1.1-1c0-0.6,0.4-1.1,1-1.1c1.5-0.1,3,0,4.5,0c1.8,0.1,3.7,0.1,5.1,0c0.3,0,0.6,0.1,0.9,0.3
				c0.2,0.2,0.3,0.6,0.3,0.9c-0.2,1.2-0.4,2.4-0.7,3.7c-0.6,3.1-1.1,6-1.1,9C10.4,99.4,9.9,99.8,9.3,99.8z"/>
		</g>
		<g>
			<path d="M35.1,98.9c-0.4,0-0.8-0.2-1-0.6c-0.2-0.5,0-1.2,0.6-1.4l2.6-1.1c0.5-0.2,1.2,0,1.4,0.6c0.2,0.5,0,1.2-0.6,1.4l-2.6,1.1
				C35.4,98.9,35.2,98.9,35.1,98.9z M43.5,95.3c-0.4,0-0.8-0.2-1-0.6c-0.2-0.5,0-1.2,0.6-1.4l2.6-1.1c0.5-0.2,1.2,0,1.4,0.6
				c0.2,0.5,0,1.2-0.6,1.4L44,95.2C43.8,95.3,43.7,95.3,43.5,95.3z M52,91.7c-0.4,0-0.8-0.2-1-0.6c-0.2-0.5,0-1.2,0.6-1.4l2.6-1.1
				c0.5-0.2,1.2,0,1.4,0.6c0.2,0.5,0,1.2-0.6,1.4l-2.6,1.1C52.3,91.6,52.1,91.7,52,91.7z M60.4,88c-0.4,0-0.8-0.2-1-0.6
				c-0.2-0.5,0-1.2,0.6-1.4l2.6-1.1c0.5-0.2,1.2,0,1.4,0.6c0.2,0.5,0,1.2-0.6,1.4L60.8,88C60.7,88,60.5,88,60.4,88z M68.8,84.4
				c-0.4,0-0.8-0.2-1-0.6c-0.2-0.5,0-1.2,0.6-1.4l1.5-0.6c0.5-0.2,1.2,0,1.4,0.6c0.2,0.5,0,1.2-0.6,1.4l-1.5,0.6
				C69.1,84.4,69,84.4,68.8,84.4z"/>
		</g>
		<g>
			<path d="M10,93.2c-0.5,0-0.9-0.3-1-0.8c-0.1-0.6,0.2-1.1,0.8-1.3l14.9-3.8l-6.5-7.6c-0.2-0.3-0.3-0.6-0.2-1
				c0.1-0.3,0.4-0.6,0.7-0.7l10.9-3.6c0.6-0.2,1.2,0.1,1.3,0.7c0.2,0.6-0.1,1.2-0.7,1.3l-9.4,3.1l6.6,7.7c0.2,0.3,0.3,0.7,0.2,1
				c-0.1,0.4-0.4,0.6-0.7,0.7l-16.5,4.3C10.2,93.2,10.1,93.2,10,93.2z"/>
		</g>
	</g>
</g>
</svg>
