<?xml version="1.0" encoding="utf-8"?>
<!-- Generator: Adobe Illustrator 21.1.0, SVG Export Plug-In . SVG Version: 6.00 Build 0)  -->
<svg version="1.1" id="lineart" xmlns="http://www.w3.org/2000/svg" xmlns:xlink="http://www.w3.org/1999/xlink" x="0px" y="0px"
	 viewBox="0 0 116.7 91.1" style="enable-background:new 0 0 116.7 91.1;" xml:space="preserve">
<style type="text/css">
	.st0{fill:#E55A2F;}
</style>
<g>
	<g>
		<g>
			<path class="st0" d="M47.5,20.7c-2.1-0.7-3.3,1.7-2.6,3.4c2,4.7,3.4,8.7,1.3,13.6c-1.8,4.2-5,7.5-9,9.6
				c-4.1,2.2-8.9,2.7-13.4,1.9c-3.5-0.7-7.6-3.1-11.1-2.5c-0.4,5.5,8,8.8,12.2,9.5c6.5,1.2,13.4-0.4,18.9-4.1
				c5.5-3.7,9.8-9.3,10.9-16C55.6,30,53.8,22.8,47.5,20.7z"/>
		</g>
		<g>
			<path class="st0" d="M104.3,48.3c-2.6-2-5.8,0.8-8.3,1.7c-5.6,2.1-16.3,3.4-20.7-1.5c-0.5-0.6-1.5-0.1-1.5,0.6
				c-0.1,5.5,6.8,8.4,11.4,9.2c5.8,1,14.6,0.1,18.9-4.5C105.6,52.2,106.2,49.8,104.3,48.3z"/>
		</g>
		<g>
			<path class="st0" d="M79.4,56.6c-10.8-5.3-26.2-7.6-37.2-1.3c-1.4,0.2-2.7,0.6-3.9,1.2c0.7-0.8,1.4-1.6,1.9-2.5
				c0.6-1.2,0.3-2.5-0.9-3.3c-3.3-2.1-7.3,0-9.9,2.4c-3.3,3.2-5,7.5-6.5,11.7c-1.6,4.4-3.2,8.3-6.7,11.5c-1.7,1.6-4.1,3.4-6.6,3.6
				C7.2,80,6,78.2,4.2,76.9c-0.1-0.1-0.2,0-0.3,0.1c-1.4,2,0.1,4.3,1.9,5.8c-0.7,0-1.4,0-2.1,0.1c-0.1,0-0.3,0.2-0.2,0.3
				c3.5,4.6,11,4.4,16,2.9C27,84,32.5,78.7,37.1,72.8c4.7-6,8.6-11.4,16.3-13.4c8.3-2.2,16.7,0.3,25,0.6C80.2,60,81,57.4,79.4,56.6z
				"/>
		</g>
		<g>
			<path class="st0" d="M112.9,72.8c-1.3-8.6-4.1-16.6-2.8-25.4c1.1-7.6,1.7-16.9-4.2-22.8c-1-1-2.9-0.3-2.9,1.2
				c0,3.2,0.6,6.3,0.7,9.4c0.1,3.5-0.5,6.7-1.4,10.1c-1.8,6.4-3.1,12.1-2.1,18.7c0.5,3.2,1.4,6.3,2.1,9.4c0.4,1.9,1.5,5.3,0.5,7.2
				c-2.8,5.1-12.4-0.1-16.1-0.6c-0.4,0-0.7,0.3-0.5,0.6c3.1,5.8,10.2,9.6,16.8,8.3C110.7,87.2,114,80.1,112.9,72.8z"/>
		</g>
		<g>
			<path class="st0" d="M76.7,52.5c-1.2-0.2-2.6,1.3-2.9,2.4c-0.3,1-0.9,1.8-1.5,2.7C72,58,72.5,58.5,73,58.3
				c0.5-0.3,0.9-0.5,1.4-0.8c0.5-0.3,0.9-0.4,1.4-0.5c0.5-0.1,0.9-0.6,1.3-0.9c0.7-0.5,1.2-1.1,1.1-2C78.2,53.2,77.6,52.6,76.7,52.5
				z"/>
		</g>
		<g>
			<path class="st0" d="M95.2,40c-1-1.6-3.9-1.5-4.3,0.6c-0.2,1.1,0,2.5-1.2,3.1c-1.3,0.6-2.4-0.5-3.5-1c-1-0.5-1.8,0.1-2,1.1
				c-0.5,3.4,4.2,5.3,6.9,4.5C94.5,47.3,97.1,43.2,95.2,40z"/>
		</g>
		<g>
			<path class="st0" d="M85.6,33.7c-0.4-0.5-1-0.9-1.7-0.7c-1.6,0.5-2.1,2.1-3.3,2.9c-1.1,0.8-2.6,0.5-3.6-0.1
				c-0.7-0.4-1.9,0.1-1.8,1c0.3,3,3.4,4.5,6.2,3.7C83.9,39.8,87.5,36.5,85.6,33.7z"/>
		</g>
		<g>
			<path class="st0" d="M89.8,24.2c-0.3,0.9-0.9,1.1-1.7,1.2c-0.9,0.1-1.7,0.3-2.3-0.4c-0.5-0.6-1.3-0.3-1.7,0.2
				c-0.7,0.9-0.5,2.2,0.2,3c0.9,1,2.5,1.3,3.8,1.3c3,0.1,6-1.6,6.1-4.8C94.2,22.2,90.5,21.9,89.8,24.2z"/>
		</g>
		<g>
			<path class="st0" d="M99.6,32.9c-1,0.6-1.4,1.6-2.4,2.3c-0.3,0.3-0.7,0.4-1.1,0.5c-0.2,0.1-0.3,0.1-0.5,0.1c-0.1,0-0.3-0.1-0.1,0
				c-0.4-0.6-1.3-0.7-1.7,0c-1.3,2.2,1.5,4,3.5,3.9c2.8,0,5.9-1.9,6.1-4.8C103.6,33.2,101.2,31.9,99.6,32.9z"/>
		</g>
		<g>
			<path class="st0" d="M40.3,31.9c-0.5-2.2-1.5-4.4-3.5-5.6c-1-0.6-1.9-0.5-2.9-0.8c-1.2-0.5-0.8,0.1-0.9-1.7
				c-0.1-2.3-3-2.5-3.8-0.5c-0.8,2.1-0.6,5,1.5,6.2c1.7,1,3.1,0.3,4.2,2.6c1.2,2.8-0.7,3.3-2.9,3.8c-1.2,0.2-1.8,1.4-1.9,2.5
				c-0.1,1,0.6,1.9,0.7,2.6c-0.2-0.9-1.7,0-2.6,0.2c-0.8,0.2-3.9,1.1-4.6,0.8c-1.6-0.6-1.6-3.3-2-4.6c-0.1-0.5-0.6-0.8-1.1-0.8
				c-1.3,0-2.1,0.2-3.3,0.8c-0.6,0.3-0.4,1.4,0.4,1.4c0.6-0.1,1.2-0.1,1.8-0.1c0.1,1.8,0,3.7,1.2,5.2c1.5,1.9,3.9,1.6,6,1.5
				c2.3-0.1,5.7,0,7.6-1.4c1.5-1.2,1.3-2.3,1.1-3.7C39.1,39.1,41.2,36.3,40.3,31.9z"/>
		</g>
		<g>
			<path class="st0" d="M48.1,20.5c-0.1-0.4-0.4-0.9-0.7-1.2c-0.2-0.5-0.6-0.9-1.1-1.3c-0.4-0.3-1-0.4-1.5-0.2c0,0,0,0,0-0.1
				c-0.1-0.9-1.5-0.9-1.9-0.2c-0.5,0.8-0.6,1.7-0.3,2.6c0.1,0.4,0.3,0.8,0.6,1.2c0.1,0.2,0.3,0.4,0.5,0.6c0.1,0.1,0.8,0.7,0.5,0.4
				c0.3,0.2,0.7,0.5,1.1,0.6c0.7,0.2,1.4,0.2,2-0.2C48,22.2,48.3,21.3,48.1,20.5z"/>
		</g>
		<g>
			<path class="st0" d="M104.6,84c-7.1,1.2-13.3-5.7-16.5-11.3c-3-5.3-3.7-11.9-8.1-16.5c-3.9-4-9.8-5.7-15.1-6.8
				c-6.3-1.3-13.4-2.7-19.8-1.5c-0.2-0.2-0.4-0.5-0.6-0.7c-0.2-0.3-0.7-0.2-0.9,0.1c-0.4,0.6-0.7,1.2-1,1.8c-0.6,1.2-0.1,2.6,1.2,3
				c7.2,2.2,15,2,22.3,3.9c3.3,0.9,6.5,2.1,9.2,4.2c3.1,2.5,4.3,5.7,5.8,9.3c2.4,5.7,6.2,10.8,10.9,14.7c3.8,3.1,9.7,6.1,14,2.2
				C107.2,85.4,106,83.8,104.6,84z"/>
		</g>
		<g>
			<path class="st0" d="M100.2,17.6c-1.4-0.5-2.7,1.3-1.9,2.5c5,7.2,6.8,14.8,1.9,22.6c-2.6,4.2-6.2,7.4-11.4,6.9
				c-4.4-0.5-8.8-1.7-12.3-4.5c-0.4-0.3-1-0.1-1,0.4c-0.2,5.1,6.9,7.4,10.7,8.5c7,2.1,12.5-0.5,17-6.1
				C109.9,39.5,112.6,22.6,100.2,17.6z"/>
		</g>
		<g>
			<path class="st0" d="M87.6,3.2c-2.7,0.4-4.2,2.2-7.2,2c-2.9-0.1-5.8-1.2-8.5-1.9C67.4,2.3,62.3,0.5,58,2.8
				c-2.7,1.5-5.2,4.8-4,8.1c0.6,1.8,1.9,2,3.5,2.5c2.2,0.7,4.4,1.3,6.7,1.7c0,0.3,0,0.5,0,0.8c0,0.2,0.2,0.5,0.4,0.5
				c1.7,0.3,2.7-0.6,3.1-2.3c0.2-1-0.3-1.8-1.2-2.2C64.3,11,62,10.5,59.8,10c-0.7-0.2-2.4-0.3-2.7-0.7c-0.7-0.9,1.4-2.9,2.2-3.3
				c3.9-2.4,9.9,0.4,13.9,1.5c3.9,1.1,15.5,3.9,16-3.1C89.2,3.5,88.3,3,87.6,3.2z"/>
		</g>
		<g>
			<path class="st0" d="M14.5,77.7c-2.1,0.7-4.5,1-6.6,0c-1.8-0.8-2.9-2.5-4.3-3.8C3.5,73.7,3.1,73.8,3,74c-0.6,2.7,1.3,5.2,3.5,6.5
				c2.8,1.7,6.4,1.5,9-0.4C16.7,79.3,16.1,77.1,14.5,77.7z"/>
		</g>
		<g>
			<path class="st0" d="M115.3,69.6c-1.1-3-2.7-5.7-4.1-8.5c-2-3.8-3.3-7.6-4.4-11.8c-0.5-1.7-2.7-1.5-3.3,0
				c-3.6,10,7.2,18.5,5.9,28.4c-1.6,11.3-15.9,4.6-22.3,2.6c-0.3-0.1-0.5,0.2-0.4,0.4c2.7,10.7,21.1,14.2,27.4,5.1
				C117.4,81.1,117.3,74.9,115.3,69.6z"/>
		</g>
	</g>
	<g>
		<g>
			<path d="M11.7,47.8c-0.2,0-0.4-0.1-0.6-0.2c-2.8-1.9-7.1-8.5-7.1-13.7c0-12,10.1-21,23.6-21c4.1,0,8,0.9,11.3,2.7
				c0.5,0.3,0.7,0.9,0.4,1.4c-0.3,0.5-0.9,0.7-1.4,0.4c-3-1.6-6.6-2.4-10.4-2.4C15.2,15.1,6.2,23,6.2,33.9c0,4.3,3.7,10.3,6.1,11.9
				c0.5,0.3,0.6,1,0.3,1.5C12.4,47.6,12,47.8,11.7,47.8z"/>
		</g>
		<g>
			<path d="M28.2,53.4c-2.2,0-4.3-0.5-6.3-1.3c-0.5-0.2-0.8-0.9-0.5-1.4c0.2-0.5,0.9-0.8,1.4-0.5c1.7,0.8,3.6,1.2,5.5,1.2
				c8.4,0,17.5-7.5,17.5-19.5c0-5.2-1.8-8.1-4.7-11c-0.4-0.4-0.4-1.1,0-1.5c0.4-0.4,1.1-0.4,1.5,0c3.2,3.2,5.3,6.5,5.3,12.5
				C47.9,45.2,37.7,53.4,28.2,53.4z"/>
		</g>
		<g>
			<path d="M99.3,87.9C87,87.9,81,72,76.7,60.3c-0.3-0.8-0.6-1.6-0.9-2.4c-2.2-2.2-6.6-4.9-18.8-4.9c-9.4,0-21.6,1.9-25.8,11
				C24.5,78.6,17,86,9.2,86C5.5,86,0,82.3,0,72.2c0-4.6,0.8-9.2,1.5-13.6c0.4-2.4,0.8-4.9,1.1-7.3c0.3-2.4,0.6-4.7,1-7
				c0.3-2,0.6-4,0.9-6.1c0.1-0.6,0.6-1,1.2-0.9c0.6,0.1,1,0.6,0.9,1.2c-0.3,2.1-0.6,4.1-0.9,6.1c-0.3,2.3-0.7,4.6-1,6.9
				c-0.3,2.5-0.7,5-1.1,7.4c-0.7,4.4-1.5,8.9-1.5,13.3c0,8.6,4.2,11.7,7,11.7c8.7,0,15.7-11.3,20.1-20.7
				C33.9,53,46.9,50.9,56.9,50.9c13.3,0,18.1,3.3,20.5,5.7c0.1,0.1,0.2,0.2,0.2,0.4c0.3,0.8,0.6,1.7,1,2.6
				c4.4,11.7,9.8,26.2,20.7,26.2c5.4,0,8.3-3.1,8.3-8.9c0-4.8-2.3-16.2-4.6-27.3l-0.7-3.6c-0.1-0.6,0.3-1.1,0.8-1.2
				c0.6-0.1,1.1,0.3,1.2,0.8l0.7,3.6c2.3,11.2,4.6,22.8,4.6,27.7C109.8,83.9,106,87.9,99.3,87.9z"/>
		</g>
		<g>
			<path d="M87.8,54.4c-10.7,0-14.9-6.8-16.4-9.3c-0.1-0.2-0.2-0.4-0.3-0.5c-0.3-0.5-0.2-1.1,0.3-1.5c0.5-0.3,1.1-0.2,1.5,0.3
				c0.1,0.2,0.2,0.4,0.4,0.6c1.5,2.5,5.1,8.3,14.6,8.3c9,0,18.1-5.7,18.1-18.6c0-9.2-5.5-18.4-17.9-18.4c-4.6,0-9.4,1.4-13.3,3.9
				c-3.6,2.3-6.2,6.8-6.2,11.1c0,0.5,0,1.1,0.1,1.6c0.1,0.6-0.3,1.1-0.9,1.2c-0.6,0.1-1.1-0.3-1.2-0.9c-0.1-0.6-0.1-1.3-0.1-1.9
				c0-5,2.9-10.2,7.1-12.9c4.3-2.7,9.5-4.2,14.5-4.2c10,0,20,6.3,20,20.5C108,45.9,99.7,54.4,87.8,54.4z"/>
		</g>
		<g>
			<path d="M75.2,19c-0.2,0-0.3,0-0.5-0.1c-1.2-0.6-2.8-1.1-6.8-1.1c-3.8,0-7.6,0.3-11.3,0.6c-4.3,0.3-8.7,0.7-13.1,0.6
				c-0.6,0-1-0.5-1-1.1c0-0.6,0.5-1,1.1-1c4.3,0.1,8.7-0.2,12.9-0.6c3.8-0.3,7.6-0.6,11.5-0.6c4.4,0,6.3,0.6,7.7,1.3
				c0.5,0.3,0.7,0.9,0.5,1.4C75.9,18.8,75.6,19,75.2,19z"/>
		</g>
		<g>
			<path d="M45.8,17.9c-0.6,0-1.1-0.5-1.1-1.1c0-0.2,0-0.4,0-0.7c0-0.3,0-0.7,0-1c0-1.6,1.4-2.6,4.2-3c1.9-0.3,4.2-0.3,5.7-0.3h0.3
				c0.9,0,3,0,4.9,0.2c2.2,0.2,4.4,0.7,4.4,2.4c0,0.3,0,0.6-0.1,1c0,0.2,0,0.4,0,0.6c0,0.6-0.5,1.1-1.1,1.1C62.5,17,62,16.6,62,16
				c0-0.2,0-0.5,0.1-0.8c0-0.2,0-0.3,0-0.5C61.7,14.5,60.2,14,55,14c0,0,0,0-0.1,0h-0.3c-1.4,0-3.6,0-5.3,0.3
				c-2,0.3-2.4,0.8-2.4,0.9c0,0.3,0,0.6,0,0.9c0,0.3,0,0.6,0,0.8C46.9,17.4,46.4,17.9,45.8,17.9z"/>
		</g>
		<g>
			<path d="M53,13.1C53,13.1,52.9,13,53,13.1c-0.7,0-1.1-0.5-1.1-1.1c0.5-7.3,2.3-11.6,10.4-11.6c4.1,0,6.9,1.5,9.3,2.7
				c1.9,1,3.6,1.9,5.5,1.9c3,0,5.9-1.7,7.5-4.4C85,0,85.6-0.2,86.1,0.1c0.5,0.3,0.7,0.9,0.4,1.4c-1.9,3.3-5.6,5.5-9.3,5.5
				c-2.5,0-4.4-1-6.5-2.1c-2.3-1.2-4.8-2.5-8.4-2.5c-6.6,0-7.9,3-8.3,9.6C54,12.6,53.5,13.1,53,13.1z"/>
		</g>
		<g>
			<path d="M23,43.8c-0.2,0-0.5-0.1-0.7-0.2c-0.2-0.2-0.4-0.4-0.4-0.7c-0.1-1.2-0.1-2.5-0.2-3.7c0-0.6,0-1.2-0.1-1.8
				c-1.3,0.2-2.7,0.3-4,0.4c-0.6,0-1.1-0.4-1.1-1c-0.1-0.8-0.1-1.6-0.1-2.6c0-0.6,0-1.3,0-1.9c0-0.6,0-1.3,0-1.9v-0.1
				c0-0.3,0.1-0.6,0.3-0.8c0.2-0.2,0.5-0.3,0.8-0.3l0.9,0c1.4,0,2.5,0,3.5-0.1c-0.1-1.8-0.2-3.6-0.4-5.4c0-0.3,0.1-0.6,0.3-0.8
				c0.2-0.2,0.5-0.4,0.8-0.4c2.3-0.1,4.6-0.4,7.1-0.9c0.3,0,0.6,0,0.8,0.2c0.2,0.2,0.4,0.4,0.4,0.7c0.3,2.2,0.4,4.3,0.4,6.2
				c1.5,0.1,2.9,0,4.1-0.3c0.3-0.1,0.6,0,0.8,0.2c0.2,0.2,0.4,0.4,0.4,0.7c0.1,0.8,0.3,1.7,0.4,2.5c0.2,1.3,0.4,2.6,0.6,3.9
				c0.1,0.5-0.2,1-0.7,1.2c-1.7,0.6-3.4,0.9-5,1.1c0.1,1.2,0.2,2.3,0.5,3.4c0.1,0.3,0,0.6-0.2,0.8c-0.2,0.2-0.4,0.4-0.7,0.4
				c-1.6,0.3-3.3,0.5-5,0.7c-1.1,0.1-2.3,0.3-3.4,0.4C23.1,43.8,23,43.8,23,43.8z M22.7,35.1c0.2,0,0.5,0.1,0.6,0.2
				c0.2,0.2,0.4,0.5,0.4,0.8c0.1,1,0.1,2,0.1,3c0,0.8,0.1,1.7,0.1,2.5c0.8-0.1,1.6-0.2,2.3-0.3c1.3-0.2,2.5-0.3,3.8-0.5
				c-0.2-1.1-0.3-2.3-0.4-3.6c0-0.6,0.4-1.1,0.9-1.1c1.4-0.1,3.1-0.4,4.7-0.8c-0.2-1-0.3-2-0.5-3c-0.1-0.5-0.2-1-0.2-1.5
				c-1.4,0.2-3,0.2-4.7,0c-0.5-0.1-1-0.5-1-1c0-2.2-0.1-4-0.3-5.8c-1.8,0.3-3.4,0.5-5.1,0.7c0.1,1.5,0.2,3.1,0.3,4.6l0.1,0.8
				c0,0.6-0.4,1.1-0.9,1.1c-1.7,0.2-3.3,0.2-4.5,0.2c0,0.3,0,0.6,0,1c0,0.6,0,1.3,0,1.9c0,0.5,0,1,0,1.4c1.3-0.1,2.6-0.3,3.9-0.5
				C22.5,35.2,22.6,35.1,22.7,35.1z"/>
		</g>
		<g>
			<path d="M87,27.4c-2.3,0-4.1-1.7-4.1-4c0-2.5,2.2-4.6,4.7-4.3c0,0,0.2,0,0.2,0c0.2,0,0.6,0,0.9,0.2c1.9,0.8,2.8,2,2.8,3.7
				C91.5,25.3,89.4,27.4,87,27.4z M87.1,21.2c-1.1,0-2.1,1-2.1,2.2c0,1,0.9,1.9,2,1.9c1.3,0,2.4-1.2,2.4-2.3c0-0.5-0.2-1.1-1.5-1.7
				c0,0-0.2,0-0.3,0c-0.1,0-0.2,0-0.3,0C87.3,21.2,87.2,21.2,87.1,21.2z"/>
		</g>
		<g>
			<path d="M79.5,37.6c-2.3,0-4.1-1.7-4.1-3.8c0-1.8,1.3-4.3,3.7-4.3c1.5,0,2.8,0.7,3.6,1.8c0.4,0.6,0.8,1.8,0.8,2.4
				C83.6,35.3,81.9,37.6,79.5,37.6z M79.1,31.6c-0.9,0-1.6,1.3-1.6,2.2c0,1.1,1,1.7,2,1.7c1.1,0,1.9-1.3,1.9-1.7
				c0-0.2-0.2-1-0.4-1.2C80.4,31.7,79.4,31.6,79.1,31.6z"/>
		</g>
		<g>
			<path d="M88.6,46c-2.1,0-4-2.1-4-4.3c0-1.6,1.2-4.4,3.7-4.4c0.3,0,0.6,0,1,0.1c0.8,0.2,2,0.6,2.9,1.6c0.5,0.6,0.8,1.7,0.8,2.4
				C93,42.9,91.3,46,88.6,46z M88.3,39.5c-1,0-1.6,1.6-1.6,2.2c0,1,1,2.2,1.9,2.2c1.3,0,2.2-1.9,2.3-2.4c0-0.3-0.2-0.9-0.3-1.1
				c-0.4-0.5-1-0.7-1.8-0.9C88.5,39.5,88.4,39.5,88.3,39.5z"/>
		</g>
		<g>
			<path d="M97.1,37.6c-2.5,0-4.1-2.3-4.1-4.3c0-1.9,1.1-3.7,2.8-4.6c0.4-0.2,0.8-0.3,1.3-0.3c1.6,0,4.6,1.4,4.6,4.5
				C101.6,36.5,98.3,37.6,97.1,37.6z M97,30.5c-0.1,0-0.2,0-0.3,0.1c-1,0.5-1.6,1.6-1.6,2.7c0,1.1,0.8,2.2,2,2.2
				c0,0,2.4-0.3,2.4-2.6C99.5,31,97.4,30.5,97,30.5z"/>
		</g>
		<g>
			<path d="M55.9,34.9c-1.6,0-3.1-0.1-4.5-0.1c-0.6,0-1-0.5-1-1.1c0-0.6,0.5-1,1.1-1c1.4,0.1,2.9,0.1,4.4,0.1c1.6,0,3-0.1,4.3-0.3
				c0.6-0.1,1.1,0.3,1.2,0.9c0.1,0.6-0.3,1.1-0.9,1.2C59.2,34.8,57.7,34.9,55.9,34.9z"/>
		</g>
		<g>
			<path d="M55.7,39.8c-1.4,0-2.9-0.1-4.5-0.2c-0.6,0-1-0.6-1-1.1c0-0.6,0.6-1,1.1-1c3.5,0.3,6.5,0.3,9.6-0.1
				c0.6-0.1,1.1,0.3,1.2,0.9c0.1,0.6-0.3,1.1-0.9,1.2C59.4,39.7,57.6,39.8,55.7,39.8z"/>
		</g>
	</g>
</g>
</svg>
