<?xml version="1.0" encoding="utf-8"?>
<!-- Generator: Adobe Illustrator 21.1.0, SVG Export Plug-In . SVG Version: 6.00 Build 0)  -->
<svg version="1.1" id="lineart" xmlns="http://www.w3.org/2000/svg" xmlns:xlink="http://www.w3.org/1999/xlink" x="0px" y="0px"
	 viewBox="0 0 103.4 89.3" style="enable-background:new 0 0 103.4 89.3;" xml:space="preserve">
<style type="text/css">
	.st0{fill:#E55A2F;}
</style>
<g>
	<g>
		<g>
			<path class="st0" d="M78.3,3.6c-0.3-3.2-4.6-1.7-3.8,0.5c0.5,6.4,1.1,13.1,0.3,19.5c-0.3,2.2,0.1,1.7-1.5,1.6
				c-0.3,0-0.6-0.1-0.9-0.2c0.7-0.1,1.3-0.7,1.3-1.5c0.1-3.7,0.1-7.4,0-11c-0.1-2.8,0.5-6.4-0.4-9.1c-0.3-0.8-0.9-1.2-1.7-1.3
				C70.4,2,69.3,2,68.4,2.4c-0.3,0-0.5,0.1-0.8,0.2c-0.3,0.1-0.6,0.3-1,0.4c-0.2,0.1-0.5,0.3-0.7,0.3c-0.3-0.3-0.9-0.5-1.1,0
				c-0.1,0.2-0.2,0.4-0.2,0.6c-0.1,0.1,0,0.3,0,0.4c-0.4,3-0.1,6,0,9c0.1,4,0,8-0.6,12c-0.2,1.7,2,2.4,2.6,0.7
				c1.3-3.2,2-3.6,4.3-1.3c-0.4-0.1-0.8-0.1-1.2,0c-1.4,0.3-2.4,1.2-3,2.4c-0.1,0.1,0,0.3,0.2,0.3c2-0.1,3.2-0.5,5.2,0.4
				c0.9,0.4,1.7,1.2,2.8,1.2c1.9,0.1,2.5-1.3,2.9-2.9C79.7,18.9,78.9,11,78.3,3.6z"/>
		</g>
		<g>
			<path class="st0" d="M92.8,76.3c-3.5-1.5-7.6-1.3-11.4-1.7c-4-0.4-8-0.8-12-1c-6.7-0.2-12.7,1-17.6,5.7c-1.8,1.7-1.6,0.4-2.4-1.1
				c-0.3-0.6-0.7-1.1-1.2-1.6c0.2-0.1,0.4-0.3,0.5-0.6c1.3-2.5,1.1-5.3,1.3-8.1c0.2-2.9,0.3-5.8,0.4-8.8c0.2-6.3,0.2-12.7,0.1-19
				C50.4,35.1,50.2,30,50,24.9c0.1-4.4,0.3-9.4-1.1-13.3c0,0,0-0.1-0.1-0.1c-0.2-1.4-0.5-2.6-1.7-3.5C47,8,47,8,46.9,8
				c-1.5,1.5-1.1,3.1-1.1,5.2c0,2.9,0.1,5.8,0.3,8.7c0.1,3.3,0.3,6.6,0.3,9.8c-0.1,3.4-0.3,6.9-0.5,10.3c-0.4,5.3-0.8,10.5-1.4,15.8
				c-0.6,5-2.1,10.5-1.5,15.6c0,0.1,0,0.1,0,0.1c-0.1,0.3-0.2,0.6-0.2,1c-2.4-0.3-4.8-0.4-6.9-0.4c-4.2,0-8.3,0.5-12.4,1.3
				c-4.1,0.8-8.6,1.6-12.3,3.8C10.8,79.5,11,80,11.3,80c4.1,0.5,8.4-0.5,12.6-1c4-0.4,8-0.5,11.9-0.3c2.2,0.1,4.8,0.3,7,1
				c2,0.7,2.1,1.5,3.1,3.2c1.2,2.1,3.6,3,5.9,2.3c2.9-0.9,4.5-3.9,7.2-5.2c3.2-1.5,6.9-1.6,10.4-1.5c3.5,0.1,7.1,0.5,10.6,0.8
				c3.9,0.3,8.4,1.4,12.3,0.5C93.8,79.6,94.4,77,92.8,76.3z"/>
		</g>
		<g>
			<path class="st0" d="M102.4,83c0.8-1.6,1-3.8,1-5.3c0-7.4-0.2-14.8-0.3-22.2c-0.1-7.4-0.2-14.8-0.5-22.2
				c-0.1-3.5-0.2-6.9-0.4-10.4c-0.2-3-0.2-6.2-1.6-8.9c0,0,0,0-0.1,0c-2.1,4.3-1.5,10.2-1.6,14.8c-0.1,5.9-0.3,11.9-0.2,17.8
				c0,5.9,0.1,11.9,0.1,17.8c0,2.7,0,5.4,0,8.2c0,0.9,0.2,2.5,0.2,4.1c-0.4-0.6-1.1-1-1.9-1.1c0.5-1.7,0.4-3.6,0.5-5.5
				c0.2-2.9,0.3-5.8,0.4-8.7c0.3-6.1,0.4-12.1,0.5-18.2c0-5.8,0.1-11.6-0.2-17.5c-0.2-4.8,0.3-12-2.4-16.2c-0.1-0.2-0.5-0.3-0.7,0
				c-1,2-1.3,4.5-1.4,7.1c0-3.4-0.2-6.8-1.4-9.7c0-0.1-0.1,0-0.2,0c-2,4.8-1.4,11-1.5,16.1c-0.2,5.9-0.4,11.7-0.6,17.6
				c-0.2,5.9-0.5,11.7-0.7,17.6c-0.2,3.8-0.8,8-0.8,12c-2.4,0.1-4.7,0.6-6.6,0.8c-4.6,0.6-9.6,1.3-13.6,3.6
				c-0.3,0.2-0.2,0.7,0.2,0.7c4.5,0.3,9.1-0.6,13.7-0.5c2.1,0,4.2,0.2,6.2,0.3c0.2,0,0.4,0,0.6,0.1c0.5,1.4,2.4,1.4,3.3,0.3
				c0.2,0,0.4,0,0.7,0c0.1,0.6,0.3,1.2,0.5,1.8c-0.3,0.2-0.6,0.4-1,0.6c-0.1,0-0.2,0.1-0.2,0.1c-0.4,0.2-0.7,0.3-1,0.5
				c-0.1,0.1-0.2,0.2-0.3,0.3c-0.3,0.3-0.5,0.6-0.7,1.1c0,0.1,0,0.1,0,0.2c-0.2,0-0.5,0-0.7,0c-4.2,0-8.4,0.1-12.7,0.1
				c-4,0-7.9,0.1-11.9,0.1c-3.7,0.1-5.3,1.3-8.4,3.1c-3.8,2.1-6.9,0.3-10.5-1.1c-2.9-1.1-5.7-1-8.7-0.8c-7.8,0.5-16.4,0.1-23.9,2.2
				c-0.4,0.1-0.4,0.7,0,0.8c7.4,1.7,15.6,0.8,23.2,0.9c1.7,0,3.5-0.1,5.2,0.2c1.9,0.4,3.5,1.4,5.3,2.2c2.6,1.3,5.3,1.9,8.2,1.4
				c3.3-0.5,5.7-3.2,8.9-3.6c3.9-0.4,8-0.1,11.9-0.2c4.2-0.1,8.4-0.1,12.7-0.2c3.3,0,6.9,0.3,10.2-0.3c0.9,0.2,1.7-0.1,2.3-0.7
				C102,84,102.3,83.5,102.4,83z M94.4,43.1c-0.1,5.8-0.3,11.6-0.5,17.5c0,0.4-0.1,0.9-0.1,1.3c0-1.3,0-2.5,0-3.7
				c0.2-6.1,0.3-12.2,0.3-18.3c0-5.9,0-11.7,0-17.6c0-1.4,0-2.9,0.1-4.5c0,2.5,0.2,5,0.2,7.1C94.4,31,94.5,37,94.4,43.1z"/>
		</g>
		<g>
			<path class="st0" d="M15,76.8c-1.2-0.4-2.1-0.4-3.3-0.2c-2.7,0.2-2.8-0.4-3.2-2.7C7.8,70.5,8.3,66.5,8.2,63
				c-0.1-1.8,0.4-11.3-2.1-11.8c-0.1,0-0.1,0-0.2,0.1l-0.2,0.2c0,0.1,0,0.2,0.1,0.1c-1.3,0-1.2,21.7-1.2,23.7c0,2.5,0.2,4.5,2.9,5.2
				c2.7,0.8,6,0.4,8.1-1.5C16.3,78.4,15.9,77.1,15,76.8z"/>
		</g>
	</g>
	<g>
		<g>
			<g>
				<path d="M50.7,80.5c-0.2,0-0.4,0-0.5-0.1c-6.3-3.7-13.6-5.7-21.1-5.7c-7.2,0-14.5,1.7-20.2,4.8c-0.3,0.2-0.7,0.2-1,0
					c-0.3-0.2-0.5-0.5-0.5-0.9c-0.1-2.5-0.1-5-0.1-7.5c0-4.2,0-8.5-0.3-12.7C6.3,46.7,6,35,5.7,23.6C5.6,18.1,5.4,12.5,5.3,6.9
					c0-0.4,0.2-0.8,0.6-1c6.3-2.7,14.2-4.3,21.5-4.3c8.3,0,16.2,2,22.9,5.9c4.1-1.9,8.3-3.3,12.9-4.2c0.6-0.1,1.1,0.3,1.2,0.8
					c0.1,0.6-0.3,1.1-0.8,1.2C59,6.3,54.8,7.7,50.7,9.7c-0.3,0.2-0.7,0.1-1,0c-6.5-3.9-14.2-5.9-22.3-5.9c-6.8,0-14,1.4-20,3.8
					c0.2,5.4,0.3,10.8,0.4,16.1c0.3,11.3,0.6,23,1.2,34.6c0.3,4.2,0.3,8.6,0.3,12.8c0,1.9,0,3.9,0,5.8c5.7-2.7,12.8-4.2,19.7-4.2
					c7.7,0,15.1,1.9,21.6,5.6c4.8-3.8,10.9-5.8,18.1-5.8c7.3,0,15.7,0.3,23.1,3.1c0.1-5,0.1-9.8,0.2-14.4c0.1-7.8,0.2-15.2,0.4-23.6
					c0.1-4.7,0.4-9.4,0.7-14c0.3-5.6,0.6-11.3,0.7-17c-3.9-1.2-8.1-2.3-16.9-2.3c-0.9,0-1.9,0-2.8,0c-0.6,0-1.1-0.4-1.1-1
					c0-0.6,0.4-1.1,1-1.1c0.9,0,1.9,0,2.9,0c9.4,0,13.9,1.3,17.9,2.5l0.4,0.1c0.5,0.1,0.8,0.6,0.8,1c-0.1,6-0.4,12-0.8,17.9
					c-0.3,4.6-0.5,9.3-0.7,13.9C94.2,46,94.1,53.4,94,61.2c-0.1,5.1-0.1,10.4-0.2,16c0,0.4-0.2,0.7-0.5,0.9c-0.3,0.2-0.7,0.2-1,0.1
					c-7.4-3.3-16.1-3.6-23.7-3.6c-6.9,0-12.7,1.9-17.3,5.7C51.2,80.4,51,80.5,50.7,80.5z"/>
			</g>
		</g>
		<g>
			<g>
				<path d="M63.5,29.8c-0.1,0-0.3,0-0.4-0.1c-0.4-0.2-0.7-0.6-0.7-1l0-3.1c0-2.9,0-5.8,0-8.7c0-5.9-0.1-10.5-0.2-14.8
					c0-0.6,0.4-1,0.9-1.1c3.1-0.4,6.7-0.8,10.5-0.9c0.5,0,1,0.4,1.1,0.9c0.5,3.5,0.8,7.5,0.8,12.3c0,2.4-0.1,4.8-0.1,7.2
					c0,2.1-0.1,4.2-0.1,6.3c0,0.4-0.2,0.7-0.5,0.9c-0.3,0.2-0.7,0.2-1,0.1c-1.6-0.7-3.3-1.6-4.9-2.7l-0.8,0.7
					c-1.3,1.2-2.6,2.5-3.9,3.8C64,29.7,63.7,29.8,63.5,29.8z M64.4,2.9c0.1,4.1,0.2,8.4,0.2,13.9c0,2.9,0,5.8,0,8.8l0,0.6
					c0.7-0.7,1.4-1.4,2.1-2l1.4-1.4c0.4-0.4,1-0.4,1.4-0.1c1.2,0.9,2.5,1.7,3.7,2.3c0-1.5,0.1-3.1,0.1-4.6c0.1-2.3,0.1-4.7,0.1-7.1
					c0-4.4-0.2-7.9-0.6-11.1C69.8,2.3,66.9,2.6,64.4,2.9z"/>
			</g>
		</g>
		<g>
			<g>
				<path d="M50.5,56.8c-0.6,0-1.1-0.5-1.1-1.1c0-6.2-0.1-12.5-0.2-18.6c-0.1-6.1-0.2-12.4-0.2-18.7c0-3.4,0-6.4,0.1-9.3
					c0-0.6,0.5-1,1.1-1c0.6,0,1.1,0.5,1,1.1c-0.1,2.9-0.1,6-0.1,9.3c0,6.2,0.1,12.5,0.2,18.6c0.1,6.1,0.2,12.4,0.2,18.7
					C51.6,56.3,51.1,56.8,50.5,56.8z"/>
			</g>
		</g>
		<g>
			<g>
				<path d="M50.5,78.1c-0.6,0-1.1-0.5-1.1-1.1V59.7c0-0.6,0.5-1.1,1.1-1.1c0.6,0,1.1,0.5,1.1,1.1V77C51.6,77.6,51.1,78.1,50.5,78.1
					z"/>
			</g>
		</g>
		<g>
			<g>
				<path d="M15.1,22.5c0,0-0.1,0-0.1,0c-0.6-0.1-1-0.6-0.9-1.2c0.5-4,1.9-10.6,5.3-10.6c1.5,0,2.2,2,3.4,8.2c0.2,0.8,0.3,1.5,0.4,2
					c0.1,0.6-0.2,1.1-0.8,1.3c-0.6,0.1-1.1-0.2-1.3-0.8c-0.1-0.5-0.3-1.2-0.4-2.1c-0.3-1.7-1.1-5.3-1.7-6.5c-1,0.6-2.3,3.8-2.9,8.7
					C16,22.1,15.6,22.5,15.1,22.5z"/>
			</g>
		</g>
		<g>
			<g>
				<path d="M16,19.1c-0.6,0-1.1-0.5-1.1-1.1c0-0.6,0.5-1.1,1.1-1.1c1.7,0,3-0.2,4.3-0.6c0.6-0.2,1.2,0.1,1.3,0.7
					c0.2,0.6-0.1,1.2-0.7,1.3C19.4,18.9,17.8,19.1,16,19.1z"/>
			</g>
		</g>
		<g>
			<g>
				<path d="M59.9,38.3c-0.5,0-0.9-0.4-1-0.9c-0.1-0.6,0.3-1.1,0.8-1.2c9.6-1.9,19-1.9,27.1-0.1c0.6,0.1,0.9,0.7,0.8,1.3
					c-0.1,0.6-0.7,0.9-1.3,0.8c-7.8-1.7-17-1.7-26.3,0.2C60,38.3,59.9,38.3,59.9,38.3z"/>
			</g>
		</g>
		<g>
			<g>
				<path d="M59.9,46.4c-0.4,0-0.9-0.3-1-0.7c-0.2-0.6,0.1-1.2,0.7-1.3c4.9-1.6,9.9-2.4,14.8-2.4c3.5,0,6.9,0.4,10.1,1.3
					c0.6,0.2,0.9,0.7,0.7,1.3c-0.2,0.6-0.7,0.9-1.3,0.7c-3-0.8-6.2-1.2-9.6-1.2c-4.7,0-9.4,0.8-14.1,2.3
					C60.1,46.3,60,46.4,59.9,46.4z"/>
			</g>
		</g>
		<g>
			<g>
				<path d="M59.9,53.5c-0.5,0-0.9-0.3-1-0.8c-0.1-0.6,0.2-1.1,0.8-1.3c7.9-1.9,16.7-1.9,24.6,0c0.6,0.1,0.9,0.7,0.8,1.3
					c-0.1,0.6-0.7,0.9-1.3,0.8c-7.6-1.9-16-1.9-23.6,0C60,53.5,59.9,53.5,59.9,53.5z"/>
			</g>
		</g>
		<g>
			<g>
				<path d="M50.1,86.9c-2.9,0-5.7-1.6-7.3-4.3c-0.2-0.4-0.7-0.6-1.2-0.6c-11.8,0.4-24.3,1-36.4,3.1c-0.8,0.1-1.5-0.1-2.1-0.5
					c-0.6-0.5-1-1.2-1-2C1.4,68,0,32.5,0,30.3c0-2.6,0-5.3,0.1-7.9c0-2.6,0.1-5.2,0.1-7.8c0-1.5,0-3-0.1-4.4c0-0.6,0.4-1.1,1-1.1
					c0.6,0,1.1,0.4,1.1,1c0,1.5,0.1,3,0.1,4.5c0,2.6,0,5.2-0.1,7.8c0,2.6-0.1,5.2-0.1,7.9c0,2.1,1.4,37.5,2.1,52.2
					c0,0.2,0.1,0.3,0.2,0.4C4.6,83,4.7,83,4.9,83c12.2-2.1,24.8-2.7,36.6-3.1c1.2,0,2.4,0.6,3,1.6c1.2,2,3.3,3.2,5.5,3.2
					c2.2,0,4.1-1.2,6.1-3.8c0.7-0.9,1.7-1.4,2.7-1.4c2.3-0.1,4.6-0.1,7.2-0.1c5.4,0,11,0.2,16.3,0.3c4.7,0.1,9.6,0.3,14.4,0.3
					c0.1,0,0.1,0,0.2-0.1c0,0,0.1-0.1,0.1-0.2c0-1.1,0-2.1,0-3.2c0-9.4,0.2-18.9,0.5-28.2c0.2-9.2,0.5-18.8,0.5-28.1
					c0-1.6,0.2-3.2,0.3-4.7c0.2-1.7,0.4-3.3,0.3-4.9c0-0.6,0.5-1.1,1-1.1c0.6,0,1.1,0.5,1.1,1c0,1.7-0.2,3.5-0.3,5.1
					c-0.2,1.5-0.3,3-0.3,4.5c0,9.4-0.2,18.9-0.5,28.2c-0.2,9.2-0.5,18.8-0.5,28.1c0,1.1,0,2.1,0,3.2c0,0.6-0.2,1.2-0.7,1.7
					c-0.4,0.4-1,0.7-1.7,0.7c-4.8,0-9.7-0.2-14.5-0.3c-5.3-0.2-10.8-0.3-16.2-0.3c-2.6,0-4.9,0-7.1,0.1c-0.4,0-0.8,0.2-1.1,0.6
					C56.3,84.2,53.9,86.9,50.1,86.9z"/>
			</g>
		</g>
		<g>
			<g>
				<path d="M41.2,38.4c-0.1,0-0.2,0-0.4-0.1c-7.2-2.6-15.8-2.6-24.6,0c-0.6,0.2-1.2-0.2-1.3-0.7c-0.2-0.6,0.2-1.2,0.7-1.3
					c9.2-2.7,18.3-2.7,25.9,0c0.5,0.2,0.8,0.8,0.6,1.4C42,38.1,41.6,38.4,41.2,38.4z"/>
			</g>
		</g>
		<g>
			<g>
				<path d="M16.2,46.4c-0.5,0-0.9-0.3-1-0.8c-0.1-0.6,0.2-1.1,0.8-1.3c4.4-1,9.7-2,15-2c3.8,0,7.2,0.5,10.4,1.6
					c0.6,0.2,0.9,0.8,0.7,1.3c-0.2,0.6-0.8,0.9-1.3,0.7c-3-1-6.1-1.5-9.7-1.5c-5.1,0-10.2,1-14.5,1.9C16.3,46.4,16.2,46.4,16.2,46.4
					z"/>
			</g>
		</g>
		<g>
			<g>
				<path d="M15.9,54.4c-0.4,0-0.9-0.3-1-0.7c-0.2-0.6,0.1-1.2,0.7-1.3c4.2-1.3,8.8-2,13.8-2c4,0,8.3,0.4,13.1,1.3
					c0.6,0.1,1,0.7,0.9,1.2c-0.1,0.6-0.7,1-1.2,0.9c-4.7-0.8-8.8-1.2-12.7-1.2c-4.8,0-9.2,0.6-13.1,1.9C16.1,54.4,16,54.4,15.9,54.4
					z"/>
			</g>
		</g>
	</g>
</g>
</svg>
