<?xml version="1.0" encoding="utf-8"?>
<!-- Generator: Adobe Illustrator 21.1.0, SVG Export Plug-In . SVG Version: 6.00 Build 0)  -->
<svg version="1.1" id="lineart" xmlns="http://www.w3.org/2000/svg" xmlns:xlink="http://www.w3.org/1999/xlink" x="0px" y="0px"
	 viewBox="0 0 103.4 86.1" style="enable-background:new 0 0 103.4 86.1;" xml:space="preserve">
<style type="text/css">
	.st0{fill:#E55A2F;}
</style>
<g>
	<path class="st0" d="M58.9,65.5c-0.2-0.9-0.8-1.5-1.6-1.9c2.1-8.1-3.9-17.5-7-24.5c-2-4.7-4.1-9.4-6.1-14c-1.3-3-2.6-7.2-5-9.8
		c0-0.2,0-0.4,0-0.6c0.7-0.3,1.2-1.2,1-2c-0.5-1.6-1.4-2.8-2.7-3.8c-1.3-0.9-2.8,1.1-1.7,2.2c0.3,0.3,0.6,0.7,0.8,1.1
		c0.1,0.2,0.1,0.3,0.2,0.5c0,0.1,0.1,0.2,0.1,0.4c0,0.2,0,0.2,0,0.1c0,0.1,0,0.2,0.1,0.3c-0.2,0.1-0.5,0.3-0.7,0.6
		c-0.8,1.3-1.9,2.2-3.2,2.9c-0.9,0.5-0.2,1.7,0.7,1.6c1.2-0.2,2.3-0.6,3.3-1.2c0.4,2.8,1.9,5.6,2.8,8c1.6,4.3,3.4,8.6,5.1,12.9
		c3.3,8.2,8.2,16.9,7.1,26c0,0.3,0,0.5,0,0.8c-1.1,0.6-2.2,1.2-3.2,2c-1,0.8-0.5,2.8,0.8,2.9c0.3,0,0.5,0.1,0.8,0.1
		c-0.8,0.5-1.4,1.2-1.5,2.1c-0.4-1.2-1.4-2.1-3.1-2c-1.6,0.1-3.2,0.3-4.8,0.4c-0.1-1-0.8-1.9-2-2.4c-3-1-6.4-1-9.5-1.7
		c-3.1-0.7-6.1-1.8-9.2-2.6c-1-0.3-1.8,1-1,1.7c2.6,2.6,6.5,5.1,10.6,6.7c-3.1,0.7-6,1.6-8.9,2.7c-0.9,0.3-0.7,1.5,0.2,1.6
		c8,0.9,16.5,0.7,24.5,0.2c1.9-0.1,3-1.5,3.2-3c0.2,0.6,0.6,1.1,1.3,1.5c2.5,1.6,5.8,0.1,7.4-2.1C59.4,71.1,59.4,68.2,58.9,65.5z"/>
	<path class="st0" d="M32.8,7.7c-0.6-0.8-1.1-1.7-1.5-2.6c-0.4-0.9-0.6-1.9-1-2.8C29.7,1,28,1.5,27.6,2.7c0,0,0,0.1,0,0.1
		c-0.4,0.5-0.4,1.2,0,1.7c0.2,1.9,0.9,3.7,1.6,5.4C30.2,12.2,34.3,9.9,32.8,7.7z"/>
	<path class="st0" d="M63.4,53.5c-2.4-5.4-4.8-10.8-7.3-16.2c-0.5-1.1-1.1-2.3-1.6-3.4c0.1-1-0.3-2.1-1.2-2.6
		c-1.5-3.2-3.3-6.3-5.4-9c-0.4-0.5-1.3-0.1-1.2,0.5c0.5,4.5,2.2,8.9,3.7,13.1c1.6,4.7,3.5,9.3,5.3,13.9c1.7,4.2,3.4,8.5,4.9,12.8
		c0.7,2,1.4,4.2,1.2,6.4c-0.2,1.9-1.2,3.4-1.9,5.1c-0.6,1.4,0.6,3,2,3.4c-0.1,0.4-0.2,0.8-0.2,1.1c-0.1,0.8-0.1,1.6-0.2,2.4
		c0,2.5,4.1,2,3.4-0.5c-0.2-0.8-0.5-1.5-0.8-2.3c-0.1-0.4-0.3-0.7-0.5-1.1C73,72.9,66.3,60,63.4,53.5z"/>
	<path class="st0" d="M103.3,56.2c-1.4-4.3-3.2-9.2-5.4-13.5c0.4-0.5,0.5-1.2,0.2-2c-0.7-1.5-1.5-2.9-2-4.5
		c-0.5-1.4-0.7-2.9-1.5-4.2c-0.5-0.9-1.9-0.7-2.1,0.3c-0.3,1.3-0.3,2.7-0.1,4.2c-0.4-0.1-0.9,0-1.1,0.4c-2.5,5.4-3.1,12-4.5,17.8
		c-1.4,5.9-3.1,11.5-5.2,17.2c-0.8,2.3,2.4,4,4,2.3c2.6-2.7,4-6.4,4.9-10.3c1.8-0.2,3.6-0.9,5.4-1.5c2.3-0.8,4.8-1.3,6.3-3.3
		c0.1-0.2,0.2-0.3,0.2-0.5C103.2,58.3,103.6,57.4,103.3,56.2z M93.7,58.4c-0.7,0.4-1.5,0.8-2.2,1.2c0.2-0.9,0.3-1.8,0.4-2.6
		c0.8-5.1,2-11.1,1.7-16.5c0.1,0.3,0.3,0.6,0.4,0.9c0.7,4.9,2.4,10.1,4.1,14.7C96.5,56.5,95,57.6,93.7,58.4z"/>
	<path class="st0" d="M93.1,26.2c-1.2-4.1-1.9-9.1-4.6-12.6c-0.3-0.4-0.8-0.5-1.2-0.3c-0.4-0.2-1-0.3-1.5-0.2
		c-1.1,0.3-2,0.4-3.1,0.3c-0.6-0.1-1.3,0.5-1.4,1.1c0,0.2-0.1,0.3,0,0.4c-0.3-0.1-0.6-0.1-0.8-0.2c-1-0.1-2.3,1.2-1.2,2
		c1,0.8,2.1,1.4,3.2,2c1.2,0.6,2.2,1.6,3.5,1.9c1.2,0.3,2.1-0.3,2.5-1.2c0.1,0.3,0.1,0.7,0.2,1c0.5,2.2,1,4.4,1.5,6.6
		C90.4,29.1,93.7,28.3,93.1,26.2z"/>
	<g>
		<g>
			<path d="M5.3,47.6c-0.5,0-0.9-0.3-1-0.8c-0.4-2-0.8-3.9-1.2-5.9C2.1,36,1.1,31,0,26.1c-0.1-0.6,0.2-1.1,0.8-1.3
				c2.8-0.7,5.6-1.4,8.4-2.1c0.6-0.1,1.1,0.2,1.3,0.8c0.1,0.6-0.2,1.1-0.8,1.3c-2.5,0.6-4.9,1.2-7.4,1.8c1,4.6,1.9,9.2,2.8,13.7
				c0.4,2,0.8,3.9,1.2,5.9c0.1,0.6-0.3,1.1-0.8,1.3C5.5,47.6,5.4,47.6,5.3,47.6z"/>
		</g>
		<g>
			<path d="M88.5,23.3c-0.5,0-1-0.4-1-0.9c-0.4-2.8-1.1-5.9-2-9.5c-2.7-1.1-5.5-2.3-8.5-3.7c-11.5,2.9-23.3,5.6-34.4,8.1
				c-0.6,0.1-1.1-0.2-1.3-0.8c-0.1-0.6,0.2-1.1,0.8-1.3c11.2-2.5,23.1-5.3,34.7-8.2C77,7,77.3,7,77.5,7.1c3.3,1.5,6.3,2.8,9.3,4
				c0.3,0.1,0.5,0.4,0.6,0.7c1,4,1.7,7.2,2.2,10.2c0.1,0.6-0.3,1.1-0.9,1.2C88.6,23.3,88.5,23.3,88.5,23.3z"/>
		</g>
		<g>
			<path d="M79.5,77.3c-0.3,0-0.5,0-0.8-0.1c-5.2-1.1-12-2.6-19.3-4.2c-0.6-0.1-0.9-0.7-0.8-1.3c0.1-0.6,0.7-0.9,1.3-0.8
				c7.4,1.6,14.1,3.1,19.3,4.2c0.4,0.1,0.8,0,1.1-0.2c0.3-0.2,0.6-0.6,0.7-1c1.5-7.2,3.1-14.4,4.7-21.6c1.5-7,3-13.9,4.5-20.9
				c0.2-0.7-0.3-1.4-1-1.6c-22.4-5.6-35.7-8.5-45.4-10.6l-0.9-0.2c-0.6-0.1-0.9-0.7-0.8-1.3c0.1-0.6,0.7-0.9,1.3-0.8l0.9,0.2
				c9.7,2.1,23,5,45.5,10.7c1.8,0.5,2.9,2.3,2.5,4.1c-1.5,7-3,13.9-4.5,20.9C86.1,60,84.6,67.2,83,74.4c-0.2,0.9-0.8,1.8-1.6,2.3
				C80.8,77.1,80.2,77.3,79.5,77.3z"/>
		</g>
		<g>
			<path d="M46.9,70.3c-0.1,0-0.2,0-0.2,0c-11.3-2.5-31.8-7-42-9.3C3,60.6,2,59.1,2.3,57.5c0.5-2.9,1-5.9,1.6-8.8
				c2.1-12,4.3-24.5,7-36.6c0.2-0.8,0.7-1.6,1.5-2c0.8-0.4,1.7-0.5,2.5-0.3c3.8,1.2,7.3,2.2,10.8,3.1c0.6,0.1,0.9,0.7,0.8,1.3
				c-0.1,0.6-0.7,0.9-1.3,0.8c-3.5-0.9-7-1.9-10.9-3.1c-0.3-0.1-0.6,0-0.8,0.1c-0.2,0.1-0.4,0.4-0.5,0.7C10.2,24.6,8.1,37,6,49
				c-0.5,2.9-1,5.9-1.6,8.8c-0.1,0.5,0.2,0.9,0.7,1c10.2,2.3,30.7,6.8,42,9.3c0.6,0.1,0.9,0.7,0.8,1.3C47.8,70,47.3,70.3,46.9,70.3z
				"/>
		</g>
		<g>
			<path d="M84.9,61.6c-0.5,0-0.9-0.3-1-0.8c-0.1-0.6,0.2-1.1,0.8-1.3c4-0.9,7.7-1.8,11.3-2.7L95.8,56c-1-5.2-2-10.6-3.7-15.7
				c-0.2-0.6,0.1-1.2,0.7-1.3c0.6-0.2,1.2,0.1,1.3,0.7c1.7,5.3,2.7,10.7,3.7,16l0.4,1.8c0.1,0.6-0.2,1.1-0.8,1.2
				c-3.9,0.9-7.9,1.9-12.3,2.9C85.1,61.6,85,61.6,84.9,61.6z"/>
		</g>
		<g>
			<path d="M13.2,77.6c-0.4,0-0.8-0.3-1-0.7c-1.7-4.8-3.3-10-4.8-15.9c-0.1-0.6,0.2-1.1,0.8-1.3c0.6-0.1,1.1,0.2,1.3,0.8
				c1.4,5.5,2.8,10.3,4.4,14.8c6.4-1.5,13.3-3.1,21.8-4.9c0.6-0.1,1.1,0.2,1.3,0.8c0.1,0.6-0.2,1.1-0.8,1.3
				c-8.9,2-16.1,3.6-22.7,5.1C13.4,77.6,13.3,77.6,13.2,77.6z"/>
		</g>
		<g>
			<path d="M53.9,76.6c-7.1,0-16.4-19.9-30.1-64.4c-0.2-0.5,0.1-1.1,0.6-1.3C28.5,9.1,33,7.5,38,6.2c0.5-0.1,1,0.1,1.2,0.6l0.2,0.5
				c5.9,13.3,21.4,48.6,21.4,62.1C60.9,75.8,57.2,76.6,53.9,76.6z M26.1,12.5c3.6,11.6,8.3,26.2,13.2,38.5
				C47.5,71.5,52,74.5,53.9,74.5c3.7,0,4.9-1.3,4.9-5.1c0-13-15.7-48.7-21.1-60.9C33.4,9.6,29.6,11,26.1,12.5z"/>
		</g>
		<g>
			<path d="M26.8,19.5c-0.4,0-0.8-0.2-1-0.7c-0.2-0.5,0-1.2,0.6-1.4c3.6-1.5,7.4-2.7,11-4c1.1-0.4,2.2-0.7,3.3-1.1
				c0.6-0.2,1.2,0.1,1.3,0.7c0.2,0.6-0.1,1.2-0.7,1.3c-1.1,0.4-2.2,0.7-3.3,1.1c-3.6,1.2-7.3,2.5-10.9,3.9
				C27.1,19.5,26.9,19.5,26.8,19.5z"/>
		</g>
		<g>
			<path d="M27.8,11.7c-0.4,0-0.8-0.2-1-0.7c-1-2.5-1.8-4.9-2.5-7.2c-0.1-0.5,0.1-1,0.6-1.2C26,2.1,27.2,1.5,28.4,1l1.8-0.9
				C30.5,0,30.8,0,31,0.1c0.3,0.1,0.5,0.3,0.6,0.6c0.4,0.9,0.7,1.8,1.1,2.7c0.7,1.6,1.4,3.2,1.9,4.9c0.2,0.6-0.1,1.2-0.7,1.3
				c-0.6,0.2-1.2-0.1-1.3-0.7c-0.5-1.6-1.2-3.2-1.9-4.7c-0.2-0.6-0.5-1.1-0.7-1.7l-0.8,0.4c-0.9,0.4-1.8,0.9-2.7,1.3
				c0.6,1.9,1.3,3.9,2.2,6.1c0.2,0.5,0,1.2-0.6,1.4C28,11.7,27.9,11.7,27.8,11.7z"/>
		</g>
		<g>
			<path d="M48.6,67.8c-0.4,0-0.8-0.3-1-0.7c-0.2-0.6,0.1-1.2,0.6-1.4c1.9-0.7,3.8-1.5,5.7-2.2c1.6-0.6,3.2-1.3,4.8-1.9
				c0.5-0.2,1.2,0.1,1.4,0.6c0.2,0.5-0.1,1.2-0.6,1.4c-1.6,0.6-3.2,1.2-4.7,1.9c-1.9,0.8-3.8,1.6-5.8,2.3
				C48.8,67.8,48.7,67.8,48.6,67.8z"/>
		</g>
		<g>
			<path d="M59.6,86.1c-0.3,0-0.7-0.2-0.9-0.5c-2.2-3.3-4.1-6.4-5.7-9.6c-0.3-0.5,0-1.2,0.5-1.4c0.5-0.3,1.2,0,1.4,0.5
				c1.4,2.9,3.2,5.6,5.1,8.6c0.1-0.1,0.3-0.1,0.4-0.2c-0.8-2.6-1.7-5.4-2.9-9c-0.2-0.6,0.1-1.2,0.6-1.4c0.6-0.2,1.2,0.1,1.4,0.6
				c1.4,4,2.4,7.1,3.2,10c0.1,0.5-0.1,1-0.5,1.2c-0.6,0.3-1.3,0.7-2.2,1C59.9,86.1,59.7,86.1,59.6,86.1z"/>
		</g>
		<g>
			<g>
				<path d="M75,54.1c-3.4,0-7.4-2.1-10-3.7c-0.5-0.3-0.7-1-0.4-1.5c0.3-0.5,1-0.7,1.5-0.4c2.4,1.5,6,3.4,8.9,3.4
					c3.1,0,4.2-2.7,4.2-3.5c0-1.3-2.8-2.2-5.3-3c-3.6-1.2-7.7-2.5-7.7-6.1c0-2.1,3.1-5.1,8-5.1c2.1,0,4.3,0.5,6.2,1.5
					c0.5,0.3,0.7,0.9,0.5,1.4c-0.3,0.5-0.9,0.7-1.4,0.5c-1.6-0.8-3.5-1.3-5.2-1.3c-4,0-5.9,2.4-5.9,3c0,2,3.2,3.1,6.3,4.1
					c3.3,1.1,6.7,2.2,6.7,5C81.3,50.4,79.4,54.1,75,54.1z"/>
			</g>
			<g>
				<path d="M70.8,56.7c0,0-0.1,0-0.2,0c-0.6-0.1-1-0.6-0.9-1.2c0.1-1,0.4-1.9,0.7-2.8l0.2-0.5c0.2-0.6,0.7-0.9,1.3-0.7
					c0.6,0.2,0.9,0.7,0.7,1.3l-0.2,0.5c-0.2,0.9-0.5,1.7-0.6,2.5C71.8,56.3,71.4,56.7,70.8,56.7z"/>
			</g>
			<g>
				<path d="M75.5,36.5c-0.1,0-0.2,0-0.2,0c-0.6-0.1-0.9-0.7-0.8-1.3l0.9-3.9c0.1-0.6,0.7-0.9,1.3-0.8c0.6,0.1,0.9,0.7,0.8,1.3
					l-0.9,3.9C76.4,36.2,75.9,36.5,75.5,36.5z"/>
			</g>
		</g>
		<g>
			<path d="M25.2,28c-0.1,0-0.1,0-0.2,0c-0.5-0.1-0.9-0.2-1.4-0.2c-2.8-0.4-5.5-0.9-8.3-2.4c-0.5-0.3-0.7-0.9-0.4-1.4
				c0.3-0.5,0.9-0.7,1.4-0.4c2.4,1.3,4.9,1.7,7.6,2.1c0.5,0.1,0.9,0.1,1.4,0.2c0.6,0.1,1,0.6,0.9,1.2C26.2,27.6,25.7,28,25.2,28z"/>
		</g>
		<g>
			<path d="M60.7,34.9c-0.1,0-0.2,0-0.3-0.1c-0.9-0.3-1.8-0.5-2.7-0.7c-1.7-0.3-3.4-0.7-4.9-1.6c-0.5-0.3-0.6-1-0.3-1.5
				c0.3-0.5,1-0.6,1.5-0.3c1.2,0.8,2.7,1.1,4.2,1.4c1,0.2,2,0.4,3,0.7c0.6,0.2,0.9,0.8,0.7,1.3C61.5,34.6,61.1,34.9,60.7,34.9z"/>
		</g>
		<g>
			<path d="M28.2,42.8c-0.1,0-0.2,0-0.3,0c-1.7-0.4-3.4-0.8-5.1-1.1c-3.5-0.7-7.1-1.4-10.5-3.1c-0.5-0.3-0.7-0.9-0.5-1.4
				c0.3-0.5,0.9-0.7,1.4-0.5c3.2,1.6,6.5,2.2,10,2.9c1.7,0.3,3.4,0.7,5.2,1.1c0.6,0.1,0.9,0.7,0.8,1.3
				C29.1,42.5,28.7,42.8,28.2,42.8z"/>
		</g>
		<g>
			<path d="M30,57c0,0-0.1,0-0.1,0c-6.7-0.8-13.3-2.3-20.1-4.6c-0.6-0.2-0.9-0.8-0.7-1.3c0.2-0.6,0.8-0.9,1.3-0.7
				c6.7,2.2,13.1,3.7,19.7,4.5c0.6,0.1,1,0.6,0.9,1.2C31,56.6,30.5,57,30,57z"/>
		</g>
		<g>
			<path d="M78.6,15.1c-0.4,0-0.9-0.3-1-0.7c-0.5-1.6-1-3.2-1.5-4.7l-0.4-1.2c-0.2-0.6,0.1-1.2,0.7-1.3C77,7,77.6,7.3,77.7,7.9
				L78.1,9c0.4,1.2,0.8,2.5,1.2,3.7c2.1-0.6,4.3-1.2,6.4-1.8c0.6-0.2,1.2,0.1,1.3,0.7c0.2,0.6-0.1,1.2-0.7,1.3
				c-2.2,0.7-4.5,1.3-6.6,1.9L78.8,15C78.7,15.1,78.7,15.1,78.6,15.1z"/>
		</g>
	</g>
</g>
</svg>
