<?xml version="1.0" encoding="utf-8"?>
<!-- Generator: Adobe Illustrator 21.1.0, SVG Export Plug-In . SVG Version: 6.00 Build 0)  -->
<svg version="1.1" id="lineart" xmlns="http://www.w3.org/2000/svg" xmlns:xlink="http://www.w3.org/1999/xlink" x="0px" y="0px"
	 viewBox="0 0 124 85.1" style="enable-background:new 0 0 124 85.1;" xml:space="preserve">
<style type="text/css">
	.st0{fill:#E55A2F;}
</style>
<g>
	<g>
		<g>
			<path class="st0" d="M83,53.5c-3.7-0.7-5.2,2-7.7,4.2c-3.2,2.9-7.6,2.5-11.7,2.6c-3.9,0.1-7.9,0.1-11.8-0.1
				c-4.3-0.2-8.8-0.9-13.1-0.5c0,0-0.1,0.1,0,0.1c4.1,2,8.9,2.7,13.4,3.5c4.5,0.8,9.1,1.4,13.6,1.8c3.9,0.4,8.1,0.9,11.7-1.2
				c2.9-1.7,7.5-4.4,7.4-8C84.8,54.8,84.1,53.6,83,53.5z"/>
		</g>
		<g>
			<path class="st0" d="M95.2,37c-0.1-0.7-0.3-1.4-0.5-2c0,0,0-0.1,0-0.1c1.3-2.7-0.9-7-4.3-5.6c-4.2,1.6-8.2,3.7-12.3,5.7
				c-3.7,1.8-7.8,3.5-11,6.1c-0.9,0.7-0.1,2,0.9,2.1c4.1,0.5,8.9-0.7,12.9-1.8c1.7-0.5,3.4-1,5-1.6c-0.4,1.4-0.8,2.7-1.1,4.1
				c-0.3,1.7-0.3,2.1-1.5,3.5c-0.8,1-1.6,1.9-2.3,3c-0.9,1.6-1.7,3.8-1.5,5.6c0.2,1.1,0.6,1.2,1.1,2c0.4,0.2,0.8,0.3,1.2,0.5
				c0.7,1.3,0.8,2.7,0.3,4c-0.6,2.6,3.2,3.6,3.9,1.1c1.2-3.7,0.5-7.1-2.9-8.6c-0.5-4.3,5.1-5.6,7.3-8.2c0.4-0.5,0.8-1.1,1.1-1.7
				c1.2,0.2,2.5-0.4,3.3-1.4C96.1,41.6,95.6,39.1,95.2,37z"/>
		</g>
		<g>
			<path class="st0" d="M122.3,62.1c-2.3-3.6-6.1-4-9.9-3.7c-1.9,0.1-3.8,0.2-5.7,0.1c0-0.1,0-0.2,0-0.3c-0.3-2.2-1.6-4.2-2.2-6.4
				c-0.7-2.7-1.3-5.5-1.7-8.2c-0.5-3.5-0.6-7.5-1.5-11.1c0,0,0,0,0,0c1.3-0.7,2.6-1.1,3.9-1.6c3-1.2,6.1-2.3,8.9-3.9
				c1.9-1,1.8-3.8,0-4.8c-0.5-0.3-1-0.4-1.5-0.4c-0.2-0.2-0.6-0.3-1-0.2C99,24.8,86.6,28.3,74.1,32c-5.3,1.6-11.3,4.1-16.9,3.1
				c-4.4-0.8-9.7-4.1-14.1-2.3c-0.3,0.1-0.4,0.5-0.1,0.7c2.1,1.6,4.7,2.4,7.1,3.6c2.3,1.1,4.5,2.3,6.9,3.1
				c6.1,2.2,10.8,0.3,16.7-1.8c8.2-3,16.4-6.1,24.6-9.3c-3.2,5.1-3.1,12.8-2.2,18.5c0,0.1,0,0.2,0,0.3c-0.2,1,0.1,2.2,0.3,3.4
				c0.4,1.9,0.8,3.9,1.7,5.6c-0.1,0.1-0.1,0.2-0.1,0.4c0.5,4.6,5.8,6.7,9.5,8.1c1.9,0.7,6,0.9,7.1,2.3c0.1,0.1,0.1,0.2,0.2,0.3
				c-0.3,0.8-0.6,1.6-0.2,2.5c0.2,0.4,0.4,0.8,0.7,1.2c-0.1,0.4-0.1,0.8-0.2,1.2c-0.1,0.9-0.1,3.1-0.7,3.8c-1.4,1.7-6.4,1.4-8.3,1.4
				c-2.7,0-5.3-0.4-7.8-1.4c-2.1-0.9-3.9-2.2-6-2.9c-0.3-0.1-0.7,0.2-0.6,0.6c2,6.1,10.8,8.3,16.5,8.5c3,0.1,7,0.4,9.6-1.6
				c1.5-1.1,2.4-3.1,3-5.1C124.4,72.8,125.1,66.5,122.3,62.1z"/>
		</g>
		<g>
			<path class="st0" d="M82,38.3c-2.9-0.6-4.9,1.8-5.5,4.4c-0.7,3.2-1.3,7.9-0.3,11.3c-0.8,1.4-1.7,3.1-3,3.9
				c-1.5,0.9-3.6,0.8-5.2,1c-5.8,0.5-11.6,0.3-17.4-0.3c-5.7-0.6-11.2-2.3-16.9-3c-0.3,0-0.3,0.4-0.1,0.5c7,4.7,16.7,6.2,25.1,6.6
				c4.5,0.2,9.4,0.4,13.8-0.6c3.3-0.7,5.1-2.8,6.8-5.4c0.8-0.1,1.6-0.5,2-1.3c0.6-1.2,0.9-2.4,0.9-3.7C84.8,46.8,87.6,39.5,82,38.3z
				"/>
		</g>
		<g>
			<path class="st0" d="M114.7,19.2c-1,0.2-2.5,0.7-3.5,0.6c-1.4-0.1-2.7-1.2-3.9-1.9c-2.4-1.4-4.9-2.5-7.4-3.6
				c-4-1.7-9.1-4.3-13.5-3.9c-0.1,0-0.1,0.1-0.1,0.2c1.8,2.1,4.4,3.3,6.7,4.7c2.9,1.7,5.9,3.4,8.8,5.2c0.6,0.4,1.3,0.8,1.9,1.3
				c-8.5,3.5-17.1,7-25,11.7c0,0,0,0.1,0,0.1c9.9-2,19.2-5.7,28.5-9.6c0.6,0.3,1.2,0.5,1.8,0.7c2.3,0.6,4.6-0.4,6.9-1
				C118.8,22.9,117.6,18.7,114.7,19.2z"/>
		</g>
		<g>
			<path class="st0" d="M84.1,39.7c-0.7-0.2-1.2,0.3-1.3,1c-0.1,1.3,0.4,2.6,0.6,3.9c0.2,1.4,0.3,2.7,0.2,4.1
				c-0.2,3.3,5.1,3.3,5.1,0C88.8,45.5,87.7,40.5,84.1,39.7z"/>
		</g>
		<g>
			<path class="st0" d="M87.4,65.8c0-0.1-0.1-0.2-0.1-0.3c-0.3-0.8-1.4-1.3-2.2-1.3c0.3-1-0.4-2.3-1.7-2.3c-1.3-0.1-2.5,0.4-3.7,0.7
				c-0.1,0-0.1,0-0.2,0c-0.1-0.1-0.2-0.2-0.3-0.2c-0.6,0-1.1,0.1-1.6,0.2c-0.3,0.1-0.7,0.4-1,0.5c-0.1,0-0.3,0.1-0.4,0.1
				c-0.6,0-0.9,0.5-1.1,1c-0.4-0.4-0.9-0.7-1.6-0.7C66.9,63,60.6,63,54.1,62c-5.9-0.9-10.7-2.4-16-5.1c-0.4-0.2-0.8,0.3-0.5,0.7
				c4.3,4.8,8.6,6.6,14.8,7.9c2.1,0.5,4.3,1,6.5,1.5c-1.8,0-3.7-0.1-5.5-0.2c-3.2-0.2-6.6-0.8-9.7,0.3c-0.2,0.1-0.4,0.4-0.2,0.6
				c2.3,2.2,5.5,2.8,8.5,3.4c3.9,0.8,7.7,1.2,11.6,1.4c3.9,0.2,7.9,0.3,11.8,0c3.5-0.3,7.5-0.5,10.6-2.1
				C87.9,69.4,88,67.4,87.4,65.8z"/>
		</g>
		<g>
			<path class="st0" d="M122.2,72c-1-2-3.6-1.5-4.7,0c-1.4,2-1.9,4.3-4.2,5.7c-2.9,1.7-6.5,1.3-9.6,0.9c-5.8-0.7-10.6-2.4-15.4-5.8
				c-0.2-0.2-0.5,0.1-0.5,0.4c2.1,7.5,12,11,19,11.8c4.3,0.5,9-0.1,12.4-3C122.1,79.4,124.1,75.7,122.2,72z"/>
		</g>
	</g>
	<g>
		<g>
			<g>
				<path d="M62.2,45c-0.2,0-0.4,0-0.5-0.1c-16.6-9.6-21.4-10.7-28-12.2c-6.1-1.4-13.6-3.1-33.1-12.2c-0.4-0.2-0.6-0.6-0.6-1
					c0-0.4,0.3-0.8,0.7-0.9c5.5-1.7,11-3.6,16.2-5.5c5.9-2.1,12-4.2,18.2-6.1c7.2-2.1,15-4.5,22.6-6.9C58,0,58.1,0,58.3,0
					c9.2,2,27.3,8.2,41.9,13.2c7.3,2.5,13.6,4.7,17.8,6c0.4,0.1,0.7,0.5,0.7,1c0,0.5-0.3,0.9-0.7,1c-5.7,1.9-35.4,12-55.3,23.6
					C62.6,45,62.4,45,62.2,45z M4,19.7c17.5,8,24.5,9.6,30.2,10.9c6.4,1.5,11.6,2.7,28,12.1c17.6-10.2,42.5-19.1,52.1-22.5
					c-4-1.3-9.1-3.1-14.8-5C85.2,10.3,67.3,4.2,58.1,2.2C50.6,4.5,43,6.8,35.8,9c-6.2,1.8-12.3,4-18.1,6.1
					C13.2,16.6,8.6,18.2,4,19.7z"/>
			</g>
		</g>
		<g>
			<g>
				<path d="M96.3,41.4c-0.6,0-1.1-0.5-1.1-1.1c0-2.6,0.1-5.2,0.2-7.7c0.1-1.6,0.1-3.2,0.2-4.8c0-0.6,0.5-1.1,1.1-1
					c0.6,0,1,0.5,1,1.1c0,1.6-0.1,3.2-0.2,4.8c-0.1,2.5-0.2,5.1-0.2,7.6C97.4,40.9,96.9,41.4,96.3,41.4z"/>
			</g>
		</g>
		<g>
			<g>
				<path d="M97.1,62.2c-0.3,0-0.7-0.2-0.9-0.4c-0.3-0.5-0.2-1.1,0.2-1.5c1-0.7,1.5-1.3,1.8-1.6c-0.7-1.2-2.1-4.2-2.7-10.5
					c-0.1-0.6,0.4-1.1,1-1.2c0.6-0.1,1.1,0.4,1.2,1c0.7,7.7,2.6,9.9,2.6,9.9c0.2,0.2,0.3,0.5,0.3,0.7c0,1.2-2.2,2.9-2.9,3.4
					C97.5,62.1,97.3,62.2,97.1,62.2z"/>
			</g>
		</g>
		<g>
			<g>
				<path d="M68.1,68.7c-7,0-31-0.7-43.9-10.1c-0.3-0.2-0.4-0.5-0.4-0.9l0-0.4c0-9.9-1-19.6-2.1-28.6c-0.1-0.6,0.3-1.1,0.9-1.2
					c0.6-0.1,1.1,0.3,1.2,0.9c1.1,9,2.1,18.7,2.1,28.7c12.8,8.9,37.4,9.4,42.2,9.4c7.3,0,13.6-0.7,18.9-2.1c0.6-0.2,1.1,0.2,1.3,0.7
					c0.2,0.6-0.2,1.1-0.7,1.3C82.1,67.9,75.6,68.7,68.1,68.7z"/>
			</g>
		</g>
		<g>
			<g>
				<path d="M89,58.5c-2.1,0-3.1-2.1-3.1-4.2c0-2,0.9-4.1,1.6-5.7c0.1-0.3,0.3-0.6,0.4-0.9c0.2-0.5,0.7-0.8,1.2-0.6
					c0.7-0.3,1.4-0.3,1.8-0.3c0.3,0,0.6,0,0.8,0c0.2,0,0.5,0,0.7,0c1.9,0,2.1,3,2.1,4.3C94.5,56.2,90.5,58.5,89,58.5z M89.5,49.2
					c0,0.1-0.1,0.2-0.1,0.3c-0.6,1.5-1.4,3.3-1.4,4.9c0,0.9,0.4,2,1,2c0.4-0.1,3.4-1.3,3.4-5.3c0-0.9-0.2-1.8-0.3-2.2
					c-0.2,0-0.3,0-0.5,0c-0.2,0-0.5,0-0.7,0c-0.5,0-0.8,0.1-1.1,0.2C89.7,49.1,89.6,49.2,89.5,49.2z"/>
			</g>
		</g>
		<g>
			<g>
				<path d="M106.1,83.1c0,0-0.1,0-0.2,0c-12.5-1.8-20.2-12.4-20.2-21.2c0-1.9,0.3-3.7,1-5.4c0.2-0.5,0.8-0.8,1.4-0.6
					c0.5,0.2,0.8,0.8,0.6,1.4c-0.6,1.5-0.9,3-0.9,4.6c0,7.9,7,17.5,18.4,19.1c0.6,0.1,1,0.6,0.9,1.2
					C107.1,82.8,106.6,83.1,106.1,83.1z"/>
			</g>
		</g>
		<g>
			<g>
				<path d="M113.1,67.3c-7.9,0-18.1-3.6-21.9-11.5c-0.3-0.5,0-1.2,0.5-1.4c0.5-0.3,1.2,0,1.4,0.5c3.4,7.1,12.8,10.3,20,10.3
					c1.6,0,3.5-0.4,4.6-0.9c0.5-0.3,1.2,0,1.4,0.5c0.3,0.5,0,1.2-0.5,1.4C117.3,66.8,115.1,67.3,113.1,67.3z"/>
			</g>
		</g>
		<g>
			<g>
				<path d="M108.7,75.9c-10,0-14.1-4.8-18.7-14.3c-0.3-0.5,0-1.2,0.5-1.4c0.5-0.3,1.2,0,1.4,0.5c4.3,9,7.8,13.1,16.8,13.1
					c0.6,0,1.1,0.5,1.1,1.1C109.8,75.4,109.3,75.9,108.7,75.9z"/>
			</g>
		</g>
		<g>
			<g>
				<path d="M111.6,82.4c-4.1,0-5-2.6-5-4.7c0-3.9,3.4-7.5,4.8-8.8c0.4-0.4,1.1-0.4,1.5,0.1c0.4,0.4,0.4,1.1-0.1,1.5
					c-1,0.9-4.1,4.1-4.1,7.2c0,1.9,0.8,2.6,2.9,2.6c3.6,0,6.6-4,6.6-8.9c0-1.2-0.1-2.4-0.4-3.6c-0.1-0.6,0.2-1.1,0.8-1.3
					c0.6-0.1,1.1,0.2,1.3,0.8c0.3,1.4,0.5,2.7,0.5,4C120.3,77.5,116.5,82.4,111.6,82.4z"/>
			</g>
		</g>
		<g>
			<g>
				<path d="M92,48.5c-0.2,0-0.4-0.1-0.6-0.2c-0.5-0.4-0.6-1-0.2-1.5c1.5-2,4.3-3.8,7.2-5.6c5.7-3.6,12.1-7.7,12.1-14.8
					c0-0.7-0.1-1.5-0.2-2.3c-0.1-0.6,0.3-1.1,0.8-1.2c0.6-0.1,1.1,0.3,1.2,0.8c0.2,0.9,0.3,1.8,0.3,2.7c0,8.3-7.3,12.9-13.1,16.6
					c-2.8,1.8-5.4,3.4-6.7,5.1C92.7,48.4,92.4,48.5,92,48.5z"/>
			</g>
		</g>
		<g>
			<g>
				<path d="M65.1,62.7c-0.5,0-0.9-0.3-1-0.9c-0.1-0.6,0.3-1.1,0.8-1.2c4.4-0.9,7.1-1,9.5-1c1.2,0,2.3-0.1,3.6-0.2
					c1.2-1.6,2.8-3,4.3-4.3c0.4-0.4,1.1-0.3,1.5,0.1c0.4,0.4,0.3,1.1-0.1,1.5c-1.6,1.4-3.1,2.6-4.2,4.2c-0.2,0.3-0.4,0.4-0.7,0.5
					c-1.5,0.2-2.8,0.2-4.2,0.3c-2.4,0.1-4.9,0.2-9.2,1C65.3,62.7,65.2,62.7,65.1,62.7z"/>
			</g>
		</g>
	</g>
</g>
</svg>
