<?xml version="1.0" encoding="utf-8"?>
<!-- Generator: Adobe Illustrator 21.1.0, SVG Export Plug-In . SVG Version: 6.00 Build 0)  -->
<svg version="1.1" id="lineart" xmlns="http://www.w3.org/2000/svg" xmlns:xlink="http://www.w3.org/1999/xlink" x="0px" y="0px"
	 viewBox="0 0 89.4 94.2" style="enable-background:new 0 0 89.4 94.2;" xml:space="preserve">
<style type="text/css">
	.st0{fill:#E55A2F;}
</style>
<g>
	<g>
		<path class="st0" d="M87.4,43.3c-0.2-0.6-1.2-0.6-1.2,0.2c0.3,10-0.7,19.7-6.2,28.4C75.8,78.5,70,83,63.2,86.1
			c0.4-1.2,0.7-2.4,1.1-3.6c3.2-1.3,6.6-4.8,8.7-6.9c3.2-3.3,5.9-7.1,8-11.2c3.8-7.9,6.2-18.5,3.1-27c-0.3-0.8-1.4-0.7-1.5,0.2
			c-0.1,3.1-0.2,6.1-0.6,9c-0.3-0.1-0.7,0.2-0.8,0.6c-0.5,5.4-3.3,10.5-7.1,14.8c-0.6-0.7-1.6-1-2.5-0.5c-1.4,0.8-2.7,1.3-4.2,1.6
			c0.2-3.3,0.1-6.7-0.7-9.8c-0.2-0.8-1.4-0.8-1.6,0C64,59.1,64.1,65,63.1,70.7c0,0.2-0.1,0.5-0.1,0.7c0,0,0,0-0.1,0.1
			c-0.8,0.6-0.8,1.5-0.4,2.2c-0.4,1.9-0.9,3.7-1.4,5.5c-0.2,0.2-0.4,0.3-0.5,0.6L60.5,80c-0.2,0.5-0.3,1.1-0.1,1.7
			c-0.4,1.3-0.8,2.5-1.2,3.8c-0.5,0.3-0.9,0.8-0.9,1.6l0,1c-0.1,0-0.2,0.1-0.4,0.1c-0.5,0.2-0.9,0.5-1.1,0.8
			c-0.3-0.3-0.7-0.6-1.3-0.6c-0.9-0.1-1.7-0.1-2.6-0.1c-0.2-0.6-0.8-1.1-1.5-0.8c-0.8,0.3-1.5,0.5-2.3,0.6c-0.4,0-0.7,0-1.1-0.1
			c1.4-1,2.6-2,3.6-3.1c0.2-0.2,0.3-0.4,0.4-0.6c0.2,0.2,0.4,0.4,0.5,0.6c0.1,0.1,0.2,0.2,0.3,0.4c0,0.2,0.1,0.4,0.2,0.6
			c0.3,0.4,0.6,0.6,0.9,0.8c1.1,1.1,2.6,2,3.8,0.6c0.9-1,0.3-2.6-0.7-3.1c1.9-5.4,3.4-11,4.8-16.6c1.2-4.9,3.1-10.8,2.3-15.8
			c-0.1-0.5-0.7-0.5-1-0.1c-2.8,4.4-3.6,10.7-5.1,15.7c-1.3,4.7-2.8,9.3-4.3,14c-0.2-0.2-0.4-0.4-0.6-0.6c-1.2-1.3-2.4-2.7-3.7-3.9
			c-0.7-0.6-1.5-0.3-1.8,0.4c-0.5-0.1-1.1,0-1.7,0.6c-5.7,5.7-13.8,8.6-21.9,7.1c-8.5-1.7-13-7.6-19.4-12.7
			c-0.8-0.6-2.1,0.1-1.5,1.2c9.3,17,31.6,21.1,45.5,7.3c0,0,0.1-0.1,0.1-0.1c0.2,0.4,0.5,0.7,0.7,1.1c-0.3,0.1-0.7,0.2-1,0.6
			c-4.7,5.1-12.2,7.6-19,8.2c-7.3,0.6-13.2-1.9-18.6-6.5c-0.6-0.5-1.5,0.1-1.1,0.9C16,96.3,32.7,96,44.1,90.4
			c3.7,1.1,8.2,1.4,11.6,1.5c0.7,0,1.2-0.3,1.5-0.7c0.4,0.5,1.1,0.8,1.9,0.6C79,87,95.3,63.6,87.4,43.3z M71.6,71.2
			c-1.5,1.6-3.7,4.2-6,6c0.2-1,0.4-2,0.6-3.1c3.4-2.1,6.5-4.7,9.1-7.8C74.2,68,72.9,69.6,71.6,71.2z"/>
	</g>
	<g>
		<path class="st0" d="M32.8,60.7c-9.3-0.3-17.3-3.5-21.4-11.9c-0.3-1-0.6-2-0.8-3C10.4,45,9.3,45.3,9.2,46C9,49.6,9.7,53,11,56.2
			c-0.1,0.2-0.2,0.4-0.3,0.6c-1.3,5.7,2.4,9.7,6.5,13.1c0.9,0.8,2.1,0.4,2.7-0.2c0.3,0.7,1.1,1.3,2.1,1.1c2.6-0.5,5-1.3,7.3-2.5
			c0.8,0,1.4-0.5,1.8-1.1c0.6-0.4,1.2-0.8,1.7-1.2c0.6-0.5,0.9-1.2,0.8-1.9C35.1,63.3,34.8,60.8,32.8,60.7z"/>
	</g>
	<g>
		<path class="st0" d="M47,28.2c-0.9-2.2-4.6-1.3-3.7,1c2,5.3-2.5,5-5.6,7c-0.9,0.6-1.5,1.3-2,2.3c-0.2,0.4-0.2,1-0.5,1.4
			c-1.6,2.6-3.1,1.6-4.9,0.8c-1-0.4-2.4,0.9-1.3,1.7c1.7,1.3,3.7,2.6,6,2.2c3.3-0.6,2.7-3.9,5.2-5.4c2.2-1.3,4.4-1.2,6.2-3.4
			C48.2,33.6,48,30.8,47,28.2z"/>
	</g>
	<g>
		<path class="st0" d="M42.9,25c-0.4-2.9-2-6-3.3-8.6c-0.2-0.4-0.7-0.5-1.1-0.3c-0.2-0.4-0.3-0.8-0.5-1.3c-0.4-0.9-2.1-0.3-1.7,0.7
			c1,2.5,1.2,5,1,7.6c-0.1,1.4,1.9,1.6,2.4,0.5c0.1,0.7,0.2,1.4,0.4,2.1C40.6,27.5,43.2,26.7,42.9,25z"/>
	</g>
	<g>
		<path class="st0" d="M31.1,6.6c-0.4,1.2-0.8,2.3-1.7,3.3c-0.6,0.6-1.6,1.8-2.5,1.1c-1-0.7-1.9,0.6-1.5,1.5
			c0.9,1.9,3.5,1.5,4.9,0.5c1.8-1.2,3.5-3.3,3.9-5.5C34.6,5.4,31.8,4.7,31.1,6.6z"/>
	</g>
	<g>
		<path class="st0" d="M29.8,15.9c-0.4,0.3-0.6,1.1-0.4,1.6c1.3,3.6,1.5,7.2-1.9,9.5c-0.8,0.6-0.3,1.9,0.7,1.6c4-1,5.1-5,4.9-8.7
			c0.7,0.2,1.5,0.1,1.8-0.6C36.3,15.9,32.4,13.8,29.8,15.9z"/>
	</g>
	<g>
		<path class="st0" d="M35.7,36.8c-0.1-0.5-0.3-0.9-0.6-1.1c-0.3-1.1-0.3-2.8-0.5-3.7c-0.3-1.7-0.6-3.3-0.9-5
			c-0.2-1.2-2.1-0.9-2,0.3c0,2.2,0.1,4.4,0.2,6.7c0.1,1.4-0.2,3.3,0.9,4.4c0.6,0.6,1.3,0.6,2,0.3l0.2-0.1c0.5-0.2,0.8-0.9,0.8-1.4
			C35.8,36.9,35.7,36.8,35.7,36.8z"/>
	</g>
	<g>
		<path d="M14.8,70.8c-0.3,0-0.7-0.2-0.9-0.5c-4.6-6.7-7-14.5-6.9-22.4C7.3,37,12.3,26.5,21,19.2c0.4-0.4,1.1-0.3,1.5,0.1
			c0.4,0.4,0.3,1.1-0.1,1.5C14.2,27.8,9.4,37.6,9.2,48c-0.1,7.5,2.1,14.8,6.5,21.2c0.3,0.5,0.2,1.1-0.3,1.5
			C15.2,70.7,15,70.8,14.8,70.8z"/>
	</g>
	<g>
		<path d="M47.8,89c-2.7,0-5.5-0.3-8.3-1c-0.6-0.1-0.9-0.7-0.8-1.3c0.1-0.6,0.7-0.9,1.3-0.8c2.9,0.7,5.8,1,8.6,0.9
			c1.9-0.1,3.9-0.3,5.8-0.7c0.6-0.1,1.1,0.2,1.3,0.8c0.1,0.6-0.2,1.1-0.8,1.3c-2.1,0.4-4.1,0.7-6.2,0.7C48.4,89,48.1,89,47.8,89z"/>
	</g>
	<g>
		<path d="M58.9,87.1c-0.4,0-0.9-0.3-1-0.7c-0.2-0.6,0.1-1.2,0.7-1.3C72.4,80.4,85.8,66.5,85,45.9c-0.4-9.3-4.1-17.9-10.5-24.1
			c-6.4-6.3-15.3-9.9-25-10.2c-1.8-0.1-3.5,0-5.3,0.1C40.7,12,37.3,12.8,34,14c-0.5,0.2-1.2-0.1-1.4-0.6c-0.2-0.5,0.1-1.2,0.6-1.4
			c3.5-1.3,7.1-2.1,10.7-2.4c1.8-0.2,3.7-0.2,5.5-0.2c20.9,0.6,36.7,15.9,37.6,36.4C88,67.5,73.8,82.2,59.3,87
			C59.2,87.1,59.1,87.1,58.9,87.1z"/>
	</g>
	<g>
		<path d="M27.9,14.9c-0.1,0-0.1,0-0.2,0c-1.8-0.1-3.5-0.9-4.8-2.2c-1.4-1.5-2.1-3.6-2.1-5.8C21,3.2,23.7,0.3,27.1,0
			c0.3,0,0.6,0,0.9,0c2.7,0.2,5,1.5,6.2,3.5c0.6,1,1,2.2,1,3.4c0.1,2.1-0.7,4.2-2.3,5.7C31.6,14.1,29.7,14.9,27.9,14.9z M27.6,2.1
			c-0.1,0-0.2,0-0.3,0c-2.3,0.2-4.2,2.2-4.3,4.8c-0.1,1.6,0.5,3.1,1.5,4.2c0.9,1,2.1,1.5,3.3,1.6c1.3,0,2.7-0.5,3.8-1.6
			c1.1-1.1,1.7-2.6,1.6-4.1c0-0.8-0.3-1.7-0.7-2.4c-0.8-1.4-2.6-2.3-4.5-2.5C27.8,2.1,27.7,2.1,27.6,2.1z"/>
	</g>
	<g>
		<path d="M21.5,9c-0.5,0-0.9-0.3-1-0.8c-0.2-0.6,0.2-1.2,0.7-1.3c3.7-1.1,6.6-3.4,8.4-5.2c0.4-0.4,1.1-0.4,1.5,0
			c0.4,0.4,0.4,1.1,0,1.5c-2,2-5.2,4.6-9.3,5.8C21.7,9,21.6,9,21.5,9z"/>
	</g>
	<g>
		<path d="M32.2,41.9c-5.1,0-7-7.8-7.8-11.1c0-0.1-0.1-0.3-0.1-0.4c0,0,0,0,0,0c-3.6,0-3.7-8.2-3.7-9.8c0-4.3,1.6-7,4.8-8
			c0.6-0.2,1.2,0.1,1.3,0.7c0.2,0.6-0.1,1.2-0.7,1.3c-2.3,0.7-3.3,2.6-3.3,5.9c0,4.1,1,7.7,1.6,7.7c0.1,0,0.2,0,0.3,0
			c0.2,0,0.3,0,0.5,0c0.9,0,1.1,0.7,1.4,2.1c0.6,2.6,2.3,9.5,5.7,9.5c1.2,0,1.9-2.6,1.9-4.5c0-1.6-0.3-3.4-0.7-5.2
			c-0.4-1.9-0.7-3.8-0.7-5.7c0-1.6,0-2.4,1-2.6c0.9-0.2,1.2,0.7,1.4,1.3c0.7,2,1.2,2.5,1.4,2.5c0.1-0.1,0.5-0.8,0.5-2.3
			c0-6.9-3.8-9.8-5.3-9.8c-0.6,0-1.1-0.5-1.1-1.1c0-0.6,0.5-1.1,1.1-1.1c3,0,7.4,4.2,7.4,11.9c0,4-1.8,4.4-2.6,4.4
			c-0.6,0-1.1-0.2-1.5-0.5c0.1,0.8,0.3,1.7,0.5,2.5c0.4,1.8,0.7,3.8,0.7,5.6C36.2,38.4,35,41.9,32.2,41.9z"/>
	</g>
	<g>
		<path d="M35.4,35.6c-0.5,0-1-0.4-1.1-0.9c-0.1-0.6,0.3-1.1,0.9-1.2c1.5-0.2,6.2-1.3,7.3-2c-0.1-0.9-0.4-1.9-0.6-2.8
			c-0.2-0.7-0.4-1.5-0.5-2.2c-0.2,0.1-0.4,0.1-0.6,0.1c-1.6,0.4-3.1,0.8-4.5,1.4c-0.5,0.2-1.2,0-1.4-0.6c-0.2-0.5,0-1.2,0.6-1.4
			c1.6-0.6,3.2-1.1,4.8-1.5c0.6-0.1,1.1-0.3,1.7-0.5c0.3-0.1,0.6,0,0.9,0.1c0.3,0.2,0.4,0.5,0.5,0.8c0.1,1,0.4,2.1,0.7,3.1
			c0.3,1.1,0.6,2.2,0.7,3.4c0,0.1,0,0.1,0,0.2c0,2.6-9.1,3.9-9.2,3.9C35.5,35.6,35.5,35.6,35.4,35.6z"/>
	</g>
	<g>
		<path d="M32.8,41.3c-0.4,0-0.8-0.2-1-0.6c-1.1-2.3-2.5-5.8-2.5-9.3c0-0.6,0.5-1.1,1.1-1.1c0.6,0,1.1,0.5,1.1,1.1
			c0,3.1,1.3,6.3,2.3,8.4c0.2,0.5,0,1.2-0.5,1.4C33.1,41.3,33,41.3,32.8,41.3z"/>
	</g>
	<g>
		<path d="M25.7,30.6c-0.5,0-0.9-0.3-1-0.8c-0.5-1.7-0.5-3.4-0.5-5c0-0.4,0-0.8,0-1.2c0-0.4,0-0.8,0-1.2c0-0.6,0.5-1.1,1.1-1.1
			s1.1,0.5,1.1,1.1c0,0.4,0,0.8,0,1.2c0,0.4,0,0.8,0,1.2c0,1.4,0.1,3,0.5,4.4c0.2,0.6-0.2,1.2-0.7,1.3
			C25.9,30.6,25.8,30.6,25.7,30.6z"/>
	</g>
	<g>
		<path d="M33.5,25.1c-0.5,0-1-0.4-1.1-1c-0.1-0.8-0.2-1.5-0.4-2.2c-0.2-0.8-0.3-1.6-0.4-2.5c-0.1-0.6,0.4-1.1,1-1.2
			c0.6-0.1,1.1,0.4,1.2,1c0.1,0.8,0.2,1.5,0.4,2.2c0.2,0.8,0.3,1.6,0.4,2.5c0.1,0.6-0.4,1.1-1,1.2C33.6,25.1,33.5,25.1,33.5,25.1z"
			/>
	</g>
	<g>
		<path d="M25.9,28.7c-0.5,0-1-0.4-1-0.9c-0.1-0.6,0.3-1.1,0.9-1.2c1-0.2,2.1-0.4,3.1-0.6c1.1-0.2,2.1-0.5,3.2-0.7
			c0.6-0.1,1.1,0.3,1.2,0.9c0.1,0.6-0.3,1.1-0.9,1.2c-1,0.2-2.1,0.4-3.1,0.6c-1.1,0.2-2.1,0.5-3.2,0.7C26,28.7,25.9,28.7,25.9,28.7z
			"/>
	</g>
	<g>
		<path d="M57.9,91.4c-0.3,0-0.5-0.1-0.7-0.3l-0.5-0.5c-2.6-2.5-5.2-5.1-7.7-7.7c-4.9,3.9-13.2,7.8-22.3,7.8
			c-9.5,0-18.4-5.8-26.4-17.3c-0.3-0.5-0.2-1.1,0.3-1.5c0.5-0.3,1.1-0.2,1.5,0.3c7.6,10.9,15.9,16.4,24.7,16.4
			c9.1,0,17.2-4.1,21.8-7.9c0.4-0.4,1.1-0.3,1.5,0.1c2.4,2.6,5,5.1,7.5,7.6c2.8-11.5,4.9-23.8,6.3-36.5c-11.1,1.9-22.2,2.9-32.7,3.6
			c0.4,0.6,0.9,1.2,1.3,1.8c1.7,2.4,3.4,4.8,4.9,7.3c0.3,0.4,0.2,1-0.2,1.3C32.4,69.7,26.7,72,21.5,72c-8.8,0-16.7-6-19.2-14.5
			C2.2,57,2.5,56.4,3,56.2c0.6-0.2,1.2,0.2,1.3,0.7c2.2,7.6,9.3,12.9,17.2,12.9c4.4,0,9.3-1.9,13.3-5.1c-1.3-2.2-2.9-4.3-4.3-6.4
			c-0.8-1.1-1.6-2.3-2.4-3.4c-0.2-0.3-0.2-0.7-0.1-1.1c0.2-0.3,0.5-0.6,0.9-0.6c11.4-0.7,23.6-1.7,35.7-3.9c0.3-0.1,0.7,0,0.9,0.3
			c0.2,0.2,0.4,0.6,0.3,0.9c-1.5,14-3.9,27.4-7,40c-0.1,0.4-0.4,0.7-0.7,0.8C58.1,91.4,58,91.4,57.9,91.4z"/>
	</g>
	<g>
		<path d="M13.9,66.8c-0.5,0-0.9-0.3-1-0.8c-1-3.4-1.5-6.9-1.5-10.6c0-8.4,2.7-16.6,7.7-23.1c0.4-0.5,1-0.5,1.5-0.2
			c0.5,0.4,0.5,1,0.2,1.5c-4.7,6.1-7.3,13.8-7.3,21.8c0,3.4,0.5,6.8,1.4,10c0.2,0.6-0.1,1.2-0.7,1.3C14.1,66.8,14,66.8,13.9,66.8z"
			/>
	</g>
	<g>
		<path d="M43.9,53.2c-0.1,0-0.3,0-0.4-0.1c-0.5-0.2-0.8-0.9-0.5-1.4c1.2-2.6,2.3-5.4,3.5-8.1c3.8-9.1,7.7-18.5,14.3-26
			c-5.1,0.8-10.6,2.3-15.1,5.6c-0.5,0.3-1.1,0.2-1.5-0.2c-0.3-0.5-0.2-1.1,0.2-1.5c5.8-4.3,12.9-5.6,19.1-6.4
			c0.4-0.1,0.9,0.2,1.1,0.6c0.2,0.4,0.1,0.9-0.2,1.2c-7.6,7.5-11.9,17.7-16,27.5c-1.1,2.7-2.3,5.5-3.5,8.2
			C44.7,52.9,44.3,53.2,43.9,53.2z"/>
	</g>
	<g>
		<path d="M61.2,50.4c-0.1,0-0.2,0-0.3-0.1c-0.6-0.2-0.9-0.8-0.7-1.3c2.7-7.9,4-16.9,4-27.4c0-0.9,0-1.7,0-2.6c0-0.6,0.5-1.1,1-1.1
			c0.6,0,1.1,0.5,1.1,1c0,0.9,0,1.8,0,2.7c0,10.7-1.3,19.9-4.1,28.1C62,50.2,61.6,50.4,61.2,50.4z"/>
	</g>
	<g>
		<path d="M60.2,82.3c-0.3,0-0.6-0.1-0.8-0.3c-0.4-0.4-0.4-1.1,0.1-1.5c0.6-0.6,1.3-1.2,2-1.8c6.6-6,13.5-12.1,13.5-34
			c0-8.5-1.8-15.5-5.4-21.4c-0.3-0.5-0.2-1.2,0.3-1.5c0.5-0.3,1.2-0.2,1.5,0.3c3.9,6.2,5.8,13.6,5.8,22.5c0,22.9-7.6,29.6-14.2,35.6
			c-0.6,0.6-1.3,1.2-1.9,1.7C60.7,82.2,60.4,82.3,60.2,82.3z"/>
	</g>
	<g>
		<path d="M29.9,56.5c-0.1,0-0.2,0-0.3,0c-5.8-1.7-11.8-2-17.4-1c-0.6,0.1-1.1-0.3-1.2-0.9c-0.1-0.6,0.3-1.1,0.9-1.2
			c6-1,12.3-0.6,18.4,1.1c0.6,0.2,0.9,0.7,0.7,1.3C30.8,56.2,30.4,56.5,29.9,56.5z"/>
	</g>
	<g>
		<path d="M22.2,70.9c-0.5,0-0.9-0.4-1-0.9c-0.3-1.6-0.4-3.2-0.4-4.8c0-7,2.7-13.8,5.6-20.6c0.2-0.5,0.9-0.8,1.4-0.6
			c0.5,0.2,0.8,0.9,0.6,1.4c-2.9,6.6-5.4,13.1-5.4,19.8c0,1.5,0.1,3,0.4,4.4c0.1,0.6-0.3,1.1-0.8,1.2C22.4,70.9,22.3,70.9,22.2,70.9
			z"/>
	</g>
	<g>
		<path d="M25.3,39.9c-0.2,0-0.3,0-0.5-0.1c-0.7-0.4-1.5-0.7-2.3-1.1c-2.9-1.3-5.9-2.7-8.6-4.4c-0.5-0.3-0.6-1-0.3-1.5
			c0.3-0.5,1-0.6,1.5-0.3c2.5,1.6,5.5,2.9,8.3,4.2c0.8,0.4,1.6,0.7,2.3,1.1c0.5,0.2,0.8,0.9,0.5,1.4C26,39.7,25.7,39.9,25.3,39.9z"
			/>
	</g>
	<g>
		<path d="M53.2,52.7c-0.1,0-0.3,0-0.4-0.1c-5.9-2.4-12-5-18-7.7c-0.5-0.2-0.8-0.9-0.5-1.4c0.2-0.5,0.9-0.8,1.4-0.5
			c6,2.7,12.1,5.2,18,7.6c0.5,0.2,0.8,0.8,0.6,1.4C54,52.5,53.6,52.7,53.2,52.7z"/>
	</g>
	<g>
		<path d="M80.1,68.6c-0.1,0-0.3,0-0.4-0.1c-4.6-1.9-8.9-4.5-13.2-7c-0.8-0.5-1.6-1-2.4-1.4c-0.5-0.3-0.7-0.9-0.4-1.5
			c0.3-0.5,0.9-0.7,1.5-0.4c0.8,0.5,1.6,0.9,2.4,1.4c4.2,2.5,8.5,5,12.9,6.9c0.5,0.2,0.8,0.9,0.6,1.4C80.9,68.3,80.5,68.6,80.1,68.6
			z"/>
	</g>
	<g>
		<path d="M69.5,81.9c-0.3,0-0.7-0.2-0.9-0.5c-2-3-4.6-5.7-7.2-8.3c-0.4-0.4-0.4-1.1,0-1.5c0.4-0.4,1.1-0.4,1.5,0
			c2.7,2.7,5.4,5.5,7.5,8.7c0.3,0.5,0.2,1.1-0.3,1.5C69.9,81.9,69.7,81.9,69.5,81.9z"/>
	</g>
	<g>
		<path d="M85.7,48.6C85.7,48.6,85.6,48.6,85.7,48.6c-13.7-0.8-29.2-3-40.4-12.9c-0.4-0.4-0.5-1.1-0.1-1.5c0.4-0.4,1.1-0.5,1.5-0.1
			c10.7,9.5,25.8,11.6,39.1,12.4c0.6,0,1,0.5,1,1.1C86.7,48.2,86.2,48.6,85.7,48.6z"/>
	</g>
	<g>
		<path d="M74.2,34.7c-15.5,0-23.9-11.6-23.9-22.5c0-0.3,0-0.6,0-0.9c0-0.6,0.5-1,1.1-1c0.6,0,1,0.5,1,1.1c0,0.3,0,0.6,0,0.9
			c0,9.9,7.6,20.3,21.8,20.3c2.6,0,5.3-0.3,8.2-1c0.6-0.1,1.1,0.2,1.3,0.8c0.1,0.6-0.2,1.1-0.8,1.3C79.8,34.3,76.9,34.7,74.2,34.7z"
			/>
	</g>
</g>
</svg>
