<?xml version="1.0" encoding="utf-8"?>
<!-- Generator: Adobe Illustrator 21.1.0, SVG Export Plug-In . SVG Version: 6.00 Build 0)  -->
<svg version="1.1" id="lineart" xmlns="http://www.w3.org/2000/svg" xmlns:xlink="http://www.w3.org/1999/xlink" x="0px" y="0px"
	 viewBox="0 0 108.3 79.7" style="enable-background:new 0 0 108.3 79.7;" xml:space="preserve">
<style type="text/css">
	.st0{fill:#E55A2F;}
</style>
<g>
	<path class="st0" d="M44.8,46.3c-2.2-1.7-5-3.3-7.8-4.2c0.8-0.4,1.5-0.7,1.7-0.8c0.6-0.4,1.1-1,1.4-1.6c2.1-0.9,3.9-2.2,4.2-4.8
		c0.4-3.4-0.7-7.2-1.1-10.6c-0.5-4-1-8.1-1.5-12.1c0.3-1.2-0.8-2.1-1.9-2.3c0.5-0.8,0.9-1.5,1.3-2.3c0.4-0.9-0.5-1.9-1.4-1.4
		c-3,1.7-5.4,4.2-7.2,7.2c-0.6,1-1.1,2.4-2.5,2.6c-0.7,0.1-1.7-0.3-2.5-0.4c-1.5-0.1-2.8,0-4.1,0.8c-7.4,4.9,3.1,13.5-0.6,18.9
		c-1.2,1.7,0.5,3.7,2.2,3.8c-0.3,1.2-0.2,2.5,0.7,3.7c1.6,2.2,4.9,0.6,4.3-1.8c-0.8-2,2.4-2.3,3.7-2.8c1.5-0.5,2.7-1.2,3.9-2.2
		c1.5-1.3,2.3-2.7,2.8-4.3c0.1,0.8,0.1,1.6,0.1,2.4c-0.1,2.8-3.9,3.3-5.9,4.7c-1.3,0.8-2.2,1.8-3,3.1c-0.1,0.1-0.3,0.2-0.4,0.4
		c-0.8,0.8-1,2.6,0,3.4c1.7,1.3,3.6,2.3,5.5,3.5c1.8,1.1,3.5,2.8,5.6,3.3C46,53.1,47.6,48.4,44.8,46.3z M35.5,17.6
		c0.9-1.4,1.4-3,2.2-4.5c0.1,0.8,0.2,1.7,0.4,2.5c-0.4,0-0.7,0.1-1,0.5c-0.9,1-1.6,2.3-2.7,3c-0.1,0-0.1,0.1-0.2,0.1
		C34.6,18.8,35,18.3,35.5,17.6z M39.9,27.9c-1,1.9-2.9,3.7-4.7,4.7c-1.8,1.1-3.8,1.2-5.8,1.9c-0.3,0.1-0.6,0.3-1,0.4
		c0.4-1.5,0.4-3,0.1-4.7c-0.4-1.7-1.2-3.3-1.8-5c-0.3-0.8-1.1-2.7-0.9-3.6c0.4-1.3,1.4-1.1,2.3-1.1c-0.7,0.7-0.7,1.9,0.5,2.2
		c2.5,0.7,5.4,0.8,7.8-0.4c0.8-0.4,1.6-1,2.2-1.7c0.1,0.7,0.2,1.4,0.3,2C39.3,24.4,39.6,26.2,39.9,27.9z"/>
	<path class="st0" d="M65.6,59.5c-1.8-3.5-6.9-3.6-10.4-3.9c-4.6-0.4-9.1-0.1-13.7,0.1c-4.8,0.2-9.5,0.1-14.3-0.1
		c-4.1-0.2-9.2-1.5-13.1-0.3c-0.5,0.2-0.7,0.8-0.3,1.2c0.5,0.5,1.1,1,1.7,1.4c-0.7,0-1.3-0.1-2-0.1c-0.5,0-0.8,0.8-0.3,1
		c13,6.3,29.3,6,43.3,4.1c0.5-0.1,0.8-0.2,1.1-0.5c0.1,0,0.2,0,0.3,0.1c2.2,0.4,4,1.5,6.2,0.6C65.7,62.4,66.4,61,65.6,59.5z"/>
	<path class="st0" d="M93.4,50.9c0-0.4-0.1-0.9-0.3-1.3C93,49.2,92.5,49,92.1,49c-2.6,0-4.1,3.8-5.5,5.6c-2,2.6-4.1,5.2-6.3,7.6
		c-0.6,0.6,0.1,1.6,0.9,1.2c3-1.7,5.9-3.8,8.2-6.4c0,0,0,0,0.1-0.1c-2.5,3.6-5.6,6.3-9.8,8.7c-5.8,3.2-13.3,7.8-20.2,6.4
		c-3.2-0.6-6.1-2.3-9-3.8c-1.9-1-4.3-2.4-6.5-1.9c-1.2,0.3-2,0.9-2.6,1.8c0-0.6,0-1.2,0-1.8c0-1-1-1.5-1.9-1.1
		c-4.5,2.1-4.1,9.1-2,12.7c1.1,2,3.3,1.7,4.5,0.4c0.1,0.2,0.2,0.5,0.3,0.7c0.3,0.6,1.2,0.4,1.4-0.2c0.6-1.6,0.9-3.2,1.2-4.9
		c0.1-0.9,0.3-1.7,0.4-2.6c-0.3-0.7,0.1-0.6,1.1,0.3c2.7,1,5.2,2.7,7.9,3.8c5.9,2.4,11.6,1.8,17.4-0.6c9.3-3.8,23.8-10.3,24.2-22.1
		C95.9,51.6,94.5,50.8,93.4,50.9z"/>
	<path class="st0" d="M105,55.4c-1.4-3.1-3.4-6-5.9-8.3c-2.7-2.5-5-3.5-8.2-4.5c0.5-1.5,0.7-3.1,1.3-4.4c1.1-2.7,2.5-5.3,3.6-8
		c1-2.6,1.3-5.1,1.2-7.5c0.6-1.6,1-3.3,1-5.1c0-7.1-7.4-13.8-14.5-13.1c-0.4,0-0.7,0.5-0.3,0.8c3,2.8,6.5,4.4,8,8.5
		c1.4,3.9-0.3,7.1-2.5,10.2c-4,5.5-9.4,11.8-5.9,19c0.6,1.3,1.7,1.8,2.8,1.7c0.1,0.1,0.1,0.2,0.2,0.3c0.9,1.3,2.4,1.5,3.6,0.5
		c0.3-0.3,0.6-0.6,0.9-1c2,1.7,3.9,3.2,5.4,5.4c1.6,2.3,2.9,4.7,3.9,7.3c1,2.5,1.7,5.2,2,7.9c0.2,2,0.6,6.1,0,7.5
		c-0.9,1.9,0.1,4.8,2.6,4.6c0.1,0,0.2,0,0.3,0c1-0.1,2.3-0.5,2.8-1.6C109.7,69.6,107.6,61,105,55.4z"/>
	<path class="st0" d="M95.1,64.1c0.1-1.2-1.8-1.4-2.1-0.3c-0.7,3.2-1.7,6.2-2.3,9.5c-0.2,1.4,0.4,2.6,1.8,3.1c0.5,0.2,0.9,0.1,1.4,0
		c1-0.3,2-1.3,1.9-2.5C95.4,70.8,94.8,67.3,95.1,64.1z"/>
	<path class="st0" d="M6.7,63.6c-0.2-1-1.4-0.7-1.7,0c-1.2,2.9-1.8,6.3-1.8,9.5c-0.1,2.7,4.2,2.7,4.2,0C7.5,69.9,7.3,66.6,6.7,63.6z
		"/>
	<path class="st0" d="M73.2,36.5c-0.1-3.8,0.1-9.7-2.6-12.6c-0.7-0.8-2.3-0.7-2.8,0.4c-0.9,1.8-0.8,3.6-0.7,5.6
		c0.1,1.8,0.1,3.6,0.1,5.4c-0.6-0.1-1.2-0.3-1.8-0.5c-0.2-0.1-0.4,0.2-0.3,0.3c0.6,0.9,1.3,1.6,2.1,2.1c0.4,1.8,2.3,2.5,3.9,2.1
		c0.1,0.1,0.2,0.1,0.2,0.2c0.9,0.8,0.9,1.6,1.1,2.8c0.4,2.2,3.9,2.1,4.3,0C77.3,39.6,75.4,37.5,73.2,36.5z"/>
	<g>
		<g>
			<path d="M17.2,45c0,0-0.1,0-0.1,0c-0.6-0.1-1-0.6-1-1.2c0-0.5,0.1-0.9,0.1-1.3c0-2.9-2.1-5.8-4.5-9.2C8.6,28.9,5,23.8,5,17
				c0-5.3,2-9.7,5.7-12.8C14,1.5,18.4,0,23,0c4,0,8.5,1.2,12.4,2.4C38,3.1,40.5,3.8,42.6,4c0.3,0,0.6,0.2,0.8,0.5
				c0.2,0.3,0.2,0.6,0.1,0.9c-1.9,5.6-5,10.4-9.1,14c-0.7,0.6-1.8,0.7-2.9,0.7c-2.3,0.1-3.3,0.3-3.3,2.4c0,1.8,1.6,2.9,2.9,3.4
				c0.4,0.1,0.6,0.4,0.7,0.8c0.1,0.4-0.1,0.8-0.4,1c-3.2,2.6-4.7,5.1-4.7,7.6c0,0.4,0,0.8,0.1,1.2c0.1,0.6-0.3,1.1-0.8,1.2
				c-0.6,0.1-1.1-0.3-1.2-0.8c-0.1-0.5-0.2-1.1-0.2-1.6c0-2.8,1.4-5.5,4.2-8.1c-1.7-1.1-2.8-2.8-2.8-4.6c0-4.3,3.5-4.4,5.3-4.5
				c0.6,0,1.4-0.1,1.6-0.2c3.5-3.1,6.2-7.2,8-11.9c-1.9-0.3-4-0.9-6.1-1.5c-4-1.1-8.1-2.3-11.8-2.3c-7.7,0-16,4.7-16,14.9
				c0,6.1,3.4,10.9,6.4,15c2.5,3.5,4.9,6.8,4.9,10.4c0,0.5,0,1-0.1,1.5C18.2,44.6,17.8,45,17.2,45z"/>
		</g>
		<g>
			<path d="M29.3,45.1c-0.5,0-0.9-0.4-1-0.9c-0.1-0.3-0.1-0.8-0.1-1.4c0-2.6,2.4-3.8,4.9-5.1c3.2-1.7,6.9-3.5,6.9-8.5
				c0-0.1-0.1-0.2-0.2-0.4c-0.6-1.7-2.3-6.2-2.3-10.9c0-0.8,0-1.6,0-2.4c0-0.8,0-1.6,0-2.4c0-0.6,0.5-1.1,1.1-1.1
				c0.6,0,1.1,0.5,1.1,1.1c0,0.8,0,1.6,0,2.4c0,0.8,0,1.6,0,2.4c0,4.3,1.6,8.5,2.1,10.1c0.2,0.6,0.3,0.8,0.3,1
				c0,6.4-4.7,8.8-8.1,10.5c-2.3,1.2-3.8,2-3.8,3.2c0,0.3,0,0.6,0.1,1c0.1,0.6-0.3,1.1-0.9,1.2C29.4,45.1,29.3,45.1,29.3,45.1z"/>
		</g>
		<g>
			<path d="M1.3,74c-0.5,0-1-0.4-1.1-1C0.1,71.7,0,70.4,0,69c0-6.4,1.6-12.6,4.6-17.2c0.3-0.5,1-0.6,1.5-0.3c0.5,0.3,0.6,1,0.3,1.5
				C3.6,57.3,2.1,63,2.1,69c0,1.3,0.1,2.6,0.2,3.8C2.4,73.4,2,74,1.4,74C1.3,74,1.3,74,1.3,74z"/>
		</g>
		<g>
			<path d="M42.1,51.3c-0.2,0-0.5-0.1-0.6-0.2c-4.2-3.2-10.1-6.8-19.6-6.8c-2.4,0-4.7,0.4-6.8,1.3c-0.5,0.2-1.2,0-1.4-0.6
				c-0.2-0.5,0-1.2,0.6-1.4c2.3-0.9,4.9-1.4,7.6-1.4c10.1,0,16.4,3.9,20.9,7.2c0.5,0.4,0.6,1,0.2,1.5C42.7,51.2,42.4,51.3,42.1,51.3
				z"/>
		</g>
		<g>
			<path d="M63.7,63.9c-4,0-7.6-1.2-11.5-4c-0.5-0.3-0.6-1-0.3-1.5c0.3-0.5,1-0.6,1.5-0.3c3.5,2.5,6.7,3.6,10.3,3.6
				c4.8,0,6.7-1.6,10.6-4.8c1.4-1.2,3-2.5,5-4c0.5-0.3,1.1-0.2,1.5,0.2c0.3,0.5,0.2,1.1-0.2,1.5c-2,1.5-3.5,2.8-4.9,3.9
				C71.6,62,69.2,63.9,63.7,63.9z"/>
		</g>
		<g>
			<path d="M59,63.3c-0.5,0-1-0.4-1.1-1c-0.1-1.3-0.5-2.5-3.5-2.5c-0.1,0-0.2,0-0.4,0.1c-4.7,0.8-9.2,1.3-13.2,1.3
				c-0.4,0-37.5-0.5-37.5-11.7c0-5.3,7.6-8,9.4-8c0.4,0,0.7,0.2,0.9,0.6c0,0.1,4.4,7.2,25.9,7.2c8.1,0,13.8-2.1,18.7-4
				c3.9-1.5,7.2-2.8,11-2.8c1.6,0,3.2,0.2,4.7,0.3c1,0.1,2,0.2,3,0.3c0.6,0,1,0.5,1,1.1c0,0.6-0.5,1-1.1,1c-1-0.1-2.1-0.2-3.1-0.3
				c-1.5-0.2-3-0.3-4.5-0.3c-3.4,0-6.6,1.2-10.3,2.6c-5.1,2-10.9,4.2-19.5,4.2c-19.5,0-25.7-5.7-27.3-7.7c-1.8,0.4-6.8,2.5-6.8,5.8
				c0,7.2,26.3,9.5,35.4,9.5c3.9,0,8.3-0.4,12.9-1.2c0.5-0.1,0.6-0.1,0.7-0.1c3.5,0,5.4,1.4,5.7,4.4c0.1,0.6-0.4,1.1-0.9,1.2
				C59.1,63.3,59.1,63.3,59,63.3z"/>
		</g>
		<g>
			<path d="M11.5,56.9c-0.1,0-0.3,0-0.4-0.1c-0.5-0.2-0.8-0.9-0.6-1.4c0.8-2,2.2-3.4,3.5-4.9c1.1-1.2,2-2.2,2.7-3.5
				c0.3-0.5,0.9-0.7,1.4-0.4c0.5,0.3,0.7,0.9,0.4,1.4c-0.8,1.5-2,2.8-3,4c-1.2,1.4-2.4,2.6-3.1,4.3C12.3,56.6,11.9,56.9,11.5,56.9z"
				/>
		</g>
		<g>
			<path d="M59.1,79.7c-0.6,0-1.1-0.5-1.1-1.1V73c0-0.6,0.5-1.1,1.1-1.1c0.6,0,1.1,0.5,1.1,1.1v5.7C60.2,79.2,59.7,79.7,59.1,79.7z"
				/>
		</g>
		<g>
			<path d="M40.8,77.8c0,0-0.1,0-0.1,0c-0.6-0.1-1-0.6-0.9-1.2c0-0.2,0-0.5,0-0.8c0-0.8-0.1-1.7-0.2-2.7c-0.1-1.1-0.2-2.3-0.2-3.4
				c0-3.2,1.2-4.9,3.7-4.9c2.4,0,4.3,1.2,6.4,2.4c2.8,1.7,5.9,3.6,11.3,3.6c15.8,0,32.6-14.9,32.7-22.9c-0.3-0.6-2.7-2.3-4.6-2.3
				c-1.5,0-1.9,1-2.4,3.2c-0.3,1.5-0.7,3.3-2.6,3.3c-0.2,0-0.5-0.1-0.7-0.2c-0.8-0.7-1.1-1.6-1.3-2.5c-0.3-0.8-0.4-1.2-0.6-1.2
				c-0.9,0-1.8,0.9-1.8,2.2c0,0.8,0.2,1,0.4,1.3c0.3,0.4,0.8,1,0.8,2.2c0,0.6-0.5,1.1-1.1,1.1s-1.1-0.5-1.1-1.1
				c0-0.5-0.1-0.6-0.3-0.9c-0.5-0.6-0.9-1.2-0.9-2.7c0-2.6,2.1-4.3,4-4.3c1.8,0,2.3,1.6,2.6,2.7c0.1,0.2,0.1,0.5,0.2,0.7
				c0.1-0.4,0.2-0.8,0.3-1.1c0.4-1.8,1.1-4.8,4.5-4.8c2.6,0,6.7,2.3,6.7,4.3c0,9.9-18.7,25.1-34.8,25.1c-6,0-9.6-2.1-12.4-3.9
				C46.4,67.9,44.8,67,43,67c-0.6,0-1.5,0-1.5,2.8c0,1,0.1,2.1,0.2,3.1c0.1,1.1,0.2,2.1,0.2,3c0,0.4,0,0.7-0.1,1.1
				C41.8,77.4,41.3,77.8,40.8,77.8z M93.4,48L93.4,48L93.4,48z"/>
		</g>
		<g>
			<path d="M81.8,64.7c-0.2,0-0.4-0.1-0.6-0.2c-3-2.3-5.5-5.3-5.5-6.8c0-0.3,0.1-0.5,0.2-0.8c0.3-0.5,0.9-0.7,1.4-0.5
				c0.5,0.2,0.7,0.8,0.5,1.3c0.2,0.6,1.7,2.8,4.6,5c0.5,0.4,0.6,1,0.2,1.5C82.4,64.6,82.1,64.7,81.8,64.7z"/>
		</g>
		<g>
			<path d="M83.2,45c-0.5,0-0.9-0.3-1-0.8c-0.3-1-0.4-2.1-0.4-3.1c0-4.3,3.1-7.4,6.3-10.6c3.6-3.6,7.3-7.2,7.3-13
				c0-9.8-6.1-14.1-19.6-14.1c-4.1,0-8.3,0.4-13.8,1.4c0.8,1.8,1.1,3.8,1.1,5.9c0,5.5-2.6,10.7-5,14.4c0.8,0.7,1.6,1.9,1.6,4.4
				c0,0.3,0,0.5,0,0.8c0,0.2,0,0.5,0,0.7c0,3.9,2.2,4.6,4.9,5.5c2.6,0.8,5.9,1.9,5.9,6.6c0,0.6-0.5,1.1-1.1,1.1
				c-0.6,0-1.1-0.5-1.1-1.1c0-3-1.6-3.7-4.5-4.6c-2.9-0.9-6.4-2-6.4-7.5c0-0.3,0-0.5,0-0.8c0-0.3,0-0.5,0-0.8c0-2.6-1.1-3-1.2-3
				c-0.5-0.1-0.8-0.5-0.8-1c0-0.2,0.1-0.5,0.2-0.6c2.4-3.5,5.2-8.7,5.2-14.1c0-2.2-0.5-4.3-1.5-6.2c-0.2-0.3-0.2-0.7,0-1
				C59.7,3.3,60,3.1,60.4,3c6.2-1.2,11-1.7,15.5-1.7c14.6,0,21.8,5.3,21.8,16.2c0,6.7-4.2,10.9-8,14.5c-3.1,3-5.7,5.6-5.7,9.1
				c0,0.8,0.1,1.7,0.3,2.6c0.1,0.6-0.2,1.1-0.8,1.3C83.4,45,83.3,45,83.2,45z"/>
		</g>
		<g>
			<path d="M101.3,76.2c-0.6,0-1-0.4-1.1-1c-0.1-1.4-0.1-2.8-0.2-4.1c-0.2-7.4-0.4-15-5.9-20.2c-0.4-0.4-0.5-1.1-0.1-1.5
				c0.4-0.4,1.1-0.5,1.5-0.1c6.2,5.7,6.4,14.2,6.6,21.7c0,1.4,0.1,2.7,0.2,4.1C102.4,75.6,101.9,76.1,101.3,76.2
				C101.3,76.2,101.3,76.2,101.3,76.2z"/>
		</g>
		<g>
			<path d="M77.8,38.1c-2.1,0-4.2-0.9-6.1-1.8c-0.5-0.2-0.7-0.8-0.5-1.4c0.3-0.8,0.5-1.7,0.5-2.6c0-1.5-0.4-3.1-1.1-4.9
				c-0.1-0.1-0.1-0.3-0.1-0.4c0-0.4,0.2-0.8,0.6-0.9c0.1,0,1.7-0.9,1.7-2.1c0-0.8-0.6-3.3-3.3-3.3c-1.2,0-1.6,0.2-1.8,0.3
				c-0.6,0.3-1,0.1-1.3,0c-0.4-0.3-0.5-0.7-0.4-1.2c0-0.2,0.1-0.6,0.1-1.4c0-2.6-1.3-4.8-3.7-6.1c-0.5-0.3-0.7-0.9-0.4-1.4
				c0.3-0.5,0.9-0.7,1.4-0.4c3,1.7,4.8,4.6,4.8,8c0,0.1,0,0.2,0,0.3c0.3,0,0.7-0.1,1.2-0.1c3.8,0,5.4,3.2,5.4,5.4
				c0,1.7-1.2,2.8-2,3.5c0.7,1.7,1,3.4,1,4.9c0,0.9-0.1,1.7-0.3,2.5c1.4,0.7,2.9,1.2,4.3,1.2c0.6,0,1.2-0.1,1.8-0.3
				c0.5-0.2,1.2,0.1,1.4,0.6c0.2,0.5-0.1,1.2-0.6,1.4C79.5,37.9,78.7,38.1,77.8,38.1z"/>
		</g>
		<g>
			<path d="M57.7,23.1c-0.1,0-0.1,0-0.2,0c-0.6-0.1-1-0.6-0.9-1.2c0-0.1,0-0.1,0-0.2c0-0.3-0.1-0.7-0.3-1.1c-0.2-0.5-0.3-1-0.3-1.6
				c0-1.3,0.9-2.3,2.2-2.3c0.7,0,1.2,0.5,2.4,2.4l0,0.1c0.3,0.5,0.2,1.1-0.3,1.5c-0.5,0.3-1.1,0.2-1.5-0.3l0-0.1
				c-0.3-0.5-0.5-0.8-0.7-1c0,0.2,0.1,0.5,0.2,0.8c0.2,0.5,0.4,1.1,0.4,1.8c0,0.2,0,0.3,0,0.5C58.7,22.7,58.2,23.1,57.7,23.1z"/>
		</g>
		<g>
			<path d="M69.4,19.7C69.4,19.7,69.3,19.7,69.4,19.7c-1.9-0.1-3.8-0.4-5.6-0.6c-1.8-0.2-3.7-0.5-5.4-0.6c-0.6,0-1-0.5-1-1.1
				c0-0.6,0.5-1,1.1-1c1.8,0.1,3.7,0.4,5.5,0.6c1.8,0.2,3.7,0.5,5.4,0.6c0.6,0,1,0.5,1,1.1C70.4,19.3,69.9,19.7,69.4,19.7z"/>
		</g>
		<g>
			<path d="M7.6,74.8c-0.5,0-0.9-0.3-1-0.8c-0.7-2.8-0.8-5.5-0.8-8.1c0-0.7,0-1.3,0-2c0-0.6,0-1.3,0-1.9c0-0.6,0.5-1.1,1.1-1.1
				s1.1,0.5,1.1,1.1c0,0.7,0,1.3,0,2c0,0.6,0,1.3,0,1.9c0,2.4,0.1,5,0.8,7.5c0.2,0.6-0.2,1.1-0.8,1.3C7.8,74.8,7.7,74.8,7.6,74.8z"
				/>
		</g>
		<g>
			<path d="M93.3,76.9c-0.1,0-0.2,0-0.3,0c-0.6-0.1-0.9-0.7-0.8-1.3c0.4-1.5,0.6-3.2,0.6-5c0-2.3-0.3-4.7-0.6-7.1
				c-0.1-0.6,0.3-1.1,0.9-1.2c0.6-0.1,1.1,0.3,1.2,0.9c0.3,2.4,0.6,4.9,0.6,7.3c0,2-0.2,3.8-0.6,5.5C94.2,76.6,93.7,76.9,93.3,76.9z
				"/>
		</g>
	</g>
</g>
</svg>
