<?xml version="1.0" encoding="utf-8"?>
<!-- Generator: Adobe Illustrator 21.1.0, SVG Export Plug-In . SVG Version: 6.00 Build 0)  -->
<svg version="1.1" id="lineart" xmlns="http://www.w3.org/2000/svg" xmlns:xlink="http://www.w3.org/1999/xlink" x="0px" y="0px"
	 viewBox="0 0 99.5 100.9" style="enable-background:new 0 0 99.5 100.9;" xml:space="preserve">
<style type="text/css">
	.st0{fill:#E55A2F;}
</style>
<g>
	<g>
		<g>
			<path class="st0" d="M51.7,49.3c-1.2-1.9-3.3-3.4-5.4-3.9c-1.9-0.4-4.3,0.4-5.1,2.2c-0.2,0.1-0.3,0.2-0.5,0.2
				c-1.8,1-3,2.9-3.1,4.9c-0.1,4.3,4.2,7.7,8.3,7.1C50.5,59.1,54.5,53.6,51.7,49.3z M45.6,53.1c-0.4,0.4-0.6,0.5-1.1,0.5
				c-1-0.1-1.6-0.9-1.6-1.8c0-0.1,0-0.2,0-0.2c1.2,0.2,2.2,0.3,3.1,1.1C45.9,52.8,45.8,52.9,45.6,53.1z"/>
		</g>
		<g>
			<path class="st0" d="M98.7,14.6c-0.8-1.3-2.3-1.8-3.7-1.4c0.1-0.1,0.1-0.2,0.1-0.3c0.1-0.5-0.2-1-0.7-1.2
				c-0.3-0.1-0.6-0.2-0.9-0.3c-0.5-0.2-1,0.2-1.2,0.7c-0.1,0.5,0.2,1,0.7,1.2c0.3,0.1,0.6,0.2,0.9,0.3c0,0,0.1,0,0.1,0
				c-0.4,0.2-0.7,0.6-0.9,1c-3.1,5.7-9,7.8-14.8,9.7c-4.6,1.5-10.2,3-13.3,6.9c-2.5-2.6-5.8-4.6-9.2-5.8c-11.5-4.1-24.7,2.3-31,12.2
				c-0.1-0.3-0.5-0.4-0.8-0.2c-7.4,7.1-9.4,22.2-3.3,30.6c6.9,9.5,20.2,13.8,31.5,10.7c11.6-3.3,18.5-13.1,18.9-24.9
				c0.2-6.1-0.1-12.7-2.9-18.2c-0.6-1.1-1.2-2.1-2-3c2.8-0.4,5.6-1,8.4-1.5c4-0.6,8.2-1.1,12-2.5C91.4,27,102.6,21,98.7,14.6z
				 M24.3,39.9c0.1,0.2,0.2,0.4,0.4,0.6c-0.3,0.4-0.5,0.8-0.8,1.2C24.1,41.1,24.2,40.5,24.3,39.9z M57.7,62.4
				c-5.6,8.1-16,8.7-24.2,4.6c-4.9-2.5-8.5-5.4-9.7-10.6c0.9,0,1.7-0.5,2.1-1.6c1.7-5,1.8-12.4,5.4-16.8c7.1-4.9,15.9-8.1,23.8-2.5
				c4.2,3,5.5,7.6,5.5,12.5C60.7,52.8,60.6,58.3,57.7,62.4z"/>
		</g>
		<g>
			<path class="st0" d="M91.3,57.5c2.1-11-0.1-22.8-6.7-32c-1.9-2.7-6.2-0.7-5.5,2c-0.6,0.2-1.1,0.7-1.3,1.3
				c-0.8,2.2,0.4,3.6,1.3,5.6c1.2,2.4,2,4.9,2.6,7.5c1.1,4.7,1.1,9.7,0,14.4c-2.1,9.3-8,17.3-15.6,22.9c-8.5,6.3-18.8,9.5-29.4,9.3
				c-4.6-0.1-9-1.1-13.2-2.9c-2.2-0.9-4.3-2.1-6.2-3.4c-1.8-1.2-3.5-2.8-5.5-3.6c-0.2-0.1-0.3,0-0.4,0.2c-1.4-2.1-2.7-4.3-4.2-6.4
				c-0.2-0.2-0.6-0.2-0.6,0.2c0.8,9.7,6.3,18.4,14.7,23.3c8.2,4.8,18.7,5.7,27.9,4.5C60.2,99,68.5,93.1,75.6,85
				c0.5-0.6,1-1.1,1.5-1.7c2-2.1,3.8-4.4,5.4-6.8C86.6,70.7,90,64.4,91.3,57.5z"/>
		</g>
		<g>
			<path class="st0" d="M80.5,8.2c0.1-1.2,0-2.4-0.5-3.5c-0.9-1.8-3.6-2-4.9-0.6c-5,5.2-5.6,13.2-7.9,19.8c-0.3,1,0.9,1.5,1.6,0.9
				c1.5-1.2,2.8-2.6,3.9-4.2c0.8,0.2,1.8,0,2.6-0.9c2.5-2.9,6.1-6.1,6.4-10.1C81.8,8.8,81.2,8.3,80.5,8.2z"/>
		</g>
		<g>
			<path class="st0" d="M87.8,9.8c-0.8-1-2-1.5-2.7-2.5c-1-1.4-1.2-3.2-1.8-4.8c-0.4-1.2-1.9-1.1-2.4,0c-1.6,4.1-0.9,11.9,4.9,11.9
				C88.4,14.4,89.3,11.5,87.8,9.8z"/>
		</g>
	</g>
	<g>
		<g>
			<g>
				<path d="M42.7,82.1c-19.2,0-27.9-14.4-27.9-27.8c0-14.2,9-26.9,21.4-30.1c2.5-0.7,5.1-1,7.7-1c17.1,0,29.5,12,29.5,28.6
					C73.4,70,61,82.1,42.7,82.1z M36.7,26.3c-11.5,3-19.8,14.8-19.8,28.1C16.9,72,30.3,80,42.7,80C60,80,71.2,69,71.2,51.8
					c0-15.3-11.5-26.5-27.4-26.5C41.4,25.4,39,25.7,36.7,26.3z"/>
			</g>
		</g>
		<g>
			<g>
				<path d="M43.5,71.3c-8.8,0-18.1-6.5-18.1-18.7c0-10.6,9.3-19.6,20-18.8c4.9,0.3,8.9,1.8,11.8,4.3c4.1,3.6,6.2,7.9,6.2,12.7
					C63.4,64.8,51.5,71.3,43.5,71.3z M44.2,35.9c-9,0-16.7,7.7-16.7,16.8c0,10.7,8.2,16.5,15.9,16.5c7.2,0,17.8-5.8,17.8-18.4
					c0-4.2-1.8-7.9-5.5-11.1c-2.5-2.2-6.1-3.5-10.5-3.8C44.9,35.9,44.6,35.9,44.2,35.9z"/>
			</g>
		</g>
		<g>
			<g>
				<path d="M44.1,61.1c-2.8,0-7.9-2.4-7.9-8.1c0-3.6,2.3-6.9,5.7-8.1c0.7-0.2,1.5-0.4,2.4-0.4c4.1,0,8.5,3.1,8.5,7.6
					C52.7,57.3,48.2,61.1,44.1,61.1z M44.3,46.7c-0.6,0-1.2,0.1-1.7,0.3c-2.5,0.8-4.2,3.3-4.2,6c0,4.5,4.3,6,5.8,6
					c3,0,6.5-2.9,6.5-6.7C50.6,49,47.3,46.7,44.3,46.7z"/>
			</g>
		</g>
		<g>
			<g>
				<path d="M41.1,96.3c-3.4,0-6.8-0.4-10-1.3c-6.2-1.6-15.5-7.2-22.2-15.8C3.1,71.8-2.9,59.4,1.6,42.6C6.6,23.7,23.2,9.7,42,8.5
					c4.1-0.3,8.3,0.2,12.5,1.3c5.3,1.4,10.7,4,15.4,7.3c0.5,0.3,0.6,1,0.2,1.5c-0.3,0.5-1,0.6-1.5,0.2c-4.6-3.2-9.7-5.7-14.7-7
					c-4-1.1-8-1.5-11.8-1.2C24.2,11.7,8.4,25.1,3.6,43.1c-4.2,16,1.4,27.7,6.9,34.8c6.4,8.2,15.2,13.5,21.1,15.1
					c10.2,2.7,22.1,0.8,32.6-5.2C75.2,81.4,83,71.6,86,60.2c3-11.4-0.2-23.7-8.9-33.7c-0.4-0.4-0.3-1.1,0.1-1.5
					c0.4-0.4,1.1-0.3,1.5,0.1c9.2,10.5,12.6,23.5,9.4,35.6c-3.2,12-11.3,22.3-22.8,28.9C57.6,94,49.2,96.3,41.1,96.3z"/>
			</g>
		</g>
		<g>
			<g>
				<path d="M67.9,28.6c-0.3,0-0.5-0.1-0.7-0.3c-0.2-0.2-0.3-0.5-0.3-0.8c0.8-15.4,6.3-20.4,13.2-26.7l0.6-0.6
					C81.1,0,81.6-0.1,82,0.2c0.4,0.2,0.6,0.7,0.5,1.2c-0.4,1.4-0.8,3.2-0.8,4.9c0,5.2,4.6,7,8.9,7c1.1,0,2.2-0.1,3.5-0.3
					c0.4-0.1,0.9,0.1,1.1,0.5c0.2,0.4,0.2,0.9-0.1,1.2C89.9,21.2,84,27.3,67.9,28.6C68,28.6,68,28.6,67.9,28.6z M79.8,4
					C74,9.3,69.9,14.1,69.1,26.4c12.6-1.3,18.3-5.8,22.8-11.1c-7.3,0.4-12.2-3.2-12.2-9.1C79.6,5.5,79.7,4.8,79.8,4z"/>
			</g>
		</g>
		<g>
			<g>
				<path d="M43.2,53.7c-0.3,0-0.5-0.1-0.7-0.3c-0.4-0.4-0.4-1.1,0-1.5L67.3,27c0.4-0.4,1.1-0.4,1.5,0c0.4,0.4,0.4,1.1,0,1.5
					L44,53.4C43.8,53.6,43.5,53.7,43.2,53.7z"/>
			</g>
		</g>
		<g>
			<g>
				<path d="M71.1,25c-0.2,0-0.5-0.1-0.7-0.3c-0.4-0.4-0.5-1-0.1-1.5c0.5-0.6,7.2-6.7,12.6-11.8c0.4-0.4,1.1-0.4,1.5,0.1
					c0.4,0.4,0.4,1.1-0.1,1.5c-8.7,8-12.1,11.2-12.4,11.6C71.7,24.9,71.4,25,71.1,25z"/>
			</g>
		</g>
		<g>
			<g>
				<path d="M74.1,16.4c-0.2,0-0.4-0.1-0.6-0.2c-0.5-0.3-0.6-1-0.3-1.5c1.7-2.5,4-4.8,7-7.2c0.5-0.4,1.1-0.3,1.5,0.2
					c0.4,0.5,0.3,1.1-0.2,1.5c-2.8,2.2-5,4.4-6.6,6.7C74.8,16.2,74.5,16.4,74.1,16.4z"/>
			</g>
		</g>
		<g>
			<g>
				<path d="M79.5,21.8c-0.4,0-0.7-0.2-0.9-0.6c-0.3-0.5-0.1-1.2,0.4-1.4c2.8-1.5,5.4-3.6,8-6.5c0.4-0.4,1.1-0.5,1.5-0.1
					c0.4,0.4,0.5,1.1,0.1,1.5c-2.8,3-5.6,5.3-8.5,6.9C79.9,21.7,79.7,21.8,79.5,21.8z"/>
			</g>
		</g>
	</g>
</g>
</svg>
