<?xml version="1.0" encoding="utf-8"?>
<!-- Generator: Adobe Illustrator 21.1.0, SVG Export Plug-In . SVG Version: 6.00 Build 0)  -->
<svg version="1.1" id="lineart" xmlns="http://www.w3.org/2000/svg" xmlns:xlink="http://www.w3.org/1999/xlink" x="0px" y="0px"
	 viewBox="0 0 102.6 96.7" style="enable-background:new 0 0 102.6 96.7;" xml:space="preserve">
<style type="text/css">
	.st0{fill:#E55A2F;}
</style>
<g>
	<g>
		<path class="st0" d="M54.7,50.9c-4,1.8-8.6,1.7-13,2c-4.7,0.3-9.5,0.5-14.2,0.3c-7-0.2-16.7-3.5-23.1,0.3C3.6,54,4,55.1,4.8,55.2
			c4.7,0.1,9,0.3,13.7,1c4.5,0.7,9.1,1,13.7,1c7.8,0,17.2,0.5,24.5-2.8C59.1,53.3,57,49.9,54.7,50.9z"/>
	</g>
	<g>
		<path class="st0" d="M60.1,29.7c-0.2-2.9-1.4-5.9-2.1-8.6c-0.8-3-1.5-6.1-2.8-8.8c-0.2-0.4-0.8-0.2-0.8,0.2
			c-0.2,2.6,0.3,5.2,0.6,7.8c0.2,1.5,0.5,9.1,2,9.8c-2.3-1-4,1.9-2,3.4C57.9,35.5,60.3,32.6,60.1,29.7z"/>
	</g>
	<g>
		<path class="st0" d="M72.4,38.8c-1.1-1-1.9-2.2-2.7-3.4c-0.4-0.7-1.5-0.3-1.3,0.5c0.3,1.6,1.2,3,2,4.4C71.4,42,73.8,40,72.4,38.8z
			"/>
	</g>
	<g>
		<path class="st0" d="M83.2,9.1c-0.6-0.5-1.4,0.1-1.1,0.8c1.9,4.2,1,8.1-1,11.7c-1-0.6-2.6-0.4-2.9,1c-0.3,1.5-0.4,3.1-0.6,4.6
			c-0.2,2,2.7,2.5,3.6,1C84.4,22.8,89.1,14.6,83.2,9.1z"/>
	</g>
	<g>
		<path class="st0" d="M96.3,66.6c0-0.4-0.1-0.7-0.1-1.1c0.3-1.8,0.1-3.7-0.9-5.5c0.8-0.3,1.5-1,1.6-1.9c0.6-6,0.5-15.7-4.3-20.2
			c-0.3-0.3-0.8-0.1-0.8,0.3c-0.2,3.2,1.1,6.5,1.5,9.7c0.3,2.6,0.2,5.2,0,7.7c-0.6,0.5-0.8,1.4-0.4,2.3c0.1,0.3,0.3,0.6,0.4,0.9
			c-0.8,0.3-1.5,1.1-1.3,2.2c0.2,1.7,0.4,3.4,0.6,5.1c-0.5,1.5-1.5,3-2.4,4.3c-0.6,0.9-0.1,1.8,0.7,2.2c-0.3,0.5-0.6,1-1,1.6
			c-0.6,1,0.9,2.2,1.6,1.3c1.2-1.5,2.3-3.1,3.5-4.7c0.8-0.1,1.5-0.6,1.6-1.6c0-0.1,0-0.3,0-0.4c0,0,0.1-0.1,0.1-0.1
			C97.1,68,96.9,67.1,96.3,66.6z"/>
	</g>
	<g>
		<path class="st0" d="M98.8,66.1c-0.4-0.4-0.9,0-0.8,0.5c0.4,2.2,0.2,4.5-1.1,6.3c-0.3,0.5-0.8,0.9-1.2,1.2c-0.6-1-2.4-1.2-3,0
			c-0.5,1-0.8,2-1.1,3.1c-0.6,2,1.8,2.9,3.2,1.8c1.2-1,2.7-1.2,3.8-2.5c0.9-1,1.5-2.2,1.8-3.5C101,70.6,100.6,68,98.8,66.1z"/>
	</g>
	<g>
		<path class="st0" d="M75,82.9c-0.2-1.5-0.8-2.8-1.9-3.8c-0.4-0.4-0.8-0.7-1.3-1c1-2.4,2.4-4.3,2.3-7.3c-0.2-2.8-1.2-5-3.2-7
			c-0.6-0.6-1.5,0.2-1.1,0.9c1.4,2.6,1.8,5.5,0.8,8.3c-0.3,0.8-0.8,1.6-1.2,2.3c-0.8-0.3-1.8-0.1-2.2,0.8c-0.8,1.9-0.5,2.9,0.3,3.7
			c0.2,0.8,1,1.4,1.8,1.5c0.8,0.6,1.6,1.4,1.9,2.7C71.9,86.4,75.4,85.3,75,82.9z"/>
	</g>
	<g>
		<path class="st0" d="M48,90.9c-1-1.3-2-2.6-3.1-3.9c-1.1-2.6-2.6-4.9-4.6-7c0.4-0.1,0.7-0.4,1-0.8c-0.1,0.2,0.4,0.7,1.1,1.2
			c-0.4,1.7,0.6,3.7,3.2,3.6c1.6,0,2.2-1.5,1.8-2.6c0.7-1,0.5-2.6-1-3.2c-1.4-0.5-2.2-1.7-3.3-2.3c1.5-3.9,1.1-8.5-1.4-11.9
			c-0.5-0.7-1.9-0.3-1.6,0.7c1.4,4.1,1.2,8.2-1.4,11.7c-0.3,0.3-0.5,0.6-0.7,0.9c-0.6,1-0.2,2,0.5,2.5c-0.5,0.4-0.7,1.2-0.3,1.7
			c-0.9,0.7-1.3,2.2-0.5,3.2c0.7,0.8,1.3,1.6,2,2.4c0.5,1,0.8,2.1,1.2,3c0.7,1.7,1.4,3.2,2.6,4.5c1.1,1.3,2.9,0.4,3.2-1
			C47.9,93.5,48.8,92.1,48,90.9z"/>
	</g>
	<g>
		<path class="st0" d="M73.2,93.2c-0.5-4.7-3.7-8.9-7.4-11.7c-0.5-0.4-1-0.4-1.4-0.2c-0.3,0-0.5,0.2-0.6,0.4c-0.7,0.6-1,1.6-0.5,2.4
			c2.1,3.5,3.9,7.2,5.6,11c0.6,1.5,2.5,1,3.1-0.2C72.6,94.7,73.3,94.2,73.2,93.2z"/>
	</g>
	<g>
		<path class="st0" d="M100,84.7c-0.7-0.9-1.7-1.7-2.7-2.3c0,0,0-0.1-0.1-0.1c0-0.1,0.1-0.3,0.1-0.4c0.3-1.3-0.5-2.5-1.8-2.8
			c-1.2-0.3-2,0.5-2.2,1.4c-0.1,0-0.2,0-0.3,0.1c-0.2,0-0.4,0.1-0.6,0.3c-1.5-0.1-3,0-4.5,0.4c-2,0.6-1.7,3.9,0.5,3.7
			c1.4-0.1,2.6,0,4,0.3c0.5,0.1,0.9,0,1.3-0.1c0.5,2.3,1,4.7,1.8,7c0.6,2,3.7,1.2,3.2-0.9c0,0,0,0,0,0c0.8-0.1,1.5-0.8,1.6-1.8
			C100.5,87.8,101,86,100,84.7z"/>
	</g>
	<g>
		<path class="st0" d="M68.7,64c-0.8-1.7-3.5-0.9-3.5,0.9c0.1,1.6-0.2,3.1-0.7,4.5c-0.4,0.8-0.9,1.6-1.3,2.3
			C63.1,71.8,63,71.9,63,72c-0.8,1-1.8,1.9-2.9,2.6C58,76,59.9,79.3,62,78c2.3-1.5,4.2-3.5,5.4-5.9C69.2,69.7,70.2,67,68.7,64z"/>
	</g>
	<g>
		<path class="st0" d="M37.9,62.8C37.7,61.7,36,62,36,63.1c0.1,1.8,0.4,4.8-0.1,7.3c-0.4-1.5-2.6-1.5-3.4-0.3c-1.2,2-3.6,5.3-3,7.8
			c0.4,1.7,2.1,2.7,3.7,2.1c0.8-0.3,1.2-0.9,1.3-1.6c0.3-0.2,0.6-0.5,0.8-0.9c0.1-0.2,0.2-0.5,0.3-0.7c0.4-0.3,1.5-0.9,1.8-1.1
			c0.7-0.8,1-1.6,1.1-2.7C38.9,69.6,38.4,66,37.9,62.8z"/>
	</g>
	<g>
		<path class="st0" d="M82.6,46.8c-0.1,0.1-0.3,0.2-0.4,0.4c-0.5,0.4,0.3,1.2,0.7,0.7c0.1-0.1,0.2-0.3,0.4-0.4
			C83.7,47,83,46.4,82.6,46.8z"/>
	</g>
	<g>
		<path class="st0" d="M62.2,44.4c-1.7-1.7-3.4-3.3-5.7-1.4c-1.5,1.2-2.3,2-4.4,1.4c-1.7-0.5-3.1-1.8-4.5-2.7c0,0-0.1,0-0.1,0
			c-0.1-0.2-0.3-0.4-0.6-0.5c-2.6-1.2-4.7-2.7-7-4.4c-0.1-0.1-0.2-0.1-0.3-0.2c-0.4-0.8-1.4-1.2-2.2-0.4c-2.2,2.2-3.9,4.3-6.9,5.2
			c-3.6,1.1-7.2,0.4-10.5-1.2c-0.5-0.2-1.2,0.4-0.6,0.8c5.6,4.5,15.5,4.1,19.6-2.1c1.7,2,4.1,3.8,6.4,4.9c0.7,0.3,1.4,0.1,1.8-0.3
			c1.2,1.9,3,3.5,5.2,4.2c1.1,0.3,2.3,0.4,3.4,0.2c1-0.2,1.8-1.1,2.7-1.6c0.4,0.3,0.7,0.7,1.1,1.1C61.3,48.9,64,46.2,62.2,44.4z"/>
	</g>
	<g>
		<path class="st0" d="M41.1,31.3c-0.4-0.9-1.6-0.7-2.1,0c-0.7,1.1-1.7,1.8-2.9,2.4c-1.2,0.6-0.1,2.3,1,1.7c0.6-0.3,1.2-0.7,1.7-1
			c0.5,0.7,1.6,0.9,2.1,0C41.6,33.4,41.6,32.4,41.1,31.3z"/>
	</g>
	<g>
		<path class="st0" d="M80.5,6.6c-0.5-0.8-1.4-0.9-2-0.7c-0.1,0-0.1-0.1-0.2-0.1c-1.7-0.7-1.9-2.3-3.3-3.1c-1.1-0.6-2.2-0.3-3.4,0
			C68,3.5,64.3,4.9,61.3,7c-0.8,0.6-0.4,2.2,0.8,1.8c3-1.2,6.4-2.9,9.8-3.1c1.6-0.1,1.5,0.8,2.6,1.8c0.8,0.8,1.8,1.3,2.9,1.7
			c0.3,0.1,0.5,0.1,0.8,0.1c1.4,3.4-1.2,5.5-2.7,8.7c-1,2.1-1.3,4.4-0.9,6.7c0.1,0.8,1.5,0.8,1.6,0c0.4-2.1,0.8-4,1.9-5.9
			c1-1.5,2.4-2.8,3.2-4.4C82.4,11.9,82.1,8.9,80.5,6.6z"/>
	</g>
	<g>
		<path d="M17.8,96.7c-0.6,0-1.1-0.5-1.1-1.1c0-0.7-0.1-1.5-0.2-2.3c-0.1-1.2-0.3-2.4-0.3-3.6c0-6.9,5-7.9,8.2-8.6
			c2.8-0.6,3.6-0.9,3.6-2.1c0-0.9-0.4-1.2-2-1.8c-2.2-0.8-5.5-2.1-5.5-8.4c0-8.1,4.9-11.7,9.7-11.7c7,0,10.8,5,10.8,14.1
			c0,3.3-1.3,4.8-2.3,5.9c-0.6,0.7-1,1.1-1,1.7c0,0.3,0.1,0.5,0.1,0.5c6.9,0.3,10.1,6.4,10.1,12.2c0,0.8-0.1,1.5-0.2,2.3
			c-0.1,0.6-0.7,1-1.3,1c-0.6-0.1-1.1-0.7-1-1.3c0.1-0.6,0.1-1.3,0.1-2c0-4.4-2.1-9.7-7.9-10c-1.3-0.1-2.2-1.2-2.2-2.7
			c0-1.5,0.8-2.4,1.5-3.2c0.9-1,1.7-2,1.7-4.4c0-7.8-2.9-11.8-8.6-11.8c-3.4,0-7.4,2.5-7.4,9.5c0,4.7,2,5.5,4.1,6.3
			c1.5,0.6,3.5,1.3,3.5,3.9c0,3.2-3,3.8-5.4,4.3c-3.3,0.7-6.4,1.3-6.4,6.3c0,1.1,0.1,2.3,0.2,3.4c0.1,0.8,0.2,1.6,0.2,2.4
			C18.9,96.1,18.4,96.7,17.8,96.7C17.8,96.7,17.8,96.7,17.8,96.7z"/>
	</g>
	<g>
		<path d="M73.8,91.8c-0.6,0-1.1-0.4-1.1-1c-0.7-6-6.4-9.2-8.5-10.4c-0.9-0.5-1.4-0.8-1.4-1.5c0-1.7,1.2-2.8,2.5-4.1
			c1.7-1.7,3.6-3.6,3.6-7.1c0-6-4.9-9.7-7.6-9.7c-5.5,0-7.9,8.5-7.9,11.7c0,3.3,0.9,3.4,2.2,3.5c1.1,0.1,3.2,0.2,3.2,3.2
			c0,3.6-2.7,4.4-5,5.1c-2.6,0.8-5.1,1.5-6,5.4c-0.1,0.6-0.8,1-1.4,0.8c-0.6-0.1-1-0.8-0.8-1.4c1.2-5.1,4.9-6.2,7.5-7.1
			c2.5-0.8,3.4-1.2,3.4-2.9c0-0.9,0-0.9-1.1-1c-2.1-0.1-4.3-0.7-4.3-5.7c0-2.1,0.7-5.5,2.3-8.5c2-3.6,4.7-5.5,7.8-5.5
			c3.9,0,9.8,4.8,9.8,11.9c0,4.5-2.5,6.9-4.3,8.7c-0.7,0.7-1.4,1.4-1.7,1.9c0,0,0.1,0,0.1,0.1c2.4,1.4,8.7,4.9,9.6,12.1
			c0.1,0.6-0.4,1.2-1,1.3C73.9,91.8,73.9,91.8,73.8,91.8z"/>
	</g>
	<g>
		<path d="M74,95.1c-0.6,0-1-0.4-1.1-1c-0.1-0.6-0.1-1.2-0.1-1.7c0-5.2,3.8-8.4,6.8-11c1.7-1.5,3.3-2.8,3.3-3.9c0-0.5,0-0.8-1-0.8
			c-0.1,0-0.3,0-0.4,0c-0.2,0-0.3,0-0.5,0c-3.3,0-4.5-4.5-4.5-7.6c0-6.9,5.6-13.1,10.1-13.1c7,0,12.4,4.3,12.4,10.1
			c0,4.1-2.5,6.4-4.3,8.1c-1.1,1-2,1.9-2,2.6c0,1.3,0.4,1.5,2.6,1.8c2.9,0.4,7.4,1,7.4,9.5c0,0.6,0,1.2,0,1.8c0,0.6,0,1.2,0,1.7
			c0,0.6-0.5,1.1-1.1,1.1c-0.6,0-1.1-0.5-1.1-1.1c0-0.6,0-1.2,0-1.8c0-0.6,0-1.2,0-1.7c0-6.6-2.6-6.9-5.4-7.3
			c-1.9-0.3-4.6-0.6-4.6-4c0-1.7,1.3-3,2.7-4.3c1.8-1.7,3.6-3.4,3.6-6.5c0-5.1-5.2-7.8-10.1-7.8c-3,0-7.8,5-7.8,10.8
			c0,2.2,0.9,5.3,2.2,5.3c0.1,0,0.3,0,0.4,0c0.2,0,0.3,0,0.5,0c2.9,0,3.3,1.9,3.3,3c0,2.1-1.9,3.7-4.1,5.6c-2.8,2.4-6,5.1-6,9.3
			c0,0.4,0,0.9,0.1,1.4c0.1,0.6-0.3,1.2-1,1.3C74.1,95.1,74.1,95.1,74,95.1z"/>
	</g>
	<g>
		<path d="M28.5,78.2c-0.6,0-1.1-0.5-1.1-1.1c0-0.6,0.5-1.1,1.1-1.1c0.8,0,1.7-0.2,2.6-0.3c1-0.2,2-0.4,3-0.4c0.8,0,1.5,0.1,2.2,0.4
			c0.6,0.2,0.9,0.9,0.7,1.4c-0.2,0.6-0.9,0.9-1.4,0.7c-1.1-0.4-2.6-0.2-4.1,0.1C30.6,78,29.6,78.2,28.5,78.2z"/>
	</g>
	<g>
		<path d="M28.8,82.7c-0.6,0-1.1-0.4-1.1-1c-0.1-0.6,0.4-1.2,1-1.3c1.2-0.1,2.4-0.3,3.5-0.4c1.1-0.1,2.3-0.2,3.5-0.4
			c0.6-0.1,1.2,0.4,1.3,1c0.1,0.6-0.4,1.2-1,1.3c-1.2,0.1-2.4,0.3-3.5,0.4c-1.1,0.1-2.3,0.2-3.5,0.4C28.9,82.7,28.9,82.7,28.8,82.7z
			"/>
	</g>
	<g>
		<path d="M64.3,76.9c-1.3,0-2.5-0.2-3.7-0.3c-0.8-0.1-1.6-0.2-2.3-0.3c-0.6,0-1.1-0.6-1.1-1.2c0-0.6,0.6-1.1,1.2-1.1
			c0.8,0.1,1.7,0.2,2.5,0.3c1.3,0.2,2.7,0.4,4.1,0.3c0.6,0,1.2,0.4,1.2,1.1c0,0.6-0.4,1.2-1.1,1.2C64.8,76.9,64.5,76.9,64.3,76.9z"
			/>
	</g>
	<g>
		<path d="M56.8,81.5c-0.6,0-1.1-0.5-1.1-1.1s0.5-1.1,1.1-1.1c2.4,0,4.9,0,7.3-0.3c0.6-0.1,1.2,0.4,1.3,1c0.1,0.6-0.4,1.2-1,1.3
			C61.9,81.5,59.3,81.5,56.8,81.5z"/>
	</g>
	<g>
		<path d="M85,77.7c-0.6,0-1.1-0.5-1.1-1.1c0-0.6,0.4-1.2,1.1-1.2c1.2-0.1,2.3-0.1,3.5-0.1c1.1,0,2.2-0.1,3.4-0.1
			c0.6,0,1.2,0.4,1.2,1.1c0,0.6-0.4,1.2-1.1,1.2c-1.2,0.1-2.3,0.1-3.5,0.1C87.4,77.6,86.2,77.7,85,77.7C85.1,77.7,85,77.7,85,77.7z"
			/>
	</g>
	<g>
		<path d="M85.4,82.1c-0.7,0-1.4,0-2.1-0.2c-0.6-0.1-1-0.7-0.9-1.3c0.1-0.6,0.7-1,1.3-0.9c0.5,0.1,1.1,0.1,1.7,0.1
			c1.2,0,2.3-0.1,3.5-0.3c0.9-0.1,1.9-0.2,2.9-0.3c0.6,0,1.2,0.4,1.2,1.1c0,0.6-0.4,1.2-1.1,1.2c-0.9,0-1.8,0.2-2.7,0.3
			C88,81.9,86.7,82.1,85.4,82.1z"/>
	</g>
	<g>
		<path d="M56.7,70.3c-0.1,0-0.2,0-0.3,0c-0.6-0.2-1-0.8-0.8-1.4c0.2-0.6,0.6-1.1,0.9-1.5c0.2-0.3,0.5-0.6,0.5-0.7
			c0-0.7-1-1.4-1.9-2c-0.4-0.3-0.8-0.5-1.1-0.8c-0.5-0.4-0.5-1.1-0.1-1.6c0.4-0.5,1.1-0.5,1.6-0.1c0.2,0.2,0.5,0.4,0.9,0.6
			c1.2,0.8,2.9,2,2.9,3.9c0,1-0.6,1.7-1,2.2c-0.2,0.2-0.4,0.5-0.5,0.6C57.6,70,57.2,70.3,56.7,70.3z"/>
	</g>
	<g>
		<path d="M86.6,75.9c-0.4,0-0.9-0.3-1-0.7c-0.1-0.3-2.1-7.5-2.1-8.6c0-0.8-1.2-1.5-2.4-2.2c-0.6-0.3-1.2-0.7-1.7-1.1
			c-0.5-0.4-0.6-1.1-0.2-1.6c0.4-0.5,1.1-0.6,1.6-0.2c0.4,0.3,1,0.6,1.5,0.9c1.6,0.9,3.5,2,3.5,4.1c0.1,0.8,1.7,7.1,1.9,7.8
			c0.2,0.6-0.1,1.2-0.7,1.5C86.9,75.9,86.8,75.9,86.6,75.9z"/>
	</g>
	<g>
		<path d="M3.1,48.6c-0.6,0-1.1-0.5-1.1-1.1v-0.1c0-0.3,0-0.5,0-0.8C1.3,34.4,0.5,20.5,0.5,7.1l0-1c0-0.3,0.1-0.6,0.3-0.8
			c0.2-0.2,0.5-0.3,0.8-0.3C7.9,5,14.2,5.2,20.3,5.3C28.7,5.5,37.4,5.8,46,5.8c2.3,0,4.6,0,6.7,0c0.6,0,1.1,0.5,1.2,1.1
			c0.2,3,0.3,5.9,0.4,8.9c0.2,4.7,0.4,9.6,0.7,14.3c0,0.6-0.4,1.2-1.1,1.2c-0.6,0-1.2-0.4-1.2-1.1c-0.3-4.7-0.5-9.6-0.7-14.4
			c-0.1-2.6-0.2-5.2-0.4-7.8c-1.8,0-3.7,0-5.7,0c-8.6,0-17.3-0.2-25.8-0.4C14.5,7.5,8.6,7.3,2.8,7.2c0,13.3,0.8,27.1,1.4,39.3
			c0,0.3,0,0.6,0,0.9v0.1C4.2,48.1,3.7,48.6,3.1,48.6z"/>
	</g>
	<g>
		<path d="M56.6,53.4c-2.5-0.1-5.1-0.1-7.6-0.2c-11.2-0.3-22.8-0.6-34.1-0.6c-4.9,0-9.4,0.1-13.7,0.2c-0.3,0-0.6-0.1-0.8-0.3
			C0.1,52.3,0,52,0,51.7c0-1.4,0-2.8,0-4.1c0-0.6,0.5-1.1,1.1-1.1c4,0,8.1,0.1,12,0.1c4,0,8.2,0.1,12.3,0.1c7.3,0,11.7-0.2,15.6-0.3
			c3.1-0.1,5.7-0.2,9.2-0.2c2.2,0,4.2,0.1,6.1,0.2c0.6,0,1,0.5,1.1,1.1c0,0.9,0.1,1.8,0.2,2.6c0.1,0.8,0.1,1.6,0.2,2.3
			c0,0.3-0.1,0.6-0.3,0.9C57.2,53.3,56.9,53.4,56.6,53.4z M14.9,50.4c11.4,0,23,0.3,34.2,0.6c2.1,0.1,4.2,0.1,6.3,0.2
			c0-0.4,0-0.7-0.1-1.1c0-0.5-0.1-1.1-0.1-1.6c-1.6-0.1-3.2-0.1-5-0.1c-3.5,0-6.1,0.1-9.1,0.2c-3.9,0.2-8.3,0.3-15.7,0.3
			c-4.1,0-8.3-0.1-12.3-0.1c-3.5,0-7.2-0.1-10.8-0.1c0,0.6,0,1.2,0,1.9C6.3,50.4,10.4,50.4,14.9,50.4z"/>
	</g>
	<g>
		<path d="M5.6,82.5c-0.2,0-0.3,0-0.5-0.1c-0.6-0.3-0.8-0.9-0.6-1.5c1.8-3.9,3.5-7.7,5.3-11.6c2.6-5.7,5.2-11.6,7.9-17.3
			c0.3-0.6,0.9-0.8,1.5-0.5c0.6,0.3,0.8,0.9,0.5,1.5c-2.7,5.6-5.3,11.5-7.9,17.2c-1.7,3.9-3.5,7.7-5.3,11.6
			C6.4,82.3,6,82.5,5.6,82.5z"/>
	</g>
	<g>
		<path d="M29.7,58.9c-0.6,0-1.1-0.5-1.1-1.1v-4.7c0-0.6,0.5-1.1,1.1-1.1c0.6,0,1.1,0.5,1.1,1.1v4.7C30.8,58.4,30.3,58.9,29.7,58.9z
			"/>
	</g>
	<g>
		<path d="M45.5,68c-0.4,0-0.8-0.2-1-0.5c-2.8-4.5-5.4-9.1-6.9-14.2c-0.2-0.6,0.2-1.2,0.8-1.4c0.6-0.2,1.2,0.2,1.4,0.8
			c1.5,4.9,4,9.3,6.7,13.7c0.3,0.5,0.2,1.2-0.4,1.6C45.9,67.9,45.7,68,45.5,68z"/>
	</g>
	<g>
		<path d="M25.2,43.5c-4.2,0-8.5-1.9-11.7-5c-3.1-3.1-4.8-7-4.7-11.2c0.1-8.3,7.1-15.2,15.7-15.5c0.2,0,0.4,0,0.6,0
			c7.2,0,13,3.8,15.2,9.7c0.2,0.6-0.1,1.2-0.7,1.5c-0.6,0.2-1.2-0.1-1.5-0.7c-1.8-5.1-6.8-8.2-13-8.3c-0.2,0-0.3,0-0.5,0
			c-7.4,0.2-13.4,6.2-13.5,13.2c0,3.5,1.4,6.9,4.1,9.5c2.9,2.8,6.7,4.5,10.4,4.4c3.7-0.1,7.2-1.7,9.7-4.5c0.4-0.5,1.1-0.5,1.6-0.1
			c0.5,0.4,0.5,1.1,0.1,1.6c-2.9,3.2-7.1,5.1-11.4,5.2C25.4,43.5,25.3,43.5,25.2,43.5z"/>
	</g>
	<g>
		<path d="M46.4,13.7h-3.9c-0.6,0-1.1-0.5-1.1-1.1c0-0.6,0.5-1.1,1.1-1.1h3.9c0.6,0,1.1,0.5,1.1,1.1C47.5,13.2,47,13.7,46.4,13.7z"
			/>
	</g>
	<g>
		<path d="M46.8,17.9c-0.7,0-1.4,0-2-0.1c-0.7,0-1.3-0.1-1.9-0.1c-0.6,0-1.1-0.5-1.1-1.1c0-0.6,0.5-1.1,1.1-1.1c0.7,0,1.4,0,2,0.1
			c0.7,0,1.3,0.1,1.9,0.1c0.6,0,1.1,0.5,1.1,1.1C47.9,17.4,47.4,17.9,46.8,17.9z"/>
	</g>
	<g>
		<path d="M47.5,21.5h-4.3c-0.6,0-1.1-0.5-1.1-1.1c0-0.6,0.5-1.1,1.1-1.1h4.3c0.6,0,1.1,0.5,1.1,1.1C48.6,21,48.1,21.5,47.5,21.5z"
			/>
	</g>
	<g>
		<path d="M62.5,53.8c-0.6,0-1.1-0.5-1.1-1.1c0-0.7,0-1.4,0-2.2c0-0.7,0-1.4,0-2.2c0-1.4,0-3-0.1-4.7c-1.4,0.3-2.7,0.3-3.8,0.3
			c-4.9,0-13.7-0.7-17.7-5.5c-1-1.2-2.5-1.7-4.1-2.2c-3-1-6.4-2.2-6.4-8.7c0-0.3,0-0.6,0-0.9l0-0.2c0-0.5,0.3-0.9,0.8-1.1
			c1.1-0.4,2.1-0.6,3.3-0.6c4.1,0,7.4,2.5,8.3,6.1c4.6,0.1,8.7,2,12.7,3.8c6.6-4.4,10.4-5.4,12.4-5.9c1.5-0.4,1.5-0.4,1.5-1.8
			c0-0.6-0.1-0.7-1.2-1.1c-2.4-0.9-4.7-2.4-4.7-8.5c0-3.9,0.5-6.7,1.7-8.7c0.3-0.5,1-0.7,1.6-0.4c0.5,0.3,0.7,1,0.4,1.6
			c-0.9,1.6-1.4,4.1-1.4,7.6c0,5.1,1.6,5.7,3.2,6.4c1.1,0.4,2.6,1.1,2.6,3.2c0,2.9-0.9,3.4-3.2,4c-2,0.5-5.6,1.5-12.2,6
			c-0.3,0.2-0.8,0.3-1.1,0.1l-0.6-0.3c-4-1.9-8.2-3.8-12.7-3.6c-0.6,0-1.1-0.4-1.2-1C39,28.6,35.9,27,33.2,27
			c-0.6,0-1.2,0.1-1.7,0.2c0,0.1,0,0.2,0,0.2c0,4.9,2.1,5.6,4.9,6.5c1.7,0.6,3.6,1.2,5.1,2.9c3.6,4.3,12.4,4.7,16,4.7
			c1.2,0,2.7,0,4.6-0.5c0.3-0.1,0.7,0,0.9,0.2c0.3,0.2,0.4,0.5,0.5,0.8c0.2,2.2,0.2,4.3,0.2,6.1c0,0.7,0,1.5,0,2.2
			c0,0.7,0,1.4,0,2.1C63.6,53.3,63.1,53.8,62.5,53.8z"/>
	</g>
	<g>
		<path d="M73.1,63.2c-0.5,0-1-0.4-1.1-0.9c-3.4-16.1-0.9-19.2,2.6-23.5c1.3-1.6,2.7-3.3,4-6.1c0.3-0.6,0.9-0.8,1.5-0.6
			c0.6,0.3,0.8,0.9,0.6,1.5c-1.4,3-2.9,4.9-4.3,6.6c-3.2,4-5.3,6.6-2.1,21.6c0.1,0.6-0.3,1.2-0.9,1.3C73.3,63.2,73.2,63.2,73.1,63.2
			z"/>
	</g>
	<g>
		<path d="M82.3,15C82.3,15,82.3,15,82.3,15c-3.2-0.1-6-2.1-7.2-5c-2.2,0.1-4.5,0.2-7.4,0.2c-1.5,0-3.1,0-4.6,0c-1.2,0-2.3,0-3.5,0
			c-0.4,0-0.8-0.2-1-0.6c-0.2-0.3-0.2-0.8,0-1.1C61.5,3.1,66.3,0,71.5,0c8,0,12.3,5.9,12.3,11.7c0,0.8-0.1,1.7-0.3,2.4
			C83.3,14.6,82.8,15,82.3,15z M76,7.6c0.5,0,1,0.3,1.1,0.9c0.5,2.1,2.3,3.7,4.3,4.1c0-0.3,0.1-0.6,0.1-0.9c0-6.2-5-9.4-10-9.4
			c-3.8,0-7.3,2-9.7,5.5c0.5,0,1,0,1.5,0c1.5,0,3,0,4.6,0C71,7.8,73.5,7.8,76,7.6C75.9,7.6,75.9,7.6,76,7.6z"/>
	</g>
	<g>
		<path d="M91.2,56.2c-0.6,0-1.1-0.4-1.1-1c-0.1-1.2-0.2-2.4-0.2-3.9c0-1,0-2,0.1-3.1c0-1,0.1-2,0.1-3c0-10.7-5.5-12.5-9.8-13.9
			c-2.5-0.8-5.1-1.7-5.1-4.5c0-2.9,1.7-5.2,3.3-7.4c1.4-1.9,2.8-3.8,2.9-5.9c0-0.6,0.6-1.1,1.2-1.1c0.6,0,1.1,0.5,1.1,1.2
			c-0.1,2.8-1.7,5-3.3,7.2c-1.5,2-2.8,3.8-2.8,6c0,1,1,1.5,3.6,2.3c4.5,1.5,11.4,3.7,11.4,16.1c0,1,0,2-0.1,3.1c0,1-0.1,2-0.1,3
			c0,1.4,0.1,2.6,0.2,3.7c0.1,0.6-0.4,1.2-1,1.2C91.2,56.2,91.2,56.2,91.2,56.2z"/>
	</g>
	<g>
		<path d="M84.2,57.6C84.2,57.6,84.1,57.6,84.2,57.6c-0.7-0.1-1.2-0.6-1.1-1.2c0-0.5,0.1-1,0.1-1.5c0-1.2-0.1-2.4-0.2-3.5
			c-0.1-1.2-0.2-2.4-0.2-3.7c0-0.3,0-0.6,0-0.9c0-0.6,0.6-1.1,1.2-1.1c0.6,0,1.1,0.6,1.1,1.2c0,0.3,0,0.5,0,0.8
			c0,1.1,0.1,2.3,0.2,3.5c0.1,1.2,0.2,2.5,0.2,3.7c0,0.6,0,1.2-0.1,1.7C85.3,57.2,84.8,57.6,84.2,57.6z"/>
	</g>
	<g>
		<path d="M72,43.2c-0.3,0-0.7-0.1-0.9-0.4c-1.8-2.3-3.2-4.8-4.6-7.3c-0.8-1.4-1.5-2.8-2.4-4.1c-0.3-0.5-0.2-1.2,0.4-1.6
			c0.5-0.3,1.2-0.2,1.6,0.4c0.9,1.4,1.7,2.8,2.4,4.2c1.4,2.5,2.7,4.8,4.4,7c0.4,0.5,0.3,1.2-0.2,1.6C72.5,43.1,72.3,43.2,72,43.2z"
			/>
	</g>
	<g>
		<path d="M72.5,34.8c-1.8,0-2.8-1.8-2.8-3.6c0-0.6,0.5-1.1,1.1-1.1s1.1,0.5,1.1,1.1c0,0.7,0.4,1.3,0.6,1.3c0.2,0,0.4-0.4,0.5-0.8
			c0.1-0.6,0.7-1,1.3-0.9c0.6,0.1,1,0.7,0.9,1.3C74.9,33.7,73.8,34.8,72.5,34.8z"/>
	</g>
	<g>
		<path d="M69.4,38.8c-0.2,0-0.3,0-0.5-0.1c-0.6-0.3-0.8-0.9-0.6-1.5c0.3-0.6,0.6-1.2,0.8-1.8c0.3-0.6,0.5-1.2,0.8-1.8
			c0.3-0.6,0.9-0.8,1.5-0.6c0.6,0.3,0.8,0.9,0.6,1.5c-0.3,0.6-0.6,1.2-0.8,1.8c-0.3,0.6-0.5,1.2-0.8,1.8
			C70.2,38.6,69.8,38.8,69.4,38.8z"/>
	</g>
	<g>
		<path d="M76.2,38c-0.4,0-0.7-0.2-1-0.5l-2.1-3.3c-0.3-0.5-0.2-1.2,0.4-1.6c0.5-0.3,1.2-0.2,1.6,0.4l2.1,3.3
			c0.3,0.5,0.2,1.2-0.4,1.6C76.6,37.9,76.4,38,76.2,38z"/>
	</g>
</g>
<g>
	<path d="M17.5,32.9c-0.1,0-0.3,0-0.4-0.1c-0.5-0.2-0.8-0.9-0.5-1.4c0.4-1,0.9-2,1.3-3c1.1-2.5,2.1-5.2,3.5-7.6
		c0.2-0.3,0.5-0.5,0.9-0.5c0.4,0,0.7,0.2,0.9,0.5c1.7,2.7,3.5,5.8,5.3,9.4c0.3,0.5,0,1.2-0.5,1.4c-0.5,0.3-1.2,0-1.4-0.5
		c-1.4-2.9-2.8-5.4-4.2-7.7c-0.9,1.9-1.8,3.8-2.6,5.8c-0.4,1-0.9,2.1-1.3,3.1C18.3,32.6,17.9,32.9,17.5,32.9z"/>
</g>
<g>
	<path d="M19.5,28.7c-0.5,0-1-0.4-1.1-1c-0.1-0.6,0.4-1.1,1-1.2l4.9-0.5c0.6-0.1,1.1,0.4,1.2,1c0.1,0.6-0.4,1.1-1,1.2l-4.9,0.5
		C19.6,28.7,19.6,28.7,19.5,28.7z"/>
</g>
</svg>
