<?xml version="1.0" encoding="utf-8"?>
<!-- Generator: Adobe Illustrator 21.1.0, SVG Export Plug-In . SVG Version: 6.00 Build 0)  -->
<svg version="1.1" id="lineart" xmlns="http://www.w3.org/2000/svg" xmlns:xlink="http://www.w3.org/1999/xlink" x="0px" y="0px"
	 viewBox="0 0 98.6 104.6" style="enable-background:new 0 0 98.6 104.6;" xml:space="preserve">
<style type="text/css">
	.st0{fill:#E55A2F;}
</style>
<g>
	<g>
		<g>
			<path class="st0" d="M48.9,79.5C48.1,71,42.4,66,35.1,62.6c-2.1-1-3.7,1.8-1.8,3.1c4.9,3.5,6.6,8.1,5.3,13.9
				c-1.1,5.1-3.5,8.9-8.2,11.6C26.1,93.7,20,95.5,15,94.1c-5.5-1.5-7.1-7.3-11.3-10.4c-0.4-0.3-1.1,0-1.2,0.5
				c-1.5,7.2,3.9,15.3,10.2,18.3c7.9,3.7,17.6,2,24.7-2.7C44,95.5,49.7,87.9,48.9,79.5z"/>
		</g>
		<g>
			<path class="st0" d="M33.7,74.5c-4,0-6.9,2.2-9.4,5.2c-0.7,0.9-5.4,8.1-5.7,8c-0.6-0.2-1,0.6-0.6,1c2.3,2.2,5.9-0.5,8.3-1.6
				c4.3-2.1,8.7-4.4,9.7-9.5C36.4,76.1,35.4,74.5,33.7,74.5z"/>
		</g>
		<g>
			<path class="st0" d="M98.1,59.6c-0.3-7.6-0.7-15.2-1.6-22.7c-0.7-6.6-1-14.8-4.2-20.7c-0.1-0.3-0.5-0.2-0.6,0.1
				c-0.3,0.9-0.6,1.9-0.8,2.9c-0.2-2.2-0.8-4.5-1.8-6.4c-0.6-1.1-2-0.9-2.6,0c-1.4,1.9-2,4.4-2.2,6.7c-2.7,0.3-5.6,0.3-8.5,0.4
				c1.1-0.5,2-1.6,2.1-3.4c0.3-4,0-10-3.4-12.8c-0.8-0.6-1.7-0.4-2.1,0.6c-0.7,1.7-0.7,3.6-0.9,5.4c-0.3,2-0.7,3.9-1.3,5.8
				c-0.7,2.3,0.5,3.9,2.2,4.5c-0.1,0-0.2,0-0.3,0c-6.1,0.3-12.2,0.6-18.3,0.9c-5.8,0.3-11.7,0.2-17.5,0.2c2.4-4.7-0.2-14.5-2.8-17.3
				c-0.4-0.4-1.2-0.2-1.3,0.4C31.9,6.4,32.1,8.7,32,11c0,0.6-0.2,1.4-0.4,2.4c-1.2,0.1-2.3,0.6-3.1,1.6c-1.5,1.8-1.6,4.3-0.6,6.1
				c-3.2,0-6.5,0.1-9.7,0.3c-3.3,0.2-4.4,5.3-0.8,6.1c11.8,2.7,24.7,2,36.7,1.8c6.1-0.1,12.2-0.3,18.3-0.7
				c5.5-0.3,12.6,0.5,17.7-1.7c0.1-0.1,0.2-0.1,0.3-0.2c0,2.4,0,4.9,0,7.2c-0.1,6.6,0.1,13.2,0.3,19.8c0.2,6.4,0.3,12.7,0.4,19.1
				c0.1,3.2,0.2,6.4,0.2,9.5c0,0.8-0.1,1.5-0.2,2.1c-0.2,0-0.4-0.1-0.6-0.1c0,0,0.1-0.1,0.1-0.1c0.8-1.2,0.3-3.1-1-3.8
				c-3.3-1.8-7,0-10.6,0.5c-4.2,0.7-8.6,1-12.9,1.2c-4,0.2-7.9,0.4-11.9,0.6c-3.4,0.2-7.2,0.1-9.4,3c-0.5,0.6-0.3,1.4,0.4,1.7
				c1.3,0.4,2.7,0.7,4.1,0.9c-2.2,0.4-4.4,1-6.1,2.2c-0.6,0.4-0.7,1.3,0,1.8c3.1,1.8,7.2,1.8,10.7,2c4.6,0.3,9.2,0.5,13.8,0.4
				c4.4-0.1,8.7-0.3,13-0.7c4.2-0.3,9.1,0.1,12.9-1.9c0.3-0.1,0.5-0.3,0.7-0.5c3.2-0.6,4.3-6.4,4.3-9.3
				C98.6,74.8,98.4,67.2,98.1,59.6z"/>
		</g>
		<g>
			<path class="st0" d="M74.5,37.4c-1.9,0-3.4,1.3-4.9,2.4c-0.7,0.5-1.3,1-2,1.5c-0.7,0.5-1.6,0.9-2.2,1.5c-0.6,0.6-0.3,1.5,0.5,1.8
				c1.6,0.6,4.2,0.1,5.8-0.5c1.9-0.7,4.3-2,4.7-4.2C76.7,38.7,75.9,37.4,74.5,37.4z"/>
		</g>
		<g>
			<path class="st0" d="M57.5,38.9c-0.3-1.3-1.6-2.2-2.9-2.2c-1.9,0-2.9,1.5-4.2,2.5c-0.8,0.7-2.1,1.2-3.1,2.1
				c-1.1,1-0.6,2.5,0.4,3.3c1.5,1.1,4.2,0.8,5.8,0.1C56,43.6,58.2,41.7,57.5,38.9z"/>
		</g>
		<g>
			<path class="st0" d="M38,38.3c-1.8,0-3.1,1-4.7,1.7c-1.3,0.6-2.7,0.8-4,1.5l0.1,0.1c-1,0.6-1.5,2.1-0.1,2.9
				c3.2,1.8,9.1,1.2,11.1-2C41.4,40.7,40,38.3,38,38.3z"/>
		</g>
		<g>
			<path class="st0" d="M40.9,51.7c-3.2-1.2-6.8,1.7-9.1,3.7c-1.4,1.2-0.6,3.5,1.1,4c3.4,1,9.4,0.1,10-4.2
				C43.1,53.6,42.5,52.3,40.9,51.7z"/>
		</g>
		<g>
			<path class="st0" d="M56.9,52.7c-1.8-0.2-3.3,0.8-4.8,1.7c-1.2,0.7-3.2,1.8-2.6,3.5c0.7,1.9,3,2.5,4.8,2.4
				c2.5-0.2,4.7-1.2,5.5-3.7C60.4,54.5,58.7,52.9,56.9,52.7z"/>
		</g>
		<g>
			<path class="st0" d="M74.6,53.1c-0.1,0-0.3,0-0.4,0c-0.5,0-0.9,0.1-1.3,0.3c-0.5,0.2-0.5,0.2-0.2,0.1c0.5-0.2-0.7,0.3-0.8,0.3
				c-0.2,0.1-0.3,0.2-0.5,0.4c-0.4,0.3-0.8,0.6-1.2,0.9c-0.3,0.1-0.5,0.3-0.7,0.5c-0.8,0.7-0.8,1.8-0.3,2.6c0.7,1.4,2.6,2.2,4,2.1
				c2.5-0.1,4.3-1.6,4.5-4.1C77.9,54.3,76.2,53.2,74.6,53.1z"/>
		</g>
		<g>
			<path class="st0" d="M61,67.1c-2,0-3.4,0.8-5.1,1.7c-1.4,0.7-3,1-4.5,1.6c-1.5,0.5-2,2.7-0.5,3.6c3.7,2.1,10.6,2,12.7-2.3
				C64.6,69.6,63.4,67.2,61,67.1z"/>
		</g>
		<g>
			<path class="st0" d="M90.9,78c-0.1-8.6-0.1-17.2-0.3-25.9c-0.1-4.2-0.2-8.4-0.4-12.6c-0.2-4-0.2-8.5-1.6-12.2
				c-0.6-1.5-2.5-1.5-3,0c-1.3,3.6-1.3,7.8-1.4,11.5c-0.2,4.4-0.2,8.9-0.2,13.3c-0.1,7.7,0,15.4,0,23.1c-0.2,0-0.4,0.3-0.4,0.5
				c0,0.4,0,0.9,0,1.3c-0.7,0.9-1,2.1-0.5,3.3c0.7,1.6,2.2,2.2,3.9,1.9c0.8-0.2,1.5-0.6,2.1-1.2C90.1,80.6,91,79.6,90.9,78z"/>
		</g>
	</g>
	<g>
		<g>
			<g>
				<path d="M43.2,89.3c-0.6,0-1-0.5-1.1-1c0-0.6,0.4-1.1,1-1.1c6.5-0.2,13.1-0.2,19.4-0.3c8.8-0.1,17.8-0.2,26.7-0.5
					c0-5.3,0.1-10.6,0.1-15.9c0.1-8.9,0.1-18.2,0.1-27.2c0-16.2-0.1-24.9-0.4-29.9c-0.1-1.4-1.2-2.4-2.6-2.5l-11.8-0.1
					c-0.6,0-1.1-0.5-1.1-1.1c0-0.6,0.5-1.1,1.1-1.1c0,0,11.8,0.1,11.8,0.1c2.5,0,4.5,2,4.7,4.5c0.3,5.1,0.4,13.5,0.4,30
					c0,9.1-0.1,18.3-0.1,27.3c0,5.6-0.1,11.3-0.1,16.9c0,0.6-0.5,1-1,1.1c-9.3,0.3-18.7,0.4-27.8,0.6C56.3,89,49.7,89.1,43.2,89.3z"
					/>
			</g>
		</g>
		<g>
			<g>
				<path d="M35,10.9c-0.6,0-1-0.5-1.1-1c0-0.6,0.5-1.1,1-1.1C41.8,8.6,50.2,8.6,60,8.6c2.6,0,5.1,0,7.7,0c0.6,0,1.1,0.5,1.1,1.1
					c0,0.6-0.5,1-1.1,1.1c-2.6,0-5.1,0-7.7,0C50.3,10.7,41.8,10.8,35,10.9z"/>
			</g>
		</g>
		<g>
			<g>
				<path d="M15,58.3c-0.6,0-1.1-0.5-1.1-1.1c0-12.8-0.1-27.9-0.3-43.2c0-2.4,1.8-4.5,4.2-4.6c2.8-0.2,6.1-0.3,10-0.5
					c0.6,0,1.1,0.4,1.1,1c0,0.6-0.4,1.1-1,1.1c-3.9,0.1-7.1,0.3-9.9,0.5c-1.3,0.1-2.3,1.2-2.3,2.5c0.3,15.3,0.3,30.4,0.3,43.2
					C16.1,57.8,15.6,58.3,15,58.3z"/>
			</g>
		</g>
		<g>
			<g>
				<path d="M22.1,100.7C10.3,100.7,0,89.8,0,77.3c0-13,11.6-21.1,22.4-21.1c0.7,0,1.5,0,2.2,0.1c5.8,0.6,11.3,3.1,15,7.1
					c4,4.2,6,9.3,6,15.4C45.6,86.5,36.7,100.7,22.1,100.7z M22.4,58.4c-9.7,0-20.2,7.2-20.2,18.9c0,10,8.6,21.3,20,21.3
					c13,0,21.3-13,21.3-19.8c0-5.6-1.8-10.1-5.4-13.9c-3.4-3.6-8.4-5.9-13.7-6.4C23.7,58.4,23,58.4,22.4,58.4z"/>
			</g>
		</g>
		<g>
			<g>
				<path d="M21,90.9c-0.3,0-0.5-0.1-0.7-0.3c-3.7-3.6-7.6-7.3-11.5-11.1c-0.2-0.2-0.3-0.5-0.3-0.8c0-0.3,0.1-0.6,0.3-0.8
					c1.9-1.8,4.4-4.1,7.2-6.1c0.4-0.3,1-0.3,1.4,0.1c0.8,0.9,1.7,1.7,2.6,2.5c0.6,0.6,1.2,1.2,1.9,1.8c1.3-1,2.6-1.8,4-2.7
					c1.4-0.9,2.9-1.9,4.3-2.9c0.4-0.3,1-0.3,1.4,0.1c1.6,1.8,3.5,3.5,5.8,5.5c0.2,0.2,0.4,0.5,0.4,0.8c0,0.3-0.1,0.6-0.4,0.8
					c-2.3,2.1-4.8,4-7.2,5.8c-2.8,2.2-5.7,4.4-8.4,6.9C21.5,90.8,21.2,90.9,21,90.9z M11,78.8c3.3,3.3,6.7,6.5,9.9,9.6
					c2.5-2.3,5.2-4.4,7.8-6.4c2.1-1.6,4.2-3.2,6.2-5c-1.7-1.5-3.1-2.8-4.4-4.2c-1.2,0.9-2.4,1.7-3.6,2.5c-1.5,1-3.1,2-4.6,3.2
					c-0.4,0.3-1,0.3-1.4-0.1c-0.8-0.8-1.6-1.6-2.5-2.4c-0.7-0.6-1.3-1.3-2-1.9C14.5,75.7,12.7,77.3,11,78.8z"/>
			</g>
		</g>
		<g>
			<g>
				<path d="M45.1,83.1c-0.6,0-1-0.5-1.1-1c0-0.6,0.4-1.1,1-1.1c4.3-0.1,8.6-0.2,12.9-0.3c8.4-0.2,17.1-0.3,25.7-0.6
					c1.8-1.5,3.7-3.1,6.1-5c0.5-0.4,1.1-0.3,1.5,0.2c0.4,0.5,0.3,1.1-0.2,1.5c-2.5,2-4.5,3.6-6.3,5.2c-0.2,0.2-0.4,0.2-0.7,0.3
					c-8.7,0.3-17.5,0.5-26.1,0.6C53.8,83,49.5,83,45.1,83.1z"/>
			</g>
		</g>
		<g>
			<g>
				<path d="M83.7,81.7c-0.6,0-1.1-0.5-1.1-1.1c0-1.5-0.2-2.9-0.3-4.4c-0.1-0.5-0.1-0.9-0.1-1.4c0-0.3,0.1-0.6,0.3-0.8
					c0.2-0.2,0.5-0.3,0.8-0.3h6.6c0.6,0,1.1,0.5,1.1,1.1c0,0.6-0.5,1.1-1.1,1.1h-5.4c0,0.1,0,0.1,0,0.2c0.2,1.5,0.3,3,0.3,4.6
					C84.8,81.2,84.3,81.7,83.7,81.7z"/>
			</g>
		</g>
		<g>
			<g>
				<path d="M14.9,29.3c-0.6,0-1-0.4-1.1-1c0-0.6,0.4-1.1,1-1.1c24-1.3,48.7-1.9,75.7-1.9c0.6,0,1.1,0.5,1.1,1.1
					c0,0.6-0.5,1.1-1.1,1.1C63.6,27.4,38.9,28,14.9,29.3C14.9,29.3,14.9,29.3,14.9,29.3z"/>
			</g>
		</g>
		<g>
			<g>
				<path d="M31.6,20.1c-2.6,0-4.9-2.3-4.9-4.9c0-1.8,0.1-3.4,0.1-5c0-1.7,0.1-3.4,0.1-5.2c0-0.3,0-0.7,0-1c0-2,1.5-3.7,3.5-4
					C31.7-0.1,33,0.3,34,1.1c1,0.9,1.7,2.1,1.7,3.5c0.1,2.3,0.2,4.6,0.3,7c0.1,1.4,0.1,2.9,0.2,4.3c0.1,2.2-1.5,4-3.7,4.2l-0.6,0
					C31.8,20.1,31.7,20.1,31.6,20.1z M30.6,2.1C29.6,2.3,29,3.1,29,4c0,0.3,0,0.7,0,1c0,1.9,0,3.5-0.1,5.3c0,1.5-0.1,3.1-0.1,4.9
					c0,1.5,1.5,2.9,3,2.8l0.6,0c1-0.1,1.8-1,1.7-2c-0.1-1.4-0.1-2.9-0.2-4.3c-0.1-2.3-0.2-4.6-0.3-6.9c0-0.8-0.4-1.5-1-1.9
					C32.1,2.3,31.4,2,30.6,2.1z"/>
			</g>
		</g>
		<g>
			<g>
				<path d="M71.5,20.1c-2.6,0-4.9-2.3-4.9-4.9c0-1.8,0.1-3.4,0.1-5c0-1.7,0.1-3.4,0.1-5.2c0-0.3,0-0.7,0-1c0-2,1.5-3.7,3.5-4
					c0,0,0.1,0,0.1,0c1.3-0.1,2.6,0.3,3.6,1.1c1,0.9,1.7,2.1,1.7,3.5c0.1,2.3,0.2,4.6,0.3,6.9c0.1,1.4,0.1,2.9,0.2,4.3
					c0.1,2.2-1.5,4-3.7,4.2l-0.6,0C71.7,20.1,71.6,20.1,71.5,20.1z M70.4,2.1C69.5,2.3,68.8,3,68.8,4c0,0.3,0,0.7,0,1
					c0,1.9,0,3.5-0.1,5.3c0,1.5-0.1,3.1-0.1,4.9c0,1.5,1.5,2.9,3,2.8c0,0,0.6,0,0.6,0c1-0.1,1.8-1,1.7-2c-0.1-1.4-0.1-2.9-0.2-4.3
					c-0.1-2.3-0.2-4.6-0.3-6.9c0-0.8-0.4-1.5-1-1.9C72,2.3,71.2,2,70.4,2.1z"/>
			</g>
		</g>
		<g>
			<g>
				<path d="M28.5,45.5c-0.6,0-1-0.4-1.1-1c-0.1-1.3-0.1-2.7-0.1-4c0-1.5-0.1-3-0.2-4.4c0-0.6,0.4-1.1,1-1.1c3.5-0.2,7-0.3,10.2-0.4
					c0.5,0,1,0.4,1.1,1c0.1,1,0.2,2,0.3,3c0.2,1.7,0.4,3.4,0.4,5.2c0,0.2,0,0.4,0,0.5c0,0.6-0.5,1-1,1c-0.9,0-1.9,0-2.8,0.1
					C33.7,45.3,31.1,45.4,28.5,45.5z M29.3,36.9c0.1,1.2,0.1,2.3,0.1,3.5c0,1,0,2,0.1,2.9c2.2-0.1,4.5-0.1,6.7-0.2
					c0.6,0,1.2,0,1.8,0c0-1.4-0.2-2.9-0.4-4.4c-0.1-0.7-0.2-1.4-0.2-2.1C34.8,36.7,32.1,36.8,29.3,36.9z"/>
			</g>
		</g>
		<g>
			<g>
				<path d="M46.5,45.7c-0.3,0-0.5-0.1-0.7-0.3c-0.2-0.2-0.3-0.5-0.3-0.7c0-1.3-0.1-2.5-0.1-3.8c-0.1-2-0.2-4-0.2-6
					c0-0.6,0.4-1,1-1.1c2.4-0.2,4.8-0.2,7.2-0.2c0.9,0,1.9,0,2.8,0c0.6,0,1,0.4,1.1,1c0.2,3.2,0.5,6.6,0.6,9.9c0,0.6-0.4,1.1-1,1.1
					c-1.9,0.1-3.9,0.1-5.8,0.1C49.6,45.6,48.1,45.6,46.5,45.7z M47.3,35.8c0,1.6,0.1,3.3,0.1,4.9c0,0.9,0.1,1.8,0.1,2.8
					c1.2,0,2.3,0,3.5,0c1.5,0,3.1,0,4.6-0.1c-0.1-2.6-0.3-5.3-0.5-7.8c-0.6,0-1.2,0-1.9,0C51.4,35.7,49.3,35.7,47.3,35.8z"/>
			</g>
		</g>
		<g>
			<g>
				<path d="M64.3,45.5c-0.3,0-0.5-0.1-0.7-0.3c-0.2-0.2-0.3-0.5-0.3-0.8c0-2.5-0.2-5.1-0.3-7.6l-0.1-2.1c0-0.6,0.4-1,0.9-1.1
					c2.1-0.2,4.1-0.2,6.2-0.2l1.2,0c0.9,0,1.8,0,2.7,0c0.6,0,1,0.4,1.1,0.9c0.3,2.5,0.4,5,0.6,7.4c0,0.7,0.1,1.4,0.1,2.2
					c0,0.3-0.1,0.6-0.3,0.8c-0.2,0.2-0.5,0.3-0.7,0.4c-1.2,0.1-2.5,0.1-3.8,0.2C68.8,45.2,66.6,45.3,64.3,45.5
					C64.4,45.5,64.4,45.5,64.3,45.5z M65,35.6l0.1,1c0.1,2.2,0.2,4.4,0.3,6.6c1.8-0.1,3.7-0.2,5.5-0.3c0.9,0,1.8-0.1,2.7-0.1
					c0-0.4,0-0.7-0.1-1.1c-0.1-2.1-0.2-4.2-0.4-6.3c-0.6,0-1.2,0-1.8,0l-1.2,0C68.3,35.5,66.7,35.5,65,35.6z"/>
			</g>
		</g>
		<g>
			<g>
				<path d="M34.7,61.8c-0.5,0-1-0.4-1.1-1c-0.1-0.6,0.4-1.1,0.9-1.2c1.3-0.1,2.4-0.3,3.5-0.4c-0.1-1.4-0.1-2.8-0.1-4.2
					c0-1-0.1-2.1-0.1-3.1c-1,0-2.1,0-3.1,0c-1.8,0-3.5,0-5.3,0c0,1.1,0,2.2,0,3.3c0,0.6-0.5,1.1-1.1,1.1c-0.6,0-1.1-0.5-1.1-1.1
					c0-1.4,0-2.8,0-4.3c0-0.6,0.4-1,1-1.1c2.1-0.1,4.3-0.1,6.4,0c1.1,0,2.1,0,3.2,0l0.9,0c0.6,0,1,0.4,1.1,1
					c0.1,1.4,0.1,2.8,0.1,4.2c0,1.7,0.1,3.4,0.2,5.1c0,0.5-0.4,1-0.9,1.1c-1.4,0.2-2.8,0.4-4.5,0.6C34.8,61.8,34.7,61.8,34.7,61.8z"
					/>
			</g>
		</g>
		<g>
			<g>
				<path d="M46.9,60.9c-0.3,0-0.5-0.1-0.7-0.3c-0.2-0.2-0.3-0.5-0.4-0.8c-0.1-3.1-0.2-6.4-0.7-9.7c0-0.3,0-0.6,0.2-0.8
					c0.2-0.2,0.5-0.4,0.8-0.4c3.9-0.1,7.7-0.1,11.2,0c0.5,0,0.9,0.4,1,0.9c0.6,3.5,0.9,6.5,1.1,9.3c0,0.6-0.4,1.1-0.9,1.1
					c-2.1,0.2-4.2,0.3-6.3,0.3C50.6,60.7,48.8,60.7,46.9,60.9C47,60.9,47,60.9,46.9,60.9z M47.5,51.1c0.3,2.6,0.4,5.2,0.5,7.6
					c1.5-0.1,2.9-0.1,4.4-0.2c1.7,0,3.4-0.1,5.1-0.2c-0.2-2.2-0.5-4.6-0.9-7.2C53.6,51,50.6,51,47.5,51.1z"/>
			</g>
		</g>
		<g>
			<g>
				<path d="M71.8,60.3c-0.9,0-1.7,0-2.6,0c-1.2,0-2.4,0-3.6,0c-0.5,0-1-0.4-1.1-1c-0.2-2.9-0.4-5.8-0.7-8.8l0-0.2
					c0-0.6,0.4-1.1,1-1.1c3.6-0.3,7.2-0.4,10.3-0.4c0.6,0,1,0.4,1.1,1c0,0.9,0.1,1.8,0.2,2.8c0.1,2.2,0.3,4.4,0.3,6.6
					c0,0.6-0.4,1-1,1.1C74.5,60.3,73.3,60.3,71.8,60.3z M66.7,58.1c0.8,0,1.7,0,2.5,0c0.8,0,1.7,0,2.5,0c1,0,1.9,0,2.7-0.1
					c-0.1-1.8-0.2-3.7-0.3-5.5c0-0.6-0.1-1.2-0.1-1.8c-2.5,0-5.3,0.1-8.1,0.3c0.2,2.3,0.4,4.6,0.5,7C66.6,58.1,66.7,58.1,66.7,58.1z
					"/>
			</g>
		</g>
		<g>
			<g>
				<path d="M49.5,75.5c-0.5,0-1-0.4-1.1-0.9c-0.3-2.4-0.4-4.8-0.6-7.2l-0.2-2.2c0-0.3,0.1-0.6,0.3-0.8c0.2-0.2,0.5-0.3,0.7-0.4
					c1.6-0.1,3.2-0.1,4.8-0.1c1.9,0,3.9,0,5.8-0.2c0.6-0.1,1.1,0.4,1.1,1c0.2,2.6,0.3,5.5,0.4,8.9c0,0.6-0.4,1-1,1.1
					C56.3,75.1,53,75.3,49.5,75.5C49.5,75.5,49.5,75.5,49.5,75.5z M49.9,66.2l0.1,1.1c0.1,2,0.3,4.1,0.5,6.1
					c2.7-0.2,5.5-0.4,8.2-0.6c0-2.5-0.1-4.7-0.3-6.7c-1.6,0.1-3.3,0.1-4.9,0.1C52.3,66.1,51.1,66.1,49.9,66.2z"/>
			</g>
		</g>
	</g>
</g>
</svg>
