<?xml version="1.0" encoding="utf-8"?>
<!-- Generator: Adobe Illustrator 21.1.0, SVG Export Plug-In . SVG Version: 6.00 Build 0)  -->
<svg version="1.1" id="lineart" xmlns="http://www.w3.org/2000/svg" xmlns:xlink="http://www.w3.org/1999/xlink" x="0px" y="0px"
	 viewBox="0 0 113.9 99.6" style="enable-background:new 0 0 113.9 99.6;" xml:space="preserve">
<style type="text/css">
	.st0{fill:#E55A2F;}
</style>
<g>
	<path class="st0" d="M48.4,74.1c-0.9-2.4-1.7-5.7-4.4-6.6c-0.2-0.1-0.6,0-0.8,0.2c-1.8,2.2-0.9,5.4-0.6,8c0.6,3.9,1,8,2.6,11.7
		c0.5,1,1.9,1.8,3,1.7c0.7-0.1,1.2-0.2,1.8-0.5c1-0.5,1.8-1.9,1.7-3C51.5,81.6,49.8,77.8,48.4,74.1z"/>
	<path class="st0" d="M52.2,93.2c-0.2-1.3-1.5-2-2.7-2.4c-0.9-0.3-2.1-0.4-2.8,0.2c-0.5,0.3-0.7,0.8-0.6,1.4
		c0.1,0.5,0.4,0.8,0.7,1.2c0,0,0.1,0.1,0.1,0.1c0,0,0.1,0.1,0.1,0.2c0.1,0.2,0.3,0.3,0.4,0.5c0.1,0.1,0.2,0.2,0.3,0.3
		c0,0,0,0,0.1,0.1c0,0,0.1,0.1,0.1,0.2c0.4,0.5,1,1,1.7,1.1C51.2,96.1,52.5,94.9,52.2,93.2z"/>
	<path class="st0" d="M67.3,81.3c-0.4-2.2-0.8-4.4-1.6-6.4c-0.3-0.8-1.5-0.9-1.7,0c-0.7,2.3-1,4.7-1.3,7
		C62.4,85,67.9,84.9,67.3,81.3z"/>
	<path class="st0" d="M64.5,38.6c-0.6-0.8-1.6-1.4-2.6-1.1c-2.4,0.7-2.6,2-3.6,4.2c-1,2.4-2.4,4.8-4.1,6.8
		c-3.6,4.4-8.1,6.2-13.5,7.6c-0.7,0.2-0.6,1.2,0,1.4c5.5,1.8,11.8-0.5,16.1-3.9C60.2,50.9,67.6,43.1,64.5,38.6z"/>
	<path class="st0" d="M27.9,77.7c-1.3-1.7-3.3-2.5-5.4-2c-2.3,0.6-3.6,2.5-3.2,4.9c0.3,1.8,2.6,2.4,4,1.6c0.1,0,0.1-0.1,0.2-0.1
		c0,0,0,0.1,0,0.1c0.2,1.8-1.2,4.2,0.9,5.4c0,0,0,0,0-0.1c0.3,0.2,0.6,0.3,0.9,0.3c2.2,0.2,3.3-2.7,3.7-4.4
		C29.4,81.5,29.2,79.4,27.9,77.7z"/>
	<path class="st0" d="M10,88.7c-1.8-0.8-3.1-0.6-4.8,0.3c0.7-0.4-0.4,0.1-0.5,0.1c-0.3,0.1-0.3,0.1-0.1,0.1c-0.3,0-0.6,0-0.9,0.2
		c-1.1,0.4-1.9,1.5-1.6,2.8c1,3.7,7.3,5,9.1,1.4C12,91.9,11.8,89.4,10,88.7z"/>
	<path class="st0" d="M99.8,3.5c-0.3-0.3-0.7-0.1-0.8,0.2c-1.6,4.2-2,9.5-5.1,13c-1.9,2.2-4.6,2.7-7.2,3.4c0-0.1,0-0.2,0-0.2
		c-0.6-3.6-6.1-1.7-5.5,1.2c-0.2,1.3-0.4,2.6-0.6,3.9c-0.3,0.3-0.6,0.6-0.7,1.1c-0.8,2.7-1.1,5.5-1,8.3c0.1,2.6,2.5,3.4,4.3,2.4
		c-0.2,0.2-0.3,0.5-0.4,0.7c-0.5,1.4-0.6,2.3-0.4,3.7c0.1,0.8,1.3,0.9,1.7,0.2c1.4-2.5,5.5-5.2,5.6-8.2c0.1-2.1-1.7-3.2-3.3-4.5
		c0.1-0.6,0.2-1.1,0.3-1.7c4.7-0.4,10-3.2,12.3-6.9C101.5,16,103.1,7.3,99.8,3.5z"/>
	<path class="st0" d="M109.7,31c-1-1.9-7.4-12.8-10.4-10c-0.2,0.1-0.1,0.4,0.1,0.5c0,0,0.1,0.1,0.1,0.1c0.1,0.1,0.4,0,0.4-0.2
		c0.1,2.1,1.1,3.5,2.1,5.5c1.3,2.6,2.3,5.2,3.2,7.9c1.7,5.5,2.7,11,2.4,16.8c-0.3,5.5-1.9,11.2-4.4,16.1c-1.3,2.5-2.7,5-4.6,7
		c-0.8,0.9-1.7,1.5-2.6,2.1c0.9-1,1.6-2.1,1.7-3.4c0.1-0.9-0.9-1.4-1.6-1.2c-1.7,0.4-2.8,1.7-4,2.8c-0.9,0.8-1.8,1.4-2.7,2.1
		c-0.4-0.4-1-0.7-1.6-0.8c-1.4-0.1-2.4,0.6-3.6,1.3c-0.4,0.2-0.8,0.4-1.1,0.6c-0.4-1.3-1-2.5-1.9-3.5c-0.8-3.1-1.8-6-3.1-8.8
		c-1.7-3.6-4.3-6.4-7.9-8.1c-1.6-0.7-3.2-1.2-4.9-1.5c-0.2,0-0.5-0.1-0.9-0.1c3.1-3.6,6.2-8.4,8.1-12.6c2.2-5,0.8-10-0.9-14.8
		c-2.6-7.2-7.4-18.8-16.9-18.4c-0.4,0-0.5,0.5-0.2,0.7c6.7,4.5,9.5,10.7,12,18.1c-0.2,0-0.4,0-0.6,0c-1,0.1-1.1,0.3-1.6-0.1
		c-0.7-0.5-1.3-1.6-1.8-2.3c-1.2-1.7-2.2-3.6-3.5-5.2c-1.5-2-4.9-4.8-7.5-3c-0.4,0.3-0.4,0.6-0.3,1c0.4,1,1.2,1.5,1.9,2.3
		c0.8,1,1.2,2.1,1.6,3.3c0.9,2.6,1.9,5.3,3.4,7.6c2.3,3.4,7.4,5.7,10,2.2c0.4,2.6,0.2,5.1-1.6,7.6c-2.2,3.3-4.5,7.1-7.2,9.9
		c-0.6,0.6-0.9,1.4-0.9,2.1c-0.3-0.5-1-0.7-1.6-0.4c-2.6,1.3-1.5,4.7,0.6,5.9c1.7,1.1,3.8,0.7,5.7,1c2.2,0.3,4.4,0.9,6.3,2
		c4.3,2.7,5.8,8.3,6.9,12.9c0.9,4,1.1,8,1,12c-0.2,1-0.6,1.9-1.3,2.4c-1.7,1.2-5.3,1.4-7.3,1.9c-2.8,0.6-5.8,1-8.4,2.1
		c-1.1,0.4-1.1,1.7,0,2.2c3.6,1.5,7.9,1.2,11.6,0.7c2.5-0.3,5.8-0.5,8.1-2c1,0,2-0.5,2.2-1.8c0-0.3,0.1-0.5,0.1-0.8
		c1.2-2.4,1.3-5.5,1.5-7.9c0.1-1,0.1-2,0-3c2,0.1,4-0.2,5.4-1.5c0.6-0.1,1.3-0.2,2-0.4c-0.1,0.6,0.2,1.3,0.7,1.6
		c5.9,4,12.2-3.9,15.1-8.2c4.2-6.3,6.6-13.5,7.1-21C114.4,44.9,113,37.5,109.7,31z"/>
	<path class="st0" d="M97.5,43.6c-0.2-1-2-0.8-1.9,0.3c0.3,2.7,0,5.7-1.2,8.2c-0.9,1.9-2.7,3-2.1,5.3c0.2,0.7,0.7,1.3,1.4,1.4
		c0.1,0,0.2,0.1,0.4,0.1c0.9,0.2,2,0,2.6-0.7C100.5,53.6,98.4,48.7,97.5,43.6z"/>
	<g>
		<g>
			<path d="M65.9,33.4c-0.6,0-1-0.4-1.1-1c-0.1-1.9-0.5-3.7-1-5.4c-4.1-13.5-10.3-16.3-20.3-16.7c-1.8-0.1-3.5,0.2-5,0.8
				c-0.5,0.2-1.2,0-1.4-0.6c-0.2-0.5,0-1.2,0.6-1.4c1.8-0.8,3.7-1.1,5.9-1c10.7,0.4,17.8,3.6,22.3,18.2c0.6,1.9,1,3.9,1.1,5.9
				C67,32.9,66.5,33.4,65.9,33.4C65.9,33.4,65.9,33.4,65.9,33.4z"/>
		</g>
		<g>
			<path d="M44.1,59.8c-0.4,0-0.8,0-1.2,0c-7-0.4-12.9-4.3-16.6-11c-1.1-1.9-1.7-5.3-1.6-7.3c0-0.2,0-0.7,0.1-1.1
				c0.1-1.5,0.1-3.1,0-4.7c0-1.6,0-3.3,0-5c0.1-3.1,0.5-7.1,2.6-10.5c0.7-1.2,1.4-2.3,2-3.2c0.3-0.5,1-0.6,1.5-0.3
				c0.5,0.3,0.6,1,0.3,1.5c-0.6,0.9-1.2,1.9-1.9,3.1c-1.4,2.3-2.1,5.3-2.3,9.5c-0.1,1.6-0.1,3.3,0,4.9c0,1.6,0,3.2,0,4.8
				c0,0.4,0,1-0.1,1.1c-0.1,1.7,0.5,4.7,1.4,6.3c3.4,6,8.7,9.5,14.9,9.9c9.8,0.6,19.5-7.9,21.4-18.9c0.1-0.6,0.7-1,1.2-0.9
				c0.6,0.1,1,0.7,0.9,1.2C64.4,51,54.7,59.8,44.1,59.8z"/>
		</g>
		<g>
			<path d="M62.1,40.3c-0.5,0-1-0.4-1-0.9c-0.1-0.6,0.3-1.1,0.9-1.2c0.3-0.1,0.7-0.1,1.3-0.1c2.5-0.1,4.1-0.4,4.2-1.6
				c0-1.1-0.2-1.9-0.8-2.5c-0.6-0.6-1.5-1-2.8-1c-0.4,0-0.8,0-1.3,0c-0.6,0.1-1.1-0.4-1.2-0.9c-0.1-0.6,0.4-1.1,0.9-1.2
				c0.6-0.1,1.1-0.1,1.6-0.1c1.8,0.1,3.3,0.6,4.2,1.7c0.9,1,1.4,2.4,1.3,4c-0.1,3.4-4.2,3.5-6.2,3.6c-0.4,0-0.8,0-1,0.1
				C62.2,40.3,62.1,40.3,62.1,40.3z"/>
		</g>
		<g>
			<path d="M39.8,46.7c-0.1,0-0.2,0-0.3,0c-1,0-1.8-0.3-2.4-0.7c-0.5-0.4-1.2-1.1-1.1-2.4c0.1-1.3,0.9-2.2,1.2-2.5
				c0.5-0.5,1-0.8,1.5-1.2c1.3-0.9,2.6-1.7,2.7-5.9c0.1-2.8-1.1-4.1-3.8-4.3c-1.4-0.1-3,0.2-4.4,0.5c-0.6,0.1-1.1-0.3-1.3-0.8
				c-0.1-0.6,0.3-1.1,0.8-1.3c1.5-0.3,3.2-0.6,4.9-0.6c3.8,0.2,6,2.6,5.8,6.5c-0.2,5.3-2.1,6.6-3.7,7.6c-0.4,0.3-0.8,0.5-1.1,0.8
				c-0.4,0.5-0.6,0.8-0.6,1.1c0,0.5,0.1,0.6,0.2,0.6c0.1,0.1,0.5,0.3,1.3,0.3c0.5,0,1.1-0.1,1.7-0.1c0.7-0.1,1.4-0.2,2.1-0.2
				c0.6,0,1,0.5,1,1.1c0,0.6-0.5,1-1.1,1c-0.6,0-1.1,0.1-1.8,0.1C41,46.6,40.4,46.7,39.8,46.7z"/>
		</g>
		<g>
			<path d="M43.7,54.1c-0.1,0-0.2,0-0.3,0c-0.7,0-1.4-0.1-2.1-0.4c-0.6-0.2-0.9-0.8-0.7-1.3c0.2-0.6,0.8-0.9,1.3-0.7
				c0.5,0.2,1,0.2,1.5,0.3c1.3,0.1,2.6-0.3,3.8-1c0.5-0.3,1.2-0.1,1.5,0.4c0.3,0.5,0.1,1.2-0.4,1.5C47,53.7,45.3,54.1,43.7,54.1z"/>
		</g>
		<g>
			<path d="M33.8,35.3c-0.1,0-0.3,0-0.4,0c-0.2,0-0.5,0-0.7,0c-0.2,0-0.4,0-0.7,0c-0.6,0-1-0.5-1-1.1c0-0.6,0.5-1,1.1-1
				c0.2,0,0.5,0,0.7,0c0.2,0,0.5,0,0.7,0c0.7,0,1.2,0,1.7-0.2c0.5-0.2,1.2,0,1.4,0.5c0.2,0.5,0,1.2-0.5,1.4
				C35.2,35.2,34.4,35.3,33.8,35.3z"/>
		</g>
		<g>
			<path d="M49.5,34.9c-0.1,0-0.2,0-0.2,0c-0.5,0-1.1-0.1-1.6-0.3c-0.6-0.2-0.9-0.8-0.7-1.3c0.2-0.6,0.8-0.9,1.3-0.7
				c0.3,0.1,0.7,0.2,1,0.2c0.7,0,1.3-0.1,2-0.4c0.5-0.2,1.2,0,1.4,0.5c0.2,0.5,0,1.2-0.5,1.4C51.3,34.7,50.4,34.9,49.5,34.9z"/>
		</g>
		<g>
			<path d="M31,27.1c-0.5,0-0.9-0.3-1-0.8c-0.2-0.6,0.2-1.2,0.7-1.3c0.4-0.1,0.8-0.3,1.2-0.4c1.3-0.4,2.6-0.9,4.1-0.8
				c0.2,0,0.4,0,0.6,0.1c0.6,0.1,1,0.6,0.9,1.2c-0.1,0.6-0.6,1-1.2,0.9c-0.1,0-0.3,0-0.4,0c-1.1-0.1-2.2,0.3-3.4,0.7
				c-0.4,0.2-0.9,0.3-1.3,0.4C31.2,27.1,31.1,27.1,31,27.1z"/>
		</g>
		<g>
			<path d="M53.2,26.4c-0.2,0-0.3,0-0.5-0.1c-0.2-0.1-0.5-0.2-0.8-0.2c-0.3,0-0.6,0-0.9,0c-0.4,0-0.7,0.1-1.1,0
				c-0.4,0-0.8-0.1-1.2-0.2c-0.6-0.2-0.9-0.8-0.7-1.3c0.2-0.6,0.8-0.9,1.3-0.7c0.2,0.1,0.4,0.1,0.6,0.1c0.3,0,0.6,0,0.9,0
				c0.4,0,0.7-0.1,1.1,0c0.6,0,1.1,0.2,1.6,0.4c0.5,0.3,0.8,0.9,0.5,1.4C54,26.2,53.6,26.4,53.2,26.4z"/>
		</g>
		<g>
			<path d="M64.4,29.9c-0.1,0-0.3,0-0.4,0c-3.7-0.2-4.9-3.1-6-5.8c-1.1-2.8-2.1-5.3-5.7-5.4c-0.5,0-2.4,0.2-7.6,3.6
				c-0.3,0.2-0.4,0.3-0.8,0.3c-0.2,0-0.3,0-0.5-0.1c-1.7-0.6-2.1-2.1-2.3-3.1c-0.3-1.4-0.5-2.3-3.4-2.4c-2.9-0.1-6.5,1.8-8.5,4.4
				c-0.4,0.5-1,0.6-1.5,0.2c-0.5-0.4-0.6-1-0.2-1.5c2.4-3.2,6.7-5.3,10.3-5.2c4.5,0.2,5,2.5,5.4,4.1c0.2,0.8,0.3,1.2,0.7,1.5
				c4-2.5,6.8-3.8,8.5-3.7c5,0.2,6.4,3.8,7.5,6.8c1.1,2.8,1.8,4.3,4.1,4.4c0.3,0,0.6,0,1,0c0.6,0,1.1,0.4,1.1,1c0,0.6-0.4,1.1-1,1.1
				C65,29.9,64.7,29.9,64.4,29.9z"/>
		</g>
		<g>
			<path d="M29,18.7c-0.2,0-0.3,0-0.5,0c-0.5,0-1.1-0.1-1.6-0.1c-0.5-0.1-1-0.1-1.5-0.1c-1.3-0.1-1.5-0.9-1.6-1.2
				c-0.4-3.1,13.5-7.9,15.1-8.4c0.6-0.2,1.2,0.1,1.3,0.7c0.2,0.6-0.1,1.2-0.7,1.3c-6.9,2.3-10.9,4.4-12.7,5.6c0.1,0,0.1,0,0.2,0
				c0.5,0.1,1,0.1,1.5,0.1c1.1,0,1.9-0.1,2.6-0.5c0.5-0.3,1.2-0.1,1.5,0.4c0.3,0.5,0.1,1.2-0.4,1.5C31.2,18.5,30,18.7,29,18.7z"/>
		</g>
		<g>
			<path d="M32.6,66.6c-0.4,0-0.8-0.3-1-0.7c-0.2-0.5,0-1.2,0.6-1.4c2.8-1.1,5.6-2.7,7.2-6.2c0.2-0.5,0.9-0.8,1.4-0.5
				c0.5,0.2,0.8,0.9,0.5,1.4c-1.9,4.3-5.3,6.1-8.3,7.3C32.9,66.6,32.7,66.6,32.6,66.6z"/>
		</g>
		<g>
			<path d="M78.2,90.6c-0.6,0-1-0.4-1.1-1c-0.1-1.8-0.1-3.6,0-5.4c0.1-2.8,0.2-5.5-0.4-8.2c-2-9.3-10.1-11.2-16.6-12.7
				c-4.7-1.1-8.7-2-8.6-5.7c0-0.2,0-0.3,0.1-0.5c0.1-0.6,0.6-1,1.2-0.9c0.6,0.1,1,0.6,0.9,1.2c0,0.1,0,0.2,0,0.3
				c-0.1,1.8,2.6,2.5,6.9,3.6c6.7,1.6,15.9,3.7,18.2,14.3c0.6,3,0.5,5.9,0.4,8.7c-0.1,1.7-0.1,3.5,0,5.2
				C79.3,90.1,78.8,90.6,78.2,90.6C78.2,90.6,78.2,90.6,78.2,90.6z"/>
		</g>
		<g>
			<path d="M11.1,96c-0.5,0-1-0.4-1.1-0.9c-0.5-3.2-0.9-6.5-1.4-9.7c-0.9-6.3-1.9-12.8-2.7-19.3c0-0.3,0.1-0.6,0.3-0.8
				c0.2-0.2,0.5-0.4,0.8-0.3c6.6,0.2,13.3,0,19.8-0.3c4.6-0.2,9.4-0.3,14.1-0.3c0.5,0,1,0.4,1,0.9c1,5.4,2.1,11.5,3,16.9
				c1,5.9,1.9,10.9,2.2,12.1c0.1,0.3,0,0.6-0.2,0.9c-0.2,0.3-0.5,0.4-0.8,0.4C33.9,95.8,21.6,95.9,11.1,96z M8.1,67.1
				c0.8,6,1.7,12.1,2.6,18c0.4,2.9,0.9,5.9,1.3,8.8c10-0.1,21.4-0.2,32.8-0.5c-0.4-2.1-1.1-6.1-1.9-10.9c-0.9-5.1-1.9-10.8-2.8-16
				c-4.4,0-8.8,0.2-13.1,0.3C20.7,67,14.4,67.2,8.1,67.1z"/>
		</g>
		<g>
			<path d="M11.6,99.6c-0.6,0-1.1-0.5-1.1-1.1c0-0.6,0.5-1.1,1.1-1.1c10.1-0.1,20.3-0.3,30.2-0.6c5.2-0.1,10.4-0.3,15.6-0.4
				c0.6,0,1.1,0.5,1.1,1c0,0.6-0.5,1.1-1,1.1c-5.2,0.1-10.4,0.2-15.6,0.4C32,99.3,21.8,99.5,11.6,99.6z"/>
		</g>
		<g>
			<path d="M1.8,94.2c-0.5,0-0.9-0.1-1.2-0.4C0.2,93.5,0,93.1,0,92.6c0.2-4.1,2.5-8.6,7.3-9.2c0.6-0.1,1.1,0.3,1.2,0.9
				c0.1,0.6-0.3,1.1-0.9,1.2C4,86,2.5,89.2,2.2,92.1c0.5-0.1,1.3-0.3,1.9-0.4c1.6-0.4,3.7-0.9,5.8-1c0.6,0,1.1,0.4,1.1,1
				c0,0.6-0.4,1.1-1,1.1c-1.9,0.1-3.8,0.5-5.4,0.9C3.4,94,2.5,94.2,1.8,94.2z"/>
		</g>
		<g>
			<path d="M24.6,86.4c-0.2,0-0.5-0.1-0.6-0.2L23.7,86c-2.1-1.6-4.3-3.3-6.3-5c-0.3-0.2-0.4-0.5-0.4-0.9c0-0.3,0.2-0.6,0.5-0.8
				c1.8-1.2,3.6-2.4,5.4-3.7l1.7-1.1c0.4-0.3,1-0.2,1.4,0.2c1.4,1.5,2.9,3,4.6,4.4c0.2,0.2,0.4,0.5,0.4,0.8c0,0.3-0.1,0.6-0.3,0.8
				C28.9,82.2,27,84,25.4,86C25.2,86.2,24.9,86.4,24.6,86.4z M19.8,80.2c1.5,1.2,3.1,2.4,4.6,3.6c1.2-1.4,2.6-2.7,3.9-4
				c-1.2-1-2.3-2.1-3.3-3.1l-0.9,0.6C22.7,78.3,21.3,79.3,19.8,80.2z"/>
		</g>
		<g>
			<path d="M59.8,95.7c-0.1,0-0.2,0-0.2,0c-2.7-0.1-4.8-2.3-6.6-4.2c-0.3-0.4-0.7-0.7-1-1c-1.4,1.5-2.9,2.7-4.8,2.6
				c-0.8,0-1.5-0.3-2-0.7c-0.7-0.5-1-1.3-1-2.2c0.2-5.8,9-11.6,13.6-11.4c2.2,0.1,4.3,1.4,5.8,3.7c1.4,2,2.1,4.4,2,6.5
				c-0.1,1.7-0.6,3.4-1.6,4.6C63,95,61.5,95.7,59.8,95.7z M53.4,88.9c0.4,0.4,0.7,0.7,1.1,1.1c1.6,1.7,3.3,3.5,5.1,3.6
				c1.1,0,2-0.4,2.7-1.3c0.7-0.9,1.1-2.1,1.1-3.4c0.1-3.1-2.3-7.9-5.8-8c-1.7-0.1-4.5,1.2-7,3c-2.7,2-4.4,4.4-4.5,6.4
				c0,0.2,0,0.3,0.2,0.4c0.2,0.1,0.5,0.2,0.8,0.3c0,0,0.1,0,0.1,0c1.3,0,2.7-1.5,4.1-3c1-1.1,2.1-2.3,3.4-3.1
				c0.5-0.3,1.2-0.2,1.5,0.3c0.3,0.5,0.2,1.1-0.3,1.5C55,87.2,54.2,88,53.4,88.9z"/>
		</g>
		<g>
			<path d="M75,90.9c-0.4,0-0.8-0.2-1-0.6c-1.5-3.4-5.5-4.7-8.4-4.8c-0.4,0-0.9,0-1.3,0c-0.6,0.1-1.1-0.4-1.1-1c0-0.6,0.4-1.1,1-1.1
				c0.5,0,1,0,1.6,0c3.5,0.1,8.3,1.8,10.3,6.1c0.2,0.5,0,1.2-0.5,1.4C75.3,90.9,75.1,90.9,75,90.9z"/>
		</g>
		<g>
			<path d="M72.5,95.7c-0.4,0-0.8,0-1.2,0c-1.2-0.1-2.5-0.2-3.7-0.3c-1.2-0.1-2.5-0.3-3.7-0.3c-0.3,0-0.7,0-1,0
				c-0.6,0-1.1-0.5-1.1-1.1c0-0.6,0.5-1.1,1.1-1.1c0.4,0,0.8,0,1.2,0c1.3,0.1,2.6,0.2,3.8,0.3c1.2,0.1,2.4,0.3,3.5,0.3
				c3.2,0.1,4.4-0.3,4.8-0.7c0.3-0.3,0.4-0.8,0.4-1.7c0-0.7,0-1.4,0.3-2.2c0.2-0.6,0.8-0.9,1.3-0.7c0.6,0.2,0.9,0.8,0.7,1.3
				c-0.2,0.5-0.2,1-0.2,1.6c0,1.1-0.1,2.3-1.1,3.2C76.7,95.3,75.1,95.7,72.5,95.7z"/>
		</g>
		<g>
			<path d="M85.9,20c-0.3,0-0.5,0-0.8,0c-4.5-0.2-7.8-1.9-9.7-4.9c-1.6-2.6-2.3-6.3-2.1-11.3c0-0.6,0.5-1,1.1-1c0.6,0,1,0.5,1,1.1
				c-0.2,4.5,0.4,7.8,1.8,10.1c1.5,2.5,4.2,3.8,8,3.9C94.2,18.2,95.5,11.6,97,4l0.1-0.5c0.1-0.6,0.7-0.9,1.2-0.8
				c0.6,0.1,1,0.7,0.8,1.2l-0.1,0.5C97.7,11.7,96.1,20,85.9,20z"/>
		</g>
		<g>
			<path d="M85.4,14.3c-0.1,0-0.1,0-0.2,0c-2.3-0.1-3.6-0.9-3.5-2.2c0-0.6,0.5-1.1,1.1-1c0.5,0,0.9,0.4,1,0.8
				c0.2,0.1,0.8,0.2,1.5,0.3c0.5,0,0.7-0.1,0.9-0.4c0.3-0.5,1-0.6,1.5-0.2c0.5,0.3,0.6,1,0.2,1.5C87.3,13.8,86.4,14.3,85.4,14.3z"/>
		</g>
		<g>
			<path d="M85.8,9.1C85.8,9.1,85.8,9.1,85.8,9.1l-0.5,0c-1,0-1.7-0.3-2.2-0.9c-0.7-0.8-0.7-1.8-0.6-2.7l0-0.3
				c0.1-1.4,0.3-2.8,0.7-4.5C83.4,0.2,84-0.1,84.6,0c0.6,0.2,0.9,0.7,0.8,1.3c-0.4,1.5-0.6,2.8-0.7,4l0,0.3c0,0.4-0.1,1,0.1,1.1
				C84.8,6.9,85,7,85.4,7l0.4,0c0.6,0,1,0.5,1,1.1C86.9,8.7,86.4,9.1,85.8,9.1z"/>
		</g>
		<g>
			<path d="M65.9,24.5c-0.4,0-0.8-0.3-1-0.7c-0.2-0.5,0-1.2,0.6-1.4l0.9-0.4c4.9-2,9.9-4,15.4-4.4c0.6-0.1,1.1,0.4,1.1,1
				c0,0.6-0.4,1.1-1,1.1c-5.1,0.4-10,2.4-14.7,4.3l-0.9,0.4C66.2,24.5,66,24.5,65.9,24.5z"/>
		</g>
		<g>
			<path d="M89.2,82c-0.4,0-0.8-0.2-1-0.6c-0.7-1.5-1.2-2.8-1.5-4c-0.2,0.1-0.3,0.1-0.5,0.2c-0.5,0.2-1,0.4-1.4,0.5
				c-0.3,0.1-0.6,0.1-0.8,0c-0.3-0.1-0.5-0.3-0.6-0.6c-1.8-4.8-3.2-9.9-4.3-15.5c-0.1-0.6,0.3-1.1,0.8-1.2c1-0.2,2.1-0.5,3.1-0.7
				c0.8-0.2,1.5-0.4,2.3-0.5c-1.7-2.3-3.1-4.6-3-7c0-1.2,0.6-2.5,1.4-3.4c1-1.1,2.2-1.7,3.6-1.7c3,0.1,3.4,2.4,3.7,4.1
				c0.4,2.2,0.7,4.3,5.2,4.9c1.7,0.2,6.4,3.9,6,13.2l0,1.1c0,0.1,0,0.3-0.1,0.4c2.6-3.4,4.5-8.1,4.8-14.7
				c0.8-20.1-4.5-31.9-16.3-36.1c-0.6-0.2-0.8-0.8-0.6-1.4c0.2-0.6,0.8-0.8,1.4-0.6c12.6,4.5,18.6,17.3,17.7,38.2
				c-0.8,18.5-13.4,23.2-19.4,25.5C89.5,82,89.4,82,89.2,82z M87.5,74.9c0.2,0,0.3,0,0.5,0.1c0.3,0.1,0.5,0.4,0.5,0.7
				c0.3,1.2,0.7,2.4,1.3,3.9c3.4-1.3,8.3-3.4,12-8.1c-0.2,0.2-0.5,0.3-0.7,0.2c-0.6,0-1-0.5-1-1.1l0-1.1c0.4-9-4.2-11-4.2-11
				c-6-0.7-6.6-4.3-7-6.6c-0.3-1.9-0.5-2.3-1.7-2.4c-0.9,0-1.5,0.5-1.9,0.9c-0.5,0.6-0.8,1.4-0.9,2.1c-0.1,2.1,1.7,4.6,3.6,7
				c0.2,0.3,0.3,0.7,0.2,1c-0.1,0.3-0.4,0.6-0.8,0.7c-1.3,0.2-2.6,0.5-3.9,0.8c-0.7,0.2-1.4,0.3-2.1,0.5c1,4.8,2.1,9.1,3.6,13.2
				c0.1-0.1,0.3-0.1,0.4-0.2c0.5-0.2,1-0.4,1.5-0.6C87.2,75,87.3,74.9,87.5,74.9z"/>
		</g>
		<g>
			<path d="M98.1,59.5c-0.2,0-0.4,0-0.5-0.1c-0.5-0.3-0.7-0.9-0.4-1.4c1.7-3,2.6-6.7,2.8-11.5c0.1-2.3,0-4.7,0-7c0-0.6,0-1.2,0-1.9
				c0-0.6,0.5-1.1,1-1.1c0.6,0,1.1,0.5,1.1,1c0,0.6,0,1.2,0,1.8c0.1,2.3,0.1,4.8,0,7.2c-0.2,5.2-1.2,9.2-3.1,12.5
				C98.8,59.3,98.5,59.5,98.1,59.5z"/>
		</g>
		<g>
			<path d="M81.8,67.6c-0.5,0-0.9-0.3-1-0.8c-0.1-0.6,0.3-1.1,0.8-1.3c1.4-0.3,2.7-0.5,4-0.6c1.3-0.2,2.6-0.3,3.9-0.6
				c0.6-0.1,1.1,0.3,1.3,0.8c0.1,0.6-0.3,1.1-0.8,1.3c-1.4,0.3-2.7,0.5-4,0.6c-1.3,0.2-2.6,0.3-3.9,0.6C82,67.5,81.9,67.6,81.8,67.6
				z"/>
		</g>
		<g>
			<path d="M83.2,73c-0.1,0-0.2,0-0.3,0c-0.6,0-1-0.5-1-1.1c0-0.6,0.5-1,1.1-1c1,0,2-0.2,3-0.4c1.1-0.2,2.3-0.5,3.5-0.4
				c0.6,0,1,0.5,1,1.1c0,0.6-0.5,1-1.1,1c-1,0-2,0.2-3,0.4C85.4,72.8,84.4,73,83.2,73z"/>
		</g>
		<g>
			<path d="M87.4,77.2c-0.1,0-0.1,0-0.2,0c-0.6,0-1-0.5-1-1.1c0-0.6,0.5-1.1,1.1-1c0.5,0,1-0.2,1.5-0.4c0.4-0.1,0.8-0.3,1.2-0.4
				c0.6-0.1,1.1,0.3,1.3,0.8c0.1,0.6-0.3,1.1-0.8,1.3c-0.2,0.1-0.5,0.2-0.8,0.3C89,76.9,88.2,77.2,87.4,77.2z"/>
		</g>
		<g>
			<path d="M83.7,45.1c-0.3,0-0.6-0.1-0.8-0.3c-3.3-3.7-8.5-13.3-10.5-16.9c-0.3-0.5-0.5-0.9-0.6-1.1c-0.3-0.5-0.1-1.2,0.4-1.4
				c0.5-0.3,1.2-0.1,1.4,0.4c0.1,0.2,0.3,0.6,0.6,1.1c1.6,3,6.2,11.5,9.4,15.6c1.1-1.4,2.2-2.7,3.3-4.1c3.7-4.4,7.1-8.6,9.7-13.4
				c0.3-0.5,0.9-0.7,1.4-0.4c0.5,0.3,0.7,0.9,0.4,1.4c-2.7,5-6.4,9.4-9.9,13.7c-1.4,1.6-2.8,3.3-4.1,5C84.3,44.9,84,45.1,83.7,45.1
				C83.7,45.1,83.7,45.1,83.7,45.1z"/>
		</g>
		<g>
			<path d="M85.1,26c-0.1,0-0.1,0-0.2,0c-4.1-0.2-4.3-2.9-4.2-5.4l0-0.8c0-0.6,0.5-1,1.1-1c0.6,0,1,0.5,1,1.1l0,0.8
				c-0.1,2.8,0.3,3.1,2.2,3.2c0.5,0,0.9-0.1,1.1-0.4c0.2-0.3,0.4-0.7,0.4-1.2c0-0.6-0.1-1.3-0.3-1.9c-0.1-0.6,0.2-1.1,0.8-1.3
				c0.6-0.1,1.1,0.2,1.3,0.8c0.2,0.7,0.4,1.6,0.3,2.5c0,1-0.4,1.9-1,2.5C87.1,25.5,86.3,26,85.1,26z"/>
		</g>
		<g>
			<path d="M77.1,35c-0.2,0-0.3,0-0.5-0.1c-0.5-0.3-0.8-0.9-0.5-1.4c0.3-0.7,0.6-1.4,1-2.1c1.1-2.5,2.3-5,4-7.3
				c0.4-0.5,1-0.6,1.5-0.2c0.5,0.4,0.6,1,0.2,1.5c-1.6,2.1-2.7,4.5-3.8,6.9c-0.3,0.7-0.7,1.4-1,2.1C77.9,34.8,77.5,35,77.1,35z"/>
		</g>
		<g>
			<path d="M92,34.3c-0.3,0-0.6-0.1-0.8-0.3c-1.6-1.7-2.8-3.7-3.9-5.6c-0.6-1.1-1.2-2.1-1.9-3c-0.3-0.5-0.2-1.1,0.3-1.5
				c0.5-0.3,1.1-0.2,1.5,0.3c0.7,1,1.3,2.1,2,3.1c1.1,1.8,2.2,3.7,3.6,5.3c0.4,0.4,0.4,1.1-0.1,1.5C92.5,34.2,92.2,34.3,92,34.3z"/>
		</g>
		<g>
			<path d="M35.5,66.5c-0.3,0-0.6-0.1-0.8-0.4c-0.3-0.3-0.5-0.7-0.8-1c-0.3-0.5-0.2-1.1,0.3-1.5c0.5-0.3,1.1-0.2,1.5,0.3
				c0.2,0.3,0.4,0.6,0.6,0.9c0.4,0.5,0.3,1.1-0.2,1.5C36,66.4,35.8,66.5,35.5,66.5z"/>
		</g>
		<g>
			<path d="M47.1,71.6c-0.2,0-0.5,0-0.7,0c-1.8-0.1-3.5-0.4-5.1-1c-0.6-0.2-0.8-0.8-0.6-1.4c0.2-0.6,0.8-0.8,1.4-0.6
				c1.4,0.5,2.9,0.8,4.5,0.9c5.4,0.2,10-2.3,13.7-7.6c0.3-0.5,1-0.6,1.5-0.3c0.5,0.3,0.6,1,0.3,1.5C58,68.7,52.9,71.6,47.1,71.6z"/>
		</g>
	</g>
</g>
</svg>
