<?xml version="1.0" encoding="utf-8"?>
<!-- Generator: Adobe Illustrator 21.1.0, SVG Export Plug-In . SVG Version: 6.00 Build 0)  -->
<svg version="1.1" id="lineart" xmlns="http://www.w3.org/2000/svg" xmlns:xlink="http://www.w3.org/1999/xlink" x="0px" y="0px"
	 viewBox="0 0 85.5 95.9" style="enable-background:new 0 0 85.5 95.9;" xml:space="preserve">
<style type="text/css">
	.st0{fill:#E55A2F;}
</style>
<g>
	<g>
		<g>
			<path class="st0" d="M44,32.5c0.7-0.9,1-2.1,0.8-3.5c-0.5-2.5-2.5-3.8-4.6-3.9c-2.4-1.1-5.7-0.3-6.6,2.4c0,0.1-0.1,0.3-0.1,0.4
				c-0.6,1.3-0.6,2.8,0.2,4.1c0,0.3,0,0.6,0,0.9c0.2,2.5,2.5,4.3,4.9,4.2c2-0.1,3.6-1.3,4.6-2.9C43.5,33.7,43.8,33.1,44,32.5z"/>
		</g>
		<g>
			<path class="st0" d="M59.4,27.5c-0.7-4.9-3.9-12-9.8-11.7c-1.2,0.1-2,1.3-1.4,2.4c1.7,3,3.8,5.3,4.6,8.8
				c0.8,3.7,0.2,7.8-1.7,11.1c-1.8,3.4-5,5.9-8.9,6.3c-3.8,0.4-10.7-1.1-13.4-4.1c-0.4-0.4-1.1-0.2-1.2,0.3c-1.1,4.9,7.4,7.6,11,8.5
				c6.2,1.5,12.2-0.2,16.2-5.2C58.5,39.3,60.1,33.3,59.4,27.5z"/>
		</g>
		<g>
			<path class="st0" d="M36.4,58.2c-0.2-0.9-1.4-1.3-2.1-0.9c-1.6,1-2.2,2.5-4.3,3c-2.3,0.5-4.5-0.4-6.8-0.3c-0.7,0-1.3,1-0.7,1.6
				c2.4,1.9,6,2.9,9.1,2.1C34,63,37,61,36.4,58.2z"/>
		</g>
		<g>
			<path class="st0" d="M52.7,55.8c-0.1-0.8-0.6-1.6-1.6-1.6c-1.3,0-1.7,1.4-2.1,2.4c-0.9,2.4-2.5,4.4-5.2,4.7
				c-0.6,0-0.8,0.8-0.3,1.1c1.8,1.1,4.2,0.8,5.9-0.4C51.1,60.8,53,58,52.7,55.8z"/>
		</g>
		<g>
			<path class="st0" d="M62.4,47.2c-0.5-0.1-1.1,0-1.4,0.4c-1.1,1.3-0.5,3.1-1,4.7c-0.5,1.5-1.9,2.6-3.1,3.5
				c-0.5,0.3-0.4,1.1,0.2,1.2c2.5,0.7,4.8-0.6,6.2-2.6C64.5,52.4,65.2,48.1,62.4,47.2z"/>
		</g>
		<g>
			<path class="st0" d="M52.5,19.2c-0.8-0.6-2.1-0.3-2.1,0.9c0,3.4,1.6,6.6,1.3,10.1c-0.2,3.4-1.6,6.6-4,9c-2.6,2.6-6,3.7-9.7,3.4
				c-3.5-0.2-7-2.2-10.5-1.9c-0.1,0-0.1,0.1-0.1,0.2c2,3.3,7,4.7,10.6,5.1c4.4,0.4,8.6-0.8,12-3.7C55.7,37.4,59.3,24.7,52.5,19.2z"
				/>
		</g>
		<g>
			<path class="st0" d="M23.3,70.2c-0.1-0.9-0.5-1.3-1.3-1.7c-2.7-1.1-5.2,0.9-7.1,2.7c-2.4,2.3-2.5,5.6-3.3,8.6
				c-0.4,1.7-0.9,3.3-1.5,4.9c-0.3,1-0.7,1.9-1.2,2.8c-0.8,0.3-1.5,0.3-2.3-0.2c-0.4,0.1-1.9,0-1.9,0.7c0.1,2.2,2.5,4.1,4.7,4.2
				c2.7,0.2,4.3-2,5.7-4.1c1.9-2.9,2.9-6.4,3.5-9.8c0.5-2.5,1-2.7,2.8-4.3C22.9,72.9,23.5,72,23.3,70.2z"/>
		</g>
		<g>
			<path class="st0" d="M33.8,69.1c-2.8,0.7-4.6,3.3-6,5.7c-0.7,1.2-1.4,2.5-2.6,3.3c-0.5,0.4-1.5,0.8-1.2,1.6
				c0.9,2.6,4.5,1.5,6.2,0.5c2.4-1.5,3.4-4.3,6-5.6C39.3,73.1,37.1,68.2,33.8,69.1z"/>
		</g>
		<g>
			<path class="st0" d="M53.7,74c-0.4-1.3-1.6-1.8-2.9-1.6c-3.4,0.5-3.7,4.6-4.3,7.3c-0.3,1.5-0.5,3.6-1.4,4.8
				c-0.7,1.1-2.2,1.3-3,2.3c-0.4,0.5-0.5,1.1-0.2,1.7c2.2,4.3,7.9,2.1,9.7-1.2C53.6,83.9,55,78,53.7,74z"/>
		</g>
		<g>
			<path class="st0" d="M70.6,64.1c-0.1-0.9-0.8-1.8-1.8-1.8c-4,0.2-6,4.4-7,7.8c-0.5,1.8-0.7,3.7-1.2,5.5c-0.5,1.7-0.9,2-2.3,2.4
				c-0.1,0-0.2,0-0.2,0.1c-0.4,0.1-0.8,0.4-0.9,0.9c-0.3,1.7,0.4,2.9,2.1,3.4c2.3,0.7,4.7-1,5.9-2.9c1.5-2.2,1.8-4.7,2.5-7.1
				C68.5,69.5,70.8,67,70.6,64.1z"/>
		</g>
		<g>
			<path class="st0" d="M83.9,52.6c-0.3-2.5-0.8-5.1-1.4-7.6c-1.1-4.5-2.8-8.8-4.3-13.2c-0.3-0.7-0.5-1.5-0.8-2.2
				c3.8-4.8,2.7-16.3,1.4-20.3c-0.2-0.8-1.4-1-1.8-0.2c-0.2,0.4-0.4,0.7-0.5,1.1c-0.1,0-0.3,0-0.4,0.1c-1.4,1-2.4,2.6-3.6,3.8
				c-1.1,1.2-3,2.5-3.4,4.2c-0.2,0.8,0.4,1.9,1.4,1.8c0.2,0,0.3-0.1,0.4-0.1c-0.1,0.2-0.2,0.4-0.2,0.7c0.1,1.1,0.3,2.1,0.5,3.2
				c-1.3-2.5-2.7-4.8-4.4-7.1c-3.4-4.6-8.7-11.1-14.9-11.7c-0.1,0-0.1,0.1-0.1,0.1c1.5,2.3,3.8,4,5.6,6c2.3,2.5,4.2,5.4,5.8,8.3
				c3,5.7,5.1,11.8,6.9,18c2.3,7.7,4,15.7,4.9,23.6c0.1,0.5,0.1,1,0.2,1.5c0,3.5-0.1,7-0.2,10.5c0,1.1-0.1,2.3-0.1,3.5
				c-0.4,1.9-1.1,3.8-2.1,5.4c-0.1,0.1-0.3,0.2-0.5,0.3c-0.6,0.2-1,0.1-1.3-0.2c-1.1-2.9-1.5-6.2-1.6-8.4c-0.1-1.9-2.5-3.2-3.9-1.6
				c-1.4,1.5-2,3.1-2.5,5.1c-0.2,0.6-0.3,2.2-0.7,2.8c-2.5,3.3-5.4-1-6.7-2.6c-0.1-0.2-0.3-0.3-0.5-0.4c0-0.3,0-0.7,0-1
				c0.2-0.5,0.1-1.1-0.4-1.5c-0.1-0.1-0.2-0.1-0.2-0.2c-0.5-0.4-1.4-0.1-1.7,0.4c-0.5,1.1-0.6,2.4-0.5,3.6c-1,2.7-0.4,5.4-1.1,8.1
				c-1.2,4.7-8.9,2.7-10.3-0.8c-1-2.4-0.1-5.6-0.1-8c0-2.3-0.4-4.3-1.4-6.4c-0.8-1.6-2.8-1.5-4-0.5c-3,2.3-3.3,5.9-5.5,8.7
				c-1.7,2.2-4.2,2-5.7-0.3c-1.1-1.8-1.3-4.1-2.4-6c-0.9-1.6-3.5-1.7-4.4,0c-2.1,3.9-1.9,7.9-2.6,12.2c-0.1,0.7-0.2,1.4-0.4,2.1
				C14.3,87.2,14,87,13.7,87c-4.8-0.3-7.2-2.3-8.4-7C4.3,76.4,4,72.5,3.9,68.7c-0.2-3.7-0.1-7.3-0.1-11c0.1-3.6,0.7-7.5-0.4-11
				c0-0.1-0.2-0.1-0.2,0C0.9,51,1.1,57,0.8,61.7C0.5,67.3,0.7,73,1.5,78.5c0.6,3.8,1.6,7.8,4.9,10.2c2.1,1.5,4.7,2.3,6.9,1.2
				c-0.3,0.4-0.7,0.8-1.1,1.2c-2.9,2.1-6.3-0.5-7.4-3.3c-0.2-0.6-1.3-0.8-1.4,0c-1,5.6,5.2,9.6,10.2,7.6c5.7-2.2,5.9-7.9,6.6-13.2
				c0.3,0.6,0.8,1.1,1.3,1.6c1.8,1.7,4.5,2.5,6.9,2.1c4.6-0.6,5.9-4.1,7.5-7.4c-0.1,2.4-0.5,4.9,0,7.3c0.8,3.7,3.5,6.1,7.1,7.2
				c3.1,0.9,7.1,1.4,9.5-1.3c2.1-2.4,2.1-5.3,2.4-8.2c0.2,0.1,0.5,0.1,0.7,0c0.1,0,0.1-0.1,0.2-0.1c1.9,1.7,4.3,2.7,7,1.7
				c1.9-0.7,2.8-1.9,3.3-3.3c1,3.2,2.6,6.2,5,8.3c3.1,2.8,7.5,2.7,10.1-0.7c3.2-4.2,3.4-11,3.9-16C85.8,66.6,85.8,59.3,83.9,52.6z
				 M73.5,20.6c0,0.2-0.1,0.3-0.1,0.5c-0.2-0.3-0.4-0.6-0.6-0.9c-0.2-0.3-0.5-0.4-0.9-0.5c0.9-0.5,1.6-1.3,2.3-2.1
				C73.9,18.5,73.7,19.5,73.5,20.6z"/>
		</g>
		<g>
			<path class="st0" d="M14,10.5c-1.7-0.1-3.5-0.1-5.2-0.4C7.4,9.8,6,9.4,4.5,9.2c-1-0.1-1.7,1.5-0.9,2.1c0.8,0.7,1.8,1.2,2.9,1.7
				c-0.2,0.1-0.4,0.3-0.4,0.6c0.1,1.3,1.1,2.5,2,3.3c1.2,1.1,2.5,2.1,4.1,1.9c1-0.1,1.5-1.6,1-2.4c-0.8-1.1-2-1.4-3.2-2
				c-0.3-0.2-0.6-0.4-1-0.6c1.7,0.4,3.4,0.5,5,0.4C16.4,14,16.4,10.6,14,10.5z"/>
		</g>
	</g>
	<g>
		<g>
			<g>
				<path d="M10.2,92.4c-4.5,0-7.5-3.5-9-10.3C0,76.7,0,70.2,0,65.5v-0.2C0,43,4.5,25.9,13.3,14.4C20.5,5.1,30.6,0,41.7,0
					c12.5,0,22.9,7.2,30.2,20.8C77.9,32,81.3,47,81.3,62c0,0.9,0,1.8,0,2.6c0.1,2.6,0.2,4.6,0.2,6.5c0,6.2,0,17.8-7,17.8
					c-2.7,0-5.9-1.8-5.9-10.5c0-1.1,0-2.2,0.1-3.3c0-1.1,0.1-2.1,0.1-3.2c0-3.1-0.8-7.1-1.6-7.6c-2,0.1-2.3,2.7-2.6,7.1
					c-0.3,4.8-0.6,10.7-6.2,10.7c-2.6,0-3.1-2.8-3.4-4.9c-0.4-2.6-0.7-3.5-1.7-3.5c-1.2,0-1.5,0-1.5,3.5c0,0.9,0,1.9,0.1,2.8
					c0,0.9,0.1,1.9,0.1,2.9c0,7.9-4.2,8.7-5.9,8.7c-3.3,0-6.5-2.6-6.5-8.6c0-1,0.1-2.1,0.1-3.1c0.1-1,0.1-2,0.1-2.9
					c0-5.3-2.9-6.4-3.4-6.4c-2.3,0-2.7,1.3-3.2,4.6c-0.4,2.7-1,6.4-5.4,6.4c-5.4,0-5.8-4-6.1-6.7c-0.3-2.8-0.5-3.5-2.1-3.5
					c-2.2,0-3.2,3.5-3.2,6.7c0,0.7,0,1.5,0.1,2.2c0,0.8,0.1,1.5,0.1,2.3C16.6,91.7,11.7,92.4,10.2,92.4z M41.7,2.1
					C31.2,2.1,21.7,7,15,15.7C6.4,26.8,2.1,43.5,2.1,65.4v0.2c0,4.6,0,10.9,1.1,16.1c1.2,5.8,3.5,8.6,6.9,8.6c2.8,0,4.3-2.8,4.3-7.6
					c0-0.7,0-1.5-0.1-2.2c0-0.8-0.1-1.5-0.1-2.3c0-5.3,2.1-8.8,5.3-8.8c3.7,0,4,3.1,4.2,5.4c0.3,3,0.6,4.8,4,4.8
					c2.3,0,2.8-1.3,3.3-4.6c0.4-2.7,1-6.4,5.3-6.4c1.8,0,5.6,2.1,5.6,8.5c0,1-0.1,2.1-0.1,3.1c-0.1,1-0.1,2-0.1,3
					c0,4.7,2.4,6.4,4.4,6.4c2.5,0,3.8-2.4,3.8-6.6c0-0.9,0-1.9-0.1-2.8c0-0.9-0.1-1.9-0.1-2.9c0-2.6,0-5.6,3.6-5.6
					c3,0,3.4,3.1,3.8,5.3c0.3,2.2,0.6,3.1,1.3,3.1c3.3,0,3.8-3.4,4.1-8.7c0.3-4.3,0.5-9.1,4.7-9.1c3.5,0,3.6,9.6,3.6,9.7
					c0,1.1,0,2.2-0.1,3.3c0,1.1-0.1,2.2-0.1,3.2c0,3.8,0.7,8.4,3.8,8.4c4.9,0,4.9-10.6,4.9-15.7c0-1.9-0.1-3.9-0.2-6.5
					c0,0,0-0.1,0-0.1c0-0.9,0-1.7,0-2.6c0-14.6-3.4-29.3-9.2-40.2C65.2,12.8,56.4,2.1,41.7,2.1z"/>
			</g>
		</g>
		<g>
			<g>
				<path d="M71.1,22.7c-0.2,0-0.4-0.1-0.6-0.2c-0.5-0.3-0.6-1-0.3-1.5c2.2-3.1,3.9-6.9,5-11c-3,1.9-6.1,3.4-9,4.4
					c-0.6,0.2-1.2-0.1-1.4-0.6c-0.2-0.6,0.1-1.2,0.6-1.4c3.5-1.2,7.1-3.2,10.7-5.7c0.4-0.2,0.8-0.2,1.2,0c0.4,0.2,0.5,0.7,0.5,1.1
					c-1.1,5.4-3.1,10.3-5.9,14.3C71.8,22.5,71.4,22.7,71.1,22.7z"/>
			</g>
		</g>
		<g>
			<g>
				<path d="M8.5,25.5c-0.3,0-0.6-0.1-0.8-0.4C3.7,20,1.5,13.4,0.2,9C0,8.5,0.2,8,0.6,7.8C1,7.5,1.5,7.6,1.9,7.9
					c3.3,2.9,7.4,5.1,12.2,6.7c0.6,0.2,0.9,0.8,0.7,1.3c-0.2,0.6-0.8,0.9-1.3,0.7c-3.8-1.3-7.3-2.9-10.3-5c1.3,3.9,3.2,8.5,6.1,12.2
					c0.4,0.5,0.3,1.1-0.2,1.5C9,25.4,8.7,25.5,8.5,25.5z"/>
			</g>
		</g>
		<g>
			<g>
				<path d="M38.5,47.5c-9.3,0-16.9-7.5-16.9-16.8c0-8.5,6.7-16.1,15.2-17.4c1-0.1,2-0.2,2.9-0.2c8.4,0,16.8,5.9,16.8,17.1
					C56.5,40.2,48.9,47.5,38.5,47.5z M39.7,15.3c-0.9,0-1.8,0.1-2.6,0.2c-7.4,1.1-13.4,7.9-13.4,15.3c0,8.1,6.6,14.6,14.8,14.6
					c9.2,0,15.9-6.4,15.9-15.1C54.4,22.8,49.4,15.3,39.7,15.3z"/>
			</g>
		</g>
		<g>
			<g>
				<path d="M38.9,38.8c-4.9,0-8.2-4.6-8.2-8.9c0-2.6,1.2-4.9,3.4-6.2c2-1.2,4.3-1.2,6.3-1.2c3.4,0,7.1,2.7,7.1,6.6
					C47.6,35.4,42.5,38.8,38.9,38.8z M40.5,24.7c-2.1,0-3.8,0.1-5.2,0.9c-2.1,1.2-2.4,3.2-2.4,4.4c0,3.2,2.5,6.8,6,6.8
					c2.3,0,6.5-2.5,6.5-7.6C45.5,26.4,42.5,24.7,40.5,24.7z"/>
			</g>
		</g>
		<g>
			<g>
				<path d="M38.6,57.3c-14,0-21.5-4-23-12.3c-0.1-0.6,0.3-1.1,0.9-1.2c0.6-0.1,1.1,0.3,1.2,0.9c1.2,7.1,8.1,10.5,20.9,10.5
					c15.2,0,21.3-8.4,21.8-11.5c0.1-0.6,0.6-1,1.2-0.9c0.6,0.1,1,0.6,0.9,1.2C61.8,48.2,54.8,57.3,38.6,57.3z"/>
			</g>
		</g>
		<g>
			<g>
				<path d="M27,60.9c-4,0-6.7-2.8-6.7-7.1c0-0.5,0-1,0.1-1.5c0.1-0.6,0.6-1,1.2-0.9c0.6,0.1,1,0.6,0.9,1.2
					c-0.1,0.4-0.1,0.9-0.1,1.3c0,3.1,1.7,5,4.5,5c2,0,3.5-2.1,4.2-3.4c0.3-0.5,0.9-0.7,1.4-0.4c0.5,0.3,0.7,0.9,0.4,1.4
					C31.5,59.3,29.3,60.9,27,60.9z"/>
			</g>
		</g>
		<g>
			<g>
				<path d="M42.8,62.3c-3.1,0-5.8-2.1-7.2-5.7c-0.2-0.5,0.1-1.2,0.6-1.4c0.5-0.2,1.2,0.1,1.4,0.6c1.1,2.8,3.1,4.4,5.3,4.4
					c2.9,0,4.8-2.1,5.3-5.7c0.1-0.6,0.6-1,1.2-0.9c0.6,0.1,1,0.6,0.9,1.2C49.5,60.3,45.9,62.3,42.8,62.3z"/>
			</g>
		</g>
		<g>
			<g>
				<path d="M56,56.5c-1.6,0-3.2-0.7-5-2c-0.5-0.4-0.6-1-0.2-1.5c0.4-0.5,1-0.6,1.5-0.2c1.3,1,2.6,1.5,3.7,1.5c1.6,0,3.3-1,3.3-3.9
					c0-0.7-0.2-1.7-0.6-2.7c-0.2-0.6,0.1-1.2,0.7-1.3c0.6-0.2,1.2,0.1,1.3,0.7c0.4,1.2,0.7,2.5,0.7,3.4C61.4,54.6,58.7,56.5,56,56.5
					z"/>
			</g>
		</g>
	</g>
</g>
</svg>
