<?xml version="1.0" encoding="utf-8"?>
<!-- Generator: Adobe Illustrator 21.1.0, SVG Export Plug-In . SVG Version: 6.00 Build 0)  -->
<svg width='64' height="64" version="1.1" id="Layer_1" xmlns="http://www.w3.org/2000/svg" xmlns:xlink="http://www.w3.org/1999/xlink" x="0px" y="0px"
	 viewBox="0 0 100.4 152.6" style="enable-background:new 0 0 100.4 152.6;" xml:space="preserve">
<style type="text/css">
	.st0{fill:#232020;}
	.st1{fill:#636464;}
	.st2{fill:#31489E;}
	.st3{fill:#41B8EA;}
</style>
<g>
	<g>
		<polygon class="st0" points="95.5,58.7 95.5,114 49.7,143 3.9,113.4 3.9,58.7 50.2,88.3 		"/>
		<path class="st0" d="M50.2,48.1c7.2,0.1,15.4-2.9,23.8-12.4L50.2,6.9l0,0V48.1L50.2,48.1z"/>
		<path class="st1" d="M50.2,48.1V6.9L26.4,35.7C26.4,35.7,36.3,47.9,50.2,48.1L50.2,48.1z"/>
		<polygon class="st2" points="95.4,117.6 95.4,62.3 50.2,91.9 50.2,146.3 		"/>
		<polygon class="st3" points="49.6,146.5 50.2,146.2 50.2,91.8 50.1,91.8 3.9,62.2 3.9,116.9 		"/>
		<path class="st0" d="M93.5,63.2L50.1,10.7L6.9,63.9v51.8l43.3,28l43.3-27.5V63.2L93.5,63.2z M50.2,0l50.2,60.8v59.9l-50.2,31.9
			L0,120.1V60.8L50.2,0L50.2,0z"/>
		<polygon class="st0" points="93.5,63.2 93.5,116.3 50.2,143.8 50.2,152.6 100.4,120.7 100.4,60.8 50.2,0 50.2,10.7 		"/>
		<polygon class="st0" points="49.6,8.1 50.9,8.1 50.9,145.4 49.6,145.4 		"/>
	</g>
</g>
</svg>
