<?xml version="1.0" encoding="utf-8"?>
<!-- Generator: Adobe Illustrator 21.1.0, SVG Export Plug-In . SVG Version: 6.00 Build 0)  -->
<svg version="1.1" id="Layer_1" xmlns="http://www.w3.org/2000/svg" xmlns:xlink="http://www.w3.org/1999/xlink" x="0px" y="0px"
	 viewBox="0 0 299.6 152.6" style="enable-background:new 0 0 299.6 152.6;" xml:space="preserve">
<style type="text/css">
	.st0{fill:#020202;}
	.st1{fill:#232020;}
	.st2{fill:#636464;}
	.st3{fill:#31489E;}
	.st4{fill:#41B8EA;}
</style>
<g>
	<path class="st0" d="M295.1,39c0-0.1,0-0.2-0.1-0.3c0-0.1-0.1-0.2-0.2-0.2c-0.1-0.1-0.2-0.1-0.3-0.1c-0.1,0-0.3,0-0.4,0h-0.4v1.4
		h0.3c0.2,0,0.3,0,0.5,0c0.2,0,0.3-0.1,0.4-0.2c0.1-0.1,0.2-0.1,0.2-0.2C295.1,39.3,295.1,39.1,295.1,39L295.1,39z M297.2,42.6h-1.6
		l-1.5-1.9h-0.5v1.9h-1.2v-5.2h1.9c0.3,0,0.6,0,0.8,0c0.2,0,0.4,0.1,0.6,0.2c0.2,0.1,0.4,0.3,0.5,0.5c0.1,0.2,0.2,0.4,0.2,0.7
		c0,0.4-0.1,0.7-0.3,0.9c-0.2,0.2-0.5,0.4-0.8,0.6L297.2,42.6L297.2,42.6z M298.5,40.1c0-1.1-0.4-2.1-1.2-2.9
		c-0.8-0.8-1.7-1.2-2.9-1.2c-1.1,0-2.1,0.4-2.9,1.2c-0.8,0.8-1.2,1.8-1.2,2.9c0,1.1,0.4,2.1,1.2,2.9c0.8,0.8,1.7,1.2,2.9,1.2
		c1.1,0,2.1-0.4,2.9-1.2C298.1,42.2,298.5,41.3,298.5,40.1L298.5,40.1z M299.6,40.1c0,1.4-0.5,2.7-1.5,3.7c-1,1-2.2,1.5-3.7,1.5
		c-1.4,0-2.7-0.5-3.7-1.5c-1-1-1.5-2.2-1.5-3.7c0-1.4,0.5-2.7,1.5-3.7c1-1,2.2-1.5,3.7-1.5c1.4,0,2.7,0.5,3.7,1.5
		C299.1,37.5,299.6,38.7,299.6,40.1L299.6,40.1z"/>
	<g>
		<path class="st0" d="M222.2,118c-0.4,0.4-0.9,0.6-1.6,0.6c-0.6,0-1.2-0.2-1.6-0.6c-0.4-0.4-0.6-1-0.6-1.6c0-0.7,0.2-1.2,0.6-1.7
			c0.4-0.4,0.9-0.7,1.6-0.7c0.7,0,1.2,0.2,1.6,0.6c0.4,0.4,0.6,1,0.6,1.7C222.8,117.1,222.6,117.6,222.2,118L222.2,118z
			 M223.6,113.5c-0.8-0.8-1.8-1.1-2.9-1.1c-1.2,0-2.1,0.4-2.9,1.1c-0.8,0.8-1.2,1.7-1.2,2.9c0,1.2,0.4,2.2,1.2,2.9
			c0.8,0.8,1.8,1.1,2.9,1.1c1.2,0,2.2-0.4,3-1.1c0.8-0.8,1.2-1.7,1.2-2.9C224.8,115.2,224.4,114.2,223.6,113.5L223.6,113.5z"/>
		<path class="st0" d="M242.1,118c-0.4,0.4-0.9,0.6-1.6,0.6c-0.7,0-1.2-0.2-1.6-0.6c-0.4-0.4-0.6-1-0.6-1.6c0-0.7,0.2-1.2,0.6-1.7
			c0.4-0.4,0.9-0.7,1.6-0.7c0.7,0,1.2,0.2,1.6,0.6c0.4,0.4,0.6,1,0.6,1.7C242.7,117.1,242.5,117.6,242.1,118L242.1,118z
			 M243.5,113.5c-0.8-0.8-1.8-1.1-2.9-1.1c-1.2,0-2.1,0.4-2.9,1.1c-0.8,0.8-1.2,1.7-1.2,2.9c0,1.2,0.4,2.2,1.2,2.9
			c0.8,0.8,1.8,1.1,2.9,1.1c1.2,0,2.2-0.4,3-1.1c0.8-0.8,1.2-1.7,1.2-2.9C244.7,115.2,244.3,114.2,243.5,113.5L243.5,113.5z"/>
		<path class="st0" d="M186.4,117.5c-0.2,0.9-0.7,1.7-1.4,2.2c-0.7,0.5-1.5,0.8-2.5,0.8c-1.2,0-2.1-0.4-2.9-1.1
			c-0.8-0.8-1.1-1.7-1.1-2.9c0-1.2,0.4-2.2,1.1-2.9c0.7-0.8,1.7-1.1,2.9-1.1c1,0,1.8,0.2,2.5,0.7c0.7,0.5,1.1,1.3,1.4,2.2h-1.9
			c-0.4-0.8-1.1-1.2-2-1.2c-0.7,0-1.2,0.2-1.5,0.7c-0.4,0.4-0.5,1-0.5,1.7c0,0.6,0.2,1.2,0.6,1.6c0.4,0.5,0.9,0.7,1.6,0.7
			c1,0,1.6-0.4,1.9-1.2H186.4L186.4,117.5z"/>
		<path class="st0" d="M167.2,116.7c0.2,0.2,0.3,0.4,0.4,0.6c0.1,0.2,0.1,0.5,0.1,0.7c0,0.3-0.1,0.6-0.3,0.9
			c-0.2,0.3-0.4,0.5-0.6,0.7c-0.3,0.2-0.6,0.4-0.9,0.5c-0.3,0.1-0.7,0.2-1.1,0.2c-0.6,0-1-0.1-1.5-0.4c-0.4-0.2-0.8-0.5-1-0.9
			l1.5-0.9c0,0.2,0.2,0.3,0.4,0.4c0.2,0.1,0.4,0.2,0.7,0.2c0.3,0,0.5-0.1,0.8-0.2c0.2-0.1,0.3-0.3,0.3-0.6l0-0.1v0l0-0.1l0-0.1
			c-0.1-0.2-0.2-0.3-0.4-0.4l-0.2-0.1l0,0c-0.2-0.1-0.3-0.2-0.5-0.2c-0.2-0.1-0.4-0.2-0.6-0.2c-0.2-0.1-0.4-0.2-0.6-0.3
			c-0.2-0.1-0.4-0.2-0.6-0.3v0l-0.1,0c-0.2-0.2-0.4-0.4-0.6-0.7c-0.1-0.3-0.2-0.5-0.2-0.8c0-0.3,0.1-0.6,0.2-0.8
			c0.1-0.3,0.3-0.5,0.6-0.7c0.2-0.2,0.5-0.3,0.9-0.4c0.3-0.1,0.7-0.2,1.1-0.2c0.5,0,0.9,0.1,1.3,0.3c0.4,0.2,0.7,0.4,0.9,0.7
			l-1.4,0.9c-0.1-0.1-0.2-0.2-0.3-0.3c-0.1-0.1-0.3-0.1-0.5-0.1c-0.3,0-0.5,0-0.7,0.2c-0.2,0.1-0.3,0.3-0.3,0.4l0,0.1
			c0,0.1,0.1,0.2,0.2,0.3c0.1,0.1,0.2,0.1,0.3,0.2c0.2,0.1,0.5,0.2,0.7,0.3c0.3,0.1,0.6,0.2,0.8,0.4c0.2,0.1,0.4,0.2,0.6,0.3
			l0.1,0.1C167,116.4,167.1,116.5,167.2,116.7L167.2,116.7z"/>
		<path class="st0" d="M162.5,119c0.2,0.3,0.5,0.6,0.9,0.8c0.4,0.2,0.9,0.3,1.4,0.3l0.1,0c0.3,0,0.7,0,1-0.2
			c0.3-0.1,0.6-0.3,0.9-0.5c0.2-0.2,0.5-0.4,0.6-0.7c0.2-0.3,0.2-0.5,0.2-0.8c0-0.2,0-0.5-0.1-0.7c-0.1-0.2-0.2-0.4-0.4-0.6
			c-0.1-0.1-0.2-0.3-0.4-0.3l-0.1-0.1c-0.2-0.1-0.4-0.2-0.6-0.3c-0.3-0.1-0.6-0.3-0.8-0.4c-0.3-0.1-0.5-0.2-0.7-0.3
			c-0.1,0-0.3-0.1-0.4-0.2c-0.1-0.1-0.2-0.2-0.2-0.3l0-0.1c0-0.2,0.1-0.4,0.3-0.5c0.2-0.1,0.4-0.2,0.7-0.2h0.1l0,0
			c0.2,0,0.4,0,0.6,0.1c0.1,0.1,0.2,0.1,0.3,0.2l1.3-0.7c-0.2-0.3-0.5-0.5-0.8-0.6c-0.4-0.2-0.8-0.3-1.3-0.3H165
			c-0.3,0-0.6,0-0.9,0.1c-0.3,0.1-0.6,0.3-0.8,0.4c-0.2,0.2-0.4,0.4-0.6,0.6c-0.1,0.2-0.2,0.5-0.2,0.8c0,0.3,0.1,0.5,0.2,0.8
			c0.1,0.2,0.3,0.5,0.5,0.7l0.1,0.1c0.2,0.1,0.3,0.2,0.5,0.3c0.2,0.1,0.4,0.2,0.6,0.3c0.2,0.1,0.4,0.2,0.6,0.2
			c0.2,0.1,0.4,0.1,0.5,0.2l0.1,0.1l0,0h0c0.2,0.1,0.4,0.3,0.5,0.5l0,0.1l0,0.1l0,0.2c0,0.3-0.1,0.5-0.4,0.7
			c-0.2,0.2-0.5,0.2-0.8,0.2h-0.1c-0.3,0-0.5-0.1-0.7-0.2c-0.2-0.1-0.3-0.2-0.4-0.4L162.5,119L162.5,119z M164.9,120.4L164.9,120.4
			c-0.7,0-1.2-0.1-1.6-0.4c-0.5-0.2-0.8-0.5-1-0.9l-0.1-0.1l1.7-1l0,0.1c0,0.2,0.2,0.3,0.3,0.4c0.2,0.1,0.4,0.2,0.6,0.2h0.1
			c0.2,0,0.5-0.1,0.7-0.2c0.2-0.1,0.3-0.3,0.3-0.5l0-0.1l0,0l0-0.1c-0.1-0.2-0.2-0.3-0.4-0.4l-0.1-0.1l-0.2-0.1l0,0
			c-0.1-0.1-0.2-0.1-0.4-0.2c-0.2-0.1-0.4-0.2-0.6-0.2c-0.2-0.1-0.4-0.2-0.6-0.3c-0.2-0.1-0.4-0.2-0.6-0.3l0,0v0l0,0
			c-0.3-0.2-0.4-0.4-0.6-0.7c-0.1-0.3-0.2-0.6-0.2-0.9c0-0.3,0.1-0.6,0.3-0.9c0.2-0.3,0.4-0.5,0.6-0.7c0.2-0.2,0.5-0.4,0.9-0.5
			c0.3-0.1,0.7-0.2,1-0.2h0.1c0.5,0,1,0.1,1.4,0.3c0.4,0.2,0.7,0.5,1,0.8l0.1,0.1l-1.6,1l-0.1-0.1c-0.1-0.1-0.2-0.2-0.3-0.2
			c-0.1-0.1-0.3-0.1-0.5-0.1h-0.1c-0.2,0-0.4,0-0.6,0.1c-0.2,0.1-0.2,0.2-0.2,0.3v0.1l0,0l0.1,0.2c0.1,0.1,0.2,0.1,0.3,0.2
			c0.2,0.1,0.5,0.2,0.7,0.3c0.3,0.1,0.6,0.2,0.8,0.4c0.2,0.1,0.4,0.2,0.6,0.4l0.1,0.1c0.1,0.1,0.2,0.2,0.4,0.4
			c0.2,0.2,0.3,0.4,0.4,0.7c0.1,0.2,0.1,0.5,0.1,0.8c0,0.3-0.1,0.7-0.3,0.9c-0.2,0.3-0.4,0.5-0.7,0.7c-0.3,0.2-0.6,0.4-1,0.5
			C165.6,120.3,165.3,120.4,164.9,120.4L164.9,120.4z"/>
		<path class="st0" d="M203.4,112.8c0.5,0.3,0.8,0.7,1.1,1.2c0.3,0.5,0.4,1,0.4,1.6v4.4h-1.5v-1.6v-2.8c0-0.3,0-0.5-0.1-0.7
			c-0.1-0.2-0.2-0.4-0.4-0.6c-0.2-0.2-0.4-0.3-0.6-0.4c-0.2-0.1-0.5-0.1-0.7-0.1c-0.3,0-0.5,0.1-0.7,0.1c-0.2,0.1-0.4,0.2-0.6,0.4
			c-0.2,0.2-0.3,0.4-0.4,0.6c-0.1,0.2-0.1,0.5-0.1,0.7v2.8v1.6h-1.5v-4.4V107h1.5v5.8c0.3-0.2,0.6-0.3,0.9-0.4
			c0.3-0.1,0.7-0.1,1-0.1c0.3,0,0.7,0.1,1,0.1C202.8,112.5,203.1,112.6,203.4,112.8L203.4,112.8z"/>
		<path class="st0" d="M203.5,119.9h1.3v-4.3c0-0.6-0.1-1.1-0.4-1.6c-0.3-0.5-0.6-0.9-1.1-1.2c-0.3-0.2-0.5-0.3-0.9-0.4
			c-0.6-0.2-1.3-0.2-1.9,0c-0.3,0.1-0.6,0.2-0.9,0.4l-0.2,0.1v-5.9h-1.3v12.8h1.3v-4.3c0-0.3,0.1-0.5,0.2-0.8
			c0.1-0.2,0.2-0.4,0.4-0.6c0.2-0.2,0.4-0.3,0.6-0.4c0.5-0.2,1.1-0.2,1.5,0c0.2,0.1,0.4,0.2,0.6,0.4c0.2,0.2,0.3,0.4,0.4,0.6
			c0.1,0.2,0.2,0.5,0.2,0.8V119.9L203.5,119.9z M205,120.1h-1.7v-4.5c0-0.2,0-0.5-0.1-0.7c-0.1-0.2-0.2-0.4-0.4-0.6
			c-0.2-0.2-0.3-0.3-0.6-0.4c-0.4-0.2-0.9-0.2-1.4,0c-0.2,0.1-0.4,0.2-0.6,0.4c-0.1,0.2-0.3,0.4-0.4,0.6c-0.1,0.2-0.1,0.4-0.1,0.7
			v4.5H198v-13.2h1.7v5.7c0.2-0.1,0.5-0.2,0.7-0.3c0.7-0.2,1.4-0.2,2,0c0.3,0.1,0.6,0.2,0.9,0.4c0.5,0.3,0.9,0.7,1.1,1.2
			c0.3,0.5,0.4,1.1,0.4,1.7V120.1L205,120.1z"/>
		<polygon class="st0" points="256.4,107.3 258.2,107.3 258.2,120.2 256.4,120.2 256.4,107.3 		"/>
		<path class="st0" d="M231.1,61.3c-1.8-11.8-12.1-20.6-24-20.6c-11.9,0-22.2,8.9-24,20.6H231.1L231.1,61.3z M151.5,88.6
			c13,0,23.5-10.6,23.5-23.6c0-13-10.6-23.6-23.5-23.6c-0.1,0-9.4,0-14.4,0v47.1C142.2,88.6,151.5,88.6,151.5,88.6L151.5,88.6z
			 M263.3,96.7c-0.7,0-1.4,0-2.1-0.1c-0.2,0-0.5,0-0.7-0.1c-0.7-0.1-1.3-0.1-1.9-0.2c-0.2,0-0.4-0.1-0.6-0.1l-0.2,0
			c-0.4-0.1-0.8-0.2-1.2-0.2l-0.2-0.1c-0.3-0.1-0.5-0.1-0.8-0.2c-0.5-0.1-1-0.3-1.6-0.4c-0.3-0.1-0.7-0.2-1.2-0.4
			c-0.2-0.1-0.4-0.2-0.6-0.2c-0.8-0.3-1.6-0.6-2.3-1l-0.1,0l-0.1-0.1c-1.7-0.8-3.3-1.8-4.8-2.8l-0.1-0.1l0,0
			c-7.1-5.2-11.8-13.2-12.8-21.9h-48.8c1.8,11.8,12.1,20.6,24,20.6c5.2,0,10.2-1.7,14.4-4.8v0l0.1-0.1c1-0.8,1.9-1.5,2.6-2.2
			l0.1-0.1l5.3,5.1l-0.1,0.1c-6.2,7.4-17.4,9.4-22.4,9.4c-12.1,0-22.9-6.7-28.3-17.5c-5.3,10.2-15.7,16.5-27.3,16.5
			c-0.2,0-21.4,0-21.5,0h-0.2V34.3h0.2c0.1,0,21.3,0,21.5,0c11.5,0,21.9,6.3,27.3,16.5c5.4-10.8,16.2-17.5,28.3-17.5
			c11.9,0,22.7,6.6,28.1,17.1c2.3-4.3,5.5-8.1,9.4-11l0.1-0.1c1.4-1,3.1-2,4.8-2.8l0.1-0.1l0.1,0c0.7-0.4,1.5-0.7,2.3-1
			c0.2-0.1,0.4-0.2,0.6-0.2c0.4-0.1,0.8-0.3,1.2-0.4c0.5-0.2,1.1-0.3,1.6-0.5c0.3-0.1,0.6-0.1,0.9-0.2l0.1,0
			c0.4-0.1,0.8-0.2,1.2-0.2l0.3-0.1c0.2,0,0.4-0.1,0.6-0.1c0.6-0.1,1.2-0.2,2-0.2c0.2,0,0.4,0,0.7-0.1c0.8-0.1,1.5-0.1,2.1-0.1
			l0.1,0l0.1,0c0.7,0,1.4,0,2.1,0.1c0.2,0,0.5,0,0.7,0.1c0.7,0.1,1.4,0.1,1.9,0.2c0.2,0,0.4,0.1,0.6,0.1l0.3,0.1
			c0.4,0.1,0.8,0.2,1.2,0.2l0.1,0c0.3,0.1,0.6,0.1,0.9,0.2c0.5,0.1,1,0.3,1.6,0.5c0.4,0.1,0.9,0.3,1.2,0.4c0.2,0.1,0.3,0.1,0.5,0.2
			l0.1,0c0.8,0.3,1.6,0.6,2.3,1l0.2,0.1c1.7,0.8,3.3,1.8,4.8,2.8l0.2,0.1l0,0c1.3,1,2.6,2,3.8,3.2l0.1,0.1l-5.3,5.1l-0.1-0.1
			c-1-1-2.1-1.9-3.3-2.7l-0.1-0.1c-0.1-0.1-0.3-0.2-0.4-0.2c-0.5-0.3-1-0.6-1.5-0.9l-0.2-0.1l-0.2-0.1c-1.3-0.7-2.7-1.3-4.1-1.8
			l-0.4-0.1c-0.6-0.2-1.2-0.3-1.8-0.5c-0.2,0-0.3-0.1-0.5-0.1c-0.6-0.1-1.2-0.2-1.8-0.3l-0.2,0l-0.3,0c-0.8-0.1-1.6-0.1-2.3-0.1
			c-0.7,0-1.5,0-2.3,0.1l-0.3,0l-0.2,0c-0.7,0.1-1.3,0.2-1.8,0.3c-0.2,0-0.4,0.1-0.5,0.1c-0.6,0.1-1.2,0.3-1.8,0.5l-0.4,0.1
			c-1.4,0.5-2.8,1-4.1,1.8l-0.2,0.1l-0.2,0.1c-0.5,0.3-1,0.6-1.5,0.9c-0.2,0.1-0.3,0.2-0.5,0.3c-6.5,4.5-10.4,12-10.4,19.9
			c0,7.9,3.9,15.4,10.4,19.9c0.2,0.1,0.3,0.2,0.5,0.3c0.5,0.3,1,0.6,1.5,0.9l0.2,0.1l0.2,0.1c1.3,0.7,2.7,1.3,4.1,1.8l0.3,0.1l0.1,0
			c0.6,0.2,1.2,0.3,1.8,0.5c0.2,0,0.3,0.1,0.5,0.1c0.6,0.1,1.2,0.2,1.8,0.3l0.2,0l0.3,0c0.8,0.1,1.6,0.1,2.3,0.1
			c0.7,0,1.5,0,2.3-0.1l0.3,0l0.2,0c0.7-0.1,1.3-0.2,1.8-0.3c0.2,0,0.3-0.1,0.5-0.1c0.6-0.1,1.2-0.3,1.8-0.5l0.1,0
			c0.1,0,0.2-0.1,0.3-0.1c1.4-0.5,2.8-1.1,4.1-1.8l0.2-0.1l0.2-0.1c0.5-0.3,1-0.6,1.5-0.9c0.1-0.1,0.2-0.2,0.4-0.2l0.2-0.1
			c1.2-0.8,2.3-1.7,3.3-2.7l0.1-0.1l5.3,5.1l-0.1,0.1c-1.2,1.2-2.5,2.3-3.8,3.2l-0.1,0.1c-1.4,1-3.1,2-4.8,2.8l-0.2,0.1
			c-0.8,0.4-1.5,0.7-2.3,1l-0.1,0c-0.2,0.1-0.4,0.1-0.5,0.2c-0.5,0.2-0.8,0.3-1.2,0.4c-0.5,0.2-1.1,0.3-1.6,0.4
			c-0.3,0.1-0.5,0.1-0.8,0.2l-0.2,0c-0.4,0.1-0.8,0.2-1.2,0.2l-0.2,0c-0.2,0-0.4,0.1-0.6,0.1c-0.6,0.1-1.2,0.2-1.9,0.2
			c-0.2,0-0.5,0-0.7,0.1c-0.8,0.1-1.4,0.1-2.1,0.1h-0.1H263.3L263.3,96.7z"/>
		<path class="st0" d="M137.3,41.7c5.1,0,14.2,0,14.2,0c12.9,0,23.4,10.5,23.4,23.4c0,12.9-10.5,23.4-23.4,23.4c-0.1,0-9.1,0-14.2,0
			V41.7L137.3,41.7z M183.4,61.2c0.9-5.5,3.7-10.6,7.9-14.3c4.4-3.8,10-6,15.9-6c5.8,0,11.5,2.1,15.8,6c4.2,3.7,7,8.8,7.9,14.3
			H183.4L183.4,61.2z M263.4,33.1L263.4,33.1L263.4,33.1l-0.1,0h0c-0.7,0-1.3,0-2.1,0.1h0c-0.2,0-0.4,0-0.7,0.1
			c-0.7,0.1-1.4,0.1-2,0.2c-0.2,0-0.4,0.1-0.6,0.1c-0.1,0-0.2,0-0.3,0.1c-0.4,0.1-0.8,0.2-1.2,0.2l-0.1,0c-0.3,0.1-0.6,0.1-0.9,0.2
			c-0.5,0.1-1,0.3-1.6,0.5c-0.4,0.1-0.9,0.3-1.2,0.4c-0.2,0.1-0.4,0.1-0.6,0.2c-0.8,0.3-1.6,0.6-2.3,1l-0.1,0l-0.2,0.1
			c-1.7,0.8-3.3,1.8-4.8,2.8l-0.3,0.2l0,0c-3.8,2.8-6.9,6.5-9.2,10.6c-2.6-4.9-6.5-9-11.2-12c-5.1-3.2-10.9-4.9-16.9-4.9
			c-6.1,0-12,1.7-17.1,5c-4.8,3-8.6,7.3-11.2,12.3c-2.5-4.7-6.3-8.7-10.8-11.6c-4.9-3.1-10.6-4.7-16.4-4.7c-0.2,0-21.4,0-21.5,0
			l-0.4,0v0.4v1.6v5.1v47.5v2.7v4.1v0.4h0.4c0.1,0,21.3,0,21.5,0c5.8,0,11.5-1.6,16.4-4.7c4.6-2.9,8.3-6.9,10.8-11.6
			c2.6,5,6.4,9.2,11.2,12.3c5.1,3.3,11,5,17.1,5c5.1,0,16.3-2,22.6-9.4l0.2-0.3l-0.3-0.2l-5.1-4.8l-0.3-0.3l-0.3,0.3
			c-0.7,0.7-1.5,1.4-2.6,2.2l-0.2,0.1v0c-4.2,3.1-9.1,4.7-14.2,4.7c-5.8,0-11.5-2.1-15.9-6c-4.2-3.7-7-8.8-7.9-14.3h48.4
			c1,8.7,5.6,16.6,12.7,21.8l0,0l0.3,0.2c1.5,1.1,3.1,2,4.8,2.8l0.1,0.1l0.1,0c0.7,0.4,1.5,0.7,2.3,1c0.2,0.1,0.4,0.2,0.6,0.2
			c0.5,0.2,0.8,0.3,1.2,0.4c0.6,0.2,1.1,0.3,1.6,0.4c0.3,0.1,0.5,0.1,0.8,0.2l0.2,0c0.4,0.1,0.8,0.2,1.2,0.2l0.2,0
			c0.2,0,0.4,0.1,0.6,0.1c0.6,0.1,1.2,0.2,2,0.2c0.2,0,0.4,0,0.7,0l0,0c0.8,0.1,1.5,0.1,2.1,0.1h0h0.1h0h0h0.1h0
			c0.6,0,1.3,0,2.1-0.1c0.2,0,0.5,0,0.7-0.1c0.7-0.1,1.4-0.1,2-0.2c0.2,0,0.4-0.1,0.6-0.1l0.3-0.1c0.4-0.1,0.8-0.1,1.2-0.2l0.2,0
			c0.3-0.1,0.5-0.1,0.8-0.2c0.5-0.1,1-0.3,1.6-0.5c0.3-0.1,0.7-0.2,1.2-0.4c0.2-0.1,0.4-0.1,0.5-0.2l0.1,0c0.8-0.3,1.6-0.6,2.3-1
			l0.1,0l0.1-0.1c1.7-0.8,3.3-1.8,4.8-2.8l0.3-0.2l0,0c1.2-0.9,2.5-2,3.6-3.1l0.3-0.3l-0.3-0.3l-5.1-4.8l-0.3-0.3l-0.3,0.3
			c-1,1-2.1,1.9-3.2,2.7l-0.2,0.1c-0.1,0.1-0.2,0.2-0.3,0.2c-0.5,0.3-1,0.6-1.5,0.9l-0.2,0.1l-0.2,0.1c-1.3,0.7-2.7,1.3-4.1,1.7
			c-0.1,0-0.2,0.1-0.3,0.1l0,0c-0.6,0.2-1.2,0.3-1.8,0.5c-0.2,0-0.3,0.1-0.5,0.1c-0.6,0.1-1.2,0.2-1.8,0.3l-0.2,0l-0.3,0
			c-0.8,0.1-1.6,0.1-2.3,0.1c-0.7,0-1.5,0-2.3-0.1l-0.3,0l-0.2,0c-0.7-0.1-1.3-0.2-1.8-0.3c-0.2,0-0.3-0.1-0.5-0.1
			c-0.6-0.1-1.2-0.3-1.8-0.5l-0.1,0l-0.2-0.1c-1.4-0.5-2.8-1-4.1-1.7l-0.2-0.1l-0.2-0.1c-0.5-0.3-1-0.6-1.5-0.9
			c-0.2-0.1-0.3-0.2-0.5-0.3l0,0c-6.5-4.5-10.4-11.9-10.4-19.8c0-7.9,3.9-15.3,10.4-19.8c0.2-0.1,0.3-0.2,0.5-0.3
			c0.5-0.3,1-0.6,1.5-0.9l0.1-0.1l0.2-0.1c1.3-0.7,2.7-1.3,4.1-1.7l0.2-0.1l0.2-0.1c0.6-0.2,1.2-0.3,1.8-0.5c0.2,0,0.3-0.1,0.5-0.1
			c0.6-0.1,1.1-0.2,1.8-0.3l0.2,0l0.3,0c0.8-0.1,1.6-0.1,2.3-0.1c0.7,0,1.5,0,2.3,0.1l0.3,0l0.2,0c0.7,0.1,1.3,0.2,1.8,0.3
			c0.2,0,0.3,0.1,0.5,0.1c0.6,0.1,1.2,0.3,1.8,0.5l0.1,0l0.3,0.1c1.4,0.5,2.8,1,4.1,1.7l0.2,0.1l0.2,0.1c0.5,0.3,1,0.6,1.5,0.9
			c0.1,0.1,0.2,0.2,0.4,0.3l0.1,0.1c1.2,0.8,2.2,1.7,3.2,2.7l0.3,0.3l0.3-0.3l5.1-4.8l0.3-0.3l-0.3-0.3c-1.2-1.2-2.4-2.2-3.6-3.1
			l0,0l-0.3-0.2c-1.5-1-3.1-2-4.8-2.8l-0.1-0.1l-0.1,0c-0.7-0.4-1.5-0.7-2.3-1l-0.1,0c-0.2-0.1-0.3-0.1-0.5-0.2
			c-0.3-0.1-0.7-0.3-1.2-0.4c-0.6-0.2-1.1-0.3-1.6-0.5c-0.3-0.1-0.6-0.1-0.9-0.2l-0.1,0c-0.4-0.1-0.8-0.2-1.2-0.2
			c-0.1,0-0.2,0-0.3-0.1c-0.2,0-0.4-0.1-0.5-0.1c-0.6-0.1-1.2-0.2-2-0.2c-0.2,0-0.5,0-0.7-0.1C264.8,33.2,264.1,33.1,263.4,33.1
			L263.4,33.1L263.4,33.1L263.4,33.1z M151.5,88.8c13.1,0,23.7-10.6,23.7-23.7c0-13.1-10.6-23.7-23.7-23.7c-0.1,0-9.6,0-14.6,0v47.5
			C141.9,88.8,151.5,88.8,151.5,88.8 M182.9,61.5h48.4c-1.7-11.9-11.9-21-24.2-21C194.8,40.5,184.6,49.7,182.9,61.5 M263.4,33.5
			L263.4,33.5c0.8,0,1.5,0,2.2,0.1c0.2,0,0.5,0,0.7,0.1c0.7,0.1,1.3,0.1,1.9,0.2c0.3,0,0.6,0.1,0.8,0.1c0.4,0.1,0.8,0.2,1.2,0.2
			c0.3,0.1,0.7,0.1,1,0.2c0.5,0.1,1,0.3,1.6,0.4c0.4,0.1,0.8,0.3,1.2,0.4c0.2,0.1,0.4,0.1,0.6,0.2c0.8,0.3,1.5,0.6,2.3,1l0.2,0.1
			c1.7,0.8,3.3,1.7,4.8,2.8l0,0c1.4,1,2.7,2.1,3.9,3.3l-5.1,4.8c-1-1-2.1-1.9-3.3-2.8c-0.2-0.1-0.3-0.2-0.5-0.3
			c-0.5-0.3-1-0.6-1.5-0.9c-0.1-0.1-0.2-0.1-0.3-0.2c-1.3-0.7-2.7-1.3-4.2-1.8c-0.1,0-0.3-0.1-0.4-0.1c-0.6-0.2-1.2-0.3-1.8-0.5
			c-0.2,0-0.3-0.1-0.5-0.1c-0.6-0.1-1.2-0.2-1.9-0.3c-0.2,0-0.3,0-0.5-0.1c-0.8-0.1-1.5-0.1-2.3-0.1c-0.8,0-1.6,0-2.3,0.1
			c-0.2,0-0.3,0-0.5,0.1c-0.6,0.1-1.2,0.2-1.8,0.3c-0.2,0-0.4,0.1-0.5,0.1c-0.6,0.1-1.2,0.3-1.8,0.5c-0.1,0-0.3,0.1-0.4,0.1
			c-1.5,0.5-2.8,1.1-4.2,1.8c-0.1,0.1-0.2,0.1-0.3,0.2c-0.5,0.3-1,0.6-1.5,0.9c-0.2,0.1-0.3,0.2-0.5,0.3
			c-6.4,4.4-10.5,11.8-10.5,20.1c0,8.3,4.2,15.7,10.5,20.1c0.2,0.1,0.3,0.2,0.5,0.3c0.5,0.3,1,0.6,1.5,0.9c0.1,0.1,0.2,0.1,0.3,0.2
			c1.3,0.7,2.7,1.3,4.2,1.8c0.1,0,0.3,0.1,0.4,0.1c0.6,0.2,1.2,0.3,1.8,0.5c0.2,0,0.3,0.1,0.5,0.1c0.6,0.1,1.2,0.2,1.8,0.3
			c0.2,0,0.3,0,0.5,0.1c0.8,0.1,1.5,0.1,2.3,0.1c0.8,0,1.6,0,2.3-0.1c0.2,0,0.3,0,0.5-0.1c0.6-0.1,1.2-0.2,1.9-0.3
			c0.2,0,0.3-0.1,0.5-0.1c0.6-0.1,1.2-0.3,1.8-0.5c0.1,0,0.3-0.1,0.4-0.1c1.5-0.5,2.9-1.1,4.2-1.8c0.1-0.1,0.2-0.1,0.3-0.2
			c0.5-0.3,1-0.6,1.5-0.9c0.2-0.1,0.3-0.2,0.5-0.3c1.2-0.8,2.3-1.7,3.3-2.8l5.1,4.8c-1.2,1.2-2.5,2.3-3.9,3.3l0,0
			c-1.5,1.1-3.1,2-4.8,2.8l-0.2,0.1c-0.7,0.4-1.5,0.7-2.3,1c-0.2,0.1-0.4,0.2-0.6,0.2c-0.4,0.1-0.8,0.3-1.2,0.4
			c-0.5,0.2-1,0.3-1.6,0.4c-0.3,0.1-0.6,0.2-1,0.2c-0.4,0.1-0.8,0.2-1.2,0.2c-0.3,0.1-0.6,0.1-0.8,0.2c-0.7,0.1-1.3,0.2-1.9,0.2
			c-0.2,0-0.5,0-0.7,0.1c-0.7,0-1.4,0.1-2.1,0.1h-0.1h0h0h-0.1c-0.7,0-1.4,0-2.1-0.1c-0.2,0-0.5,0-0.7-0.1c-0.7-0.1-1.3-0.1-1.9-0.2
			c-0.3,0-0.6-0.1-0.8-0.2c-0.4-0.1-0.8-0.2-1.2-0.2c-0.3-0.1-0.7-0.1-1-0.2c-0.5-0.1-1-0.3-1.6-0.4c-0.4-0.1-0.8-0.3-1.2-0.4
			c-0.2-0.1-0.4-0.1-0.6-0.2c-0.8-0.3-1.6-0.6-2.3-1l-0.2-0.1c-1.7-0.8-3.3-1.7-4.7-2.8l0,0c-7-5.1-11.9-13-12.9-22.1h-49.2
			c1.7,11.9,11.9,21,24.2,21c5.5,0,10.5-1.8,14.6-4.9v0c0.9-0.7,1.8-1.4,2.6-2.2l5.1,4.8c-5.7,6.8-16.2,9.3-22.3,9.3
			c-12.5,0-23.2-7.2-28.3-17.7c-5,10-15.3,16.8-27.3,16.8l-21.5,0v-4.1v-2.7V41.3v-5.1v-1.6l21.5,0c11.9,0,22.2,6.8,27.3,16.8
			c5.1-10.5,15.9-17.7,28.3-17.7c12.3,0,22.9,7.1,28.1,17.4c2.3-4.5,5.6-8.4,9.7-11.4l0,0c1.5-1.1,3.1-2,4.7-2.8l0.2-0.1
			c0.7-0.4,1.5-0.7,2.3-1c0.2-0.1,0.4-0.2,0.6-0.2c0.4-0.1,0.8-0.3,1.2-0.4c0.5-0.2,1-0.3,1.6-0.4c0.3-0.1,0.7-0.2,1-0.2
			c0.4-0.1,0.8-0.2,1.2-0.2c0.3-0.1,0.6-0.1,0.8-0.1c0.6-0.1,1.3-0.2,1.9-0.2c0.2,0,0.5,0,0.7-0.1c0.7,0,1.4-0.1,2.1-0.1L263.4,33.5
			L263.4,33.5L263.4,33.5"/>
		<polygon class="st1" points="95.5,58.7 95.5,114 49.7,143 3.9,113.4 3.9,58.7 50.2,88.3 95.5,58.7 		"/>
		<path class="st1" d="M50.2,48.1c7.2,0.1,15.4-2.9,23.8-12.4L50.2,6.9l0,0V48.1L50.2,48.1z"/>
		<path class="st2" d="M50.2,48.1V6.9L26.4,35.7C26.4,35.7,36.3,47.9,50.2,48.1L50.2,48.1z"/>
		<polygon class="st3" points="95.4,117.6 95.4,62.3 50.2,91.9 50.2,146.3 95.4,117.6 		"/>
		<polygon class="st4" points="49.6,146.5 50.2,146.2 50.2,91.8 50.1,91.8 3.9,62.2 3.9,116.9 49.6,146.5 		"/>
		<path class="st1" d="M93.5,63.2L50.1,10.7L6.9,63.9v51.8l43.3,28l43.3-27.5L93.5,63.2L93.5,63.2z M50.2,0l50.2,60.8v59.9
			l-50.2,31.9L0,120.1V60.8L50.2,0L50.2,0z"/>
		<polygon class="st1" points="93.5,63.2 93.5,116.3 50.2,143.8 50.2,152.6 100.4,120.7 100.4,60.8 50.2,0 50.2,10.7 93.5,63.2 		
			"/>
		<polygon class="st1" points="49.6,8.1 50.9,8.1 50.9,145.4 49.6,145.4 49.6,8.1 		"/>
	</g>
</g>
</svg>
