<?xml version="1.0" encoding="utf-8"?>
<!-- Generator: Adobe Illustrator 21.1.0, SVG Export Plug-In . SVG Version: 6.00 Build 0)  -->
<svg version="1.1" id="Layer_1" xmlns="http://www.w3.org/2000/svg" xmlns:xlink="http://www.w3.org/1999/xlink" x="0px" y="0px"
	 viewBox="0 0 40 40" style="enable-background:new 0 0 40 40;" xml:space="preserve">
<style type="text/css">
	.st0{fill:#417CBF;}
</style>
<g>
	<path class="st0" d="M20,3c9.4,0,17,7.6,17,17s-7.6,17-17,17S3,29.4,3,20S10.6,3,20,3 M20,0C9,0,0,9,0,20s9,20,20,20s20-9,20-20
		S31,0,20,0L20,0z"/>
</g>
<g>
	<path class="st0" d="M12,25.4L14.1,13h3.2l2.5,6.6l2.5-6.6h3.2l2.1,12.4h-3.2l-1.1-7.1l-2.9,7.1H19l-2.8-7.1l-1.1,7.1H12z"/>
</g>
</svg>
