<?xml version="1.0" encoding="utf-8"?>
<!-- Generator: Adobe Illustrator 21.1.0, SVG Export Plug-In . SVG Version: 6.00 Build 0)  -->
<svg version="1.1" id="Layer_1" xmlns="http://www.w3.org/2000/svg" xmlns:xlink="http://www.w3.org/1999/xlink" x="0px" y="0px"
	 viewBox="0 0 40 40" style="enable-background:new 0 0 40 40;" xml:space="preserve">
<style type="text/css">
	.st0{fill:#417CBF;}
</style>
<g>
	<path class="st0" d="M20,3c9.4,0,17,7.6,17,17s-7.6,17-17,17S3,29.4,3,20S10.6,3,20,3 M20,0C9,0,0,9,0,20s9,20,20,20s20-9,20-20
		S31,0,20,0L20,0z"/>
</g>
<g>
	<g>
		<path class="st0" d="M20,11.4c-3.4,0-6.2,2.8-6.2,6.2c0,4.3,5.6,10.6,5.8,10.8c0.2,0.2,0.6,0.2,0.8,0c0.2-0.3,5.8-6.5,5.8-10.8
			C26.2,14.2,23.4,11.4,20,11.4z M20,20.8c-1.7,0-3.1-1.4-3.1-3.1c0-1.7,1.4-3.1,3.1-3.1s3.1,1.4,3.1,3.1S21.7,20.8,20,20.8z"/>
	</g>
</g>
</svg>
