<?xml version="1.0" encoding="utf-8"?>
<!-- Generator: Adobe Illustrator 21.1.0, SVG Export Plug-In . SVG Version: 6.00 Build 0)  -->
<svg version="1.1" id="Layer_1" xmlns="http://www.w3.org/2000/svg" xmlns:xlink="http://www.w3.org/1999/xlink" x="0px" y="0px"
	 viewBox="0 0 40 40" style="enable-background:new 0 0 40 40;" xml:space="preserve">
<style type="text/css">
	.st0{fill:#E55A2F;}
	.st1{fill:#FFFFFF;}
</style>
<g>
	<g>
		<circle class="st0" cx="20" cy="20" r="20"/>
	</g>
	<g>
		<path class="st1" d="M14.3,26.1c-0.3-0.3-0.5-0.6-0.5-0.7c0,0,0-0.1,0-0.2c0-0.1,0-0.3,0.1-0.4c0.1-0.2,0.1-0.2,0.2-0.2
			c0.1,0.1,0.2-0.1,0.3-0.4s0.3-0.5,0.3-0.6c0-0.1,0.1-0.1,0.2-0.2c0.1-0.1,0.2-0.1,0.2-0.1c0.1-0.1,0.2-0.3,0.4-0.5
			s0.3-0.3,0.3-0.3c0.1-0.1,0.2-0.2,0.4-0.4c0.2-0.2,0.4-0.4,0.5-0.5c0.4-0.4,0.7-0.7,0.9-0.9c0.9-1,1.4-1.5,1.4-1.7
			c0,0,0.1-0.1,0.1-0.1c0.1-0.1,0.1-0.1,0.2-0.2c0.3-0.2,0.5-0.4,0.7-0.6c0.1-0.3,0.3-0.6,0.7-1c0.1-0.2,0.3-0.4,0.4-0.6
			c0.1-0.2,0.2-0.4,0.2-0.6c0.1-0.2,0-0.3,0-0.3s-0.3-0.1-0.7-0.3c-0.3-0.1-0.5-0.1-0.7-0.1c-0.3,0-0.5,0.1-0.8,0.2
			c-0.3,0.1-0.6,0.3-1.1,0.6c-0.2,0.1-0.4,0.1-0.6,0.2c-0.3,0.1-0.5,0.1-0.6,0.1c-0.1,0-0.1-0.1-0.2-0.2c-0.1-0.1-0.2-0.2-0.3-0.3
			l-0.3-1.1l0.8-0.4c1.3-0.8,2.3-1.2,3.1-1.2c0.2,0,0.4,0,0.6,0.1c0.2,0,0.3,0,0.5,0.1c0.2,0,0.2,0.1,0.3,0.1c0.2,0,0.6,0.1,1,0.5
			c0.5,0.3,0.8,0.7,0.9,1c0.2,0.4,0.3,0.8,0.3,1.2c0,0.7-0.3,1.4-0.8,2.2c-0.4,0.4-1,1.1-1.7,1.9s-1.3,1.3-1.4,1.5
			c-0.2,0.1-0.7,0.6-1.5,1.4c-0.8,0.8-1.2,1.3-1.1,1.3c0,0.1,0.1,0.1,0.3,0c0.2-0.1,0.4-0.1,0.5-0.2c0.4-0.1,0.9-0.3,1.6-0.4
			c0.6-0.1,1.1-0.2,1.5-0.2c0.2,0,0.3,0,0.4,0.1c0,0.1,0.1,0.1,0.1,0.1c0,0,0,0,0,0c0-0.1,0.1-0.1,0.4-0.1c0.4,0,0.9,0.1,1.4,0.2
			c0.2,0.1,0.3,0.1,0.4,0.2c0.1,0.1,0.2,0.2,0.2,0.2c0,0,0,0.1,0.1,0.1c0,0.1,0.1,0.2,0.2,0.3c0.1,0.1,0.2,0.2,0.2,0.4
			s-0.1,0.3-0.3,0.4c-0.2,0.1-0.4,0.2-0.8,0.2c-0.2,0-0.4,0-0.6-0.1c-0.4,0-0.8,0-1.1,0.1c-0.1,0-0.2,0.1-0.5,0.1s-0.5,0-0.6,0
			c-0.1,0-0.2,0-0.4,0c-0.4,0-1,0.1-1.7,0.4c-0.4,0.2-1,0.3-1.9,0.6c-0.9,0.2-1.4,0.3-1.5,0.3C14.8,26.6,14.6,26.4,14.3,26.1z"/>
	</g>
</g>
</svg>
