<?xml version="1.0" encoding="utf-8"?>
<!-- Generator: Adobe Illustrator 21.1.0, SVG Export Plug-In . SVG Version: 6.00 Build 0)  -->
<svg version="1.1" id="Layer_1" xmlns="http://www.w3.org/2000/svg" xmlns:xlink="http://www.w3.org/1999/xlink" x="0px" y="0px"
	 viewBox="0 0 172 80.4" style="enable-background:new 0 0 172 80.4;" xml:space="preserve">
<style type="text/css">
	.st0{fill:#191919;}
</style>
<g>
	<path class="st0" d="M3.4,19.7c-0.3-0.1-0.9-0.3-1.6-0.4c-0.5,0-0.9-0.2-1.3-0.5C0,18.5-0.1,18.2,0.1,18c0.1-0.3,0.4-0.5,1.1-0.6
		s1.4-0.2,2.2,0l1.3,0.2L5.2,17c0.1-0.1,0.2-0.2,0.2-0.4c0-0.1,0.1-0.2,0.2-0.3L6,15.2l0.8-1.4c1-1.8,1.7-3,2-3.8
		C9,9.8,9.3,9.3,9.7,8.6c0.4-0.7,0.7-1.3,0.9-1.7c1.6-2.8,2.3-4.2,2.1-4.2c-0.2-0.1-0.8-0.1-1.7-0.2S9.6,2.3,9.5,2.3
		C9.3,2.5,9.1,2.4,8.9,2.2C8.7,1.9,8.6,1.7,8.6,1.4c0-0.1,0-0.2,0-0.3C8.7,0.8,8.8,0.7,9,0.6c0.2-0.1,0.8-0.2,1.7-0.3
		c0.9-0.1,1.8-0.1,2.5,0c0.4,0,0.7,0,1.1,0c0.4,0,0.7-0.1,0.9-0.3c0.5-0.1,0.8,0,1.1,0c0.1,0.1,0.5,0.3,1,0.4
		c0.5,0.1,0.8,0.2,1.1,0.2c0.6,0.1,0.9,0.1,1.1,0.2c1.3,0.3,1.9,0.7,2.1,1.3c0,0.2,0,0.4,0,0.5c-0.1,0.3-0.2,0.5-0.4,0.6
		s-0.4,0.2-0.7,0.1c-0.4,0-1.1-0.1-2.1-0.2c-1.4-0.2-2.2-0.2-2.3,0c-0.1,0.1-0.2,0.2-0.3,0.2c-0.1,0.1-0.1,0.1-0.2,0.2
		c0,0.2-0.3,0.8-1,1.9L13.8,7c-1,1.7-1.6,2.7-1.8,3.1c-0.2,0.3-0.4,0.7-0.5,1c-0.3,0.5-0.5,1-0.8,1.5c-0.2,0.5-0.5,0.9-0.7,1.4
		l-2.1,4.1l1.9,0.2c1.3,0.1,2,0.2,2.3,0.3c0.2,0,0.3,0.1,0.4,0.1c0.1,0.1,0.1,0.1,0.1,0.2c0,0.1,0,0.2,0,0.2
		c0.1,0.3,0.2,0.5,0.1,0.8c-0.1,0.4-0.4,0.6-0.9,0.8s-1.3,0.1-2.1-0.1c-0.9-0.2-1.7-0.3-2.3-0.4c-0.6-0.1-1-0.1-1.1-0.1
		c-0.2,0-0.3,0.1-0.3,0.3c0,0.2-0.1,0.3-0.3,0.4S5.2,21,5,21c-0.4-0.1-0.7-0.3-1-0.7C3.9,20,3.7,19.8,3.4,19.7z"/>
	<path class="st0" d="M27.4,14.3c-0.3,0.3-0.4,0.5-0.5,0.6c-0.2,0.3-0.4,0.5-0.5,0.7c-0.1,0.2-0.2,0.3-0.3,0.4
		c0.4,0.3,0.5,0.8,0.3,1.5L26,17.9L24.9,18c-0.2,0.3-0.3,0.6-0.4,0.9c-0.1,0.4-0.4,0.9-0.7,1.5l-0.3,0.7c-0.2,0.3-0.3,0.5-0.5,0.6
		c-0.2,0.1-0.4,0.1-0.8,0.1c-0.1-0.1-0.3-0.2-0.5-0.3c-0.2-0.1-0.4-0.2-0.5-0.3c-0.1-0.1-0.2-0.2-0.3-0.3c-0.1-0.2-0.1-0.4-0.1-0.6
		c0-0.2,0.2-0.5,0.4-1c0.4-0.8,0.7-1.3,0.9-1.7l-0.6,0c-0.3,0-0.6-0.1-0.7-0.1c-0.2,0-0.3,0-0.4,0c-0.2,0-0.5,0-1-0.1
		c-0.4-0.1-0.8-0.2-1.1-0.3c-0.1,0.1-0.1,0.2-0.2,0.4c-0.1,0.2-0.2,0.4-0.4,0.6c-0.2,0.4-0.3,0.7-0.4,0.8l-0.3,0.8
		c-0.1,0.2-0.2,0.4-0.3,0.8c-0.1,0.4-0.3,0.8-0.5,1c-0.2,0.2-0.5,0.3-0.8,0.2c-0.5-0.1-1-0.5-1.5-1.3l0-0.5l1-2.3
		c0.1-0.1,0.1-0.2,0.2-0.4c0.1-0.1,0.1-0.3,0.2-0.5l0.4-0.8l0.5-0.9c0.5-0.8,0.8-1.4,1.1-1.7c0.1-0.3,0.3-0.6,0.5-0.9
		c0.2-0.3,0.4-0.6,0.5-0.7c0.1-0.1,0.3-0.4,0.6-1c0.3-0.6,0.6-1,0.7-1.2c0.3-0.4,0.6-0.5,1-0.4c0.4,0.1,0.8,0.3,1.1,0.6
		c0.3,0.3,0.4,0.7,0.3,1.1c0,0.1-0.1,0.2-0.1,0.4c-0.1,0.2-0.1,0.3-0.2,0.4l-2.2,3.3c0.2,0,0.4,0,0.7,0c0.3,0,0.5,0,0.6,0
		c0.3,0,0.7,0,1.1,0.1c0.4,0.1,0.8,0.2,1,0.3c0.1-0.1,0.3-0.4,0.6-0.8c0.1-0.2,0.2-0.4,0.4-0.8c0.3-0.5,0.6-1,1-1.4
		c0-0.1,0.1-0.1,0.1-0.3c0-0.1,0.3-0.4,0.6-0.8c0.4-0.1,0.7-0.1,1-0.1c0.4,0.1,0.8,0.3,1,0.6c0.2,0.3,0.3,0.7,0.2,1.1
		c0,0.1-0.1,0.3-0.2,0.5C27.9,13.8,27.7,14.1,27.4,14.3z"/>
	<path class="st0" d="M43.4,24.6c0,0,0,0.1-0.1,0.3c0,0.2-0.2,0.4-0.3,0.5c-0.2,0.1-0.3,0.2-0.4,0.2c-0.5-0.1-1-0.3-1.6-0.7
		s-0.8-0.8-0.7-1.2l0.4-1.9c0.2-0.8,0.2-1.3,0.1-1.5c-0.3-0.2-0.7-0.1-1.4,0.4c-0.7,0.5-1.5,1.3-2.5,2.4c-0.4,0.4-0.7,0.7-1,0.8
		c-0.2,0.2-0.5,0.2-0.6,0.2c-0.1,0-0.3-0.1-0.4-0.2c-0.6-0.3-0.9-0.8-0.7-1.3c0-0.1,0.1-0.2,0.1-0.4c0.3-0.6,0.7-1.3,1.1-2
		c0.4-0.8,0.7-1.4,0.9-1.9c0-0.1-0.1-0.2-0.3-0.3c-0.2,0-0.5,0-0.8,0.2c-0.1,0-0.3,0.1-0.5,0.2c-0.2,0.1-0.5,0.2-0.8,0.4
		c-0.3,0.2-0.5,0.4-0.9,0.8c-0.1,0.1-0.3,0.3-0.6,0.6c-1.4,1.4-2.2,2.1-2.5,2.3c-0.2,0.3-0.3,0.5-0.4,0.5c-0.1,0.1-0.2,0.1-0.4,0.1
		c-0.1,0-0.2-0.1-0.3-0.2c-0.4-0.3-0.6-0.6-0.8-1c-0.2-0.4-0.2-0.8-0.1-1.3c0.1-0.3,0.3-0.9,0.7-1.8c0.4-0.9,0.8-1.7,1.2-2.5
		c0.2-0.3,0.4-0.6,0.6-1c0.2-0.3,0.3-0.6,0.3-0.7c0.1-0.4,0.4-0.9,0.7-1.5c0.3-0.6,0.5-1,0.6-1c0.2-0.1,0.4-0.1,0.7,0
		c0.2,0,0.4,0.1,0.6,0.3c0.2,0.1,0.3,0.3,0.4,0.5c0.2,0.4,0.3,0.8,0.1,1.4c-0.1,0.5-0.3,1-0.6,1.5c-0.3,0.4-0.7,1.1-1.2,1.9l0.1,0
		c0.6-0.6,1.5-1.3,2.4-2c0.5-0.3,1-0.6,1.5-0.7c0.5-0.1,0.9-0.2,1.2-0.1c0.5,0.2,0.9,0.5,1.1,1c0.3,0.5,0.4,1.1,0.3,1.8
		c-0.1,0.3-0.1,0.6-0.3,0.9c-0.1,0.4-0.2,0.6-0.2,0.7c0.1-0.1,0.4-0.3,0.8-0.6c0.4-0.3,0.9-0.7,1.5-1c0.5-0.3,1-0.4,1.4-0.3
		c0.3,0.1,0.6,0.3,0.8,0.6c0.4,0.4,0.7,0.9,0.8,1.5c0.1,0.7,0.1,1.4,0,2.1c-0.1,0.3-0.1,0.5-0.2,0.6c-0.1,0.1-0.1,0.3-0.2,0.6
		c-0.1,0.3-0.1,0.6-0.1,0.8c0,0.3,0,0.5,0,0.7C43.4,24.5,43.4,24.6,43.4,24.6z"/>
	<path class="st0" d="M45.4,26.3c-0.6-0.8-0.8-1.8-0.5-3.1c0.1-0.5,0.2-1,0.4-1.6c0.1-0.5,0.5-1.1,1-1.9c0.5-0.8,1.2-1.6,2-2.3
		c0.8-0.7,1.7-1.2,2.6-1.4c0.4-0.1,0.8-0.2,1.1-0.2c0.3,0,0.6,0,1,0.1c0.9,0.2,1.5,0.5,2,0.9c0.5,0.4,0.8,0.9,0.9,1.3
		c0.1,0.4,0.2,0.8,0.1,1.1l0,0.2l0,0.1c-0.1,0.3-0.3,0.7-0.7,1.3c-0.4,0.6-1,1.1-1.8,1.6c-0.8,0.5-1.6,0.6-2.7,0.5
		c-0.5-0.1-1-0.2-1.4-0.4c-0.5-0.2-0.7-0.3-0.9-0.3c-0.3-0.1-0.5,0-0.7,0.2c-0.1,0.2-0.3,0.6-0.4,1.1c-0.1,0.6,0,1,0.2,1.3
		c0.2,0.3,0.6,0.5,1.1,0.6c0.3,0.1,0.6,0,0.9,0c0.4-0.1,0.8-0.3,1.4-0.5c0.3-0.2,0.5-0.3,0.7-0.3c0.2-0.1,0.3-0.1,0.6,0
		c0.2,0,0.4,0.2,0.6,0.5c0.2,0.3,0.3,0.6,0.3,0.8c-0.1,0.2-0.4,0.6-0.9,1c-0.5,0.4-1.2,0.8-1.9,1c-0.8,0.3-1.5,0.3-2.3,0.2
		C46.9,27.7,46,27.1,45.4,26.3z M51.5,20.6c0.2-0.1,0.6-0.3,1.1-0.6c0.5-0.3,0.8-0.6,0.9-0.8c0-0.2,0-0.4-0.2-0.6s-0.4-0.3-0.7-0.4
		l-0.3-0.1c-0.3-0.1-0.7,0.1-1.3,0.4c-0.6,0.3-1.2,0.8-1.6,1.3c0,0.1,0.1,0.2,0.4,0.4c0.3,0.1,0.6,0.2,0.9,0.3
		C51.1,20.7,51.4,20.7,51.5,20.6z"/>
	<path class="st0" d="M51.7,36.3c-0.2,0-0.3-0.2-0.4-0.4c0,0-0.1-0.2-0.2-0.4c-0.1-0.3-0.1-0.6,0-1.1c0-0.1,0.1-0.2,0.2-0.5
		c0.4-0.8,0.6-1.4,0.7-1.7c0-0.1,0.1-0.3,0.2-0.4c0.1-0.2,0.2-0.4,0.2-0.5c0.1-0.1,0.2-0.3,0.4-0.6c0.1-0.3,0.2-0.5,0.3-0.8
		c0-0.1,0.1-0.2,0.2-0.3c0.1-0.1,0.2-0.2,0.3-0.3c0-0.1,0.1-0.3,0.2-0.6c0.1-0.2,0.2-0.4,0.2-0.5c0.2-0.5,0.9-1.8,2-3.8
		c1.1-2,2.1-3.5,2.9-4.7c0.4-0.5,0.7-1,1-1.5c0.3-0.5,0.4-0.8,0.5-1c0-0.1,0.1-0.2,0.1-0.2s0.2-0.1,0.3-0.2c0.2-0.1,0.4-0.2,0.7-0.1
		c0.4,0.1,0.7,0.3,1,0.6c0.1,0.3,0.2,0.5,0.2,0.7c0,0.2,0,0.4,0,0.6c0,0.1-0.1,0.3-0.2,0.6c-0.1,0.4-0.3,0.8-0.6,1.1
		c-0.3,0.3-0.5,0.4-0.4,0.4c1.2-0.4,2.2-0.5,3-0.4c0.9,0.2,1.6,0.7,2.1,1.4c0.4,0.8,0.6,1.6,0.4,2.5c-0.1,0.4-0.3,0.8-0.8,1.5
		c-0.5,0.6-0.8,1-1.1,1.2c-0.1,0-0.3,0.2-0.6,0.6c-0.3,0.3-0.9,0.5-1.6,0.8c-0.8,0.2-1.3,0.3-1.5,0.1c0,0-0.1,0-0.1,0.1
		c-0.1,0-0.1,0.1-0.1,0.2c0,0.1-0.4,0.2-1,0.2c-0.7,0.1-1.2,0.1-1.7,0c-0.3-0.1-0.4-0.1-0.6-0.2s-0.2-0.2-0.3-0.3
		c-0.2,0.1-0.3,0.2-0.3,0.4c0,0.2-0.2,0.5-0.5,0.9c-0.3,0.4-0.5,0.6-0.6,0.6c0,0-0.1,0.1-0.1,0.1c0,0.1,0,0.1,0,0.2
		c0,0.1-0.1,0.2-0.1,0.4c-0.1,0.2-0.2,0.4-0.3,0.5c0,0.2-0.1,0.4-0.3,0.7c-0.1,0.3-0.3,0.5-0.4,0.7c-0.1,0.2-0.1,0.5-0.3,0.7
		c-0.1,0.2-0.2,0.3-0.3,0.3c-0.1,0-0.3,0.3-0.4,0.9c-0.1,0.5-0.4,0.9-0.8,1.2c-0.4,0.3-0.7,0.5-1,0.4L51.7,36.3z M60,26
		c0.9-0.2,1.5-0.4,2-0.6c0.6-0.3,1-0.6,1.3-0.9c0.3-0.3,0.5-0.6,0.6-0.9c0.1-0.3,0-0.6-0.1-0.9c-0.1-0.3-0.3-0.4-0.6-0.5
		c-0.7-0.1-1.7,0.2-3,1c-0.5,0.3-0.9,0.7-1.3,1.3c-0.4,0.5-0.7,1-0.7,1.3c0,0.2,0,0.3,0.1,0.3C58.5,26.2,59.1,26.2,60,26z"/>
	<path class="st0" d="M67,30.6c-0.2-0.3-0.4-0.4-0.4-0.5c0-0.1,0-0.2-0.1-0.4c-0.1-0.2-0.1-0.3-0.2-0.5c-0.1-0.2,0.1-0.7,0.7-1.6
		c0.6-0.8,1.3-1.8,2.3-2.9c0.2-0.1,0.4-0.3,0.6-0.6c0.3-0.3,0.4-0.4,0.5-0.5c0-0.1,0.1-0.2,0.1-0.2c0.1-0.1,0.2-0.1,0.2-0.1l0.4-0.5
		c0.1-0.2,0.6-0.5,1.5-1.1c0.9-0.6,1.5-0.9,2-1.1c0.5-0.2,0.9-0.2,1.4-0.1c0.5,0.1,0.9,0.3,1.2,0.7l0.7,0.9c0.5,0.7,0.8,1,0.9,1.1
		l0.9,1.3l-0.9,1.5c-0.3,0.5-0.5,1-0.6,1.5c-0.2,0.8-0.1,1.6,0.2,2.4c0.1,0.3,0.2,0.5,0.3,0.6c0.2,0.2,0.4,0.3,0.7,0.4
		c0.4,0.2,0.6,0.5,0.5,0.8c-0.1,0.5-0.2,0.8-0.5,1c-0.2,0.2-0.4,0.3-0.7,0.3c-0.3,0-0.6-0.1-0.7-0.1c-0.6-0.1-1.1-0.4-1.6-0.8
		c-0.4-0.4-0.8-1-1-1.9c-0.1-0.1-0.1-0.4-0.2-0.8c-0.1-0.4-0.1-0.6-0.1-0.7c-0.2,0.2-0.5,0.4-0.9,0.7c-2.6,1.7-4.6,2.5-5.9,2.2
		c-0.5-0.1-0.8-0.3-1.2-0.6C67.4,31,67.2,30.8,67,30.6z M71.8,28.2c0.1-0.1,0.3-0.1,0.4-0.2c0.1-0.1,0.3-0.2,0.5-0.3
		c0.7-0.4,1.2-0.7,1.6-0.9c0.4-0.3,0.8-0.6,1.2-1l0.9-1c-0.1-0.5-0.2-0.8-0.4-1c-0.1-0.2-0.3-0.3-0.5-0.3c-0.4-0.1-1,0.2-1.8,0.8
		c-0.8,0.6-1.8,1.6-2.9,2.9c-0.3,0.3-0.6,0.7-0.8,1.1c-0.2,0.4-0.4,0.6-0.4,0.7C70,29,70.7,28.8,71.8,28.2z"/>
	<path class="st0" d="M94.4,25.5c0,0,0,0.1-0.1,0.4c-0.1,0.3-0.2,0.5-0.4,0.8c-0.2,0.2-0.4,0.4-0.6,0.5c-0.6,0.3-1.3,0.6-2,1
		c-1.6,0.8-2.8,1.4-3.5,1.7c0.1,0.2,0.3,0.7,0.5,1.6l0.2,0.7c0.1,0.1,0.1,0.3,0.2,0.6c0.1,0.2,0.2,0.4,0.3,0.5
		c0.1,0.1,0.4,0.2,0.7,0.3c0.3,0.2,0.5,0.5,0.6,0.7s0.1,0.4,0,0.6c0,0.2-0.1,0.3-0.1,0.4l-0.3,0.5c-0.5,0.4-1,0.6-1.5,0.5
		c-0.2,0-0.4-0.1-0.7-0.3c-0.5-0.3-1-0.9-1.5-1.7C86.2,34,86,33,85.6,31.4c-0.2-0.9-0.3-1.6-0.4-2c-0.4,0.6-0.6,1.1-0.7,1.5
		c-0.3,0.3-0.5,0.7-0.8,1.2c-0.3,0.5-0.4,0.8-0.5,0.9c-0.2,0.5-0.7,0.9-1.3,1.2c-0.4-0.1-0.8-0.2-0.9-0.3c-0.2-0.1-0.4-0.4-0.6-0.8
		c-0.1-0.3-0.1-0.7,0-1c0-0.2,0.1-0.5,0.3-0.8c0.1-0.1,0.6-1.1,1.7-2.8c0.9-1.5,1.4-2.2,1.4-2.3c0.1-0.2,0.3-0.4,0.4-0.7
		c0.2-0.2,0.3-0.4,0.4-0.5c0.5-0.6,0.9-1.1,1.1-1.5c0.1-0.3,0.4-0.5,0.6-0.7c0.3-0.1,0.6-0.2,0.8-0.1c0.4,0.1,0.6,0.3,0.8,0.7l0,0
		c0.1,0,0.1,0.1,0.2,0.2c0.1,0.1,0.1,0.2,0.2,0.2c0.2,0.4,0.3,0.8,0.2,1.2c-0.1,0.3-0.2,0.5-0.4,0.7l-0.7,0.9
		c-0.5,0.5-0.9,1-1.3,1.6c0.4,0,0.7,0,0.9,0c0.2,0,0.4-0.1,0.7-0.3c0.3-0.2,0.6-0.4,1-0.7c0.4-0.3,0.8-0.5,1.2-0.8
		c0.5-0.3,1-0.6,1.4-0.9c0,0,0.1-0.1,0.3-0.3c0.2-0.2,0.3-0.3,0.5-0.4s0.4-0.2,0.6-0.2c0.4,0.1,0.7,0.3,0.9,0.4
		c0.2,0.1,0.3,0.3,0.4,0.5C94.3,25.4,94.4,25.5,94.4,25.5z"/>
	<path class="st0" d="M108.6,38c0,0,0,0.1-0.1,0.3c0,0.2-0.2,0.4-0.3,0.5s-0.3,0.2-0.4,0.2c-0.5-0.1-1-0.3-1.6-0.7
		c-0.6-0.4-0.8-0.8-0.7-1.2l0.4-1.9c0.2-0.8,0.2-1.3,0.1-1.5c-0.3-0.2-0.7-0.1-1.4,0.4c-0.7,0.5-1.5,1.3-2.5,2.4
		c-0.4,0.4-0.7,0.7-1,0.8c-0.2,0.2-0.5,0.2-0.6,0.2c-0.1,0-0.3-0.1-0.4-0.2c-0.6-0.3-0.9-0.8-0.7-1.3c0-0.1,0.1-0.2,0.1-0.4
		c0.3-0.6,0.7-1.3,1.1-2c0.4-0.7,0.7-1.4,0.9-1.9c0-0.1-0.1-0.2-0.3-0.3c-0.2,0-0.5,0-0.8,0.2c-0.1,0-0.3,0.1-0.5,0.2
		c-0.2,0.1-0.5,0.2-0.8,0.4c-0.3,0.2-0.6,0.4-0.9,0.8c-0.1,0.1-0.3,0.3-0.6,0.6c-1.4,1.4-2.2,2.1-2.5,2.3c-0.2,0.3-0.3,0.5-0.4,0.6
		c-0.1,0.1-0.2,0.1-0.4,0.1c-0.1,0-0.2-0.1-0.3-0.2c-0.4-0.3-0.6-0.6-0.8-1c-0.2-0.4-0.2-0.8-0.1-1.3c0.1-0.3,0.3-0.9,0.7-1.8
		c0.4-0.9,0.8-1.7,1.2-2.5c0.2-0.3,0.4-0.6,0.6-1c0.2-0.3,0.3-0.6,0.3-0.7c0.1-0.4,0.4-0.9,0.7-1.5c0.3-0.6,0.5-1,0.6-1
		c0.2-0.1,0.4-0.1,0.7,0c0.2,0,0.4,0.1,0.6,0.3c0.2,0.1,0.3,0.3,0.4,0.5c0.2,0.4,0.3,0.8,0.1,1.4c-0.1,0.5-0.3,1-0.6,1.5
		c-0.3,0.4-0.7,1.1-1.2,1.9l0.1,0c0.6-0.6,1.5-1.3,2.4-2c0.5-0.3,1-0.6,1.5-0.7c0.5-0.1,0.9-0.2,1.2-0.1c0.5,0.2,0.9,0.5,1.1,1
		c0.3,0.5,0.4,1.1,0.3,1.8c-0.1,0.3-0.1,0.6-0.3,0.9c-0.1,0.4-0.2,0.6-0.2,0.7c0.1-0.1,0.4-0.3,0.8-0.6c0.4-0.3,0.9-0.7,1.5-1
		c0.5-0.3,1-0.4,1.4-0.3c0.3,0.1,0.6,0.3,0.8,0.6c0.4,0.4,0.7,0.9,0.8,1.5c0.1,0.7,0.1,1.4,0,2.1c-0.1,0.3-0.1,0.5-0.2,0.6
		c-0.1,0.1-0.1,0.3-0.2,0.6c-0.1,0.3-0.1,0.6-0.1,0.8c0,0.3,0,0.5,0,0.7C108.6,37.8,108.6,38,108.6,38z"/>
	<path class="st0" d="M116.5,41.1c-0.1-0.3-0.1-0.8-0.1-1.5c0-0.1,0-0.3,0-0.6c0-0.2,0.1-0.4,0.1-0.5c-0.1,0.2-0.3,0.4-0.4,0.5
		s-0.3,0.3-0.5,0.4c-0.6,0.4-1.1,0.6-1.7,0.8c-0.8,0.3-1.4,0.4-1.9,0.3c-0.6-0.1-1-0.5-1.3-1.1c-0.6-0.7-0.8-1.4-0.6-2.1
		c0-0.1,0.1-0.3,0.2-0.6c0.2-0.8,0.5-1.5,0.8-2.2c0.3-0.7,0.8-1.5,1.6-2.5l1.3-1.7l0.7-0.9c0.1,0,0.3,0,0.5,0
		c0.3,0.1,0.6,0.2,0.9,0.4c0.3,0.2,0.4,0.4,0.4,0.6c0,0.1,0,0.3,0,0.5c-0.1,0.7-0.6,1.5-1.4,2.5l-0.4,0.5c-0.6,0.8-1,1.5-1.2,1.9
		c-0.3,0.5-0.4,0.9-0.5,1.2c-0.1,0.3,0,0.6,0.2,0.7c0.1,0.1,0.2,0.1,0.4,0.2c0.4,0.1,1-0.1,1.7-0.7c0.7-0.5,1.6-1.5,2.5-2.9
		c0.4-0.7,0.8-1.3,1-2.1c0-0.2,0.1-0.5,0.3-0.7c0.2-0.2,0.5-0.4,0.8-0.5c0.1-0.1,0.2-0.2,0.4-0.2s0.3,0,0.3,0.1l0.5,0.1
		c0.1,0,0.1,0.1,0.2,0.3c0.1,0.2,0.2,0.4,0.2,0.4c0.2,0.2,0.2,0.6,0.1,1.1c-0.1,0.7-0.6,1.6-1.3,2.7c-0.6,0.8-1,1.3-1.2,1.8
		s-0.4,0.8-0.5,1.3c-0.1,0.4-0.1,0.8-0.1,1c0,0.3,0.2,0.5,0.4,0.8c0.3,0.3,0.3,0.9,0.1,1.7c-0.1,0.1-0.2,0.2-0.4,0.3s-0.4,0-0.7,0
		c-0.5-0.1-0.8-0.3-1.1-0.6C116.7,41.7,116.6,41.4,116.5,41.1z"/>
	<path class="st0" d="M139.3,27c-0.1,0.3-0.2,0.6-0.3,0.8s-0.4,0.6-0.6,1c-0.3,0.4-0.4,0.6-0.5,0.7c-0.6,0.7-1.3,1.4-2.2,2
		s-1.9,1.2-3,1.6c-1,0.6-2,1-2.9,1.3l-0.3,0.1c0.5,0.3,1,0.7,1.5,1.3c0.2,0.2,0.2,0.5,0.1,0.7c0,0.1-0.1,0.2-0.1,0.3
		c-0.1,0.2-0.1,0.5-0.2,0.7c-0.1,0.2-0.1,0.4-0.2,0.6c-0.2,0.2-0.3,0.6-0.6,1c-0.2,0.5-0.4,0.9-0.7,1.2c-0.2,0.3-0.5,0.7-0.9,1.1
		c-0.5,0.6-1,1-1.2,1.2c-0.3,0.2-0.9,0.5-1.7,0.8l-1,0.4c-0.1,0-0.3-0.1-0.7-0.1c-0.4-0.1-0.7-0.2-1.1-0.5c-0.3-0.3-0.6-0.7-0.8-1.1
		c-0.1-0.3-0.2-0.7-0.2-1.1c0-0.4,0-0.8,0-1.1c0-0.2,0.1-0.4,0.2-0.5c0.6-1.4,1-2.4,1.3-3c0.3-0.6,0.5-1,0.6-1.1l0.4-0.6
		c0.1-0.2,0.2-0.3,0.3-0.5c0.1-0.2,0.2-0.4,0.2-0.6l0-0.4c0.1-0.5,0.3-0.9,0.7-1.1c0.4-0.2,0.7-0.5,0.9-0.8c0.2-0.3,0.6-0.8,1-1.3
		c0.5-0.6,0.8-0.9,1-1.1l0.8-0.7c0.4-0.4,0.7-0.7,0.9-0.9s0.5-0.4,0.9-0.6c0.3-0.4,0.7-0.7,1.2-1c0.5-0.3,1.1-0.6,1.7-1
		c0.5-0.3,0.9-0.5,1-0.5c0.1-0.1,0.3-0.1,0.7-0.2c0.3,0,0.6,0,0.9,0l0.7,0c0.2-0.1,0.5,0,0.9,0.3c0.4,0.3,0.7,0.6,0.9,0.9
		C139.3,26,139.4,26.6,139.3,27z M128.1,36c0-0.2,0-0.4,0-0.7l0.3-0.5l-0.6,0.1c-0.2,0-0.4,0.2-0.5,0.3c-0.1,0.1-0.2,0.3-0.3,0.7
		c-0.2,0.3-0.3,0.5-0.5,0.6c-0.1,0.1-0.4,0.7-0.9,1.9c-0.5,1.2-0.8,2-0.9,2.3c0,0.2,0,0.3,0.2,0.3c0.1,0,0.2,0,0.4-0.1
		s0.4-0.2,0.6-0.5c0.5-0.4,1-1.1,1.5-2.1c0.3-0.6,0.5-0.9,0.6-1C128,36.6,128.1,36.2,128.1,36z M137.1,26.3c0-0.2,0-0.3,0-0.4
		c-0.3,0.1-1.2,0.6-2.7,1.6c-2.9,1.9-4.7,3.4-5.4,4.4l0.2,0.1c1-0.2,2-0.5,3-1c1-0.5,1.8-1,2.5-1.5c0.7-0.5,1.2-1,1.5-1.4
		C136.7,27.3,137,26.8,137.1,26.3z"/>
	<path class="st0" d="M145.2,38.4c-0.3,0.3-0.4,0.5-0.5,0.6c-0.2,0.3-0.4,0.5-0.5,0.7c-0.1,0.2-0.2,0.3-0.3,0.4
		c0.4,0.3,0.5,0.8,0.3,1.5l-0.4,0.4l-1.1,0.1c-0.2,0.3-0.3,0.6-0.4,0.9c-0.1,0.4-0.4,0.9-0.7,1.5l-0.3,0.7c-0.2,0.3-0.3,0.5-0.5,0.6
		c-0.2,0.1-0.4,0.1-0.8,0.1c-0.1-0.1-0.3-0.2-0.5-0.3c-0.2-0.1-0.4-0.2-0.5-0.3c-0.1-0.1-0.2-0.2-0.3-0.3c-0.1-0.2-0.1-0.4-0.1-0.6
		c0-0.2,0.2-0.5,0.4-1c0.4-0.8,0.7-1.3,0.9-1.7l-0.6,0c-0.3,0-0.6-0.1-0.7-0.1s-0.3,0-0.4,0c-0.2,0-0.5,0-1-0.1
		c-0.4-0.1-0.8-0.2-1.1-0.3c-0.1,0.1-0.1,0.2-0.2,0.4s-0.2,0.4-0.4,0.6c-0.2,0.4-0.3,0.7-0.4,0.8l-0.3,0.8c-0.1,0.2-0.2,0.4-0.3,0.8
		c-0.1,0.4-0.3,0.8-0.5,1c-0.2,0.2-0.5,0.3-0.8,0.2c-0.5-0.1-1-0.5-1.5-1.3l0-0.5l1-2.3c0.1-0.1,0.1-0.2,0.2-0.4
		c0.1-0.1,0.1-0.3,0.2-0.5l0.4-0.8l0.5-0.9c0.5-0.8,0.8-1.4,1.1-1.7c0.1-0.3,0.3-0.6,0.5-0.9s0.4-0.6,0.5-0.7c0.1-0.1,0.3-0.4,0.6-1
		c0.3-0.6,0.6-1,0.7-1.2c0.3-0.4,0.6-0.5,1-0.4c0.4,0.1,0.8,0.3,1.1,0.6c0.3,0.3,0.4,0.7,0.3,1.1c0,0.1-0.1,0.2-0.1,0.4
		c-0.1,0.2-0.1,0.3-0.2,0.4l-2.2,3.3c0.2,0,0.4,0,0.7,0c0.3,0,0.5,0,0.6,0c0.3,0,0.7,0,1.1,0.1c0.4,0.1,0.8,0.2,1,0.3
		c0.1-0.1,0.3-0.4,0.6-0.8c0.1-0.2,0.2-0.4,0.4-0.8c0.3-0.5,0.6-1,1-1.4c0-0.1,0.1-0.1,0.1-0.3c0-0.1,0.3-0.4,0.6-0.8
		c0.4-0.1,0.7-0.1,1-0.1c0.4,0.1,0.8,0.3,1,0.6c0.2,0.3,0.3,0.7,0.2,1.1c0,0.1-0.1,0.3-0.2,0.5C145.6,37.8,145.4,38.1,145.2,38.4z"
		/>
	<path class="st0" d="M152.1,48.3c-0.1-0.3-0.1-0.8-0.1-1.5c0-0.1,0-0.3,0-0.6c0-0.2,0.1-0.4,0.1-0.5c-0.1,0.2-0.3,0.4-0.4,0.5
		s-0.3,0.3-0.5,0.4c-0.6,0.4-1.1,0.6-1.7,0.8c-0.8,0.3-1.4,0.4-1.9,0.3c-0.6-0.1-1-0.5-1.3-1.1c-0.6-0.7-0.8-1.4-0.6-2.1
		c0-0.1,0.1-0.3,0.2-0.6c0.2-0.8,0.5-1.5,0.8-2.2c0.3-0.7,0.8-1.5,1.6-2.5l1.3-1.7l0.7-0.9c0.1,0,0.3,0,0.5,0
		c0.3,0.1,0.6,0.2,0.9,0.4c0.3,0.2,0.4,0.4,0.4,0.6c0,0.1,0,0.3,0,0.5c-0.1,0.7-0.6,1.5-1.4,2.5l-0.4,0.5c-0.6,0.8-1,1.5-1.2,1.9
		c-0.3,0.5-0.4,0.9-0.5,1.2c-0.1,0.3,0,0.6,0.2,0.7c0.1,0.1,0.2,0.1,0.4,0.2c0.4,0.1,1-0.1,1.7-0.7c0.7-0.5,1.6-1.5,2.5-2.9
		c0.4-0.7,0.8-1.3,1-2.1c0-0.2,0.1-0.5,0.3-0.7c0.2-0.2,0.5-0.4,0.8-0.5c0.1-0.1,0.2-0.2,0.4-0.2s0.3,0,0.3,0.1l0.5,0.1
		c0.1,0,0.1,0.1,0.2,0.3c0.1,0.2,0.2,0.4,0.2,0.4c0.2,0.2,0.2,0.6,0.1,1.1c-0.1,0.7-0.6,1.6-1.3,2.7c-0.6,0.8-1,1.3-1.2,1.8
		s-0.4,0.8-0.5,1.3c-0.1,0.4-0.1,0.8-0.1,1c0,0.3,0.2,0.5,0.4,0.8c0.3,0.3,0.3,0.9,0.1,1.7c-0.1,0.1-0.2,0.2-0.4,0.3s-0.4,0-0.7,0
		c-0.5-0.1-0.8-0.3-1.1-0.6C152.3,48.9,152.2,48.7,152.1,48.3z"/>
	<path class="st0" d="M163.7,51.6c-0.2-0.2-0.4-0.5-0.6-0.8c-0.1-0.3-0.2-0.6-0.2-0.9c0-0.3,0-0.7,0.1-1.2l0.2-0.7
		c0-0.2,0-0.3,0-0.3s-0.2,0.1-0.5,0.2c-0.3,0.2-0.6,0.4-1,0.6c-0.8,0.5-1.4,0.8-1.9,1.1c-0.5,0.2-0.9,0.3-1.1,0.2
		c-0.2,0-0.5-0.3-0.8-0.8s-0.5-0.9-0.6-1.3c0-0.3,0-0.6,0.1-0.9c0.2-1,0.6-2.1,1.3-3.4c0.7-1.3,1.4-2.4,2.2-3.3
		c0.8-0.9,1.3-1.3,1.7-1.2c0.3,0.1,0.6,0.3,0.8,0.7c0.2,0.3,0.3,0.7,0.4,1.2c0,0.1,0,0.2,0,0.3c0,0.1-0.1,0.3-0.3,0.4
		c-0.4,0.4-0.9,1-1.6,1.8c-0.7,0.9-1.2,1.6-1.7,2.4s-0.6,1.1-0.5,1.1c0.3,0.1,0.6,0,0.8-0.1c0.3-0.1,0.6-0.3,1.1-0.6
		c0.9-0.6,1.8-1.4,2.8-2.4c1.2-1.2,1.8-1.9,1.9-2.2l0.5-0.6c0.3-0.4,0.5-0.6,0.6-0.7c0.1-0.1,0.3-0.2,0.4-0.2l0.7,0.1
		c0.1,0,0.2,0.2,0.4,0.4c0.2,0.1,0.3,0.3,0.5,0.5c0.1,0.2,0.2,0.3,0.2,0.4l-0.7,1.1l-0.4,0.6c-0.8,1.1-1.5,2-1.9,2.7
		c-0.4,0.7-0.8,1.4-1.1,2.2c0,0.1-0.1,0.3-0.1,0.5c-0.1,0.6-0.2,1.1-0.1,1.4c0.1,0.4,0.2,0.7,0.4,0.9c0.1,0.2,0.1,0.3-0.1,0.5
		c-0.2,0.1-0.5,0.3-0.8,0.3c-0.3,0.1-0.5,0.1-0.6,0.1C164.1,51.9,163.9,51.8,163.7,51.6z M164.2,35.2c0-0.2,0-0.4,0-0.4
		c0.1-0.3,0.2-0.5,0.3-0.6c0.1-0.1,0.3-0.2,0.5-0.2c0.2,0,0.4,0,0.5,0.1c0.3,0.2,0.6,0.4,0.7,0.6c0.1,0.2,0.2,0.5,0.2,0.8
		c0,0.1,0,0.2,0,0.3c0,0.1,0,0.1,0,0.2c0,0.3,0.2,0.5,0.4,0.5l0.3,0c0.5-0.1,0.9-0.2,1.2-0.3s0.6-0.2,0.9-0.4
		c0.3-0.2,0.9-0.5,1.6-0.9c0.1-0.1,0.3-0.1,0.6,0c0.3,0.1,0.5,0.3,0.5,0.4l0,0.1c0.1,0.3,0.1,0.6,0,0.9l0,0c0,0.2-0.1,0.4-0.3,0.6
		c-0.1,0.2-0.3,0.4-0.5,0.6c-0.2,0.1-0.5,0.3-1,0.5c-0.6,0.3-1.3,0.5-2.2,0.8c-0.2,0.1-0.4,0.1-0.7,0c-0.3,0-0.4-0.1-0.5-0.1
		C165.2,38.3,164.3,37.2,164.2,35.2z"/>
	<path class="st0" d="M53,49c0.4,0.5,0.5,1.1,0.3,1.8c-0.1,0.2-0.2,0.4-0.2,0.7c-0.1,0.3-0.2,0.5-0.3,0.8c-0.1,0.2-0.2,0.4-0.4,0.6
		c0,0-0.3,0.4-0.7,1.2c-0.7,1-1.1,1.7-1.2,2.1c-0.2,0.4-0.3,0.7-0.4,0.9c-0.2,0.4-0.3,0.7-0.4,0.9c-0.1,0.2-0.3,0.4-0.5,0.6
		c-0.3,0.2-0.6,0.3-1,0.2c-0.4-0.1-0.8-0.3-1-0.7c-0.2-0.4-0.3-0.8-0.1-1.2c0.1-0.4,0.3-1,0.6-1.9c0.1-0.2,0.1-0.3,0.3-0.5
		c0.1-0.1,0.2-0.3,0.2-0.3c0.5-0.7,1-1.6,1.4-2.5c0.5-1,0.8-1.7,0.9-2.2c-0.7-0.1-1.7-0.3-3.1-0.4c-0.3,0.7-0.6,1.3-1,1.8
		c-0.4,0.8-0.7,1.3-0.8,1.5c-0.1,0.3-0.4,0.8-0.9,1.4c-0.8,1.1-1.2,1.8-1.3,2.2c-0.1,0.1-0.2,0.3-0.3,0.5c-0.1,0.2-0.2,0.4-0.2,0.6
		c-0.1,0.3-0.3,0.5-0.5,0.6C41.9,58,41.5,58,41.2,58c-0.3-0.1-0.6-0.2-0.8-0.4c-0.2-0.2-0.3-0.4-0.4-0.6c-0.1-0.2-0.1-0.5-0.2-0.8
		c0.1-0.6,0.4-1.1,0.7-1.7c0.1-0.1,0.2-0.3,0.3-0.5c0.1-0.2,0.2-0.3,0.3-0.5c0.3-0.5,0.5-0.9,0.7-1.2c0.1-0.4,0.4-1,0.9-1.6
		c0.3-0.5,0.6-0.9,0.6-1.1c0.6-1,1-1.8,1.2-2.2c0.1-0.4,0.3-0.8,0.6-1c0.3-0.2,0.6-0.3,1-0.2c0.2,0.1,0.4,0.2,0.5,0.2
		c0.1,0,0.2,0,0.3,0c0.1,0,0.7,0,1.6,0.2c0.5,0.1,0.9,0.2,1,0.2c0.2,0,0.4,0.1,0.6,0.2c0.2,0.1,0.3,0.1,0.4,0.2
		c0.1,0,0.2,0.1,0.3,0.1c0.1,0,0.3,0.1,0.4,0.1C52,48.1,52.6,48.6,53,49z"/>
	<path class="st0" d="M66.2,53c0,0.4-0.1,0.8-0.2,1.1c-0.1,0.3-0.1,0.5-0.1,0.6c-0.4,0.8-0.9,1.8-1.6,3.1c-0.7,1.3-1,1.8-0.8,1.5
		c-0.1,0.2-0.2,0.4-0.4,0.7c-0.3,0.5-0.5,0.9-0.6,1.2c-0.1,0.4-0.3,0.6-0.6,0.7c-0.2,0.1-0.6,0.2-1,0.3c-0.1,0-0.2,0-0.3,0
		c-0.4-0.1-0.7-0.3-1.1-0.8c-0.1-0.5-0.1-0.8-0.1-1c0-0.2,0.2-0.4,0.3-0.7c0.4-0.7,0.8-1.6,1.4-2.6c0.5-1,1-1.9,1.4-2.6l0.4-0.8
		c0.2-0.4,0.3-0.7,0.3-1c-0.1,0-0.3-0.1-0.6-0.1c-0.3-0.1-0.6-0.1-0.8-0.1c-0.3,0.7-0.7,1.4-1.2,2c-0.5,0.7-1.2,1.6-2.2,2.8
		c-0.5,0.7-1.1,1.3-1.7,1.8l-0.5,0.4l-1.4,0.9L54,61c-0.1,0.1-0.3,0.1-0.4,0.1c-0.2,0-0.3,0-0.5-0.1c-0.2,0-0.3-0.1-0.4-0.1
		c-0.3-0.1-0.5-0.4-0.7-0.7c-0.2-0.3-0.3-0.5-0.4-0.6l-0.1-0.4c0-0.2,0.1-0.3,0.2-0.4c0.1-0.1,0.2-0.2,0.5-0.4
		c0.2-0.2,0.4-0.3,0.6-0.3c0.1,0,0.2,0.1,0.3,0.1c0.2-0.1,0.5-0.2,0.9-0.4c0.4-0.2,0.7-0.3,1-0.5c0.3-0.2,0.5-0.3,0.7-0.5
		c0.6-0.6,1.3-1.4,2.3-2.4c0.4-0.4,0.9-1,1.5-1.9c-0.2-0.1-0.3-0.2-0.3-0.2c0,0-0.2-0.1-0.3-0.3l-0.1-1.5c0.1-0.5,0.4-0.8,1-0.8
		c0.4,0,1,0,1.7,0.1c0.5,0,1,0.1,1.4,0c0.3,0,0.6,0,1,0.1c0.6,0.1,1.1,0.3,1.5,0.6c0.4,0.3,0.7,0.7,0.8,1.2
		C66.1,52.2,66.2,52.6,66.2,53z"/>
	<path class="st0" d="M65.7,62c-0.2-0.3-0.4-0.4-0.4-0.5c0-0.1,0-0.2-0.1-0.4c-0.1-0.2-0.1-0.3-0.2-0.5c-0.1-0.2,0.1-0.7,0.7-1.6
		s1.3-1.8,2.3-2.9c0.2-0.1,0.4-0.3,0.6-0.6c0.3-0.3,0.4-0.4,0.5-0.5c0-0.1,0.1-0.2,0.1-0.2c0.1-0.1,0.2-0.1,0.2-0.1l0.4-0.5
		c0.1-0.2,0.6-0.5,1.5-1.1c0.9-0.6,1.5-0.9,2-1.1c0.5-0.2,0.9-0.2,1.4-0.1c0.5,0.1,0.9,0.3,1.2,0.7l0.7,0.9c0.5,0.7,0.8,1,0.9,1.1
		l0.9,1.3l-0.9,1.5c-0.3,0.5-0.5,1-0.6,1.5c-0.2,0.8-0.1,1.6,0.2,2.4c0.1,0.3,0.2,0.5,0.3,0.6c0.2,0.2,0.4,0.3,0.7,0.4
		c0.4,0.2,0.6,0.5,0.5,0.8c-0.1,0.5-0.2,0.8-0.5,1c-0.2,0.2-0.4,0.3-0.7,0.3c-0.3,0-0.6-0.1-0.7-0.1c-0.6-0.1-1.1-0.4-1.6-0.8
		c-0.4-0.4-0.8-1-1-1.9c-0.1-0.1-0.1-0.4-0.2-0.8c-0.1-0.4-0.1-0.6-0.1-0.7c-0.2,0.2-0.5,0.4-0.9,0.7c-2.6,1.7-4.6,2.5-5.9,2.2
		c-0.5-0.1-0.8-0.3-1.2-0.6C66.1,62.5,66,62.3,65.7,62z M70.6,59.7c0.1-0.1,0.3-0.1,0.4-0.2c0.1-0.1,0.3-0.2,0.5-0.3
		c0.7-0.4,1.2-0.7,1.6-0.9c0.4-0.3,0.8-0.6,1.2-1l0.9-1c-0.1-0.5-0.2-0.8-0.4-1c-0.1-0.2-0.3-0.3-0.5-0.3c-0.4-0.1-1,0.2-1.8,0.8
		c-0.8,0.6-1.8,1.6-2.9,2.9c-0.3,0.3-0.6,0.7-0.8,1.1c-0.2,0.4-0.4,0.6-0.4,0.7C68.7,60.5,69.5,60.2,70.6,59.7z"/>
	<path class="st0" d="M92.1,59.3c-0.3,0.3-0.4,0.5-0.5,0.6c-0.2,0.3-0.4,0.5-0.5,0.7c-0.1,0.2-0.2,0.3-0.3,0.4
		c0.4,0.3,0.5,0.8,0.3,1.5l-0.4,0.4L89.6,63c-0.2,0.3-0.3,0.6-0.4,0.9c-0.1,0.4-0.4,0.9-0.7,1.5L88.2,66c-0.2,0.3-0.3,0.5-0.5,0.6
		c-0.2,0.1-0.4,0.1-0.8,0.1c-0.1-0.1-0.3-0.2-0.5-0.3S86,66.2,86,66.1c-0.1-0.1-0.2-0.2-0.3-0.3c-0.1-0.2-0.1-0.4-0.1-0.6
		c0-0.2,0.2-0.5,0.4-1c0.4-0.8,0.7-1.3,0.9-1.7l-0.6,0c-0.3,0-0.6-0.1-0.7-0.1c-0.2,0-0.3,0-0.4,0c-0.2,0-0.5,0-1-0.1
		c-0.4-0.1-0.8-0.2-1.1-0.3c-0.1,0.1-0.1,0.2-0.2,0.4c-0.1,0.2-0.2,0.4-0.4,0.6c-0.2,0.4-0.3,0.7-0.4,0.8l-0.3,0.8
		c-0.1,0.2-0.2,0.4-0.3,0.8c-0.1,0.4-0.3,0.8-0.5,1c-0.2,0.2-0.5,0.3-0.8,0.2c-0.5-0.1-1-0.5-1.5-1.3l0-0.5l1-2.3
		c0.1-0.1,0.1-0.2,0.2-0.4c0.1-0.1,0.1-0.3,0.2-0.5l0.4-0.8l0.5-0.9c0.5-0.8,0.8-1.4,1.1-1.7c0.1-0.3,0.3-0.6,0.5-0.9
		c0.2-0.3,0.4-0.6,0.5-0.7c0.1-0.1,0.3-0.4,0.6-1c0.3-0.6,0.6-1,0.7-1.2c0.3-0.4,0.6-0.5,1-0.4c0.4,0.1,0.8,0.3,1.1,0.6
		c0.3,0.3,0.4,0.7,0.3,1.1c0,0.1-0.1,0.2-0.1,0.4c-0.1,0.2-0.1,0.3-0.2,0.4l-2.2,3.3c0.2,0,0.4,0,0.7,0c0.3,0,0.5,0,0.6,0
		c0.3,0,0.7,0,1.1,0.1c0.4,0.1,0.8,0.2,1,0.3c0.1-0.1,0.3-0.4,0.6-0.8c0.1-0.2,0.2-0.4,0.4-0.8c0.3-0.5,0.6-1,1-1.4
		c0-0.1,0.1-0.1,0.1-0.3c0-0.1,0.2-0.4,0.6-0.8c0.4-0.1,0.7-0.1,1-0.1c0.4,0.1,0.8,0.3,1,0.6c0.2,0.3,0.3,0.7,0.3,1.1
		c0,0.1-0.1,0.3-0.2,0.5C92.6,58.7,92.4,59,92.1,59.3z"/>
	<path class="st0" d="M104.8,61.9c-0.3,0.3-0.4,0.5-0.5,0.6c-0.2,0.3-0.4,0.5-0.5,0.7c-0.1,0.2-0.2,0.3-0.3,0.4
		c0.4,0.3,0.5,0.8,0.3,1.5l-0.4,0.4l-1.1,0.1c-0.2,0.3-0.3,0.6-0.4,0.9c-0.1,0.4-0.4,0.9-0.7,1.5l-0.3,0.7c-0.2,0.3-0.3,0.5-0.5,0.6
		c-0.2,0.1-0.4,0.1-0.8,0.1c-0.1-0.1-0.3-0.2-0.5-0.3c-0.2-0.1-0.4-0.2-0.5-0.3c-0.1-0.1-0.2-0.2-0.3-0.3c-0.1-0.2-0.1-0.4-0.1-0.6
		c0-0.2,0.2-0.5,0.4-1c0.4-0.8,0.7-1.3,0.9-1.7l-0.6,0c-0.3,0-0.6-0.1-0.7-0.1c-0.2,0-0.3,0-0.4,0c-0.2,0-0.5,0-1-0.1
		c-0.4-0.1-0.8-0.2-1.1-0.3c-0.1,0.1-0.1,0.2-0.2,0.4c-0.1,0.2-0.2,0.4-0.4,0.6c-0.2,0.4-0.3,0.7-0.4,0.8l-0.3,0.8
		c-0.1,0.2-0.2,0.4-0.3,0.8c-0.1,0.4-0.3,0.8-0.5,1c-0.2,0.2-0.5,0.3-0.8,0.2c-0.5-0.1-1-0.5-1.5-1.3l0-0.5l1-2.3
		c0.1-0.1,0.1-0.2,0.2-0.4c0.1-0.1,0.1-0.3,0.2-0.5l0.4-0.8l0.5-0.9c0.5-0.8,0.8-1.4,1.1-1.7c0.1-0.3,0.3-0.6,0.5-0.9
		s0.4-0.6,0.5-0.7c0.1-0.1,0.3-0.4,0.6-1c0.3-0.6,0.6-1,0.7-1.2c0.3-0.4,0.6-0.5,1-0.4c0.4,0.1,0.8,0.3,1.1,0.6
		c0.3,0.3,0.4,0.7,0.3,1.1c0,0.1-0.1,0.2-0.1,0.4c-0.1,0.2-0.1,0.3-0.2,0.4l-2.2,3.3c0.2,0,0.4,0,0.7,0c0.3,0,0.5,0,0.6,0
		c0.3,0,0.7,0,1.1,0.1c0.4,0.1,0.8,0.2,1,0.3c0.1-0.1,0.3-0.4,0.6-0.8c0.1-0.2,0.2-0.4,0.4-0.8c0.3-0.5,0.6-1,1-1.4
		c0-0.1,0.1-0.1,0.1-0.3c0-0.1,0.3-0.4,0.6-0.8c0.4-0.1,0.7-0.1,1-0.1c0.4,0.1,0.8,0.3,1,0.6c0.2,0.3,0.3,0.7,0.2,1.1
		c0,0.1-0.1,0.3-0.2,0.5C105.3,61.3,105.1,61.6,104.8,61.9z"/>
	<path class="st0" d="M105.9,70.4c-0.6-0.8-0.8-1.8-0.5-3.1c0.1-0.5,0.2-1,0.4-1.6c0.1-0.5,0.5-1.1,1-1.9c0.5-0.8,1.2-1.6,2-2.3
		c0.8-0.7,1.7-1.2,2.6-1.4c0.4-0.1,0.8-0.2,1.1-0.2c0.3,0,0.6,0,1,0.1c0.9,0.2,1.5,0.5,2,0.9c0.5,0.4,0.8,0.9,0.9,1.3
		c0.1,0.4,0.2,0.8,0.1,1.1l0,0.2l0,0.1c-0.1,0.3-0.3,0.7-0.7,1.3c-0.4,0.6-1,1.1-1.8,1.6c-0.8,0.5-1.6,0.6-2.7,0.5
		c-0.5-0.1-1-0.2-1.4-0.4c-0.5-0.2-0.7-0.3-0.9-0.3c-0.3-0.1-0.5,0-0.7,0.2c-0.1,0.2-0.3,0.6-0.4,1.1c-0.1,0.6,0,1,0.2,1.3
		c0.2,0.3,0.6,0.5,1.1,0.6c0.3,0.1,0.6,0,0.9,0c0.4-0.1,0.8-0.3,1.4-0.5c0.3-0.2,0.5-0.3,0.7-0.3s0.3-0.1,0.6,0
		c0.2,0,0.4,0.2,0.6,0.5c0.2,0.3,0.3,0.6,0.3,0.8c-0.1,0.2-0.4,0.6-0.9,1c-0.5,0.4-1.2,0.8-1.9,1c-0.8,0.3-1.5,0.3-2.3,0.2
		C107.4,71.7,106.5,71.2,105.9,70.4z M112,64.7c0.2-0.1,0.6-0.3,1.1-0.6c0.5-0.3,0.8-0.6,0.9-0.8c0-0.2,0-0.4-0.2-0.6
		c-0.2-0.2-0.4-0.3-0.7-0.4l-0.3-0.1c-0.3-0.1-0.7,0.1-1.3,0.4s-1.2,0.8-1.6,1.3c0,0.1,0.1,0.2,0.4,0.4c0.3,0.1,0.6,0.2,0.9,0.3
		C111.6,64.7,111.9,64.7,112,64.7z"/>
	<path class="st0" d="M112.2,80.4c-0.2,0-0.3-0.2-0.4-0.4c0,0-0.1-0.2-0.2-0.4c-0.1-0.3-0.1-0.6,0-1.1c0-0.1,0.1-0.2,0.2-0.5
		c0.4-0.8,0.6-1.4,0.7-1.7c0-0.1,0.1-0.3,0.2-0.4c0.1-0.2,0.2-0.4,0.2-0.5c0.1-0.1,0.2-0.3,0.4-0.6c0.1-0.3,0.2-0.5,0.3-0.8
		c0-0.1,0.1-0.2,0.2-0.3c0.1-0.1,0.2-0.2,0.3-0.3c0-0.1,0.1-0.3,0.2-0.6c0.1-0.2,0.2-0.4,0.2-0.5c0.2-0.5,0.9-1.8,2-3.8
		c1.1-2,2.1-3.5,2.9-4.7c0.4-0.5,0.7-1,1-1.5c0.3-0.5,0.4-0.8,0.5-1c0-0.1,0.1-0.2,0.1-0.2c0.1-0.1,0.2-0.1,0.3-0.2
		c0.2-0.1,0.4-0.2,0.7-0.1c0.4,0.1,0.7,0.3,1,0.6c0.1,0.3,0.2,0.5,0.2,0.7c0,0.2,0,0.4,0,0.6c0,0.1-0.1,0.3-0.2,0.6
		c-0.1,0.4-0.3,0.8-0.6,1.1c-0.3,0.3-0.5,0.4-0.4,0.4c1.2-0.4,2.2-0.5,3-0.4c0.9,0.2,1.6,0.7,2.1,1.4c0.4,0.8,0.6,1.6,0.4,2.5
		c-0.1,0.4-0.3,0.8-0.8,1.5c-0.5,0.6-0.8,1-1.1,1.2c-0.1,0-0.3,0.2-0.6,0.6c-0.3,0.3-0.9,0.5-1.6,0.8c-0.8,0.2-1.3,0.3-1.5,0.1
		c0,0-0.1,0-0.1,0.1c-0.1,0-0.1,0.1-0.1,0.2c0,0.1-0.4,0.2-1,0.2c-0.7,0.1-1.2,0.1-1.7,0c-0.3-0.1-0.4-0.1-0.6-0.2
		c-0.1-0.1-0.2-0.2-0.3-0.3c-0.2,0.1-0.3,0.2-0.3,0.4c0,0.2-0.2,0.5-0.5,0.9c-0.3,0.4-0.5,0.6-0.6,0.6c0,0-0.1,0.1-0.1,0.1
		c0,0.1,0,0.1,0,0.2c0,0.1-0.1,0.2-0.1,0.4c-0.1,0.2-0.2,0.4-0.3,0.5c0,0.2-0.1,0.4-0.3,0.8s-0.3,0.5-0.4,0.7
		c-0.1,0.3-0.1,0.5-0.3,0.7c-0.1,0.2-0.2,0.3-0.3,0.3c-0.1,0-0.3,0.3-0.4,0.9c-0.1,0.5-0.4,0.9-0.8,1.2c-0.4,0.3-0.7,0.5-1,0.4
		L112.2,80.4z M120.5,70.1c0.9-0.2,1.5-0.4,2-0.6c0.6-0.3,1-0.6,1.3-0.9s0.5-0.6,0.6-0.9c0.1-0.3,0-0.6-0.1-0.9
		c-0.1-0.3-0.3-0.4-0.6-0.5c-0.7-0.1-1.7,0.2-3,1c-0.5,0.3-0.9,0.7-1.3,1.3c-0.4,0.5-0.7,1-0.7,1.3c0,0.2,0,0.3,0.1,0.3
		C119,70.3,119.6,70.2,120.5,70.1z"/>
</g>
</svg>
