<?xml version="1.0" encoding="utf-8"?>
<!-- Generator: Adobe Illustrator 21.1.0, SVG Export Plug-In . SVG Version: 6.00 Build 0)  -->
<svg version="1.1" id="Layer_1" xmlns="http://www.w3.org/2000/svg" xmlns:xlink="http://www.w3.org/1999/xlink" x="0px" y="0px"
	 viewBox="0 0 257.9 113.9" style="enable-background:new 0 0 257.9 113.9;" xml:space="preserve">
<style type="text/css">
	.st0{fill:#191919;}
</style>
<g>
	<path class="st0" d="M23.9,39.1c-0.1,0.2-0.4,0.4-0.9,0.8c-0.9,0.6-1.5,1.1-1.6,1.3c-0.1,0.1-0.3,0.3-0.7,0.7
		c-0.4,0.3-0.8,0.8-1.3,1.3c-0.8,0.7-1.5,1.4-2,2c-0.6,0.6-0.9,1.1-1.1,1.3c-0.1,0-0.1,0.1-0.2,0.1c-0.1,0.1-0.2,0.1-0.2,0.1
		c0,0-0.1,0.1-0.3,0.2c-0.1,0.1-0.2,0.3-0.3,0.3c0,0.2-0.1,0.4-0.2,0.6c-0.1,0.2-0.3,0.3-0.5,0.3c-0.3,0.2-0.8,0.7-1.6,1.5
		c0.4,1.5,1,2.8,1.8,3.9c0.8,1.3,1.7,2.3,2.4,2.9c0.5,0.4,1,0.8,1.5,1c0.5,0.2,0.8,0.3,1,0.3c0.2,0,0.5,0.2,0.9,0.4
		c0.4,0.2,0.6,0.4,0.7,0.5c0,0,0.1,0.2,0.1,0.4c0,0.3,0,0.6,0,0.9c-0.1,0.3-0.2,0.6-0.4,0.8c-0.2,0.2-0.3,0.3-0.6,0.4
		c-0.2,0-0.6,0-1.2-0.2c-0.4,0.1-1-0.2-2-0.7c-1-0.6-1.7-1.1-2.3-1.6c-0.7-0.8-1.4-1.5-1.9-2.2c-0.5-0.7-1-1.4-1.3-2.2
		c-0.2-0.5-0.4-1.1-0.8-1.7c-0.2-0.4-0.3-0.7-0.3-0.8l-0.1,0.3c0,0.1-0.1,0.5-0.3,1.2c-0.2,0.7-0.4,1.9-0.6,3.7
		c-0.2,1.4-0.4,2.5-0.6,3.5s-0.3,1.6-0.5,2c-0.1,0.4-0.3,0.5-0.5,0.6c-0.2,0-0.4,0-0.7-0.2c-0.8-0.3-1.2-0.7-1.3-1.2
		c0-0.1,0-0.2,0-0.4c-0.1-0.3-0.1-0.6,0-0.8s0-0.4,0-0.5c0.2,0,0.2-0.2,0.2-0.6c0-0.2,0-0.6,0.1-1.2l0.2-1.1l0.3-1
		c0.2-0.7,0.2-1,0.2-1.1c0-0.3,0.1-0.7,0.3-1.2c0.1-0.3,0.1-0.6,0.1-0.9c0-0.3,0-0.6,0-0.8c0-0.1,0.1-0.4,0.3-0.8
		C8,50.7,8,50.3,8.1,49.8c0-0.1,0-0.2,0.1-0.4c0-0.1,0.1-0.3,0.1-0.5l0.7-3.2l0.3-1.2c0-0.1,0.1-0.5,0.3-1.1
		c0.2-0.6,0.3-0.9,0.4-0.9l-0.1-0.4c0-0.1,0.1-0.4,0.2-0.9l0.3-0.9c0.1-0.3,0.2-0.6,0.3-0.9c0.1-0.3,0.1-0.5,0.1-0.6
		c0,0,0-0.1,0.1-0.3c0.1-0.1,0.1-0.2,0.2-0.3c0.2-0.2,0.4-0.3,0.6-0.4c0.3-0.1,0.5-0.2,0.7-0.3c0.4-0.1,0.7,0.1,0.8,0.3
		c0.3,0.5,0.5,0.9,0.6,1.3c0,0.2,0,0.5-0.1,0.7c-0.3,1-0.7,2.3-1.2,3.8c-0.4,1.5-0.8,2.7-1,3.6l0.2-0.2c0.5-0.7,1.3-1.6,2.5-2.7
		l3.7-3.9c0.6-0.4,1.2-1,2-1.8c0.2-0.2,0.4-0.3,0.5-0.4c0.1-0.1,0.2-0.2,0.3-0.3c0.1-0.1,0.4-0.4,0.7-0.7c0.4-0.3,0.6-0.5,0.7-0.5
		c0.1-0.1,0.4,0,0.6,0.2c0.3,0.2,0.5,0.5,0.7,0.8c0.2,0.3,0.3,0.6,0.3,0.8C24,38.7,24,38.9,23.9,39.1z"/>
	<path class="st0" d="M23.9,58.3c-0.2-0.1-0.4-0.2-0.7-0.4c-0.5-0.4-0.9-0.8-1.2-1.3c-0.3-0.5-0.5-0.9-0.5-1.3c0-0.2,0.1-0.3,0-0.5
		c0-0.2-0.1-0.3-0.1-0.3c-0.1-0.1-0.2-0.1-0.2-0.2s0-0.1,0.1-0.1c0,0,0.1-0.1,0.1-0.1c0.1,0,0.2-0.1,0.1-0.4c-0.1-0.2,0-0.6,0.1-1.2
		c0.1-0.6,0.3-1.2,0.5-1.8c0.2-0.4,0.5-1,0.9-1.7c0.4-0.7,0.8-1.2,1.1-1.6c1-1.1,1.9-1.8,2.8-2.2c0.4-0.2,0.9-0.3,1.3-0.4
		c0.6-0.1,1.2,0,1.6,0.3c0.5,0.1,0.9,0.4,1.2,0.7c0.3,0.3,0.5,0.8,0.6,1.4c0,0.1,0.1,0.4,0.1,0.7c0.2,1.7-0.2,3.5-1.2,5.4
		c-0.4,0.8-0.8,1.5-1.3,2c-0.5,0.5-1,1.1-1.7,1.6c-0.4,0.3-0.8,0.6-1.2,0.7c-0.4,0.2-1,0.3-1.8,0.5C24.3,58.4,24.1,58.4,23.9,58.3z
		 M28.1,52.5c0.1-0.4,0.3-1.1,0.5-2.2c0.1-0.2,0.1-0.6,0-1.2c-0.1-0.5-0.2-0.8-0.4-0.9c-0.1-0.1-0.3-0.1-0.4-0.1
		c-0.2,0-0.5,0.2-0.9,0.6c-0.7,0.8-1.2,1.6-1.7,2.4c-0.4,0.8-0.7,1.7-0.7,2.6c0,0.1,0,0.2,0,0.4c0.1,0.8,0.4,1.1,1,1
		c0.5-0.1,1.1-0.5,1.8-1.4C27.8,53.4,28,53,28.1,52.5z"/>
	<path class="st0" d="M47.3,48.3l-1.2,1.3l-0.6,0.6l0.4,0.5c0.4,0.5,0.9,1.1,1.7,1.8c0.8,0.8,1.3,1.3,1.6,1.5
		c0.2,0.3,0.4,0.5,0.4,0.8c0.1,0.5-0.3,0.8-1.1,0.9c-0.9,0.1-1.8-0.3-2.8-1.4c-1-1.1-1.9-2.3-2.7-3.8c-0.2,1-0.3,1.4-0.3,1.3
		l-0.1,0.8c-0.1,1-0.3,1.7-0.5,2.3c-0.2,0.5-0.4,0.9-0.8,0.9L40.7,56c-0.6,0-1-0.2-1.2-0.5c-0.2-0.3-0.4-0.8-0.5-1.5l0.7-2.3
		c0.1-0.2,0.3-0.7,0.4-1.4l-0.9,1.1c-1,1.2-1.9,2.3-2.6,3.3c-0.8,1-1.4,1.8-1.7,2.4c-0.2,0.3-0.5,0.5-0.9,0.6c-0.2,0-0.5,0-1,0
		c-0.2-0.1-0.4-0.3-0.4-0.4c-0.1-0.1-0.2-0.3-0.3-0.4c-0.1-0.4-0.1-0.8,0-1c0.1-0.2,0.3-0.5,0.5-0.7c1.1-1.3,1.9-2.2,2.3-2.8
		c0.2-0.3,0.5-0.6,0.9-1.1c0.4-0.4,0.6-0.6,0.7-0.7c0.1-0.2,0.3-0.4,0.6-0.8c0.3-0.3,0.5-0.6,0.6-0.6c-0.1-0.2-0.4-0.5-0.8-0.9
		c-0.4-0.5-0.7-0.8-1-1c-0.7-0.9-1.2-1.4-1.5-1.8c-0.2-0.3-0.4-0.6-0.3-0.8c0.1-0.6,0.5-1,1.1-1c0.3,0,0.6,0,1,0.1
		c0.7,0.4,1.3,1.1,1.8,2c0.2,0.3,0.4,0.6,0.7,0.9c0.2,0.3,0.4,0.5,0.5,0.7c0.1,0.2,0.3,0.5,0.6,0.9l0.1-1.6c0-0.2,0.1-0.7,0.1-1.4
		c0.1-0.7,0.1-1.2,0-1.3l0-0.2c0-0.2,0-0.5,0-0.8c0-0.2,0.1-0.3,0.2-0.5c0.1-0.1,0.3-0.2,0.5-0.2c0.2,0,0.5,0,0.6,0.1
		c1.1,0.5,1.6,1.1,1.7,1.9c0,0.1,0,0.3,0,0.4l-1.4,4.7c0.7-0.6,1.6-1.4,2.7-2.5c0.4-0.4,0.9-1,1.6-1.8c0.7-0.8,1.2-1.5,1.5-1.9
		c0.2-0.3,0.3-0.4,0.5-0.6s0.3-0.2,0.5-0.2c0.1,0,0.2,0,0.4,0c0.7,0.3,1.1,0.8,1.3,1.3l0,0.1c0.1,0.4,0,0.7-0.2,0.9L47.3,48.3z"/>
	<path class="st0" d="M53.6,53.5c-0.9-0.6-1.4-1.6-1.6-2.9c-0.1-0.5-0.1-1.1-0.1-1.7c0-0.5,0.1-1.3,0.3-2.3s0.7-2,1.2-3
		c0.6-1,1.3-1.8,2.1-2.3c0.4-0.3,0.7-0.4,1-0.6c0.3-0.1,0.6-0.2,1-0.3c0.9-0.1,1.7-0.1,2.3,0.2c0.6,0.3,1.1,0.6,1.4,1
		c0.3,0.4,0.5,0.7,0.5,1.1l0,0.2l0,0.1c0,0.3,0,0.8-0.3,1.5c-0.2,0.8-0.6,1.5-1.2,2.2c-0.6,0.7-1.4,1.2-2.5,1.4
		c-0.5,0.1-1.1,0.1-1.6,0.1c-0.5,0-0.8,0-1,0c-0.3,0-0.5,0.2-0.6,0.5c-0.1,0.3,0,0.7,0,1.3c0.2,0.6,0.4,1,0.7,1.2
		c0.3,0.2,0.7,0.3,1.3,0.2c0.3,0,0.6-0.2,0.9-0.4c0.3-0.2,0.7-0.6,1.2-1c0.2-0.3,0.4-0.4,0.6-0.6c0.1-0.1,0.3-0.2,0.5-0.2
		c0.2,0,0.5,0.1,0.8,0.3c0.3,0.2,0.5,0.5,0.5,0.7c0,0.3-0.2,0.7-0.6,1.3c-0.4,0.6-0.9,1.2-1.5,1.7c-0.7,0.5-1.4,0.8-2.2,1
		C55.5,54.3,54.5,54.1,53.6,53.5z M57.7,45.6c0.2-0.1,0.5-0.5,0.9-1c0.4-0.5,0.6-0.9,0.6-1.1c0-0.2-0.2-0.4-0.4-0.5
		c-0.2-0.1-0.5-0.2-0.8-0.2l-0.4,0.1c-0.3,0-0.7,0.3-1.2,0.9c-0.5,0.6-0.9,1.2-1.2,1.9c0,0.1,0.2,0.2,0.5,0.2c0.3,0,0.7,0,1,0
		C57.3,45.8,57.6,45.7,57.7,45.6z"/>
	<path class="st0" d="M74.3,41.9c-0.2,0.4-0.3,0.6-0.3,0.8c-0.1,0.4-0.2,0.6-0.3,0.8c-0.1,0.2-0.1,0.4-0.1,0.5
		c0.5,0.1,0.7,0.6,0.8,1.4l-0.3,0.6l-1,0.5c0,0.4-0.1,0.7-0.1,1c0,0.4,0,1-0.2,1.7L72.8,50c-0.1,0.4-0.2,0.6-0.3,0.8
		c-0.2,0.1-0.4,0.3-0.7,0.4c-0.1,0-0.3-0.1-0.6-0.1c-0.3-0.1-0.4-0.1-0.6-0.2s-0.2-0.1-0.4-0.2c-0.2-0.2-0.3-0.4-0.3-0.6
		c0-0.2,0-0.6,0.1-1.1c0.1-0.9,0.2-1.6,0.3-2.1L69.8,47c-0.3,0.1-0.6,0.1-0.8,0.2c-0.2,0.1-0.3,0.1-0.4,0.1
		c-0.2,0.1-0.5,0.2-1.1,0.3c-0.4,0.1-0.8,0.1-1.2,0.1c0,0.1-0.1,0.3-0.1,0.5c0,0.2-0.1,0.5-0.1,0.8c-0.1,0.5-0.1,0.8-0.1,1l0,0.9
		c0,0.2,0,0.5,0,0.9c0,0.5,0,0.9-0.2,1.1c-0.2,0.3-0.4,0.4-0.7,0.5c-0.5,0.1-1.2-0.2-1.9-0.8L63,52.1l0.2-2.7c0-0.1,0-0.3,0.1-0.5
		c0-0.2,0-0.3,0-0.5l0.1-0.9l0.2-1.1c0.2-1,0.3-1.7,0.5-2.1c0-0.3,0.1-0.7,0.2-1.1c0.1-0.4,0.2-0.7,0.2-0.8c0-0.1,0.1-0.5,0.2-1.2
		s0.2-1.2,0.3-1.5c0.1-0.5,0.4-0.7,0.9-0.8c0.5-0.1,0.9,0,1.3,0.2c0.4,0.2,0.6,0.6,0.7,1c0,0.1,0,0.2,0,0.5c0,0.2,0,0.4,0,0.4
		l-1,4.1c0.2,0,0.4-0.1,0.7-0.2c0.3-0.1,0.5-0.2,0.6-0.2c0.3-0.1,0.7-0.2,1.2-0.3c0.5-0.1,0.8-0.1,1.1-0.1c0.1-0.2,0.2-0.5,0.3-1
		c0-0.2,0.1-0.5,0.2-0.9c0.1-0.6,0.3-1.2,0.5-1.8c0-0.1,0-0.2,0-0.3c0-0.1,0.1-0.5,0.3-1c0.3-0.2,0.6-0.4,0.9-0.4
		c0.4-0.1,0.9,0,1.2,0.3c0.4,0.2,0.6,0.6,0.6,1c0,0.2,0,0.3,0,0.5C74.6,41.2,74.5,41.5,74.3,41.9z"/>
	<path class="st0" d="M94.5,37c0.2,0.2,0.3,0.4,0.3,0.7c0.1,0.5,0,1.1-0.3,1.7c-0.1,0.5-0.2,1-0.4,1.5c-0.1,0.5-0.3,0.8-0.4,0.9
		l-0.5,1.9c-0.2,0.8-0.5,1.7-0.9,2.8c-0.4,1.3-0.7,2.3-0.9,3l-0.3,0.8c-0.9,1.9-1.5,3.3-2.1,4.1c-0.4,0.5-0.9,1.1-1.5,1.6
		c-0.6,0.6-1.1,0.9-1.5,1c-0.4,0.1-0.9,0.3-1.4,0.3c-0.9,0.1-1.8,0.1-2.5-0.1c-0.8-0.2-1.2-0.5-1.4-1L80.7,56
		c-0.1-0.4,0.1-0.7,0.3-1c0.3-0.3,0.6-0.4,0.9-0.5c0.2,0,0.4,0,0.5,0.1c0,0,0.2,0.1,0.6,0.3c0.3,0.2,0.8,0.2,1.3,0.2
		c1-0.1,1.9-0.9,2.7-2.4c0.7-1.6,1.3-2.9,1.6-3.9c-0.5-0.2-1-0.6-1.5-1.2c-0.5-0.6-0.8-1-0.8-1.2L86.4,46c-0.2,0-0.4-0.3-0.5-1
		c-0.2-0.7-0.3-1.5-0.5-2.5c-0.1-1.1-0.2-1.8-0.2-2.3c0-0.4,0-0.8,0-1.3C85,38.5,85,38.2,85,38c-0.1-0.3,0-0.6,0.1-0.8
		c0.1-0.3,0.2-0.4,0.4-0.5c0.3-0.2,0.5-0.2,0.7-0.3c1-0.1,1.7,0.9,2,3.1c0.1,0.4,0.1,0.8,0.1,1c0.1,1.1,0.2,1.8,0.3,2.3
		c0.2,1.7,0.6,2.8,1.2,3.2c0.1-0.5,0.3-0.9,0.4-1.1c0.2-0.7,0.3-1.1,0.4-1.3c0-0.2,0.1-0.4,0.3-0.8l0.3-1c0-0.1,0.1-0.6,0.3-1.4
		c0.1-0.8,0.3-1.4,0.5-1.9c0.1-0.2,0.2-0.5,0.3-0.8c0.1-0.4,0.2-0.6,0.3-0.8c0.1-0.2,0.2-0.3,0.3-0.4c0.2-0.2,0.3-0.3,0.5-0.3
		c0.2,0,0.4,0,0.7,0.1C94.1,36.6,94.4,36.8,94.5,37z"/>
	<path class="st0" d="M107.6,34.9c0.1,0.2,0.2,0.4,0.3,0.7c0.1,0.4-0.1,0.9-0.4,1.3c-0.2,0.1-0.4,0.5-0.7,1.1
		c-0.3,0.6-0.6,1.2-0.8,1.8c0,0.2-0.1,0.3-0.2,0.5c-0.1,0.2-0.2,0.3-0.2,0.4l-1.2,3.3l0,0.4c0.4-0.1,0.7,0.1,0.8,0.3
		c0.2,0.4,0.3,0.8,0.4,1c0,0.2,0,0.4-0.1,0.5c-0.1,0.2-0.2,0.4-0.4,0.7c-0.3,0.4-0.6,0.6-1,0.6c-0.2,0-0.4,0-0.6,0
		c-0.7-0.2-1.1-0.5-1.4-0.9c-0.3-0.3-0.5-0.9-0.6-1.6c-0.1-0.4-0.1-0.8-0.1-1c0-0.1,0.1-0.7,0.3-1.7c-0.2,0.3-0.5,0.5-0.8,0.8
		c-0.3,0.3-0.7,0.5-1,0.6c-0.1,0.1-0.3,0.1-0.4,0.2c-0.3,0-0.7,0-1.1-0.2c-0.4-0.2-0.7-0.4-1-0.7c-0.2-0.4-0.4-0.7-0.5-1.1
		c0-0.1-0.1-0.3-0.1-0.5c-0.1-0.7,0-1.3,0.2-2l0.5-1.4c0.4-1,0.6-1.8,0.7-2.3c0.3-0.6,0.4-0.9,0.4-1c0-0.2,0.1-0.5,0.3-0.7
		c0.2-0.2,0.4-0.3,0.6-0.4c0.7,0,1.3,0.2,1.8,0.6c0.2,0.2,0.3,0.5,0.4,0.8c0.1,0.4,0,0.7-0.2,1c-0.5,1-1,2.3-1.6,4
		c0,0.1,0,0.2,0,0.3c0,0.1,0.1,0.3,0.2,0.6c0.6-0.2,1.1-0.5,1.5-0.8c0.4-0.4,0.9-0.9,1.4-1.5c0.3-0.5,0.6-0.8,0.8-1
		c0.5-0.5,0.8-1,1-1.6c0.4-1,0.8-1.5,1.3-1.6c0.2,0,0.4,0,0.6,0c0.2,0,0.4,0.1,0.6,0.2C107.3,34.6,107.4,34.7,107.6,34.9z"/>
	<path class="st0" d="M110.4,45.5c-0.9-0.6-1.4-1.6-1.6-2.9c-0.1-0.5-0.1-1.1-0.1-1.7c0-0.5,0.1-1.3,0.3-2.3s0.7-2,1.2-3
		c0.6-1,1.3-1.8,2.1-2.3c0.4-0.3,0.7-0.4,1-0.6c0.3-0.1,0.6-0.2,1-0.3c0.9-0.1,1.7-0.1,2.3,0.2c0.6,0.3,1.1,0.6,1.4,1
		c0.3,0.4,0.5,0.7,0.5,1.1l0,0.2l0,0.1c0,0.3,0,0.8-0.3,1.5c-0.2,0.8-0.6,1.5-1.2,2.2c-0.6,0.7-1.4,1.2-2.5,1.4
		c-0.5,0.1-1.1,0.1-1.6,0.1c-0.5,0-0.8,0-1,0c-0.3,0-0.5,0.2-0.6,0.5c-0.1,0.3,0,0.7,0,1.3c0.2,0.6,0.4,1,0.7,1.2
		c0.3,0.2,0.7,0.3,1.3,0.2c0.3,0,0.6-0.2,0.9-0.4c0.3-0.2,0.7-0.6,1.2-1c0.2-0.3,0.4-0.4,0.6-0.6c0.1-0.1,0.3-0.2,0.6-0.2
		c0.2,0,0.5,0.1,0.8,0.3c0.3,0.2,0.5,0.5,0.5,0.7c0,0.3-0.2,0.7-0.6,1.3c-0.4,0.6-0.9,1.2-1.5,1.7c-0.7,0.5-1.4,0.8-2.2,1
		C112.4,46.3,111.3,46.1,110.4,45.5z M114.5,37.7c0.2-0.1,0.5-0.5,0.9-1c0.4-0.5,0.6-0.9,0.6-1.1c0-0.2-0.2-0.4-0.4-0.5
		c-0.2-0.1-0.5-0.2-0.8-0.2l-0.4,0.1c-0.3,0-0.7,0.3-1.2,0.9c-0.5,0.6-0.9,1.2-1.2,1.9c0,0.1,0.2,0.2,0.5,0.2c0.3,0,0.7,0,1,0
		C114.1,37.8,114.4,37.8,114.5,37.7z"/>
	<path class="st0" d="M131.2,33.9c-0.2,0.4-0.3,0.6-0.3,0.8c-0.1,0.4-0.2,0.6-0.3,0.8c-0.1,0.2-0.1,0.4-0.1,0.5
		c0.5,0.1,0.7,0.6,0.8,1.4L131,38l-1,0.5c0,0.4-0.1,0.7-0.1,1c0,0.4,0,1-0.2,1.7l-0.1,0.8c-0.1,0.4-0.2,0.6-0.3,0.8
		c-0.2,0.1-0.4,0.3-0.7,0.4c-0.1,0-0.3-0.1-0.6-0.1c-0.3-0.1-0.4-0.1-0.6-0.2c-0.1-0.1-0.2-0.1-0.4-0.2c-0.2-0.2-0.3-0.4-0.3-0.6
		c0-0.2,0-0.6,0.1-1.1c0.1-0.9,0.2-1.6,0.3-2.1l-0.6,0.2c-0.3,0.1-0.6,0.1-0.8,0.2c-0.2,0.1-0.3,0.1-0.4,0.1
		c-0.2,0.1-0.5,0.2-1.1,0.3c-0.4,0.1-0.8,0.1-1.2,0.1c0,0.1-0.1,0.3-0.1,0.5c0,0.2-0.1,0.5-0.1,0.8c-0.1,0.5-0.1,0.8-0.1,1l0,0.9
		c0,0.2,0,0.5,0,0.9c0,0.5,0,0.9-0.2,1.1c-0.2,0.3-0.4,0.4-0.7,0.5c-0.5,0.1-1.2-0.2-1.9-0.8l-0.2-0.4l0.2-2.7
		c0-0.1,0.1-0.3,0.1-0.5c0-0.2,0-0.3,0-0.5l0.1-0.9l0.2-1.1c0.2-1,0.3-1.7,0.5-2.1c0-0.3,0.1-0.7,0.2-1.1c0.1-0.4,0.2-0.7,0.2-0.8
		c0-0.1,0.1-0.5,0.2-1.2s0.2-1.2,0.3-1.5c0.1-0.5,0.4-0.7,0.9-0.8c0.5-0.1,0.9,0,1.3,0.2c0.4,0.2,0.6,0.6,0.7,1c0,0.1,0,0.2,0,0.5
		c0,0.2,0,0.4,0,0.4l-1,4.1c0.2,0,0.4-0.1,0.7-0.2c0.3-0.1,0.5-0.2,0.6-0.2c0.3-0.1,0.7-0.2,1.2-0.3c0.5-0.1,0.8-0.1,1.1-0.1
		c0.1-0.2,0.2-0.5,0.3-1c0-0.2,0.1-0.5,0.2-0.9c0.1-0.6,0.3-1.2,0.5-1.8c0-0.1,0-0.2,0-0.3c0-0.1,0.1-0.5,0.3-1
		c0.3-0.2,0.6-0.4,0.9-0.4c0.4-0.1,0.9,0,1.2,0.3c0.4,0.2,0.6,0.6,0.6,1c0,0.2,0,0.3,0,0.5C131.4,33.2,131.3,33.6,131.2,33.9z"/>
	<path class="st0" d="M144,36.4c0.1,0.3,0.2,0.5,0.2,0.8c0,0.2,0,0.3,0,0.4c0,0.5-0.2,1-0.5,1.6c-0.3,0.5-0.7,1-1.2,1.4
		c-0.8,0.6-1.5,1.1-2.2,1.4c-0.7,0.3-1.6,0.5-2.6,0.7c-0.5,0.1-1,0-1.4-0.1c-0.4-0.1-0.8-0.4-1.3-0.9c-0.4-0.4-0.6-0.9-0.6-1.4
		c-0.1-0.6-0.1-1.4,0.1-2.4s0.3-1.8,0.6-2.4c0-0.3,0-0.7,0.2-1c0.1-0.3,0.2-0.5,0.3-0.6c0-0.4,0.2-1,0.6-1.9
		c0.3-0.9,0.6-1.4,0.8-1.6c0-0.4,0.1-0.7,0.3-1c0.2-0.3,0.3-0.5,0.3-0.6l0.6-0.3c0.1,0,0.3,0.1,0.5,0.1c0.2,0,0.5,0.1,0.7,0.3
		c0.1,0,0.2,0.1,0.4,0.3c0.2,0.2,0.4,0.4,0.6,0.8c0,0.3,0,0.5,0,0.8c-0.1,0.2-0.2,0.4-0.3,0.6c-0.1,0.2-0.2,0.3-0.2,0.4
		c-0.2,0.4-0.5,1-1,1.7l0.1,0c0.4-0.1,0.9,0,1.6,0.2c0.6,0.2,1.1,0.4,1.4,0.6c0.1,0.1,0.3,0.2,0.6,0.4c0.2,0.2,0.5,0.4,0.6,0.6
		s0.3,0.4,0.5,0.7C143.8,35.9,143.9,36.1,144,36.4z M140.8,35.9c-0.4-0.2-0.7-0.2-0.9-0.2l-0.1,0c-0.1,0-0.2,0-0.5-0.1
		c-0.2,0-0.3,0-0.4,0c-0.1,0-0.2,0-0.4,0.1c-0.2,0.1-0.3,0.2-0.4,0.2c-0.1,0-0.1,0.1-0.1,0.1l0,0c0,0.2,0,0.4-0.2,0.6
		c-0.1,0.2-0.2,0.6-0.3,1.1c-0.1,0.6-0.1,1.1-0.2,1.6c0.3-0.1,0.5-0.1,0.8-0.3c0.3-0.1,0.5-0.2,0.7-0.3c0.2-0.1,0.5-0.2,0.8-0.4
		c0.3-0.2,0.5-0.4,0.6-0.5c0.6-0.4,0.9-0.9,1-1.5C141.4,36.3,141.2,36.1,140.8,35.9z"/>
	<path class="st0" d="M156.3,39.8c-0.2-0.1-0.4-0.2-0.7-0.4c-0.5-0.4-0.9-0.8-1.2-1.3c-0.3-0.5-0.5-0.9-0.5-1.3c0-0.2,0.1-0.3,0-0.5
		c0-0.2-0.1-0.3-0.1-0.3c-0.1-0.1-0.2-0.1-0.2-0.2c0,0,0-0.1,0.1-0.1c0,0,0.1-0.1,0.1-0.1c0.1,0,0.2-0.1,0.1-0.4
		c-0.1-0.2,0-0.6,0.1-1.2c0.1-0.6,0.3-1.2,0.5-1.8c0.2-0.4,0.5-1,0.9-1.7c0.4-0.7,0.8-1.2,1.1-1.6c1-1.1,1.9-1.8,2.8-2.2
		c0.4-0.2,0.9-0.3,1.3-0.4c0.6-0.1,1.2,0,1.6,0.3c0.5,0.1,0.9,0.4,1.2,0.7c0.3,0.3,0.5,0.8,0.6,1.4c0,0.1,0.1,0.4,0.1,0.7
		c0.2,1.7-0.2,3.5-1.2,5.4c-0.4,0.8-0.8,1.5-1.3,2c-0.5,0.5-1,1.1-1.7,1.6c-0.4,0.3-0.8,0.6-1.2,0.7c-0.4,0.2-1,0.3-1.8,0.5
		C156.7,39.9,156.5,39.9,156.3,39.8z M160.5,34c0.1-0.4,0.3-1.1,0.5-2.2c0.1-0.2,0.1-0.6,0-1.2c-0.1-0.5-0.2-0.8-0.4-0.9
		c-0.1-0.1-0.3-0.1-0.4-0.1c-0.2,0-0.5,0.2-0.9,0.6c-0.7,0.8-1.2,1.6-1.7,2.4c-0.4,0.8-0.7,1.7-0.7,2.6c0,0.1,0,0.2,0,0.4
		c0.1,0.8,0.4,1.1,1,1c0.5-0.1,1.1-0.5,1.8-1.4C160.2,34.8,160.4,34.4,160.5,34z"/>
	<path class="st0" d="M183.2,34c0,0,0,0.1,0,0.3c0,0.2,0,0.4-0.1,0.6c-0.1,0.2-0.3,0.3-0.4,0.3c-0.5,0.1-1.2,0-1.8-0.1
		c-0.7-0.2-1.1-0.5-1.1-1l-0.3-2.1c-0.1-0.9-0.3-1.4-0.5-1.5c-0.4-0.1-0.8,0.2-1.2,0.9c-0.5,0.8-1,1.9-1.6,3.3
		c-0.2,0.5-0.5,0.9-0.7,1.2c-0.2,0.2-0.4,0.4-0.6,0.4c-0.2,0-0.3,0-0.4-0.1c-0.7-0.1-1.1-0.4-1.2-1c0-0.1,0-0.2,0-0.4
		c0.1-0.7,0.2-1.5,0.3-2.4c0.1-0.9,0.2-1.6,0.2-2.3c-0.1-0.1-0.2-0.2-0.4-0.2c-0.2,0-0.5,0.2-0.7,0.4c-0.1,0.1-0.2,0.2-0.4,0.4
		c-0.2,0.2-0.4,0.4-0.6,0.7c-0.2,0.3-0.4,0.6-0.6,1.1c-0.1,0.2-0.2,0.4-0.4,0.8c-0.9,1.9-1.4,2.9-1.6,3.2c-0.1,0.3-0.1,0.6-0.2,0.7
		c-0.1,0.1-0.2,0.2-0.3,0.2c-0.1,0-0.2,0-0.3-0.1c-0.5-0.1-0.8-0.4-1.1-0.7c-0.3-0.3-0.5-0.8-0.6-1.3c0-0.3,0-1,0-2.1
		c0.1-1,0.2-2,0.3-2.9c0.1-0.4,0.2-0.8,0.3-1.2c0-0.4,0.1-0.7,0-0.8c0-0.4,0.1-1,0.2-1.8c0.1-0.8,0.2-1.2,0.3-1.2
		c0.1-0.2,0.4-0.3,0.7-0.3c0.2,0,0.5,0,0.7,0c0.2,0.1,0.4,0.2,0.5,0.3c0.3,0.3,0.5,0.7,0.6,1.3c0.1,0.5,0,1.1-0.1,1.8
		c-0.2,0.5-0.3,1.3-0.5,2.4l0.1-0.1c0.4-0.8,1-1.8,1.7-2.8c0.3-0.5,0.7-0.9,1.2-1.2c0.5-0.3,0.9-0.5,1.2-0.5c0.5,0,1,0.2,1.5,0.6
		s0.7,0.9,0.9,1.7c0,0.3,0.1,0.6,0.1,1c0,0.4,0,0.7,0,0.8c0.1-0.1,0.3-0.4,0.6-0.9c0.3-0.5,0.7-1,1.2-1.5c0.4-0.4,0.9-0.7,1.3-0.8
		c0.4,0,0.7,0.1,1,0.3c0.5,0.2,1,0.6,1.4,1.2c0.4,0.6,0.6,1.3,0.7,2.2c0,0.3,0.1,0.5,0.1,0.7c0,0.2,0,0.4,0.1,0.7
		c0,0.3,0.1,0.6,0.2,0.9c0.1,0.3,0.2,0.5,0.3,0.7C183.1,33.9,183.2,34,183.2,34z"/>
	<path class="st0" d="M185.7,44c-0.2,0-0.4,0-0.5-0.2c0,0-0.1-0.1-0.4-0.4c-0.2-0.2-0.4-0.6-0.4-1c0-0.1,0-0.3,0-0.5
		c0.1-1,0.1-1.6,0.1-2c0-0.1,0-0.3,0-0.5c0-0.2,0-0.4,0-0.6c0.1-0.2,0.1-0.4,0.1-0.8c0-0.3,0-0.6,0-0.9c0-0.1,0-0.2,0.1-0.4
		c0.1-0.2,0.1-0.3,0.2-0.4c0-0.1,0-0.3,0-0.6c0-0.3,0-0.5,0.1-0.6c0-0.6,0.3-2.1,0.7-4.5c0.4-2.4,0.8-4.3,1.2-5.7
		c0.2-0.7,0.3-1.3,0.4-1.8c0.1-0.6,0.1-1,0.1-1.2c0-0.1,0-0.2,0-0.3c0-0.1,0.1-0.2,0.2-0.4c0.2-0.2,0.4-0.3,0.7-0.4
		c0.4-0.1,0.8,0,1.2,0.2c0.2,0.2,0.3,0.4,0.4,0.6c0.1,0.2,0.2,0.4,0.2,0.6c0,0.1,0,0.3,0,0.6c0.1,0.5,0,0.9-0.2,1.3
		c-0.2,0.4-0.3,0.6-0.3,0.6c1-0.8,2-1.3,2.9-1.4c1-0.1,1.9,0.1,2.6,0.7s1.1,1.4,1.3,2.4c0.1,0.4,0,1-0.3,1.8
		c-0.3,0.8-0.5,1.3-0.7,1.5c-0.1,0-0.3,0.3-0.4,0.8c-0.2,0.4-0.7,0.8-1.4,1.3s-1.2,0.7-1.5,0.7c0,0-0.1,0-0.1,0.1c0,0.1,0,0.1,0,0.2
		c0,0.1-0.3,0.3-0.9,0.6c-0.6,0.3-1.2,0.5-1.7,0.6c-0.3,0-0.5,0-0.6,0s-0.3-0.1-0.4-0.2c-0.1,0.2-0.2,0.3-0.2,0.5
		c0,0.2,0,0.6-0.2,1.1c-0.2,0.5-0.3,0.8-0.4,0.8c0,0,0,0.1-0.1,0.1c0,0.1,0,0.1,0.1,0.2c0,0.1,0,0.2,0,0.5c0,0.2,0,0.4-0.1,0.6
		c0,0.2,0,0.5,0,0.8c0,0.4-0.1,0.6-0.1,0.8c0,0.3,0,0.5,0,0.8c0,0.3-0.1,0.4-0.2,0.4c-0.1,0.1-0.1,0.4-0.1,1c0.1,0.5-0.1,1-0.3,1.5
		c-0.3,0.5-0.5,0.7-0.8,0.8L185.7,44z M190.3,30.9c0.8-0.5,1.4-0.9,1.8-1.3c0.5-0.5,0.8-0.9,1-1.3c0.2-0.4,0.3-0.8,0.3-1.1
		c0-0.3-0.2-0.6-0.4-0.9c-0.2-0.2-0.4-0.3-0.8-0.3c-0.7,0.1-1.6,0.8-2.6,2.1c-0.3,0.5-0.6,1.1-0.8,1.7c-0.2,0.7-0.3,1.2-0.3,1.5
		c0,0.2,0.1,0.3,0.2,0.3C189,31.6,189.5,31.3,190.3,30.9z"/>
	<path class="st0" d="M205.8,32.3c-0.2-0.3-0.4-0.8-0.7-1.4c-0.1-0.1-0.1-0.3-0.1-0.6c0-0.3-0.1-0.4-0.1-0.6
		c-0.1,0.2-0.1,0.4-0.2,0.7c-0.1,0.3-0.2,0.4-0.3,0.5c-0.4,0.6-0.9,1-1.4,1.4c-0.7,0.5-1.2,0.9-1.7,0.9c-0.6,0.1-1.2-0.1-1.7-0.6
		c-0.8-0.5-1.2-1.1-1.4-1.9c0-0.1,0-0.3,0-0.6c-0.1-0.8-0.1-1.6,0-2.4s0.3-1.8,0.7-3.1l0.7-2.1l0.4-1.1c0.1-0.1,0.3-0.1,0.5-0.1
		c0.4,0,0.7,0,1,0.1c0.3,0.1,0.5,0.2,0.6,0.5c0.1,0.1,0.1,0.2,0.2,0.5c0.1,0.7-0.1,1.7-0.5,3l-0.2,0.7c-0.3,1-0.5,1.8-0.6,2.4
		c-0.1,0.6-0.1,1-0.1,1.4c0.1,0.4,0.2,0.6,0.5,0.6c0.1,0.1,0.3,0.1,0.4,0c0.4-0.1,0.9-0.5,1.5-1.3c0.5-0.8,1-2,1.5-3.8
		c0.2-0.8,0.3-1.6,0.2-2.4c-0.1-0.2,0-0.5,0.1-0.8c0.1-0.3,0.3-0.6,0.6-0.8c0.1-0.1,0.2-0.3,0.3-0.4c0.1-0.1,0.2-0.1,0.3,0l0.5-0.1
		c0.1,0,0.2,0.1,0.4,0.3c0.2,0.2,0.3,0.3,0.4,0.4c0.2,0.1,0.4,0.5,0.5,1c0.1,0.7,0,1.8-0.4,3.2c-0.3,1-0.5,1.7-0.6,2.2
		c-0.1,0.5-0.1,1-0.1,1.4c0.1,0.5,0.2,0.8,0.3,1.1c0.1,0.2,0.3,0.5,0.7,0.7c0.4,0.2,0.6,0.8,0.7,1.7c0,0.2-0.1,0.3-0.3,0.4
		c-0.2,0.1-0.4,0.2-0.7,0.2c-0.5,0.1-0.9,0-1.3-0.2C206.2,32.9,206,32.7,205.8,32.3z"/>
	<path class="st0" d="M225,22.9c-0.1,1.4-0.2,2.3-0.2,2.9c0.1,0.7,0.1,1.2,0.1,1.5c0.1,0.4,0.2,0.8,0.3,1.2c0.2,0.5,0.3,0.9,0.3,1.2
		c0.1,0.4,0,0.6-0.1,0.8c-0.1,0.2-0.4,0.4-0.8,0.5c-0.4,0.1-0.7,0-0.9-0.1c-0.2-0.1-0.4-0.3-0.6-0.6c-0.1-0.2-0.3-0.4-0.4-0.7
		c-0.2-0.3-0.3-0.6-0.4-0.8c-0.1-0.2-0.1-0.5-0.2-0.8c0-0.1-0.1-0.3-0.1-0.5c-0.1-0.3-0.1-0.4,0-0.5l-0.1-0.4
		c-0.1-0.5-0.1-1.5,0-2.9c-0.1,0.1-0.2,0.3-0.4,0.7c-0.1,0.1-0.2,0.2-0.2,0.4s-0.2,0.3-0.3,0.4c-0.5,0.9-0.8,1.4-0.9,1.7
		c-0.2,0.4-0.4,0.7-0.6,1c-0.2,0.3-0.2,0.6-0.3,0.8c0,0.4-0.1,0.6-0.3,0.8s-0.4,0.3-0.7,0.3c-0.1,0-0.4-0.2-1-0.6
		c-0.4-0.3-0.6-0.6-0.6-1.1c0-0.1,0-0.3,0-0.6c0-0.1-0.1-0.8-0.3-1.9c-0.2-1.1-0.5-2-0.8-2.7l-3,6.7c-0.2,0.3-0.3,0.7-0.4,1.1
		c-0.2,0.6-0.5,1-0.8,1c-0.2,0-0.4,0-0.6-0.2c-0.5-0.2-0.9-0.4-1-0.6c-0.2-0.2-0.3-0.7-0.5-1.3c0.1-0.4,0.3-0.7,0.5-0.7
		c1.1-2.4,1.8-3.7,2-4.1c0.2-0.4,0.4-0.6,0.4-0.8c0.1-0.4,0.4-0.9,0.7-1.5c0-0.1,0.2-0.5,0.6-1.1c0.4-0.6,0.6-0.9,0.8-1l0.1-0.5
		c0-0.6,0.4-0.9,1-1c0.1,0,0.2,0,0.3,0c0.2,0.1,0.4,0.1,0.6,0.3c0.2,0.1,0.4,0.2,0.5,0.4c0.1,0.1,0.3,0.2,0.4,0.3l0.3,0.5
		c0,0.2,0,0.3,0,0.4c0,0.2,0.2,0.5,0.4,1.2c0,0.1,0.1,0.5,0.3,1.1c0.3,0.8,0.4,1.3,0.4,1.5c0.5-0.8,1.9-2.9,4.4-6.2
		c0.3-0.3,0.5-0.5,0.7-0.5c0.1,0,0.3,0,0.5,0.1c0.3,0.1,0.5,0.2,0.6,0.3c0.1,0.1,0.2,0.2,0.4,0.4c0.2,0.3,0.4,0.5,0.4,0.9
		c0,0.2,0,0.4-0.1,0.6C225.3,20.6,225.2,21.5,225,22.9z"/>
	<path class="st0" d="M237.9,16.9c0.2,0.2,0.3,0.4,0.3,0.7c0.1,0.5,0,1.1-0.3,1.7c-0.1,0.5-0.2,1-0.4,1.5c-0.1,0.5-0.3,0.8-0.4,0.9
		l-0.5,1.9c-0.2,0.8-0.5,1.7-0.9,2.8c-0.4,1.3-0.7,2.3-0.9,3l-0.3,0.8c-0.9,1.9-1.6,3.3-2.1,4.1c-0.4,0.5-0.9,1.1-1.5,1.6
		c-0.6,0.6-1.1,0.9-1.5,1c-0.4,0.1-0.9,0.3-1.4,0.3c-0.9,0.1-1.8,0.1-2.5-0.1c-0.8-0.2-1.2-0.5-1.4-1l-0.1-0.4
		c-0.1-0.4,0.1-0.7,0.3-1c0.3-0.3,0.6-0.4,0.9-0.5c0.2,0,0.4,0,0.5,0.1c0,0,0.2,0.1,0.6,0.3s0.8,0.2,1.3,0.2c1-0.1,1.9-0.9,2.7-2.4
		c0.7-1.6,1.3-2.9,1.6-3.9c-0.5-0.2-1-0.6-1.5-1.2c-0.5-0.6-0.8-1-0.8-1.2l-0.1-0.4c-0.2,0-0.4-0.3-0.5-1c-0.2-0.7-0.3-1.5-0.5-2.5
		c-0.2-1.1-0.2-1.8-0.2-2.3c0-0.4,0-0.8,0-1.3c-0.1-0.5-0.1-0.9-0.1-1c-0.1-0.3,0-0.6,0.1-0.8c0.1-0.3,0.2-0.4,0.4-0.5
		c0.3-0.2,0.5-0.2,0.7-0.3c1-0.1,1.7,0.9,2,3.1c0.1,0.4,0.1,0.8,0.1,1c0.1,1.1,0.2,1.8,0.3,2.3c0.2,1.7,0.6,2.8,1.2,3.3
		c0.1-0.5,0.3-0.9,0.4-1.1c0.2-0.7,0.3-1.1,0.4-1.3c0-0.2,0.1-0.4,0.3-0.8l0.3-1c0-0.1,0.1-0.6,0.3-1.4c0.1-0.8,0.3-1.4,0.5-1.9
		c0.1-0.2,0.2-0.5,0.3-0.8c0.1-0.4,0.2-0.6,0.3-0.8c0.1-0.2,0.2-0.3,0.3-0.4c0.2-0.2,0.3-0.3,0.5-0.3c0.2,0,0.4,0,0.7,0.1
		C237.5,16.5,237.7,16.7,237.9,16.9z"/>
	<path class="st0" d="M243.9,25.4c0,0,0.3-0.2,0.8-0.6c0.5-0.4,1.1-0.9,1.7-1.4c0.2-0.1,0.3-0.3,0.5-0.5c0.2-0.2,0.3-0.3,0.3-0.4
		c0.4-0.1,0.6-0.2,0.7-0.2c0.1,0,0.3,0,0.5,0.1c0.2,0.1,0.3,0.3,0.3,0.4c0.1,0.2,0.2,0.3,0.3,0.3c0.2,0.2,0.3,0.4,0.3,0.6
		c0,0.3,0,0.7-0.2,1c-0.2,0.4-0.4,0.7-0.7,1l-0.8,0.6c-0.5,0.4-0.9,0.7-1.2,0.9c-0.1,0-0.3,0.1-0.7,0.2s-0.6,0.2-0.7,0.3
		c-0.2,0.1-0.4,0.2-0.5,0.3c-0.2,0.1-0.3,0.1-0.5,0.2c-0.2,0.1-0.5,0.2-0.9,0.3c-0.4,0.1-0.8,0-1.1-0.1c-0.5-0.1-1-0.3-1.4-0.7
		c-0.4-0.4-0.8-0.8-1.2-1.5l-0.5-1.6c0-0.8,0-1.4,0-2c0-0.6,0.1-1.1,0.3-1.6c0.6-1.7,1.3-3.2,2.3-4.4c0.2-0.4,0.5-0.6,0.8-0.7
		c0.2-0.3,0.5-0.6,0.9-0.8c0.4-0.3,0.8-0.5,1.3-0.6c0.1,0,0.3-0.1,0.4-0.1c0.4-0.1,0.9,0,1.5,0.1c0.6,0.1,1.2,0.4,1.8,0.9
		c0.4,0.4,0.7,0.8,0.8,1.2c0.2,0.4,0.3,1.1,0.4,2c0.1,0.6-0.1,1.1-0.7,1.5l-0.6,0.1c-0.2,0-0.5-0.1-0.9-0.3
		c-0.4-0.3-0.7-0.8-0.9-1.3l0.2-1.2l-0.5-0.3c-0.1-0.1-0.2-0.1-0.4-0.1c-0.4,0.1-0.9,0.4-1.4,0.9c-0.5,0.6-1,1.1-1.4,1.6
		c-0.4,0.5-0.7,0.8-0.8,1l-0.3,0.4l2.1-0.7c0.2-0.1,0.4-0.1,0.5-0.1c0.3,0,0.6,0,0.9,0.1c0.3,0.2,0.6,0.4,0.8,0.8
		c0.2,0.2,0.3,0.4,0.3,0.5c0,0.2,0,0.3-0.2,0.4c-0.2,0.1-0.3,0.1-0.3,0.1l-2.2,0.6l-2.1,0.4c0,0.3,0,0.6,0.1,0.8
		c0.2,1.1,0.6,1.8,1.2,1.9C243.5,25.4,243.9,25.4,243.9,25.4z"/>
	<path class="st0" d="M69.6,96.9c-0.3-0.1-0.4-0.3-0.6-0.5c-0.1-0.1-0.3-0.3-0.6-0.7s-0.4-0.6-0.5-0.9c-0.2-1.1-0.4-1.8-0.5-2.3
		c-0.1-0.6-0.2-1.5-0.3-2.6c-0.1-1.1,0-2.1,0.1-3c0.1-0.9,0.3-1.8,0.5-2.8c0.1-0.2,0.1-0.4,0.1-0.5c0-0.1,0-0.2,0-0.2
		c-0.2,0-0.4,0.6-0.6,1.5c0,0.1-0.1,0.3-0.2,0.6c-0.1,0.2-0.2,0.5-0.3,0.8c-0.4,1.5-1.3,3.7-2.6,6.8c-0.2,0.3-0.4,0.7-0.7,1.3
		c-0.5,1.1-1,2-1.4,2.4c-0.5,0.7-1.2,1.1-1.8,1.2c-0.3,0-0.6,0-1-0.1c-0.4,0-0.7-0.2-1.1-0.6c-0.4-0.4-0.6-0.8-0.5-1.2
		c-0.1-0.5-0.2-1.7-0.3-3.5c-0.1-1.8-0.1-3.2,0-4.4c0-1.1,0.1-2.9,0.3-5.4l0.2-3.7c0.1-0.4,0.2-1.1,0.4-2.1l0.1-1.1
		c0-0.4,0.1-0.6,0.2-0.8c0.2-0.2,0.4-0.3,0.8-0.4c0.3,0,0.5,0,0.8,0c0.3,0.1,0.5,0.2,0.6,0.3c0.5,0.4,0.9,1,0.9,1.6
		c0,0.4,0,0.7-0.1,1.2c-0.7,2.6-1,5.9-1.1,10c0,1.4,0,2.7,0,4c0,1.2,0.1,1.9,0.1,1.9c0.3,0,0.7-0.5,1.1-1.7c1.1-2.6,2.4-5.9,3.8-9.9
		c0-0.1,0.4-1.1,1.1-3l0.6-1.6l0.4-1c0.4-1.1,0.8-2,1-2.6c0.3-0.6,0.5-0.9,0.6-1c0.6-0.1,1,0,1.3,0.2c0.3,0.2,0.7,0.6,1,1.1
		c0.1,0.2,0.1,0.4,0.2,0.6c0,0.2,0,0.4,0,0.7c0,0.1-0.1,0.5-0.2,1c-0.1,0.6-0.2,1.1-0.2,1.7c-0.3,1.2-0.4,2.3-0.5,3.4
		c0,0.4-0.1,0.9-0.1,1.3c0,0.4-0.1,0.8-0.1,1.2c-0.1,1.7-0.2,3.2-0.3,4.3c0,1.1,0,2.2,0.1,3c0.1,0.6,0.1,1,0.2,1.2
		c0.1,0.2,0.2,0.4,0.3,0.6c0,0.1,0.1,0.2,0.2,0.1c0.1,0,0.3-0.2,0.5-0.6c0.3-0.5,0.4-0.9,0.6-1.3c0.1-0.4,0.2-0.7,0.3-0.9
		c0.2-0.7,0.4-1.3,0.6-1.9c0.6-1.6,1.2-3.4,1.8-5.4c0.6-2,1.2-3.9,1.6-5.5c0.4-1.9,0.7-3.3,1-4.2c0.3-0.8,0.5-1.4,0.8-1.6
		c0.1-0.1,0.3-0.2,0.6-0.2c0.4-0.1,0.7,0,1,0.1c0,0,0.2,0.1,0.5,0.3c0.3,0.2,0.4,0.4,0.4,0.7c-0.1,0.7-0.4,2.2-1,4.6s-1,4.1-1.4,5.2
		c-0.1,0.2-0.2,0.5-0.4,1c0,0.1-0.1,0.2-0.2,0.5c-0.1,0.3-0.2,0.5-0.1,0.6c0,0.2-0.4,1.5-1.3,3.7c-0.9,2.3-1.5,3.8-2,4.6
		c-0.4,0.7-0.9,1.4-1.5,1.9c-0.6,0.6-1.1,1-1.6,1.4c-0.5,0.3-0.8,0.5-1,0.5C70.1,97.1,69.9,97,69.6,96.9z"/>
	<path class="st0" d="M82,92.2c-0.9-0.6-1.4-1.6-1.6-2.9c-0.1-0.5-0.1-1.1-0.1-1.7c0-0.5,0.1-1.3,0.3-2.3c0.3-1,0.7-2,1.2-3
		c0.6-1,1.3-1.8,2.1-2.3c0.4-0.3,0.7-0.4,1-0.6c0.3-0.1,0.6-0.2,1-0.3c0.9-0.1,1.7-0.1,2.3,0.2c0.6,0.3,1.1,0.6,1.4,1
		c0.3,0.4,0.5,0.7,0.5,1.1l0,0.2l0,0.1c0,0.3-0.1,0.8-0.3,1.5c-0.2,0.8-0.6,1.5-1.2,2.2s-1.4,1.2-2.5,1.4c-0.5,0.1-1.1,0.1-1.6,0.1
		c-0.5,0-0.8,0-1,0c-0.3,0-0.5,0.2-0.6,0.5c-0.1,0.3,0,0.7,0,1.3c0.2,0.6,0.4,1,0.7,1.2s0.7,0.3,1.3,0.2c0.3,0,0.6-0.2,0.9-0.4
		c0.3-0.2,0.7-0.6,1.2-1c0.2-0.3,0.4-0.4,0.6-0.6c0.1-0.1,0.3-0.2,0.6-0.2c0.2,0,0.5,0.1,0.8,0.3c0.3,0.2,0.5,0.5,0.5,0.7
		c0,0.3-0.2,0.7-0.6,1.3c-0.4,0.6-0.9,1.2-1.5,1.7c-0.7,0.5-1.4,0.8-2.2,1C83.9,93,82.8,92.8,82,92.2z M86.1,84.3
		c0.2-0.1,0.5-0.5,0.9-1c0.4-0.5,0.6-0.9,0.6-1.1c0-0.2-0.2-0.4-0.4-0.5c-0.2-0.1-0.5-0.2-0.8-0.2L86,81.6c-0.3,0-0.7,0.3-1.2,0.9
		c-0.5,0.6-0.9,1.2-1.2,1.9c0,0.1,0.2,0.2,0.5,0.2c0.3,0,0.7,0,1,0C85.7,84.5,85.9,84.4,86.1,84.3z"/>
	<path class="st0" d="M93.8,92c-0.5,0.1-0.9-0.1-1.3-0.6c-0.4-0.5-0.6-1.1-0.8-2c-0.1-0.4-0.1-0.9,0-1.3c0.2-0.7,0.2-1.2,0.2-1.5
		c0-0.4,0.1-1.2,0.4-2.4c0.2-1.2,0.4-1.9,0.5-2.1c0.1,0,0.2-0.1,0.2-0.3c0-0.2,0.1-0.3,0-0.5c0-0.2,0-0.4,0-0.6
		c0-0.2,0.1-0.4,0.2-0.5c0-0.1,0-0.2,0-0.4c0-0.2,0-0.3,0-0.4c0,0,0-0.1,0-0.3c0-0.1,0.1-0.2,0-0.3c0.3-0.7,0.7-2.4,1.2-4.9
		c0.6-2.5,0.8-4,0.8-4.2c0-0.2,0-0.4,0.1-0.5c0.1-0.2,0.3-0.3,0.4-0.3c0.1-0.1,0.2-0.1,0.4-0.2c0.2-0.1,0.4-0.1,0.5-0.1l0.6,0.5
		c0.3,0.2,0.5,0.4,0.7,0.5c0.2,0.2,0.3,0.4,0.3,0.6c0.1,0.4,0,0.8-0.1,1.2s-0.4,1.4-0.9,2.9c0,0.1-0.2,0.5-0.4,1.3
		c-0.2,0.5-0.2,0.8-0.2,0.8c0,0.1,0,0.2-0.1,0.4c-0.1,0.2-0.1,0.5-0.1,0.7c-0.1,0.4-0.3,1.1-0.6,2s-0.4,1.5-0.4,1.6
		c0,0.2,0,0.4-0.1,0.6c-0.1,0-0.1,0.1-0.1,0.2c0,0.1,0,0.2,0,0.2c0,0.2-0.1,0.8-0.3,1.9L95,85c-0.2,1.5-0.4,2.6-0.4,3.3
		c-0.1,0.7-0.1,1.3,0,1.7c0.1,0.5,0,0.9-0.1,1.2c-0.1,0.3-0.3,0.6-0.5,0.7C94,92,93.9,92,93.8,92z"/>
	<path class="st0" d="M102,90.7c-0.9,0.1-1.8-0.1-2.6-0.5c-0.8-0.5-1.2-1.2-1.4-2.1L98,87.5c-0.1-1-0.1-2.3,0.2-3.7s0.7-2.7,1.3-3.6
		c0.5-0.7,0.9-1.3,1.2-1.8c0.3-0.5,0.7-0.8,1-1c0.3-0.2,0.6-0.3,1.1-0.5c0.4-0.2,0.8-0.2,1-0.3c0.5,0,0.9,0.1,1.3,0.3
		s0.6,0.3,0.7,0.6l0.2,0.1c0.2,0,0.4,0.2,0.7,0.7c0.3,0.5,0.5,0.9,0.5,1.3c0,0.2,0,0.4,0,0.5c0,0.4-0.1,0.9-0.3,1.3
		c-0.2,0.4-0.4,0.7-0.6,0.7c-0.2,0-0.4,0.1-0.3,0.3c0,0.1-0.1,0.2-0.4,0.2c-0.2,0-0.5,0-0.7-0.1c-0.3-0.1-0.4-0.2-0.5-0.3
		c0-0.1,0-0.6,0.1-1.4c0-0.3,0-0.6,0-0.9c-0.1-0.4-0.2-0.6-0.5-0.5c-0.1,0-0.2,0.1-0.5,0.2c-0.5,0.4-0.9,0.8-1.2,1.3
		c-0.3,0.5-0.5,1.1-0.7,1.8c-0.2,0.8-0.3,1.8-0.5,3.2c0,0.3,0,0.5,0,0.8c0,0.3,0.1,0.5,0.2,0.6c0.1,0.2,0.2,0.2,0.2,0.3
		c0.1,0,0.3,0,0.6,0c0.6-0.1,1-0.2,1.3-0.5c0.4-0.3,0.7-0.6,1.1-0.9c0.3-0.3,0.6-0.5,0.6-0.6c0-0.1,0.1-0.2,0.2-0.4
		c0.1-0.2,0.2-0.4,0.4-0.5c0.1-0.2,0.3-0.4,0.5-0.4c0.2-0.1,0.4-0.1,0.6-0.2s0.3,0,0.4-0.1c0.3,0,0.6,0.2,0.9,0.5
		c0.3,0.3,0.4,0.5,0.2,0.6c-0.1,0-0.1,0-0.1,0.1c0,0,0,0.1,0,0.1c0.1,0.1-0.1,0.4-0.4,1c-0.3,0.5-0.7,1.1-1.1,1.6
		c-0.4,0.5-0.7,0.8-0.9,0.8c-0.1,0-0.2,0-0.2,0.1c-0.1,0-0.1,0.1-0.1,0.2c0,0.1-0.3,0.3-0.9,0.8c-0.6,0.4-1.2,0.7-1.6,0.9
		C102.4,90.6,102.2,90.6,102,90.7z"/>
	<path class="st0" d="M112.3,88.6c-0.2-0.1-0.4-0.2-0.7-0.4c-0.5-0.4-0.9-0.8-1.2-1.3c-0.3-0.5-0.5-0.9-0.5-1.3c0-0.2,0.1-0.3,0-0.5
		c0-0.2-0.1-0.3-0.1-0.3c-0.1-0.1-0.2-0.1-0.2-0.2c0,0,0-0.1,0.1-0.1s0.1-0.1,0.1-0.1c0.1,0,0.2-0.1,0.1-0.4c-0.1-0.2,0-0.6,0.1-1.2
		c0.1-0.6,0.3-1.2,0.5-1.8c0.2-0.4,0.5-1,0.9-1.7c0.4-0.7,0.8-1.2,1.1-1.6c1-1.1,1.9-1.8,2.8-2.2c0.4-0.2,0.9-0.3,1.3-0.4
		c0.6-0.1,1.2,0,1.6,0.3c0.5,0.1,0.9,0.4,1.2,0.7c0.3,0.3,0.5,0.8,0.6,1.4c0,0.1,0.1,0.4,0.1,0.7c0.2,1.7-0.2,3.5-1.2,5.4
		c-0.4,0.8-0.8,1.5-1.3,2c-0.5,0.5-1,1.1-1.7,1.6c-0.4,0.3-0.8,0.6-1.2,0.7c-0.4,0.2-1,0.3-1.8,0.5
		C112.7,88.7,112.5,88.7,112.3,88.6z M116.6,82.8c0.1-0.4,0.3-1.1,0.5-2.2c0.1-0.2,0.1-0.6,0-1.2c-0.1-0.5-0.2-0.8-0.4-0.9
		c-0.1-0.1-0.3-0.1-0.4-0.1c-0.2,0-0.5,0.2-0.9,0.6c-0.7,0.8-1.2,1.6-1.7,2.4c-0.4,0.8-0.7,1.7-0.7,2.6c0,0.1,0,0.2,0,0.4
		c0.1,0.8,0.4,1.1,1,1c0.5-0.1,1.1-0.5,1.8-1.4C116.2,83.7,116.5,83.2,116.6,82.8z"/>
	<path class="st0" d="M138.1,84.5c-0.2,0-0.4-0.2-0.8-0.4c-0.3-0.2-0.6-0.6-0.9-1c-0.3-0.5-0.5-1-0.6-1.7c-0.1-0.4-0.1-0.8-0.1-1.1
		c0-0.3,0-0.5,0-0.6c0-0.1-0.1-0.2-0.1-0.2c-0.6,0.1-1.7,1.3-3.3,3.7c-0.1,0.1-0.1,0.1-0.1,0.2c-0.2,0.2-0.5,0.5-0.6,0.7
		c-0.3,0.4-0.5,0.6-0.7,0.8c-0.2,0.2-0.4,0.3-0.7,0.3c-0.2,0-0.3,0-0.5-0.1l-0.4-0.3c-0.1-0.1-0.2-0.2-0.4-0.3
		c-0.1-0.2-0.2-0.3-0.2-0.5l0-0.1l0-0.1l0.5-2.4c0.4-1.3,0.6-2.1,0.5-2.3c0,0,0-0.1,0-0.1c-0.2,0-0.5,0.2-0.8,0.6s-0.8,1.1-1.4,2
		l-1.3,1.8c-0.2,0.2-0.6,0.8-1.2,1.8c-0.4,0.7-0.6,1-0.6,1c-0.5,0.1-1-0.1-1.4-0.4c-0.4-0.3-0.7-0.8-0.8-1.3c0-0.3,0-0.6,0-1.1
		c0-0.5,0.1-0.9,0.1-1.4c0-0.2,0-0.4,0.1-0.6c0-0.2,0-0.5,0.1-0.8c0-0.2,0-0.5,0-0.8c0-0.3,0.1-0.6,0.2-1.1c0.1-0.5,0.3-1.1,0.5-1.9
		c0-0.3,0.1-0.6,0-0.9c0-0.2-0.1-0.3-0.1-0.4c0-0.1-0.1-0.2-0.1-0.3c0-0.3,0.1-0.6,0.4-0.9c0.3-0.3,0.6-0.4,1-0.5
		c0.6-0.1,1,0.1,1.4,0.4c0.3,0.4,0.6,0.8,0.6,1.2c0.1,0.4,0,0.8-0.1,1.1l-0.2,1c-0.1,0.2-0.2,0.6-0.3,1.2c-0.2,0.6-0.2,0.9-0.2,1
		c0,0.1,0,0.1,0.1,0.1l0,0c0.1,0,0.3-0.2,0.5-0.4c0.6-0.8,1.4-1.6,2.3-2.5c0.9-0.9,1.6-1.4,2-1.6c0.2,0,0.4,0,0.7,0.2
		c0.3,0.1,0.6,0.3,0.9,0.6c0.3,0.3,0.4,0.6,0.5,0.9l0,0.3c0,0.1-0.1,0.5-0.1,1.2c-0.1,0.7-0.1,1.1-0.2,1.2c0.4-0.5,1-1.3,2-2.1
		c0.9-0.9,1.7-1.4,2.2-1.4c0.7-0.1,1.3,0.1,1.6,0.7s0.6,1.4,0.8,2.6c0.2,1.1,0.5,1.8,0.7,2.2c0.1,0.1,0.2,0.2,0.5,0.3
		c0.3,0.1,0.5,0.1,0.7,0.2c0.2,0.1,0.3,0.3,0.4,0.7c0.1,0.5-0.1,0.9-0.5,1.1s-0.9,0.4-1.5,0.5C138.5,84.6,138.3,84.5,138.1,84.5z"/>
	<path class="st0" d="M142.8,83.6c-0.9-0.6-1.4-1.6-1.6-2.9c-0.1-0.5-0.1-1.1-0.1-1.7c0-0.5,0.1-1.3,0.3-2.3c0.3-1,0.7-2,1.2-3
		c0.6-1,1.3-1.8,2.1-2.3c0.4-0.3,0.7-0.4,1-0.6c0.3-0.1,0.6-0.2,1-0.3c0.9-0.1,1.7-0.1,2.3,0.2c0.6,0.3,1.1,0.6,1.4,1
		c0.3,0.4,0.5,0.7,0.5,1.1l0,0.2l0,0.1c0,0.3,0,0.8-0.3,1.5c-0.2,0.8-0.6,1.5-1.2,2.2s-1.4,1.2-2.5,1.4c-0.5,0.1-1.1,0.1-1.6,0.1
		c-0.5,0-0.8,0-1,0c-0.3,0-0.5,0.2-0.6,0.5c-0.1,0.3,0,0.7,0,1.3c0.2,0.6,0.4,1,0.7,1.2s0.7,0.3,1.3,0.2c0.3,0,0.6-0.2,0.9-0.4
		c0.3-0.2,0.7-0.6,1.2-1c0.2-0.3,0.4-0.4,0.6-0.6c0.1-0.1,0.3-0.2,0.5-0.2c0.2,0,0.5,0.1,0.8,0.3c0.3,0.2,0.5,0.5,0.5,0.7
		c0,0.3-0.2,0.7-0.6,1.3c-0.4,0.6-0.9,1.2-1.5,1.7c-0.7,0.5-1.4,0.8-2.2,1C144.8,84.5,143.7,84.2,142.8,83.6z M146.9,75.8
		c0.2-0.1,0.5-0.5,0.9-1c0.4-0.5,0.6-0.9,0.6-1.1c0-0.2-0.2-0.4-0.4-0.5c-0.2-0.1-0.5-0.2-0.8-0.2l-0.4,0.1c-0.3,0-0.7,0.3-1.2,0.9
		c-0.5,0.6-0.9,1.2-1.2,1.9c0,0.1,0.2,0.2,0.5,0.2s0.7,0,1,0C146.5,76,146.8,75.9,146.9,75.8z"/>
	<path class="st0" d="M161.7,83.9c-0.1-0.1-0.3-0.2-0.4-0.3c-0.2-0.1-0.4-0.3-0.5-0.5c-0.1-0.2-0.2-0.5-0.3-1
		c-0.1-0.8,0-1.9,0.3-3.5c0.1-0.6,0.2-1.3,0.2-1.9c0.1-0.4,0.1-0.7,0.1-0.9c0-0.2,0-0.4,0-0.6c0-0.2,0-0.4,0-0.5
		c0.3,0,0.4-0.5,0.5-1.5c0-0.3,0.1-0.6,0.1-0.9c0-0.2,0.1-0.4,0.1-0.6c0-0.1,0.1-0.2,0.1-0.3c0-0.1,0.1-0.3,0.1-0.4
		c0.1-0.6,0.2-1.1,0.4-1.6c0.1-1,0.3-2.1,0.5-3.3c0.2-1.2,0.4-2,0.6-2.6l0.3-1.1c0-0.1,0-0.2,0.1-0.4c0.1-0.2,0.1-0.3,0.1-0.4
		c0-0.1-0.1-0.2-0.1-0.2c-0.2-0.1-0.3-0.3-0.3-0.6c-0.1-0.6,0.1-1,0.4-1.5c0.2-0.3,0.5-0.6,0.9-0.8c0.4-0.2,0.9-0.3,1.5-0.4
		c0.2,0,0.7-0.1,1.3-0.1c0.3,0,1-0.1,2.1-0.3c0.1,0,0.4,0.1,0.8,0.2c0.8,0.2,1.2,0.3,1.2,0.4c0,0.1,0.1,0.2,0.2,0.2
		c0.1,0,0.2,0.1,0.4,0.1c0.2,0,0.7,0.2,1.4,0.7c0.7,0.5,1.2,1,1.6,1.5c0.3,0.4,0.4,0.7,0.6,0.9c0.1,0.2,0.2,0.5,0.2,0.8
		c0,0.1,0,0.4,0,0.7c0,0.4,0,0.7,0,1.1c0,0.3-0.1,0.6-0.1,0.7c-0.3,0.3-0.5,0.6-0.4,0.8c0,0.2-0.2,0.9-0.7,2c-0.5,1.1-1,1.9-1.4,2.5
		c-0.5,0.8-1.1,1.4-1.8,2.1c-0.9,0.6-1.9,1.1-3,1.5c-1.1,0.5-2,0.7-2.6,0.8c-0.7,0.2-1.1,0.4-1.3,0.5c-0.2,0.1-0.3,0.3-0.3,0.6
		c-0.1,0.3-0.1,0.7-0.2,1c-0.1,0.3-0.1,0.5-0.1,0.7c-0.1,0.3-0.3,1.1-0.5,2.4c-0.2,1.3-0.4,2.3-0.5,3c0,0.3-0.2,0.6-0.4,0.8
		s-0.5,0.3-0.7,0.4C162,84,161.9,84,161.7,83.9z M165.7,72.1c0.6-0.1,1.3-0.4,2.2-0.9c0.8-0.4,1.6-0.9,2.5-1.7
		c0.4-0.4,0.9-1.1,1.5-2c0.1-0.2,0.3-0.8,0.6-1.7c0.1-0.3,0.3-0.8,0.4-1.3c0.1-0.5,0.1-1,0.1-1.3c0-0.2-0.1-0.3-0.1-0.4
		c-0.4-1.1-1.1-1.8-2.3-2c-0.7,0-1.2,0-1.5,0c-0.2,0-0.4,0.1-0.8,0.2c-0.3,0.2-0.6,0.3-0.7,0.6c-0.1,0.2-0.3,0.7-0.4,1.4
		c-0.5,1.5-0.9,2.5-1,3.1c-0.2,1.6-0.4,2.8-0.6,3.7c-0.2,0.9-0.3,1.4-0.3,1.5l0,0.1c0,0.1,0,0.3,0,0.4c0,0.1,0,0.2,0.1,0.3
		C165.3,72.2,165.5,72.2,165.7,72.1z"/>
	<path class="st0" d="M175.7,78.9c-0.3-0.2-0.5-0.3-0.5-0.3c0-0.1-0.1-0.2-0.2-0.4c-0.1-0.2-0.2-0.3-0.3-0.4
		c-0.2-0.2-0.2-0.8,0.1-1.8c0.3-1,0.7-2.3,1.2-3.7c0.1-0.2,0.3-0.4,0.4-0.8c0.2-0.4,0.3-0.6,0.3-0.6c0-0.1,0-0.2,0.1-0.3
		c0.1-0.1,0.1-0.1,0.2-0.2l0.2-0.6c0.1-0.2,0.4-0.8,1.1-1.6c0.7-0.9,1.2-1.5,1.6-1.8c0.4-0.3,0.8-0.6,1.3-0.6c0.5-0.1,1,0,1.4,0.3
		l1,0.6c0.7,0.5,1.2,0.7,1.3,0.8l1.4,0.9l-0.3,1.8c-0.1,0.6-0.1,1.2-0.1,1.8c0.1,0.8,0.5,1.6,1,2.3c0.1,0.2,0.3,0.4,0.5,0.5
		c0.2,0.1,0.5,0.2,0.8,0.2c0.5,0,0.8,0.2,0.8,0.6c0.1,0.5,0,0.9-0.1,1.1c-0.1,0.3-0.3,0.5-0.6,0.6c-0.4,0.1-0.6,0.2-0.7,0.2
		c-0.6,0.1-1.3,0-1.8-0.3s-1.1-0.8-1.6-1.5c-0.1-0.1-0.3-0.4-0.5-0.7c-0.2-0.3-0.3-0.6-0.4-0.7c-0.1,0.2-0.3,0.6-0.6,1
		c-2,2.6-3.7,4.1-5.1,4.3c-0.5,0.1-0.9,0-1.4-0.2C176.3,79.2,176.1,79,175.7,78.9z M179.7,74.8c0.1-0.1,0.2-0.2,0.3-0.4
		c0.1-0.1,0.2-0.3,0.4-0.4c0.6-0.6,1-1.1,1.3-1.5c0.3-0.4,0.6-0.9,0.9-1.4l0.6-1.3c-0.3-0.5-0.5-0.8-0.7-0.9
		c-0.2-0.1-0.4-0.2-0.6-0.2c-0.4,0.1-0.9,0.5-1.5,1.4c-0.6,0.9-1.2,2.2-1.9,3.9c-0.2,0.4-0.3,0.9-0.4,1.3c-0.1,0.5-0.2,0.8-0.2,0.9
		C178.2,76.3,178.8,75.8,179.7,74.8z"/>
	<path class="st0" d="M194,77.8c-0.9,0.1-1.8-0.1-2.6-0.5c-0.8-0.5-1.2-1.2-1.4-2.1l-0.1-0.5c-0.1-1-0.1-2.3,0.2-3.7
		c0.3-1.5,0.7-2.7,1.3-3.6c0.5-0.7,0.9-1.3,1.2-1.8c0.3-0.5,0.7-0.8,1-1c0.3-0.2,0.6-0.3,1.1-0.5c0.4-0.2,0.8-0.2,1-0.3
		c0.5,0,0.9,0.1,1.3,0.3c0.4,0.1,0.6,0.3,0.7,0.6l0.2,0.1c0.2,0,0.4,0.2,0.7,0.7c0.3,0.5,0.4,0.9,0.5,1.3c0,0.2,0,0.4,0,0.5
		c0,0.4-0.1,0.9-0.3,1.3c-0.2,0.4-0.4,0.7-0.6,0.7c-0.2,0-0.4,0.1-0.3,0.3c0,0.1-0.1,0.2-0.4,0.2c-0.2,0-0.5,0-0.7-0.1
		s-0.4-0.2-0.5-0.3c0-0.1,0-0.6,0.1-1.4c0-0.3,0-0.6,0-0.9c-0.1-0.4-0.2-0.6-0.5-0.5c-0.1,0-0.2,0.1-0.5,0.2c-0.5,0.4-1,0.8-1.2,1.3
		c-0.3,0.5-0.5,1.1-0.7,1.8c-0.2,0.8-0.3,1.8-0.5,3.2c0,0.3,0,0.5,0,0.8c0,0.3,0.1,0.5,0.2,0.6c0.1,0.2,0.2,0.2,0.2,0.3
		c0.1,0,0.3,0,0.6,0c0.6-0.1,1-0.2,1.3-0.5c0.4-0.3,0.7-0.6,1.1-0.9c0.3-0.3,0.6-0.5,0.6-0.6c0-0.1,0.1-0.2,0.2-0.4
		c0.1-0.2,0.2-0.4,0.4-0.5c0.1-0.2,0.3-0.4,0.5-0.4c0.2-0.1,0.4-0.1,0.6-0.2c0.2,0,0.3,0,0.4-0.1c0.3,0,0.6,0.2,0.9,0.5
		c0.3,0.3,0.4,0.5,0.2,0.6c-0.1,0-0.1,0-0.1,0.1c0,0,0,0.1,0,0.1c0.1,0.1-0.1,0.4-0.4,1c-0.3,0.5-0.7,1.1-1.1,1.6
		c-0.4,0.5-0.7,0.8-0.9,0.8c-0.1,0-0.2,0-0.2,0.1c-0.1,0-0.1,0.1-0.1,0.2c0,0.1-0.3,0.3-0.9,0.8c-0.6,0.4-1.2,0.7-1.6,0.9
		C194.4,77.7,194.2,77.7,194,77.8z"/>
	<path class="st0" d="M210.2,75.1c-0.6-0.3-1.4-1.1-2.6-2.3c0-0.1-0.2-0.4-0.5-0.9c-0.3-0.5-0.5-0.7-0.6-0.8c0,0.1-0.1-0.1-0.2-0.4
		c-0.1-0.3-0.3-0.4-0.6-0.4c-0.1,0-0.3,0.3-0.5,0.8c-0.2,0.5-0.3,1.1-0.5,1.8c-0.1,0.7-0.1,1.2-0.1,1.7c0,0.4,0,0.7-0.2,1
		c-0.2,0.3-0.4,0.5-0.8,0.5c-0.3,0-0.7-0.3-1.3-0.9c-0.6-0.5-0.9-1-0.9-1.4l0.3-1.5l0.4-2.1c0.2-0.3,0.3-0.7,0.3-1.1
		c0.1-0.4,0.1-0.7,0.1-0.8c0.1-0.4,0.4-1.3,0.7-2.7c0.3-1.1,0.5-1.8,0.6-2.2c0.4-1.5,0.9-3.1,1.4-4.9l0.1-0.2
		c0.3-0.8,0.5-1.8,0.8-2.9c0.3-1.1,0.4-1.8,0.4-2.1l0-0.1l0-0.1c0-0.2,0.1-0.3,0.3-0.5c0.2-0.1,0.6-0.2,1-0.3c0.2,0,0.5,0.1,0.9,0.5
		c0.4,0.3,0.6,0.7,0.6,1c0.1,0.8-0.3,2.6-1.2,5.6c-0.7,2.1-1.2,3.7-1.4,4.9c-0.3,1.1-0.4,1.8-0.4,2c0,0.1,0,0.1,0,0.1
		c0,0,0.1-0.1,0.3-0.2c0.1-0.1,0.3-0.2,0.4-0.3c0.1-0.1,0.4-0.4,0.9-0.8c0.8-0.8,1.4-1.3,1.7-1.5c0.9-0.8,1.4-1.2,1.7-1.3
		c0.2,0,0.5,0.1,0.8,0.3c0.3,0.3,0.5,0.5,0.5,0.8c0.1,0.5-0.2,1-0.9,1.6c-0.7,0.6-1.6,1.4-2.7,2.2c-0.6,0.4-0.9,0.7-1,0.8
		c0,0,0.3,0.4,1,1.1c0.2,0.3,0.4,0.6,0.6,0.8c0.2,0.2,0.3,0.5,0.4,0.6c0.4,0.6,0.8,1.1,1,1.3s0.5,0.3,0.9,0.3c0.1,0,0.3-0.1,0.6-0.2
		c0.3-0.1,0.5-0.2,0.6-0.2c0.3,0,0.6,0,0.9,0.2c0.3,0.2,0.4,0.4,0.4,0.7c0,0.2-0.1,0.5-0.5,0.9c-0.3,0.4-0.8,0.7-1.2,1
		c-0.5,0.3-0.8,0.5-1,0.5C211.3,75.6,210.8,75.5,210.2,75.1z"/>
</g>
</svg>
