<?xml version="1.0" encoding="utf-8"?>
<!-- Generator: Adobe Illustrator 21.1.0, SVG Export Plug-In . SVG Version: 6.00 Build 0)  -->
<svg version="1.1" id="Layer_1" xmlns="http://www.w3.org/2000/svg" xmlns:xlink="http://www.w3.org/1999/xlink" x="0px" y="0px"
	 viewBox="0 0 66 28" style="enable-background:new 0 0 66 28;" xml:space="preserve">
<style type="text/css">
	.st0{fill:#191919;}
</style>
<g>
	<path class="st0" d="M3.1,23c-0.6-0.4-1.1-0.9-1.4-1.5c-0.4-0.9-0.6-1.9-0.7-3.1c-0.1-1.2-0.1-2.2,0-3c0.1-0.8,0.3-1.7,0.5-2.6
		l0.2-0.6c0.3-0.8,0.4-1.4,0.6-1.7c0.3-0.8,0.8-1.9,1.6-3.2C4.6,6,5.2,5.1,5.6,4.5C6,3.9,6.5,3.3,6.9,2.8C7.4,2.4,8.1,1.8,9,1
		c0.5-0.5,1.2-0.7,2.1-0.8c0.7-0.1,1.3,0.1,1.8,0.3c0.6,0.3,1,0.7,1.4,1.4c0.2,0.3,0.4,0.8,0.4,1.4c0.1,1-0.1,2-0.4,3.2
		c-0.4,1.2-0.9,2-1.5,2.7c-0.1,0.2-0.3,0.2-0.6,0.3c-0.2,0-0.5,0-0.8-0.2c-0.3-0.1-0.6-0.3-0.8-0.5c-0.2-0.3-0.3-0.5-0.3-0.6
		c0-0.1,0-0.1,0.1-0.1c0.2-0.2,0.4-0.7,0.7-1.3c0.3-0.7,0.5-1.2,0.6-1.5l0.1-0.9c0.1-0.5,0.1-0.9,0.1-1c0-0.2-0.1-0.3-0.2-0.5
		c-0.1-0.1-0.1-0.1-0.2-0.1c-0.2,0-0.4,0.1-0.8,0.4c-0.4,0.2-1,0.7-1.5,1.3C8.5,5.2,7.9,6,7.4,6.9C6.6,8.2,5.9,9.2,5.5,10
		c-0.4,0.8-0.7,1.6-0.9,2.5l-0.3,0.8c0,0.1,0,0.3,0,0.6c-0.1,0.3-0.1,0.6-0.2,0.8c-0.2,1.2-0.2,2.2-0.2,3.2c0.1,0.7,0.2,1.4,0.4,1.9
		c0.2,0.5,0.4,0.9,0.7,1.1c0.2,0.1,0.4,0.2,0.7,0.2c0.3,0,0.7-0.1,1.1-0.3c0.4-0.2,0.8-0.4,1.3-0.6c0.4-0.2,0.8-0.4,0.9-0.5
		c0.4-0.2,0.9-0.5,1.3-0.7c0.4-0.3,0.7-0.5,0.9-0.7c0.5-0.4,0.9-0.6,1.2-0.7c0.3-0.1,0.5,0,0.6,0.2c0.2,0.2,0.3,0.6,0.3,1
		c0,0.3-0.1,0.6-0.5,1c-0.4,0.4-0.8,0.8-1.3,1.1c-0.2,0.2-0.7,0.5-1.4,0.9c-0.6,0.5-1.3,1-2.1,1.4c-0.8,0.4-1.6,0.7-2.3,0.7
		c-0.2,0-0.4,0-0.6,0C4.4,23.7,3.7,23.4,3.1,23z"/>
	<path class="st0" d="M24.2,10c0.1,0.2,0.2,0.4,0.2,0.7c0,0.4-0.1,0.9-0.4,1.5c-0.1,0.5-0.3,0.9-0.4,1.3c-0.2,0.4-0.3,0.7-0.4,0.8
		L22.7,16c-0.2,0.7-0.6,1.5-0.9,2.4c-0.5,1.2-0.8,2-0.9,2.6l-0.3,0.7c-0.9,1.7-1.6,2.9-2,3.5C18,25.5,17.5,26,17,26.5
		c-0.6,0.5-1,0.8-1.4,0.8c-0.4,0.1-0.8,0.2-1.2,0.2c-0.8,0.1-1.6,0-2.2-0.3c-0.7-0.2-1.1-0.5-1.2-0.9L10.8,26c0-0.3,0.1-0.6,0.3-0.8
		c0.3-0.2,0.5-0.3,0.9-0.4c0.2,0,0.4,0,0.5,0.1c0,0,0.2,0.1,0.5,0.3c0.3,0.2,0.7,0.2,1.2,0.2c0.9-0.1,1.7-0.7,2.5-2
		c0.7-1.4,1.3-2.5,1.7-3.4c-0.4-0.2-0.8-0.6-1.3-1.1c-0.4-0.5-0.6-0.9-0.6-1.1l0-0.3c-0.2,0-0.3-0.3-0.4-0.9
		c-0.1-0.6-0.2-1.3-0.3-2.2c-0.1-1-0.1-1.6-0.1-2c0.1-0.3,0.1-0.7,0-1.2c0-0.5,0-0.8-0.1-0.9c0-0.3,0-0.5,0.1-0.7
		c0.1-0.2,0.2-0.4,0.3-0.5c0.3-0.1,0.5-0.2,0.6-0.2c0.9-0.1,1.5,0.9,1.6,2.8c0,0.4,0,0.7,0,0.9c0,1,0.1,1.6,0.1,2
		c0.1,1.5,0.4,2.5,0.9,2.9c0.1-0.4,0.3-0.7,0.4-0.9c0.2-0.6,0.4-1,0.4-1.1c0-0.1,0.1-0.4,0.3-0.7l0.3-0.8c0-0.1,0.1-0.5,0.3-1.2
		c0.2-0.7,0.3-1.2,0.5-1.6c0.1-0.2,0.2-0.4,0.3-0.7c0.1-0.3,0.2-0.6,0.3-0.7c0.1-0.1,0.2-0.2,0.3-0.3c0.1-0.2,0.3-0.2,0.5-0.2
		s0.4,0,0.6,0.1C23.8,9.6,24,9.8,24.2,10z"/>
	<path class="st0" d="M38.8,12.5c-0.2,1.2-0.3,2.1-0.3,2.6c0,0.6,0,1.1,0,1.4c0,0.4,0.1,0.8,0.2,1.1c0.1,0.5,0.2,0.8,0.2,1.1
		c0,0.3,0,0.6-0.2,0.7c-0.1,0.2-0.4,0.3-0.7,0.4c-0.3,0-0.6,0-0.8-0.1c-0.2-0.1-0.4-0.3-0.5-0.5c-0.1-0.2-0.2-0.4-0.4-0.7
		c-0.1-0.3-0.2-0.5-0.3-0.7C36,17.4,36,17.2,36,16.9c0-0.1-0.1-0.2-0.1-0.5s0-0.4,0-0.4l-0.1-0.4c0-0.5,0-1.3,0.1-2.6
		c-0.1,0.1-0.2,0.3-0.4,0.6c-0.1,0.1-0.1,0.2-0.2,0.3c-0.1,0.1-0.2,0.3-0.3,0.4c-0.5,0.7-0.8,1.2-0.9,1.4c-0.2,0.3-0.4,0.6-0.6,0.9
		c-0.2,0.3-0.2,0.5-0.3,0.7c-0.1,0.3-0.2,0.6-0.3,0.7c-0.2,0.1-0.4,0.2-0.6,0.3c-0.1,0-0.4-0.2-0.9-0.6c-0.3-0.3-0.5-0.6-0.5-1
		c0-0.1,0-0.3,0-0.5c0-0.1-0.1-0.7-0.2-1.7c-0.1-1-0.3-1.8-0.6-2.4l-3,5.8c-0.2,0.3-0.3,0.6-0.4,1c-0.2,0.6-0.5,0.9-0.8,0.9
		c-0.2,0-0.3-0.1-0.5-0.2c-0.4-0.2-0.7-0.4-0.9-0.6c-0.2-0.2-0.3-0.6-0.3-1.2c0.2-0.4,0.3-0.6,0.5-0.6c1.1-2,1.8-3.2,2-3.5
		s0.3-0.5,0.4-0.6c0.1-0.3,0.4-0.8,0.7-1.3c0-0.1,0.2-0.4,0.6-0.9c0.4-0.5,0.6-0.8,0.7-0.9l0.1-0.4c0.1-0.5,0.4-0.8,1-0.8
		c0.1,0,0.2,0,0.3,0c0.2,0.1,0.4,0.2,0.5,0.3c0.2,0.1,0.3,0.2,0.4,0.3c0.1,0.1,0.2,0.2,0.3,0.3l0.2,0.5c0,0.2,0,0.3,0,0.4
		c0,0.1,0.1,0.5,0.3,1.1c0,0.1,0.1,0.4,0.2,1c0.2,0.7,0.3,1.2,0.3,1.3c0.4-0.7,1.9-2.5,4.3-5.3c0.3-0.3,0.5-0.4,0.7-0.4
		c0.1,0,0.3,0,0.4,0.1c0.3,0.1,0.4,0.2,0.5,0.3c0,0.1,0.2,0.2,0.3,0.4c0.2,0.2,0.3,0.5,0.3,0.8c0,0.2,0,0.4-0.1,0.5
		C39.1,10.5,39,11.3,38.8,12.5z"/>
	<path class="st0" d="M52,7.4c0,0,0,0.1,0,0.4c0,0.3,0,0.5-0.1,0.8c-0.1,0.3-0.2,0.5-0.4,0.6c-0.5,0.4-1,0.9-1.5,1.4
		c-1.2,1.1-2.1,2-2.7,2.5c0.1,0.2,0.4,0.6,0.9,1.3l0.4,0.6c0.1,0.1,0.2,0.3,0.3,0.5c0.1,0.2,0.3,0.3,0.4,0.4s0.4,0.1,0.7,0.1
		c0.4,0.1,0.6,0.3,0.7,0.4c0.1,0.2,0.2,0.3,0.2,0.5c0,0.2,0,0.3,0.1,0.4l-0.1,0.5c-0.3,0.5-0.8,0.8-1.3,0.8c-0.2,0-0.4,0-0.7-0.1
		c-0.6-0.1-1.2-0.5-1.8-1.2c-0.2-0.2-0.6-1-1.4-2.4c-0.4-0.8-0.7-1.3-0.9-1.7c-0.2,0.6-0.3,1.1-0.2,1.5c-0.2,0.3-0.3,0.7-0.4,1.2
		c-0.1,0.5-0.2,0.8-0.2,0.9c-0.1,0.5-0.4,1-0.8,1.4c-0.4,0.1-0.7,0-0.9,0c-0.2-0.1-0.4-0.3-0.8-0.6c-0.2-0.3-0.3-0.6-0.3-0.9
		c0-0.2,0-0.5,0.1-0.8c0-0.1,0.3-1.1,0.8-3c0.4-1.6,0.6-2.4,0.7-2.5c0-0.2,0.1-0.4,0.2-0.7C43,9.4,43,9.3,43.1,9.2
		c0.3-0.6,0.5-1.2,0.6-1.6c0.1-0.3,0.2-0.6,0.4-0.8c0.2-0.2,0.5-0.3,0.7-0.3c0.3,0,0.6,0.1,0.9,0.4l0,0c0.1,0,0.1,0.1,0.2,0.1
		C46,7,46.1,7,46.1,7.1c0.3,0.3,0.4,0.6,0.5,1c0,0.3,0,0.5-0.2,0.7l-0.4,1c-0.3,0.5-0.5,1.1-0.7,1.7c0.4-0.1,0.7-0.2,0.8-0.2
		c0.2-0.1,0.3-0.2,0.5-0.5c0.2-0.2,0.5-0.5,0.8-0.9c0.3-0.3,0.6-0.7,0.9-1c0.4-0.4,0.7-0.8,1-1.1c0,0,0.1-0.2,0.2-0.3
		c0.1-0.2,0.2-0.3,0.4-0.5c0.1-0.1,0.3-0.2,0.5-0.3c0.4,0,0.7,0,0.9,0.1c0.2,0.1,0.4,0.2,0.5,0.4C51.9,7.3,52,7.4,52,7.4z"/>
	<path class="st0" d="M53.4,17c-0.3-0.2-0.4-0.3-0.4-0.3c0-0.1-0.1-0.2-0.2-0.3c-0.1-0.1-0.2-0.3-0.3-0.4c-0.2-0.1-0.1-0.7,0.2-1.6
		c0.3-0.9,0.7-2,1.3-3.2c0.1-0.1,0.2-0.4,0.4-0.7c0.2-0.3,0.3-0.5,0.3-0.5c0-0.1,0-0.2,0.1-0.2C54.9,9.7,55,9.6,55,9.6l0.2-0.5
		c0.1-0.2,0.4-0.6,1.1-1.4C57,7,57.5,6.5,57.8,6.2C58.2,6,58.6,5.8,59,5.8c0.5,0,0.9,0.1,1.3,0.3l0.9,0.6c0.6,0.5,1,0.7,1.1,0.8
		l1.2,0.9L63,9.9c-0.1,0.6-0.2,1.1-0.2,1.5c0.1,0.8,0.3,1.5,0.8,2.1c0.1,0.2,0.3,0.4,0.4,0.5c0.2,0.1,0.4,0.2,0.7,0.2
		c0.4,0,0.7,0.2,0.7,0.6c0,0.4,0,0.8-0.2,1c-0.1,0.2-0.3,0.4-0.5,0.5c-0.3,0.1-0.5,0.1-0.7,0.1c-0.6,0-1.1-0.1-1.6-0.3
		c-0.5-0.3-1-0.7-1.4-1.4c-0.1-0.1-0.2-0.3-0.4-0.6c-0.2-0.3-0.2-0.5-0.3-0.6c-0.1,0.2-0.3,0.5-0.6,0.8c-1.9,2.2-3.5,3.4-4.8,3.5
		c-0.4,0-0.8,0-1.2-0.2C53.9,17.4,53.7,17.2,53.4,17z M57.2,13.7c0.1-0.1,0.2-0.2,0.3-0.3c0.1-0.1,0.2-0.2,0.4-0.4
		c0.5-0.5,0.9-0.9,1.2-1.3c0.3-0.3,0.6-0.7,0.9-1.2l0.6-1.1c-0.2-0.4-0.4-0.7-0.6-0.8c-0.2-0.1-0.3-0.2-0.5-0.2
		c-0.4,0-0.9,0.4-1.4,1.2c-0.5,0.8-1.2,1.9-1.9,3.4c-0.2,0.4-0.3,0.8-0.5,1.2c-0.1,0.4-0.2,0.7-0.2,0.8
		C55.7,14.9,56.3,14.5,57.2,13.7z"/>
</g>
</svg>
