<?xml version="1.0" encoding="utf-8"?>
<!-- Generator: Adobe Illustrator 21.1.0, SVG Export Plug-In . SVG Version: 6.00 Build 0)  -->
<svg version="1.1" id="Capa_1" xmlns="http://www.w3.org/2000/svg" xmlns:xlink="http://www.w3.org/1999/xlink" x="0px" y="0px"
	 viewBox="0 0 101.6 101.3" style="enable-background:new 0 0 101.6 101.3;" xml:space="preserve">
<style type="text/css">
	.st0{fill:#FFFFFF;}
</style>
<g>
	<path class="st0" d="M65,1.7l-1.9,8.9l-1.7-0.4l1.6-7.3l-3.4-0.7L58,9.4l-1.7-0.4l1.9-8.9L65,1.7z"/>
	<path class="st0" d="M76.1,9.8c-0.8,1.5-2.4,2.1-4.2,1.2l-1.5-0.8L69,13l-1.5-0.8l4.3-8.1l3,1.6C76.5,6.7,76.8,8.4,76.1,9.8z
		 M74.5,9c0.4-0.7,0.1-1.4-0.6-1.8l-1.4-0.7l-1.2,2.4l1.4,0.7C73.4,9.9,74.1,9.7,74.5,9z"/>
	<path class="st0" d="M86,20.3c-1.8,1.9-4.5,2.1-6.4,0.3c-1.9-1.8-1.8-4.5,0-6.4c1.8-1.9,4.5-2.1,6.4-0.3S87.8,18.4,86,20.3z
		 M84.7,19.1c1.2-1.2,1.3-2.8,0.1-3.9c-1.2-1.2-2.8-0.9-3.9,0.3c-1.1,1.2-1.3,2.8-0.1,3.9C82,20.5,83.6,20.3,84.7,19.1z"/>
	<path class="st0" d="M92.1,43.2l-3.2-10.3l8.7-2.7l0.5,1.6L91,34.1l0.8,2.7l7.1-2.2l0.5,1.6l-7.1,2.2l0.8,2.7l7.1-2.2l0.5,1.6
		L92.1,43.2z"/>
	<path class="st0" d="M96.1,50.4l-0.9-0.8l-2.8,0l0-1.7l9.1,0.1l0,1.7l-3.7-0.1l3.6,3.2l0,2.3l-4-3.5l-5.1,3.5l0-2.1L96.1,50.4z"/>
	<path class="st0" d="M93.8,67.9c-2.5-0.7-3.9-3-3.2-5.5s3.2-3.7,5.7-2.9s3.9,3.1,3.2,5.6S96.3,68.6,93.8,67.9z M94.3,66.2
		c1.6,0.5,3.1-0.1,3.5-1.7c0.5-1.6-0.4-2.9-2-3.4c-1.6-0.5-3.1,0.1-3.5,1.7C91.8,64.4,92.7,65.7,94.3,66.2z"/>
	<path class="st0" d="M91.6,80.9L83.9,76l0.9-1.5l6.3,4l1.1-1.8c-2.5-1.6-4.9-3.3-5.1-5c-0.1-0.8,0.2-1.6,0.9-2.3l1.3,1.2
		c-0.4,0.4-0.4,0.7-0.4,0.9c0.2,1.4,3.2,3.1,5.7,4.7L91.6,80.9z"/>
	<path class="st0" d="M81.7,90.9l-2.3-6.7c-0.5-1.6-0.9-3.2,1.1-4.4l0.8,1.5c-0.8,0.4-0.6,1.1-0.4,1.8l6.4,2.8l-1.4,1.3l-4.4-2
		l1.6,4.4L81.7,90.9z"/>
	<path class="st0" d="M61,93.8c-0.5-1.5,0.4-3,2.4-3.7c1.4-0.4,2.9-0.2,3.6,0.4l-1,1.3c-0.3-0.2-1.1-0.5-2.1-0.2
		c-1,0.3-1.4,1.1-1.2,1.7c0.2,0.6,0.8,1,2,0.6l1.1-0.4l0.4,1.4l-1.1,0.4c-1,0.3-1,0.9-0.9,1.4s0.6,1.1,1.7,0.7
		c0.7-0.2,1.1-0.8,1.2-1.3l1.5,0c-0.1,1.2-1.1,2.4-2.4,2.9c-1.7,0.5-3.1-0.1-3.6-1.4c-0.3-0.9,0-1.7,0.5-2.2
		C62.2,95.4,61.3,94.8,61,93.8z"/>
	<path class="st0" d="M51,94.3l3.1-0.1l0.6-2.1l2-0.1l-3,9.2l-1.8,0.1l-3.7-9l2-0.1L51,94.3z M51.6,95.9l1.1,2.8l0.8-2.8L51.6,95.9z
		"/>
	<path class="st0" d="M29.6,88.5l1.3-2.9l1.6,0.7l-0.6,1.4l4.5,2l0.6-1.4l1.6,0.7l-1.3,2.9l-0.7-0.3c-2,1.2-3.4,3.9-4.4,6.2
		l-4.8-2.1l3-6.8L29.6,88.5z M34.8,90.8L32,89.6l-2.3,5.3l1.6,0.7C32.2,93.8,33.3,92,34.8,90.8z"/>
	<path class="st0" d="M19.8,82.6c1-1.2,2.6-1.5,4.1-0.2l2.7,2.2l-5.8,7l-2.5-2.1c-1.3-1.1-1.4-2.7-0.5-3.8c0.4-0.5,1.1-0.8,1.7-0.8
		C19.2,84.2,19.2,83.3,19.8,82.6z M20.5,89.2l1.2-1.4l-1.2-1c-0.5-0.4-1-0.3-1.3,0.1c-0.3,0.4-0.4,0.9,0.2,1.3L20.5,89.2z
		 M21.2,83.8c-0.4,0.5-0.4,1.1,0.2,1.7l1.3,1.1l1.4-1.7l-1.3-1.1C22.3,83.2,21.6,83.3,21.2,83.8z"/>
	<path class="st0" d="M10.4,81.4l7.1-5.7l1.1,1.4l-7.1,5.7L10.4,81.4z"/>
	<path class="st0" d="M10.2,60.2l-2.6,2.9l3.8,1l0.6,2l-5.4-1.5l-3.4,3.8l-0.6-2l2.4-2.6L1.5,63l-0.6-2l5,1.4l3.7-4.2L10.2,60.2z"/>
	<path class="st0" d="M6.3,47.6c1.6,0,2.8,1,2.8,3l0.1,3.5l-9.1,0.1L0,51c0-1.7,1.1-2.8,2.6-2.8c0.7,0,1.3,0.3,1.7,0.8
		C4.6,48.2,5.3,47.6,6.3,47.6z M1.7,52.5l1.9,0l0-1.5c0-0.7-0.5-1-1-1c-0.5,0-0.9,0.3-0.9,1L1.7,52.5z M6.3,49.4
		c-0.6,0-1.1,0.4-1.1,1.3l0,1.7l2.3,0l0-1.7C7.4,49.8,6.9,49.4,6.3,49.4z"/>
	<path class="st0" d="M2.6,34.2l8.8,2.3l-0.4,1.7l-5.7-1.5l4.8,5l-0.4,1.6l-8.8-2.3l0.4-1.7l5.7,1.5l-4.8-5L2.6,34.2z"/>
	<path class="st0" d="M9,21.4l7.8,4.7l-0.9,1.5l-6.4-3.8l-1.1,1.8c2.5,1.5,5,3.2,5.2,4.9c0.1,0.8-0.2,1.6-0.8,2.3l-1.3-1.1
		c0.4-0.4,0.4-0.7,0.4-0.9c-0.2-1.4-3.3-3-5.8-4.5L9,21.4z"/>
	<path class="st0" d="M18.7,11l6.2,6.7l-1.3,1.2l-4-4.3l1.4,6.8l-1.2,1.2l-6.2-6.7l1.3-1.2l4,4.3l-1.4-6.8L18.7,11z"/>
	<path class="st0" d="M31,3.6l4.1,8.1l-1.5,0.8l-1.7-3.3l-3.3,1.7l1.7,3.3L28.7,15l-4.1-8.1l1.5-0.8l1.7,3.3l3.3-1.7l-1.7-3.3
		L31,3.6z"/>
	<path class="st0" d="M44.7,0l1.7,8.9l-1.7,0.3l-1.1-5.8l-2.4,6.5l-1.7,0.3l-1.7-8.9L39.5,1l1.1,5.8L43,0.3L44.7,0z"/>
</g>
</svg>
